G04 #@! TF.FileFunction,Legend,Top*
%FSLAX46Y46*%
G04 Gerber Fmt 4.6, Leading zero omitted, Abs format (unit mm)*
G04 Created by KiCad (PCBNEW 4.0.6) date 02/09/18 11:50:01*
%MOMM*%
%LPD*%
G01*
G04 APERTURE LIST*
%ADD10C,0.100000*%
%ADD11C,0.127000*%
%ADD12C,0.304800*%
%ADD13C,0.300000*%
%ADD14C,0.381000*%
%ADD15C,0.149860*%
%ADD16C,0.299720*%
%ADD17C,0.254000*%
%ADD18C,0.150000*%
G04 APERTURE END LIST*
D10*
D11*
X41529000Y-56769000D02*
X41529000Y-55499000D01*
X42799000Y-56769000D02*
X42799000Y-55524400D01*
X43180000Y-56769000D02*
X41148000Y-56769000D01*
X41148000Y-56769000D02*
X41148000Y-55499000D01*
X41148000Y-55499000D02*
X43180000Y-55499000D01*
X43180000Y-55499000D02*
X43180000Y-56769000D01*
X20701000Y-52959000D02*
X21971000Y-52959000D01*
X20701000Y-54229000D02*
X21945600Y-54229000D01*
X20701000Y-54610000D02*
X20701000Y-52578000D01*
X20701000Y-52578000D02*
X21971000Y-52578000D01*
X21971000Y-52578000D02*
X21971000Y-54610000D01*
X21971000Y-54610000D02*
X20701000Y-54610000D01*
X27559000Y-47625000D02*
X26289000Y-47625000D01*
X27559000Y-46355000D02*
X26314400Y-46355000D01*
X27559000Y-45974000D02*
X27559000Y-48006000D01*
X27559000Y-48006000D02*
X26289000Y-48006000D01*
X26289000Y-48006000D02*
X26289000Y-45974000D01*
X26289000Y-45974000D02*
X27559000Y-45974000D01*
X39497000Y-46101000D02*
X39497000Y-47371000D01*
X38227000Y-46101000D02*
X38227000Y-47345600D01*
X37846000Y-46101000D02*
X39878000Y-46101000D01*
X39878000Y-46101000D02*
X39878000Y-47371000D01*
X39878000Y-47371000D02*
X37846000Y-47371000D01*
X37846000Y-47371000D02*
X37846000Y-46101000D01*
X21971000Y-61849000D02*
X20701000Y-61849000D01*
X21971000Y-60579000D02*
X20726400Y-60579000D01*
X21971000Y-60198000D02*
X21971000Y-62230000D01*
X21971000Y-62230000D02*
X20701000Y-62230000D01*
X20701000Y-62230000D02*
X20701000Y-60198000D01*
X20701000Y-60198000D02*
X21971000Y-60198000D01*
D12*
X42220000Y-28816000D02*
X42220000Y-24016000D01*
X50020000Y-26416000D02*
G75*
G03X50020000Y-26416000I-4300000J0D01*
G01*
X42020000Y-28216000D02*
X42020000Y-24616000D01*
X41820000Y-27816000D02*
X41820000Y-25016000D01*
X41620000Y-27216000D02*
X41620000Y-25516000D01*
D13*
X43520000Y-25116000D02*
X43520000Y-23916000D01*
D11*
X52959000Y-27051000D02*
X52959000Y-25781000D01*
X54229000Y-27051000D02*
X54229000Y-25806400D01*
X54610000Y-27051000D02*
X52578000Y-27051000D01*
X52578000Y-27051000D02*
X52578000Y-25781000D01*
X52578000Y-25781000D02*
X54610000Y-25781000D01*
X54610000Y-25781000D02*
X54610000Y-27051000D01*
X39497000Y-43561000D02*
X39497000Y-44831000D01*
X38227000Y-43561000D02*
X38227000Y-44805600D01*
X37846000Y-43561000D02*
X39878000Y-43561000D01*
X39878000Y-43561000D02*
X39878000Y-44831000D01*
X39878000Y-44831000D02*
X37846000Y-44831000D01*
X37846000Y-44831000D02*
X37846000Y-43561000D01*
D12*
X44764000Y-50762000D02*
X44764000Y-52362000D01*
X44564000Y-50262000D02*
X44564000Y-52862000D01*
X44364000Y-49862000D02*
X44364000Y-53262000D01*
X44964000Y-51562000D02*
G75*
G03X44964000Y-51562000I-2800000J0D01*
G01*
D13*
X43264000Y-52562000D02*
X43264000Y-53562000D01*
D11*
X34163000Y-34925000D02*
X34163000Y-33655000D01*
X35433000Y-34925000D02*
X35433000Y-33680400D01*
X35814000Y-34925000D02*
X33782000Y-34925000D01*
X33782000Y-34925000D02*
X33782000Y-33655000D01*
X33782000Y-33655000D02*
X35814000Y-33655000D01*
X35814000Y-33655000D02*
X35814000Y-34925000D01*
X41526460Y-36083240D02*
X41526460Y-38084760D01*
X41625520Y-38084760D02*
X41625520Y-36083240D01*
X41727120Y-36083240D02*
X41727120Y-38084760D01*
X41826180Y-38084760D02*
X41826180Y-36083240D01*
X41925240Y-38084760D02*
X41925240Y-36083240D01*
X41424860Y-38084760D02*
X44427140Y-38084760D01*
X44427140Y-38084760D02*
X44427140Y-36083240D01*
X44427140Y-36083240D02*
X41424860Y-36083240D01*
X41424860Y-36083240D02*
X41424860Y-38084760D01*
X53139340Y-22098000D02*
X53439060Y-22397720D01*
X53439060Y-22397720D02*
X53439060Y-21798280D01*
X53439060Y-21798280D02*
X53139340Y-22098000D01*
X53240940Y-21998940D02*
X53240940Y-22197060D01*
X53340000Y-22298660D02*
X53340000Y-21897340D01*
X53040280Y-21297900D02*
X53040280Y-22898100D01*
X53639720Y-22898100D02*
X53639720Y-21297900D01*
X54340760Y-22898100D02*
X52339240Y-22898100D01*
X52339240Y-22898100D02*
X52339240Y-21297900D01*
X52339240Y-21297900D02*
X54340760Y-21297900D01*
X54340760Y-21297900D02*
X54340760Y-22898100D01*
X43888660Y-39624000D02*
X43588940Y-39324280D01*
X43588940Y-39324280D02*
X43588940Y-39923720D01*
X43588940Y-39923720D02*
X43888660Y-39624000D01*
X43787060Y-39723060D02*
X43787060Y-39524940D01*
X43688000Y-39423340D02*
X43688000Y-39824660D01*
X43987720Y-40424100D02*
X43987720Y-38823900D01*
X43388280Y-38823900D02*
X43388280Y-40424100D01*
X42687240Y-38823900D02*
X44688760Y-38823900D01*
X44688760Y-38823900D02*
X44688760Y-40424100D01*
X44688760Y-40424100D02*
X42687240Y-40424100D01*
X42687240Y-40424100D02*
X42687240Y-38823900D01*
X43888660Y-42164000D02*
X43588940Y-41864280D01*
X43588940Y-41864280D02*
X43588940Y-42463720D01*
X43588940Y-42463720D02*
X43888660Y-42164000D01*
X43787060Y-42263060D02*
X43787060Y-42064940D01*
X43688000Y-41963340D02*
X43688000Y-42364660D01*
X43987720Y-42964100D02*
X43987720Y-41363900D01*
X43388280Y-41363900D02*
X43388280Y-42964100D01*
X42687240Y-41363900D02*
X44688760Y-41363900D01*
X44688760Y-41363900D02*
X44688760Y-42964100D01*
X44688760Y-42964100D02*
X42687240Y-42964100D01*
X42687240Y-42964100D02*
X42687240Y-41363900D01*
X41325800Y-31775400D02*
X41325800Y-34264600D01*
X44526200Y-34264600D02*
X44526200Y-31775400D01*
X44069000Y-31775400D02*
X44069000Y-34264600D01*
X41783000Y-34264600D02*
X41783000Y-31775400D01*
X41325800Y-34264600D02*
X44526200Y-34264600D01*
X44526200Y-31775400D02*
X41325800Y-31775400D01*
D12*
X38608000Y-66294000D02*
X30988000Y-66294000D01*
X30988000Y-66294000D02*
X30988000Y-61214000D01*
X30988000Y-61214000D02*
X38608000Y-61214000D01*
X38608000Y-63754000D02*
X36068000Y-63754000D01*
X36068000Y-63754000D02*
X36068000Y-61214000D01*
X38608000Y-66294000D02*
X38608000Y-61214000D01*
X45466000Y-63754000D02*
X45466000Y-66294000D01*
X53086000Y-66294000D02*
X42926000Y-66294000D01*
X42926000Y-63754000D02*
X53086000Y-63754000D01*
X42926000Y-66294000D02*
X42926000Y-63754000D01*
X53086000Y-63754000D02*
X53086000Y-66294000D01*
D14*
X21590000Y-20828000D02*
X21590000Y-32766000D01*
X38862000Y-32766000D02*
X38862000Y-20828000D01*
X28702000Y-26416000D02*
X31750000Y-26416000D01*
X29210000Y-26416000D02*
X29210000Y-20828000D01*
X28702000Y-28194000D02*
X28702000Y-26416000D01*
X31750000Y-26416000D02*
X31750000Y-28194000D01*
X31242000Y-20828000D02*
X31242000Y-26416000D01*
X36322000Y-20828000D02*
X36322000Y-28194000D01*
X36322000Y-28194000D02*
X24130000Y-28194000D01*
X24130000Y-28194000D02*
X24130000Y-20828000D01*
X38862000Y-32766000D02*
X21590000Y-32766000D01*
X21590000Y-20828000D02*
X38862000Y-20828000D01*
D11*
X26606500Y-41973500D02*
X27266900Y-41973500D01*
X26606500Y-43878500D02*
X27266900Y-43878500D01*
X25209500Y-42926000D02*
X24549100Y-42926000D01*
X25209500Y-44424600D02*
X25209500Y-41427400D01*
X25209500Y-41427400D02*
X26606500Y-41427400D01*
X26606500Y-41427400D02*
X26606500Y-44424600D01*
X26606500Y-44424600D02*
X25209500Y-44424600D01*
X47434500Y-59372500D02*
X47434500Y-60032900D01*
X45529500Y-59372500D02*
X45529500Y-60032900D01*
X46482000Y-57975500D02*
X46482000Y-57315100D01*
X44983400Y-57975500D02*
X47980600Y-57975500D01*
X47980600Y-57975500D02*
X47980600Y-59372500D01*
X47980600Y-59372500D02*
X44983400Y-59372500D01*
X44983400Y-59372500D02*
X44983400Y-57975500D01*
X53784500Y-61658500D02*
X53784500Y-62318900D01*
X51879500Y-61658500D02*
X51879500Y-62318900D01*
X52832000Y-60261500D02*
X52832000Y-59601100D01*
X51333400Y-60261500D02*
X54330600Y-60261500D01*
X54330600Y-60261500D02*
X54330600Y-61658500D01*
X54330600Y-61658500D02*
X51333400Y-61658500D01*
X51333400Y-61658500D02*
X51333400Y-60261500D01*
X34163000Y-45339000D02*
X35433000Y-45339000D01*
X34163000Y-46609000D02*
X35407600Y-46609000D01*
X34163000Y-46990000D02*
X34163000Y-44958000D01*
X34163000Y-44958000D02*
X35433000Y-44958000D01*
X35433000Y-44958000D02*
X35433000Y-46990000D01*
X35433000Y-46990000D02*
X34163000Y-46990000D01*
X58801000Y-21463000D02*
X58801000Y-22733000D01*
X57531000Y-21463000D02*
X57531000Y-22707600D01*
X57150000Y-21463000D02*
X59182000Y-21463000D01*
X59182000Y-21463000D02*
X59182000Y-22733000D01*
X59182000Y-22733000D02*
X57150000Y-22733000D01*
X57150000Y-22733000D02*
X57150000Y-21463000D01*
X31877000Y-46609000D02*
X30607000Y-46609000D01*
X31877000Y-45339000D02*
X30632400Y-45339000D01*
X31877000Y-44958000D02*
X31877000Y-46990000D01*
X31877000Y-46990000D02*
X30607000Y-46990000D01*
X30607000Y-46990000D02*
X30607000Y-44958000D01*
X30607000Y-44958000D02*
X31877000Y-44958000D01*
X29845000Y-46609000D02*
X28575000Y-46609000D01*
X29845000Y-45339000D02*
X28600400Y-45339000D01*
X29845000Y-44958000D02*
X29845000Y-46990000D01*
X29845000Y-46990000D02*
X28575000Y-46990000D01*
X28575000Y-46990000D02*
X28575000Y-44958000D01*
X28575000Y-44958000D02*
X29845000Y-44958000D01*
X42037000Y-60071000D02*
X42037000Y-61341000D01*
X40767000Y-60071000D02*
X40767000Y-61315600D01*
X40386000Y-60071000D02*
X42418000Y-60071000D01*
X42418000Y-60071000D02*
X42418000Y-61341000D01*
X42418000Y-61341000D02*
X40386000Y-61341000D01*
X40386000Y-61341000D02*
X40386000Y-60071000D01*
X25019000Y-47625000D02*
X23749000Y-47625000D01*
X25019000Y-46355000D02*
X23774400Y-46355000D01*
X25019000Y-45974000D02*
X25019000Y-48006000D01*
X25019000Y-48006000D02*
X23749000Y-48006000D01*
X23749000Y-48006000D02*
X23749000Y-45974000D01*
X23749000Y-45974000D02*
X25019000Y-45974000D01*
X49657000Y-42037000D02*
X49657000Y-40767000D01*
X50927000Y-42037000D02*
X50927000Y-40792400D01*
X51308000Y-42037000D02*
X49276000Y-42037000D01*
X49276000Y-42037000D02*
X49276000Y-40767000D01*
X49276000Y-40767000D02*
X51308000Y-40767000D01*
X51308000Y-40767000D02*
X51308000Y-42037000D01*
X44831000Y-62865000D02*
X44831000Y-61595000D01*
X46101000Y-62865000D02*
X46101000Y-61620400D01*
X46482000Y-62865000D02*
X44450000Y-62865000D01*
X44450000Y-62865000D02*
X44450000Y-61595000D01*
X44450000Y-61595000D02*
X46482000Y-61595000D01*
X46482000Y-61595000D02*
X46482000Y-62865000D01*
X50927000Y-43053000D02*
X50927000Y-44323000D01*
X49657000Y-43053000D02*
X49657000Y-44297600D01*
X49276000Y-43053000D02*
X51308000Y-43053000D01*
X51308000Y-43053000D02*
X51308000Y-44323000D01*
X51308000Y-44323000D02*
X49276000Y-44323000D01*
X49276000Y-44323000D02*
X49276000Y-43053000D01*
X24511000Y-34671000D02*
X24511000Y-35941000D01*
X23241000Y-34671000D02*
X23241000Y-35915600D01*
X22860000Y-34671000D02*
X24892000Y-34671000D01*
X24892000Y-34671000D02*
X24892000Y-35941000D01*
X24892000Y-35941000D02*
X22860000Y-35941000D01*
X22860000Y-35941000D02*
X22860000Y-34671000D01*
X24511000Y-38735000D02*
X24511000Y-40005000D01*
X23241000Y-38735000D02*
X23241000Y-39979600D01*
X22860000Y-38735000D02*
X24892000Y-38735000D01*
X24892000Y-38735000D02*
X24892000Y-40005000D01*
X24892000Y-40005000D02*
X22860000Y-40005000D01*
X22860000Y-40005000D02*
X22860000Y-38735000D01*
X57277000Y-62611000D02*
X56007000Y-62611000D01*
X57277000Y-61341000D02*
X56032400Y-61341000D01*
X57277000Y-60960000D02*
X57277000Y-62992000D01*
X57277000Y-62992000D02*
X56007000Y-62992000D01*
X56007000Y-62992000D02*
X56007000Y-60960000D01*
X56007000Y-60960000D02*
X57277000Y-60960000D01*
X48641000Y-60579000D02*
X49911000Y-60579000D01*
X48641000Y-61849000D02*
X49885600Y-61849000D01*
X48641000Y-62230000D02*
X48641000Y-60198000D01*
X48641000Y-60198000D02*
X49911000Y-60198000D01*
X49911000Y-60198000D02*
X49911000Y-62230000D01*
X49911000Y-62230000D02*
X48641000Y-62230000D01*
X23241000Y-37973000D02*
X23241000Y-36703000D01*
X24511000Y-37973000D02*
X24511000Y-36728400D01*
X24892000Y-37973000D02*
X22860000Y-37973000D01*
X22860000Y-37973000D02*
X22860000Y-36703000D01*
X22860000Y-36703000D02*
X24892000Y-36703000D01*
X24892000Y-36703000D02*
X24892000Y-37973000D01*
X35687000Y-41275000D02*
X35687000Y-42545000D01*
X34417000Y-41275000D02*
X34417000Y-42519600D01*
X34036000Y-41275000D02*
X36068000Y-41275000D01*
X36068000Y-41275000D02*
X36068000Y-42545000D01*
X36068000Y-42545000D02*
X34036000Y-42545000D01*
X34036000Y-42545000D02*
X34036000Y-41275000D01*
X38227000Y-35179000D02*
X39497000Y-35179000D01*
X38227000Y-36449000D02*
X39471600Y-36449000D01*
X38227000Y-36830000D02*
X38227000Y-34798000D01*
X38227000Y-34798000D02*
X39497000Y-34798000D01*
X39497000Y-34798000D02*
X39497000Y-36830000D01*
X39497000Y-36830000D02*
X38227000Y-36830000D01*
X35941000Y-37465000D02*
X37211000Y-37465000D01*
X35941000Y-38735000D02*
X37185600Y-38735000D01*
X35941000Y-39116000D02*
X35941000Y-37084000D01*
X35941000Y-37084000D02*
X37211000Y-37084000D01*
X37211000Y-37084000D02*
X37211000Y-39116000D01*
X37211000Y-39116000D02*
X35941000Y-39116000D01*
D15*
X29682440Y-50203100D02*
X29883100Y-50002440D01*
X30081220Y-50002440D02*
X29682440Y-50401220D01*
X29682440Y-50601880D02*
X30281880Y-50002440D01*
X29682440Y-50802540D02*
X29682440Y-50002440D01*
X29682440Y-50002440D02*
X30482540Y-50002440D01*
X30482540Y-50002440D02*
X29682440Y-50802540D01*
X30482540Y-58201560D02*
X29682440Y-58201560D01*
X29682440Y-58201560D02*
X29682440Y-57401460D01*
X37881560Y-57401460D02*
X37881560Y-58201560D01*
X37881560Y-58201560D02*
X37081460Y-58201560D01*
X37081460Y-50002440D02*
X37881560Y-50002440D01*
X37881560Y-50002440D02*
X37881560Y-50802540D01*
D11*
X31652981Y-51689000D02*
G75*
G03X31652981Y-51689000I-283981J0D01*
G01*
X30607000Y-57658000D02*
X30226000Y-57277000D01*
X30226000Y-57277000D02*
X30226000Y-50927000D01*
X30226000Y-50927000D02*
X30607000Y-50546000D01*
X30607000Y-50546000D02*
X36957000Y-50546000D01*
X36957000Y-50546000D02*
X37338000Y-50927000D01*
X37338000Y-50927000D02*
X37338000Y-57277000D01*
X37338000Y-57277000D02*
X36957000Y-57658000D01*
X36957000Y-57658000D02*
X30607000Y-57658000D01*
X52603400Y-38696900D02*
X49504600Y-38696900D01*
X49504600Y-38696900D02*
X49504600Y-36906200D01*
X52603400Y-38696900D02*
X52603400Y-36906200D01*
X49161700Y-31407100D02*
X48348900Y-31407100D01*
X48348900Y-31407100D02*
X48348900Y-33197800D01*
X49161700Y-31407100D02*
X49161700Y-33197800D01*
X51460400Y-31407100D02*
X51460400Y-33197800D01*
X50647600Y-31407100D02*
X50647600Y-33197800D01*
X51460400Y-31407100D02*
X50647600Y-31407100D01*
X53759100Y-31407100D02*
X52946300Y-31407100D01*
X52946300Y-31407100D02*
X52946300Y-33197800D01*
X53759100Y-31407100D02*
X53759100Y-33197800D01*
X47701200Y-33197800D02*
X54406800Y-33197800D01*
X54406800Y-33197800D02*
X54406800Y-36906200D01*
X54406800Y-36906200D02*
X47701200Y-36906200D01*
X47701200Y-36906200D02*
X47701200Y-33197800D01*
X32715200Y-35687000D02*
X28752800Y-35687000D01*
X28752800Y-35687000D02*
X28752800Y-40513000D01*
X28752800Y-40513000D02*
X32715200Y-40513000D01*
X32715200Y-40513000D02*
X32715200Y-35687000D01*
X32715200Y-36195000D02*
X33807400Y-36195000D01*
X32715200Y-37465000D02*
X33807400Y-37465000D01*
X32715200Y-38735000D02*
X33807400Y-38735000D01*
X33807400Y-40005000D02*
X32715200Y-40005000D01*
X28752800Y-40005000D02*
X27660600Y-40005000D01*
X27660600Y-38735000D02*
X28752800Y-38735000D01*
X27660600Y-37465000D02*
X28752800Y-37465000D01*
X27660600Y-36195000D02*
X28752800Y-36195000D01*
X29961867Y-36423600D02*
G75*
G03X29961867Y-36423600I-472467J0D01*
G01*
D16*
X27899360Y-51605180D02*
X22900640Y-51605180D01*
X22900640Y-51605180D02*
X22900640Y-63202820D01*
X22900640Y-63202820D02*
X27899360Y-63202820D01*
X27899360Y-63202820D02*
X27899360Y-51605180D01*
D17*
X25400000Y-62992000D02*
G75*
G03X27686000Y-60706000I0J2286000D01*
G01*
X23622000Y-54102000D02*
X23622000Y-60706000D01*
X27178000Y-60706000D02*
X27178000Y-54102000D01*
X23622000Y-60706000D02*
G75*
G03X25400000Y-62484000I1778000J0D01*
G01*
X25400000Y-62484000D02*
G75*
G03X27178000Y-60706000I0J1778000D01*
G01*
X25400000Y-52324000D02*
G75*
G03X23622000Y-54102000I0J-1778000D01*
G01*
X27178000Y-54102000D02*
G75*
G03X25400000Y-52324000I-1778000J0D01*
G01*
X23114000Y-60706000D02*
G75*
G03X25400000Y-62992000I2286000J0D01*
G01*
X23114000Y-60706000D02*
X23114000Y-54102000D01*
X27686000Y-54102000D02*
X27686000Y-60706000D01*
X25400000Y-51816000D02*
G75*
G03X23114000Y-54102000I0J-2286000D01*
G01*
X27686000Y-54102000D02*
G75*
G03X25400000Y-51816000I-2286000J0D01*
G01*
D16*
X58150760Y-46187360D02*
G75*
G03X55331360Y-45989240I-1508760J-1310640D01*
G01*
X55311040Y-48999140D02*
G75*
G03X58143140Y-48828960I1330960J1501140D01*
G01*
X56642000Y-45499020D02*
G75*
G03X54643020Y-47498000I0J-1998980D01*
G01*
X54643020Y-47498000D02*
G75*
G03X56642000Y-49496980I1998980J0D01*
G01*
X57942480Y-48999140D02*
X57942480Y-45996860D01*
X58143140Y-48798480D02*
X58143140Y-46197520D01*
X58143140Y-47498000D02*
G75*
G03X58143140Y-47498000I-1501140J0D01*
G01*
X58150760Y-51013360D02*
G75*
G03X55331360Y-50815240I-1508760J-1310640D01*
G01*
X55311040Y-53825140D02*
G75*
G03X58143140Y-53654960I1330960J1501140D01*
G01*
X56642000Y-50325020D02*
G75*
G03X54643020Y-52324000I0J-1998980D01*
G01*
X54643020Y-52324000D02*
G75*
G03X56642000Y-54322980I1998980J0D01*
G01*
X57942480Y-53825140D02*
X57942480Y-50822860D01*
X58143140Y-53624480D02*
X58143140Y-51023520D01*
X58143140Y-52324000D02*
G75*
G03X58143140Y-52324000I-1501140J0D01*
G01*
X58150760Y-41361360D02*
G75*
G03X55331360Y-41163240I-1508760J-1310640D01*
G01*
X55311040Y-44173140D02*
G75*
G03X58143140Y-44002960I1330960J1501140D01*
G01*
X56642000Y-40673020D02*
G75*
G03X54643020Y-42672000I0J-1998980D01*
G01*
X54643020Y-42672000D02*
G75*
G03X56642000Y-44670980I1998980J0D01*
G01*
X57942480Y-44173140D02*
X57942480Y-41170860D01*
X58143140Y-43972480D02*
X58143140Y-41371520D01*
X58143140Y-42672000D02*
G75*
G03X58143140Y-42672000I-1501140J0D01*
G01*
X16271240Y-48808640D02*
G75*
G03X19090640Y-49006760I1508760J1310640D01*
G01*
X19110960Y-45996860D02*
G75*
G03X16278860Y-46167040I-1330960J-1501140D01*
G01*
X17780000Y-49496980D02*
G75*
G03X19778980Y-47498000I0J1998980D01*
G01*
X19778980Y-47498000D02*
G75*
G03X17780000Y-45499020I-1998980J0D01*
G01*
X16479520Y-45996860D02*
X16479520Y-48999140D01*
X16278860Y-46197520D02*
X16278860Y-48798480D01*
X19281140Y-47498000D02*
G75*
G03X19281140Y-47498000I-1501140J0D01*
G01*
X16271240Y-43982640D02*
G75*
G03X19090640Y-44180760I1508760J1310640D01*
G01*
X19110960Y-41170860D02*
G75*
G03X16278860Y-41341040I-1330960J-1501140D01*
G01*
X17780000Y-44670980D02*
G75*
G03X19778980Y-42672000I0J1998980D01*
G01*
X19778980Y-42672000D02*
G75*
G03X17780000Y-40673020I-1998980J0D01*
G01*
X16479520Y-41170860D02*
X16479520Y-44173140D01*
X16278860Y-41371520D02*
X16278860Y-43972480D01*
X19281140Y-42672000D02*
G75*
G03X19281140Y-42672000I-1501140J0D01*
G01*
X16271240Y-53634640D02*
G75*
G03X19090640Y-53832760I1508760J1310640D01*
G01*
X19110960Y-50822860D02*
G75*
G03X16278860Y-50993040I-1330960J-1501140D01*
G01*
X17780000Y-54322980D02*
G75*
G03X19778980Y-52324000I0J1998980D01*
G01*
X19778980Y-52324000D02*
G75*
G03X17780000Y-50325020I-1998980J0D01*
G01*
X16479520Y-50822860D02*
X16479520Y-53825140D01*
X16278860Y-51023520D02*
X16278860Y-53624480D01*
X19281140Y-52324000D02*
G75*
G03X19281140Y-52324000I-1501140J0D01*
G01*
D11*
X16573500Y-37401500D02*
X16573500Y-36741100D01*
X18478500Y-37401500D02*
X18478500Y-36741100D01*
X17526000Y-38798500D02*
X17526000Y-39458900D01*
X19024600Y-38798500D02*
X16027400Y-38798500D01*
X16027400Y-38798500D02*
X16027400Y-37401500D01*
X16027400Y-37401500D02*
X19024600Y-37401500D01*
X19024600Y-37401500D02*
X19024600Y-38798500D01*
X50355500Y-48450500D02*
X49695100Y-48450500D01*
X50355500Y-46545500D02*
X49695100Y-46545500D01*
X51752500Y-47498000D02*
X52412900Y-47498000D01*
X51752500Y-45999400D02*
X51752500Y-48996600D01*
X51752500Y-48996600D02*
X50355500Y-48996600D01*
X50355500Y-48996600D02*
X50355500Y-45999400D01*
X50355500Y-45999400D02*
X51752500Y-45999400D01*
X57277000Y-56007000D02*
X57277000Y-57277000D01*
X56007000Y-56007000D02*
X56007000Y-57251600D01*
X55626000Y-56007000D02*
X57658000Y-56007000D01*
X57658000Y-56007000D02*
X57658000Y-57277000D01*
X57658000Y-57277000D02*
X55626000Y-57277000D01*
X55626000Y-57277000D02*
X55626000Y-56007000D01*
X18135000Y-33865000D02*
X18135000Y-35135000D01*
X16865000Y-33865000D02*
X16865000Y-35109600D01*
X16484000Y-33865000D02*
X18516000Y-33865000D01*
X18516000Y-33865000D02*
X18516000Y-35135000D01*
X18516000Y-35135000D02*
X16484000Y-35135000D01*
X16484000Y-35135000D02*
X16484000Y-33865000D01*
X17145000Y-57023000D02*
X17145000Y-55753000D01*
X18415000Y-57023000D02*
X18415000Y-55778400D01*
X18796000Y-57023000D02*
X16764000Y-57023000D01*
X16764000Y-57023000D02*
X16764000Y-55753000D01*
X16764000Y-55753000D02*
X18796000Y-55753000D01*
X18796000Y-55753000D02*
X18796000Y-57023000D01*
X48641000Y-48133000D02*
X47371000Y-48133000D01*
X48641000Y-46863000D02*
X47396400Y-46863000D01*
X48641000Y-46482000D02*
X48641000Y-48514000D01*
X48641000Y-48514000D02*
X47371000Y-48514000D01*
X47371000Y-48514000D02*
X47371000Y-46482000D01*
X47371000Y-46482000D02*
X48641000Y-46482000D01*
D18*
X47942667Y-21788381D02*
X47942667Y-20788381D01*
X48323620Y-20788381D01*
X48418858Y-20836000D01*
X48466477Y-20883619D01*
X48514096Y-20978857D01*
X48514096Y-21121714D01*
X48466477Y-21216952D01*
X48418858Y-21264571D01*
X48323620Y-21312190D01*
X47942667Y-21312190D01*
X48847429Y-20788381D02*
X49085524Y-21788381D01*
X49276001Y-21074095D01*
X49466477Y-21788381D01*
X49704572Y-20788381D01*
X50656953Y-21788381D02*
X50323619Y-21312190D01*
X50085524Y-21788381D02*
X50085524Y-20788381D01*
X50466477Y-20788381D01*
X50561715Y-20836000D01*
X50609334Y-20883619D01*
X50656953Y-20978857D01*
X50656953Y-21121714D01*
X50609334Y-21216952D01*
X50561715Y-21264571D01*
X50466477Y-21312190D01*
X50085524Y-21312190D01*
X46569334Y-40584381D02*
X46236000Y-40108190D01*
X45997905Y-40584381D02*
X45997905Y-39584381D01*
X46378858Y-39584381D01*
X46474096Y-39632000D01*
X46521715Y-39679619D01*
X46569334Y-39774857D01*
X46569334Y-39917714D01*
X46521715Y-40012952D01*
X46474096Y-40060571D01*
X46378858Y-40108190D01*
X45997905Y-40108190D01*
X46902667Y-39584381D02*
X47569334Y-40584381D01*
X47569334Y-39584381D02*
X46902667Y-40584381D01*
X45974095Y-42378381D02*
X46545524Y-42378381D01*
X46259809Y-43378381D02*
X46259809Y-42378381D01*
X46783619Y-42378381D02*
X47450286Y-43378381D01*
X47450286Y-42378381D02*
X46783619Y-43378381D01*
M02*
