M48
;DRILL file {KiCad 4.0.7-e2-6376~58~ubuntu14.04.1} date Sun Feb 11 14:13:14 2018
;FORMAT={-:-/ absolute / metric / decimal}
FMAT,2
METRIC,TZ
T1C0.650
T2C0.800
T3C0.800
T4C1.000
T5C1.001
T6C1.501
%
G90
G05
M71
T1
X41.164Y-51.562
X43.164Y-51.562
T2
X43.97Y-26.416
X47.47Y-26.416
T3
X26.675Y-28.646
X27.689Y-30.427
X28.705Y-28.646
X29.718Y-30.427
X30.734Y-28.646
X31.747Y-30.427
X32.763Y-28.646
X33.777Y-30.427
T4
X17.78Y-43.942
X18.6Y-31.
X21.082Y-35.306
X21.971Y-47.117
X22.86Y-41.656
X27.94Y-34.29
X29.21Y-64.262
X29.464Y-48.768
X31.242Y-39.878
X32.1Y-42.9
X32.512Y-32.004
X33.02Y-47.244
X33.528Y-24.638
X34.544Y-59.944
X36.322Y-48.26
X38.2Y-48.8
X39.116Y-38.862
X39.37Y-41.402
X40.132Y-62.992
X41.402Y-58.166
X42.3Y-46.
X44.196Y-44.196
X50.3Y-23.
X54.61Y-38.1
X54.61Y-60.452
X55.88Y-65.024
T5
X32.258Y-62.484
X32.258Y-65.024
X34.798Y-62.484
X34.798Y-65.024
X37.338Y-62.484
X37.338Y-65.024
X44.196Y-65.024
X46.736Y-65.024
X49.276Y-65.024
X51.816Y-65.024
T6
X22.106Y-29.535
X38.346Y-29.535
T0
M30
