M48
;DRILL file {KiCad 4.0.6} date 01/31/18 09:47:51
;FORMAT={3:3/ absolute / metric / suppress leading zeros}
FMAT,2
METRIC,TZ
T1C0.650
T2C0.800
T3C0.800
T4C1.000
T5C1.001
T6C1.501
T7C3.251
%
G90
G05
M71
T1
X28845Y-33655
X30845Y-33655
T2
X37366Y-33528
X40866Y-33528
T3
X18288Y-48514
X18288Y-51054
X46741Y-24328
X47755Y-26109
X48771Y-24328
X49784Y-26109
X50800Y-24328
X51813Y-26109
X52829Y-24328
X53843Y-26109
X69088Y-74930
X69088Y-77470
X69850Y-25908
X72390Y-25908
T4
X20320Y-58420
X32512Y-26416
X32512Y-74930
X33020Y-68580
X43434Y-63754
X45720Y-77978
X50038Y-71882
X50292Y-74930
X50800Y-65786
X52070Y-79756
X53594Y-66548
X57912Y-67564
X58420Y-81788
X59944Y-70104
X60706Y-33528
X61214Y-76708
X62992Y-22352
X62992Y-67310
X66040Y-67564
X66802Y-72898
X68072Y-41656
X68580Y-61722
X71120Y-71882
X73406Y-49530
X74422Y-35560
X77724Y-43180
X77724Y-52578
X77724Y-54610
X78232Y-61722
X78740Y-44704
X81534Y-51054
X82804Y-59436
X83312Y-46736
T5
X24384Y-45974
X24384Y-48514
X24384Y-51054
X24384Y-53594
X30226Y-49784
X32766Y-49784
X44196Y-80518
X44196Y-83058
X46736Y-80518
X46736Y-83058
X49276Y-80518
X49276Y-83058
X66802Y-49784
X69342Y-49784
T6
X42172Y-25217
X58412Y-25217
T7
X43952Y-21788
X56632Y-21788
T0
M30
