M48
;DRILL file {KiCad 4.0.6} date 02/09/18 11:50:02
;FORMAT={3:3/ absolute / metric / suppress leading zeros}
FMAT,2
METRIC,TZ
T1C0.650
T2C0.800
T3C0.800
T4C1.000
T5C1.001
T6C1.501
T7C3.251
%
G90
G05
M71
T1
X41164Y-51562
X43164Y-51562
T2
X43970Y-26416
X47470Y-26416
T3
X16510Y-42672
X16510Y-47498
X16510Y-52324
X19050Y-42672
X19050Y-47498
X19050Y-52324
X26675Y-28646
X27689Y-30427
X28705Y-28646
X29718Y-30427
X30734Y-28646
X31747Y-30427
X32763Y-28646
X33777Y-30427
X55372Y-42672
X55372Y-47498
X55372Y-52324
X57912Y-42672
X57912Y-47498
X57912Y-52324
T4
X18600Y-31000
X21082Y-35306
X21971Y-47117
X22860Y-41656
X27940Y-34290
X29210Y-64262
X29464Y-48768
X31242Y-39878
X32100Y-42900
X32512Y-32004
X33020Y-47244
X33528Y-24638
X34544Y-59944
X36322Y-48260
X38200Y-48800
X39116Y-38862
X39370Y-41402
X40132Y-62992
X41402Y-58166
X42300Y-46000
X44196Y-44196
X50300Y-23000
X54610Y-38100
X54610Y-60452
X55880Y-65024
T5
X32258Y-62484
X32258Y-65024
X34798Y-62484
X34798Y-65024
X37338Y-62484
X37338Y-65024
X44196Y-65024
X46736Y-65024
X49276Y-65024
X51816Y-65024
T6
X22106Y-29535
X38346Y-29535
T7
X23886Y-26106
X36566Y-26106
T0
M30
