G04 #@! TF.FileFunction,Copper,L1,Top,Signal*
%FSLAX46Y46*%
G04 Gerber Fmt 4.6, Leading zero omitted, Abs format (unit mm)*
G04 Created by KiCad (PCBNEW 4.0.6) date 02/02/18 10:13:16*
%MOMM*%
%LPD*%
G01*
G04 APERTURE LIST*
%ADD10C,0.100000*%
%ADD11R,1.399540X1.300480*%
%ADD12R,1.498600X1.300480*%
%ADD13R,1.800000X1.800000*%
%ADD14C,1.800000*%
%ADD15R,1.300480X1.498600*%
%ADD16C,1.998980*%
%ADD17R,1.198880X1.198880*%
%ADD18R,2.692400X1.600200*%
%ADD19R,1.524000X1.998980*%
%ADD20O,1.524000X1.998980*%
%ADD21R,1.524000X2.199640*%
%ADD22O,1.524000X2.199640*%
%ADD23R,1.800860X1.300480*%
%ADD24R,1.800860X3.799840*%
%ADD25R,1.998980X0.599440*%
%ADD26R,1.998980X5.499100*%
%ADD27R,1.500000X1.500000*%
%ADD28C,1.500000*%
%ADD29R,1.000760X0.599440*%
%ADD30R,0.599440X1.000760*%
%ADD31C,1.198880*%
%ADD32C,2.499360*%
%ADD33R,2.199640X1.524000*%
%ADD34O,2.199640X1.524000*%
%ADD35C,0.400000*%
%ADD36C,0.254000*%
G04 APERTURE END LIST*
D10*
D11*
X38608000Y-27866340D03*
X38608000Y-24965660D03*
D12*
X43688000Y-67500500D03*
X43688000Y-65595500D03*
X35306000Y-66865500D03*
X35306000Y-68770500D03*
X54864000Y-80835500D03*
X54864000Y-82740500D03*
X46736000Y-66992500D03*
X46736000Y-65087500D03*
X35306000Y-76136500D03*
X35306000Y-74231500D03*
D13*
X40866000Y-33528000D03*
D14*
X37366000Y-33528000D03*
D15*
X34480500Y-21336000D03*
X32575500Y-21336000D03*
D12*
X25400000Y-27495500D03*
X25400000Y-29400500D03*
X75692000Y-54292500D03*
X75692000Y-52387500D03*
D16*
X72390000Y-25908000D03*
X69850000Y-25908000D03*
X18288000Y-51054000D03*
X18288000Y-48514000D03*
D17*
X73152000Y-63466980D03*
X73152000Y-65565020D03*
X76200000Y-63466980D03*
X76200000Y-65565020D03*
D18*
X38608000Y-21209000D03*
X38608000Y-18415000D03*
D19*
X49276000Y-80269080D03*
D20*
X49276000Y-83306920D03*
X46736000Y-80269080D03*
X46736000Y-83306920D03*
X44196000Y-80269080D03*
X44196000Y-83306920D03*
D21*
X66802000Y-49784000D03*
D22*
X69342000Y-49784000D03*
D21*
X30226000Y-49784000D03*
D22*
X32766000Y-49784000D03*
D12*
X62992000Y-63055500D03*
X62992000Y-64960500D03*
X72644000Y-30543500D03*
X72644000Y-32448500D03*
D15*
X18351500Y-55880000D03*
X20256500Y-55880000D03*
D12*
X66548000Y-64960500D03*
X66548000Y-63055500D03*
D15*
X29908500Y-55880000D03*
X28003500Y-55880000D03*
D12*
X62992000Y-60896500D03*
X62992000Y-58991500D03*
X76200000Y-67627500D03*
X76200000Y-69532500D03*
D15*
X28003500Y-53340000D03*
X29908500Y-53340000D03*
D12*
X73152000Y-69532500D03*
X73152000Y-67627500D03*
X73152000Y-54292500D03*
X73152000Y-52387500D03*
X70104000Y-63563500D03*
X70104000Y-65468500D03*
D15*
X72834500Y-45720000D03*
X70929500Y-45720000D03*
X70929500Y-43180000D03*
X72834500Y-43180000D03*
D12*
X70612000Y-52387500D03*
X70612000Y-54292500D03*
X80264000Y-62039500D03*
X80264000Y-63944500D03*
X81534000Y-53403500D03*
X81534000Y-55308500D03*
X80264000Y-57975500D03*
X80264000Y-59880500D03*
D10*
G36*
X47410235Y-68808532D02*
X48329814Y-69728111D01*
X47940071Y-70117854D01*
X47020492Y-69198275D01*
X47410235Y-68808532D01*
X47410235Y-68808532D01*
G37*
G36*
X46846275Y-69372492D02*
X47765854Y-70292071D01*
X47376111Y-70681814D01*
X46456532Y-69762235D01*
X46846275Y-69372492D01*
X46846275Y-69372492D01*
G37*
G36*
X46280519Y-69938249D02*
X47200098Y-70857828D01*
X46810355Y-71247571D01*
X45890776Y-70327992D01*
X46280519Y-69938249D01*
X46280519Y-69938249D01*
G37*
G36*
X45714763Y-70504005D02*
X46634342Y-71423584D01*
X46244599Y-71813327D01*
X45325020Y-70893748D01*
X45714763Y-70504005D01*
X45714763Y-70504005D01*
G37*
G36*
X45149007Y-71069761D02*
X46068586Y-71989340D01*
X45678843Y-72379083D01*
X44759264Y-71459504D01*
X45149007Y-71069761D01*
X45149007Y-71069761D01*
G37*
G36*
X49107504Y-67111264D02*
X50027083Y-68030843D01*
X49637340Y-68420586D01*
X48717761Y-67501007D01*
X49107504Y-67111264D01*
X49107504Y-67111264D01*
G37*
G36*
X48541748Y-67677020D02*
X49461327Y-68596599D01*
X49071584Y-68986342D01*
X48152005Y-68066763D01*
X48541748Y-67677020D01*
X48541748Y-67677020D01*
G37*
G36*
X47975992Y-68242776D02*
X48895571Y-69162355D01*
X48505828Y-69552098D01*
X47586249Y-68632519D01*
X47975992Y-68242776D01*
X47975992Y-68242776D01*
G37*
G36*
X45678843Y-72908917D02*
X46068586Y-73298660D01*
X45149007Y-74218239D01*
X44759264Y-73828496D01*
X45678843Y-72908917D01*
X45678843Y-72908917D01*
G37*
G36*
X46244599Y-73474673D02*
X46634342Y-73864416D01*
X45714763Y-74783995D01*
X45325020Y-74394252D01*
X46244599Y-73474673D01*
X46244599Y-73474673D01*
G37*
G36*
X46810355Y-74040429D02*
X47200098Y-74430172D01*
X46280519Y-75349751D01*
X45890776Y-74960008D01*
X46810355Y-74040429D01*
X46810355Y-74040429D01*
G37*
G36*
X47376111Y-74606186D02*
X47765854Y-74995929D01*
X46846275Y-75915508D01*
X46456532Y-75525765D01*
X47376111Y-74606186D01*
X47376111Y-74606186D01*
G37*
G36*
X47940071Y-75170146D02*
X48329814Y-75559889D01*
X47410235Y-76479468D01*
X47020492Y-76089725D01*
X47940071Y-75170146D01*
X47940071Y-75170146D01*
G37*
G36*
X48505828Y-75735902D02*
X48895571Y-76125645D01*
X47975992Y-77045224D01*
X47586249Y-76655481D01*
X48505828Y-75735902D01*
X48505828Y-75735902D01*
G37*
G36*
X49071584Y-76301658D02*
X49461327Y-76691401D01*
X48541748Y-77610980D01*
X48152005Y-77221237D01*
X49071584Y-76301658D01*
X49071584Y-76301658D01*
G37*
G36*
X49637340Y-76867414D02*
X50027083Y-77257157D01*
X49107504Y-78176736D01*
X48717761Y-77786993D01*
X49637340Y-76867414D01*
X49637340Y-76867414D01*
G37*
G36*
X50946660Y-76867414D02*
X51866239Y-77786993D01*
X51476496Y-78176736D01*
X50556917Y-77257157D01*
X50946660Y-76867414D01*
X50946660Y-76867414D01*
G37*
G36*
X51512416Y-76301658D02*
X52431995Y-77221237D01*
X52042252Y-77610980D01*
X51122673Y-76691401D01*
X51512416Y-76301658D01*
X51512416Y-76301658D01*
G37*
G36*
X52078172Y-75735902D02*
X52997751Y-76655481D01*
X52608008Y-77045224D01*
X51688429Y-76125645D01*
X52078172Y-75735902D01*
X52078172Y-75735902D01*
G37*
G36*
X52643929Y-75170146D02*
X53563508Y-76089725D01*
X53173765Y-76479468D01*
X52254186Y-75559889D01*
X52643929Y-75170146D01*
X52643929Y-75170146D01*
G37*
G36*
X53207889Y-74606186D02*
X54127468Y-75525765D01*
X53737725Y-75915508D01*
X52818146Y-74995929D01*
X53207889Y-74606186D01*
X53207889Y-74606186D01*
G37*
G36*
X53773645Y-74040429D02*
X54693224Y-74960008D01*
X54303481Y-75349751D01*
X53383902Y-74430172D01*
X53773645Y-74040429D01*
X53773645Y-74040429D01*
G37*
G36*
X54339401Y-73474673D02*
X55258980Y-74394252D01*
X54869237Y-74783995D01*
X53949658Y-73864416D01*
X54339401Y-73474673D01*
X54339401Y-73474673D01*
G37*
G36*
X54905157Y-72908917D02*
X55824736Y-73828496D01*
X55434993Y-74218239D01*
X54515414Y-73298660D01*
X54905157Y-72908917D01*
X54905157Y-72908917D01*
G37*
G36*
X55434993Y-71069761D02*
X55824736Y-71459504D01*
X54905157Y-72379083D01*
X54515414Y-71989340D01*
X55434993Y-71069761D01*
X55434993Y-71069761D01*
G37*
G36*
X54869237Y-70504005D02*
X55258980Y-70893748D01*
X54339401Y-71813327D01*
X53949658Y-71423584D01*
X54869237Y-70504005D01*
X54869237Y-70504005D01*
G37*
G36*
X54303481Y-69938249D02*
X54693224Y-70327992D01*
X53773645Y-71247571D01*
X53383902Y-70857828D01*
X54303481Y-69938249D01*
X54303481Y-69938249D01*
G37*
G36*
X53737725Y-69372492D02*
X54127468Y-69762235D01*
X53207889Y-70681814D01*
X52818146Y-70292071D01*
X53737725Y-69372492D01*
X53737725Y-69372492D01*
G37*
G36*
X53173765Y-68808532D02*
X53563508Y-69198275D01*
X52643929Y-70117854D01*
X52254186Y-69728111D01*
X53173765Y-68808532D01*
X53173765Y-68808532D01*
G37*
G36*
X52608008Y-68242776D02*
X52997751Y-68632519D01*
X52078172Y-69552098D01*
X51688429Y-69162355D01*
X52608008Y-68242776D01*
X52608008Y-68242776D01*
G37*
G36*
X52042252Y-67677020D02*
X52431995Y-68066763D01*
X51512416Y-68986342D01*
X51122673Y-68596599D01*
X52042252Y-67677020D01*
X52042252Y-67677020D01*
G37*
G36*
X51476496Y-67111264D02*
X51866239Y-67501007D01*
X50946660Y-68420586D01*
X50556917Y-68030843D01*
X51476496Y-67111264D01*
X51476496Y-67111264D01*
G37*
D23*
X34495740Y-28717240D03*
X34495740Y-26416000D03*
X34495740Y-24114760D03*
D24*
X28496260Y-26416000D03*
D25*
X70358000Y-56515000D03*
X70358000Y-57785000D03*
X70358000Y-59055000D03*
X70358000Y-60325000D03*
X75946000Y-60325000D03*
X75946000Y-59055000D03*
X75946000Y-57785000D03*
X75946000Y-56515000D03*
D26*
X39624000Y-66878200D03*
X39624000Y-76377800D03*
D27*
X30845000Y-33655000D03*
D28*
X28845000Y-33655000D03*
D16*
X69088000Y-77470000D03*
X69088000Y-74930000D03*
D15*
X63944500Y-78740000D03*
X62039500Y-78740000D03*
D29*
X34076640Y-55308500D03*
X31963360Y-54356000D03*
X34076640Y-53403500D03*
D30*
X69024500Y-43647360D03*
X68072000Y-45760640D03*
X67119500Y-43647360D03*
X65595500Y-59984640D03*
X66548000Y-57871360D03*
X67500500Y-59984640D03*
D12*
X70104000Y-67627500D03*
X70104000Y-69532500D03*
D17*
X50833020Y-33528000D03*
X48734980Y-33528000D03*
D31*
X48770540Y-24328120D03*
X46741080Y-24328120D03*
X47754540Y-26108660D03*
X49784000Y-26108660D03*
X50800000Y-24328120D03*
X51813460Y-26108660D03*
X52829460Y-24328120D03*
X53842920Y-26108660D03*
D32*
X58412380Y-25217120D03*
X42171620Y-25217120D03*
D15*
X57848500Y-33528000D03*
X55943500Y-33528000D03*
D33*
X24384000Y-53594000D03*
D34*
X24384000Y-51054000D03*
X24384000Y-48514000D03*
X24384000Y-45974000D03*
D28*
X32512000Y-74930000D03*
X71120000Y-71882000D03*
X77724000Y-54610000D03*
X32512000Y-26416000D03*
X74422000Y-39370000D03*
X67056000Y-40894000D03*
X32512000Y-68326000D03*
X42926000Y-63500000D03*
X78740000Y-44704000D03*
X78232000Y-61722000D03*
X68580000Y-61722000D03*
X77724000Y-52578000D03*
X81534000Y-51054000D03*
X60706000Y-33528000D03*
X58420000Y-81788000D03*
X50038000Y-71882000D03*
X50800000Y-65786000D03*
X66040000Y-67564000D03*
X52070000Y-79756000D03*
X45720000Y-77978000D03*
X62992000Y-67310000D03*
X77724000Y-43180000D03*
X83312000Y-46736000D03*
X82804000Y-59436000D03*
X62992000Y-22352000D03*
X70866000Y-40132000D03*
X65024000Y-45974000D03*
X50292000Y-74930000D03*
X74422000Y-35560000D03*
X66802000Y-72898000D03*
X20320000Y-58420000D03*
X59944000Y-70104000D03*
X74676000Y-48768000D03*
X68072000Y-54864000D03*
X63754000Y-56896000D03*
X53848000Y-66548000D03*
X61214000Y-76708000D03*
X57912000Y-67564000D03*
D35*
X72072500Y-49847500D02*
X72072500Y-48323500D01*
X72072500Y-49847500D02*
X70612000Y-51308000D01*
X70612000Y-52387500D02*
X70612000Y-51308000D01*
X72834500Y-47561500D02*
X72834500Y-45720000D01*
X72072500Y-48323500D02*
X72834500Y-47561500D01*
X74676000Y-45720000D02*
X72834500Y-45720000D01*
X74676000Y-45720000D02*
X74676000Y-41656000D01*
X48734980Y-34510980D02*
X48734980Y-33528000D01*
X49530000Y-35306000D02*
X48734980Y-34510980D01*
X68326000Y-35306000D02*
X49530000Y-35306000D01*
X74676000Y-41656000D02*
X68326000Y-35306000D01*
X28003500Y-53340000D02*
X26924000Y-53340000D01*
X26670000Y-53594000D02*
X24384000Y-53594000D01*
X26924000Y-53340000D02*
X26670000Y-53594000D01*
X62992000Y-63055500D02*
X57594500Y-63055500D01*
X47815500Y-66992500D02*
X46736000Y-66992500D01*
X50292000Y-64516000D02*
X47815500Y-66992500D01*
X56134000Y-64516000D02*
X50292000Y-64516000D01*
X57594500Y-63055500D02*
X56134000Y-64516000D01*
X30480000Y-66040000D02*
X37338000Y-59182000D01*
X30480000Y-72898000D02*
X30480000Y-66040000D01*
X32512000Y-74930000D02*
X30480000Y-72898000D01*
X75692000Y-54292500D02*
X77406500Y-54292500D01*
X70104000Y-70866000D02*
X70104000Y-69532500D01*
X71120000Y-71882000D02*
X70104000Y-70866000D01*
X77406500Y-54292500D02*
X77724000Y-54610000D01*
X62992000Y-63055500D02*
X64071500Y-63055500D01*
X64071500Y-63055500D02*
X64770000Y-63754000D01*
X64770000Y-63754000D02*
X64770000Y-68580000D01*
X64770000Y-68580000D02*
X65722500Y-69532500D01*
X65722500Y-69532500D02*
X70104000Y-69532500D01*
X49276000Y-83058000D02*
X51308000Y-83058000D01*
X53530500Y-80835500D02*
X54864000Y-80835500D01*
X51308000Y-83058000D02*
X53530500Y-80835500D01*
X34495740Y-26416000D02*
X32512000Y-26416000D01*
X75946000Y-56515000D02*
X77851000Y-56515000D01*
X77851000Y-56515000D02*
X78740000Y-55626000D01*
X77724000Y-45720000D02*
X74676000Y-45720000D01*
X78740000Y-55626000D02*
X79248000Y-55118000D01*
X79248000Y-49276000D02*
X79248000Y-47244000D01*
X79248000Y-55118000D02*
X79248000Y-49276000D01*
X79248000Y-47244000D02*
X77724000Y-45720000D01*
X70104000Y-69532500D02*
X73152000Y-69532500D01*
X76200000Y-69532500D02*
X73152000Y-69532500D01*
X80264000Y-63944500D02*
X80264000Y-66040000D01*
X80264000Y-66040000D02*
X80264000Y-67056000D01*
X80264000Y-67056000D02*
X77787500Y-69532500D01*
X77787500Y-69532500D02*
X76200000Y-69532500D01*
X62992000Y-60896500D02*
X62992000Y-63055500D01*
X30845000Y-33655000D02*
X33147000Y-33655000D01*
X33147000Y-33655000D02*
X35560000Y-36068000D01*
X35560000Y-36068000D02*
X42672000Y-36068000D01*
X42672000Y-36068000D02*
X45212000Y-33528000D01*
X45212000Y-33528000D02*
X48734980Y-33528000D01*
X75692000Y-54292500D02*
X75692000Y-56261000D01*
X75692000Y-56261000D02*
X75946000Y-56515000D01*
X51777334Y-76956319D02*
X53561015Y-78740000D01*
X54864000Y-79248000D02*
X54864000Y-80835500D01*
X54356000Y-78740000D02*
X54864000Y-79248000D01*
X53561015Y-78740000D02*
X54356000Y-78740000D01*
X43688000Y-67500500D02*
X42100500Y-67500500D01*
X42100500Y-67500500D02*
X41656000Y-67056000D01*
X41656000Y-67056000D02*
X41656000Y-63500000D01*
X41656000Y-63500000D02*
X37338000Y-59182000D01*
X32004000Y-45212000D02*
X28003500Y-45212000D01*
X37338000Y-59182000D02*
X35560000Y-57404000D01*
X35560000Y-57404000D02*
X35560000Y-48768000D01*
X35560000Y-48768000D02*
X32004000Y-45212000D01*
X47675153Y-69463193D02*
X46736000Y-68524040D01*
X46736000Y-68524040D02*
X46736000Y-66992500D01*
X46545437Y-70592910D02*
X45294527Y-69342000D01*
X43688000Y-68580000D02*
X43688000Y-67500500D01*
X44450000Y-69342000D02*
X43688000Y-68580000D01*
X45294527Y-69342000D02*
X44450000Y-69342000D01*
X30845000Y-33655000D02*
X30845000Y-38243000D01*
X30845000Y-38243000D02*
X28003500Y-41084500D01*
X28003500Y-41084500D02*
X28003500Y-45212000D01*
X28003500Y-45212000D02*
X28003500Y-53340000D01*
X28496260Y-26416000D02*
X27940000Y-26416000D01*
X27940000Y-26416000D02*
X26860500Y-27495500D01*
X26860500Y-27495500D02*
X25400000Y-27495500D01*
X30845000Y-33655000D02*
X30845000Y-31353000D01*
X28496260Y-29004260D02*
X28496260Y-26416000D01*
X30845000Y-31353000D02*
X28496260Y-29004260D01*
X75946000Y-43688000D02*
X75946000Y-40894000D01*
X76962000Y-44704000D02*
X75946000Y-43688000D01*
X78740000Y-44704000D02*
X76962000Y-44704000D01*
X75946000Y-40894000D02*
X74422000Y-39370000D01*
X67119500Y-40957500D02*
X67119500Y-43647360D01*
X67056000Y-40894000D02*
X67119500Y-40957500D01*
X43688000Y-65595500D02*
X43688000Y-64262000D01*
X32956500Y-68770500D02*
X35306000Y-68770500D01*
X32512000Y-68326000D02*
X32956500Y-68770500D01*
X43688000Y-64262000D02*
X42926000Y-63500000D01*
X69342000Y-49784000D02*
X69342000Y-50546000D01*
X48232020Y-71147980D02*
X49022000Y-70358000D01*
X49022000Y-69678527D02*
X48240910Y-68897437D01*
X49022000Y-70358000D02*
X49022000Y-69678527D01*
X47111193Y-70027153D02*
X48232020Y-71147980D01*
X48232020Y-71147980D02*
X48768000Y-71683960D01*
X51617960Y-73406000D02*
X53472807Y-75260847D01*
X49784000Y-73406000D02*
X51617960Y-73406000D01*
X48768000Y-72390000D02*
X49784000Y-73406000D01*
X48768000Y-71683960D02*
X48768000Y-72390000D01*
X81534000Y-51054000D02*
X81534000Y-46990000D01*
X79248000Y-44704000D02*
X78740000Y-44704000D01*
X81534000Y-46990000D02*
X79248000Y-44704000D01*
X75946000Y-60325000D02*
X76835000Y-60325000D01*
X76835000Y-60325000D02*
X78232000Y-61722000D01*
X67500500Y-60642500D02*
X67500500Y-59984640D01*
X67500500Y-60642500D02*
X68580000Y-61722000D01*
X54864000Y-82740500D02*
X52514500Y-85090000D01*
X46228000Y-85090000D02*
X44196000Y-83058000D01*
X52514500Y-85090000D02*
X46228000Y-85090000D01*
X77533500Y-52387500D02*
X77724000Y-52578000D01*
X75692000Y-52387500D02*
X77533500Y-52387500D01*
X81534000Y-53403500D02*
X81534000Y-51054000D01*
X60706000Y-33528000D02*
X57848500Y-33528000D01*
X53472807Y-75260847D02*
X56896000Y-78684040D01*
X56896000Y-78684040D02*
X56896000Y-82296000D01*
X56896000Y-82296000D02*
X56451500Y-82740500D01*
X56451500Y-82740500D02*
X54864000Y-82740500D01*
X47111193Y-70027153D02*
X45212000Y-68127960D01*
X45212000Y-66548000D02*
X44259500Y-65595500D01*
X45212000Y-68127960D02*
X45212000Y-66548000D01*
X44259500Y-65595500D02*
X43688000Y-65595500D01*
X39624000Y-66878200D02*
X35318700Y-66878200D01*
X35318700Y-66878200D02*
X35306000Y-66865500D01*
X45979681Y-71158666D02*
X44925015Y-70104000D01*
X44925015Y-70104000D02*
X43180000Y-70104000D01*
X43180000Y-70104000D02*
X42849800Y-70104000D01*
X42849800Y-70104000D02*
X39624000Y-66878200D01*
X35306000Y-76136500D02*
X39382700Y-76136500D01*
X39382700Y-76136500D02*
X39624000Y-76377800D01*
X40760547Y-76377800D02*
X39624000Y-76377800D01*
X45413925Y-71724422D02*
X40760547Y-76377800D01*
X34480500Y-21336000D02*
X34480500Y-24099520D01*
X34480500Y-24099520D02*
X34495740Y-24114760D01*
X34495740Y-21828760D02*
X34544000Y-21780500D01*
X38608000Y-27866340D02*
X37518340Y-27866340D01*
X35798760Y-24114760D02*
X34495740Y-24114760D01*
X36576000Y-24892000D02*
X35798760Y-24114760D01*
X36576000Y-26924000D02*
X36576000Y-24892000D01*
X37518340Y-27866340D02*
X36576000Y-26924000D01*
X38608000Y-27866340D02*
X38608000Y-29972000D01*
X40866000Y-32230000D02*
X40866000Y-33528000D01*
X38608000Y-29972000D02*
X40866000Y-32230000D01*
X38608000Y-21209000D02*
X38608000Y-24965660D01*
X72390000Y-25908000D02*
X72644000Y-26162000D01*
X72644000Y-26162000D02*
X72644000Y-30543500D01*
X54604319Y-74129334D02*
X56388000Y-75913015D01*
X58420000Y-78740000D02*
X58420000Y-81788000D01*
X56388000Y-76708000D02*
X58420000Y-78740000D01*
X56388000Y-75913015D02*
X56388000Y-76708000D01*
X18288000Y-51054000D02*
X18288000Y-55816500D01*
X18288000Y-55816500D02*
X18351500Y-55880000D01*
X55170075Y-71724422D02*
X54250497Y-72644000D01*
X50800000Y-72644000D02*
X50038000Y-71882000D01*
X54250497Y-72644000D02*
X50800000Y-72644000D01*
X52324000Y-67310000D02*
X52324000Y-67785015D01*
X50800000Y-65786000D02*
X52324000Y-67310000D01*
X51777334Y-68331681D02*
X52324000Y-67785015D01*
X66548000Y-67056000D02*
X66040000Y-67564000D01*
X66548000Y-64960500D02*
X66548000Y-67056000D01*
X73152000Y-63466980D02*
X72169020Y-63466980D01*
X71183500Y-65468500D02*
X70104000Y-65468500D01*
X71628000Y-65024000D02*
X71183500Y-65468500D01*
X71628000Y-64008000D02*
X71628000Y-65024000D01*
X72169020Y-63466980D02*
X71628000Y-64008000D01*
X70104000Y-65468500D02*
X68516500Y-65468500D01*
X68008500Y-64960500D02*
X66548000Y-64960500D01*
X68516500Y-65468500D02*
X68008500Y-64960500D01*
X70104000Y-67627500D02*
X70104000Y-65468500D01*
X73152000Y-67627500D02*
X73152000Y-65565020D01*
X76200000Y-63466980D02*
X76200000Y-62992000D01*
X76200000Y-62992000D02*
X74676000Y-61468000D01*
X74676000Y-61468000D02*
X73660000Y-61468000D01*
X73660000Y-61468000D02*
X73152000Y-60960000D01*
X73152000Y-60960000D02*
X73152000Y-54292500D01*
X73152000Y-54292500D02*
X70612000Y-54292500D01*
X70358000Y-56515000D02*
X70358000Y-54546500D01*
X70358000Y-54546500D02*
X70612000Y-54292500D01*
X76200000Y-67627500D02*
X76200000Y-65565020D01*
X49276000Y-80518000D02*
X49372422Y-80421578D01*
X49372422Y-80421578D02*
X49372422Y-77522075D01*
X46736000Y-80518000D02*
X46736000Y-78994000D01*
X52070000Y-78380497D02*
X51211578Y-77522075D01*
X52070000Y-79756000D02*
X52070000Y-78380497D01*
X46736000Y-78994000D02*
X45720000Y-77978000D01*
X46736000Y-83058000D02*
X48006000Y-81788000D01*
X48006000Y-77756985D02*
X48806666Y-76956319D01*
X48006000Y-81788000D02*
X48006000Y-77756985D01*
X52908847Y-69463193D02*
X57411540Y-64960500D01*
X57411540Y-64960500D02*
X62992000Y-64960500D01*
X62992000Y-67310000D02*
X62992000Y-64960500D01*
X80518000Y-43180000D02*
X77724000Y-43180000D01*
X83312000Y-45974000D02*
X80518000Y-43180000D01*
X80264000Y-59880500D02*
X82359500Y-59880500D01*
X82804000Y-59436000D02*
X82359500Y-59880500D01*
X83312000Y-46736000D02*
X83312000Y-45974000D01*
X75946000Y-59055000D02*
X77343000Y-59055000D01*
X78168500Y-59880500D02*
X80264000Y-59880500D01*
X77343000Y-59055000D02*
X78168500Y-59880500D01*
X80264000Y-62039500D02*
X80264000Y-59880500D01*
X83375500Y-55308500D02*
X81534000Y-55308500D01*
X84582000Y-54102000D02*
X83375500Y-55308500D01*
X84582000Y-44958000D02*
X84582000Y-54102000D01*
X77470000Y-37846000D02*
X84582000Y-44958000D01*
X74168000Y-37846000D02*
X77470000Y-37846000D01*
X65278000Y-28956000D02*
X74168000Y-37846000D01*
X65278000Y-24638000D02*
X65278000Y-28956000D01*
X62992000Y-22352000D02*
X65278000Y-24638000D01*
X81534000Y-55308500D02*
X81534000Y-57404000D01*
X81534000Y-57404000D02*
X80962500Y-57975500D01*
X80962500Y-57975500D02*
X80264000Y-57975500D01*
X75946000Y-57785000D02*
X80073500Y-57785000D01*
X80073500Y-57785000D02*
X80264000Y-57975500D01*
X72834500Y-41338500D02*
X72834500Y-43180000D01*
X71628000Y-40132000D02*
X72834500Y-41338500D01*
X70866000Y-40132000D02*
X71628000Y-40132000D01*
X66802000Y-49784000D02*
X66802000Y-49022000D01*
X31963360Y-54356000D02*
X31963360Y-53807360D01*
X31496000Y-53340000D02*
X29908500Y-53340000D01*
X31963360Y-53807360D02*
X31496000Y-53340000D01*
X30226000Y-49784000D02*
X29908500Y-50101500D01*
X29908500Y-50101500D02*
X29908500Y-53340000D01*
X66548000Y-57871360D02*
X65572640Y-57871360D01*
X64452500Y-58991500D02*
X62992000Y-58991500D01*
X65572640Y-57871360D02*
X64452500Y-58991500D01*
X70358000Y-57785000D02*
X67691000Y-57785000D01*
X67604640Y-57871360D02*
X66548000Y-57871360D01*
X67691000Y-57785000D02*
X67604640Y-57871360D01*
X70358000Y-59055000D02*
X70358000Y-57785000D01*
X34076640Y-55308500D02*
X33083500Y-55308500D01*
X32512000Y-55880000D02*
X29908500Y-55880000D01*
X33083500Y-55308500D02*
X32512000Y-55880000D01*
X70929500Y-43180000D02*
X70358000Y-43180000D01*
X70358000Y-43180000D02*
X69890640Y-43647360D01*
X69890640Y-43647360D02*
X69024500Y-43647360D01*
X68072000Y-45760640D02*
X65237360Y-45760640D01*
X65237360Y-45760640D02*
X65024000Y-45974000D01*
X48569960Y-74930000D02*
X50292000Y-74930000D01*
X47675153Y-75824807D02*
X48569960Y-74930000D01*
X70929500Y-45720000D02*
X68112640Y-45720000D01*
X68112640Y-45720000D02*
X68072000Y-45760640D01*
X72644000Y-32448500D02*
X72644000Y-33782000D01*
X72644000Y-33782000D02*
X74422000Y-35560000D01*
X56028497Y-74422000D02*
X55170075Y-73563578D01*
X62230000Y-74422000D02*
X56028497Y-74422000D01*
X63754000Y-72898000D02*
X62230000Y-74422000D01*
X66802000Y-72898000D02*
X63754000Y-72898000D01*
X54604319Y-71158666D02*
X55658985Y-70104000D01*
X20256500Y-58356500D02*
X20256500Y-55880000D01*
X20320000Y-58420000D02*
X20256500Y-58356500D01*
X55658985Y-70104000D02*
X59944000Y-70104000D01*
X47111193Y-75260847D02*
X46172040Y-76200000D01*
X28003500Y-73723500D02*
X28003500Y-55880000D01*
X35306000Y-81026000D02*
X28003500Y-73723500D01*
X40640000Y-81026000D02*
X35306000Y-81026000D01*
X42164000Y-79502000D02*
X40640000Y-81026000D01*
X42164000Y-78232000D02*
X42164000Y-79502000D01*
X44196000Y-76200000D02*
X42164000Y-78232000D01*
X46172040Y-76200000D02*
X44196000Y-76200000D01*
X52343090Y-68897437D02*
X53848000Y-67392527D01*
X73152000Y-50292000D02*
X73152000Y-52387500D01*
X74676000Y-48768000D02*
X73152000Y-50292000D01*
X65786000Y-54864000D02*
X68072000Y-54864000D01*
X63754000Y-56896000D02*
X65786000Y-54864000D01*
X53848000Y-67392527D02*
X53848000Y-66548000D01*
X69088000Y-77470000D02*
X67818000Y-78740000D01*
X67818000Y-78740000D02*
X63944500Y-78740000D01*
X69088000Y-74930000D02*
X69088000Y-72644000D01*
X67564000Y-71120000D02*
X62992000Y-71120000D01*
X69088000Y-72644000D02*
X67564000Y-71120000D01*
X62992000Y-71120000D02*
X62992000Y-70866000D01*
X62992000Y-70866000D02*
X62992000Y-71120000D01*
X62992000Y-71120000D02*
X60706000Y-68834000D01*
X55797473Y-68834000D02*
X54038563Y-70592910D01*
X60706000Y-68834000D02*
X55797473Y-68834000D01*
X62039500Y-78740000D02*
X62039500Y-77533500D01*
X62039500Y-77533500D02*
X61214000Y-76708000D01*
X53472807Y-70027153D02*
X55935960Y-67564000D01*
X55935960Y-67564000D02*
X57912000Y-67564000D01*
X53472807Y-69971193D02*
X53472807Y-70027153D01*
X65595500Y-59984640D02*
X65595500Y-61023500D01*
X66548000Y-61976000D02*
X66548000Y-63055500D01*
X65595500Y-61023500D02*
X66548000Y-61976000D01*
X70104000Y-63563500D02*
X70104000Y-60579000D01*
X70104000Y-60579000D02*
X70358000Y-60325000D01*
X55943500Y-33528000D02*
X50833020Y-33528000D01*
X47754540Y-26108660D02*
X46535340Y-26108660D01*
X40767000Y-18415000D02*
X38608000Y-18415000D01*
X41148000Y-18796000D02*
X40767000Y-18415000D01*
X41148000Y-22860000D02*
X41148000Y-18796000D01*
X40132000Y-23876000D02*
X41148000Y-22860000D01*
X40132000Y-26416000D02*
X40132000Y-23876000D01*
X41656000Y-27940000D02*
X40132000Y-26416000D01*
X44704000Y-27940000D02*
X41656000Y-27940000D01*
X46535340Y-26108660D02*
X44704000Y-27940000D01*
D36*
G36*
X55553000Y-76258883D02*
X55553000Y-76708000D01*
X55616561Y-77027541D01*
X55765758Y-77250830D01*
X55797566Y-77298434D01*
X57585000Y-79085868D01*
X57585000Y-80664564D01*
X57246539Y-81002436D01*
X57035241Y-81511298D01*
X57034760Y-82062285D01*
X57245169Y-82571515D01*
X57634436Y-82961461D01*
X57903580Y-83073219D01*
X56248300Y-83402475D01*
X56248300Y-83026250D01*
X56089550Y-82867500D01*
X54991000Y-82867500D01*
X54991000Y-82887500D01*
X54737000Y-82887500D01*
X54737000Y-82867500D01*
X53638450Y-82867500D01*
X53479700Y-83026250D01*
X53479700Y-83517049D01*
X53576373Y-83750438D01*
X53729441Y-83903507D01*
X52233842Y-84201000D01*
X50506551Y-84201000D01*
X50566660Y-84111041D01*
X50610031Y-83893000D01*
X51308000Y-83893000D01*
X51627541Y-83829439D01*
X51898434Y-83648434D01*
X53479700Y-82067168D01*
X53479700Y-82454750D01*
X53638450Y-82613500D01*
X54737000Y-82613500D01*
X54737000Y-82593500D01*
X54991000Y-82593500D01*
X54991000Y-82613500D01*
X56089550Y-82613500D01*
X56248300Y-82454750D01*
X56248300Y-81963951D01*
X56175379Y-81787905D01*
X56209731Y-81737630D01*
X56260740Y-81485740D01*
X56260740Y-80185260D01*
X56216462Y-79949943D01*
X56077390Y-79733819D01*
X55865190Y-79588829D01*
X55699000Y-79555175D01*
X55699000Y-79248000D01*
X55635439Y-78928459D01*
X55488740Y-78708908D01*
X55454434Y-78657565D01*
X54946434Y-78149566D01*
X54837120Y-78076525D01*
X54675541Y-77968561D01*
X54356000Y-77905000D01*
X53906883Y-77905000D01*
X53285367Y-77283484D01*
X53455560Y-77113290D01*
X53529629Y-77004887D01*
X53631574Y-76937277D01*
X54021317Y-76547534D01*
X54080570Y-76460815D01*
X54097423Y-76453834D01*
X54179553Y-76371705D01*
X54179553Y-76243109D01*
X54210886Y-76098669D01*
X54187407Y-75973890D01*
X54294537Y-75997129D01*
X54451509Y-75967593D01*
X54583665Y-75967593D01*
X54665794Y-75885463D01*
X54674115Y-75865374D01*
X54761290Y-75807560D01*
X54931484Y-75637367D01*
X55553000Y-76258883D01*
X55553000Y-76258883D01*
G37*
X55553000Y-76258883D02*
X55553000Y-76708000D01*
X55616561Y-77027541D01*
X55765758Y-77250830D01*
X55797566Y-77298434D01*
X57585000Y-79085868D01*
X57585000Y-80664564D01*
X57246539Y-81002436D01*
X57035241Y-81511298D01*
X57034760Y-82062285D01*
X57245169Y-82571515D01*
X57634436Y-82961461D01*
X57903580Y-83073219D01*
X56248300Y-83402475D01*
X56248300Y-83026250D01*
X56089550Y-82867500D01*
X54991000Y-82867500D01*
X54991000Y-82887500D01*
X54737000Y-82887500D01*
X54737000Y-82867500D01*
X53638450Y-82867500D01*
X53479700Y-83026250D01*
X53479700Y-83517049D01*
X53576373Y-83750438D01*
X53729441Y-83903507D01*
X52233842Y-84201000D01*
X50506551Y-84201000D01*
X50566660Y-84111041D01*
X50610031Y-83893000D01*
X51308000Y-83893000D01*
X51627541Y-83829439D01*
X51898434Y-83648434D01*
X53479700Y-82067168D01*
X53479700Y-82454750D01*
X53638450Y-82613500D01*
X54737000Y-82613500D01*
X54737000Y-82593500D01*
X54991000Y-82593500D01*
X54991000Y-82613500D01*
X56089550Y-82613500D01*
X56248300Y-82454750D01*
X56248300Y-81963951D01*
X56175379Y-81787905D01*
X56209731Y-81737630D01*
X56260740Y-81485740D01*
X56260740Y-80185260D01*
X56216462Y-79949943D01*
X56077390Y-79733819D01*
X55865190Y-79588829D01*
X55699000Y-79555175D01*
X55699000Y-79248000D01*
X55635439Y-78928459D01*
X55488740Y-78708908D01*
X55454434Y-78657565D01*
X54946434Y-78149566D01*
X54837120Y-78076525D01*
X54675541Y-77968561D01*
X54356000Y-77905000D01*
X53906883Y-77905000D01*
X53285367Y-77283484D01*
X53455560Y-77113290D01*
X53529629Y-77004887D01*
X53631574Y-76937277D01*
X54021317Y-76547534D01*
X54080570Y-76460815D01*
X54097423Y-76453834D01*
X54179553Y-76371705D01*
X54179553Y-76243109D01*
X54210886Y-76098669D01*
X54187407Y-75973890D01*
X54294537Y-75997129D01*
X54451509Y-75967593D01*
X54583665Y-75967593D01*
X54665794Y-75885463D01*
X54674115Y-75865374D01*
X54761290Y-75807560D01*
X54931484Y-75637367D01*
X55553000Y-76258883D01*
G36*
X33576260Y-56255660D02*
X34577020Y-56255660D01*
X34725000Y-56227816D01*
X34725000Y-57404000D01*
X34788561Y-57723541D01*
X34956915Y-57975500D01*
X34969566Y-57994434D01*
X36157132Y-59182000D01*
X29889566Y-65449566D01*
X29708561Y-65720459D01*
X29645000Y-66040000D01*
X29645000Y-72898000D01*
X29708561Y-73217541D01*
X29802343Y-73357895D01*
X29889566Y-73488434D01*
X31127177Y-74726045D01*
X31126760Y-75204285D01*
X31337169Y-75713515D01*
X31726436Y-76103461D01*
X32235298Y-76314759D01*
X32786285Y-76315240D01*
X33295515Y-76104831D01*
X33685461Y-75715564D01*
X33896759Y-75206702D01*
X33897240Y-74655715D01*
X33686831Y-74146485D01*
X33297564Y-73756539D01*
X32788702Y-73545241D01*
X32307689Y-73544821D01*
X32217819Y-73454951D01*
X33921700Y-73454951D01*
X33921700Y-73945750D01*
X34080450Y-74104500D01*
X35179000Y-74104500D01*
X35179000Y-73105010D01*
X35433000Y-73105010D01*
X35433000Y-74104500D01*
X36531550Y-74104500D01*
X36690300Y-73945750D01*
X36690300Y-73454951D01*
X36593627Y-73221562D01*
X36414999Y-73042933D01*
X36181610Y-72946260D01*
X35591750Y-72946260D01*
X35433000Y-73105010D01*
X35179000Y-73105010D01*
X35020250Y-72946260D01*
X34430390Y-72946260D01*
X34197001Y-73042933D01*
X34018373Y-73221562D01*
X33921700Y-73454951D01*
X32217819Y-73454951D01*
X31315000Y-72552132D01*
X31315000Y-69056250D01*
X33921700Y-69056250D01*
X33921700Y-69547049D01*
X34018373Y-69780438D01*
X34197001Y-69959067D01*
X34430390Y-70055740D01*
X35020250Y-70055740D01*
X35179000Y-69896990D01*
X35179000Y-68897500D01*
X35433000Y-68897500D01*
X35433000Y-69896990D01*
X35591750Y-70055740D01*
X36181610Y-70055740D01*
X36414999Y-69959067D01*
X36593627Y-69780438D01*
X36690300Y-69547049D01*
X36690300Y-69056250D01*
X36531550Y-68897500D01*
X35433000Y-68897500D01*
X35179000Y-68897500D01*
X34080450Y-68897500D01*
X33921700Y-69056250D01*
X31315000Y-69056250D01*
X31315000Y-66385868D01*
X37338000Y-60362868D01*
X40456342Y-63481210D01*
X38624510Y-63481210D01*
X38389193Y-63525488D01*
X38173069Y-63664560D01*
X38028079Y-63876760D01*
X37977070Y-64128650D01*
X37977070Y-66043200D01*
X36670365Y-66043200D01*
X36658462Y-65979943D01*
X36519390Y-65763819D01*
X36307190Y-65618829D01*
X36055300Y-65567820D01*
X34556700Y-65567820D01*
X34321383Y-65612098D01*
X34105259Y-65751170D01*
X33960269Y-65963370D01*
X33909260Y-66215260D01*
X33909260Y-67515740D01*
X33953538Y-67751057D01*
X33995378Y-67816078D01*
X33921700Y-67993951D01*
X33921700Y-68484750D01*
X34080450Y-68643500D01*
X35179000Y-68643500D01*
X35179000Y-68623500D01*
X35433000Y-68623500D01*
X35433000Y-68643500D01*
X36531550Y-68643500D01*
X36690300Y-68484750D01*
X36690300Y-67993951D01*
X36617379Y-67817905D01*
X36651731Y-67767630D01*
X36662753Y-67713200D01*
X37977070Y-67713200D01*
X37977070Y-69627750D01*
X38021348Y-69863067D01*
X38160420Y-70079191D01*
X38372620Y-70224181D01*
X38624510Y-70275190D01*
X40623490Y-70275190D01*
X40858807Y-70230912D01*
X41074931Y-70091840D01*
X41219921Y-69879640D01*
X41257753Y-69692821D01*
X42259366Y-70694434D01*
X42530259Y-70875439D01*
X42849800Y-70939000D01*
X44364150Y-70939000D01*
X44301455Y-71001695D01*
X44166370Y-71199398D01*
X44111886Y-71450560D01*
X44159410Y-71703131D01*
X44197266Y-71760213D01*
X41270930Y-74686549D01*
X41270930Y-73628250D01*
X41226652Y-73392933D01*
X41087580Y-73176809D01*
X40875380Y-73031819D01*
X40623490Y-72980810D01*
X38624510Y-72980810D01*
X38389193Y-73025088D01*
X38173069Y-73164160D01*
X38028079Y-73376360D01*
X37977070Y-73628250D01*
X37977070Y-75301500D01*
X36667975Y-75301500D01*
X36658462Y-75250943D01*
X36616622Y-75185922D01*
X36690300Y-75008049D01*
X36690300Y-74517250D01*
X36531550Y-74358500D01*
X35433000Y-74358500D01*
X35433000Y-74378500D01*
X35179000Y-74378500D01*
X35179000Y-74358500D01*
X34080450Y-74358500D01*
X33921700Y-74517250D01*
X33921700Y-75008049D01*
X33994621Y-75184095D01*
X33960269Y-75234370D01*
X33909260Y-75486260D01*
X33909260Y-76786740D01*
X33953538Y-77022057D01*
X34092610Y-77238181D01*
X34304810Y-77383171D01*
X34556700Y-77434180D01*
X36055300Y-77434180D01*
X36290617Y-77389902D01*
X36506741Y-77250830D01*
X36651731Y-77038630D01*
X36665325Y-76971500D01*
X37977070Y-76971500D01*
X37977070Y-79127350D01*
X38021348Y-79362667D01*
X38160420Y-79578791D01*
X38372620Y-79723781D01*
X38624510Y-79774790D01*
X40623490Y-79774790D01*
X40730472Y-79754660D01*
X40294132Y-80191000D01*
X35651868Y-80191000D01*
X28838500Y-73377632D01*
X28838500Y-57241975D01*
X28889057Y-57232462D01*
X28954546Y-57190321D01*
X29006370Y-57225731D01*
X29258260Y-57276740D01*
X30558740Y-57276740D01*
X30794057Y-57232462D01*
X31010181Y-57093390D01*
X31155171Y-56881190D01*
X31188825Y-56715000D01*
X32512000Y-56715000D01*
X32831541Y-56651439D01*
X33102434Y-56470434D01*
X33360833Y-56212035D01*
X33576260Y-56255660D01*
X33576260Y-56255660D01*
G37*
X33576260Y-56255660D02*
X34577020Y-56255660D01*
X34725000Y-56227816D01*
X34725000Y-57404000D01*
X34788561Y-57723541D01*
X34956915Y-57975500D01*
X34969566Y-57994434D01*
X36157132Y-59182000D01*
X29889566Y-65449566D01*
X29708561Y-65720459D01*
X29645000Y-66040000D01*
X29645000Y-72898000D01*
X29708561Y-73217541D01*
X29802343Y-73357895D01*
X29889566Y-73488434D01*
X31127177Y-74726045D01*
X31126760Y-75204285D01*
X31337169Y-75713515D01*
X31726436Y-76103461D01*
X32235298Y-76314759D01*
X32786285Y-76315240D01*
X33295515Y-76104831D01*
X33685461Y-75715564D01*
X33896759Y-75206702D01*
X33897240Y-74655715D01*
X33686831Y-74146485D01*
X33297564Y-73756539D01*
X32788702Y-73545241D01*
X32307689Y-73544821D01*
X32217819Y-73454951D01*
X33921700Y-73454951D01*
X33921700Y-73945750D01*
X34080450Y-74104500D01*
X35179000Y-74104500D01*
X35179000Y-73105010D01*
X35433000Y-73105010D01*
X35433000Y-74104500D01*
X36531550Y-74104500D01*
X36690300Y-73945750D01*
X36690300Y-73454951D01*
X36593627Y-73221562D01*
X36414999Y-73042933D01*
X36181610Y-72946260D01*
X35591750Y-72946260D01*
X35433000Y-73105010D01*
X35179000Y-73105010D01*
X35020250Y-72946260D01*
X34430390Y-72946260D01*
X34197001Y-73042933D01*
X34018373Y-73221562D01*
X33921700Y-73454951D01*
X32217819Y-73454951D01*
X31315000Y-72552132D01*
X31315000Y-69056250D01*
X33921700Y-69056250D01*
X33921700Y-69547049D01*
X34018373Y-69780438D01*
X34197001Y-69959067D01*
X34430390Y-70055740D01*
X35020250Y-70055740D01*
X35179000Y-69896990D01*
X35179000Y-68897500D01*
X35433000Y-68897500D01*
X35433000Y-69896990D01*
X35591750Y-70055740D01*
X36181610Y-70055740D01*
X36414999Y-69959067D01*
X36593627Y-69780438D01*
X36690300Y-69547049D01*
X36690300Y-69056250D01*
X36531550Y-68897500D01*
X35433000Y-68897500D01*
X35179000Y-68897500D01*
X34080450Y-68897500D01*
X33921700Y-69056250D01*
X31315000Y-69056250D01*
X31315000Y-66385868D01*
X37338000Y-60362868D01*
X40456342Y-63481210D01*
X38624510Y-63481210D01*
X38389193Y-63525488D01*
X38173069Y-63664560D01*
X38028079Y-63876760D01*
X37977070Y-64128650D01*
X37977070Y-66043200D01*
X36670365Y-66043200D01*
X36658462Y-65979943D01*
X36519390Y-65763819D01*
X36307190Y-65618829D01*
X36055300Y-65567820D01*
X34556700Y-65567820D01*
X34321383Y-65612098D01*
X34105259Y-65751170D01*
X33960269Y-65963370D01*
X33909260Y-66215260D01*
X33909260Y-67515740D01*
X33953538Y-67751057D01*
X33995378Y-67816078D01*
X33921700Y-67993951D01*
X33921700Y-68484750D01*
X34080450Y-68643500D01*
X35179000Y-68643500D01*
X35179000Y-68623500D01*
X35433000Y-68623500D01*
X35433000Y-68643500D01*
X36531550Y-68643500D01*
X36690300Y-68484750D01*
X36690300Y-67993951D01*
X36617379Y-67817905D01*
X36651731Y-67767630D01*
X36662753Y-67713200D01*
X37977070Y-67713200D01*
X37977070Y-69627750D01*
X38021348Y-69863067D01*
X38160420Y-70079191D01*
X38372620Y-70224181D01*
X38624510Y-70275190D01*
X40623490Y-70275190D01*
X40858807Y-70230912D01*
X41074931Y-70091840D01*
X41219921Y-69879640D01*
X41257753Y-69692821D01*
X42259366Y-70694434D01*
X42530259Y-70875439D01*
X42849800Y-70939000D01*
X44364150Y-70939000D01*
X44301455Y-71001695D01*
X44166370Y-71199398D01*
X44111886Y-71450560D01*
X44159410Y-71703131D01*
X44197266Y-71760213D01*
X41270930Y-74686549D01*
X41270930Y-73628250D01*
X41226652Y-73392933D01*
X41087580Y-73176809D01*
X40875380Y-73031819D01*
X40623490Y-72980810D01*
X38624510Y-72980810D01*
X38389193Y-73025088D01*
X38173069Y-73164160D01*
X38028079Y-73376360D01*
X37977070Y-73628250D01*
X37977070Y-75301500D01*
X36667975Y-75301500D01*
X36658462Y-75250943D01*
X36616622Y-75185922D01*
X36690300Y-75008049D01*
X36690300Y-74517250D01*
X36531550Y-74358500D01*
X35433000Y-74358500D01*
X35433000Y-74378500D01*
X35179000Y-74378500D01*
X35179000Y-74358500D01*
X34080450Y-74358500D01*
X33921700Y-74517250D01*
X33921700Y-75008049D01*
X33994621Y-75184095D01*
X33960269Y-75234370D01*
X33909260Y-75486260D01*
X33909260Y-76786740D01*
X33953538Y-77022057D01*
X34092610Y-77238181D01*
X34304810Y-77383171D01*
X34556700Y-77434180D01*
X36055300Y-77434180D01*
X36290617Y-77389902D01*
X36506741Y-77250830D01*
X36651731Y-77038630D01*
X36665325Y-76971500D01*
X37977070Y-76971500D01*
X37977070Y-79127350D01*
X38021348Y-79362667D01*
X38160420Y-79578791D01*
X38372620Y-79723781D01*
X38624510Y-79774790D01*
X40623490Y-79774790D01*
X40730472Y-79754660D01*
X40294132Y-80191000D01*
X35651868Y-80191000D01*
X28838500Y-73377632D01*
X28838500Y-57241975D01*
X28889057Y-57232462D01*
X28954546Y-57190321D01*
X29006370Y-57225731D01*
X29258260Y-57276740D01*
X30558740Y-57276740D01*
X30794057Y-57232462D01*
X31010181Y-57093390D01*
X31155171Y-56881190D01*
X31188825Y-56715000D01*
X32512000Y-56715000D01*
X32831541Y-56651439D01*
X33102434Y-56470434D01*
X33360833Y-56212035D01*
X33576260Y-56255660D01*
G36*
X24003260Y-28145740D02*
X24047538Y-28381057D01*
X24089378Y-28446078D01*
X24015700Y-28623951D01*
X24015700Y-29114750D01*
X24174450Y-29273500D01*
X25273000Y-29273500D01*
X25273000Y-29253500D01*
X25527000Y-29253500D01*
X25527000Y-29273500D01*
X26625550Y-29273500D01*
X26784300Y-29114750D01*
X26784300Y-28623951D01*
X26711379Y-28447905D01*
X26745731Y-28397630D01*
X26759325Y-28330500D01*
X26860500Y-28330500D01*
X26948390Y-28313017D01*
X26948390Y-28315920D01*
X26992668Y-28551237D01*
X27131740Y-28767361D01*
X27343940Y-28912351D01*
X27595830Y-28963360D01*
X27661260Y-28963360D01*
X27661260Y-29004260D01*
X27724821Y-29323801D01*
X27873580Y-29546434D01*
X27905826Y-29594694D01*
X30010000Y-31698868D01*
X30010000Y-32273554D01*
X29859683Y-32301838D01*
X29643559Y-32440910D01*
X29590412Y-32518693D01*
X29568923Y-32442540D01*
X29049829Y-32257799D01*
X28499552Y-32285770D01*
X28121077Y-32442540D01*
X28053088Y-32683483D01*
X28845000Y-33475395D01*
X28859143Y-33461253D01*
X29038748Y-33640858D01*
X29024605Y-33655000D01*
X29038748Y-33669143D01*
X28859143Y-33848748D01*
X28845000Y-33834605D01*
X28053088Y-34626517D01*
X28121077Y-34867460D01*
X28640171Y-35052201D01*
X29190448Y-35024230D01*
X29568923Y-34867460D01*
X29589981Y-34792835D01*
X29630910Y-34856441D01*
X29843110Y-35001431D01*
X30010000Y-35035227D01*
X30010000Y-37897132D01*
X27413066Y-40494066D01*
X27232061Y-40764959D01*
X27168500Y-41084500D01*
X27168500Y-51978025D01*
X27117943Y-51987538D01*
X26901819Y-52126610D01*
X26756829Y-52338810D01*
X26714746Y-52546623D01*
X26604459Y-52568561D01*
X26516206Y-52627530D01*
X26333566Y-52749566D01*
X26324132Y-52759000D01*
X26117524Y-52759000D01*
X26086982Y-52596683D01*
X25947910Y-52380559D01*
X25735710Y-52235569D01*
X25519276Y-52191740D01*
X25743635Y-52041828D01*
X26046467Y-51588609D01*
X26152807Y-51054000D01*
X26046467Y-50519391D01*
X25743635Y-50066172D01*
X25321336Y-49784000D01*
X25743635Y-49501828D01*
X26046467Y-49048609D01*
X26152807Y-48514000D01*
X26046467Y-47979391D01*
X25743635Y-47526172D01*
X25308394Y-47235353D01*
X25373761Y-47216059D01*
X25799450Y-46872026D01*
X26061080Y-46391277D01*
X26076040Y-46317070D01*
X25953540Y-46101000D01*
X24511000Y-46101000D01*
X24511000Y-46121000D01*
X24257000Y-46121000D01*
X24257000Y-46101000D01*
X22814460Y-46101000D01*
X22691960Y-46317070D01*
X22706920Y-46391277D01*
X22968550Y-46872026D01*
X23394239Y-47216059D01*
X23459606Y-47235353D01*
X23024365Y-47526172D01*
X22721533Y-47979391D01*
X22615193Y-48514000D01*
X22721533Y-49048609D01*
X23024365Y-49501828D01*
X23446664Y-49784000D01*
X23024365Y-50066172D01*
X22721533Y-50519391D01*
X22615193Y-51054000D01*
X22721533Y-51588609D01*
X23024365Y-52041828D01*
X23248130Y-52191343D01*
X23048863Y-52228838D01*
X22832739Y-52367910D01*
X22687749Y-52580110D01*
X22636740Y-52832000D01*
X22636740Y-54356000D01*
X22681018Y-54591317D01*
X22820090Y-54807441D01*
X23032290Y-54952431D01*
X23284180Y-55003440D01*
X25483820Y-55003440D01*
X25719137Y-54959162D01*
X25935261Y-54820090D01*
X26080251Y-54607890D01*
X26116477Y-54429000D01*
X26670000Y-54429000D01*
X26800556Y-54403031D01*
X26889170Y-54540741D01*
X26990175Y-54609755D01*
X26901819Y-54666610D01*
X26756829Y-54878810D01*
X26705820Y-55130700D01*
X26705820Y-56629300D01*
X26750098Y-56864617D01*
X26889170Y-57080741D01*
X27101370Y-57225731D01*
X27168500Y-57239325D01*
X27168500Y-73723500D01*
X27232061Y-74043041D01*
X27392236Y-74282759D01*
X27413066Y-74313934D01*
X31815805Y-78716673D01*
X25502046Y-74497954D01*
X17991880Y-63258197D01*
X15354661Y-50000000D01*
X15585858Y-48837694D01*
X16653226Y-48837694D01*
X16901538Y-49438655D01*
X17246480Y-49784199D01*
X16903154Y-50126927D01*
X16653794Y-50727453D01*
X16653226Y-51377694D01*
X16901538Y-51978655D01*
X17360927Y-52438846D01*
X17453000Y-52477078D01*
X17453000Y-54535867D01*
X17249819Y-54666610D01*
X17104829Y-54878810D01*
X17053820Y-55130700D01*
X17053820Y-56629300D01*
X17098098Y-56864617D01*
X17237170Y-57080741D01*
X17449370Y-57225731D01*
X17701260Y-57276740D01*
X19001740Y-57276740D01*
X19237057Y-57232462D01*
X19302546Y-57190321D01*
X19354370Y-57225731D01*
X19421500Y-57239325D01*
X19421500Y-57359954D01*
X19146539Y-57634436D01*
X18935241Y-58143298D01*
X18934760Y-58694285D01*
X19145169Y-59203515D01*
X19534436Y-59593461D01*
X20043298Y-59804759D01*
X20594285Y-59805240D01*
X21103515Y-59594831D01*
X21493461Y-59205564D01*
X21704759Y-58696702D01*
X21705240Y-58145715D01*
X21494831Y-57636485D01*
X21105564Y-57246539D01*
X21093614Y-57241577D01*
X21142057Y-57232462D01*
X21358181Y-57093390D01*
X21503171Y-56881190D01*
X21554180Y-56629300D01*
X21554180Y-55130700D01*
X21509902Y-54895383D01*
X21370830Y-54679259D01*
X21158630Y-54534269D01*
X20906740Y-54483260D01*
X19606260Y-54483260D01*
X19370943Y-54527538D01*
X19305454Y-54569679D01*
X19253630Y-54534269D01*
X19123000Y-54507816D01*
X19123000Y-52477507D01*
X19212655Y-52440462D01*
X19672846Y-51981073D01*
X19922206Y-51380547D01*
X19922774Y-50730306D01*
X19674462Y-50129345D01*
X19329520Y-49783801D01*
X19672846Y-49441073D01*
X19922206Y-48840547D01*
X19922774Y-48190306D01*
X19674462Y-47589345D01*
X19215073Y-47129154D01*
X18614547Y-46879794D01*
X17964306Y-46879226D01*
X17363345Y-47127538D01*
X16903154Y-47586927D01*
X16653794Y-48187453D01*
X16653226Y-48837694D01*
X15585858Y-48837694D01*
X16223722Y-45630930D01*
X22691960Y-45630930D01*
X22814460Y-45847000D01*
X24257000Y-45847000D01*
X24257000Y-44577000D01*
X24511000Y-44577000D01*
X24511000Y-45847000D01*
X25953540Y-45847000D01*
X26076040Y-45630930D01*
X26061080Y-45556723D01*
X25799450Y-45075974D01*
X25373761Y-44731941D01*
X24848820Y-44577000D01*
X24511000Y-44577000D01*
X24257000Y-44577000D01*
X23919180Y-44577000D01*
X23394239Y-44731941D01*
X22968550Y-45075974D01*
X22706920Y-45556723D01*
X22691960Y-45630930D01*
X16223722Y-45630930D01*
X17991880Y-36741803D01*
X20191278Y-33450171D01*
X27447799Y-33450171D01*
X27475770Y-34000448D01*
X27632540Y-34378923D01*
X27873483Y-34446912D01*
X28665395Y-33655000D01*
X27873483Y-32863088D01*
X27632540Y-32931077D01*
X27447799Y-33450171D01*
X20191278Y-33450171D01*
X22706250Y-29686250D01*
X24015700Y-29686250D01*
X24015700Y-30177049D01*
X24112373Y-30410438D01*
X24291001Y-30589067D01*
X24524390Y-30685740D01*
X25114250Y-30685740D01*
X25273000Y-30526990D01*
X25273000Y-29527500D01*
X25527000Y-29527500D01*
X25527000Y-30526990D01*
X25685750Y-30685740D01*
X26275610Y-30685740D01*
X26508999Y-30589067D01*
X26687627Y-30410438D01*
X26784300Y-30177049D01*
X26784300Y-29686250D01*
X26625550Y-29527500D01*
X25527000Y-29527500D01*
X25273000Y-29527500D01*
X24174450Y-29527500D01*
X24015700Y-29686250D01*
X22706250Y-29686250D01*
X24003260Y-27745138D01*
X24003260Y-28145740D01*
X24003260Y-28145740D01*
G37*
X24003260Y-28145740D02*
X24047538Y-28381057D01*
X24089378Y-28446078D01*
X24015700Y-28623951D01*
X24015700Y-29114750D01*
X24174450Y-29273500D01*
X25273000Y-29273500D01*
X25273000Y-29253500D01*
X25527000Y-29253500D01*
X25527000Y-29273500D01*
X26625550Y-29273500D01*
X26784300Y-29114750D01*
X26784300Y-28623951D01*
X26711379Y-28447905D01*
X26745731Y-28397630D01*
X26759325Y-28330500D01*
X26860500Y-28330500D01*
X26948390Y-28313017D01*
X26948390Y-28315920D01*
X26992668Y-28551237D01*
X27131740Y-28767361D01*
X27343940Y-28912351D01*
X27595830Y-28963360D01*
X27661260Y-28963360D01*
X27661260Y-29004260D01*
X27724821Y-29323801D01*
X27873580Y-29546434D01*
X27905826Y-29594694D01*
X30010000Y-31698868D01*
X30010000Y-32273554D01*
X29859683Y-32301838D01*
X29643559Y-32440910D01*
X29590412Y-32518693D01*
X29568923Y-32442540D01*
X29049829Y-32257799D01*
X28499552Y-32285770D01*
X28121077Y-32442540D01*
X28053088Y-32683483D01*
X28845000Y-33475395D01*
X28859143Y-33461253D01*
X29038748Y-33640858D01*
X29024605Y-33655000D01*
X29038748Y-33669143D01*
X28859143Y-33848748D01*
X28845000Y-33834605D01*
X28053088Y-34626517D01*
X28121077Y-34867460D01*
X28640171Y-35052201D01*
X29190448Y-35024230D01*
X29568923Y-34867460D01*
X29589981Y-34792835D01*
X29630910Y-34856441D01*
X29843110Y-35001431D01*
X30010000Y-35035227D01*
X30010000Y-37897132D01*
X27413066Y-40494066D01*
X27232061Y-40764959D01*
X27168500Y-41084500D01*
X27168500Y-51978025D01*
X27117943Y-51987538D01*
X26901819Y-52126610D01*
X26756829Y-52338810D01*
X26714746Y-52546623D01*
X26604459Y-52568561D01*
X26516206Y-52627530D01*
X26333566Y-52749566D01*
X26324132Y-52759000D01*
X26117524Y-52759000D01*
X26086982Y-52596683D01*
X25947910Y-52380559D01*
X25735710Y-52235569D01*
X25519276Y-52191740D01*
X25743635Y-52041828D01*
X26046467Y-51588609D01*
X26152807Y-51054000D01*
X26046467Y-50519391D01*
X25743635Y-50066172D01*
X25321336Y-49784000D01*
X25743635Y-49501828D01*
X26046467Y-49048609D01*
X26152807Y-48514000D01*
X26046467Y-47979391D01*
X25743635Y-47526172D01*
X25308394Y-47235353D01*
X25373761Y-47216059D01*
X25799450Y-46872026D01*
X26061080Y-46391277D01*
X26076040Y-46317070D01*
X25953540Y-46101000D01*
X24511000Y-46101000D01*
X24511000Y-46121000D01*
X24257000Y-46121000D01*
X24257000Y-46101000D01*
X22814460Y-46101000D01*
X22691960Y-46317070D01*
X22706920Y-46391277D01*
X22968550Y-46872026D01*
X23394239Y-47216059D01*
X23459606Y-47235353D01*
X23024365Y-47526172D01*
X22721533Y-47979391D01*
X22615193Y-48514000D01*
X22721533Y-49048609D01*
X23024365Y-49501828D01*
X23446664Y-49784000D01*
X23024365Y-50066172D01*
X22721533Y-50519391D01*
X22615193Y-51054000D01*
X22721533Y-51588609D01*
X23024365Y-52041828D01*
X23248130Y-52191343D01*
X23048863Y-52228838D01*
X22832739Y-52367910D01*
X22687749Y-52580110D01*
X22636740Y-52832000D01*
X22636740Y-54356000D01*
X22681018Y-54591317D01*
X22820090Y-54807441D01*
X23032290Y-54952431D01*
X23284180Y-55003440D01*
X25483820Y-55003440D01*
X25719137Y-54959162D01*
X25935261Y-54820090D01*
X26080251Y-54607890D01*
X26116477Y-54429000D01*
X26670000Y-54429000D01*
X26800556Y-54403031D01*
X26889170Y-54540741D01*
X26990175Y-54609755D01*
X26901819Y-54666610D01*
X26756829Y-54878810D01*
X26705820Y-55130700D01*
X26705820Y-56629300D01*
X26750098Y-56864617D01*
X26889170Y-57080741D01*
X27101370Y-57225731D01*
X27168500Y-57239325D01*
X27168500Y-73723500D01*
X27232061Y-74043041D01*
X27392236Y-74282759D01*
X27413066Y-74313934D01*
X31815805Y-78716673D01*
X25502046Y-74497954D01*
X17991880Y-63258197D01*
X15354661Y-50000000D01*
X15585858Y-48837694D01*
X16653226Y-48837694D01*
X16901538Y-49438655D01*
X17246480Y-49784199D01*
X16903154Y-50126927D01*
X16653794Y-50727453D01*
X16653226Y-51377694D01*
X16901538Y-51978655D01*
X17360927Y-52438846D01*
X17453000Y-52477078D01*
X17453000Y-54535867D01*
X17249819Y-54666610D01*
X17104829Y-54878810D01*
X17053820Y-55130700D01*
X17053820Y-56629300D01*
X17098098Y-56864617D01*
X17237170Y-57080741D01*
X17449370Y-57225731D01*
X17701260Y-57276740D01*
X19001740Y-57276740D01*
X19237057Y-57232462D01*
X19302546Y-57190321D01*
X19354370Y-57225731D01*
X19421500Y-57239325D01*
X19421500Y-57359954D01*
X19146539Y-57634436D01*
X18935241Y-58143298D01*
X18934760Y-58694285D01*
X19145169Y-59203515D01*
X19534436Y-59593461D01*
X20043298Y-59804759D01*
X20594285Y-59805240D01*
X21103515Y-59594831D01*
X21493461Y-59205564D01*
X21704759Y-58696702D01*
X21705240Y-58145715D01*
X21494831Y-57636485D01*
X21105564Y-57246539D01*
X21093614Y-57241577D01*
X21142057Y-57232462D01*
X21358181Y-57093390D01*
X21503171Y-56881190D01*
X21554180Y-56629300D01*
X21554180Y-55130700D01*
X21509902Y-54895383D01*
X21370830Y-54679259D01*
X21158630Y-54534269D01*
X20906740Y-54483260D01*
X19606260Y-54483260D01*
X19370943Y-54527538D01*
X19305454Y-54569679D01*
X19253630Y-54534269D01*
X19123000Y-54507816D01*
X19123000Y-52477507D01*
X19212655Y-52440462D01*
X19672846Y-51981073D01*
X19922206Y-51380547D01*
X19922774Y-50730306D01*
X19674462Y-50129345D01*
X19329520Y-49783801D01*
X19672846Y-49441073D01*
X19922206Y-48840547D01*
X19922774Y-48190306D01*
X19674462Y-47589345D01*
X19215073Y-47129154D01*
X18614547Y-46879794D01*
X17964306Y-46879226D01*
X17363345Y-47127538D01*
X16903154Y-47586927D01*
X16653794Y-48187453D01*
X16653226Y-48837694D01*
X15585858Y-48837694D01*
X16223722Y-45630930D01*
X22691960Y-45630930D01*
X22814460Y-45847000D01*
X24257000Y-45847000D01*
X24257000Y-44577000D01*
X24511000Y-44577000D01*
X24511000Y-45847000D01*
X25953540Y-45847000D01*
X26076040Y-45630930D01*
X26061080Y-45556723D01*
X25799450Y-45075974D01*
X25373761Y-44731941D01*
X24848820Y-44577000D01*
X24511000Y-44577000D01*
X24257000Y-44577000D01*
X23919180Y-44577000D01*
X23394239Y-44731941D01*
X22968550Y-45075974D01*
X22706920Y-45556723D01*
X22691960Y-45630930D01*
X16223722Y-45630930D01*
X17991880Y-36741803D01*
X20191278Y-33450171D01*
X27447799Y-33450171D01*
X27475770Y-34000448D01*
X27632540Y-34378923D01*
X27873483Y-34446912D01*
X28665395Y-33655000D01*
X27873483Y-32863088D01*
X27632540Y-32931077D01*
X27447799Y-33450171D01*
X20191278Y-33450171D01*
X22706250Y-29686250D01*
X24015700Y-29686250D01*
X24015700Y-30177049D01*
X24112373Y-30410438D01*
X24291001Y-30589067D01*
X24524390Y-30685740D01*
X25114250Y-30685740D01*
X25273000Y-30526990D01*
X25273000Y-29527500D01*
X25527000Y-29527500D01*
X25527000Y-30526990D01*
X25685750Y-30685740D01*
X26275610Y-30685740D01*
X26508999Y-30589067D01*
X26687627Y-30410438D01*
X26784300Y-30177049D01*
X26784300Y-29686250D01*
X26625550Y-29527500D01*
X25527000Y-29527500D01*
X25273000Y-29527500D01*
X24174450Y-29527500D01*
X24015700Y-29686250D01*
X22706250Y-29686250D01*
X24003260Y-27745138D01*
X24003260Y-28145740D01*
G36*
X50488851Y-68878395D02*
X50597256Y-68952465D01*
X50664864Y-69054408D01*
X51054607Y-69444151D01*
X51163012Y-69518221D01*
X51230620Y-69620164D01*
X51620363Y-70009907D01*
X51728769Y-70083978D01*
X51796377Y-70185920D01*
X52186120Y-70575663D01*
X52293418Y-70648977D01*
X52360337Y-70749880D01*
X52750080Y-71139623D01*
X52858483Y-71213692D01*
X52926093Y-71315637D01*
X53315836Y-71705380D01*
X53424241Y-71779450D01*
X53443838Y-71809000D01*
X51423064Y-71809000D01*
X51423240Y-71607715D01*
X51212831Y-71098485D01*
X50823564Y-70708539D01*
X50314702Y-70497241D01*
X49763715Y-70496760D01*
X49254485Y-70707169D01*
X48864539Y-71096436D01*
X48653241Y-71605298D01*
X48652760Y-72156285D01*
X48863169Y-72665515D01*
X49252436Y-73055461D01*
X49761298Y-73266759D01*
X50258593Y-73267193D01*
X50480460Y-73415440D01*
X50800000Y-73479000D01*
X53442385Y-73479000D01*
X53417779Y-73515012D01*
X53315836Y-73582620D01*
X52926093Y-73972363D01*
X52865837Y-74060551D01*
X52848191Y-74067860D01*
X52766061Y-74149989D01*
X52766061Y-74285067D01*
X52736524Y-74421228D01*
X52760003Y-74546007D01*
X52652873Y-74522768D01*
X52486351Y-74554101D01*
X52361949Y-74554101D01*
X52279820Y-74636231D01*
X52271845Y-74655484D01*
X52186120Y-74712337D01*
X51796377Y-75102080D01*
X51722308Y-75210483D01*
X51657282Y-75253609D01*
X51676759Y-75206702D01*
X51677240Y-74655715D01*
X51466831Y-74146485D01*
X51077564Y-73756539D01*
X50568702Y-73545241D01*
X50017715Y-73544760D01*
X49508485Y-73755169D01*
X49168061Y-74095000D01*
X48569960Y-74095000D01*
X48250419Y-74158561D01*
X48064544Y-74282759D01*
X48006851Y-74321308D01*
X47833920Y-74148377D01*
X47725517Y-74074308D01*
X47657907Y-73972363D01*
X47268164Y-73582620D01*
X47159759Y-73508550D01*
X47092151Y-73406607D01*
X46702408Y-73016864D01*
X46594003Y-72942794D01*
X46526395Y-72840851D01*
X46329544Y-72644000D01*
X46526395Y-72447149D01*
X46600465Y-72338744D01*
X46702408Y-72271136D01*
X47092151Y-71881393D01*
X47166221Y-71772988D01*
X47268164Y-71705380D01*
X47657907Y-71315637D01*
X47718163Y-71227449D01*
X47735809Y-71220140D01*
X47817939Y-71138011D01*
X47817939Y-71002933D01*
X47847476Y-70866772D01*
X47823997Y-70741993D01*
X47931127Y-70765232D01*
X48097649Y-70733899D01*
X48222051Y-70733899D01*
X48304180Y-70651769D01*
X48312155Y-70632516D01*
X48397880Y-70575663D01*
X48787623Y-70185920D01*
X48847878Y-70097734D01*
X48865526Y-70090424D01*
X48947656Y-70008295D01*
X48947656Y-69873211D01*
X48977192Y-69737055D01*
X48953285Y-69609998D01*
X49062640Y-69633720D01*
X49219617Y-69604183D01*
X49351768Y-69604183D01*
X49433897Y-69522053D01*
X49442217Y-69501966D01*
X49529393Y-69444151D01*
X49919136Y-69054408D01*
X49993206Y-68946003D01*
X50095149Y-68878395D01*
X50292000Y-68681544D01*
X50488851Y-68878395D01*
X50488851Y-68878395D01*
G37*
X50488851Y-68878395D02*
X50597256Y-68952465D01*
X50664864Y-69054408D01*
X51054607Y-69444151D01*
X51163012Y-69518221D01*
X51230620Y-69620164D01*
X51620363Y-70009907D01*
X51728769Y-70083978D01*
X51796377Y-70185920D01*
X52186120Y-70575663D01*
X52293418Y-70648977D01*
X52360337Y-70749880D01*
X52750080Y-71139623D01*
X52858483Y-71213692D01*
X52926093Y-71315637D01*
X53315836Y-71705380D01*
X53424241Y-71779450D01*
X53443838Y-71809000D01*
X51423064Y-71809000D01*
X51423240Y-71607715D01*
X51212831Y-71098485D01*
X50823564Y-70708539D01*
X50314702Y-70497241D01*
X49763715Y-70496760D01*
X49254485Y-70707169D01*
X48864539Y-71096436D01*
X48653241Y-71605298D01*
X48652760Y-72156285D01*
X48863169Y-72665515D01*
X49252436Y-73055461D01*
X49761298Y-73266759D01*
X50258593Y-73267193D01*
X50480460Y-73415440D01*
X50800000Y-73479000D01*
X53442385Y-73479000D01*
X53417779Y-73515012D01*
X53315836Y-73582620D01*
X52926093Y-73972363D01*
X52865837Y-74060551D01*
X52848191Y-74067860D01*
X52766061Y-74149989D01*
X52766061Y-74285067D01*
X52736524Y-74421228D01*
X52760003Y-74546007D01*
X52652873Y-74522768D01*
X52486351Y-74554101D01*
X52361949Y-74554101D01*
X52279820Y-74636231D01*
X52271845Y-74655484D01*
X52186120Y-74712337D01*
X51796377Y-75102080D01*
X51722308Y-75210483D01*
X51657282Y-75253609D01*
X51676759Y-75206702D01*
X51677240Y-74655715D01*
X51466831Y-74146485D01*
X51077564Y-73756539D01*
X50568702Y-73545241D01*
X50017715Y-73544760D01*
X49508485Y-73755169D01*
X49168061Y-74095000D01*
X48569960Y-74095000D01*
X48250419Y-74158561D01*
X48064544Y-74282759D01*
X48006851Y-74321308D01*
X47833920Y-74148377D01*
X47725517Y-74074308D01*
X47657907Y-73972363D01*
X47268164Y-73582620D01*
X47159759Y-73508550D01*
X47092151Y-73406607D01*
X46702408Y-73016864D01*
X46594003Y-72942794D01*
X46526395Y-72840851D01*
X46329544Y-72644000D01*
X46526395Y-72447149D01*
X46600465Y-72338744D01*
X46702408Y-72271136D01*
X47092151Y-71881393D01*
X47166221Y-71772988D01*
X47268164Y-71705380D01*
X47657907Y-71315637D01*
X47718163Y-71227449D01*
X47735809Y-71220140D01*
X47817939Y-71138011D01*
X47817939Y-71002933D01*
X47847476Y-70866772D01*
X47823997Y-70741993D01*
X47931127Y-70765232D01*
X48097649Y-70733899D01*
X48222051Y-70733899D01*
X48304180Y-70651769D01*
X48312155Y-70632516D01*
X48397880Y-70575663D01*
X48787623Y-70185920D01*
X48847878Y-70097734D01*
X48865526Y-70090424D01*
X48947656Y-70008295D01*
X48947656Y-69873211D01*
X48977192Y-69737055D01*
X48953285Y-69609998D01*
X49062640Y-69633720D01*
X49219617Y-69604183D01*
X49351768Y-69604183D01*
X49433897Y-69522053D01*
X49442217Y-69501966D01*
X49529393Y-69444151D01*
X49919136Y-69054408D01*
X49993206Y-68946003D01*
X50095149Y-68878395D01*
X50292000Y-68681544D01*
X50488851Y-68878395D01*
G36*
X44316334Y-63721584D02*
X45557472Y-63968462D01*
X45448373Y-64077562D01*
X45351700Y-64310951D01*
X45351700Y-64801750D01*
X45510450Y-64960500D01*
X46609000Y-64960500D01*
X46609000Y-64940500D01*
X46863000Y-64940500D01*
X46863000Y-64960500D01*
X47961550Y-64960500D01*
X48120300Y-64801750D01*
X48120300Y-64478240D01*
X48978237Y-64648895D01*
X48120300Y-65506832D01*
X48120300Y-65373250D01*
X47961550Y-65214500D01*
X46863000Y-65214500D01*
X46863000Y-65234500D01*
X46609000Y-65234500D01*
X46609000Y-65214500D01*
X45510450Y-65214500D01*
X45351700Y-65373250D01*
X45351700Y-65864049D01*
X45424621Y-66040095D01*
X45390269Y-66090370D01*
X45339260Y-66342260D01*
X45339260Y-67642740D01*
X45383538Y-67878057D01*
X45522610Y-68094181D01*
X45734810Y-68239171D01*
X45901000Y-68272825D01*
X45901000Y-68524040D01*
X45961478Y-68828083D01*
X45884961Y-68751566D01*
X45835863Y-68718760D01*
X45614068Y-68570561D01*
X45294527Y-68507000D01*
X44962418Y-68507000D01*
X45033731Y-68402630D01*
X45084740Y-68150740D01*
X45084740Y-66850260D01*
X45040462Y-66614943D01*
X44998622Y-66549922D01*
X45072300Y-66372049D01*
X45072300Y-65881250D01*
X44913550Y-65722500D01*
X43815000Y-65722500D01*
X43815000Y-65742500D01*
X43561000Y-65742500D01*
X43561000Y-65722500D01*
X43541000Y-65722500D01*
X43541000Y-65468500D01*
X43561000Y-65468500D01*
X43561000Y-64469010D01*
X43815000Y-64469010D01*
X43815000Y-65468500D01*
X44913550Y-65468500D01*
X45072300Y-65309750D01*
X45072300Y-64818951D01*
X44975627Y-64585562D01*
X44796999Y-64406933D01*
X44563610Y-64310260D01*
X43973750Y-64310260D01*
X43815000Y-64469010D01*
X43561000Y-64469010D01*
X43402250Y-64310260D01*
X42812390Y-64310260D01*
X42579001Y-64406933D01*
X42491000Y-64494934D01*
X42491000Y-63500000D01*
X42427439Y-63180459D01*
X42246434Y-62909566D01*
X40525494Y-61188626D01*
X44316334Y-63721584D01*
X44316334Y-63721584D01*
G37*
X44316334Y-63721584D02*
X45557472Y-63968462D01*
X45448373Y-64077562D01*
X45351700Y-64310951D01*
X45351700Y-64801750D01*
X45510450Y-64960500D01*
X46609000Y-64960500D01*
X46609000Y-64940500D01*
X46863000Y-64940500D01*
X46863000Y-64960500D01*
X47961550Y-64960500D01*
X48120300Y-64801750D01*
X48120300Y-64478240D01*
X48978237Y-64648895D01*
X48120300Y-65506832D01*
X48120300Y-65373250D01*
X47961550Y-65214500D01*
X46863000Y-65214500D01*
X46863000Y-65234500D01*
X46609000Y-65234500D01*
X46609000Y-65214500D01*
X45510450Y-65214500D01*
X45351700Y-65373250D01*
X45351700Y-65864049D01*
X45424621Y-66040095D01*
X45390269Y-66090370D01*
X45339260Y-66342260D01*
X45339260Y-67642740D01*
X45383538Y-67878057D01*
X45522610Y-68094181D01*
X45734810Y-68239171D01*
X45901000Y-68272825D01*
X45901000Y-68524040D01*
X45961478Y-68828083D01*
X45884961Y-68751566D01*
X45835863Y-68718760D01*
X45614068Y-68570561D01*
X45294527Y-68507000D01*
X44962418Y-68507000D01*
X45033731Y-68402630D01*
X45084740Y-68150740D01*
X45084740Y-66850260D01*
X45040462Y-66614943D01*
X44998622Y-66549922D01*
X45072300Y-66372049D01*
X45072300Y-65881250D01*
X44913550Y-65722500D01*
X43815000Y-65722500D01*
X43815000Y-65742500D01*
X43561000Y-65742500D01*
X43561000Y-65722500D01*
X43541000Y-65722500D01*
X43541000Y-65468500D01*
X43561000Y-65468500D01*
X43561000Y-64469010D01*
X43815000Y-64469010D01*
X43815000Y-65468500D01*
X44913550Y-65468500D01*
X45072300Y-65309750D01*
X45072300Y-64818951D01*
X44975627Y-64585562D01*
X44796999Y-64406933D01*
X44563610Y-64310260D01*
X43973750Y-64310260D01*
X43815000Y-64469010D01*
X43561000Y-64469010D01*
X43402250Y-64310260D01*
X42812390Y-64310260D01*
X42579001Y-64406933D01*
X42491000Y-64494934D01*
X42491000Y-63500000D01*
X42427439Y-63180459D01*
X42246434Y-62909566D01*
X40525494Y-61188626D01*
X44316334Y-63721584D01*
G36*
X74478610Y-55394181D02*
X74690810Y-55539171D01*
X74857000Y-55572825D01*
X74857000Y-55584682D01*
X74711193Y-55612118D01*
X74495069Y-55751190D01*
X74350079Y-55963390D01*
X74299070Y-56215280D01*
X74299070Y-56814720D01*
X74343348Y-57050037D01*
X74407374Y-57149536D01*
X74350079Y-57233390D01*
X74299070Y-57485280D01*
X74299070Y-58084720D01*
X74343348Y-58320037D01*
X74407374Y-58419536D01*
X74350079Y-58503390D01*
X74299070Y-58755280D01*
X74299070Y-59354720D01*
X74343348Y-59590037D01*
X74401830Y-59680920D01*
X74311510Y-59898971D01*
X74311510Y-60039250D01*
X74470260Y-60198000D01*
X75819000Y-60198000D01*
X75819000Y-60178000D01*
X76073000Y-60178000D01*
X76073000Y-60198000D01*
X76093000Y-60198000D01*
X76093000Y-60452000D01*
X76073000Y-60452000D01*
X76073000Y-61100970D01*
X76231750Y-61259720D01*
X77071800Y-61259720D01*
X77305189Y-61163047D01*
X77483817Y-60984418D01*
X77580490Y-60751029D01*
X77580490Y-60610750D01*
X77421742Y-60452002D01*
X77559134Y-60452002D01*
X77578066Y-60470934D01*
X77848959Y-60651939D01*
X78168500Y-60715500D01*
X78902025Y-60715500D01*
X78911538Y-60766057D01*
X79037852Y-60962354D01*
X78918269Y-61137370D01*
X78867260Y-61389260D01*
X78867260Y-62689740D01*
X78911538Y-62925057D01*
X78953679Y-62990546D01*
X78918269Y-63042370D01*
X78867260Y-63294260D01*
X78867260Y-64594740D01*
X78911538Y-64830057D01*
X79050610Y-65046181D01*
X79262810Y-65191171D01*
X79429000Y-65224825D01*
X79429000Y-66710132D01*
X77528863Y-68610269D01*
X77510321Y-68581454D01*
X77545731Y-68529630D01*
X77596740Y-68277740D01*
X77596740Y-66977260D01*
X77552462Y-66741943D01*
X77413390Y-66525819D01*
X77350456Y-66482818D01*
X77395871Y-66416350D01*
X77446880Y-66164460D01*
X77446880Y-64965580D01*
X77402602Y-64730263D01*
X77263530Y-64514139D01*
X77262533Y-64513457D01*
X77395871Y-64318310D01*
X77446880Y-64066420D01*
X77446880Y-62867540D01*
X77402602Y-62632223D01*
X77263530Y-62416099D01*
X77051330Y-62271109D01*
X76799440Y-62220100D01*
X76608968Y-62220100D01*
X75648588Y-61259720D01*
X75660250Y-61259720D01*
X75819000Y-61100970D01*
X75819000Y-60452000D01*
X74470260Y-60452000D01*
X74311510Y-60610750D01*
X74311510Y-60633000D01*
X74005869Y-60633000D01*
X73987000Y-60614132D01*
X73987000Y-55574054D01*
X74136617Y-55545902D01*
X74352741Y-55406830D01*
X74421755Y-55305825D01*
X74478610Y-55394181D01*
X74478610Y-55394181D01*
G37*
X74478610Y-55394181D02*
X74690810Y-55539171D01*
X74857000Y-55572825D01*
X74857000Y-55584682D01*
X74711193Y-55612118D01*
X74495069Y-55751190D01*
X74350079Y-55963390D01*
X74299070Y-56215280D01*
X74299070Y-56814720D01*
X74343348Y-57050037D01*
X74407374Y-57149536D01*
X74350079Y-57233390D01*
X74299070Y-57485280D01*
X74299070Y-58084720D01*
X74343348Y-58320037D01*
X74407374Y-58419536D01*
X74350079Y-58503390D01*
X74299070Y-58755280D01*
X74299070Y-59354720D01*
X74343348Y-59590037D01*
X74401830Y-59680920D01*
X74311510Y-59898971D01*
X74311510Y-60039250D01*
X74470260Y-60198000D01*
X75819000Y-60198000D01*
X75819000Y-60178000D01*
X76073000Y-60178000D01*
X76073000Y-60198000D01*
X76093000Y-60198000D01*
X76093000Y-60452000D01*
X76073000Y-60452000D01*
X76073000Y-61100970D01*
X76231750Y-61259720D01*
X77071800Y-61259720D01*
X77305189Y-61163047D01*
X77483817Y-60984418D01*
X77580490Y-60751029D01*
X77580490Y-60610750D01*
X77421742Y-60452002D01*
X77559134Y-60452002D01*
X77578066Y-60470934D01*
X77848959Y-60651939D01*
X78168500Y-60715500D01*
X78902025Y-60715500D01*
X78911538Y-60766057D01*
X79037852Y-60962354D01*
X78918269Y-61137370D01*
X78867260Y-61389260D01*
X78867260Y-62689740D01*
X78911538Y-62925057D01*
X78953679Y-62990546D01*
X78918269Y-63042370D01*
X78867260Y-63294260D01*
X78867260Y-64594740D01*
X78911538Y-64830057D01*
X79050610Y-65046181D01*
X79262810Y-65191171D01*
X79429000Y-65224825D01*
X79429000Y-66710132D01*
X77528863Y-68610269D01*
X77510321Y-68581454D01*
X77545731Y-68529630D01*
X77596740Y-68277740D01*
X77596740Y-66977260D01*
X77552462Y-66741943D01*
X77413390Y-66525819D01*
X77350456Y-66482818D01*
X77395871Y-66416350D01*
X77446880Y-66164460D01*
X77446880Y-64965580D01*
X77402602Y-64730263D01*
X77263530Y-64514139D01*
X77262533Y-64513457D01*
X77395871Y-64318310D01*
X77446880Y-64066420D01*
X77446880Y-62867540D01*
X77402602Y-62632223D01*
X77263530Y-62416099D01*
X77051330Y-62271109D01*
X76799440Y-62220100D01*
X76608968Y-62220100D01*
X75648588Y-61259720D01*
X75660250Y-61259720D01*
X75819000Y-61100970D01*
X75819000Y-60452000D01*
X74470260Y-60452000D01*
X74311510Y-60610750D01*
X74311510Y-60633000D01*
X74005869Y-60633000D01*
X73987000Y-60614132D01*
X73987000Y-55574054D01*
X74136617Y-55545902D01*
X74352741Y-55406830D01*
X74421755Y-55305825D01*
X74478610Y-55394181D01*
G36*
X68711070Y-58755280D02*
X68711070Y-59354720D01*
X68755348Y-59590037D01*
X68819374Y-59689536D01*
X68762079Y-59773390D01*
X68711070Y-60025280D01*
X68711070Y-60624720D01*
X68755348Y-60860037D01*
X68894420Y-61076161D01*
X69106620Y-61221151D01*
X69269000Y-61254034D01*
X69269000Y-62281946D01*
X69119383Y-62310098D01*
X68903259Y-62449170D01*
X68758269Y-62661370D01*
X68707260Y-62913260D01*
X68707260Y-64213740D01*
X68751538Y-64449057D01*
X68793679Y-64514546D01*
X68773276Y-64544407D01*
X68598934Y-64370066D01*
X68535289Y-64327540D01*
X68328041Y-64189061D01*
X68008500Y-64125500D01*
X67909975Y-64125500D01*
X67900462Y-64074943D01*
X67858321Y-64009454D01*
X67893731Y-63957630D01*
X67944740Y-63705740D01*
X67944740Y-62405260D01*
X67900462Y-62169943D01*
X67761390Y-61953819D01*
X67549190Y-61808829D01*
X67341377Y-61766746D01*
X67319439Y-61656459D01*
X67138434Y-61385566D01*
X66490891Y-60738023D01*
X66491651Y-60736910D01*
X66542660Y-60485020D01*
X66542660Y-60270390D01*
X66565780Y-60270390D01*
X66565780Y-60611330D01*
X66662453Y-60844719D01*
X66841082Y-61023347D01*
X67074471Y-61120020D01*
X67214750Y-61120020D01*
X67373500Y-60961270D01*
X67373500Y-60111640D01*
X67627500Y-60111640D01*
X67627500Y-60961270D01*
X67786250Y-61120020D01*
X67926529Y-61120020D01*
X68159918Y-61023347D01*
X68338547Y-60844719D01*
X68435220Y-60611330D01*
X68435220Y-60270390D01*
X68276470Y-60111640D01*
X67627500Y-60111640D01*
X67373500Y-60111640D01*
X66724530Y-60111640D01*
X66565780Y-60270390D01*
X66542660Y-60270390D01*
X66542660Y-59484260D01*
X66498382Y-59248943D01*
X66359310Y-59032819D01*
X66339349Y-59019180D01*
X66767835Y-59019180D01*
X66662453Y-59124561D01*
X66565780Y-59357950D01*
X66565780Y-59698890D01*
X66724530Y-59857640D01*
X67373500Y-59857640D01*
X67373500Y-59008010D01*
X67627500Y-59008010D01*
X67627500Y-59857640D01*
X68276470Y-59857640D01*
X68435220Y-59698890D01*
X68435220Y-59357950D01*
X68338547Y-59124561D01*
X68159918Y-58945933D01*
X67926529Y-58849260D01*
X67786250Y-58849260D01*
X67627500Y-59008010D01*
X67373500Y-59008010D01*
X67239628Y-58874138D01*
X67299161Y-58835830D01*
X67387624Y-58706360D01*
X67604640Y-58706360D01*
X67924181Y-58642799D01*
X67958302Y-58620000D01*
X68738465Y-58620000D01*
X68711070Y-58755280D01*
X68711070Y-58755280D01*
G37*
X68711070Y-58755280D02*
X68711070Y-59354720D01*
X68755348Y-59590037D01*
X68819374Y-59689536D01*
X68762079Y-59773390D01*
X68711070Y-60025280D01*
X68711070Y-60624720D01*
X68755348Y-60860037D01*
X68894420Y-61076161D01*
X69106620Y-61221151D01*
X69269000Y-61254034D01*
X69269000Y-62281946D01*
X69119383Y-62310098D01*
X68903259Y-62449170D01*
X68758269Y-62661370D01*
X68707260Y-62913260D01*
X68707260Y-64213740D01*
X68751538Y-64449057D01*
X68793679Y-64514546D01*
X68773276Y-64544407D01*
X68598934Y-64370066D01*
X68535289Y-64327540D01*
X68328041Y-64189061D01*
X68008500Y-64125500D01*
X67909975Y-64125500D01*
X67900462Y-64074943D01*
X67858321Y-64009454D01*
X67893731Y-63957630D01*
X67944740Y-63705740D01*
X67944740Y-62405260D01*
X67900462Y-62169943D01*
X67761390Y-61953819D01*
X67549190Y-61808829D01*
X67341377Y-61766746D01*
X67319439Y-61656459D01*
X67138434Y-61385566D01*
X66490891Y-60738023D01*
X66491651Y-60736910D01*
X66542660Y-60485020D01*
X66542660Y-60270390D01*
X66565780Y-60270390D01*
X66565780Y-60611330D01*
X66662453Y-60844719D01*
X66841082Y-61023347D01*
X67074471Y-61120020D01*
X67214750Y-61120020D01*
X67373500Y-60961270D01*
X67373500Y-60111640D01*
X67627500Y-60111640D01*
X67627500Y-60961270D01*
X67786250Y-61120020D01*
X67926529Y-61120020D01*
X68159918Y-61023347D01*
X68338547Y-60844719D01*
X68435220Y-60611330D01*
X68435220Y-60270390D01*
X68276470Y-60111640D01*
X67627500Y-60111640D01*
X67373500Y-60111640D01*
X66724530Y-60111640D01*
X66565780Y-60270390D01*
X66542660Y-60270390D01*
X66542660Y-59484260D01*
X66498382Y-59248943D01*
X66359310Y-59032819D01*
X66339349Y-59019180D01*
X66767835Y-59019180D01*
X66662453Y-59124561D01*
X66565780Y-59357950D01*
X66565780Y-59698890D01*
X66724530Y-59857640D01*
X67373500Y-59857640D01*
X67373500Y-59008010D01*
X67627500Y-59008010D01*
X67627500Y-59857640D01*
X68276470Y-59857640D01*
X68435220Y-59698890D01*
X68435220Y-59357950D01*
X68338547Y-59124561D01*
X68159918Y-58945933D01*
X67926529Y-58849260D01*
X67786250Y-58849260D01*
X67627500Y-59008010D01*
X67373500Y-59008010D01*
X67239628Y-58874138D01*
X67299161Y-58835830D01*
X67387624Y-58706360D01*
X67604640Y-58706360D01*
X67924181Y-58642799D01*
X67958302Y-58620000D01*
X68738465Y-58620000D01*
X68711070Y-58755280D01*
G36*
X63258197Y-17991880D02*
X72659671Y-24273744D01*
X72066306Y-24273226D01*
X71465345Y-24521538D01*
X71119801Y-24866480D01*
X70777073Y-24523154D01*
X70176547Y-24273794D01*
X69526306Y-24273226D01*
X68925345Y-24521538D01*
X68465154Y-24980927D01*
X68215794Y-25581453D01*
X68215226Y-26231694D01*
X68463538Y-26832655D01*
X68922927Y-27292846D01*
X69523453Y-27542206D01*
X70173694Y-27542774D01*
X70774655Y-27294462D01*
X71120199Y-26949520D01*
X71462927Y-27292846D01*
X71809000Y-27436548D01*
X71809000Y-29261946D01*
X71659383Y-29290098D01*
X71443259Y-29429170D01*
X71298269Y-29641370D01*
X71247260Y-29893260D01*
X71247260Y-31193740D01*
X71291538Y-31429057D01*
X71333679Y-31494546D01*
X71298269Y-31546370D01*
X71247260Y-31798260D01*
X71247260Y-33098740D01*
X71291538Y-33334057D01*
X71430610Y-33550181D01*
X71642810Y-33695171D01*
X71809000Y-33728825D01*
X71809000Y-33782000D01*
X71872561Y-34101541D01*
X72004792Y-34299439D01*
X72053566Y-34372434D01*
X73037177Y-35356045D01*
X73037022Y-35534154D01*
X66113000Y-28610132D01*
X66113000Y-24638000D01*
X66049439Y-24318459D01*
X65868434Y-24047566D01*
X64376823Y-22555955D01*
X64377240Y-22077715D01*
X64166831Y-21568485D01*
X63777564Y-21178539D01*
X63268702Y-20967241D01*
X62717715Y-20966760D01*
X62208485Y-21177169D01*
X61818539Y-21566436D01*
X61607241Y-22075298D01*
X61606760Y-22626285D01*
X61817169Y-23135515D01*
X62206436Y-23525461D01*
X62715298Y-23736759D01*
X63196311Y-23737179D01*
X64443000Y-24983868D01*
X64443000Y-28956000D01*
X64506561Y-29275541D01*
X64652390Y-29493789D01*
X64687566Y-29546434D01*
X73577566Y-38436434D01*
X73848460Y-38617440D01*
X74168000Y-38681000D01*
X77124132Y-38681000D01*
X80880190Y-42437058D01*
X80837541Y-42408561D01*
X80518000Y-42345000D01*
X78847436Y-42345000D01*
X78509564Y-42006539D01*
X78000702Y-41795241D01*
X77449715Y-41794760D01*
X76940485Y-42005169D01*
X76550539Y-42394436D01*
X76339241Y-42903298D01*
X76338760Y-43454285D01*
X76549169Y-43963515D01*
X76938436Y-44353461D01*
X77447298Y-44564759D01*
X77998285Y-44565240D01*
X78507515Y-44354831D01*
X78847939Y-44015000D01*
X80172132Y-44015000D01*
X82129452Y-45972320D01*
X81927241Y-46459298D01*
X81926760Y-47010285D01*
X82137169Y-47519515D01*
X82526436Y-47909461D01*
X83035298Y-48120759D01*
X83586285Y-48121240D01*
X83747000Y-48054834D01*
X83747000Y-53756132D01*
X83029632Y-54473500D01*
X82895975Y-54473500D01*
X82886462Y-54422943D01*
X82844622Y-54357922D01*
X82918300Y-54180049D01*
X82918300Y-53689250D01*
X82759550Y-53530500D01*
X81661000Y-53530500D01*
X81661000Y-53550500D01*
X81407000Y-53550500D01*
X81407000Y-53530500D01*
X80308450Y-53530500D01*
X80149700Y-53689250D01*
X80149700Y-54180049D01*
X80222621Y-54356095D01*
X80188269Y-54406370D01*
X80137260Y-54658260D01*
X80137260Y-55958740D01*
X80181538Y-56194057D01*
X80320610Y-56410181D01*
X80532810Y-56555171D01*
X80699000Y-56588825D01*
X80699000Y-56677820D01*
X79514700Y-56677820D01*
X79279383Y-56722098D01*
X79063259Y-56861170D01*
X79002564Y-56950000D01*
X78596868Y-56950000D01*
X79330434Y-56216434D01*
X79838434Y-55708435D01*
X79970194Y-55511241D01*
X80019439Y-55437541D01*
X80083000Y-55118000D01*
X80083000Y-52626951D01*
X80149700Y-52626951D01*
X80149700Y-53117750D01*
X80308450Y-53276500D01*
X81407000Y-53276500D01*
X81407000Y-52277010D01*
X81661000Y-52277010D01*
X81661000Y-53276500D01*
X82759550Y-53276500D01*
X82918300Y-53117750D01*
X82918300Y-52626951D01*
X82821627Y-52393562D01*
X82642999Y-52214933D01*
X82409610Y-52118260D01*
X81819750Y-52118260D01*
X81661000Y-52277010D01*
X81407000Y-52277010D01*
X81248250Y-52118260D01*
X80658390Y-52118260D01*
X80425001Y-52214933D01*
X80246373Y-52393562D01*
X80149700Y-52626951D01*
X80083000Y-52626951D01*
X80083000Y-47244000D01*
X80019439Y-46924459D01*
X79838434Y-46653566D01*
X78314434Y-45129566D01*
X78234228Y-45075974D01*
X78043541Y-44948561D01*
X77724000Y-44885000D01*
X75511000Y-44885000D01*
X75511000Y-41656000D01*
X75447439Y-41336459D01*
X75266434Y-41065566D01*
X68916434Y-34715566D01*
X68798850Y-34636999D01*
X68645541Y-34534561D01*
X68326000Y-34471000D01*
X59105826Y-34471000D01*
X59133740Y-34403610D01*
X59133740Y-33813750D01*
X58974990Y-33655000D01*
X57975500Y-33655000D01*
X57975500Y-33675000D01*
X57721500Y-33675000D01*
X57721500Y-33655000D01*
X57701500Y-33655000D01*
X57701500Y-33401000D01*
X57721500Y-33401000D01*
X57721500Y-32302450D01*
X57975500Y-32302450D01*
X57975500Y-33401000D01*
X58974990Y-33401000D01*
X59133740Y-33242250D01*
X59133740Y-32652390D01*
X59037067Y-32419001D01*
X58858438Y-32240373D01*
X58625049Y-32143700D01*
X58134250Y-32143700D01*
X57975500Y-32302450D01*
X57721500Y-32302450D01*
X57562750Y-32143700D01*
X57071951Y-32143700D01*
X56895905Y-32216621D01*
X56845630Y-32182269D01*
X56593740Y-32131260D01*
X55293260Y-32131260D01*
X55057943Y-32175538D01*
X54841819Y-32314610D01*
X54696829Y-32526810D01*
X54663175Y-32693000D01*
X52035466Y-32693000D01*
X51896550Y-32477119D01*
X51684350Y-32332129D01*
X51432460Y-32281120D01*
X50233580Y-32281120D01*
X49998263Y-32325398D01*
X49782139Y-32464470D01*
X49781457Y-32465467D01*
X49586310Y-32332129D01*
X49334420Y-32281120D01*
X48135540Y-32281120D01*
X47900223Y-32325398D01*
X47684099Y-32464470D01*
X47539109Y-32676670D01*
X47535802Y-32693000D01*
X45212000Y-32693000D01*
X44892459Y-32756561D01*
X44621566Y-32937566D01*
X42326132Y-35233000D01*
X35905868Y-35233000D01*
X35281027Y-34608159D01*
X36465446Y-34608159D01*
X36551852Y-34864643D01*
X37125336Y-35074458D01*
X37735460Y-35048839D01*
X38180148Y-34864643D01*
X38266554Y-34608159D01*
X37366000Y-33707605D01*
X36465446Y-34608159D01*
X35281027Y-34608159D01*
X33960204Y-33287336D01*
X35819542Y-33287336D01*
X35845161Y-33897460D01*
X36029357Y-34342148D01*
X36285841Y-34428554D01*
X37186395Y-33528000D01*
X37545605Y-33528000D01*
X38446159Y-34428554D01*
X38702643Y-34342148D01*
X38912458Y-33768664D01*
X38886839Y-33158540D01*
X38702643Y-32713852D01*
X38446159Y-32627446D01*
X37545605Y-33528000D01*
X37186395Y-33528000D01*
X36285841Y-32627446D01*
X36029357Y-32713852D01*
X35819542Y-33287336D01*
X33960204Y-33287336D01*
X33737434Y-33064566D01*
X33656610Y-33010561D01*
X33466541Y-32883561D01*
X33147000Y-32820000D01*
X32226446Y-32820000D01*
X32198162Y-32669683D01*
X32059090Y-32453559D01*
X32050722Y-32447841D01*
X36465446Y-32447841D01*
X37366000Y-33348395D01*
X38266554Y-32447841D01*
X38180148Y-32191357D01*
X37606664Y-31981542D01*
X36996540Y-32007161D01*
X36551852Y-32191357D01*
X36465446Y-32447841D01*
X32050722Y-32447841D01*
X31846890Y-32308569D01*
X31680000Y-32274773D01*
X31680000Y-31353000D01*
X31616439Y-31033459D01*
X31435434Y-30762566D01*
X29675858Y-29002990D01*
X32960310Y-29002990D01*
X32960310Y-29493789D01*
X33056983Y-29727178D01*
X33235611Y-29905807D01*
X33469000Y-30002480D01*
X34209990Y-30002480D01*
X34368740Y-29843730D01*
X34368740Y-28844240D01*
X34622740Y-28844240D01*
X34622740Y-29843730D01*
X34781490Y-30002480D01*
X35522480Y-30002480D01*
X35755869Y-29905807D01*
X35934497Y-29727178D01*
X36031170Y-29493789D01*
X36031170Y-29002990D01*
X35872420Y-28844240D01*
X34622740Y-28844240D01*
X34368740Y-28844240D01*
X33119060Y-28844240D01*
X32960310Y-29002990D01*
X29675858Y-29002990D01*
X29598294Y-28925426D01*
X29632007Y-28919082D01*
X29848131Y-28780010D01*
X29993121Y-28567810D01*
X30044130Y-28315920D01*
X30044130Y-24516080D01*
X29999852Y-24280763D01*
X29860780Y-24064639D01*
X29648580Y-23919649D01*
X29396690Y-23868640D01*
X27946611Y-23868640D01*
X31290260Y-21634485D01*
X31290260Y-22211610D01*
X31386933Y-22444999D01*
X31565562Y-22623627D01*
X31798951Y-22720300D01*
X32289750Y-22720300D01*
X32448500Y-22561550D01*
X32448500Y-21463000D01*
X32428500Y-21463000D01*
X32428500Y-21209000D01*
X32448500Y-21209000D01*
X32448500Y-21189000D01*
X32702500Y-21189000D01*
X32702500Y-21209000D01*
X32722500Y-21209000D01*
X32722500Y-21463000D01*
X32702500Y-21463000D01*
X32702500Y-22561550D01*
X32861250Y-22720300D01*
X33352049Y-22720300D01*
X33528095Y-22647379D01*
X33578370Y-22681731D01*
X33645500Y-22695325D01*
X33645500Y-22817080D01*
X33595310Y-22817080D01*
X33359993Y-22861358D01*
X33143869Y-23000430D01*
X32998879Y-23212630D01*
X32947870Y-23464520D01*
X32947870Y-24765000D01*
X32992148Y-25000317D01*
X33093484Y-25157798D01*
X32788702Y-25031241D01*
X32237715Y-25030760D01*
X31728485Y-25241169D01*
X31338539Y-25630436D01*
X31127241Y-26139298D01*
X31126760Y-26690285D01*
X31337169Y-27199515D01*
X31726436Y-27589461D01*
X32235298Y-27800759D01*
X32786285Y-27801240D01*
X33087507Y-27676778D01*
X33056983Y-27707302D01*
X32960310Y-27940691D01*
X32960310Y-28431490D01*
X33119060Y-28590240D01*
X34368740Y-28590240D01*
X34368740Y-28570240D01*
X34622740Y-28570240D01*
X34622740Y-28590240D01*
X35872420Y-28590240D01*
X36031170Y-28431490D01*
X36031170Y-27940691D01*
X35934497Y-27707302D01*
X35792797Y-27565602D01*
X35847611Y-27530330D01*
X35922729Y-27420391D01*
X35972915Y-27495500D01*
X35985566Y-27514434D01*
X36927906Y-28456774D01*
X37198799Y-28637779D01*
X37286892Y-28655302D01*
X37305068Y-28751897D01*
X37444140Y-28968021D01*
X37656340Y-29113011D01*
X37773000Y-29136635D01*
X37773000Y-29972000D01*
X37836561Y-30291541D01*
X37987876Y-30518000D01*
X38017566Y-30562434D01*
X39578133Y-32123001D01*
X39514559Y-32163910D01*
X39369569Y-32376110D01*
X39318560Y-32628000D01*
X39318560Y-34428000D01*
X39362838Y-34663317D01*
X39501910Y-34879441D01*
X39714110Y-35024431D01*
X39966000Y-35075440D01*
X41766000Y-35075440D01*
X42001317Y-35031162D01*
X42217441Y-34892090D01*
X42362431Y-34679890D01*
X42413440Y-34428000D01*
X42413440Y-32628000D01*
X42369162Y-32392683D01*
X42230090Y-32176559D01*
X42017890Y-32031569D01*
X41766000Y-31980560D01*
X41651383Y-31980560D01*
X41637439Y-31910459D01*
X41456434Y-31639566D01*
X39443000Y-29626132D01*
X39443000Y-29138575D01*
X39543087Y-29119742D01*
X39759211Y-28980670D01*
X39904201Y-28768470D01*
X39955210Y-28516580D01*
X39955210Y-27420078D01*
X41065566Y-28530434D01*
X41336459Y-28711439D01*
X41656000Y-28775000D01*
X44704000Y-28775000D01*
X45023541Y-28711439D01*
X45294434Y-28530434D01*
X46862510Y-26962358D01*
X47054373Y-27154557D01*
X47507917Y-27342885D01*
X47999008Y-27343314D01*
X48452881Y-27155777D01*
X48769518Y-26839693D01*
X49083833Y-27154557D01*
X49537377Y-27342885D01*
X50028468Y-27343314D01*
X50482341Y-27155777D01*
X50798978Y-26839693D01*
X51113293Y-27154557D01*
X51566837Y-27342885D01*
X52057928Y-27343314D01*
X52511801Y-27155777D01*
X52828438Y-26839693D01*
X53142753Y-27154557D01*
X53596297Y-27342885D01*
X54087388Y-27343314D01*
X54541261Y-27155777D01*
X54888817Y-26808827D01*
X55077145Y-26355283D01*
X55077574Y-25864192D01*
X54890037Y-25410319D01*
X54543087Y-25062763D01*
X54089543Y-24874435D01*
X53939296Y-24874304D01*
X54063685Y-24574743D01*
X54064114Y-24083652D01*
X53876577Y-23629779D01*
X53529627Y-23282223D01*
X53076083Y-23093895D01*
X52584992Y-23093466D01*
X52131119Y-23281003D01*
X51814482Y-23597087D01*
X51500167Y-23282223D01*
X51046623Y-23093895D01*
X50555532Y-23093466D01*
X50101659Y-23281003D01*
X49785022Y-23597087D01*
X49470707Y-23282223D01*
X49017163Y-23093895D01*
X48526072Y-23093466D01*
X48072199Y-23281003D01*
X47724643Y-23627953D01*
X47707882Y-23668317D01*
X47603409Y-23645396D01*
X46920685Y-24328120D01*
X46934828Y-24342263D01*
X46755223Y-24521868D01*
X46741080Y-24507725D01*
X46058356Y-25190449D01*
X46106569Y-25410206D01*
X45969121Y-25502046D01*
X45944906Y-25518226D01*
X44358132Y-27105000D01*
X42001868Y-27105000D01*
X41998517Y-27101649D01*
X42544861Y-27102126D01*
X43237811Y-26815806D01*
X43768442Y-26286099D01*
X44055972Y-25593651D01*
X44056626Y-24843879D01*
X43773762Y-24159291D01*
X45493831Y-24159291D01*
X45524164Y-24649444D01*
X45653380Y-24961399D01*
X45878751Y-25010844D01*
X46561475Y-24328120D01*
X45878751Y-23645396D01*
X45653380Y-23694841D01*
X45493831Y-24159291D01*
X43773762Y-24159291D01*
X43770306Y-24150929D01*
X43668029Y-24048473D01*
X44399848Y-24049112D01*
X45231014Y-23705681D01*
X45471323Y-23465791D01*
X46058356Y-23465791D01*
X46741080Y-24148515D01*
X47423804Y-23465791D01*
X47374359Y-23240420D01*
X46909909Y-23080871D01*
X46419756Y-23111204D01*
X46107801Y-23240420D01*
X46058356Y-23465791D01*
X45471323Y-23465791D01*
X45867486Y-23070319D01*
X46212367Y-22239754D01*
X46212370Y-22235808D01*
X54370848Y-22235808D01*
X54714279Y-23066974D01*
X55349641Y-23703446D01*
X56180206Y-24048327D01*
X56914904Y-24048968D01*
X56815558Y-24148141D01*
X56528028Y-24840589D01*
X56527374Y-25590361D01*
X56813694Y-26283311D01*
X57343401Y-26813942D01*
X58035849Y-27101472D01*
X58785621Y-27102126D01*
X59478571Y-26815806D01*
X60009202Y-26286099D01*
X60296732Y-25593651D01*
X60297386Y-24843879D01*
X60011066Y-24150929D01*
X59481359Y-23620298D01*
X58788911Y-23332768D01*
X58284699Y-23332328D01*
X58547166Y-23070319D01*
X58892047Y-22239754D01*
X58892832Y-21340432D01*
X58549401Y-20509266D01*
X57914039Y-19872794D01*
X57083474Y-19527913D01*
X56184152Y-19527128D01*
X55352986Y-19870559D01*
X54716514Y-20505921D01*
X54371633Y-21336486D01*
X54370848Y-22235808D01*
X46212370Y-22235808D01*
X46213152Y-21340432D01*
X45869721Y-20509266D01*
X45234359Y-19872794D01*
X44403794Y-19527913D01*
X43504472Y-19527128D01*
X42673306Y-19870559D01*
X42036834Y-20505921D01*
X41983000Y-20635568D01*
X41983000Y-18796000D01*
X41919439Y-18476459D01*
X41738434Y-18205566D01*
X41357434Y-17824566D01*
X41086541Y-17643561D01*
X40767000Y-17580000D01*
X40595073Y-17580000D01*
X40557362Y-17379583D01*
X40473695Y-17249561D01*
X50000000Y-15354661D01*
X63258197Y-17991880D01*
X63258197Y-17991880D01*
G37*
X63258197Y-17991880D02*
X72659671Y-24273744D01*
X72066306Y-24273226D01*
X71465345Y-24521538D01*
X71119801Y-24866480D01*
X70777073Y-24523154D01*
X70176547Y-24273794D01*
X69526306Y-24273226D01*
X68925345Y-24521538D01*
X68465154Y-24980927D01*
X68215794Y-25581453D01*
X68215226Y-26231694D01*
X68463538Y-26832655D01*
X68922927Y-27292846D01*
X69523453Y-27542206D01*
X70173694Y-27542774D01*
X70774655Y-27294462D01*
X71120199Y-26949520D01*
X71462927Y-27292846D01*
X71809000Y-27436548D01*
X71809000Y-29261946D01*
X71659383Y-29290098D01*
X71443259Y-29429170D01*
X71298269Y-29641370D01*
X71247260Y-29893260D01*
X71247260Y-31193740D01*
X71291538Y-31429057D01*
X71333679Y-31494546D01*
X71298269Y-31546370D01*
X71247260Y-31798260D01*
X71247260Y-33098740D01*
X71291538Y-33334057D01*
X71430610Y-33550181D01*
X71642810Y-33695171D01*
X71809000Y-33728825D01*
X71809000Y-33782000D01*
X71872561Y-34101541D01*
X72004792Y-34299439D01*
X72053566Y-34372434D01*
X73037177Y-35356045D01*
X73037022Y-35534154D01*
X66113000Y-28610132D01*
X66113000Y-24638000D01*
X66049439Y-24318459D01*
X65868434Y-24047566D01*
X64376823Y-22555955D01*
X64377240Y-22077715D01*
X64166831Y-21568485D01*
X63777564Y-21178539D01*
X63268702Y-20967241D01*
X62717715Y-20966760D01*
X62208485Y-21177169D01*
X61818539Y-21566436D01*
X61607241Y-22075298D01*
X61606760Y-22626285D01*
X61817169Y-23135515D01*
X62206436Y-23525461D01*
X62715298Y-23736759D01*
X63196311Y-23737179D01*
X64443000Y-24983868D01*
X64443000Y-28956000D01*
X64506561Y-29275541D01*
X64652390Y-29493789D01*
X64687566Y-29546434D01*
X73577566Y-38436434D01*
X73848460Y-38617440D01*
X74168000Y-38681000D01*
X77124132Y-38681000D01*
X80880190Y-42437058D01*
X80837541Y-42408561D01*
X80518000Y-42345000D01*
X78847436Y-42345000D01*
X78509564Y-42006539D01*
X78000702Y-41795241D01*
X77449715Y-41794760D01*
X76940485Y-42005169D01*
X76550539Y-42394436D01*
X76339241Y-42903298D01*
X76338760Y-43454285D01*
X76549169Y-43963515D01*
X76938436Y-44353461D01*
X77447298Y-44564759D01*
X77998285Y-44565240D01*
X78507515Y-44354831D01*
X78847939Y-44015000D01*
X80172132Y-44015000D01*
X82129452Y-45972320D01*
X81927241Y-46459298D01*
X81926760Y-47010285D01*
X82137169Y-47519515D01*
X82526436Y-47909461D01*
X83035298Y-48120759D01*
X83586285Y-48121240D01*
X83747000Y-48054834D01*
X83747000Y-53756132D01*
X83029632Y-54473500D01*
X82895975Y-54473500D01*
X82886462Y-54422943D01*
X82844622Y-54357922D01*
X82918300Y-54180049D01*
X82918300Y-53689250D01*
X82759550Y-53530500D01*
X81661000Y-53530500D01*
X81661000Y-53550500D01*
X81407000Y-53550500D01*
X81407000Y-53530500D01*
X80308450Y-53530500D01*
X80149700Y-53689250D01*
X80149700Y-54180049D01*
X80222621Y-54356095D01*
X80188269Y-54406370D01*
X80137260Y-54658260D01*
X80137260Y-55958740D01*
X80181538Y-56194057D01*
X80320610Y-56410181D01*
X80532810Y-56555171D01*
X80699000Y-56588825D01*
X80699000Y-56677820D01*
X79514700Y-56677820D01*
X79279383Y-56722098D01*
X79063259Y-56861170D01*
X79002564Y-56950000D01*
X78596868Y-56950000D01*
X79330434Y-56216434D01*
X79838434Y-55708435D01*
X79970194Y-55511241D01*
X80019439Y-55437541D01*
X80083000Y-55118000D01*
X80083000Y-52626951D01*
X80149700Y-52626951D01*
X80149700Y-53117750D01*
X80308450Y-53276500D01*
X81407000Y-53276500D01*
X81407000Y-52277010D01*
X81661000Y-52277010D01*
X81661000Y-53276500D01*
X82759550Y-53276500D01*
X82918300Y-53117750D01*
X82918300Y-52626951D01*
X82821627Y-52393562D01*
X82642999Y-52214933D01*
X82409610Y-52118260D01*
X81819750Y-52118260D01*
X81661000Y-52277010D01*
X81407000Y-52277010D01*
X81248250Y-52118260D01*
X80658390Y-52118260D01*
X80425001Y-52214933D01*
X80246373Y-52393562D01*
X80149700Y-52626951D01*
X80083000Y-52626951D01*
X80083000Y-47244000D01*
X80019439Y-46924459D01*
X79838434Y-46653566D01*
X78314434Y-45129566D01*
X78234228Y-45075974D01*
X78043541Y-44948561D01*
X77724000Y-44885000D01*
X75511000Y-44885000D01*
X75511000Y-41656000D01*
X75447439Y-41336459D01*
X75266434Y-41065566D01*
X68916434Y-34715566D01*
X68798850Y-34636999D01*
X68645541Y-34534561D01*
X68326000Y-34471000D01*
X59105826Y-34471000D01*
X59133740Y-34403610D01*
X59133740Y-33813750D01*
X58974990Y-33655000D01*
X57975500Y-33655000D01*
X57975500Y-33675000D01*
X57721500Y-33675000D01*
X57721500Y-33655000D01*
X57701500Y-33655000D01*
X57701500Y-33401000D01*
X57721500Y-33401000D01*
X57721500Y-32302450D01*
X57975500Y-32302450D01*
X57975500Y-33401000D01*
X58974990Y-33401000D01*
X59133740Y-33242250D01*
X59133740Y-32652390D01*
X59037067Y-32419001D01*
X58858438Y-32240373D01*
X58625049Y-32143700D01*
X58134250Y-32143700D01*
X57975500Y-32302450D01*
X57721500Y-32302450D01*
X57562750Y-32143700D01*
X57071951Y-32143700D01*
X56895905Y-32216621D01*
X56845630Y-32182269D01*
X56593740Y-32131260D01*
X55293260Y-32131260D01*
X55057943Y-32175538D01*
X54841819Y-32314610D01*
X54696829Y-32526810D01*
X54663175Y-32693000D01*
X52035466Y-32693000D01*
X51896550Y-32477119D01*
X51684350Y-32332129D01*
X51432460Y-32281120D01*
X50233580Y-32281120D01*
X49998263Y-32325398D01*
X49782139Y-32464470D01*
X49781457Y-32465467D01*
X49586310Y-32332129D01*
X49334420Y-32281120D01*
X48135540Y-32281120D01*
X47900223Y-32325398D01*
X47684099Y-32464470D01*
X47539109Y-32676670D01*
X47535802Y-32693000D01*
X45212000Y-32693000D01*
X44892459Y-32756561D01*
X44621566Y-32937566D01*
X42326132Y-35233000D01*
X35905868Y-35233000D01*
X35281027Y-34608159D01*
X36465446Y-34608159D01*
X36551852Y-34864643D01*
X37125336Y-35074458D01*
X37735460Y-35048839D01*
X38180148Y-34864643D01*
X38266554Y-34608159D01*
X37366000Y-33707605D01*
X36465446Y-34608159D01*
X35281027Y-34608159D01*
X33960204Y-33287336D01*
X35819542Y-33287336D01*
X35845161Y-33897460D01*
X36029357Y-34342148D01*
X36285841Y-34428554D01*
X37186395Y-33528000D01*
X37545605Y-33528000D01*
X38446159Y-34428554D01*
X38702643Y-34342148D01*
X38912458Y-33768664D01*
X38886839Y-33158540D01*
X38702643Y-32713852D01*
X38446159Y-32627446D01*
X37545605Y-33528000D01*
X37186395Y-33528000D01*
X36285841Y-32627446D01*
X36029357Y-32713852D01*
X35819542Y-33287336D01*
X33960204Y-33287336D01*
X33737434Y-33064566D01*
X33656610Y-33010561D01*
X33466541Y-32883561D01*
X33147000Y-32820000D01*
X32226446Y-32820000D01*
X32198162Y-32669683D01*
X32059090Y-32453559D01*
X32050722Y-32447841D01*
X36465446Y-32447841D01*
X37366000Y-33348395D01*
X38266554Y-32447841D01*
X38180148Y-32191357D01*
X37606664Y-31981542D01*
X36996540Y-32007161D01*
X36551852Y-32191357D01*
X36465446Y-32447841D01*
X32050722Y-32447841D01*
X31846890Y-32308569D01*
X31680000Y-32274773D01*
X31680000Y-31353000D01*
X31616439Y-31033459D01*
X31435434Y-30762566D01*
X29675858Y-29002990D01*
X32960310Y-29002990D01*
X32960310Y-29493789D01*
X33056983Y-29727178D01*
X33235611Y-29905807D01*
X33469000Y-30002480D01*
X34209990Y-30002480D01*
X34368740Y-29843730D01*
X34368740Y-28844240D01*
X34622740Y-28844240D01*
X34622740Y-29843730D01*
X34781490Y-30002480D01*
X35522480Y-30002480D01*
X35755869Y-29905807D01*
X35934497Y-29727178D01*
X36031170Y-29493789D01*
X36031170Y-29002990D01*
X35872420Y-28844240D01*
X34622740Y-28844240D01*
X34368740Y-28844240D01*
X33119060Y-28844240D01*
X32960310Y-29002990D01*
X29675858Y-29002990D01*
X29598294Y-28925426D01*
X29632007Y-28919082D01*
X29848131Y-28780010D01*
X29993121Y-28567810D01*
X30044130Y-28315920D01*
X30044130Y-24516080D01*
X29999852Y-24280763D01*
X29860780Y-24064639D01*
X29648580Y-23919649D01*
X29396690Y-23868640D01*
X27946611Y-23868640D01*
X31290260Y-21634485D01*
X31290260Y-22211610D01*
X31386933Y-22444999D01*
X31565562Y-22623627D01*
X31798951Y-22720300D01*
X32289750Y-22720300D01*
X32448500Y-22561550D01*
X32448500Y-21463000D01*
X32428500Y-21463000D01*
X32428500Y-21209000D01*
X32448500Y-21209000D01*
X32448500Y-21189000D01*
X32702500Y-21189000D01*
X32702500Y-21209000D01*
X32722500Y-21209000D01*
X32722500Y-21463000D01*
X32702500Y-21463000D01*
X32702500Y-22561550D01*
X32861250Y-22720300D01*
X33352049Y-22720300D01*
X33528095Y-22647379D01*
X33578370Y-22681731D01*
X33645500Y-22695325D01*
X33645500Y-22817080D01*
X33595310Y-22817080D01*
X33359993Y-22861358D01*
X33143869Y-23000430D01*
X32998879Y-23212630D01*
X32947870Y-23464520D01*
X32947870Y-24765000D01*
X32992148Y-25000317D01*
X33093484Y-25157798D01*
X32788702Y-25031241D01*
X32237715Y-25030760D01*
X31728485Y-25241169D01*
X31338539Y-25630436D01*
X31127241Y-26139298D01*
X31126760Y-26690285D01*
X31337169Y-27199515D01*
X31726436Y-27589461D01*
X32235298Y-27800759D01*
X32786285Y-27801240D01*
X33087507Y-27676778D01*
X33056983Y-27707302D01*
X32960310Y-27940691D01*
X32960310Y-28431490D01*
X33119060Y-28590240D01*
X34368740Y-28590240D01*
X34368740Y-28570240D01*
X34622740Y-28570240D01*
X34622740Y-28590240D01*
X35872420Y-28590240D01*
X36031170Y-28431490D01*
X36031170Y-27940691D01*
X35934497Y-27707302D01*
X35792797Y-27565602D01*
X35847611Y-27530330D01*
X35922729Y-27420391D01*
X35972915Y-27495500D01*
X35985566Y-27514434D01*
X36927906Y-28456774D01*
X37198799Y-28637779D01*
X37286892Y-28655302D01*
X37305068Y-28751897D01*
X37444140Y-28968021D01*
X37656340Y-29113011D01*
X37773000Y-29136635D01*
X37773000Y-29972000D01*
X37836561Y-30291541D01*
X37987876Y-30518000D01*
X38017566Y-30562434D01*
X39578133Y-32123001D01*
X39514559Y-32163910D01*
X39369569Y-32376110D01*
X39318560Y-32628000D01*
X39318560Y-34428000D01*
X39362838Y-34663317D01*
X39501910Y-34879441D01*
X39714110Y-35024431D01*
X39966000Y-35075440D01*
X41766000Y-35075440D01*
X42001317Y-35031162D01*
X42217441Y-34892090D01*
X42362431Y-34679890D01*
X42413440Y-34428000D01*
X42413440Y-32628000D01*
X42369162Y-32392683D01*
X42230090Y-32176559D01*
X42017890Y-32031569D01*
X41766000Y-31980560D01*
X41651383Y-31980560D01*
X41637439Y-31910459D01*
X41456434Y-31639566D01*
X39443000Y-29626132D01*
X39443000Y-29138575D01*
X39543087Y-29119742D01*
X39759211Y-28980670D01*
X39904201Y-28768470D01*
X39955210Y-28516580D01*
X39955210Y-27420078D01*
X41065566Y-28530434D01*
X41336459Y-28711439D01*
X41656000Y-28775000D01*
X44704000Y-28775000D01*
X45023541Y-28711439D01*
X45294434Y-28530434D01*
X46862510Y-26962358D01*
X47054373Y-27154557D01*
X47507917Y-27342885D01*
X47999008Y-27343314D01*
X48452881Y-27155777D01*
X48769518Y-26839693D01*
X49083833Y-27154557D01*
X49537377Y-27342885D01*
X50028468Y-27343314D01*
X50482341Y-27155777D01*
X50798978Y-26839693D01*
X51113293Y-27154557D01*
X51566837Y-27342885D01*
X52057928Y-27343314D01*
X52511801Y-27155777D01*
X52828438Y-26839693D01*
X53142753Y-27154557D01*
X53596297Y-27342885D01*
X54087388Y-27343314D01*
X54541261Y-27155777D01*
X54888817Y-26808827D01*
X55077145Y-26355283D01*
X55077574Y-25864192D01*
X54890037Y-25410319D01*
X54543087Y-25062763D01*
X54089543Y-24874435D01*
X53939296Y-24874304D01*
X54063685Y-24574743D01*
X54064114Y-24083652D01*
X53876577Y-23629779D01*
X53529627Y-23282223D01*
X53076083Y-23093895D01*
X52584992Y-23093466D01*
X52131119Y-23281003D01*
X51814482Y-23597087D01*
X51500167Y-23282223D01*
X51046623Y-23093895D01*
X50555532Y-23093466D01*
X50101659Y-23281003D01*
X49785022Y-23597087D01*
X49470707Y-23282223D01*
X49017163Y-23093895D01*
X48526072Y-23093466D01*
X48072199Y-23281003D01*
X47724643Y-23627953D01*
X47707882Y-23668317D01*
X47603409Y-23645396D01*
X46920685Y-24328120D01*
X46934828Y-24342263D01*
X46755223Y-24521868D01*
X46741080Y-24507725D01*
X46058356Y-25190449D01*
X46106569Y-25410206D01*
X45969121Y-25502046D01*
X45944906Y-25518226D01*
X44358132Y-27105000D01*
X42001868Y-27105000D01*
X41998517Y-27101649D01*
X42544861Y-27102126D01*
X43237811Y-26815806D01*
X43768442Y-26286099D01*
X44055972Y-25593651D01*
X44056626Y-24843879D01*
X43773762Y-24159291D01*
X45493831Y-24159291D01*
X45524164Y-24649444D01*
X45653380Y-24961399D01*
X45878751Y-25010844D01*
X46561475Y-24328120D01*
X45878751Y-23645396D01*
X45653380Y-23694841D01*
X45493831Y-24159291D01*
X43773762Y-24159291D01*
X43770306Y-24150929D01*
X43668029Y-24048473D01*
X44399848Y-24049112D01*
X45231014Y-23705681D01*
X45471323Y-23465791D01*
X46058356Y-23465791D01*
X46741080Y-24148515D01*
X47423804Y-23465791D01*
X47374359Y-23240420D01*
X46909909Y-23080871D01*
X46419756Y-23111204D01*
X46107801Y-23240420D01*
X46058356Y-23465791D01*
X45471323Y-23465791D01*
X45867486Y-23070319D01*
X46212367Y-22239754D01*
X46212370Y-22235808D01*
X54370848Y-22235808D01*
X54714279Y-23066974D01*
X55349641Y-23703446D01*
X56180206Y-24048327D01*
X56914904Y-24048968D01*
X56815558Y-24148141D01*
X56528028Y-24840589D01*
X56527374Y-25590361D01*
X56813694Y-26283311D01*
X57343401Y-26813942D01*
X58035849Y-27101472D01*
X58785621Y-27102126D01*
X59478571Y-26815806D01*
X60009202Y-26286099D01*
X60296732Y-25593651D01*
X60297386Y-24843879D01*
X60011066Y-24150929D01*
X59481359Y-23620298D01*
X58788911Y-23332768D01*
X58284699Y-23332328D01*
X58547166Y-23070319D01*
X58892047Y-22239754D01*
X58892832Y-21340432D01*
X58549401Y-20509266D01*
X57914039Y-19872794D01*
X57083474Y-19527913D01*
X56184152Y-19527128D01*
X55352986Y-19870559D01*
X54716514Y-20505921D01*
X54371633Y-21336486D01*
X54370848Y-22235808D01*
X46212370Y-22235808D01*
X46213152Y-21340432D01*
X45869721Y-20509266D01*
X45234359Y-19872794D01*
X44403794Y-19527913D01*
X43504472Y-19527128D01*
X42673306Y-19870559D01*
X42036834Y-20505921D01*
X41983000Y-20635568D01*
X41983000Y-18796000D01*
X41919439Y-18476459D01*
X41738434Y-18205566D01*
X41357434Y-17824566D01*
X41086541Y-17643561D01*
X40767000Y-17580000D01*
X40595073Y-17580000D01*
X40557362Y-17379583D01*
X40473695Y-17249561D01*
X50000000Y-15354661D01*
X63258197Y-17991880D01*
G36*
X69676098Y-46704617D02*
X69815170Y-46920741D01*
X70027370Y-47065731D01*
X70279260Y-47116740D01*
X71579740Y-47116740D01*
X71815057Y-47072462D01*
X71880546Y-47030321D01*
X71932370Y-47065731D01*
X71999500Y-47079325D01*
X71999500Y-47215632D01*
X71482066Y-47733066D01*
X71301061Y-48003959D01*
X71237500Y-48323500D01*
X71237500Y-49501632D01*
X70739000Y-50000132D01*
X70739000Y-49911000D01*
X69469000Y-49911000D01*
X69469000Y-49931000D01*
X69215000Y-49931000D01*
X69215000Y-49911000D01*
X69195000Y-49911000D01*
X69195000Y-49657000D01*
X69215000Y-49657000D01*
X69215000Y-48214460D01*
X69469000Y-48214460D01*
X69469000Y-49657000D01*
X70739000Y-49657000D01*
X70739000Y-49319180D01*
X70584059Y-48794239D01*
X70240026Y-48368550D01*
X69759277Y-48106920D01*
X69685070Y-48091960D01*
X69469000Y-48214460D01*
X69215000Y-48214460D01*
X68998930Y-48091960D01*
X68924723Y-48106920D01*
X68443974Y-48368550D01*
X68207181Y-48661546D01*
X68167162Y-48448863D01*
X68028090Y-48232739D01*
X67815890Y-48087749D01*
X67564000Y-48036740D01*
X66040000Y-48036740D01*
X65804683Y-48081018D01*
X65588559Y-48220090D01*
X65443569Y-48432290D01*
X65392560Y-48684180D01*
X65392560Y-50883820D01*
X65436838Y-51119137D01*
X65575910Y-51335261D01*
X65788110Y-51480251D01*
X66040000Y-51531260D01*
X67564000Y-51531260D01*
X67799317Y-51486982D01*
X68015441Y-51347910D01*
X68160431Y-51135710D01*
X68206921Y-50906133D01*
X68443974Y-51199450D01*
X68924723Y-51461080D01*
X68998930Y-51476040D01*
X69214998Y-51353541D01*
X69214998Y-51518820D01*
X69259495Y-51518820D01*
X69215260Y-51737260D01*
X69215260Y-53037740D01*
X69259538Y-53273057D01*
X69301679Y-53338546D01*
X69266269Y-53390370D01*
X69215260Y-53642260D01*
X69215260Y-54048859D01*
X68857564Y-53690539D01*
X68348702Y-53479241D01*
X67797715Y-53478760D01*
X67288485Y-53689169D01*
X66948061Y-54029000D01*
X65786000Y-54029000D01*
X65466459Y-54092561D01*
X65265317Y-54226960D01*
X65195566Y-54273566D01*
X63957955Y-55511177D01*
X63755929Y-55511001D01*
X64852136Y-50000000D01*
X64288898Y-47168415D01*
X64747298Y-47358759D01*
X65298285Y-47359240D01*
X65807515Y-47148831D01*
X66197461Y-46759564D01*
X66265528Y-46595640D01*
X67233018Y-46595640D01*
X67308190Y-46712461D01*
X67520390Y-46857451D01*
X67772280Y-46908460D01*
X68371720Y-46908460D01*
X68607037Y-46864182D01*
X68823161Y-46725110D01*
X68939392Y-46555000D01*
X69647946Y-46555000D01*
X69676098Y-46704617D01*
X69676098Y-46704617D01*
G37*
X69676098Y-46704617D02*
X69815170Y-46920741D01*
X70027370Y-47065731D01*
X70279260Y-47116740D01*
X71579740Y-47116740D01*
X71815057Y-47072462D01*
X71880546Y-47030321D01*
X71932370Y-47065731D01*
X71999500Y-47079325D01*
X71999500Y-47215632D01*
X71482066Y-47733066D01*
X71301061Y-48003959D01*
X71237500Y-48323500D01*
X71237500Y-49501632D01*
X70739000Y-50000132D01*
X70739000Y-49911000D01*
X69469000Y-49911000D01*
X69469000Y-49931000D01*
X69215000Y-49931000D01*
X69215000Y-49911000D01*
X69195000Y-49911000D01*
X69195000Y-49657000D01*
X69215000Y-49657000D01*
X69215000Y-48214460D01*
X69469000Y-48214460D01*
X69469000Y-49657000D01*
X70739000Y-49657000D01*
X70739000Y-49319180D01*
X70584059Y-48794239D01*
X70240026Y-48368550D01*
X69759277Y-48106920D01*
X69685070Y-48091960D01*
X69469000Y-48214460D01*
X69215000Y-48214460D01*
X68998930Y-48091960D01*
X68924723Y-48106920D01*
X68443974Y-48368550D01*
X68207181Y-48661546D01*
X68167162Y-48448863D01*
X68028090Y-48232739D01*
X67815890Y-48087749D01*
X67564000Y-48036740D01*
X66040000Y-48036740D01*
X65804683Y-48081018D01*
X65588559Y-48220090D01*
X65443569Y-48432290D01*
X65392560Y-48684180D01*
X65392560Y-50883820D01*
X65436838Y-51119137D01*
X65575910Y-51335261D01*
X65788110Y-51480251D01*
X66040000Y-51531260D01*
X67564000Y-51531260D01*
X67799317Y-51486982D01*
X68015441Y-51347910D01*
X68160431Y-51135710D01*
X68206921Y-50906133D01*
X68443974Y-51199450D01*
X68924723Y-51461080D01*
X68998930Y-51476040D01*
X69214998Y-51353541D01*
X69214998Y-51518820D01*
X69259495Y-51518820D01*
X69215260Y-51737260D01*
X69215260Y-53037740D01*
X69259538Y-53273057D01*
X69301679Y-53338546D01*
X69266269Y-53390370D01*
X69215260Y-53642260D01*
X69215260Y-54048859D01*
X68857564Y-53690539D01*
X68348702Y-53479241D01*
X67797715Y-53478760D01*
X67288485Y-53689169D01*
X66948061Y-54029000D01*
X65786000Y-54029000D01*
X65466459Y-54092561D01*
X65265317Y-54226960D01*
X65195566Y-54273566D01*
X63957955Y-55511177D01*
X63755929Y-55511001D01*
X64852136Y-50000000D01*
X64288898Y-47168415D01*
X64747298Y-47358759D01*
X65298285Y-47359240D01*
X65807515Y-47148831D01*
X66197461Y-46759564D01*
X66265528Y-46595640D01*
X67233018Y-46595640D01*
X67308190Y-46712461D01*
X67520390Y-46857451D01*
X67772280Y-46908460D01*
X68371720Y-46908460D01*
X68607037Y-46864182D01*
X68823161Y-46725110D01*
X68939392Y-46555000D01*
X69647946Y-46555000D01*
X69676098Y-46704617D01*
G36*
X34725000Y-49113868D02*
X34725000Y-52477756D01*
X34703330Y-52468780D01*
X34362390Y-52468780D01*
X34203640Y-52627530D01*
X34203640Y-53276500D01*
X34223640Y-53276500D01*
X34223640Y-53530500D01*
X34203640Y-53530500D01*
X34203640Y-54179470D01*
X34362390Y-54338220D01*
X34703330Y-54338220D01*
X34725000Y-54329244D01*
X34725000Y-54391307D01*
X34577020Y-54361340D01*
X33576260Y-54361340D01*
X33340943Y-54405618D01*
X33235451Y-54473500D01*
X33111180Y-54473500D01*
X33111180Y-54136165D01*
X33216561Y-54241547D01*
X33449950Y-54338220D01*
X33790890Y-54338220D01*
X33949640Y-54179470D01*
X33949640Y-53530500D01*
X33100010Y-53530500D01*
X32966138Y-53664372D01*
X32927830Y-53604839D01*
X32716513Y-53460453D01*
X32553794Y-53216926D01*
X32314339Y-52977471D01*
X32941260Y-52977471D01*
X32941260Y-53117750D01*
X33100010Y-53276500D01*
X33949640Y-53276500D01*
X33949640Y-52627530D01*
X33790890Y-52468780D01*
X33449950Y-52468780D01*
X33216561Y-52565453D01*
X33037933Y-52744082D01*
X32941260Y-52977471D01*
X32314339Y-52977471D01*
X32086434Y-52749566D01*
X31903794Y-52627530D01*
X31815541Y-52568561D01*
X31496000Y-52505000D01*
X31190054Y-52505000D01*
X31161902Y-52355383D01*
X31022830Y-52139259D01*
X30810630Y-51994269D01*
X30743500Y-51980675D01*
X30743500Y-51531260D01*
X30988000Y-51531260D01*
X31223317Y-51486982D01*
X31439441Y-51347910D01*
X31584431Y-51135710D01*
X31630921Y-50906133D01*
X31867974Y-51199450D01*
X32348723Y-51461080D01*
X32422930Y-51476040D01*
X32639000Y-51353540D01*
X32639000Y-49911000D01*
X32893000Y-49911000D01*
X32893000Y-51353540D01*
X33109070Y-51476040D01*
X33183277Y-51461080D01*
X33664026Y-51199450D01*
X34008059Y-50773761D01*
X34163000Y-50248820D01*
X34163000Y-49911000D01*
X32893000Y-49911000D01*
X32639000Y-49911000D01*
X32619000Y-49911000D01*
X32619000Y-49657000D01*
X32639000Y-49657000D01*
X32639000Y-48214460D01*
X32893000Y-48214460D01*
X32893000Y-49657000D01*
X34163000Y-49657000D01*
X34163000Y-49319180D01*
X34008059Y-48794239D01*
X33664026Y-48368550D01*
X33183277Y-48106920D01*
X33109070Y-48091960D01*
X32893000Y-48214460D01*
X32639000Y-48214460D01*
X32422930Y-48091960D01*
X32348723Y-48106920D01*
X31867974Y-48368550D01*
X31631181Y-48661546D01*
X31591162Y-48448863D01*
X31452090Y-48232739D01*
X31239890Y-48087749D01*
X30988000Y-48036740D01*
X29464000Y-48036740D01*
X29228683Y-48081018D01*
X29012559Y-48220090D01*
X28867569Y-48432290D01*
X28838500Y-48575837D01*
X28838500Y-46047000D01*
X31658132Y-46047000D01*
X34725000Y-49113868D01*
X34725000Y-49113868D01*
G37*
X34725000Y-49113868D02*
X34725000Y-52477756D01*
X34703330Y-52468780D01*
X34362390Y-52468780D01*
X34203640Y-52627530D01*
X34203640Y-53276500D01*
X34223640Y-53276500D01*
X34223640Y-53530500D01*
X34203640Y-53530500D01*
X34203640Y-54179470D01*
X34362390Y-54338220D01*
X34703330Y-54338220D01*
X34725000Y-54329244D01*
X34725000Y-54391307D01*
X34577020Y-54361340D01*
X33576260Y-54361340D01*
X33340943Y-54405618D01*
X33235451Y-54473500D01*
X33111180Y-54473500D01*
X33111180Y-54136165D01*
X33216561Y-54241547D01*
X33449950Y-54338220D01*
X33790890Y-54338220D01*
X33949640Y-54179470D01*
X33949640Y-53530500D01*
X33100010Y-53530500D01*
X32966138Y-53664372D01*
X32927830Y-53604839D01*
X32716513Y-53460453D01*
X32553794Y-53216926D01*
X32314339Y-52977471D01*
X32941260Y-52977471D01*
X32941260Y-53117750D01*
X33100010Y-53276500D01*
X33949640Y-53276500D01*
X33949640Y-52627530D01*
X33790890Y-52468780D01*
X33449950Y-52468780D01*
X33216561Y-52565453D01*
X33037933Y-52744082D01*
X32941260Y-52977471D01*
X32314339Y-52977471D01*
X32086434Y-52749566D01*
X31903794Y-52627530D01*
X31815541Y-52568561D01*
X31496000Y-52505000D01*
X31190054Y-52505000D01*
X31161902Y-52355383D01*
X31022830Y-52139259D01*
X30810630Y-51994269D01*
X30743500Y-51980675D01*
X30743500Y-51531260D01*
X30988000Y-51531260D01*
X31223317Y-51486982D01*
X31439441Y-51347910D01*
X31584431Y-51135710D01*
X31630921Y-50906133D01*
X31867974Y-51199450D01*
X32348723Y-51461080D01*
X32422930Y-51476040D01*
X32639000Y-51353540D01*
X32639000Y-49911000D01*
X32893000Y-49911000D01*
X32893000Y-51353540D01*
X33109070Y-51476040D01*
X33183277Y-51461080D01*
X33664026Y-51199450D01*
X34008059Y-50773761D01*
X34163000Y-50248820D01*
X34163000Y-49911000D01*
X32893000Y-49911000D01*
X32639000Y-49911000D01*
X32619000Y-49911000D01*
X32619000Y-49657000D01*
X32639000Y-49657000D01*
X32639000Y-48214460D01*
X32893000Y-48214460D01*
X32893000Y-49657000D01*
X34163000Y-49657000D01*
X34163000Y-49319180D01*
X34008059Y-48794239D01*
X33664026Y-48368550D01*
X33183277Y-48106920D01*
X33109070Y-48091960D01*
X32893000Y-48214460D01*
X32639000Y-48214460D01*
X32422930Y-48091960D01*
X32348723Y-48106920D01*
X31867974Y-48368550D01*
X31631181Y-48661546D01*
X31591162Y-48448863D01*
X31452090Y-48232739D01*
X31239890Y-48087749D01*
X30988000Y-48036740D01*
X29464000Y-48036740D01*
X29228683Y-48081018D01*
X29012559Y-48220090D01*
X28867569Y-48432290D01*
X28838500Y-48575837D01*
X28838500Y-46047000D01*
X31658132Y-46047000D01*
X34725000Y-49113868D01*
G36*
X78413000Y-47589868D02*
X78413000Y-53396442D01*
X78000702Y-53225241D01*
X77449715Y-53224760D01*
X77036971Y-53395302D01*
X77002622Y-53341922D01*
X77076300Y-53164049D01*
X77076300Y-52673250D01*
X76917550Y-52514500D01*
X75819000Y-52514500D01*
X75819000Y-52534500D01*
X75565000Y-52534500D01*
X75565000Y-52514500D01*
X75545000Y-52514500D01*
X75545000Y-52260500D01*
X75565000Y-52260500D01*
X75565000Y-51261010D01*
X75819000Y-51261010D01*
X75819000Y-52260500D01*
X76917550Y-52260500D01*
X77076300Y-52101750D01*
X77076300Y-51610951D01*
X76979627Y-51377562D01*
X76800999Y-51198933D01*
X76567610Y-51102260D01*
X75977750Y-51102260D01*
X75819000Y-51261010D01*
X75565000Y-51261010D01*
X75406250Y-51102260D01*
X74816390Y-51102260D01*
X74583001Y-51198933D01*
X74416574Y-51365361D01*
X74365390Y-51285819D01*
X74153190Y-51140829D01*
X73987000Y-51107175D01*
X73987000Y-50637868D01*
X74472045Y-50152823D01*
X74950285Y-50153240D01*
X75459515Y-49942831D01*
X75849461Y-49553564D01*
X76060759Y-49044702D01*
X76061240Y-48493715D01*
X75850831Y-47984485D01*
X75461564Y-47594539D01*
X74952702Y-47383241D01*
X74401715Y-47382760D01*
X73892485Y-47593169D01*
X73606393Y-47878763D01*
X73669500Y-47561500D01*
X73669500Y-47081975D01*
X73720057Y-47072462D01*
X73936181Y-46933390D01*
X74081171Y-46721190D01*
X74114825Y-46555000D01*
X77378132Y-46555000D01*
X78413000Y-47589868D01*
X78413000Y-47589868D01*
G37*
X78413000Y-47589868D02*
X78413000Y-53396442D01*
X78000702Y-53225241D01*
X77449715Y-53224760D01*
X77036971Y-53395302D01*
X77002622Y-53341922D01*
X77076300Y-53164049D01*
X77076300Y-52673250D01*
X76917550Y-52514500D01*
X75819000Y-52514500D01*
X75819000Y-52534500D01*
X75565000Y-52534500D01*
X75565000Y-52514500D01*
X75545000Y-52514500D01*
X75545000Y-52260500D01*
X75565000Y-52260500D01*
X75565000Y-51261010D01*
X75819000Y-51261010D01*
X75819000Y-52260500D01*
X76917550Y-52260500D01*
X77076300Y-52101750D01*
X77076300Y-51610951D01*
X76979627Y-51377562D01*
X76800999Y-51198933D01*
X76567610Y-51102260D01*
X75977750Y-51102260D01*
X75819000Y-51261010D01*
X75565000Y-51261010D01*
X75406250Y-51102260D01*
X74816390Y-51102260D01*
X74583001Y-51198933D01*
X74416574Y-51365361D01*
X74365390Y-51285819D01*
X74153190Y-51140829D01*
X73987000Y-51107175D01*
X73987000Y-50637868D01*
X74472045Y-50152823D01*
X74950285Y-50153240D01*
X75459515Y-49942831D01*
X75849461Y-49553564D01*
X76060759Y-49044702D01*
X76061240Y-48493715D01*
X75850831Y-47984485D01*
X75461564Y-47594539D01*
X74952702Y-47383241D01*
X74401715Y-47382760D01*
X73892485Y-47593169D01*
X73606393Y-47878763D01*
X73669500Y-47561500D01*
X73669500Y-47081975D01*
X73720057Y-47072462D01*
X73936181Y-46933390D01*
X74081171Y-46721190D01*
X74114825Y-46555000D01*
X77378132Y-46555000D01*
X78413000Y-47589868D01*
G36*
X70587595Y-38748463D02*
X70082485Y-38957169D01*
X69692539Y-39346436D01*
X69481241Y-39855298D01*
X69480760Y-40406285D01*
X69691169Y-40915515D01*
X70080436Y-41305461D01*
X70589298Y-41516759D01*
X71140285Y-41517240D01*
X71630019Y-41314887D01*
X71999500Y-41684368D01*
X71999500Y-41818025D01*
X71948943Y-41827538D01*
X71883454Y-41869679D01*
X71831630Y-41834269D01*
X71579740Y-41783260D01*
X70279260Y-41783260D01*
X70043943Y-41827538D01*
X69827819Y-41966610D01*
X69682829Y-42178810D01*
X69631820Y-42430700D01*
X69631820Y-42588614D01*
X69576110Y-42550549D01*
X69324220Y-42499540D01*
X68724780Y-42499540D01*
X68489463Y-42543818D01*
X68273339Y-42682890D01*
X68128349Y-42895090D01*
X68077340Y-43146980D01*
X68077340Y-44147740D01*
X68121618Y-44383057D01*
X68260690Y-44599181D01*
X68280651Y-44612820D01*
X67852165Y-44612820D01*
X67957547Y-44507439D01*
X68054220Y-44274050D01*
X68054220Y-43933110D01*
X67895470Y-43774360D01*
X67246500Y-43774360D01*
X67246500Y-44623990D01*
X67380372Y-44757862D01*
X67320839Y-44796170D01*
X67232376Y-44925640D01*
X65934447Y-44925640D01*
X65809564Y-44800539D01*
X65300702Y-44589241D01*
X64749715Y-44588760D01*
X64240485Y-44799169D01*
X63887681Y-45151359D01*
X63721584Y-44316334D01*
X63465522Y-43933110D01*
X66184780Y-43933110D01*
X66184780Y-44274050D01*
X66281453Y-44507439D01*
X66460082Y-44686067D01*
X66693471Y-44782740D01*
X66833750Y-44782740D01*
X66992500Y-44623990D01*
X66992500Y-43774360D01*
X66343530Y-43774360D01*
X66184780Y-43933110D01*
X63465522Y-43933110D01*
X62855850Y-43020670D01*
X66184780Y-43020670D01*
X66184780Y-43361610D01*
X66343530Y-43520360D01*
X66992500Y-43520360D01*
X66992500Y-42670730D01*
X67246500Y-42670730D01*
X67246500Y-43520360D01*
X67895470Y-43520360D01*
X68054220Y-43361610D01*
X68054220Y-43020670D01*
X67957547Y-42787281D01*
X67778918Y-42608653D01*
X67545529Y-42511980D01*
X67405250Y-42511980D01*
X67246500Y-42670730D01*
X66992500Y-42670730D01*
X66833750Y-42511980D01*
X66693471Y-42511980D01*
X66460082Y-42608653D01*
X66281453Y-42787281D01*
X66184780Y-43020670D01*
X62855850Y-43020670D01*
X60502046Y-39497954D01*
X55683666Y-36278416D01*
X54992829Y-36141000D01*
X67980132Y-36141000D01*
X70587595Y-38748463D01*
X70587595Y-38748463D01*
G37*
X70587595Y-38748463D02*
X70082485Y-38957169D01*
X69692539Y-39346436D01*
X69481241Y-39855298D01*
X69480760Y-40406285D01*
X69691169Y-40915515D01*
X70080436Y-41305461D01*
X70589298Y-41516759D01*
X71140285Y-41517240D01*
X71630019Y-41314887D01*
X71999500Y-41684368D01*
X71999500Y-41818025D01*
X71948943Y-41827538D01*
X71883454Y-41869679D01*
X71831630Y-41834269D01*
X71579740Y-41783260D01*
X70279260Y-41783260D01*
X70043943Y-41827538D01*
X69827819Y-41966610D01*
X69682829Y-42178810D01*
X69631820Y-42430700D01*
X69631820Y-42588614D01*
X69576110Y-42550549D01*
X69324220Y-42499540D01*
X68724780Y-42499540D01*
X68489463Y-42543818D01*
X68273339Y-42682890D01*
X68128349Y-42895090D01*
X68077340Y-43146980D01*
X68077340Y-44147740D01*
X68121618Y-44383057D01*
X68260690Y-44599181D01*
X68280651Y-44612820D01*
X67852165Y-44612820D01*
X67957547Y-44507439D01*
X68054220Y-44274050D01*
X68054220Y-43933110D01*
X67895470Y-43774360D01*
X67246500Y-43774360D01*
X67246500Y-44623990D01*
X67380372Y-44757862D01*
X67320839Y-44796170D01*
X67232376Y-44925640D01*
X65934447Y-44925640D01*
X65809564Y-44800539D01*
X65300702Y-44589241D01*
X64749715Y-44588760D01*
X64240485Y-44799169D01*
X63887681Y-45151359D01*
X63721584Y-44316334D01*
X63465522Y-43933110D01*
X66184780Y-43933110D01*
X66184780Y-44274050D01*
X66281453Y-44507439D01*
X66460082Y-44686067D01*
X66693471Y-44782740D01*
X66833750Y-44782740D01*
X66992500Y-44623990D01*
X66992500Y-43774360D01*
X66343530Y-43774360D01*
X66184780Y-43933110D01*
X63465522Y-43933110D01*
X62855850Y-43020670D01*
X66184780Y-43020670D01*
X66184780Y-43361610D01*
X66343530Y-43520360D01*
X66992500Y-43520360D01*
X66992500Y-42670730D01*
X67246500Y-42670730D01*
X67246500Y-43520360D01*
X67895470Y-43520360D01*
X68054220Y-43361610D01*
X68054220Y-43020670D01*
X67957547Y-42787281D01*
X67778918Y-42608653D01*
X67545529Y-42511980D01*
X67405250Y-42511980D01*
X67246500Y-42670730D01*
X66992500Y-42670730D01*
X66833750Y-42511980D01*
X66693471Y-42511980D01*
X66460082Y-42608653D01*
X66281453Y-42787281D01*
X66184780Y-43020670D01*
X62855850Y-43020670D01*
X60502046Y-39497954D01*
X55683666Y-36278416D01*
X54992829Y-36141000D01*
X67980132Y-36141000D01*
X70587595Y-38748463D01*
M02*
