G04 #@! TF.FileFunction,Legend,Top*
%FSLAX46Y46*%
G04 Gerber Fmt 4.6, Leading zero omitted, Abs format (unit mm)*
G04 Created by KiCad (PCBNEW 4.0.6) date 02/02/18 10:13:17*
%MOMM*%
%LPD*%
G01*
G04 APERTURE LIST*
%ADD10C,0.100000*%
%ADD11C,0.127000*%
%ADD12C,0.304800*%
%ADD13C,0.300000*%
%ADD14C,0.299720*%
%ADD15C,0.149860*%
%ADD16C,0.254000*%
%ADD17C,0.381000*%
%ADD18C,0.150000*%
%ADD19C,0.203200*%
G04 APERTURE END LIST*
D10*
D11*
X37607240Y-27815540D02*
X39608760Y-27815540D01*
X39608760Y-27716480D02*
X37607240Y-27716480D01*
X37607240Y-27614880D02*
X39608760Y-27614880D01*
X39608760Y-27515820D02*
X37607240Y-27515820D01*
X39608760Y-27416760D02*
X37607240Y-27416760D01*
X39608760Y-27917140D02*
X39608760Y-24914860D01*
X39608760Y-24914860D02*
X37607240Y-24914860D01*
X37607240Y-24914860D02*
X37607240Y-27917140D01*
X37607240Y-27917140D02*
X39608760Y-27917140D01*
X44323000Y-67183000D02*
X43053000Y-67183000D01*
X44323000Y-65913000D02*
X43078400Y-65913000D01*
X44323000Y-65532000D02*
X44323000Y-67564000D01*
X44323000Y-67564000D02*
X43053000Y-67564000D01*
X43053000Y-67564000D02*
X43053000Y-65532000D01*
X43053000Y-65532000D02*
X44323000Y-65532000D01*
X34671000Y-67183000D02*
X35941000Y-67183000D01*
X34671000Y-68453000D02*
X35915600Y-68453000D01*
X34671000Y-68834000D02*
X34671000Y-66802000D01*
X34671000Y-66802000D02*
X35941000Y-66802000D01*
X35941000Y-66802000D02*
X35941000Y-68834000D01*
X35941000Y-68834000D02*
X34671000Y-68834000D01*
X54229000Y-81153000D02*
X55499000Y-81153000D01*
X54229000Y-82423000D02*
X55473600Y-82423000D01*
X54229000Y-82804000D02*
X54229000Y-80772000D01*
X54229000Y-80772000D02*
X55499000Y-80772000D01*
X55499000Y-80772000D02*
X55499000Y-82804000D01*
X55499000Y-82804000D02*
X54229000Y-82804000D01*
X47371000Y-66675000D02*
X46101000Y-66675000D01*
X47371000Y-65405000D02*
X46126400Y-65405000D01*
X47371000Y-65024000D02*
X47371000Y-67056000D01*
X47371000Y-67056000D02*
X46101000Y-67056000D01*
X46101000Y-67056000D02*
X46101000Y-65024000D01*
X46101000Y-65024000D02*
X47371000Y-65024000D01*
X35941000Y-75819000D02*
X34671000Y-75819000D01*
X35941000Y-74549000D02*
X34696400Y-74549000D01*
X35941000Y-74168000D02*
X35941000Y-76200000D01*
X35941000Y-76200000D02*
X34671000Y-76200000D01*
X34671000Y-76200000D02*
X34671000Y-74168000D01*
X34671000Y-74168000D02*
X35941000Y-74168000D01*
D12*
X35616000Y-35928000D02*
X35616000Y-31128000D01*
X43416000Y-33528000D02*
G75*
G03X43416000Y-33528000I-4300000J0D01*
G01*
X35416000Y-35328000D02*
X35416000Y-31728000D01*
X35216000Y-34928000D02*
X35216000Y-32128000D01*
X35016000Y-34328000D02*
X35016000Y-32628000D01*
D13*
X36916000Y-32228000D02*
X36916000Y-31028000D01*
D11*
X34163000Y-20701000D02*
X34163000Y-21971000D01*
X32893000Y-20701000D02*
X32893000Y-21945600D01*
X32512000Y-20701000D02*
X34544000Y-20701000D01*
X34544000Y-20701000D02*
X34544000Y-21971000D01*
X34544000Y-21971000D02*
X32512000Y-21971000D01*
X32512000Y-21971000D02*
X32512000Y-20701000D01*
X24765000Y-27813000D02*
X26035000Y-27813000D01*
X24765000Y-29083000D02*
X26009600Y-29083000D01*
X24765000Y-29464000D02*
X24765000Y-27432000D01*
X24765000Y-27432000D02*
X26035000Y-27432000D01*
X26035000Y-27432000D02*
X26035000Y-29464000D01*
X26035000Y-29464000D02*
X24765000Y-29464000D01*
X76327000Y-53975000D02*
X75057000Y-53975000D01*
X76327000Y-52705000D02*
X75082400Y-52705000D01*
X76327000Y-52324000D02*
X76327000Y-54356000D01*
X76327000Y-54356000D02*
X75057000Y-54356000D01*
X75057000Y-54356000D02*
X75057000Y-52324000D01*
X75057000Y-52324000D02*
X76327000Y-52324000D01*
D14*
X69611240Y-27218640D02*
G75*
G03X72430640Y-27416760I1508760J1310640D01*
G01*
X72450960Y-24406860D02*
G75*
G03X69618860Y-24577040I-1330960J-1501140D01*
G01*
X71120000Y-27906980D02*
G75*
G03X73118980Y-25908000I0J1998980D01*
G01*
X73118980Y-25908000D02*
G75*
G03X71120000Y-23909020I-1998980J0D01*
G01*
X69819520Y-24406860D02*
X69819520Y-27409140D01*
X69618860Y-24607520D02*
X69618860Y-27208480D01*
X72621140Y-25908000D02*
G75*
G03X72621140Y-25908000I-1501140J0D01*
G01*
X16977360Y-48275240D02*
G75*
G03X16779240Y-51094640I1310640J-1508760D01*
G01*
X19789140Y-51114960D02*
G75*
G03X19618960Y-48282860I-1501140J1330960D01*
G01*
X16289020Y-49784000D02*
G75*
G03X18288000Y-51782980I1998980J0D01*
G01*
X18288000Y-51782980D02*
G75*
G03X20286980Y-49784000I0J1998980D01*
G01*
X19789140Y-48483520D02*
X16786860Y-48483520D01*
X19588480Y-48282860D02*
X16987520Y-48282860D01*
X19789140Y-49784000D02*
G75*
G03X19789140Y-49784000I-1501140J0D01*
G01*
D11*
X73152000Y-64716660D02*
X73451720Y-64416940D01*
X73451720Y-64416940D02*
X72852280Y-64416940D01*
X72852280Y-64416940D02*
X73152000Y-64716660D01*
X73052940Y-64615060D02*
X73251060Y-64615060D01*
X73352660Y-64516000D02*
X72951340Y-64516000D01*
X72351900Y-64815720D02*
X73952100Y-64815720D01*
X73952100Y-64216280D02*
X72351900Y-64216280D01*
X73952100Y-63515240D02*
X73952100Y-65516760D01*
X73952100Y-65516760D02*
X72351900Y-65516760D01*
X72351900Y-65516760D02*
X72351900Y-63515240D01*
X72351900Y-63515240D02*
X73952100Y-63515240D01*
X76200000Y-64716660D02*
X76499720Y-64416940D01*
X76499720Y-64416940D02*
X75900280Y-64416940D01*
X75900280Y-64416940D02*
X76200000Y-64716660D01*
X76100940Y-64615060D02*
X76299060Y-64615060D01*
X76400660Y-64516000D02*
X75999340Y-64516000D01*
X75399900Y-64815720D02*
X77000100Y-64815720D01*
X77000100Y-64216280D02*
X75399900Y-64216280D01*
X77000100Y-63515240D02*
X77000100Y-65516760D01*
X77000100Y-65516760D02*
X75399900Y-65516760D01*
X75399900Y-65516760D02*
X75399900Y-63515240D01*
X75399900Y-63515240D02*
X77000100Y-63515240D01*
X39852600Y-18211800D02*
X37363400Y-18211800D01*
X37363400Y-21412200D02*
X39852600Y-21412200D01*
X39852600Y-20955000D02*
X37363400Y-20955000D01*
X37363400Y-18669000D02*
X39852600Y-18669000D01*
X37363400Y-18211800D02*
X37363400Y-21412200D01*
X39852600Y-21412200D02*
X39852600Y-18211800D01*
D12*
X50546000Y-84328000D02*
X42926000Y-84328000D01*
X42926000Y-84328000D02*
X42926000Y-79248000D01*
X42926000Y-79248000D02*
X50546000Y-79248000D01*
X50546000Y-81788000D02*
X48006000Y-81788000D01*
X48006000Y-81788000D02*
X48006000Y-79248000D01*
X50546000Y-84328000D02*
X50546000Y-79248000D01*
X68072000Y-48514000D02*
X68072000Y-51054000D01*
X68072000Y-51054000D02*
X65532000Y-48514000D01*
X65532000Y-51054000D02*
X68072000Y-48514000D01*
X70612000Y-51054000D02*
X65532000Y-51054000D01*
X65532000Y-48514000D02*
X70612000Y-48514000D01*
X65532000Y-51054000D02*
X65532000Y-48514000D01*
X70612000Y-48514000D02*
X70612000Y-51054000D01*
X31496000Y-48514000D02*
X31496000Y-51054000D01*
X31496000Y-51054000D02*
X28956000Y-48514000D01*
X28956000Y-51054000D02*
X31496000Y-48514000D01*
X34036000Y-51054000D02*
X28956000Y-51054000D01*
X28956000Y-48514000D02*
X34036000Y-48514000D01*
X28956000Y-51054000D02*
X28956000Y-48514000D01*
X34036000Y-48514000D02*
X34036000Y-51054000D01*
D11*
X62357000Y-63373000D02*
X63627000Y-63373000D01*
X62357000Y-64643000D02*
X63601600Y-64643000D01*
X62357000Y-65024000D02*
X62357000Y-62992000D01*
X62357000Y-62992000D02*
X63627000Y-62992000D01*
X63627000Y-62992000D02*
X63627000Y-65024000D01*
X63627000Y-65024000D02*
X62357000Y-65024000D01*
X72009000Y-30861000D02*
X73279000Y-30861000D01*
X72009000Y-32131000D02*
X73253600Y-32131000D01*
X72009000Y-32512000D02*
X72009000Y-30480000D01*
X72009000Y-30480000D02*
X73279000Y-30480000D01*
X73279000Y-30480000D02*
X73279000Y-32512000D01*
X73279000Y-32512000D02*
X72009000Y-32512000D01*
X18669000Y-56515000D02*
X18669000Y-55245000D01*
X19939000Y-56515000D02*
X19939000Y-55270400D01*
X20320000Y-56515000D02*
X18288000Y-56515000D01*
X18288000Y-56515000D02*
X18288000Y-55245000D01*
X18288000Y-55245000D02*
X20320000Y-55245000D01*
X20320000Y-55245000D02*
X20320000Y-56515000D01*
X67183000Y-64643000D02*
X65913000Y-64643000D01*
X67183000Y-63373000D02*
X65938400Y-63373000D01*
X67183000Y-62992000D02*
X67183000Y-65024000D01*
X67183000Y-65024000D02*
X65913000Y-65024000D01*
X65913000Y-65024000D02*
X65913000Y-62992000D01*
X65913000Y-62992000D02*
X67183000Y-62992000D01*
X29591000Y-55245000D02*
X29591000Y-56515000D01*
X28321000Y-55245000D02*
X28321000Y-56489600D01*
X27940000Y-55245000D02*
X29972000Y-55245000D01*
X29972000Y-55245000D02*
X29972000Y-56515000D01*
X29972000Y-56515000D02*
X27940000Y-56515000D01*
X27940000Y-56515000D02*
X27940000Y-55245000D01*
X63627000Y-60579000D02*
X62357000Y-60579000D01*
X63627000Y-59309000D02*
X62382400Y-59309000D01*
X63627000Y-58928000D02*
X63627000Y-60960000D01*
X63627000Y-60960000D02*
X62357000Y-60960000D01*
X62357000Y-60960000D02*
X62357000Y-58928000D01*
X62357000Y-58928000D02*
X63627000Y-58928000D01*
X75565000Y-67945000D02*
X76835000Y-67945000D01*
X75565000Y-69215000D02*
X76809600Y-69215000D01*
X75565000Y-69596000D02*
X75565000Y-67564000D01*
X75565000Y-67564000D02*
X76835000Y-67564000D01*
X76835000Y-67564000D02*
X76835000Y-69596000D01*
X76835000Y-69596000D02*
X75565000Y-69596000D01*
X28321000Y-53975000D02*
X28321000Y-52705000D01*
X29591000Y-53975000D02*
X29591000Y-52730400D01*
X29972000Y-53975000D02*
X27940000Y-53975000D01*
X27940000Y-53975000D02*
X27940000Y-52705000D01*
X27940000Y-52705000D02*
X29972000Y-52705000D01*
X29972000Y-52705000D02*
X29972000Y-53975000D01*
X73787000Y-69215000D02*
X72517000Y-69215000D01*
X73787000Y-67945000D02*
X72542400Y-67945000D01*
X73787000Y-67564000D02*
X73787000Y-69596000D01*
X73787000Y-69596000D02*
X72517000Y-69596000D01*
X72517000Y-69596000D02*
X72517000Y-67564000D01*
X72517000Y-67564000D02*
X73787000Y-67564000D01*
X73787000Y-53975000D02*
X72517000Y-53975000D01*
X73787000Y-52705000D02*
X72542400Y-52705000D01*
X73787000Y-52324000D02*
X73787000Y-54356000D01*
X73787000Y-54356000D02*
X72517000Y-54356000D01*
X72517000Y-54356000D02*
X72517000Y-52324000D01*
X72517000Y-52324000D02*
X73787000Y-52324000D01*
X69469000Y-63881000D02*
X70739000Y-63881000D01*
X69469000Y-65151000D02*
X70713600Y-65151000D01*
X69469000Y-65532000D02*
X69469000Y-63500000D01*
X69469000Y-63500000D02*
X70739000Y-63500000D01*
X70739000Y-63500000D02*
X70739000Y-65532000D01*
X70739000Y-65532000D02*
X69469000Y-65532000D01*
X72517000Y-45085000D02*
X72517000Y-46355000D01*
X71247000Y-45085000D02*
X71247000Y-46329600D01*
X70866000Y-45085000D02*
X72898000Y-45085000D01*
X72898000Y-45085000D02*
X72898000Y-46355000D01*
X72898000Y-46355000D02*
X70866000Y-46355000D01*
X70866000Y-46355000D02*
X70866000Y-45085000D01*
X71247000Y-43815000D02*
X71247000Y-42545000D01*
X72517000Y-43815000D02*
X72517000Y-42570400D01*
X72898000Y-43815000D02*
X70866000Y-43815000D01*
X70866000Y-43815000D02*
X70866000Y-42545000D01*
X70866000Y-42545000D02*
X72898000Y-42545000D01*
X72898000Y-42545000D02*
X72898000Y-43815000D01*
X69977000Y-52705000D02*
X71247000Y-52705000D01*
X69977000Y-53975000D02*
X71221600Y-53975000D01*
X69977000Y-54356000D02*
X69977000Y-52324000D01*
X69977000Y-52324000D02*
X71247000Y-52324000D01*
X71247000Y-52324000D02*
X71247000Y-54356000D01*
X71247000Y-54356000D02*
X69977000Y-54356000D01*
X79629000Y-62357000D02*
X80899000Y-62357000D01*
X79629000Y-63627000D02*
X80873600Y-63627000D01*
X79629000Y-64008000D02*
X79629000Y-61976000D01*
X79629000Y-61976000D02*
X80899000Y-61976000D01*
X80899000Y-61976000D02*
X80899000Y-64008000D01*
X80899000Y-64008000D02*
X79629000Y-64008000D01*
X80899000Y-53721000D02*
X82169000Y-53721000D01*
X80899000Y-54991000D02*
X82143600Y-54991000D01*
X80899000Y-55372000D02*
X80899000Y-53340000D01*
X80899000Y-53340000D02*
X82169000Y-53340000D01*
X82169000Y-53340000D02*
X82169000Y-55372000D01*
X82169000Y-55372000D02*
X80899000Y-55372000D01*
X79629000Y-58293000D02*
X80899000Y-58293000D01*
X79629000Y-59563000D02*
X80873600Y-59563000D01*
X79629000Y-59944000D02*
X79629000Y-57912000D01*
X79629000Y-57912000D02*
X80899000Y-57912000D01*
X80899000Y-57912000D02*
X80899000Y-59944000D01*
X80899000Y-59944000D02*
X79629000Y-59944000D01*
D15*
X50150112Y-66988235D02*
X50433888Y-66988235D01*
X50573980Y-67128327D02*
X50010020Y-67128327D01*
X49868132Y-67270215D02*
X50715868Y-67270215D01*
X49726244Y-67412103D02*
X50292000Y-66846347D01*
X50292000Y-66846347D02*
X50857756Y-67412103D01*
X50857756Y-67412103D02*
X49726244Y-67412103D01*
X45060103Y-73209756D02*
X44494347Y-72644000D01*
X44494347Y-72644000D02*
X45060103Y-72078244D01*
X50857756Y-77875897D02*
X50292000Y-78441653D01*
X50292000Y-78441653D02*
X49726244Y-77875897D01*
X55523897Y-72078244D02*
X56089653Y-72644000D01*
X56089653Y-72644000D02*
X55523897Y-73209756D01*
D11*
X50575981Y-69231503D02*
G75*
G03X50575981Y-69231503I-283981J0D01*
G01*
X45532464Y-72913408D02*
X45532464Y-72374592D01*
X45532464Y-72374592D02*
X50022592Y-67884464D01*
X50022592Y-67884464D02*
X50561408Y-67884464D01*
X50561408Y-67884464D02*
X55051536Y-72374592D01*
X55051536Y-72374592D02*
X55051536Y-72913408D01*
X55051536Y-72913408D02*
X50561408Y-77403536D01*
X50561408Y-77403536D02*
X50022592Y-77403536D01*
X50022592Y-77403536D02*
X45532464Y-72913408D01*
X27851100Y-27965400D02*
X27851100Y-24866600D01*
X27851100Y-24866600D02*
X29641800Y-24866600D01*
X27851100Y-27965400D02*
X29641800Y-27965400D01*
X35140900Y-24523700D02*
X35140900Y-23710900D01*
X35140900Y-23710900D02*
X33350200Y-23710900D01*
X35140900Y-24523700D02*
X33350200Y-24523700D01*
X35140900Y-26822400D02*
X33350200Y-26822400D01*
X35140900Y-26009600D02*
X33350200Y-26009600D01*
X35140900Y-26822400D02*
X35140900Y-26009600D01*
X35140900Y-29121100D02*
X35140900Y-28308300D01*
X35140900Y-28308300D02*
X33350200Y-28308300D01*
X35140900Y-29121100D02*
X33350200Y-29121100D01*
X33350200Y-23063200D02*
X33350200Y-29768800D01*
X33350200Y-29768800D02*
X29641800Y-29768800D01*
X29641800Y-29768800D02*
X29641800Y-23063200D01*
X29641800Y-23063200D02*
X33350200Y-23063200D01*
X75133200Y-56007000D02*
X71170800Y-56007000D01*
X71170800Y-56007000D02*
X71170800Y-60833000D01*
X71170800Y-60833000D02*
X75133200Y-60833000D01*
X75133200Y-60833000D02*
X75133200Y-56007000D01*
X75133200Y-56515000D02*
X76225400Y-56515000D01*
X75133200Y-57785000D02*
X76225400Y-57785000D01*
X75133200Y-59055000D02*
X76225400Y-59055000D01*
X76225400Y-60325000D02*
X75133200Y-60325000D01*
X71170800Y-60325000D02*
X70078600Y-60325000D01*
X70078600Y-59055000D02*
X71170800Y-59055000D01*
X70078600Y-57785000D02*
X71170800Y-57785000D01*
X70078600Y-56515000D02*
X71170800Y-56515000D01*
X72379867Y-56743600D02*
G75*
G03X72379867Y-56743600I-472467J0D01*
G01*
D14*
X42123360Y-65829180D02*
X37124640Y-65829180D01*
X37124640Y-65829180D02*
X37124640Y-77426820D01*
X37124640Y-77426820D02*
X42123360Y-77426820D01*
X42123360Y-77426820D02*
X42123360Y-65829180D01*
D16*
X39624000Y-77216000D02*
G75*
G03X41910000Y-74930000I0J2286000D01*
G01*
X37846000Y-68326000D02*
X37846000Y-74930000D01*
X41402000Y-74930000D02*
X41402000Y-68326000D01*
X37846000Y-74930000D02*
G75*
G03X39624000Y-76708000I1778000J0D01*
G01*
X39624000Y-76708000D02*
G75*
G03X41402000Y-74930000I0J1778000D01*
G01*
X39624000Y-66548000D02*
G75*
G03X37846000Y-68326000I0J-1778000D01*
G01*
X41402000Y-68326000D02*
G75*
G03X39624000Y-66548000I-1778000J0D01*
G01*
X37338000Y-74930000D02*
G75*
G03X39624000Y-77216000I2286000J0D01*
G01*
X37338000Y-74930000D02*
X37338000Y-68326000D01*
X41910000Y-68326000D02*
X41910000Y-74930000D01*
X39624000Y-66040000D02*
G75*
G03X37338000Y-68326000I0J-2286000D01*
G01*
X41910000Y-68326000D02*
G75*
G03X39624000Y-66040000I-2286000J0D01*
G01*
D12*
X27245000Y-34455000D02*
X27245000Y-32855000D01*
X27445000Y-34955000D02*
X27445000Y-32355000D01*
X27645000Y-35355000D02*
X27645000Y-31955000D01*
X32645000Y-33655000D02*
G75*
G03X32645000Y-33655000I-2800000J0D01*
G01*
D13*
X28745000Y-32655000D02*
X28745000Y-31655000D01*
D14*
X67777360Y-74691240D02*
G75*
G03X67579240Y-77510640I1310640J-1508760D01*
G01*
X70589140Y-77530960D02*
G75*
G03X70418960Y-74698860I-1501140J1330960D01*
G01*
X67089020Y-76200000D02*
G75*
G03X69088000Y-78198980I1998980J0D01*
G01*
X69088000Y-78198980D02*
G75*
G03X71086980Y-76200000I0J1998980D01*
G01*
X70589140Y-74899520D02*
X67586860Y-74899520D01*
X70388480Y-74698860D02*
X67787520Y-74698860D01*
X70589140Y-76200000D02*
G75*
G03X70589140Y-76200000I-1501140J0D01*
G01*
D11*
X63627000Y-78105000D02*
X63627000Y-79375000D01*
X62357000Y-78105000D02*
X62357000Y-79349600D01*
X61976000Y-78105000D02*
X64008000Y-78105000D01*
X64008000Y-78105000D02*
X64008000Y-79375000D01*
X64008000Y-79375000D02*
X61976000Y-79375000D01*
X61976000Y-79375000D02*
X61976000Y-78105000D01*
X33718500Y-53403500D02*
X34378900Y-53403500D01*
X33718500Y-55308500D02*
X34378900Y-55308500D01*
X32321500Y-54356000D02*
X31661100Y-54356000D01*
X32321500Y-55854600D02*
X32321500Y-52857400D01*
X32321500Y-52857400D02*
X33718500Y-52857400D01*
X33718500Y-52857400D02*
X33718500Y-55854600D01*
X33718500Y-55854600D02*
X32321500Y-55854600D01*
X67119500Y-44005500D02*
X67119500Y-43345100D01*
X69024500Y-44005500D02*
X69024500Y-43345100D01*
X68072000Y-45402500D02*
X68072000Y-46062900D01*
X69570600Y-45402500D02*
X66573400Y-45402500D01*
X66573400Y-45402500D02*
X66573400Y-44005500D01*
X66573400Y-44005500D02*
X69570600Y-44005500D01*
X69570600Y-44005500D02*
X69570600Y-45402500D01*
X67500500Y-59626500D02*
X67500500Y-60286900D01*
X65595500Y-59626500D02*
X65595500Y-60286900D01*
X66548000Y-58229500D02*
X66548000Y-57569100D01*
X65049400Y-58229500D02*
X68046600Y-58229500D01*
X68046600Y-58229500D02*
X68046600Y-59626500D01*
X68046600Y-59626500D02*
X65049400Y-59626500D01*
X65049400Y-59626500D02*
X65049400Y-58229500D01*
X69469000Y-67945000D02*
X70739000Y-67945000D01*
X69469000Y-69215000D02*
X70713600Y-69215000D01*
X69469000Y-69596000D02*
X69469000Y-67564000D01*
X69469000Y-67564000D02*
X70739000Y-67564000D01*
X70739000Y-67564000D02*
X70739000Y-69596000D01*
X70739000Y-69596000D02*
X69469000Y-69596000D01*
X49583340Y-33528000D02*
X49883060Y-33827720D01*
X49883060Y-33827720D02*
X49883060Y-33228280D01*
X49883060Y-33228280D02*
X49583340Y-33528000D01*
X49684940Y-33428940D02*
X49684940Y-33627060D01*
X49784000Y-33728660D02*
X49784000Y-33327340D01*
X49484280Y-32727900D02*
X49484280Y-34328100D01*
X50083720Y-34328100D02*
X50083720Y-32727900D01*
X50784760Y-34328100D02*
X48783240Y-34328100D01*
X48783240Y-34328100D02*
X48783240Y-32727900D01*
X48783240Y-32727900D02*
X50784760Y-32727900D01*
X50784760Y-32727900D02*
X50784760Y-34328100D01*
D17*
X41656000Y-16510000D02*
X41656000Y-28448000D01*
X58928000Y-28448000D02*
X58928000Y-16510000D01*
X48768000Y-22098000D02*
X51816000Y-22098000D01*
X49276000Y-22098000D02*
X49276000Y-16510000D01*
X48768000Y-23876000D02*
X48768000Y-22098000D01*
X51816000Y-22098000D02*
X51816000Y-23876000D01*
X51308000Y-16510000D02*
X51308000Y-22098000D01*
X56388000Y-16510000D02*
X56388000Y-23876000D01*
X56388000Y-23876000D02*
X44196000Y-23876000D01*
X44196000Y-23876000D02*
X44196000Y-16510000D01*
X58928000Y-28448000D02*
X41656000Y-28448000D01*
X41656000Y-16510000D02*
X58928000Y-16510000D01*
D11*
X57531000Y-32893000D02*
X57531000Y-34163000D01*
X56261000Y-32893000D02*
X56261000Y-34137600D01*
X55880000Y-32893000D02*
X57912000Y-32893000D01*
X57912000Y-32893000D02*
X57912000Y-34163000D01*
X57912000Y-34163000D02*
X55880000Y-34163000D01*
X55880000Y-34163000D02*
X55880000Y-32893000D01*
D12*
X23114000Y-52324000D02*
X25654000Y-52324000D01*
X25654000Y-44704000D02*
X25654000Y-54864000D01*
X23114000Y-54864000D02*
X23114000Y-44704000D01*
X25654000Y-54864000D02*
X23114000Y-54864000D01*
X23114000Y-44704000D02*
X25654000Y-44704000D01*
D18*
X37869905Y-26868381D02*
X37869905Y-25868381D01*
X38108000Y-25868381D01*
X38250858Y-25916000D01*
X38346096Y-26011238D01*
X38393715Y-26106476D01*
X38441334Y-26296952D01*
X38441334Y-26439810D01*
X38393715Y-26630286D01*
X38346096Y-26725524D01*
X38250858Y-26820762D01*
X38108000Y-26868381D01*
X37869905Y-26868381D01*
X39393715Y-26868381D02*
X38822286Y-26868381D01*
X39108000Y-26868381D02*
X39108000Y-25868381D01*
X39012762Y-26011238D01*
X38917524Y-26106476D01*
X38822286Y-26154095D01*
X43521334Y-69445143D02*
X43473715Y-69492762D01*
X43330858Y-69540381D01*
X43235620Y-69540381D01*
X43092762Y-69492762D01*
X42997524Y-69397524D01*
X42949905Y-69302286D01*
X42902286Y-69111810D01*
X42902286Y-68968952D01*
X42949905Y-68778476D01*
X42997524Y-68683238D01*
X43092762Y-68588000D01*
X43235620Y-68540381D01*
X43330858Y-68540381D01*
X43473715Y-68588000D01*
X43521334Y-68635619D01*
X44473715Y-69540381D02*
X43902286Y-69540381D01*
X44188000Y-69540381D02*
X44188000Y-68540381D01*
X44092762Y-68683238D01*
X43997524Y-68778476D01*
X43902286Y-68826095D01*
X35139334Y-65381143D02*
X35091715Y-65428762D01*
X34948858Y-65476381D01*
X34853620Y-65476381D01*
X34710762Y-65428762D01*
X34615524Y-65333524D01*
X34567905Y-65238286D01*
X34520286Y-65047810D01*
X34520286Y-64904952D01*
X34567905Y-64714476D01*
X34615524Y-64619238D01*
X34710762Y-64524000D01*
X34853620Y-64476381D01*
X34948858Y-64476381D01*
X35091715Y-64524000D01*
X35139334Y-64571619D01*
X35520286Y-64571619D02*
X35567905Y-64524000D01*
X35663143Y-64476381D01*
X35901239Y-64476381D01*
X35996477Y-64524000D01*
X36044096Y-64571619D01*
X36091715Y-64666857D01*
X36091715Y-64762095D01*
X36044096Y-64904952D01*
X35472667Y-65476381D01*
X36091715Y-65476381D01*
X56729334Y-82145143D02*
X56681715Y-82192762D01*
X56538858Y-82240381D01*
X56443620Y-82240381D01*
X56300762Y-82192762D01*
X56205524Y-82097524D01*
X56157905Y-82002286D01*
X56110286Y-81811810D01*
X56110286Y-81668952D01*
X56157905Y-81478476D01*
X56205524Y-81383238D01*
X56300762Y-81288000D01*
X56443620Y-81240381D01*
X56538858Y-81240381D01*
X56681715Y-81288000D01*
X56729334Y-81335619D01*
X57062667Y-81240381D02*
X57681715Y-81240381D01*
X57348381Y-81621333D01*
X57491239Y-81621333D01*
X57586477Y-81668952D01*
X57634096Y-81716571D01*
X57681715Y-81811810D01*
X57681715Y-82049905D01*
X57634096Y-82145143D01*
X57586477Y-82192762D01*
X57491239Y-82240381D01*
X57205524Y-82240381D01*
X57110286Y-82192762D01*
X57062667Y-82145143D01*
X48601334Y-65889143D02*
X48553715Y-65936762D01*
X48410858Y-65984381D01*
X48315620Y-65984381D01*
X48172762Y-65936762D01*
X48077524Y-65841524D01*
X48029905Y-65746286D01*
X47982286Y-65555810D01*
X47982286Y-65412952D01*
X48029905Y-65222476D01*
X48077524Y-65127238D01*
X48172762Y-65032000D01*
X48315620Y-64984381D01*
X48410858Y-64984381D01*
X48553715Y-65032000D01*
X48601334Y-65079619D01*
X49458477Y-65317714D02*
X49458477Y-65984381D01*
X49220381Y-64936762D02*
X48982286Y-65651048D01*
X49601334Y-65651048D01*
X35139334Y-72747143D02*
X35091715Y-72794762D01*
X34948858Y-72842381D01*
X34853620Y-72842381D01*
X34710762Y-72794762D01*
X34615524Y-72699524D01*
X34567905Y-72604286D01*
X34520286Y-72413810D01*
X34520286Y-72270952D01*
X34567905Y-72080476D01*
X34615524Y-71985238D01*
X34710762Y-71890000D01*
X34853620Y-71842381D01*
X34948858Y-71842381D01*
X35091715Y-71890000D01*
X35139334Y-71937619D01*
X36044096Y-71842381D02*
X35567905Y-71842381D01*
X35520286Y-72318571D01*
X35567905Y-72270952D01*
X35663143Y-72223333D01*
X35901239Y-72223333D01*
X35996477Y-72270952D01*
X36044096Y-72318571D01*
X36091715Y-72413810D01*
X36091715Y-72651905D01*
X36044096Y-72747143D01*
X35996477Y-72794762D01*
X35901239Y-72842381D01*
X35663143Y-72842381D01*
X35567905Y-72794762D01*
X35520286Y-72747143D01*
X39473143Y-36234666D02*
X39520762Y-36282285D01*
X39568381Y-36425142D01*
X39568381Y-36520380D01*
X39520762Y-36663238D01*
X39425524Y-36758476D01*
X39330286Y-36806095D01*
X39139810Y-36853714D01*
X38996952Y-36853714D01*
X38806476Y-36806095D01*
X38711238Y-36758476D01*
X38616000Y-36663238D01*
X38568381Y-36520380D01*
X38568381Y-36425142D01*
X38616000Y-36282285D01*
X38663619Y-36234666D01*
X38568381Y-35377523D02*
X38568381Y-35568000D01*
X38616000Y-35663238D01*
X38663619Y-35710857D01*
X38806476Y-35806095D01*
X38996952Y-35853714D01*
X39377905Y-35853714D01*
X39473143Y-35806095D01*
X39520762Y-35758476D01*
X39568381Y-35663238D01*
X39568381Y-35472761D01*
X39520762Y-35377523D01*
X39473143Y-35329904D01*
X39377905Y-35282285D01*
X39139810Y-35282285D01*
X39044571Y-35329904D01*
X38996952Y-35377523D01*
X38949333Y-35472761D01*
X38949333Y-35663238D01*
X38996952Y-35758476D01*
X39044571Y-35806095D01*
X39139810Y-35853714D01*
X30186334Y-22328143D02*
X30138715Y-22375762D01*
X29995858Y-22423381D01*
X29900620Y-22423381D01*
X29757762Y-22375762D01*
X29662524Y-22280524D01*
X29614905Y-22185286D01*
X29567286Y-21994810D01*
X29567286Y-21851952D01*
X29614905Y-21661476D01*
X29662524Y-21566238D01*
X29757762Y-21471000D01*
X29900620Y-21423381D01*
X29995858Y-21423381D01*
X30138715Y-21471000D01*
X30186334Y-21518619D01*
X30519667Y-21423381D02*
X31186334Y-21423381D01*
X30757762Y-22423381D01*
X25233334Y-31853143D02*
X25185715Y-31900762D01*
X25042858Y-31948381D01*
X24947620Y-31948381D01*
X24804762Y-31900762D01*
X24709524Y-31805524D01*
X24661905Y-31710286D01*
X24614286Y-31519810D01*
X24614286Y-31376952D01*
X24661905Y-31186476D01*
X24709524Y-31091238D01*
X24804762Y-30996000D01*
X24947620Y-30948381D01*
X25042858Y-30948381D01*
X25185715Y-30996000D01*
X25233334Y-31043619D01*
X25804762Y-31376952D02*
X25709524Y-31329333D01*
X25661905Y-31281714D01*
X25614286Y-31186476D01*
X25614286Y-31138857D01*
X25661905Y-31043619D01*
X25709524Y-30996000D01*
X25804762Y-30948381D01*
X25995239Y-30948381D01*
X26090477Y-30996000D01*
X26138096Y-31043619D01*
X26185715Y-31138857D01*
X26185715Y-31186476D01*
X26138096Y-31281714D01*
X26090477Y-31329333D01*
X25995239Y-31376952D01*
X25804762Y-31376952D01*
X25709524Y-31424571D01*
X25661905Y-31472190D01*
X25614286Y-31567429D01*
X25614286Y-31757905D01*
X25661905Y-31853143D01*
X25709524Y-31900762D01*
X25804762Y-31948381D01*
X25995239Y-31948381D01*
X26090477Y-31900762D01*
X26138096Y-31853143D01*
X26185715Y-31757905D01*
X26185715Y-31567429D01*
X26138096Y-31472190D01*
X26090477Y-31424571D01*
X25995239Y-31376952D01*
X75049143Y-50649143D02*
X75001524Y-50696762D01*
X74858667Y-50744381D01*
X74763429Y-50744381D01*
X74620571Y-50696762D01*
X74525333Y-50601524D01*
X74477714Y-50506286D01*
X74430095Y-50315810D01*
X74430095Y-50172952D01*
X74477714Y-49982476D01*
X74525333Y-49887238D01*
X74620571Y-49792000D01*
X74763429Y-49744381D01*
X74858667Y-49744381D01*
X75001524Y-49792000D01*
X75049143Y-49839619D01*
X76001524Y-50744381D02*
X75430095Y-50744381D01*
X75715809Y-50744381D02*
X75715809Y-49744381D01*
X75620571Y-49887238D01*
X75525333Y-49982476D01*
X75430095Y-50030095D01*
X76620571Y-49744381D02*
X76715810Y-49744381D01*
X76811048Y-49792000D01*
X76858667Y-49839619D01*
X76906286Y-49934857D01*
X76953905Y-50125333D01*
X76953905Y-50363429D01*
X76906286Y-50553905D01*
X76858667Y-50649143D01*
X76811048Y-50696762D01*
X76715810Y-50744381D01*
X76620571Y-50744381D01*
X76525333Y-50696762D01*
X76477714Y-50649143D01*
X76430095Y-50553905D01*
X76382476Y-50363429D01*
X76382476Y-50125333D01*
X76430095Y-49934857D01*
X76477714Y-49839619D01*
X76525333Y-49792000D01*
X76620571Y-49744381D01*
X66317905Y-26360381D02*
X66317905Y-25360381D01*
X66556000Y-25360381D01*
X66698858Y-25408000D01*
X66794096Y-25503238D01*
X66841715Y-25598476D01*
X66889334Y-25788952D01*
X66889334Y-25931810D01*
X66841715Y-26122286D01*
X66794096Y-26217524D01*
X66698858Y-26312762D01*
X66556000Y-26360381D01*
X66317905Y-26360381D01*
X67270286Y-25455619D02*
X67317905Y-25408000D01*
X67413143Y-25360381D01*
X67651239Y-25360381D01*
X67746477Y-25408000D01*
X67794096Y-25455619D01*
X67841715Y-25550857D01*
X67841715Y-25646095D01*
X67794096Y-25788952D01*
X67222667Y-26360381D01*
X67841715Y-26360381D01*
X17549905Y-46736381D02*
X17549905Y-45736381D01*
X17788000Y-45736381D01*
X17930858Y-45784000D01*
X18026096Y-45879238D01*
X18073715Y-45974476D01*
X18121334Y-46164952D01*
X18121334Y-46307810D01*
X18073715Y-46498286D01*
X18026096Y-46593524D01*
X17930858Y-46688762D01*
X17788000Y-46736381D01*
X17549905Y-46736381D01*
X18454667Y-45736381D02*
X19073715Y-45736381D01*
X18740381Y-46117333D01*
X18883239Y-46117333D01*
X18978477Y-46164952D01*
X19026096Y-46212571D01*
X19073715Y-46307810D01*
X19073715Y-46545905D01*
X19026096Y-46641143D01*
X18978477Y-46688762D01*
X18883239Y-46736381D01*
X18597524Y-46736381D01*
X18502286Y-46688762D01*
X18454667Y-46641143D01*
X72413905Y-62428381D02*
X72413905Y-61428381D01*
X72652000Y-61428381D01*
X72794858Y-61476000D01*
X72890096Y-61571238D01*
X72937715Y-61666476D01*
X72985334Y-61856952D01*
X72985334Y-61999810D01*
X72937715Y-62190286D01*
X72890096Y-62285524D01*
X72794858Y-62380762D01*
X72652000Y-62428381D01*
X72413905Y-62428381D01*
X73842477Y-61761714D02*
X73842477Y-62428381D01*
X73604381Y-61380762D02*
X73366286Y-62095048D01*
X73985334Y-62095048D01*
X75461905Y-62428381D02*
X75461905Y-61428381D01*
X75700000Y-61428381D01*
X75842858Y-61476000D01*
X75938096Y-61571238D01*
X75985715Y-61666476D01*
X76033334Y-61856952D01*
X76033334Y-61999810D01*
X75985715Y-62190286D01*
X75938096Y-62285524D01*
X75842858Y-62380762D01*
X75700000Y-62428381D01*
X75461905Y-62428381D01*
X76938096Y-61428381D02*
X76461905Y-61428381D01*
X76414286Y-61904571D01*
X76461905Y-61856952D01*
X76557143Y-61809333D01*
X76795239Y-61809333D01*
X76890477Y-61856952D01*
X76938096Y-61904571D01*
X76985715Y-61999810D01*
X76985715Y-62237905D01*
X76938096Y-62333143D01*
X76890477Y-62380762D01*
X76795239Y-62428381D01*
X76557143Y-62428381D01*
X76461905Y-62380762D01*
X76414286Y-62333143D01*
X38274667Y-19740571D02*
X37941333Y-19740571D01*
X37941333Y-20264381D02*
X37941333Y-19264381D01*
X38417524Y-19264381D01*
X39322286Y-20264381D02*
X38750857Y-20264381D01*
X39036571Y-20264381D02*
X39036571Y-19264381D01*
X38941333Y-19407238D01*
X38846095Y-19502476D01*
X38750857Y-19550095D01*
X46402667Y-85050381D02*
X46402667Y-85764667D01*
X46355047Y-85907524D01*
X46259809Y-86002762D01*
X46116952Y-86050381D01*
X46021714Y-86050381D01*
X46831238Y-85145619D02*
X46878857Y-85098000D01*
X46974095Y-85050381D01*
X47212191Y-85050381D01*
X47307429Y-85098000D01*
X47355048Y-85145619D01*
X47402667Y-85240857D01*
X47402667Y-85336095D01*
X47355048Y-85478952D01*
X46783619Y-86050381D01*
X47402667Y-86050381D01*
X67738667Y-47077381D02*
X67738667Y-47791667D01*
X67691047Y-47934524D01*
X67595809Y-48029762D01*
X67452952Y-48077381D01*
X67357714Y-48077381D01*
X68643429Y-47410714D02*
X68643429Y-48077381D01*
X68405333Y-47029762D02*
X68167238Y-47744048D01*
X68786286Y-47744048D01*
X31162667Y-47077381D02*
X31162667Y-47791667D01*
X31115047Y-47934524D01*
X31019809Y-48029762D01*
X30876952Y-48077381D01*
X30781714Y-48077381D01*
X32115048Y-47077381D02*
X31638857Y-47077381D01*
X31591238Y-47553571D01*
X31638857Y-47505952D01*
X31734095Y-47458333D01*
X31972191Y-47458333D01*
X32067429Y-47505952D01*
X32115048Y-47553571D01*
X32162667Y-47648810D01*
X32162667Y-47886905D01*
X32115048Y-47982143D01*
X32067429Y-48029762D01*
X31972191Y-48077381D01*
X31734095Y-48077381D01*
X31638857Y-48029762D01*
X31591238Y-47982143D01*
X60285334Y-64460381D02*
X59952000Y-63984190D01*
X59713905Y-64460381D02*
X59713905Y-63460381D01*
X60094858Y-63460381D01*
X60190096Y-63508000D01*
X60237715Y-63555619D01*
X60285334Y-63650857D01*
X60285334Y-63793714D01*
X60237715Y-63888952D01*
X60190096Y-63936571D01*
X60094858Y-63984190D01*
X59713905Y-63984190D01*
X61237715Y-64460381D02*
X60666286Y-64460381D01*
X60952000Y-64460381D02*
X60952000Y-63460381D01*
X60856762Y-63603238D01*
X60761524Y-63698476D01*
X60666286Y-63746095D01*
X69937334Y-31948381D02*
X69604000Y-31472190D01*
X69365905Y-31948381D02*
X69365905Y-30948381D01*
X69746858Y-30948381D01*
X69842096Y-30996000D01*
X69889715Y-31043619D01*
X69937334Y-31138857D01*
X69937334Y-31281714D01*
X69889715Y-31376952D01*
X69842096Y-31424571D01*
X69746858Y-31472190D01*
X69365905Y-31472190D01*
X70318286Y-31043619D02*
X70365905Y-30996000D01*
X70461143Y-30948381D01*
X70699239Y-30948381D01*
X70794477Y-30996000D01*
X70842096Y-31043619D01*
X70889715Y-31138857D01*
X70889715Y-31234095D01*
X70842096Y-31376952D01*
X70270667Y-31948381D01*
X70889715Y-31948381D01*
X19137334Y-58364381D02*
X18804000Y-57888190D01*
X18565905Y-58364381D02*
X18565905Y-57364381D01*
X18946858Y-57364381D01*
X19042096Y-57412000D01*
X19089715Y-57459619D01*
X19137334Y-57554857D01*
X19137334Y-57697714D01*
X19089715Y-57792952D01*
X19042096Y-57840571D01*
X18946858Y-57888190D01*
X18565905Y-57888190D01*
X19470667Y-57364381D02*
X20089715Y-57364381D01*
X19756381Y-57745333D01*
X19899239Y-57745333D01*
X19994477Y-57792952D01*
X20042096Y-57840571D01*
X20089715Y-57935810D01*
X20089715Y-58173905D01*
X20042096Y-58269143D01*
X19994477Y-58316762D01*
X19899239Y-58364381D01*
X19613524Y-58364381D01*
X19518286Y-58316762D01*
X19470667Y-58269143D01*
X66381334Y-67508381D02*
X66048000Y-67032190D01*
X65809905Y-67508381D02*
X65809905Y-66508381D01*
X66190858Y-66508381D01*
X66286096Y-66556000D01*
X66333715Y-66603619D01*
X66381334Y-66698857D01*
X66381334Y-66841714D01*
X66333715Y-66936952D01*
X66286096Y-66984571D01*
X66190858Y-67032190D01*
X65809905Y-67032190D01*
X67238477Y-66841714D02*
X67238477Y-67508381D01*
X67000381Y-66460762D02*
X66762286Y-67175048D01*
X67381334Y-67175048D01*
X28789334Y-58618381D02*
X28456000Y-58142190D01*
X28217905Y-58618381D02*
X28217905Y-57618381D01*
X28598858Y-57618381D01*
X28694096Y-57666000D01*
X28741715Y-57713619D01*
X28789334Y-57808857D01*
X28789334Y-57951714D01*
X28741715Y-58046952D01*
X28694096Y-58094571D01*
X28598858Y-58142190D01*
X28217905Y-58142190D01*
X29694096Y-57618381D02*
X29217905Y-57618381D01*
X29170286Y-58094571D01*
X29217905Y-58046952D01*
X29313143Y-57999333D01*
X29551239Y-57999333D01*
X29646477Y-58046952D01*
X29694096Y-58094571D01*
X29741715Y-58189810D01*
X29741715Y-58427905D01*
X29694096Y-58523143D01*
X29646477Y-58570762D01*
X29551239Y-58618381D01*
X29313143Y-58618381D01*
X29217905Y-58570762D01*
X29170286Y-58523143D01*
X60285334Y-61920381D02*
X59952000Y-61444190D01*
X59713905Y-61920381D02*
X59713905Y-60920381D01*
X60094858Y-60920381D01*
X60190096Y-60968000D01*
X60237715Y-61015619D01*
X60285334Y-61110857D01*
X60285334Y-61253714D01*
X60237715Y-61348952D01*
X60190096Y-61396571D01*
X60094858Y-61444190D01*
X59713905Y-61444190D01*
X61142477Y-60920381D02*
X60952000Y-60920381D01*
X60856762Y-60968000D01*
X60809143Y-61015619D01*
X60713905Y-61158476D01*
X60666286Y-61348952D01*
X60666286Y-61729905D01*
X60713905Y-61825143D01*
X60761524Y-61872762D01*
X60856762Y-61920381D01*
X61047239Y-61920381D01*
X61142477Y-61872762D01*
X61190096Y-61825143D01*
X61237715Y-61729905D01*
X61237715Y-61491810D01*
X61190096Y-61396571D01*
X61142477Y-61348952D01*
X61047239Y-61301333D01*
X60856762Y-61301333D01*
X60761524Y-61348952D01*
X60713905Y-61396571D01*
X60666286Y-61491810D01*
X76033334Y-72080381D02*
X75700000Y-71604190D01*
X75461905Y-72080381D02*
X75461905Y-71080381D01*
X75842858Y-71080381D01*
X75938096Y-71128000D01*
X75985715Y-71175619D01*
X76033334Y-71270857D01*
X76033334Y-71413714D01*
X75985715Y-71508952D01*
X75938096Y-71556571D01*
X75842858Y-71604190D01*
X75461905Y-71604190D01*
X76366667Y-71080381D02*
X77033334Y-71080381D01*
X76604762Y-72080381D01*
X27011334Y-51760381D02*
X26678000Y-51284190D01*
X26439905Y-51760381D02*
X26439905Y-50760381D01*
X26820858Y-50760381D01*
X26916096Y-50808000D01*
X26963715Y-50855619D01*
X27011334Y-50950857D01*
X27011334Y-51093714D01*
X26963715Y-51188952D01*
X26916096Y-51236571D01*
X26820858Y-51284190D01*
X26439905Y-51284190D01*
X27582762Y-51188952D02*
X27487524Y-51141333D01*
X27439905Y-51093714D01*
X27392286Y-50998476D01*
X27392286Y-50950857D01*
X27439905Y-50855619D01*
X27487524Y-50808000D01*
X27582762Y-50760381D01*
X27773239Y-50760381D01*
X27868477Y-50808000D01*
X27916096Y-50855619D01*
X27963715Y-50950857D01*
X27963715Y-50998476D01*
X27916096Y-51093714D01*
X27868477Y-51141333D01*
X27773239Y-51188952D01*
X27582762Y-51188952D01*
X27487524Y-51236571D01*
X27439905Y-51284190D01*
X27392286Y-51379429D01*
X27392286Y-51569905D01*
X27439905Y-51665143D01*
X27487524Y-51712762D01*
X27582762Y-51760381D01*
X27773239Y-51760381D01*
X27868477Y-51712762D01*
X27916096Y-51665143D01*
X27963715Y-51569905D01*
X27963715Y-51379429D01*
X27916096Y-51284190D01*
X27868477Y-51236571D01*
X27773239Y-51188952D01*
X72985334Y-72080381D02*
X72652000Y-71604190D01*
X72413905Y-72080381D02*
X72413905Y-71080381D01*
X72794858Y-71080381D01*
X72890096Y-71128000D01*
X72937715Y-71175619D01*
X72985334Y-71270857D01*
X72985334Y-71413714D01*
X72937715Y-71508952D01*
X72890096Y-71556571D01*
X72794858Y-71604190D01*
X72413905Y-71604190D01*
X73461524Y-72080381D02*
X73652000Y-72080381D01*
X73747239Y-72032762D01*
X73794858Y-71985143D01*
X73890096Y-71842286D01*
X73937715Y-71651810D01*
X73937715Y-71270857D01*
X73890096Y-71175619D01*
X73842477Y-71128000D01*
X73747239Y-71080381D01*
X73556762Y-71080381D01*
X73461524Y-71128000D01*
X73413905Y-71175619D01*
X73366286Y-71270857D01*
X73366286Y-71508952D01*
X73413905Y-71604190D01*
X73461524Y-71651810D01*
X73556762Y-71699429D01*
X73747239Y-71699429D01*
X73842477Y-71651810D01*
X73890096Y-71604190D01*
X73937715Y-71508952D01*
X72001143Y-50744381D02*
X71667809Y-50268190D01*
X71429714Y-50744381D02*
X71429714Y-49744381D01*
X71810667Y-49744381D01*
X71905905Y-49792000D01*
X71953524Y-49839619D01*
X72001143Y-49934857D01*
X72001143Y-50077714D01*
X71953524Y-50172952D01*
X71905905Y-50220571D01*
X71810667Y-50268190D01*
X71429714Y-50268190D01*
X72953524Y-50744381D02*
X72382095Y-50744381D01*
X72667809Y-50744381D02*
X72667809Y-49744381D01*
X72572571Y-49887238D01*
X72477333Y-49982476D01*
X72382095Y-50030095D01*
X73572571Y-49744381D02*
X73667810Y-49744381D01*
X73763048Y-49792000D01*
X73810667Y-49839619D01*
X73858286Y-49934857D01*
X73905905Y-50125333D01*
X73905905Y-50363429D01*
X73858286Y-50553905D01*
X73810667Y-50649143D01*
X73763048Y-50696762D01*
X73667810Y-50744381D01*
X73572571Y-50744381D01*
X73477333Y-50696762D01*
X73429714Y-50649143D01*
X73382095Y-50553905D01*
X73334476Y-50363429D01*
X73334476Y-50125333D01*
X73382095Y-49934857D01*
X73429714Y-49839619D01*
X73477333Y-49792000D01*
X73572571Y-49744381D01*
X69461143Y-62428381D02*
X69127809Y-61952190D01*
X68889714Y-62428381D02*
X68889714Y-61428381D01*
X69270667Y-61428381D01*
X69365905Y-61476000D01*
X69413524Y-61523619D01*
X69461143Y-61618857D01*
X69461143Y-61761714D01*
X69413524Y-61856952D01*
X69365905Y-61904571D01*
X69270667Y-61952190D01*
X68889714Y-61952190D01*
X70413524Y-62428381D02*
X69842095Y-62428381D01*
X70127809Y-62428381D02*
X70127809Y-61428381D01*
X70032571Y-61571238D01*
X69937333Y-61666476D01*
X69842095Y-61714095D01*
X71365905Y-62428381D02*
X70794476Y-62428381D01*
X71080190Y-62428381D02*
X71080190Y-61428381D01*
X70984952Y-61571238D01*
X70889714Y-61666476D01*
X70794476Y-61714095D01*
X74795143Y-46172381D02*
X74461809Y-45696190D01*
X74223714Y-46172381D02*
X74223714Y-45172381D01*
X74604667Y-45172381D01*
X74699905Y-45220000D01*
X74747524Y-45267619D01*
X74795143Y-45362857D01*
X74795143Y-45505714D01*
X74747524Y-45600952D01*
X74699905Y-45648571D01*
X74604667Y-45696190D01*
X74223714Y-45696190D01*
X75747524Y-46172381D02*
X75176095Y-46172381D01*
X75461809Y-46172381D02*
X75461809Y-45172381D01*
X75366571Y-45315238D01*
X75271333Y-45410476D01*
X75176095Y-45458095D01*
X76128476Y-45267619D02*
X76176095Y-45220000D01*
X76271333Y-45172381D01*
X76509429Y-45172381D01*
X76604667Y-45220000D01*
X76652286Y-45267619D01*
X76699905Y-45362857D01*
X76699905Y-45458095D01*
X76652286Y-45600952D01*
X76080857Y-46172381D01*
X76699905Y-46172381D01*
X74795143Y-43632381D02*
X74461809Y-43156190D01*
X74223714Y-43632381D02*
X74223714Y-42632381D01*
X74604667Y-42632381D01*
X74699905Y-42680000D01*
X74747524Y-42727619D01*
X74795143Y-42822857D01*
X74795143Y-42965714D01*
X74747524Y-43060952D01*
X74699905Y-43108571D01*
X74604667Y-43156190D01*
X74223714Y-43156190D01*
X75747524Y-43632381D02*
X75176095Y-43632381D01*
X75461809Y-43632381D02*
X75461809Y-42632381D01*
X75366571Y-42775238D01*
X75271333Y-42870476D01*
X75176095Y-42918095D01*
X76080857Y-42632381D02*
X76699905Y-42632381D01*
X76366571Y-43013333D01*
X76509429Y-43013333D01*
X76604667Y-43060952D01*
X76652286Y-43108571D01*
X76699905Y-43203810D01*
X76699905Y-43441905D01*
X76652286Y-43537143D01*
X76604667Y-43584762D01*
X76509429Y-43632381D01*
X76223714Y-43632381D01*
X76128476Y-43584762D01*
X76080857Y-43537143D01*
X69032381Y-53982857D02*
X68556190Y-54316191D01*
X69032381Y-54554286D02*
X68032381Y-54554286D01*
X68032381Y-54173333D01*
X68080000Y-54078095D01*
X68127619Y-54030476D01*
X68222857Y-53982857D01*
X68365714Y-53982857D01*
X68460952Y-54030476D01*
X68508571Y-54078095D01*
X68556190Y-54173333D01*
X68556190Y-54554286D01*
X69032381Y-53030476D02*
X69032381Y-53601905D01*
X69032381Y-53316191D02*
X68032381Y-53316191D01*
X68175238Y-53411429D01*
X68270476Y-53506667D01*
X68318095Y-53601905D01*
X68365714Y-52173333D02*
X69032381Y-52173333D01*
X67984762Y-52411429D02*
X68699048Y-52649524D01*
X68699048Y-52030476D01*
X79621143Y-66492381D02*
X79287809Y-66016190D01*
X79049714Y-66492381D02*
X79049714Y-65492381D01*
X79430667Y-65492381D01*
X79525905Y-65540000D01*
X79573524Y-65587619D01*
X79621143Y-65682857D01*
X79621143Y-65825714D01*
X79573524Y-65920952D01*
X79525905Y-65968571D01*
X79430667Y-66016190D01*
X79049714Y-66016190D01*
X80573524Y-66492381D02*
X80002095Y-66492381D01*
X80287809Y-66492381D02*
X80287809Y-65492381D01*
X80192571Y-65635238D01*
X80097333Y-65730476D01*
X80002095Y-65778095D01*
X81478286Y-65492381D02*
X81002095Y-65492381D01*
X80954476Y-65968571D01*
X81002095Y-65920952D01*
X81097333Y-65873333D01*
X81335429Y-65873333D01*
X81430667Y-65920952D01*
X81478286Y-65968571D01*
X81525905Y-66063810D01*
X81525905Y-66301905D01*
X81478286Y-66397143D01*
X81430667Y-66444762D01*
X81335429Y-66492381D01*
X81097333Y-66492381D01*
X81002095Y-66444762D01*
X80954476Y-66397143D01*
X81399143Y-52268381D02*
X81065809Y-51792190D01*
X80827714Y-52268381D02*
X80827714Y-51268381D01*
X81208667Y-51268381D01*
X81303905Y-51316000D01*
X81351524Y-51363619D01*
X81399143Y-51458857D01*
X81399143Y-51601714D01*
X81351524Y-51696952D01*
X81303905Y-51744571D01*
X81208667Y-51792190D01*
X80827714Y-51792190D01*
X82351524Y-52268381D02*
X81780095Y-52268381D01*
X82065809Y-52268381D02*
X82065809Y-51268381D01*
X81970571Y-51411238D01*
X81875333Y-51506476D01*
X81780095Y-51554095D01*
X83208667Y-51268381D02*
X83018190Y-51268381D01*
X82922952Y-51316000D01*
X82875333Y-51363619D01*
X82780095Y-51506476D01*
X82732476Y-51696952D01*
X82732476Y-52077905D01*
X82780095Y-52173143D01*
X82827714Y-52220762D01*
X82922952Y-52268381D01*
X83113429Y-52268381D01*
X83208667Y-52220762D01*
X83256286Y-52173143D01*
X83303905Y-52077905D01*
X83303905Y-51839810D01*
X83256286Y-51744571D01*
X83208667Y-51696952D01*
X83113429Y-51649333D01*
X82922952Y-51649333D01*
X82827714Y-51696952D01*
X82780095Y-51744571D01*
X82732476Y-51839810D01*
X82161143Y-59380381D02*
X81827809Y-58904190D01*
X81589714Y-59380381D02*
X81589714Y-58380381D01*
X81970667Y-58380381D01*
X82065905Y-58428000D01*
X82113524Y-58475619D01*
X82161143Y-58570857D01*
X82161143Y-58713714D01*
X82113524Y-58808952D01*
X82065905Y-58856571D01*
X81970667Y-58904190D01*
X81589714Y-58904190D01*
X83113524Y-59380381D02*
X82542095Y-59380381D01*
X82827809Y-59380381D02*
X82827809Y-58380381D01*
X82732571Y-58523238D01*
X82637333Y-58618476D01*
X82542095Y-58666095D01*
X83446857Y-58380381D02*
X84113524Y-58380381D01*
X83684952Y-59380381D01*
X48557804Y-71987300D02*
X49130224Y-72559720D01*
X49231239Y-72593392D01*
X49298582Y-72593392D01*
X49399597Y-72559720D01*
X49534285Y-72425032D01*
X49567957Y-72324017D01*
X49567957Y-72256674D01*
X49534285Y-72155659D01*
X48961865Y-71583239D01*
X50376079Y-71583239D02*
X49972017Y-71987300D01*
X50174048Y-71785270D02*
X49466941Y-71078163D01*
X49500613Y-71246522D01*
X49500613Y-71381208D01*
X49466941Y-71482224D01*
X30734095Y-25868381D02*
X30734095Y-26677905D01*
X30781714Y-26773143D01*
X30829333Y-26820762D01*
X30924571Y-26868381D01*
X31115048Y-26868381D01*
X31210286Y-26820762D01*
X31257905Y-26773143D01*
X31305524Y-26677905D01*
X31305524Y-25868381D01*
X31734095Y-25963619D02*
X31781714Y-25916000D01*
X31876952Y-25868381D01*
X32115048Y-25868381D01*
X32210286Y-25916000D01*
X32257905Y-25963619D01*
X32305524Y-26058857D01*
X32305524Y-26154095D01*
X32257905Y-26296952D01*
X31686476Y-26868381D01*
X32305524Y-26868381D01*
X72390095Y-57872381D02*
X72390095Y-58681905D01*
X72437714Y-58777143D01*
X72485333Y-58824762D01*
X72580571Y-58872381D01*
X72771048Y-58872381D01*
X72866286Y-58824762D01*
X72913905Y-58777143D01*
X72961524Y-58681905D01*
X72961524Y-57872381D01*
X73342476Y-57872381D02*
X73961524Y-57872381D01*
X73628190Y-58253333D01*
X73771048Y-58253333D01*
X73866286Y-58300952D01*
X73913905Y-58348571D01*
X73961524Y-58443810D01*
X73961524Y-58681905D01*
X73913905Y-58777143D01*
X73866286Y-58824762D01*
X73771048Y-58872381D01*
X73485333Y-58872381D01*
X73390095Y-58824762D01*
X73342476Y-58777143D01*
X39600190Y-72104191D02*
X40076381Y-72104191D01*
X39076381Y-72437524D02*
X39600190Y-72104191D01*
X39076381Y-71770857D01*
X40076381Y-70913714D02*
X40076381Y-71485143D01*
X40076381Y-71199429D02*
X39076381Y-71199429D01*
X39219238Y-71294667D01*
X39314476Y-71389905D01*
X39362095Y-71485143D01*
X29678334Y-35917143D02*
X29630715Y-35964762D01*
X29487858Y-36012381D01*
X29392620Y-36012381D01*
X29249762Y-35964762D01*
X29154524Y-35869524D01*
X29106905Y-35774286D01*
X29059286Y-35583810D01*
X29059286Y-35440952D01*
X29106905Y-35250476D01*
X29154524Y-35155238D01*
X29249762Y-35060000D01*
X29392620Y-35012381D01*
X29487858Y-35012381D01*
X29630715Y-35060000D01*
X29678334Y-35107619D01*
X30154524Y-36012381D02*
X30345000Y-36012381D01*
X30440239Y-35964762D01*
X30487858Y-35917143D01*
X30583096Y-35774286D01*
X30630715Y-35583810D01*
X30630715Y-35202857D01*
X30583096Y-35107619D01*
X30535477Y-35060000D01*
X30440239Y-35012381D01*
X30249762Y-35012381D01*
X30154524Y-35060000D01*
X30106905Y-35107619D01*
X30059286Y-35202857D01*
X30059286Y-35440952D01*
X30106905Y-35536190D01*
X30154524Y-35583810D01*
X30249762Y-35631429D01*
X30440239Y-35631429D01*
X30535477Y-35583810D01*
X30583096Y-35536190D01*
X30630715Y-35440952D01*
X64285905Y-76652381D02*
X64285905Y-75652381D01*
X64524000Y-75652381D01*
X64666858Y-75700000D01*
X64762096Y-75795238D01*
X64809715Y-75890476D01*
X64857334Y-76080952D01*
X64857334Y-76223810D01*
X64809715Y-76414286D01*
X64762096Y-76509524D01*
X64666858Y-76604762D01*
X64524000Y-76652381D01*
X64285905Y-76652381D01*
X65714477Y-75652381D02*
X65524000Y-75652381D01*
X65428762Y-75700000D01*
X65381143Y-75747619D01*
X65285905Y-75890476D01*
X65238286Y-76080952D01*
X65238286Y-76461905D01*
X65285905Y-76557143D01*
X65333524Y-76604762D01*
X65428762Y-76652381D01*
X65619239Y-76652381D01*
X65714477Y-76604762D01*
X65762096Y-76557143D01*
X65809715Y-76461905D01*
X65809715Y-76223810D01*
X65762096Y-76128571D01*
X65714477Y-76080952D01*
X65619239Y-76033333D01*
X65428762Y-76033333D01*
X65333524Y-76080952D01*
X65285905Y-76128571D01*
X65238286Y-76223810D01*
X62349143Y-81224381D02*
X62015809Y-80748190D01*
X61777714Y-81224381D02*
X61777714Y-80224381D01*
X62158667Y-80224381D01*
X62253905Y-80272000D01*
X62301524Y-80319619D01*
X62349143Y-80414857D01*
X62349143Y-80557714D01*
X62301524Y-80652952D01*
X62253905Y-80700571D01*
X62158667Y-80748190D01*
X61777714Y-80748190D01*
X63301524Y-81224381D02*
X62730095Y-81224381D01*
X63015809Y-81224381D02*
X63015809Y-80224381D01*
X62920571Y-80367238D01*
X62825333Y-80462476D01*
X62730095Y-80510095D01*
X63872952Y-80652952D02*
X63777714Y-80605333D01*
X63730095Y-80557714D01*
X63682476Y-80462476D01*
X63682476Y-80414857D01*
X63730095Y-80319619D01*
X63777714Y-80272000D01*
X63872952Y-80224381D01*
X64063429Y-80224381D01*
X64158667Y-80272000D01*
X64206286Y-80319619D01*
X64253905Y-80414857D01*
X64253905Y-80462476D01*
X64206286Y-80557714D01*
X64158667Y-80605333D01*
X64063429Y-80652952D01*
X63872952Y-80652952D01*
X63777714Y-80700571D01*
X63730095Y-80748190D01*
X63682476Y-80843429D01*
X63682476Y-81033905D01*
X63730095Y-81129143D01*
X63777714Y-81176762D01*
X63872952Y-81224381D01*
X64063429Y-81224381D01*
X64158667Y-81176762D01*
X64206286Y-81129143D01*
X64253905Y-81033905D01*
X64253905Y-80843429D01*
X64206286Y-80748190D01*
X64158667Y-80700571D01*
X64063429Y-80652952D01*
X32924762Y-57443619D02*
X32829524Y-57396000D01*
X32734286Y-57300762D01*
X32591429Y-57157905D01*
X32496190Y-57110286D01*
X32400952Y-57110286D01*
X32448571Y-57348381D02*
X32353333Y-57300762D01*
X32258095Y-57205524D01*
X32210476Y-57015048D01*
X32210476Y-56681714D01*
X32258095Y-56491238D01*
X32353333Y-56396000D01*
X32448571Y-56348381D01*
X32639048Y-56348381D01*
X32734286Y-56396000D01*
X32829524Y-56491238D01*
X32877143Y-56681714D01*
X32877143Y-57015048D01*
X32829524Y-57205524D01*
X32734286Y-57300762D01*
X32639048Y-57348381D01*
X32448571Y-57348381D01*
X33258095Y-56443619D02*
X33305714Y-56396000D01*
X33400952Y-56348381D01*
X33639048Y-56348381D01*
X33734286Y-56396000D01*
X33781905Y-56443619D01*
X33829524Y-56538857D01*
X33829524Y-56634095D01*
X33781905Y-56776952D01*
X33210476Y-57348381D01*
X33829524Y-57348381D01*
X71159619Y-44799238D02*
X71112000Y-44894476D01*
X71016762Y-44989714D01*
X70873905Y-45132571D01*
X70826286Y-45227810D01*
X70826286Y-45323048D01*
X71064381Y-45275429D02*
X71016762Y-45370667D01*
X70921524Y-45465905D01*
X70731048Y-45513524D01*
X70397714Y-45513524D01*
X70207238Y-45465905D01*
X70112000Y-45370667D01*
X70064381Y-45275429D01*
X70064381Y-45084952D01*
X70112000Y-44989714D01*
X70207238Y-44894476D01*
X70397714Y-44846857D01*
X70731048Y-44846857D01*
X70921524Y-44894476D01*
X71016762Y-44989714D01*
X71064381Y-45084952D01*
X71064381Y-45275429D01*
X70064381Y-44513524D02*
X70064381Y-43894476D01*
X70445333Y-44227810D01*
X70445333Y-44084952D01*
X70492952Y-43989714D01*
X70540571Y-43942095D01*
X70635810Y-43894476D01*
X70873905Y-43894476D01*
X70969143Y-43942095D01*
X71016762Y-43989714D01*
X71064381Y-44084952D01*
X71064381Y-44370667D01*
X71016762Y-44465905D01*
X70969143Y-44513524D01*
X66452762Y-56427619D02*
X66357524Y-56380000D01*
X66262286Y-56284762D01*
X66119429Y-56141905D01*
X66024190Y-56094286D01*
X65928952Y-56094286D01*
X65976571Y-56332381D02*
X65881333Y-56284762D01*
X65786095Y-56189524D01*
X65738476Y-55999048D01*
X65738476Y-55665714D01*
X65786095Y-55475238D01*
X65881333Y-55380000D01*
X65976571Y-55332381D01*
X66167048Y-55332381D01*
X66262286Y-55380000D01*
X66357524Y-55475238D01*
X66405143Y-55665714D01*
X66405143Y-55999048D01*
X66357524Y-56189524D01*
X66262286Y-56284762D01*
X66167048Y-56332381D01*
X65976571Y-56332381D01*
X67357524Y-56332381D02*
X66786095Y-56332381D01*
X67071809Y-56332381D02*
X67071809Y-55332381D01*
X66976571Y-55475238D01*
X66881333Y-55570476D01*
X66786095Y-55618095D01*
X69461143Y-72080381D02*
X69127809Y-71604190D01*
X68889714Y-72080381D02*
X68889714Y-71080381D01*
X69270667Y-71080381D01*
X69365905Y-71128000D01*
X69413524Y-71175619D01*
X69461143Y-71270857D01*
X69461143Y-71413714D01*
X69413524Y-71508952D01*
X69365905Y-71556571D01*
X69270667Y-71604190D01*
X68889714Y-71604190D01*
X70413524Y-72080381D02*
X69842095Y-72080381D01*
X70127809Y-72080381D02*
X70127809Y-71080381D01*
X70032571Y-71223238D01*
X69937333Y-71318476D01*
X69842095Y-71366095D01*
X70889714Y-72080381D02*
X71080190Y-72080381D01*
X71175429Y-72032762D01*
X71223048Y-71985143D01*
X71318286Y-71842286D01*
X71365905Y-71651810D01*
X71365905Y-71270857D01*
X71318286Y-71175619D01*
X71270667Y-71128000D01*
X71175429Y-71080381D01*
X70984952Y-71080381D01*
X70889714Y-71128000D01*
X70842095Y-71175619D01*
X70794476Y-71270857D01*
X70794476Y-71508952D01*
X70842095Y-71604190D01*
X70889714Y-71651810D01*
X70984952Y-71699429D01*
X71175429Y-71699429D01*
X71270667Y-71651810D01*
X71318286Y-71604190D01*
X71365905Y-71508952D01*
X52601905Y-33980381D02*
X52601905Y-32980381D01*
X52840000Y-32980381D01*
X52982858Y-33028000D01*
X53078096Y-33123238D01*
X53125715Y-33218476D01*
X53173334Y-33408952D01*
X53173334Y-33551810D01*
X53125715Y-33742286D01*
X53078096Y-33837524D01*
X52982858Y-33932762D01*
X52840000Y-33980381D01*
X52601905Y-33980381D01*
X53506667Y-32980381D02*
X54173334Y-32980381D01*
X53744762Y-33980381D01*
X48450667Y-32179521D02*
X48450667Y-31179521D01*
X48831620Y-31179521D01*
X48926858Y-31227140D01*
X48974477Y-31274759D01*
X49022096Y-31369997D01*
X49022096Y-31512854D01*
X48974477Y-31608092D01*
X48926858Y-31655711D01*
X48831620Y-31703330D01*
X48450667Y-31703330D01*
X49355429Y-31179521D02*
X49593524Y-32179521D01*
X49784001Y-31465235D01*
X49974477Y-32179521D01*
X50212572Y-31179521D01*
X51164953Y-32179521D02*
X50831619Y-31703330D01*
X50593524Y-32179521D02*
X50593524Y-31179521D01*
X50974477Y-31179521D01*
X51069715Y-31227140D01*
X51117334Y-31274759D01*
X51164953Y-31369997D01*
X51164953Y-31512854D01*
X51117334Y-31608092D01*
X51069715Y-31655711D01*
X50974477Y-31703330D01*
X50593524Y-31703330D01*
X49958667Y-29424381D02*
X49958667Y-30138667D01*
X49911047Y-30281524D01*
X49815809Y-30376762D01*
X49672952Y-30424381D01*
X49577714Y-30424381D01*
X50958667Y-30424381D02*
X50387238Y-30424381D01*
X50672952Y-30424381D02*
X50672952Y-29424381D01*
X50577714Y-29567238D01*
X50482476Y-29662476D01*
X50387238Y-29710095D01*
X56253143Y-31948381D02*
X55919809Y-31472190D01*
X55681714Y-31948381D02*
X55681714Y-30948381D01*
X56062667Y-30948381D01*
X56157905Y-30996000D01*
X56205524Y-31043619D01*
X56253143Y-31138857D01*
X56253143Y-31281714D01*
X56205524Y-31376952D01*
X56157905Y-31424571D01*
X56062667Y-31472190D01*
X55681714Y-31472190D01*
X56634095Y-31043619D02*
X56681714Y-30996000D01*
X56776952Y-30948381D01*
X57015048Y-30948381D01*
X57110286Y-30996000D01*
X57157905Y-31043619D01*
X57205524Y-31138857D01*
X57205524Y-31234095D01*
X57157905Y-31376952D01*
X56586476Y-31948381D01*
X57205524Y-31948381D01*
X57824571Y-30948381D02*
X57919810Y-30948381D01*
X58015048Y-30996000D01*
X58062667Y-31043619D01*
X58110286Y-31138857D01*
X58157905Y-31329333D01*
X58157905Y-31567429D01*
X58110286Y-31757905D01*
X58062667Y-31853143D01*
X58015048Y-31900762D01*
X57919810Y-31948381D01*
X57824571Y-31948381D01*
X57729333Y-31900762D01*
X57681714Y-31853143D01*
X57634095Y-31757905D01*
X57586476Y-31567429D01*
X57586476Y-31329333D01*
X57634095Y-31138857D01*
X57681714Y-31043619D01*
X57729333Y-30996000D01*
X57824571Y-30948381D01*
D19*
X21668619Y-50122667D02*
X22394333Y-50122667D01*
X22539476Y-50171047D01*
X22636238Y-50267809D01*
X22684619Y-50412952D01*
X22684619Y-50509714D01*
X21668619Y-49203429D02*
X21668619Y-49396952D01*
X21717000Y-49493714D01*
X21765381Y-49542095D01*
X21910524Y-49638857D01*
X22104048Y-49687238D01*
X22491095Y-49687238D01*
X22587857Y-49638857D01*
X22636238Y-49590476D01*
X22684619Y-49493714D01*
X22684619Y-49300191D01*
X22636238Y-49203429D01*
X22587857Y-49155048D01*
X22491095Y-49106667D01*
X22249190Y-49106667D01*
X22152429Y-49155048D01*
X22104048Y-49203429D01*
X22055667Y-49300191D01*
X22055667Y-49493714D01*
X22104048Y-49590476D01*
X22152429Y-49638857D01*
X22249190Y-49687238D01*
M02*
