G04 #@! TF.FileFunction,Soldermask,Top*
%FSLAX46Y46*%
G04 Gerber Fmt 4.6, Leading zero omitted, Abs format (unit mm)*
G04 Created by KiCad (PCBNEW 4.0.6) date 01/31/18 09:47:40*
%MOMM*%
%LPD*%
G01*
G04 APERTURE LIST*
%ADD10C,0.100000*%
%ADD11R,1.799540X1.700480*%
%ADD12R,1.898600X1.700480*%
%ADD13R,2.200000X2.200000*%
%ADD14C,2.200000*%
%ADD15R,1.700480X1.898600*%
%ADD16C,2.398980*%
%ADD17R,1.598880X1.598880*%
%ADD18R,3.092400X2.000200*%
%ADD19R,1.924000X2.398980*%
%ADD20O,1.924000X2.398980*%
%ADD21R,1.924000X2.599640*%
%ADD22O,1.924000X2.599640*%
%ADD23R,2.200860X1.700480*%
%ADD24R,2.200860X4.199840*%
%ADD25R,2.398980X0.999440*%
%ADD26R,2.398980X5.899100*%
%ADD27R,1.900000X1.900000*%
%ADD28C,1.900000*%
%ADD29R,1.400760X0.999440*%
%ADD30R,0.999440X1.400760*%
%ADD31C,1.598880*%
%ADD32C,2.899360*%
%ADD33R,2.599640X1.924000*%
%ADD34O,2.599640X1.924000*%
G04 APERTURE END LIST*
D10*
D11*
X38608000Y-27866340D03*
X38608000Y-24965660D03*
D12*
X43688000Y-67500500D03*
X43688000Y-65595500D03*
X35560000Y-76644500D03*
X35560000Y-74739500D03*
X54864000Y-80835500D03*
X54864000Y-82740500D03*
X46736000Y-66992500D03*
X46736000Y-65087500D03*
X35560000Y-66611500D03*
X35560000Y-68516500D03*
D13*
X40866000Y-33528000D03*
D14*
X37366000Y-33528000D03*
D15*
X34480500Y-21336000D03*
X32575500Y-21336000D03*
D12*
X25400000Y-27495500D03*
X25400000Y-29400500D03*
X75692000Y-54292500D03*
X75692000Y-52387500D03*
D16*
X72390000Y-25908000D03*
X69850000Y-25908000D03*
X18288000Y-51054000D03*
X18288000Y-48514000D03*
D17*
X73152000Y-63466980D03*
X73152000Y-65565020D03*
X76200000Y-63466980D03*
X76200000Y-65565020D03*
D18*
X38608000Y-21209000D03*
X38608000Y-18415000D03*
D19*
X49276000Y-80269080D03*
D20*
X49276000Y-83306920D03*
X46736000Y-80269080D03*
X46736000Y-83306920D03*
X44196000Y-80269080D03*
X44196000Y-83306920D03*
D21*
X66802000Y-49784000D03*
D22*
X69342000Y-49784000D03*
D21*
X30226000Y-49784000D03*
D22*
X32766000Y-49784000D03*
D12*
X62992000Y-63055500D03*
X62992000Y-64960500D03*
X72644000Y-30543500D03*
X72644000Y-32448500D03*
D15*
X18351500Y-55880000D03*
X20256500Y-55880000D03*
D12*
X66548000Y-64960500D03*
X66548000Y-63055500D03*
D15*
X29908500Y-55880000D03*
X28003500Y-55880000D03*
D12*
X62992000Y-60896500D03*
X62992000Y-58991500D03*
X76200000Y-67627500D03*
X76200000Y-69532500D03*
D15*
X28003500Y-53340000D03*
X29908500Y-53340000D03*
D12*
X73152000Y-69532500D03*
X73152000Y-67627500D03*
X73152000Y-54292500D03*
X73152000Y-52387500D03*
X70104000Y-63563500D03*
X70104000Y-65468500D03*
D15*
X72072500Y-45720000D03*
X70167500Y-45720000D03*
X70167500Y-43180000D03*
X72072500Y-43180000D03*
D12*
X70612000Y-52387500D03*
X70612000Y-54292500D03*
X80264000Y-62039500D03*
X80264000Y-63944500D03*
X81534000Y-53403500D03*
X81534000Y-55308500D03*
X80264000Y-57975500D03*
X80264000Y-59880500D03*
D10*
G36*
X47410235Y-68525690D02*
X48612656Y-69728111D01*
X47940071Y-70400696D01*
X46737650Y-69198275D01*
X47410235Y-68525690D01*
X47410235Y-68525690D01*
G37*
G36*
X46846275Y-69089650D02*
X48048696Y-70292071D01*
X47376111Y-70964656D01*
X46173690Y-69762235D01*
X46846275Y-69089650D01*
X46846275Y-69089650D01*
G37*
G36*
X46280519Y-69655407D02*
X47482940Y-70857828D01*
X46810355Y-71530413D01*
X45607934Y-70327992D01*
X46280519Y-69655407D01*
X46280519Y-69655407D01*
G37*
G36*
X45714763Y-70221163D02*
X46917184Y-71423584D01*
X46244599Y-72096169D01*
X45042178Y-70893748D01*
X45714763Y-70221163D01*
X45714763Y-70221163D01*
G37*
G36*
X45149007Y-70786919D02*
X46351428Y-71989340D01*
X45678843Y-72661925D01*
X44476422Y-71459504D01*
X45149007Y-70786919D01*
X45149007Y-70786919D01*
G37*
G36*
X49107504Y-66828422D02*
X50309925Y-68030843D01*
X49637340Y-68703428D01*
X48434919Y-67501007D01*
X49107504Y-66828422D01*
X49107504Y-66828422D01*
G37*
G36*
X48541748Y-67394178D02*
X49744169Y-68596599D01*
X49071584Y-69269184D01*
X47869163Y-68066763D01*
X48541748Y-67394178D01*
X48541748Y-67394178D01*
G37*
G36*
X47975992Y-67959934D02*
X49178413Y-69162355D01*
X48505828Y-69834940D01*
X47303407Y-68632519D01*
X47975992Y-67959934D01*
X47975992Y-67959934D01*
G37*
G36*
X45678843Y-72626075D02*
X46351428Y-73298660D01*
X45149007Y-74501081D01*
X44476422Y-73828496D01*
X45678843Y-72626075D01*
X45678843Y-72626075D01*
G37*
G36*
X46244599Y-73191831D02*
X46917184Y-73864416D01*
X45714763Y-75066837D01*
X45042178Y-74394252D01*
X46244599Y-73191831D01*
X46244599Y-73191831D01*
G37*
G36*
X46810355Y-73757587D02*
X47482940Y-74430172D01*
X46280519Y-75632593D01*
X45607934Y-74960008D01*
X46810355Y-73757587D01*
X46810355Y-73757587D01*
G37*
G36*
X47376111Y-74323344D02*
X48048696Y-74995929D01*
X46846275Y-76198350D01*
X46173690Y-75525765D01*
X47376111Y-74323344D01*
X47376111Y-74323344D01*
G37*
G36*
X47940071Y-74887304D02*
X48612656Y-75559889D01*
X47410235Y-76762310D01*
X46737650Y-76089725D01*
X47940071Y-74887304D01*
X47940071Y-74887304D01*
G37*
G36*
X48505828Y-75453060D02*
X49178413Y-76125645D01*
X47975992Y-77328066D01*
X47303407Y-76655481D01*
X48505828Y-75453060D01*
X48505828Y-75453060D01*
G37*
G36*
X49071584Y-76018816D02*
X49744169Y-76691401D01*
X48541748Y-77893822D01*
X47869163Y-77221237D01*
X49071584Y-76018816D01*
X49071584Y-76018816D01*
G37*
G36*
X49637340Y-76584572D02*
X50309925Y-77257157D01*
X49107504Y-78459578D01*
X48434919Y-77786993D01*
X49637340Y-76584572D01*
X49637340Y-76584572D01*
G37*
G36*
X50946660Y-76584572D02*
X52149081Y-77786993D01*
X51476496Y-78459578D01*
X50274075Y-77257157D01*
X50946660Y-76584572D01*
X50946660Y-76584572D01*
G37*
G36*
X51512416Y-76018816D02*
X52714837Y-77221237D01*
X52042252Y-77893822D01*
X50839831Y-76691401D01*
X51512416Y-76018816D01*
X51512416Y-76018816D01*
G37*
G36*
X52078172Y-75453060D02*
X53280593Y-76655481D01*
X52608008Y-77328066D01*
X51405587Y-76125645D01*
X52078172Y-75453060D01*
X52078172Y-75453060D01*
G37*
G36*
X52643929Y-74887304D02*
X53846350Y-76089725D01*
X53173765Y-76762310D01*
X51971344Y-75559889D01*
X52643929Y-74887304D01*
X52643929Y-74887304D01*
G37*
G36*
X53207889Y-74323344D02*
X54410310Y-75525765D01*
X53737725Y-76198350D01*
X52535304Y-74995929D01*
X53207889Y-74323344D01*
X53207889Y-74323344D01*
G37*
G36*
X53773645Y-73757587D02*
X54976066Y-74960008D01*
X54303481Y-75632593D01*
X53101060Y-74430172D01*
X53773645Y-73757587D01*
X53773645Y-73757587D01*
G37*
G36*
X54339401Y-73191831D02*
X55541822Y-74394252D01*
X54869237Y-75066837D01*
X53666816Y-73864416D01*
X54339401Y-73191831D01*
X54339401Y-73191831D01*
G37*
G36*
X54905157Y-72626075D02*
X56107578Y-73828496D01*
X55434993Y-74501081D01*
X54232572Y-73298660D01*
X54905157Y-72626075D01*
X54905157Y-72626075D01*
G37*
G36*
X55434993Y-70786919D02*
X56107578Y-71459504D01*
X54905157Y-72661925D01*
X54232572Y-71989340D01*
X55434993Y-70786919D01*
X55434993Y-70786919D01*
G37*
G36*
X54869237Y-70221163D02*
X55541822Y-70893748D01*
X54339401Y-72096169D01*
X53666816Y-71423584D01*
X54869237Y-70221163D01*
X54869237Y-70221163D01*
G37*
G36*
X54303481Y-69655407D02*
X54976066Y-70327992D01*
X53773645Y-71530413D01*
X53101060Y-70857828D01*
X54303481Y-69655407D01*
X54303481Y-69655407D01*
G37*
G36*
X53737725Y-69089650D02*
X54410310Y-69762235D01*
X53207889Y-70964656D01*
X52535304Y-70292071D01*
X53737725Y-69089650D01*
X53737725Y-69089650D01*
G37*
G36*
X53173765Y-68525690D02*
X53846350Y-69198275D01*
X52643929Y-70400696D01*
X51971344Y-69728111D01*
X53173765Y-68525690D01*
X53173765Y-68525690D01*
G37*
G36*
X52608008Y-67959934D02*
X53280593Y-68632519D01*
X52078172Y-69834940D01*
X51405587Y-69162355D01*
X52608008Y-67959934D01*
X52608008Y-67959934D01*
G37*
G36*
X52042252Y-67394178D02*
X52714837Y-68066763D01*
X51512416Y-69269184D01*
X50839831Y-68596599D01*
X52042252Y-67394178D01*
X52042252Y-67394178D01*
G37*
G36*
X51476496Y-66828422D02*
X52149081Y-67501007D01*
X50946660Y-68703428D01*
X50274075Y-68030843D01*
X51476496Y-66828422D01*
X51476496Y-66828422D01*
G37*
D23*
X34495740Y-28717240D03*
X34495740Y-26416000D03*
X34495740Y-24114760D03*
D24*
X28496260Y-26416000D03*
D25*
X70358000Y-56515000D03*
X70358000Y-57785000D03*
X70358000Y-59055000D03*
X70358000Y-60325000D03*
X75946000Y-60325000D03*
X75946000Y-59055000D03*
X75946000Y-57785000D03*
X75946000Y-56515000D03*
D26*
X39624000Y-76377800D03*
X39624000Y-66878200D03*
D27*
X30845000Y-33655000D03*
D28*
X28845000Y-33655000D03*
D16*
X69088000Y-77470000D03*
X69088000Y-74930000D03*
D15*
X63944500Y-78740000D03*
X62039500Y-78740000D03*
D29*
X34076640Y-55308500D03*
X31963360Y-54356000D03*
X34076640Y-53403500D03*
X65999360Y-43751500D03*
X68112640Y-44704000D03*
X65999360Y-45656500D03*
D30*
X65595500Y-59984640D03*
X66548000Y-57871360D03*
X67500500Y-59984640D03*
D12*
X70104000Y-67627500D03*
X70104000Y-69532500D03*
D17*
X50833020Y-33528000D03*
X48734980Y-33528000D03*
D31*
X48770540Y-24328120D03*
X46741080Y-24328120D03*
X47754540Y-26108660D03*
X49784000Y-26108660D03*
X50800000Y-24328120D03*
X51813460Y-26108660D03*
X52829460Y-24328120D03*
X53842920Y-26108660D03*
D32*
X58412380Y-25217120D03*
X42171620Y-25217120D03*
D15*
X57848500Y-33528000D03*
X55943500Y-33528000D03*
D33*
X24384000Y-53594000D03*
D34*
X24384000Y-51054000D03*
X24384000Y-48514000D03*
X24384000Y-45974000D03*
M02*
