G04 #@! TF.FileFunction,Soldermask,Top*
%FSLAX46Y46*%
G04 Gerber Fmt 4.6, Leading zero omitted, Abs format (unit mm)*
G04 Created by KiCad (PCBNEW 4.0.6) date 02/09/18 11:50:01*
%MOMM*%
%LPD*%
G01*
G04 APERTURE LIST*
%ADD10C,0.100000*%
%ADD11R,1.700480X1.898600*%
%ADD12R,1.898600X1.700480*%
%ADD13R,2.200000X2.200000*%
%ADD14C,2.200000*%
%ADD15R,1.900000X1.900000*%
%ADD16C,1.900000*%
%ADD17R,1.700480X1.799540*%
%ADD18R,1.598880X1.598880*%
%ADD19R,2.000200X3.092400*%
%ADD20R,1.924000X2.398980*%
%ADD21O,1.924000X2.398980*%
%ADD22R,1.924000X2.599640*%
%ADD23O,1.924000X2.599640*%
%ADD24C,1.598880*%
%ADD25C,2.899360*%
%ADD26R,1.400760X0.999440*%
%ADD27R,0.999440X1.400760*%
%ADD28R,1.700480X0.951180*%
%ADD29R,0.951180X1.700480*%
%ADD30R,1.700480X2.200860*%
%ADD31R,4.199840X2.200860*%
%ADD32R,2.398980X0.999440*%
%ADD33R,2.398980X5.899100*%
%ADD34C,2.398980*%
G04 APERTURE END LIST*
D10*
D11*
X41211500Y-56134000D03*
X43116500Y-56134000D03*
D12*
X21336000Y-52641500D03*
X21336000Y-54546500D03*
X26924000Y-47942500D03*
X26924000Y-46037500D03*
D11*
X39814500Y-46736000D03*
X37909500Y-46736000D03*
D12*
X21336000Y-62166500D03*
X21336000Y-60261500D03*
D13*
X47470000Y-26416000D03*
D14*
X43970000Y-26416000D03*
D11*
X52641500Y-26416000D03*
X54546500Y-26416000D03*
X39814500Y-44196000D03*
X37909500Y-44196000D03*
D15*
X41164000Y-51562000D03*
D16*
X43164000Y-51562000D03*
D11*
X33845500Y-34290000D03*
X35750500Y-34290000D03*
D17*
X41475660Y-37084000D03*
X44376340Y-37084000D03*
D18*
X54389020Y-22098000D03*
X52290980Y-22098000D03*
X42638980Y-39624000D03*
X44737020Y-39624000D03*
X42638980Y-42164000D03*
X44737020Y-42164000D03*
D19*
X44323000Y-33020000D03*
X41529000Y-33020000D03*
D20*
X37338000Y-62235080D03*
D21*
X37338000Y-65272920D03*
X34798000Y-62235080D03*
X34798000Y-65272920D03*
X32258000Y-62235080D03*
X32258000Y-65272920D03*
D22*
X44196000Y-65024000D03*
D23*
X46736000Y-65024000D03*
X49276000Y-65024000D03*
X51816000Y-65024000D03*
D24*
X28704540Y-28646120D03*
X26675080Y-28646120D03*
X27688540Y-30426660D03*
X29718000Y-30426660D03*
X30734000Y-28646120D03*
X31747460Y-30426660D03*
X32763460Y-28646120D03*
X33776920Y-30426660D03*
D25*
X38346380Y-29535120D03*
X22105620Y-29535120D03*
D26*
X26964640Y-43878500D03*
X24851360Y-42926000D03*
X26964640Y-41973500D03*
D27*
X45529500Y-59730640D03*
X46482000Y-57617360D03*
X47434500Y-59730640D03*
X51879500Y-62016640D03*
X52832000Y-59903360D03*
X53784500Y-62016640D03*
D12*
X34798000Y-45021500D03*
X34798000Y-46926500D03*
D11*
X59118500Y-22098000D03*
X57213500Y-22098000D03*
D12*
X31242000Y-46926500D03*
X31242000Y-45021500D03*
X29210000Y-46926500D03*
X29210000Y-45021500D03*
D11*
X42354500Y-60706000D03*
X40449500Y-60706000D03*
D12*
X24384000Y-47942500D03*
X24384000Y-46037500D03*
D11*
X49339500Y-41402000D03*
X51244500Y-41402000D03*
X44513500Y-62230000D03*
X46418500Y-62230000D03*
X51244500Y-43688000D03*
X49339500Y-43688000D03*
X24828500Y-35306000D03*
X22923500Y-35306000D03*
X24828500Y-39370000D03*
X22923500Y-39370000D03*
D12*
X56642000Y-62928500D03*
X56642000Y-61023500D03*
X49276000Y-60261500D03*
X49276000Y-62166500D03*
D11*
X22923500Y-37338000D03*
X24828500Y-37338000D03*
X36004500Y-41910000D03*
X34099500Y-41910000D03*
D12*
X38862000Y-34861500D03*
X38862000Y-36766500D03*
X36576000Y-37147500D03*
X36576000Y-39052500D03*
D28*
X29682440Y-53703220D03*
X29682440Y-54500780D03*
X29682440Y-55300880D03*
X29682440Y-56100980D03*
X29682440Y-56901080D03*
X29682440Y-51302920D03*
X29682440Y-52103020D03*
X29682440Y-52903120D03*
D29*
X30982920Y-58201560D03*
X31783020Y-58201560D03*
X32583120Y-58201560D03*
X33383220Y-58201560D03*
X34180780Y-58201560D03*
X34980880Y-58201560D03*
X35780980Y-58201560D03*
X36581080Y-58201560D03*
D28*
X37881560Y-56901080D03*
X37881560Y-56100980D03*
X37881560Y-55300880D03*
X37881560Y-54500780D03*
X37881560Y-53703220D03*
X37881560Y-52903120D03*
X37881560Y-52103020D03*
X37881560Y-51302920D03*
D29*
X36581080Y-50002440D03*
X35780980Y-50002440D03*
X34980880Y-50002440D03*
X34180780Y-50002440D03*
X33383220Y-50002440D03*
X32583120Y-50002440D03*
X31783020Y-50002440D03*
X30982920Y-50002440D03*
D30*
X53355240Y-32052260D03*
X51054000Y-32052260D03*
X48752760Y-32052260D03*
D31*
X51054000Y-38051740D03*
D32*
X27940000Y-36195000D03*
X27940000Y-37465000D03*
X27940000Y-38735000D03*
X27940000Y-40005000D03*
X33528000Y-40005000D03*
X33528000Y-38735000D03*
X33528000Y-37465000D03*
X33528000Y-36195000D03*
D33*
X25400000Y-52654200D03*
X25400000Y-62153800D03*
D34*
X55372000Y-47498000D03*
X57912000Y-47498000D03*
X55372000Y-52324000D03*
X57912000Y-52324000D03*
X55372000Y-42672000D03*
X57912000Y-42672000D03*
X19050000Y-47498000D03*
X16510000Y-47498000D03*
X19050000Y-42672000D03*
X16510000Y-42672000D03*
X19050000Y-52324000D03*
X16510000Y-52324000D03*
D27*
X18478500Y-37043360D03*
X17526000Y-39156640D03*
X16573500Y-37043360D03*
D26*
X49997360Y-46545500D03*
X52110640Y-47498000D03*
X49997360Y-48450500D03*
D11*
X57594500Y-56642000D03*
X55689500Y-56642000D03*
X18452500Y-34500000D03*
X16547500Y-34500000D03*
X16827500Y-56388000D03*
X18732500Y-56388000D03*
D12*
X48006000Y-48450500D03*
X48006000Y-46545500D03*
M02*
