G04 #@! TF.FileFunction,Copper,L1,Top,Signal*
%FSLAX46Y46*%
G04 Gerber Fmt 4.6, Leading zero omitted, Abs format (unit mm)*
G04 Created by KiCad (PCBNEW 4.0.7) date 03/02/18 13:50:20*
%MOMM*%
%LPD*%
G01*
G04 APERTURE LIST*
%ADD10C,0.100000*%
%ADD11R,1.998980X0.599440*%
%ADD12C,2.999740*%
%ADD13R,1.198880X1.198880*%
%ADD14C,2.499360*%
%ADD15R,1.300480X1.399540*%
%ADD16R,1.300480X1.498600*%
%ADD17R,1.498600X1.300480*%
%ADD18R,1.600000X1.600000*%
%ADD19C,1.600000*%
%ADD20C,2.500000*%
%ADD21R,1.998980X1.524000*%
%ADD22O,1.998980X1.524000*%
%ADD23R,1.524000X2.199640*%
%ADD24O,1.524000X2.199640*%
%ADD25C,5.001260*%
%ADD26O,1.998980X1.501140*%
%ADD27C,2.200000*%
%ADD28C,2.600000*%
%ADD29C,2.800000*%
%ADD30C,2.000000*%
%ADD31R,1.998980X5.499100*%
%ADD32R,1.200000X1.200000*%
%ADD33C,1.200000*%
%ADD34O,2.199640X1.501140*%
%ADD35C,1.500000*%
%ADD36C,0.500000*%
%ADD37C,0.300000*%
%ADD38C,0.250000*%
%ADD39C,0.254000*%
G04 APERTURE END LIST*
D10*
D11*
X55118000Y-59309000D03*
X55118000Y-58039000D03*
X55118000Y-56769000D03*
X55118000Y-55499000D03*
X55118000Y-54229000D03*
X55118000Y-52959000D03*
X55118000Y-51689000D03*
X55118000Y-50419000D03*
X49530000Y-50419000D03*
X49530000Y-51689000D03*
X49530000Y-52959000D03*
X49530000Y-54229000D03*
X49530000Y-55499000D03*
X49530000Y-56769000D03*
X49530000Y-58039000D03*
X49530000Y-59309000D03*
D12*
X78000000Y-18000000D03*
X28000000Y-18000000D03*
X28000000Y-89000000D03*
D13*
X22606000Y-45432980D03*
X22606000Y-47531020D03*
X58928000Y-26195020D03*
X58928000Y-24096980D03*
X61976000Y-26195020D03*
X61976000Y-24096980D03*
D14*
X52578000Y-38049200D03*
X47498000Y-38049200D03*
X50038000Y-40589200D03*
D15*
X31549340Y-27940000D03*
X28648660Y-27940000D03*
D16*
X41719500Y-62484000D03*
X43624500Y-62484000D03*
X23939500Y-72644000D03*
X25844500Y-72644000D03*
X46672500Y-59182000D03*
X44767500Y-59182000D03*
D17*
X21590000Y-55816500D03*
X21590000Y-53911500D03*
D18*
X37945000Y-33020000D03*
D19*
X34445000Y-33020000D03*
D17*
X46355000Y-40830500D03*
X46355000Y-42735500D03*
X53594000Y-41211500D03*
X53594000Y-43116500D03*
X27686000Y-56324500D03*
X27686000Y-54419500D03*
D20*
X39076000Y-20066000D03*
X34076000Y-20066000D03*
D21*
X26410920Y-81788000D03*
D22*
X23373080Y-81788000D03*
X26410920Y-79248000D03*
X23373080Y-79248000D03*
X26410920Y-76708000D03*
X23373080Y-76708000D03*
D23*
X26162000Y-85344000D03*
D24*
X23622000Y-85344000D03*
D25*
X67564000Y-24081740D03*
D26*
X66045080Y-36576000D03*
X66045080Y-33804860D03*
X66045080Y-31036260D03*
X66045080Y-39347140D03*
X66045080Y-42115740D03*
X69082920Y-40731440D03*
X69082920Y-37960300D03*
X69082920Y-35191700D03*
X69082920Y-32420560D03*
D25*
X67564000Y-49070260D03*
D20*
X55666000Y-86995000D03*
X60666000Y-86995000D03*
X44998000Y-86995000D03*
X49998000Y-86995000D03*
X34330000Y-86995000D03*
X39330000Y-86995000D03*
D16*
X43624500Y-44704000D03*
X41719500Y-44704000D03*
X43624500Y-42164000D03*
X41719500Y-42164000D03*
X45656500Y-51562000D03*
X43751500Y-51562000D03*
X45656500Y-49276000D03*
X43751500Y-49276000D03*
D27*
X67560000Y-67214000D03*
D28*
X79760000Y-67214000D03*
X79760000Y-55214000D03*
D27*
X67560000Y-55214000D03*
D29*
X65560000Y-61214000D03*
D27*
X67560000Y-84232000D03*
D28*
X79760000Y-84232000D03*
X79760000Y-72232000D03*
D27*
X67560000Y-72232000D03*
D29*
X65560000Y-78232000D03*
D30*
X24241000Y-19999000D03*
X22241000Y-27499000D03*
D31*
X23876000Y-68503800D03*
X23876000Y-59004200D03*
D17*
X26924000Y-41338500D03*
X26924000Y-39433500D03*
D32*
X59944000Y-60186000D03*
D33*
X59944000Y-58686000D03*
D32*
X59944000Y-54852000D03*
D33*
X59944000Y-53352000D03*
D32*
X52324000Y-62242000D03*
D33*
X52324000Y-63742000D03*
D32*
X60694000Y-48768000D03*
D33*
X59194000Y-48768000D03*
D17*
X62000000Y-29347500D03*
X62000000Y-31252500D03*
X58928000Y-29273500D03*
X58928000Y-31178500D03*
X22606000Y-41338500D03*
X22606000Y-39433500D03*
D12*
X78000000Y-89000000D03*
D34*
X30988000Y-42164000D03*
X30988000Y-44704000D03*
X30988000Y-47244000D03*
X30988000Y-49784000D03*
X30988000Y-52324000D03*
X30988000Y-54864000D03*
X30988000Y-57404000D03*
X30988000Y-59944000D03*
X30988000Y-62484000D03*
X30988000Y-65024000D03*
X30988000Y-67564000D03*
X30988000Y-70104000D03*
X30988000Y-72644000D03*
X30988000Y-75184000D03*
X38608000Y-75184000D03*
X38608000Y-72644000D03*
X38608000Y-70104000D03*
X38608000Y-67564000D03*
X38608000Y-65024000D03*
X38608000Y-62484000D03*
X38608000Y-59944000D03*
X38608000Y-57404000D03*
X38608000Y-54864000D03*
X38608000Y-52324000D03*
X38608000Y-49784000D03*
X38608000Y-47244000D03*
X38608000Y-44704000D03*
X38608000Y-42164000D03*
D18*
X58674000Y-38374000D03*
D19*
X58674000Y-40874000D03*
D35*
X42418000Y-37846000D03*
X28702000Y-77724000D03*
X23876000Y-51562000D03*
X56134000Y-69342000D03*
X58166000Y-78994000D03*
D36*
X26924000Y-39433500D02*
X30924500Y-39433500D01*
X32512000Y-37846000D02*
X42418000Y-37846000D01*
X30924500Y-39433500D02*
X32512000Y-37846000D01*
X43624500Y-42164000D02*
X43624500Y-39052500D01*
X43624500Y-39052500D02*
X42418000Y-37846000D01*
X43624500Y-42164000D02*
X43624500Y-44704000D01*
X38608000Y-62484000D02*
X37592000Y-62484000D01*
X37592000Y-62484000D02*
X32512000Y-57404000D01*
X32512000Y-57404000D02*
X30988000Y-57404000D01*
X46672500Y-59182000D02*
X46672500Y-62293500D01*
X41719500Y-64071500D02*
X41719500Y-62484000D01*
X42418000Y-64770000D02*
X41719500Y-64071500D01*
X44196000Y-64770000D02*
X42418000Y-64770000D01*
X46672500Y-62293500D02*
X44196000Y-64770000D01*
X41719500Y-62484000D02*
X38608000Y-62484000D01*
X49530000Y-59309000D02*
X46799500Y-59309000D01*
X46799500Y-59309000D02*
X46672500Y-59182000D01*
X22606000Y-39433500D02*
X26924000Y-39433500D01*
X30988000Y-57404000D02*
X29972000Y-57404000D01*
X29972000Y-57404000D02*
X28892500Y-56324500D01*
X28892500Y-56324500D02*
X27686000Y-56324500D01*
X53594000Y-41211500D02*
X53594000Y-39065200D01*
X53594000Y-39065200D02*
X52578000Y-38049200D01*
X52578000Y-38049200D02*
X58349200Y-38049200D01*
X58349200Y-38049200D02*
X58674000Y-38374000D01*
X30988000Y-59944000D02*
X28194000Y-59944000D01*
X25654000Y-57404000D02*
X25654000Y-54419500D01*
X28194000Y-59944000D02*
X25654000Y-57404000D01*
X49530000Y-58039000D02*
X51181000Y-58039000D01*
X53594000Y-45720000D02*
X53594000Y-43116500D01*
X52070000Y-47244000D02*
X53594000Y-45720000D01*
X52070000Y-57150000D02*
X52070000Y-47244000D01*
X51181000Y-58039000D02*
X52070000Y-57150000D01*
X22606000Y-47531020D02*
X22606000Y-50038000D01*
X21590000Y-51054000D02*
X21590000Y-53911500D01*
X22606000Y-50038000D02*
X21590000Y-51054000D01*
X27686000Y-54419500D02*
X25654000Y-54419500D01*
X25654000Y-54419500D02*
X24955500Y-54419500D01*
X24955500Y-54419500D02*
X24447500Y-53911500D01*
X24447500Y-53911500D02*
X21590000Y-53911500D01*
X23622000Y-76708000D02*
X23622000Y-74930000D01*
X25844500Y-73914000D02*
X25844500Y-72644000D01*
X25336500Y-74422000D02*
X25844500Y-73914000D01*
X24130000Y-74422000D02*
X25336500Y-74422000D01*
X23622000Y-74930000D02*
X24130000Y-74422000D01*
X43624500Y-62484000D02*
X43624500Y-61531500D01*
X44767500Y-60388500D02*
X44767500Y-59182000D01*
X43624500Y-61531500D02*
X44767500Y-60388500D01*
X49530000Y-58039000D02*
X48133000Y-58039000D01*
X44767500Y-57594500D02*
X44767500Y-59182000D01*
X45212000Y-57150000D02*
X44767500Y-57594500D01*
X47244000Y-57150000D02*
X45212000Y-57150000D01*
X48133000Y-58039000D02*
X47244000Y-57150000D01*
X38608000Y-57404000D02*
X40640000Y-57404000D01*
X42418000Y-59182000D02*
X44767500Y-59182000D01*
X40640000Y-57404000D02*
X42418000Y-59182000D01*
X58928000Y-24096980D02*
X56167020Y-24096980D01*
X56167020Y-24096980D02*
X50038000Y-30226000D01*
X50038000Y-40589200D02*
X50038000Y-30226000D01*
X50038000Y-30226000D02*
X50038000Y-29972000D01*
X50038000Y-29972000D02*
X45720000Y-25654000D01*
X45720000Y-25654000D02*
X36576000Y-25654000D01*
X36576000Y-25654000D02*
X34076000Y-23154000D01*
X34076000Y-23154000D02*
X34076000Y-20066000D01*
X61976000Y-24096980D02*
X58928000Y-24096980D01*
X50038000Y-40589200D02*
X50038000Y-42164000D01*
X49466500Y-42735500D02*
X46355000Y-42735500D01*
X50038000Y-42164000D02*
X49466500Y-42735500D01*
X50038000Y-40589200D02*
X50038000Y-42418000D01*
X50038000Y-42418000D02*
X50736500Y-43116500D01*
X50736500Y-43116500D02*
X53594000Y-43116500D01*
X58674000Y-40874000D02*
X58186000Y-40874000D01*
X58186000Y-40874000D02*
X55943500Y-43116500D01*
X55943500Y-43116500D02*
X53594000Y-43116500D01*
X22241000Y-27499000D02*
X22241000Y-29353000D01*
X25908000Y-33020000D02*
X34445000Y-33020000D01*
X22241000Y-29353000D02*
X25908000Y-33020000D01*
D37*
X23939500Y-72644000D02*
X23939500Y-68567300D01*
X23939500Y-68567300D02*
X23876000Y-68503800D01*
X23876000Y-68503800D02*
X25222200Y-68503800D01*
X28702000Y-65024000D02*
X30988000Y-65024000D01*
X25222200Y-68503800D02*
X28702000Y-65024000D01*
X21590000Y-55816500D02*
X21590000Y-58420000D01*
X22174200Y-59004200D02*
X23876000Y-59004200D01*
X21590000Y-58420000D02*
X22174200Y-59004200D01*
X30988000Y-62484000D02*
X29210000Y-62484000D01*
X25730200Y-59004200D02*
X23876000Y-59004200D01*
X29210000Y-62484000D02*
X25730200Y-59004200D01*
D36*
X47498000Y-38049200D02*
X47498000Y-38100000D01*
X47498000Y-38100000D02*
X46355000Y-39243000D01*
X46355000Y-39243000D02*
X46355000Y-40830500D01*
X47498000Y-38049200D02*
X47498000Y-36322000D01*
X44196000Y-33020000D02*
X37945000Y-33020000D01*
X47498000Y-36322000D02*
X44196000Y-33020000D01*
X31549340Y-27940000D02*
X35814000Y-27940000D01*
X37945000Y-30071000D02*
X37945000Y-33020000D01*
X35814000Y-27940000D02*
X37945000Y-30071000D01*
D38*
X55118000Y-59309000D02*
X56769000Y-59309000D01*
X57646000Y-60186000D02*
X59944000Y-60186000D01*
X56769000Y-59309000D02*
X57646000Y-60186000D01*
X59944000Y-58686000D02*
X58940000Y-58686000D01*
X57023000Y-56769000D02*
X55118000Y-56769000D01*
X58940000Y-58686000D02*
X57023000Y-56769000D01*
X59944000Y-54852000D02*
X57924000Y-54852000D01*
X57277000Y-55499000D02*
X55118000Y-55499000D01*
X57924000Y-54852000D02*
X57277000Y-55499000D01*
X59944000Y-53352000D02*
X58154000Y-53352000D01*
X57277000Y-54229000D02*
X55118000Y-54229000D01*
X58154000Y-53352000D02*
X57277000Y-54229000D01*
X55118000Y-58039000D02*
X52959000Y-58039000D01*
X52324000Y-58674000D02*
X52324000Y-62242000D01*
X52959000Y-58039000D02*
X52324000Y-58674000D01*
X59194000Y-48768000D02*
X59194000Y-50026000D01*
X56261000Y-52959000D02*
X55118000Y-52959000D01*
X59194000Y-50026000D02*
X56261000Y-52959000D01*
X30988000Y-42164000D02*
X29210000Y-42164000D01*
X28384500Y-41338500D02*
X26924000Y-41338500D01*
X29210000Y-42164000D02*
X28384500Y-41338500D01*
D37*
X26162000Y-85344000D02*
X27940000Y-85344000D01*
X28702000Y-84582000D02*
X28702000Y-77724000D01*
X27940000Y-85344000D02*
X28702000Y-84582000D01*
X41719500Y-44704000D02*
X38608000Y-44704000D01*
X38608000Y-42164000D02*
X36068000Y-42164000D01*
X23876000Y-48514000D02*
X23876000Y-51562000D01*
X28956000Y-43434000D02*
X23876000Y-48514000D01*
X34798000Y-43434000D02*
X28956000Y-43434000D01*
X36068000Y-42164000D02*
X34798000Y-43434000D01*
X41719500Y-42164000D02*
X38608000Y-42164000D01*
D38*
X55118000Y-51689000D02*
X56515000Y-51689000D01*
X63500000Y-36576000D02*
X66294000Y-36576000D01*
X62738000Y-37338000D02*
X63500000Y-36576000D01*
X62738000Y-42164000D02*
X62738000Y-37338000D01*
X57404000Y-47498000D02*
X62738000Y-42164000D01*
X57404000Y-50800000D02*
X57404000Y-47498000D01*
X56515000Y-51689000D02*
X57404000Y-50800000D01*
X66294000Y-36576000D02*
X66294000Y-36322000D01*
X66294000Y-36322000D02*
X67564000Y-35052000D01*
X67564000Y-35052000D02*
X67564000Y-33274000D01*
X67564000Y-33274000D02*
X66802000Y-32512000D01*
X66802000Y-32512000D02*
X64516000Y-32512000D01*
X64516000Y-32512000D02*
X63256500Y-31252500D01*
X63256500Y-31252500D02*
X62000000Y-31252500D01*
X55118000Y-50419000D02*
X55118000Y-46990000D01*
X60474860Y-41633140D02*
X60474860Y-33804860D01*
X55118000Y-46990000D02*
X60474860Y-41633140D01*
X66294000Y-33804860D02*
X60474860Y-33804860D01*
X58928000Y-32258000D02*
X58928000Y-31178500D01*
X60474860Y-33804860D02*
X58928000Y-32258000D01*
X68834000Y-35191700D02*
X68834000Y-37960300D01*
D36*
X55666000Y-86995000D02*
X56261000Y-86995000D01*
X56261000Y-86995000D02*
X58420000Y-89154000D01*
X58420000Y-89154000D02*
X66802000Y-89154000D01*
X66802000Y-89154000D02*
X72390000Y-83566000D01*
X72390000Y-83566000D02*
X72390000Y-64262000D01*
X72390000Y-64262000D02*
X69342000Y-61214000D01*
X69342000Y-61214000D02*
X65560000Y-61214000D01*
X60666000Y-86995000D02*
X60666000Y-83126000D01*
X60666000Y-83126000D02*
X65560000Y-78232000D01*
X79760000Y-55214000D02*
X79760000Y-56130000D01*
X79760000Y-56130000D02*
X74676000Y-61214000D01*
X74676000Y-61214000D02*
X74676000Y-85344000D01*
X74676000Y-85344000D02*
X69342000Y-90678000D01*
X69342000Y-90678000D02*
X38013000Y-90678000D01*
X38013000Y-90678000D02*
X34330000Y-86995000D01*
D37*
X58166000Y-71374000D02*
X56134000Y-69342000D01*
X58166000Y-78994000D02*
X58166000Y-71374000D01*
D38*
X49530000Y-51689000D02*
X45783500Y-51689000D01*
X45783500Y-51689000D02*
X45656500Y-51562000D01*
X43751500Y-51562000D02*
X41148000Y-51562000D01*
X29718000Y-44704000D02*
X30988000Y-44704000D01*
X28194000Y-46228000D02*
X29718000Y-44704000D01*
X28194000Y-49530000D02*
X28194000Y-46228000D01*
X29718000Y-51054000D02*
X28194000Y-49530000D01*
X40640000Y-51054000D02*
X29718000Y-51054000D01*
X41148000Y-51562000D02*
X40640000Y-51054000D01*
X49530000Y-50419000D02*
X48133000Y-50419000D01*
X46990000Y-49276000D02*
X45656500Y-49276000D01*
X48133000Y-50419000D02*
X46990000Y-49276000D01*
X30988000Y-47244000D02*
X35052000Y-47244000D01*
X41148000Y-49276000D02*
X43751500Y-49276000D01*
X40386000Y-48514000D02*
X41148000Y-49276000D01*
X36322000Y-48514000D02*
X40386000Y-48514000D01*
X35052000Y-47244000D02*
X36322000Y-48514000D01*
D36*
X24241000Y-19999000D02*
X24241000Y-24749000D01*
X27432000Y-27940000D02*
X28648660Y-27940000D01*
X24241000Y-24749000D02*
X27432000Y-27940000D01*
X39076000Y-20066000D02*
X39076000Y-19264000D01*
X39076000Y-19264000D02*
X36322000Y-16510000D01*
X36322000Y-16510000D02*
X33020000Y-16510000D01*
X33020000Y-16510000D02*
X29531000Y-19999000D01*
X29531000Y-19999000D02*
X24241000Y-19999000D01*
D38*
X61976000Y-26195020D02*
X61976000Y-29323500D01*
X61976000Y-29323500D02*
X62000000Y-29347500D01*
X58928000Y-26195020D02*
X58928000Y-29273500D01*
D37*
X22606000Y-41338500D02*
X22606000Y-45432980D01*
D39*
G36*
X32394210Y-15884210D02*
X32394208Y-15884213D01*
X30134746Y-18143675D01*
X30135240Y-17577211D01*
X29810910Y-16792273D01*
X29210886Y-16191200D01*
X28426515Y-15865501D01*
X27577211Y-15864760D01*
X26792273Y-16189090D01*
X26191200Y-16789114D01*
X25865501Y-17573485D01*
X25864760Y-18422789D01*
X26150363Y-19114000D01*
X25644398Y-19114000D01*
X25627894Y-19074057D01*
X25168363Y-18613722D01*
X24567648Y-18364284D01*
X23917205Y-18363716D01*
X23316057Y-18612106D01*
X22855722Y-19071637D01*
X22606284Y-19672352D01*
X22605716Y-20322795D01*
X22854106Y-20923943D01*
X23313637Y-21384278D01*
X23356000Y-21401869D01*
X23356000Y-24748995D01*
X23355999Y-24749000D01*
X23404419Y-24992418D01*
X23423367Y-25087675D01*
X23461095Y-25144139D01*
X23615210Y-25374790D01*
X26806208Y-28565787D01*
X26806210Y-28565790D01*
X27002970Y-28697260D01*
X27093325Y-28757633D01*
X27384038Y-28815460D01*
X27395258Y-28875087D01*
X27534330Y-29091211D01*
X27746530Y-29236201D01*
X27998420Y-29287210D01*
X29298900Y-29287210D01*
X29534217Y-29242932D01*
X29750341Y-29103860D01*
X29895331Y-28891660D01*
X29946340Y-28639770D01*
X29946340Y-27240230D01*
X30251660Y-27240230D01*
X30251660Y-28639770D01*
X30295938Y-28875087D01*
X30435010Y-29091211D01*
X30647210Y-29236201D01*
X30899100Y-29287210D01*
X32199580Y-29287210D01*
X32434897Y-29242932D01*
X32651021Y-29103860D01*
X32796011Y-28891660D01*
X32809510Y-28825000D01*
X35447420Y-28825000D01*
X37060000Y-30437579D01*
X37060000Y-31588554D01*
X36909683Y-31616838D01*
X36693559Y-31755910D01*
X36548569Y-31968110D01*
X36497560Y-32220000D01*
X36497560Y-33820000D01*
X36541838Y-34055317D01*
X36680910Y-34271441D01*
X36893110Y-34416431D01*
X37145000Y-34467440D01*
X38745000Y-34467440D01*
X38980317Y-34423162D01*
X39196441Y-34284090D01*
X39341431Y-34071890D01*
X39375227Y-33905000D01*
X43829420Y-33905000D01*
X46403347Y-36478926D01*
X45901178Y-36980221D01*
X45613648Y-37672669D01*
X45612994Y-38422441D01*
X45707127Y-38650260D01*
X45537367Y-38904325D01*
X45530262Y-38940046D01*
X45469999Y-39243000D01*
X45470000Y-39243005D01*
X45470000Y-39558354D01*
X45370383Y-39577098D01*
X45154259Y-39716170D01*
X45009269Y-39928370D01*
X44958260Y-40180260D01*
X44958260Y-41480740D01*
X45002538Y-41716057D01*
X45044378Y-41781078D01*
X44970700Y-41958951D01*
X44970700Y-42449750D01*
X45129450Y-42608500D01*
X46228000Y-42608500D01*
X46228000Y-42588500D01*
X46482000Y-42588500D01*
X46482000Y-42608500D01*
X47580550Y-42608500D01*
X47739300Y-42449750D01*
X47739300Y-41958951D01*
X47724115Y-41922289D01*
X48884517Y-41922289D01*
X49013725Y-42215059D01*
X49713883Y-42483271D01*
X50463384Y-42463128D01*
X51062275Y-42215059D01*
X51191483Y-41922289D01*
X50038000Y-40768805D01*
X48884517Y-41922289D01*
X47724115Y-41922289D01*
X47666379Y-41782905D01*
X47700731Y-41732630D01*
X47751740Y-41480740D01*
X47751740Y-40180260D01*
X47707462Y-39944943D01*
X47700457Y-39934057D01*
X47871241Y-39934206D01*
X48345792Y-39738126D01*
X48143929Y-40265083D01*
X48164072Y-41014584D01*
X48412141Y-41613475D01*
X48704911Y-41742683D01*
X49858395Y-40589200D01*
X49844252Y-40575058D01*
X50023858Y-40395452D01*
X50038000Y-40409595D01*
X50052142Y-40395452D01*
X50231748Y-40575058D01*
X50217605Y-40589200D01*
X51371089Y-41742683D01*
X51663859Y-41613475D01*
X51932071Y-40913317D01*
X51911928Y-40163816D01*
X51736592Y-39740518D01*
X52201469Y-39933552D01*
X52709000Y-39933995D01*
X52709000Y-39939354D01*
X52609383Y-39958098D01*
X52393259Y-40097170D01*
X52248269Y-40309370D01*
X52197260Y-40561260D01*
X52197260Y-41861740D01*
X52241538Y-42097057D01*
X52283378Y-42162078D01*
X52209700Y-42339951D01*
X52209700Y-42830750D01*
X52368450Y-42989500D01*
X53467000Y-42989500D01*
X53467000Y-42969500D01*
X53721000Y-42969500D01*
X53721000Y-42989500D01*
X54819550Y-42989500D01*
X54978300Y-42830750D01*
X54978300Y-42339951D01*
X54905379Y-42163905D01*
X54939731Y-42113630D01*
X54990740Y-41861740D01*
X54990740Y-40657223D01*
X57227035Y-40657223D01*
X57254222Y-41227454D01*
X57420136Y-41628005D01*
X57666255Y-41702139D01*
X58494395Y-40874000D01*
X57666255Y-40045861D01*
X57420136Y-40119995D01*
X57227035Y-40657223D01*
X54990740Y-40657223D01*
X54990740Y-40561260D01*
X54946462Y-40325943D01*
X54807390Y-40109819D01*
X54595190Y-39964829D01*
X54479000Y-39941300D01*
X54479000Y-39065205D01*
X54479001Y-39065200D01*
X54452943Y-38934200D01*
X57226560Y-38934200D01*
X57226560Y-39174000D01*
X57270838Y-39409317D01*
X57409910Y-39625441D01*
X57622110Y-39770431D01*
X57860201Y-39818646D01*
X57845861Y-39866255D01*
X58674000Y-40694395D01*
X59502139Y-39866255D01*
X59487855Y-39818833D01*
X59709317Y-39777162D01*
X59714860Y-39773595D01*
X59714860Y-40055836D01*
X59681745Y-40045861D01*
X58853605Y-40874000D01*
X58867748Y-40888142D01*
X58688142Y-41067748D01*
X58674000Y-41053605D01*
X57845861Y-41881745D01*
X57919995Y-42127864D01*
X58457223Y-42320965D01*
X58725000Y-42308198D01*
X54580599Y-46452599D01*
X54415852Y-46699161D01*
X54358000Y-46990000D01*
X54358000Y-49471840D01*
X54118510Y-49471840D01*
X53883193Y-49516118D01*
X53667069Y-49655190D01*
X53522079Y-49867390D01*
X53471070Y-50119280D01*
X53471070Y-50718720D01*
X53515348Y-50954037D01*
X53579374Y-51053536D01*
X53522079Y-51137390D01*
X53471070Y-51389280D01*
X53471070Y-51988720D01*
X53515348Y-52224037D01*
X53579374Y-52323536D01*
X53522079Y-52407390D01*
X53471070Y-52659280D01*
X53471070Y-53258720D01*
X53515348Y-53494037D01*
X53579374Y-53593536D01*
X53522079Y-53677390D01*
X53471070Y-53929280D01*
X53471070Y-54528720D01*
X53515348Y-54764037D01*
X53579374Y-54863536D01*
X53522079Y-54947390D01*
X53471070Y-55199280D01*
X53471070Y-55798720D01*
X53515348Y-56034037D01*
X53579374Y-56133536D01*
X53522079Y-56217390D01*
X53471070Y-56469280D01*
X53471070Y-57068720D01*
X53510637Y-57279000D01*
X52959000Y-57279000D01*
X52668161Y-57336852D01*
X52421599Y-57501599D01*
X51786599Y-58136599D01*
X51621852Y-58383161D01*
X51564000Y-58674000D01*
X51564000Y-61024666D01*
X51488683Y-61038838D01*
X51272559Y-61177910D01*
X51127569Y-61390110D01*
X51076560Y-61642000D01*
X51076560Y-62842000D01*
X51120838Y-63077317D01*
X51202766Y-63204636D01*
X51076193Y-63573036D01*
X51106518Y-64063413D01*
X51235836Y-64375617D01*
X51461265Y-64425130D01*
X52144395Y-63742000D01*
X52130253Y-63727858D01*
X52309858Y-63548253D01*
X52324000Y-63562395D01*
X52338143Y-63548253D01*
X52517748Y-63727858D01*
X52503605Y-63742000D01*
X53186735Y-64425130D01*
X53412164Y-64375617D01*
X53571807Y-63910964D01*
X53541482Y-63420587D01*
X53449289Y-63198010D01*
X53520431Y-63093890D01*
X53571440Y-62842000D01*
X53571440Y-61642000D01*
X53527162Y-61406683D01*
X53388090Y-61190559D01*
X53175890Y-61045569D01*
X53084000Y-61026961D01*
X53084000Y-58988802D01*
X53273802Y-58799000D01*
X53513653Y-58799000D01*
X53471070Y-59009280D01*
X53471070Y-59608720D01*
X53515348Y-59844037D01*
X53654420Y-60060161D01*
X53866620Y-60205151D01*
X54118510Y-60256160D01*
X56117490Y-60256160D01*
X56352807Y-60211882D01*
X56501438Y-60116240D01*
X57108599Y-60723401D01*
X57355160Y-60888148D01*
X57646000Y-60946000D01*
X58726666Y-60946000D01*
X58740838Y-61021317D01*
X58879910Y-61237441D01*
X59092110Y-61382431D01*
X59344000Y-61433440D01*
X60544000Y-61433440D01*
X60779317Y-61389162D01*
X60995441Y-61250090D01*
X61140431Y-61037890D01*
X61191440Y-60786000D01*
X61191440Y-59586000D01*
X61147162Y-59350683D01*
X61060901Y-59216630D01*
X61178785Y-58932734D01*
X61179214Y-58441421D01*
X60991592Y-57987343D01*
X60644485Y-57639629D01*
X60190734Y-57451215D01*
X59699421Y-57450786D01*
X59245343Y-57638408D01*
X59106155Y-57777353D01*
X57560401Y-56231599D01*
X57526989Y-56209274D01*
X57567839Y-56201148D01*
X57814401Y-56036401D01*
X58238802Y-55612000D01*
X58726666Y-55612000D01*
X58740838Y-55687317D01*
X58879910Y-55903441D01*
X59092110Y-56048431D01*
X59344000Y-56099440D01*
X60544000Y-56099440D01*
X60779317Y-56055162D01*
X60995441Y-55916090D01*
X61140431Y-55703890D01*
X61170055Y-55557599D01*
X65824699Y-55557599D01*
X66088281Y-56195515D01*
X66575918Y-56684004D01*
X67213373Y-56948699D01*
X67903599Y-56949301D01*
X68541515Y-56685719D01*
X69030004Y-56198082D01*
X69294699Y-55560627D01*
X69295301Y-54870401D01*
X69031719Y-54232485D01*
X68544082Y-53743996D01*
X67906627Y-53479301D01*
X67216401Y-53478699D01*
X66578485Y-53742281D01*
X66089996Y-54229918D01*
X65825301Y-54867373D01*
X65824699Y-55557599D01*
X61170055Y-55557599D01*
X61191440Y-55452000D01*
X61191440Y-54252000D01*
X61147162Y-54016683D01*
X61060901Y-53882630D01*
X61178785Y-53598734D01*
X61179214Y-53107421D01*
X60991592Y-52653343D01*
X60644485Y-52305629D01*
X60190734Y-52117215D01*
X59699421Y-52116786D01*
X59245343Y-52304408D01*
X58957248Y-52592000D01*
X58154000Y-52592000D01*
X57863160Y-52649852D01*
X57616599Y-52814599D01*
X56962198Y-53469000D01*
X56825802Y-53469000D01*
X59731401Y-50563401D01*
X59896148Y-50316840D01*
X59954000Y-50026000D01*
X59954000Y-49997329D01*
X59967690Y-50003000D01*
X60408250Y-50003000D01*
X60567000Y-49844250D01*
X60567000Y-48895000D01*
X60821000Y-48895000D01*
X60821000Y-49844250D01*
X60979750Y-50003000D01*
X61420310Y-50003000D01*
X61653699Y-49906327D01*
X61832327Y-49727698D01*
X61847428Y-49691239D01*
X64427827Y-49691239D01*
X64904192Y-50844131D01*
X65785489Y-51726968D01*
X66937548Y-52205345D01*
X68184979Y-52206433D01*
X69337871Y-51730068D01*
X70220708Y-50848771D01*
X70699085Y-49696712D01*
X70700173Y-48449281D01*
X70223808Y-47296389D01*
X69342511Y-46413552D01*
X68190452Y-45935175D01*
X66943021Y-45934087D01*
X65790129Y-46410452D01*
X64907292Y-47291749D01*
X64428915Y-48443808D01*
X64427827Y-49691239D01*
X61847428Y-49691239D01*
X61929000Y-49494309D01*
X61929000Y-49053750D01*
X61770250Y-48895000D01*
X60821000Y-48895000D01*
X60567000Y-48895000D01*
X60547000Y-48895000D01*
X60547000Y-48641000D01*
X60567000Y-48641000D01*
X60567000Y-47691750D01*
X60821000Y-47691750D01*
X60821000Y-48641000D01*
X61770250Y-48641000D01*
X61929000Y-48482250D01*
X61929000Y-48041691D01*
X61832327Y-47808302D01*
X61653699Y-47629673D01*
X61420310Y-47533000D01*
X60979750Y-47533000D01*
X60821000Y-47691750D01*
X60567000Y-47691750D01*
X60408250Y-47533000D01*
X59967690Y-47533000D01*
X59734301Y-47629673D01*
X59716324Y-47647650D01*
X59440734Y-47533215D01*
X58949421Y-47532786D01*
X58495343Y-47720408D01*
X58164000Y-48051173D01*
X58164000Y-47812802D01*
X63275401Y-42701401D01*
X63438694Y-42457015D01*
X64453277Y-42457015D01*
X64471923Y-42559045D01*
X64742370Y-43032064D01*
X65173247Y-43365581D01*
X65698957Y-43508821D01*
X65918080Y-43348126D01*
X65918080Y-42242740D01*
X66172080Y-42242740D01*
X66172080Y-43348126D01*
X66391203Y-43508821D01*
X66916913Y-43365581D01*
X67347790Y-43032064D01*
X67618237Y-42559045D01*
X67636883Y-42457015D01*
X67514229Y-42242740D01*
X66172080Y-42242740D01*
X65918080Y-42242740D01*
X64575931Y-42242740D01*
X64453277Y-42457015D01*
X63438694Y-42457015D01*
X63440148Y-42454839D01*
X63498000Y-42164000D01*
X63498000Y-37652802D01*
X63814802Y-37336000D01*
X64637562Y-37336000D01*
X64784392Y-37555746D01*
X65233903Y-37856100D01*
X65764138Y-37961570D01*
X65233903Y-38067040D01*
X64784392Y-38367394D01*
X64484038Y-38816905D01*
X64378568Y-39347140D01*
X64484038Y-39877375D01*
X64784392Y-40326886D01*
X65233903Y-40627240D01*
X65764138Y-40732710D01*
X65918078Y-40732710D01*
X65918078Y-40883353D01*
X65698957Y-40722659D01*
X65173247Y-40865899D01*
X64742370Y-41199416D01*
X64471923Y-41672435D01*
X64453277Y-41774465D01*
X64575931Y-41988740D01*
X65918080Y-41988740D01*
X65918080Y-41968740D01*
X66172080Y-41968740D01*
X66172080Y-41988740D01*
X67514229Y-41988740D01*
X67636883Y-41774465D01*
X67618237Y-41672435D01*
X67347790Y-41199416D01*
X66916913Y-40865899D01*
X66391203Y-40722659D01*
X66172082Y-40883353D01*
X66172082Y-40732710D01*
X66326022Y-40732710D01*
X66856257Y-40627240D01*
X67305768Y-40326886D01*
X67606122Y-39877375D01*
X67711592Y-39347140D01*
X67606122Y-38816905D01*
X67305768Y-38367394D01*
X66856257Y-38067040D01*
X66326022Y-37961570D01*
X66856257Y-37856100D01*
X67305768Y-37555746D01*
X67606122Y-37106235D01*
X67711592Y-36576000D01*
X67612578Y-36078224D01*
X67700917Y-35989885D01*
X67822232Y-36171446D01*
X68074000Y-36339672D01*
X68074000Y-36812328D01*
X67822232Y-36980554D01*
X67521878Y-37430065D01*
X67416408Y-37960300D01*
X67521878Y-38490535D01*
X67822232Y-38940046D01*
X68271743Y-39240400D01*
X68801978Y-39345870D01*
X68271743Y-39451340D01*
X67822232Y-39751694D01*
X67521878Y-40201205D01*
X67416408Y-40731440D01*
X67521878Y-41261675D01*
X67822232Y-41711186D01*
X68271743Y-42011540D01*
X68801978Y-42117010D01*
X69363862Y-42117010D01*
X69894097Y-42011540D01*
X70343608Y-41711186D01*
X70643962Y-41261675D01*
X70749432Y-40731440D01*
X70643962Y-40201205D01*
X70343608Y-39751694D01*
X69894097Y-39451340D01*
X69363862Y-39345870D01*
X69894097Y-39240400D01*
X70343608Y-38940046D01*
X70643962Y-38490535D01*
X70749432Y-37960300D01*
X70643962Y-37430065D01*
X70343608Y-36980554D01*
X69894097Y-36680200D01*
X69594000Y-36620507D01*
X69594000Y-36531493D01*
X69894097Y-36471800D01*
X70343608Y-36171446D01*
X70643962Y-35721935D01*
X70749432Y-35191700D01*
X70643962Y-34661465D01*
X70343608Y-34211954D01*
X69894097Y-33911600D01*
X69363862Y-33806130D01*
X69894097Y-33700660D01*
X70343608Y-33400306D01*
X70643962Y-32950795D01*
X70749432Y-32420560D01*
X70643962Y-31890325D01*
X70343608Y-31440814D01*
X69894097Y-31140460D01*
X69363862Y-31034990D01*
X68801978Y-31034990D01*
X68271743Y-31140460D01*
X67822232Y-31440814D01*
X67521878Y-31890325D01*
X67477621Y-32112819D01*
X67339401Y-31974599D01*
X67335277Y-31971843D01*
X67606122Y-31566495D01*
X67711592Y-31036260D01*
X67606122Y-30506025D01*
X67305768Y-30056514D01*
X66856257Y-29756160D01*
X66326022Y-29650690D01*
X65764138Y-29650690D01*
X65233903Y-29756160D01*
X64784392Y-30056514D01*
X64484038Y-30506025D01*
X64378568Y-31036260D01*
X64443997Y-31365195D01*
X63793901Y-30715099D01*
X63547339Y-30550352D01*
X63380737Y-30517213D01*
X63352462Y-30366943D01*
X63310321Y-30301454D01*
X63345731Y-30249630D01*
X63396740Y-29997740D01*
X63396740Y-28697260D01*
X63352462Y-28461943D01*
X63213390Y-28245819D01*
X63001190Y-28100829D01*
X62749300Y-28049820D01*
X62736000Y-28049820D01*
X62736000Y-27411689D01*
X62810757Y-27397622D01*
X63026881Y-27258550D01*
X63171871Y-27046350D01*
X63222880Y-26794460D01*
X63222880Y-25595580D01*
X63178602Y-25360263D01*
X63039530Y-25144139D01*
X63031341Y-25138544D01*
X63113767Y-25056118D01*
X63210440Y-24822729D01*
X63210440Y-24702719D01*
X64427827Y-24702719D01*
X64904192Y-25855611D01*
X65785489Y-26738448D01*
X66937548Y-27216825D01*
X68184979Y-27217913D01*
X69337871Y-26741548D01*
X70220708Y-25860251D01*
X70699085Y-24708192D01*
X70700173Y-23460761D01*
X70223808Y-22307869D01*
X69342511Y-21425032D01*
X68190452Y-20946655D01*
X66943021Y-20945567D01*
X65790129Y-21421932D01*
X64907292Y-22303229D01*
X64428915Y-23455288D01*
X64427827Y-24702719D01*
X63210440Y-24702719D01*
X63210440Y-24382730D01*
X63051690Y-24223980D01*
X62103000Y-24223980D01*
X62103000Y-24243980D01*
X61849000Y-24243980D01*
X61849000Y-24223980D01*
X60900310Y-24223980D01*
X60741560Y-24382730D01*
X60741560Y-24822729D01*
X60838233Y-25056118D01*
X60920445Y-25138331D01*
X60780129Y-25343690D01*
X60729120Y-25595580D01*
X60729120Y-26794460D01*
X60773398Y-27029777D01*
X60912470Y-27245901D01*
X61124670Y-27390891D01*
X61216000Y-27409386D01*
X61216000Y-28056349D01*
X61015383Y-28094098D01*
X60799259Y-28233170D01*
X60654269Y-28445370D01*
X60603260Y-28697260D01*
X60603260Y-29997740D01*
X60647538Y-30233057D01*
X60689679Y-30298546D01*
X60654269Y-30350370D01*
X60603260Y-30602260D01*
X60603260Y-31902740D01*
X60647538Y-32138057D01*
X60786610Y-32354181D01*
X60998810Y-32499171D01*
X61250700Y-32550180D01*
X62749300Y-32550180D01*
X62984617Y-32505902D01*
X63200741Y-32366830D01*
X63239420Y-32310222D01*
X63974058Y-33044860D01*
X60789662Y-33044860D01*
X60073304Y-32328502D01*
X60128741Y-32292830D01*
X60273731Y-32080630D01*
X60324740Y-31828740D01*
X60324740Y-30528260D01*
X60280462Y-30292943D01*
X60238321Y-30227454D01*
X60273731Y-30175630D01*
X60324740Y-29923740D01*
X60324740Y-28623260D01*
X60280462Y-28387943D01*
X60141390Y-28171819D01*
X59929190Y-28026829D01*
X59688000Y-27977987D01*
X59688000Y-27411689D01*
X59762757Y-27397622D01*
X59978881Y-27258550D01*
X60123871Y-27046350D01*
X60174880Y-26794460D01*
X60174880Y-25595580D01*
X60130602Y-25360263D01*
X59991530Y-25144139D01*
X59983341Y-25138544D01*
X60065767Y-25056118D01*
X60162440Y-24822729D01*
X60162440Y-24382730D01*
X60003690Y-24223980D01*
X59055000Y-24223980D01*
X59055000Y-24243980D01*
X58801000Y-24243980D01*
X58801000Y-24223980D01*
X57852310Y-24223980D01*
X57693560Y-24382730D01*
X57693560Y-24822729D01*
X57790233Y-25056118D01*
X57872445Y-25138331D01*
X57732129Y-25343690D01*
X57681120Y-25595580D01*
X57681120Y-26794460D01*
X57725398Y-27029777D01*
X57864470Y-27245901D01*
X58076670Y-27390891D01*
X58168000Y-27409386D01*
X58168000Y-27977833D01*
X57943383Y-28020098D01*
X57727259Y-28159170D01*
X57582269Y-28371370D01*
X57531260Y-28623260D01*
X57531260Y-29923740D01*
X57575538Y-30159057D01*
X57617679Y-30224546D01*
X57582269Y-30276370D01*
X57531260Y-30528260D01*
X57531260Y-31828740D01*
X57575538Y-32064057D01*
X57714610Y-32280181D01*
X57926810Y-32425171D01*
X58178700Y-32476180D01*
X58211399Y-32476180D01*
X58225852Y-32548839D01*
X58390599Y-32795401D01*
X59714860Y-34119662D01*
X59714860Y-36975335D01*
X59474000Y-36926560D01*
X57874000Y-36926560D01*
X57638683Y-36970838D01*
X57422559Y-37109910D01*
X57385464Y-37164200D01*
X54251552Y-37164200D01*
X54176686Y-36983009D01*
X53646979Y-36452378D01*
X52954531Y-36164848D01*
X52204759Y-36164194D01*
X51511809Y-36450514D01*
X50981178Y-36980221D01*
X50693648Y-37672669D01*
X50692994Y-38422441D01*
X50889074Y-38896992D01*
X50362117Y-38695129D01*
X49612616Y-38715272D01*
X49189318Y-38890608D01*
X49382352Y-38425731D01*
X49383006Y-37675959D01*
X49096686Y-36983009D01*
X48566979Y-36452378D01*
X48383000Y-36375983D01*
X48383000Y-36322005D01*
X48383001Y-36322000D01*
X48315633Y-35983325D01*
X48242486Y-35873852D01*
X48123790Y-35696210D01*
X48123787Y-35696208D01*
X44821790Y-32394210D01*
X44761882Y-32354181D01*
X44534675Y-32202367D01*
X44478484Y-32191190D01*
X44196000Y-32134999D01*
X44195995Y-32135000D01*
X39376446Y-32135000D01*
X39348162Y-31984683D01*
X39209090Y-31768559D01*
X38996890Y-31623569D01*
X38830000Y-31589773D01*
X38830000Y-30071005D01*
X38830001Y-30071000D01*
X38762633Y-29732325D01*
X38570790Y-29445210D01*
X38570787Y-29445208D01*
X36439790Y-27314210D01*
X36356488Y-27258550D01*
X36152675Y-27122367D01*
X36096484Y-27111190D01*
X35814000Y-27054999D01*
X35813995Y-27055000D01*
X32812167Y-27055000D01*
X32802742Y-27004913D01*
X32663670Y-26788789D01*
X32451470Y-26643799D01*
X32199580Y-26592790D01*
X30899100Y-26592790D01*
X30663783Y-26637068D01*
X30447659Y-26776140D01*
X30302669Y-26988340D01*
X30251660Y-27240230D01*
X29946340Y-27240230D01*
X29902062Y-27004913D01*
X29762990Y-26788789D01*
X29550790Y-26643799D01*
X29298900Y-26592790D01*
X27998420Y-26592790D01*
X27763103Y-26637068D01*
X27546979Y-26776140D01*
X27535914Y-26792335D01*
X25126000Y-24382420D01*
X25126000Y-22265285D01*
X47653797Y-22265285D01*
X48015943Y-23141744D01*
X48685929Y-23812900D01*
X49561755Y-24176575D01*
X50510085Y-24177403D01*
X51386544Y-23815257D01*
X51831345Y-23371231D01*
X57693560Y-23371231D01*
X57693560Y-23811230D01*
X57852310Y-23969980D01*
X58801000Y-23969980D01*
X58801000Y-23021290D01*
X59055000Y-23021290D01*
X59055000Y-23969980D01*
X60003690Y-23969980D01*
X60162440Y-23811230D01*
X60162440Y-23371231D01*
X60741560Y-23371231D01*
X60741560Y-23811230D01*
X60900310Y-23969980D01*
X61849000Y-23969980D01*
X61849000Y-23021290D01*
X62103000Y-23021290D01*
X62103000Y-23969980D01*
X63051690Y-23969980D01*
X63210440Y-23811230D01*
X63210440Y-23371231D01*
X63113767Y-23137842D01*
X62935139Y-22959213D01*
X62701750Y-22862540D01*
X62261750Y-22862540D01*
X62103000Y-23021290D01*
X61849000Y-23021290D01*
X61690250Y-22862540D01*
X61250250Y-22862540D01*
X61016861Y-22959213D01*
X60838233Y-23137842D01*
X60741560Y-23371231D01*
X60162440Y-23371231D01*
X60065767Y-23137842D01*
X59887139Y-22959213D01*
X59653750Y-22862540D01*
X59213750Y-22862540D01*
X59055000Y-23021290D01*
X58801000Y-23021290D01*
X58642250Y-22862540D01*
X58202250Y-22862540D01*
X57968861Y-22959213D01*
X57790233Y-23137842D01*
X57693560Y-23371231D01*
X51831345Y-23371231D01*
X52057700Y-23145271D01*
X52421375Y-22269445D01*
X52422203Y-21321115D01*
X52060057Y-20444656D01*
X51390071Y-19773500D01*
X50514245Y-19409825D01*
X49565915Y-19408997D01*
X48689456Y-19771143D01*
X48018300Y-20441129D01*
X47654625Y-21316955D01*
X47653797Y-22265285D01*
X25126000Y-22265285D01*
X25126000Y-21402398D01*
X25133449Y-21399320D01*
X32922285Y-21399320D01*
X33051533Y-21692123D01*
X33751806Y-21960388D01*
X34501435Y-21940250D01*
X35100467Y-21692123D01*
X35229715Y-21399320D01*
X34076000Y-20245605D01*
X32922285Y-21399320D01*
X25133449Y-21399320D01*
X25165943Y-21385894D01*
X25626278Y-20926363D01*
X25643869Y-20884000D01*
X29530995Y-20884000D01*
X29531000Y-20884001D01*
X29813484Y-20827810D01*
X29869675Y-20816633D01*
X30156790Y-20624790D01*
X31039773Y-19741806D01*
X32181612Y-19741806D01*
X32201750Y-20491435D01*
X32449877Y-21090467D01*
X32742680Y-21219715D01*
X33896395Y-20066000D01*
X34255605Y-20066000D01*
X35409320Y-21219715D01*
X35702123Y-21090467D01*
X35970388Y-20390194D01*
X35950250Y-19640565D01*
X35702123Y-19041533D01*
X35409320Y-18912285D01*
X34255605Y-20066000D01*
X33896395Y-20066000D01*
X32742680Y-18912285D01*
X32449877Y-19041533D01*
X32181612Y-19741806D01*
X31039773Y-19741806D01*
X32048899Y-18732680D01*
X32922285Y-18732680D01*
X34076000Y-19886395D01*
X35229715Y-18732680D01*
X35100467Y-18439877D01*
X34400194Y-18171612D01*
X33650565Y-18191750D01*
X33051533Y-18439877D01*
X32922285Y-18732680D01*
X32048899Y-18732680D01*
X33386579Y-17395000D01*
X35955420Y-17395000D01*
X37518118Y-18957697D01*
X37478907Y-18996839D01*
X37191328Y-19689405D01*
X37190674Y-20439305D01*
X37477043Y-21132372D01*
X38006839Y-21663093D01*
X38699405Y-21950672D01*
X39449305Y-21951326D01*
X40142372Y-21664957D01*
X40673093Y-21135161D01*
X40960672Y-20442595D01*
X40961326Y-19692695D01*
X40674957Y-18999628D01*
X40145161Y-18468907D01*
X40034097Y-18422789D01*
X75864760Y-18422789D01*
X76189090Y-19207727D01*
X76789114Y-19808800D01*
X77573485Y-20134499D01*
X78422789Y-20135240D01*
X79207727Y-19810910D01*
X79808800Y-19210886D01*
X80134499Y-18426515D01*
X80135240Y-17577211D01*
X79810910Y-16792273D01*
X79210886Y-16191200D01*
X78426515Y-15865501D01*
X77577211Y-15864760D01*
X76792273Y-16189090D01*
X76191200Y-16789114D01*
X75865501Y-17573485D01*
X75864760Y-18422789D01*
X40034097Y-18422789D01*
X39452595Y-18181328D01*
X39244726Y-18181147D01*
X36947790Y-15884210D01*
X36918681Y-15864760D01*
X36687065Y-15710000D01*
X85290000Y-15710000D01*
X85290000Y-91290000D01*
X69981580Y-91290000D01*
X71848790Y-89422789D01*
X75864760Y-89422789D01*
X76189090Y-90207727D01*
X76789114Y-90808800D01*
X77573485Y-91134499D01*
X78422789Y-91135240D01*
X79207727Y-90810910D01*
X79808800Y-90210886D01*
X80134499Y-89426515D01*
X80135240Y-88577211D01*
X79810910Y-87792273D01*
X79210886Y-87191200D01*
X78426515Y-86865501D01*
X77577211Y-86864760D01*
X76792273Y-87189090D01*
X76191200Y-87789114D01*
X75865501Y-88573485D01*
X75864760Y-89422789D01*
X71848790Y-89422789D01*
X75301787Y-85969792D01*
X75301790Y-85969790D01*
X75493633Y-85682675D01*
X75501245Y-85644406D01*
X75561001Y-85344000D01*
X75561000Y-85343995D01*
X75561000Y-84615207D01*
X77824665Y-84615207D01*
X78118630Y-85326658D01*
X78662479Y-85871457D01*
X79373416Y-86166663D01*
X80143207Y-86167335D01*
X80854658Y-85873370D01*
X81399457Y-85329521D01*
X81694663Y-84618584D01*
X81695335Y-83848793D01*
X81401370Y-83137342D01*
X80857521Y-82592543D01*
X80146584Y-82297337D01*
X79376793Y-82296665D01*
X78665342Y-82590630D01*
X78120543Y-83134479D01*
X77825337Y-83845416D01*
X77824665Y-84615207D01*
X75561000Y-84615207D01*
X75561000Y-72615207D01*
X77824665Y-72615207D01*
X78118630Y-73326658D01*
X78662479Y-73871457D01*
X79373416Y-74166663D01*
X80143207Y-74167335D01*
X80854658Y-73873370D01*
X81399457Y-73329521D01*
X81694663Y-72618584D01*
X81695335Y-71848793D01*
X81401370Y-71137342D01*
X80857521Y-70592543D01*
X80146584Y-70297337D01*
X79376793Y-70296665D01*
X78665342Y-70590630D01*
X78120543Y-71134479D01*
X77825337Y-71845416D01*
X77824665Y-72615207D01*
X75561000Y-72615207D01*
X75561000Y-67597207D01*
X77824665Y-67597207D01*
X78118630Y-68308658D01*
X78662479Y-68853457D01*
X79373416Y-69148663D01*
X80143207Y-69149335D01*
X80854658Y-68855370D01*
X81399457Y-68311521D01*
X81694663Y-67600584D01*
X81695335Y-66830793D01*
X81401370Y-66119342D01*
X80857521Y-65574543D01*
X80146584Y-65279337D01*
X79376793Y-65278665D01*
X78665342Y-65572630D01*
X78120543Y-66116479D01*
X77825337Y-66827416D01*
X77824665Y-67597207D01*
X75561000Y-67597207D01*
X75561000Y-61580580D01*
X79992376Y-57149203D01*
X80143207Y-57149335D01*
X80854658Y-56855370D01*
X81399457Y-56311521D01*
X81694663Y-55600584D01*
X81695335Y-54830793D01*
X81401370Y-54119342D01*
X80857521Y-53574543D01*
X80146584Y-53279337D01*
X79376793Y-53278665D01*
X78665342Y-53572630D01*
X78120543Y-54116479D01*
X77825337Y-54827416D01*
X77824665Y-55597207D01*
X78118630Y-56308658D01*
X78224104Y-56414317D01*
X74050210Y-60588210D01*
X73858367Y-60875325D01*
X73858367Y-60875326D01*
X73790999Y-61214000D01*
X73791000Y-61214005D01*
X73791000Y-84977421D01*
X68975420Y-89793000D01*
X67408020Y-89793000D01*
X67427790Y-89779790D01*
X67427791Y-89779789D01*
X73015787Y-84191792D01*
X73015790Y-84191790D01*
X73207633Y-83904675D01*
X73275000Y-83566000D01*
X73275000Y-64262005D01*
X73275001Y-64262000D01*
X73207633Y-63923326D01*
X73207633Y-63923325D01*
X73015790Y-63636210D01*
X73015787Y-63636208D01*
X69967790Y-60588210D01*
X69877276Y-60527731D01*
X69680675Y-60396367D01*
X69612173Y-60382741D01*
X69342000Y-60328999D01*
X69341995Y-60329000D01*
X67396198Y-60329000D01*
X67286195Y-60062771D01*
X66714240Y-59489817D01*
X65966562Y-59179354D01*
X65156989Y-59178648D01*
X64408771Y-59487805D01*
X63835817Y-60059760D01*
X63525354Y-60807438D01*
X63524648Y-61617011D01*
X63833805Y-62365229D01*
X64405760Y-62938183D01*
X65153438Y-63248646D01*
X65963011Y-63249352D01*
X66711229Y-62940195D01*
X67284183Y-62368240D01*
X67395981Y-62099000D01*
X68975420Y-62099000D01*
X71505000Y-64628579D01*
X71505000Y-83199421D01*
X66435420Y-88269000D01*
X62057896Y-88269000D01*
X62263093Y-88064161D01*
X62550672Y-87371595D01*
X62551326Y-86621695D01*
X62264957Y-85928628D01*
X61735161Y-85397907D01*
X61551000Y-85321437D01*
X61551000Y-84575599D01*
X65824699Y-84575599D01*
X66088281Y-85213515D01*
X66575918Y-85702004D01*
X67213373Y-85966699D01*
X67903599Y-85967301D01*
X68541515Y-85703719D01*
X69030004Y-85216082D01*
X69294699Y-84578627D01*
X69295301Y-83888401D01*
X69031719Y-83250485D01*
X68544082Y-82761996D01*
X67906627Y-82497301D01*
X67216401Y-82496699D01*
X66578485Y-82760281D01*
X66089996Y-83247918D01*
X65825301Y-83885373D01*
X65824699Y-84575599D01*
X61551000Y-84575599D01*
X61551000Y-83492580D01*
X64887401Y-80156178D01*
X65153438Y-80266646D01*
X65963011Y-80267352D01*
X66711229Y-79958195D01*
X67284183Y-79386240D01*
X67594646Y-78638562D01*
X67595352Y-77828989D01*
X67286195Y-77080771D01*
X66714240Y-76507817D01*
X65966562Y-76197354D01*
X65156989Y-76196648D01*
X64408771Y-76505805D01*
X63835817Y-77077760D01*
X63525354Y-77825438D01*
X63524648Y-78635011D01*
X63635976Y-78904445D01*
X60040210Y-82500210D01*
X59848367Y-82787325D01*
X59848367Y-82787326D01*
X59780999Y-83126000D01*
X59781000Y-83126005D01*
X59781000Y-85321102D01*
X59599628Y-85396043D01*
X59068907Y-85925839D01*
X58781328Y-86618405D01*
X58780674Y-87368305D01*
X59067043Y-88061372D01*
X59274309Y-88269000D01*
X58786579Y-88269000D01*
X57550967Y-87033387D01*
X57551326Y-86621695D01*
X57264957Y-85928628D01*
X56735161Y-85397907D01*
X56042595Y-85110328D01*
X55292695Y-85109674D01*
X54599628Y-85396043D01*
X54068907Y-85925839D01*
X53781328Y-86618405D01*
X53780674Y-87368305D01*
X54067043Y-88061372D01*
X54596839Y-88592093D01*
X55289405Y-88879672D01*
X56039305Y-88880326D01*
X56644631Y-88630211D01*
X57794208Y-89779787D01*
X57794210Y-89779790D01*
X57813980Y-89793000D01*
X38379579Y-89793000D01*
X36139415Y-87552835D01*
X36214672Y-87371595D01*
X36214674Y-87368305D01*
X37444674Y-87368305D01*
X37731043Y-88061372D01*
X38260839Y-88592093D01*
X38953405Y-88879672D01*
X39703305Y-88880326D01*
X40396372Y-88593957D01*
X40927093Y-88064161D01*
X41214672Y-87371595D01*
X41214674Y-87368305D01*
X43112674Y-87368305D01*
X43399043Y-88061372D01*
X43928839Y-88592093D01*
X44621405Y-88879672D01*
X45371305Y-88880326D01*
X46064372Y-88593957D01*
X46595093Y-88064161D01*
X46882672Y-87371595D01*
X46882674Y-87368305D01*
X48112674Y-87368305D01*
X48399043Y-88061372D01*
X48928839Y-88592093D01*
X49621405Y-88879672D01*
X50371305Y-88880326D01*
X51064372Y-88593957D01*
X51595093Y-88064161D01*
X51882672Y-87371595D01*
X51883326Y-86621695D01*
X51596957Y-85928628D01*
X51067161Y-85397907D01*
X50374595Y-85110328D01*
X49624695Y-85109674D01*
X48931628Y-85396043D01*
X48400907Y-85925839D01*
X48113328Y-86618405D01*
X48112674Y-87368305D01*
X46882674Y-87368305D01*
X46883326Y-86621695D01*
X46596957Y-85928628D01*
X46067161Y-85397907D01*
X45374595Y-85110328D01*
X44624695Y-85109674D01*
X43931628Y-85396043D01*
X43400907Y-85925839D01*
X43113328Y-86618405D01*
X43112674Y-87368305D01*
X41214674Y-87368305D01*
X41215326Y-86621695D01*
X40928957Y-85928628D01*
X40399161Y-85397907D01*
X39706595Y-85110328D01*
X38956695Y-85109674D01*
X38263628Y-85396043D01*
X37732907Y-85925839D01*
X37445328Y-86618405D01*
X37444674Y-87368305D01*
X36214674Y-87368305D01*
X36215326Y-86621695D01*
X35928957Y-85928628D01*
X35399161Y-85397907D01*
X34706595Y-85110328D01*
X33956695Y-85109674D01*
X33263628Y-85396043D01*
X32732907Y-85925839D01*
X32445328Y-86618405D01*
X32444674Y-87368305D01*
X32731043Y-88061372D01*
X33260839Y-88592093D01*
X33953405Y-88879672D01*
X34703305Y-88880326D01*
X34887598Y-88804178D01*
X37373421Y-91290000D01*
X20710000Y-91290000D01*
X20710000Y-79248000D01*
X21706568Y-79248000D01*
X21812908Y-79782609D01*
X22115740Y-80235828D01*
X22538039Y-80518000D01*
X22115740Y-80800172D01*
X21812908Y-81253391D01*
X21706568Y-81788000D01*
X21812908Y-82322609D01*
X22115740Y-82775828D01*
X22568959Y-83078660D01*
X23103568Y-83185000D01*
X23642592Y-83185000D01*
X24177201Y-83078660D01*
X24630420Y-82775828D01*
X24767797Y-82570230D01*
X24808268Y-82785317D01*
X24947340Y-83001441D01*
X25159540Y-83146431D01*
X25411430Y-83197440D01*
X27410410Y-83197440D01*
X27645727Y-83153162D01*
X27861851Y-83014090D01*
X27917000Y-82933377D01*
X27917000Y-84256842D01*
X27614842Y-84559000D01*
X27571440Y-84559000D01*
X27571440Y-84244180D01*
X27527162Y-84008863D01*
X27388090Y-83792739D01*
X27175890Y-83647749D01*
X26924000Y-83596740D01*
X25400000Y-83596740D01*
X25164683Y-83641018D01*
X24948559Y-83780090D01*
X24803569Y-83992290D01*
X24759740Y-84208724D01*
X24609828Y-83984365D01*
X24156609Y-83681533D01*
X23622000Y-83575193D01*
X23087391Y-83681533D01*
X22634172Y-83984365D01*
X22331340Y-84437584D01*
X22225000Y-84972193D01*
X22225000Y-85715807D01*
X22331340Y-86250416D01*
X22634172Y-86703635D01*
X23087391Y-87006467D01*
X23622000Y-87112807D01*
X24156609Y-87006467D01*
X24609828Y-86703635D01*
X24759343Y-86479870D01*
X24796838Y-86679137D01*
X24935910Y-86895261D01*
X25148110Y-87040251D01*
X25400000Y-87091260D01*
X26924000Y-87091260D01*
X27116871Y-87054969D01*
X26792273Y-87189090D01*
X26191200Y-87789114D01*
X25865501Y-88573485D01*
X25864760Y-89422789D01*
X26189090Y-90207727D01*
X26789114Y-90808800D01*
X27573485Y-91134499D01*
X28422789Y-91135240D01*
X29207727Y-90810910D01*
X29808800Y-90210886D01*
X30134499Y-89426515D01*
X30135240Y-88577211D01*
X29810910Y-87792273D01*
X29210886Y-87191200D01*
X28426515Y-86865501D01*
X27577211Y-86864760D01*
X27200793Y-87020293D01*
X27375441Y-86907910D01*
X27520431Y-86695710D01*
X27571440Y-86443820D01*
X27571440Y-86129000D01*
X27940000Y-86129000D01*
X28240407Y-86069245D01*
X28495079Y-85899079D01*
X29257079Y-85137079D01*
X29427245Y-84882406D01*
X29487000Y-84582000D01*
X29487000Y-78897349D01*
X29875461Y-78509564D01*
X30086759Y-78000702D01*
X30087240Y-77449715D01*
X29876831Y-76940485D01*
X29487564Y-76550539D01*
X28978702Y-76339241D01*
X28427715Y-76338760D01*
X28036167Y-76500544D01*
X27971092Y-76173391D01*
X27668260Y-75720172D01*
X27215041Y-75417340D01*
X26680432Y-75311000D01*
X26141408Y-75311000D01*
X25606799Y-75417340D01*
X25153580Y-75720172D01*
X24873238Y-76139733D01*
X24679870Y-75794535D01*
X24248907Y-75454865D01*
X23720762Y-75305973D01*
X23500080Y-75464746D01*
X23500080Y-76581000D01*
X23520080Y-76581000D01*
X23520080Y-76835000D01*
X23500080Y-76835000D01*
X23500080Y-76855000D01*
X23246080Y-76855000D01*
X23246080Y-76835000D01*
X21903870Y-76835000D01*
X21781370Y-77051070D01*
X21798118Y-77142728D01*
X22066290Y-77621465D01*
X22497253Y-77961135D01*
X22543688Y-77974226D01*
X22115740Y-78260172D01*
X21812908Y-78713391D01*
X21706568Y-79248000D01*
X20710000Y-79248000D01*
X20710000Y-76364930D01*
X21781370Y-76364930D01*
X21903870Y-76581000D01*
X23246080Y-76581000D01*
X23246080Y-75464746D01*
X23025398Y-75305973D01*
X22497253Y-75454865D01*
X22066290Y-75794535D01*
X21798118Y-76273272D01*
X21781370Y-76364930D01*
X20710000Y-76364930D01*
X20710000Y-57087713D01*
X20805000Y-57106951D01*
X20805000Y-58420000D01*
X20864755Y-58720407D01*
X21034921Y-58975079D01*
X21619121Y-59559279D01*
X21873794Y-59729445D01*
X22174200Y-59789201D01*
X22174205Y-59789200D01*
X22229070Y-59789200D01*
X22229070Y-61753750D01*
X22273348Y-61989067D01*
X22412420Y-62205191D01*
X22624620Y-62350181D01*
X22876510Y-62401190D01*
X24875490Y-62401190D01*
X25110807Y-62356912D01*
X25326931Y-62217840D01*
X25471921Y-62005640D01*
X25522930Y-61753750D01*
X25522930Y-59907088D01*
X28654921Y-63039079D01*
X28909593Y-63209245D01*
X29210000Y-63269000D01*
X29494892Y-63269000D01*
X29625017Y-63463746D01*
X30059412Y-63754000D01*
X29625017Y-64044254D01*
X29494892Y-64239000D01*
X28702000Y-64239000D01*
X28401593Y-64298755D01*
X28146921Y-64468921D01*
X25522930Y-67092912D01*
X25522930Y-65754250D01*
X25478652Y-65518933D01*
X25339580Y-65302809D01*
X25127380Y-65157819D01*
X24875490Y-65106810D01*
X22876510Y-65106810D01*
X22641193Y-65151088D01*
X22425069Y-65290160D01*
X22280079Y-65502360D01*
X22229070Y-65754250D01*
X22229070Y-71253350D01*
X22273348Y-71488667D01*
X22412420Y-71704791D01*
X22624620Y-71849781D01*
X22649880Y-71854896D01*
X22641820Y-71894700D01*
X22641820Y-73393300D01*
X22686098Y-73628617D01*
X22825170Y-73844741D01*
X23037370Y-73989731D01*
X23289260Y-74040740D01*
X24589740Y-74040740D01*
X24825057Y-73996462D01*
X24890078Y-73954622D01*
X25067951Y-74028300D01*
X25558750Y-74028300D01*
X25717500Y-73869550D01*
X25717500Y-72771000D01*
X25971500Y-72771000D01*
X25971500Y-73869550D01*
X26130250Y-74028300D01*
X26621049Y-74028300D01*
X26854438Y-73931627D01*
X27033067Y-73752999D01*
X27129740Y-73519610D01*
X27129740Y-72929750D01*
X26970990Y-72771000D01*
X25971500Y-72771000D01*
X25717500Y-72771000D01*
X25697500Y-72771000D01*
X25697500Y-72517000D01*
X25717500Y-72517000D01*
X25717500Y-71418450D01*
X25971500Y-71418450D01*
X25971500Y-72517000D01*
X26970990Y-72517000D01*
X27129740Y-72358250D01*
X27129740Y-71768390D01*
X27033067Y-71535001D01*
X26854438Y-71356373D01*
X26621049Y-71259700D01*
X26130250Y-71259700D01*
X25971500Y-71418450D01*
X25717500Y-71418450D01*
X25558750Y-71259700D01*
X25521644Y-71259700D01*
X25522930Y-71253350D01*
X25522930Y-69228829D01*
X25777279Y-69058879D01*
X29027158Y-65809000D01*
X29494892Y-65809000D01*
X29625017Y-66003746D01*
X30059412Y-66294000D01*
X29625017Y-66584254D01*
X29324663Y-67033765D01*
X29219193Y-67564000D01*
X29324663Y-68094235D01*
X29625017Y-68543746D01*
X30059412Y-68834000D01*
X29625017Y-69124254D01*
X29324663Y-69573765D01*
X29219193Y-70104000D01*
X29324663Y-70634235D01*
X29625017Y-71083746D01*
X30059412Y-71374000D01*
X29625017Y-71664254D01*
X29324663Y-72113765D01*
X29219193Y-72644000D01*
X29324663Y-73174235D01*
X29625017Y-73623746D01*
X30059412Y-73914000D01*
X29625017Y-74204254D01*
X29324663Y-74653765D01*
X29219193Y-75184000D01*
X29324663Y-75714235D01*
X29625017Y-76163746D01*
X30074528Y-76464100D01*
X30604763Y-76569570D01*
X31371237Y-76569570D01*
X31901472Y-76464100D01*
X32350983Y-76163746D01*
X32651337Y-75714235D01*
X32756807Y-75184000D01*
X32651337Y-74653765D01*
X32350983Y-74204254D01*
X31916588Y-73914000D01*
X32350983Y-73623746D01*
X32651337Y-73174235D01*
X32756807Y-72644000D01*
X32651337Y-72113765D01*
X32350983Y-71664254D01*
X31916588Y-71374000D01*
X32350983Y-71083746D01*
X32651337Y-70634235D01*
X32756807Y-70104000D01*
X32651337Y-69573765D01*
X32350983Y-69124254D01*
X31916588Y-68834000D01*
X32350983Y-68543746D01*
X32651337Y-68094235D01*
X32756807Y-67564000D01*
X32651337Y-67033765D01*
X32350983Y-66584254D01*
X31916588Y-66294000D01*
X32350983Y-66003746D01*
X32651337Y-65554235D01*
X32756807Y-65024000D01*
X32651337Y-64493765D01*
X32350983Y-64044254D01*
X31916588Y-63754000D01*
X32350983Y-63463746D01*
X32651337Y-63014235D01*
X32756807Y-62484000D01*
X32651337Y-61953765D01*
X32350983Y-61504254D01*
X31901472Y-61203900D01*
X31893928Y-61202399D01*
X31984817Y-61175499D01*
X32406798Y-60833944D01*
X32665950Y-60356903D01*
X32680133Y-60285275D01*
X32557479Y-60071000D01*
X31115000Y-60071000D01*
X31115000Y-60091000D01*
X30861000Y-60091000D01*
X30861000Y-60071000D01*
X29418521Y-60071000D01*
X29295867Y-60285275D01*
X29310050Y-60356903D01*
X29569202Y-60833944D01*
X29991183Y-61175499D01*
X30082072Y-61202399D01*
X30074528Y-61203900D01*
X29625017Y-61504254D01*
X29511020Y-61674862D01*
X26285279Y-58449121D01*
X26030607Y-58278955D01*
X25730200Y-58219200D01*
X25522930Y-58219200D01*
X25522930Y-56254650D01*
X25478652Y-56019333D01*
X25339580Y-55803209D01*
X25127380Y-55658219D01*
X24875490Y-55607210D01*
X22986740Y-55607210D01*
X22986740Y-55166260D01*
X22942462Y-54930943D01*
X22900622Y-54865922D01*
X22974300Y-54688049D01*
X22974300Y-54197250D01*
X22815550Y-54038500D01*
X21717000Y-54038500D01*
X21717000Y-54058500D01*
X21463000Y-54058500D01*
X21463000Y-54038500D01*
X21443000Y-54038500D01*
X21443000Y-53784500D01*
X21463000Y-53784500D01*
X21463000Y-52785010D01*
X21717000Y-52785010D01*
X21717000Y-53784500D01*
X22815550Y-53784500D01*
X22957099Y-53642951D01*
X26301700Y-53642951D01*
X26301700Y-54133750D01*
X26460450Y-54292500D01*
X27559000Y-54292500D01*
X27559000Y-53293010D01*
X27813000Y-53293010D01*
X27813000Y-54292500D01*
X28911550Y-54292500D01*
X29070300Y-54133750D01*
X29070300Y-53642951D01*
X28973627Y-53409562D01*
X28794999Y-53230933D01*
X28561610Y-53134260D01*
X27971750Y-53134260D01*
X27813000Y-53293010D01*
X27559000Y-53293010D01*
X27400250Y-53134260D01*
X26810390Y-53134260D01*
X26577001Y-53230933D01*
X26398373Y-53409562D01*
X26301700Y-53642951D01*
X22957099Y-53642951D01*
X22974300Y-53625750D01*
X22974300Y-53134951D01*
X22877627Y-52901562D01*
X22698999Y-52722933D01*
X22465610Y-52626260D01*
X21875750Y-52626260D01*
X21717000Y-52785010D01*
X21463000Y-52785010D01*
X21304250Y-52626260D01*
X20714390Y-52626260D01*
X20710000Y-52628078D01*
X20710000Y-47816770D01*
X21371560Y-47816770D01*
X21371560Y-48256769D01*
X21468233Y-48490158D01*
X21646861Y-48668787D01*
X21880250Y-48765460D01*
X22320250Y-48765460D01*
X22479000Y-48606710D01*
X22479000Y-47658020D01*
X21530310Y-47658020D01*
X21371560Y-47816770D01*
X20710000Y-47816770D01*
X20710000Y-38783260D01*
X21209260Y-38783260D01*
X21209260Y-40083740D01*
X21253538Y-40319057D01*
X21295679Y-40384546D01*
X21260269Y-40436370D01*
X21209260Y-40688260D01*
X21209260Y-41988740D01*
X21253538Y-42224057D01*
X21392610Y-42440181D01*
X21604810Y-42585171D01*
X21821000Y-42628951D01*
X21821000Y-44221016D01*
X21771243Y-44230378D01*
X21555119Y-44369450D01*
X21410129Y-44581650D01*
X21359120Y-44833540D01*
X21359120Y-46032420D01*
X21403398Y-46267737D01*
X21542470Y-46483861D01*
X21550659Y-46489456D01*
X21468233Y-46571882D01*
X21371560Y-46805271D01*
X21371560Y-47245270D01*
X21530310Y-47404020D01*
X22479000Y-47404020D01*
X22479000Y-47384020D01*
X22733000Y-47384020D01*
X22733000Y-47404020D01*
X22753000Y-47404020D01*
X22753000Y-47658020D01*
X22733000Y-47658020D01*
X22733000Y-48606710D01*
X22891750Y-48765460D01*
X23091000Y-48765460D01*
X23091000Y-50388651D01*
X22702539Y-50776436D01*
X22491241Y-51285298D01*
X22490760Y-51836285D01*
X22701169Y-52345515D01*
X23090436Y-52735461D01*
X23599298Y-52946759D01*
X24150285Y-52947240D01*
X24659515Y-52736831D01*
X25049461Y-52347564D01*
X25260759Y-51838702D01*
X25261240Y-51287715D01*
X25050831Y-50778485D01*
X24661564Y-50388539D01*
X24661000Y-50388305D01*
X24661000Y-48839158D01*
X27474186Y-46025972D01*
X27434000Y-46228000D01*
X27434000Y-49530000D01*
X27491852Y-49820839D01*
X27656599Y-50067401D01*
X29180599Y-51591401D01*
X29373676Y-51720411D01*
X29324663Y-51793765D01*
X29219193Y-52324000D01*
X29324663Y-52854235D01*
X29625017Y-53303746D01*
X30059412Y-53594000D01*
X29625017Y-53884254D01*
X29324663Y-54333765D01*
X29219193Y-54864000D01*
X29324663Y-55394235D01*
X29547875Y-55728295D01*
X29518290Y-55698710D01*
X29481698Y-55674260D01*
X29231175Y-55506867D01*
X29174984Y-55495690D01*
X29044246Y-55469684D01*
X29038462Y-55438943D01*
X28996622Y-55373922D01*
X29070300Y-55196049D01*
X29070300Y-54705250D01*
X28911550Y-54546500D01*
X27813000Y-54546500D01*
X27813000Y-54566500D01*
X27559000Y-54566500D01*
X27559000Y-54546500D01*
X26460450Y-54546500D01*
X26301700Y-54705250D01*
X26301700Y-55196049D01*
X26374621Y-55372095D01*
X26340269Y-55422370D01*
X26289260Y-55674260D01*
X26289260Y-56974740D01*
X26333538Y-57210057D01*
X26472610Y-57426181D01*
X26684810Y-57571171D01*
X26936700Y-57622180D01*
X28435300Y-57622180D01*
X28670617Y-57577902D01*
X28806734Y-57490313D01*
X29346208Y-58029787D01*
X29346210Y-58029790D01*
X29422629Y-58080851D01*
X29625017Y-58383746D01*
X30074528Y-58684100D01*
X30082072Y-58685601D01*
X29991183Y-58712501D01*
X29569202Y-59054056D01*
X29310050Y-59531097D01*
X29295867Y-59602725D01*
X29418521Y-59817000D01*
X30861000Y-59817000D01*
X30861000Y-59797000D01*
X31115000Y-59797000D01*
X31115000Y-59817000D01*
X32557479Y-59817000D01*
X32680133Y-59602725D01*
X32665950Y-59531097D01*
X32406798Y-59054056D01*
X31984817Y-58712501D01*
X31893928Y-58685601D01*
X31901472Y-58684100D01*
X32284553Y-58428133D01*
X36966208Y-63109787D01*
X36966210Y-63109790D01*
X37042629Y-63160851D01*
X37245017Y-63463746D01*
X37679412Y-63754000D01*
X37245017Y-64044254D01*
X36944663Y-64493765D01*
X36839193Y-65024000D01*
X36944663Y-65554235D01*
X37245017Y-66003746D01*
X37679412Y-66294000D01*
X37245017Y-66584254D01*
X36944663Y-67033765D01*
X36839193Y-67564000D01*
X36944663Y-68094235D01*
X37245017Y-68543746D01*
X37679412Y-68834000D01*
X37245017Y-69124254D01*
X36944663Y-69573765D01*
X36839193Y-70104000D01*
X36944663Y-70634235D01*
X37245017Y-71083746D01*
X37679412Y-71374000D01*
X37245017Y-71664254D01*
X36944663Y-72113765D01*
X36839193Y-72644000D01*
X36944663Y-73174235D01*
X37245017Y-73623746D01*
X37679412Y-73914000D01*
X37245017Y-74204254D01*
X36944663Y-74653765D01*
X36839193Y-75184000D01*
X36944663Y-75714235D01*
X37245017Y-76163746D01*
X37694528Y-76464100D01*
X38224763Y-76569570D01*
X38991237Y-76569570D01*
X39521472Y-76464100D01*
X39970983Y-76163746D01*
X40271337Y-75714235D01*
X40376807Y-75184000D01*
X40271337Y-74653765D01*
X39970983Y-74204254D01*
X39536588Y-73914000D01*
X39970983Y-73623746D01*
X40271337Y-73174235D01*
X40376807Y-72644000D01*
X40271337Y-72113765D01*
X39970983Y-71664254D01*
X39536588Y-71374000D01*
X39970983Y-71083746D01*
X40271337Y-70634235D01*
X40376807Y-70104000D01*
X40279795Y-69616285D01*
X54748760Y-69616285D01*
X54959169Y-70125515D01*
X55348436Y-70515461D01*
X55857298Y-70726759D01*
X56408285Y-70727240D01*
X56408849Y-70727007D01*
X57381000Y-71699158D01*
X57381000Y-77820651D01*
X56992539Y-78208436D01*
X56781241Y-78717298D01*
X56780760Y-79268285D01*
X56991169Y-79777515D01*
X57380436Y-80167461D01*
X57889298Y-80378759D01*
X58440285Y-80379240D01*
X58949515Y-80168831D01*
X59339461Y-79779564D01*
X59550759Y-79270702D01*
X59551240Y-78719715D01*
X59340831Y-78210485D01*
X58951564Y-77820539D01*
X58951000Y-77820305D01*
X58951000Y-72575599D01*
X65824699Y-72575599D01*
X66088281Y-73213515D01*
X66575918Y-73702004D01*
X67213373Y-73966699D01*
X67903599Y-73967301D01*
X68541515Y-73703719D01*
X69030004Y-73216082D01*
X69294699Y-72578627D01*
X69295301Y-71888401D01*
X69031719Y-71250485D01*
X68544082Y-70761996D01*
X67906627Y-70497301D01*
X67216401Y-70496699D01*
X66578485Y-70760281D01*
X66089996Y-71247918D01*
X65825301Y-71885373D01*
X65824699Y-72575599D01*
X58951000Y-72575599D01*
X58951000Y-71374000D01*
X58928264Y-71259700D01*
X58891245Y-71073593D01*
X58721079Y-70818921D01*
X57518761Y-69616603D01*
X57519240Y-69067715D01*
X57308831Y-68558485D01*
X56919564Y-68168539D01*
X56410702Y-67957241D01*
X55859715Y-67956760D01*
X55350485Y-68167169D01*
X54960539Y-68556436D01*
X54749241Y-69065298D01*
X54748760Y-69616285D01*
X40279795Y-69616285D01*
X40271337Y-69573765D01*
X39970983Y-69124254D01*
X39536588Y-68834000D01*
X39970983Y-68543746D01*
X40271337Y-68094235D01*
X40376807Y-67564000D01*
X40375534Y-67557599D01*
X65824699Y-67557599D01*
X66088281Y-68195515D01*
X66575918Y-68684004D01*
X67213373Y-68948699D01*
X67903599Y-68949301D01*
X68541515Y-68685719D01*
X69030004Y-68198082D01*
X69294699Y-67560627D01*
X69295301Y-66870401D01*
X69031719Y-66232485D01*
X68544082Y-65743996D01*
X67906627Y-65479301D01*
X67216401Y-65478699D01*
X66578485Y-65742281D01*
X66089996Y-66229918D01*
X65825301Y-66867373D01*
X65824699Y-67557599D01*
X40375534Y-67557599D01*
X40271337Y-67033765D01*
X39970983Y-66584254D01*
X39536588Y-66294000D01*
X39970983Y-66003746D01*
X40271337Y-65554235D01*
X40376807Y-65024000D01*
X40271337Y-64493765D01*
X39970983Y-64044254D01*
X39536588Y-63754000D01*
X39970983Y-63463746D01*
X40034290Y-63369000D01*
X40447354Y-63369000D01*
X40466098Y-63468617D01*
X40605170Y-63684741D01*
X40817370Y-63829731D01*
X40834500Y-63833200D01*
X40834500Y-64071495D01*
X40834499Y-64071500D01*
X40867818Y-64239000D01*
X40901867Y-64410175D01*
X40916000Y-64431326D01*
X41093710Y-64697290D01*
X41792208Y-65395787D01*
X41792210Y-65395790D01*
X41976508Y-65518933D01*
X42079325Y-65587633D01*
X42418000Y-65655001D01*
X42418005Y-65655000D01*
X44195995Y-65655000D01*
X44196000Y-65655001D01*
X44478484Y-65598810D01*
X44534675Y-65587633D01*
X44821790Y-65395790D01*
X44821791Y-65395789D01*
X45612844Y-64604735D01*
X51640870Y-64604735D01*
X51690383Y-64830164D01*
X52155036Y-64989807D01*
X52645413Y-64959482D01*
X52957617Y-64830164D01*
X53007130Y-64604735D01*
X52324000Y-63921605D01*
X51640870Y-64604735D01*
X45612844Y-64604735D01*
X47298287Y-62919292D01*
X47298290Y-62919290D01*
X47490133Y-62632175D01*
X47509892Y-62532839D01*
X47557501Y-62293500D01*
X47557500Y-62293495D01*
X47557500Y-60534567D01*
X47558057Y-60534462D01*
X47774181Y-60395390D01*
X47911785Y-60194000D01*
X48262300Y-60194000D01*
X48278620Y-60205151D01*
X48530510Y-60256160D01*
X50529490Y-60256160D01*
X50764807Y-60211882D01*
X50980931Y-60072810D01*
X51125921Y-59860610D01*
X51176930Y-59608720D01*
X51176930Y-59009280D01*
X51132652Y-58773963D01*
X51074170Y-58683080D01*
X51164490Y-58465029D01*
X51164490Y-58324750D01*
X51005740Y-58166000D01*
X49657000Y-58166000D01*
X49657000Y-58186000D01*
X49403000Y-58186000D01*
X49403000Y-58166000D01*
X48054260Y-58166000D01*
X47941259Y-58279001D01*
X47925902Y-58197383D01*
X47786830Y-57981259D01*
X47574630Y-57836269D01*
X47322740Y-57785260D01*
X46022260Y-57785260D01*
X45786943Y-57829538D01*
X45721922Y-57871378D01*
X45544049Y-57797700D01*
X45053250Y-57797700D01*
X44894500Y-57956450D01*
X44894500Y-59055000D01*
X44914500Y-59055000D01*
X44914500Y-59309000D01*
X44894500Y-59309000D01*
X44894500Y-60407550D01*
X45053250Y-60566300D01*
X45544049Y-60566300D01*
X45720095Y-60493379D01*
X45770370Y-60527731D01*
X45787500Y-60531200D01*
X45787500Y-61926921D01*
X44909740Y-62804681D01*
X44909740Y-62769750D01*
X44750990Y-62611000D01*
X43751500Y-62611000D01*
X43751500Y-63709550D01*
X43878185Y-63836235D01*
X43829420Y-63885000D01*
X42784579Y-63885000D01*
X42711260Y-63811681D01*
X42847951Y-63868300D01*
X43338750Y-63868300D01*
X43497500Y-63709550D01*
X43497500Y-62611000D01*
X43477500Y-62611000D01*
X43477500Y-62357000D01*
X43497500Y-62357000D01*
X43497500Y-61258450D01*
X43751500Y-61258450D01*
X43751500Y-62357000D01*
X44750990Y-62357000D01*
X44909740Y-62198250D01*
X44909740Y-61608390D01*
X44813067Y-61375001D01*
X44634438Y-61196373D01*
X44401049Y-61099700D01*
X43910250Y-61099700D01*
X43751500Y-61258450D01*
X43497500Y-61258450D01*
X43338750Y-61099700D01*
X42847951Y-61099700D01*
X42671905Y-61172621D01*
X42621630Y-61138269D01*
X42369740Y-61087260D01*
X41069260Y-61087260D01*
X40833943Y-61131538D01*
X40617819Y-61270610D01*
X40472829Y-61482810D01*
X40449300Y-61599000D01*
X40034290Y-61599000D01*
X39970983Y-61504254D01*
X39536588Y-61214000D01*
X39970983Y-60923746D01*
X40271337Y-60474235D01*
X40376807Y-59944000D01*
X40282076Y-59467750D01*
X43482260Y-59467750D01*
X43482260Y-60057610D01*
X43578933Y-60290999D01*
X43757562Y-60469627D01*
X43990951Y-60566300D01*
X44481750Y-60566300D01*
X44640500Y-60407550D01*
X44640500Y-59309000D01*
X43641010Y-59309000D01*
X43482260Y-59467750D01*
X40282076Y-59467750D01*
X40271337Y-59413765D01*
X39970983Y-58964254D01*
X39521472Y-58663900D01*
X39513928Y-58662399D01*
X39604817Y-58635499D01*
X40011421Y-58306390D01*
X43482260Y-58306390D01*
X43482260Y-58896250D01*
X43641010Y-59055000D01*
X44640500Y-59055000D01*
X44640500Y-57956450D01*
X44481750Y-57797700D01*
X43990951Y-57797700D01*
X43757562Y-57894373D01*
X43578933Y-58073001D01*
X43482260Y-58306390D01*
X40011421Y-58306390D01*
X40026798Y-58293944D01*
X40285950Y-57816903D01*
X40300133Y-57745275D01*
X40177479Y-57531000D01*
X38735000Y-57531000D01*
X38735000Y-57551000D01*
X38481000Y-57551000D01*
X38481000Y-57531000D01*
X37038521Y-57531000D01*
X36915867Y-57745275D01*
X36930050Y-57816903D01*
X37189202Y-58293944D01*
X37611183Y-58635499D01*
X37702072Y-58662399D01*
X37694528Y-58663900D01*
X37245017Y-58964254D01*
X36944663Y-59413765D01*
X36839193Y-59944000D01*
X36944663Y-60474235D01*
X37167877Y-60808297D01*
X33137790Y-56778210D01*
X33104234Y-56755789D01*
X32850675Y-56586367D01*
X32794484Y-56575190D01*
X32512000Y-56518999D01*
X32511995Y-56519000D01*
X32414290Y-56519000D01*
X32350983Y-56424254D01*
X31916588Y-56134000D01*
X32350983Y-55843746D01*
X32651337Y-55394235D01*
X32756807Y-54864000D01*
X32651337Y-54333765D01*
X32350983Y-53884254D01*
X31916588Y-53594000D01*
X32350983Y-53303746D01*
X32651337Y-52854235D01*
X32756807Y-52324000D01*
X32655362Y-51814000D01*
X36940638Y-51814000D01*
X36839193Y-52324000D01*
X36944663Y-52854235D01*
X37245017Y-53303746D01*
X37679412Y-53594000D01*
X37245017Y-53884254D01*
X36944663Y-54333765D01*
X36839193Y-54864000D01*
X36944663Y-55394235D01*
X37245017Y-55843746D01*
X37694528Y-56144100D01*
X37702072Y-56145601D01*
X37611183Y-56172501D01*
X37189202Y-56514056D01*
X36930050Y-56991097D01*
X36915867Y-57062725D01*
X37038521Y-57277000D01*
X38481000Y-57277000D01*
X38481000Y-57257000D01*
X38735000Y-57257000D01*
X38735000Y-57277000D01*
X40177479Y-57277000D01*
X40300133Y-57062725D01*
X40285950Y-56991097D01*
X40026798Y-56514056D01*
X39604817Y-56172501D01*
X39513928Y-56145601D01*
X39521472Y-56144100D01*
X39970983Y-55843746D01*
X40271337Y-55394235D01*
X40376807Y-54864000D01*
X40271337Y-54333765D01*
X39970983Y-53884254D01*
X39536588Y-53594000D01*
X39970983Y-53303746D01*
X40271337Y-52854235D01*
X40376807Y-52324000D01*
X40275362Y-51814000D01*
X40325198Y-51814000D01*
X40610599Y-52099401D01*
X40857161Y-52264148D01*
X41148000Y-52322000D01*
X42455833Y-52322000D01*
X42498098Y-52546617D01*
X42637170Y-52762741D01*
X42849370Y-52907731D01*
X43101260Y-52958740D01*
X44401740Y-52958740D01*
X44637057Y-52914462D01*
X44702546Y-52872321D01*
X44754370Y-52907731D01*
X45006260Y-52958740D01*
X46306740Y-52958740D01*
X46542057Y-52914462D01*
X46758181Y-52775390D01*
X46903171Y-52563190D01*
X46926295Y-52449000D01*
X47925653Y-52449000D01*
X47883070Y-52659280D01*
X47883070Y-53258720D01*
X47927348Y-53494037D01*
X47991374Y-53593536D01*
X47934079Y-53677390D01*
X47883070Y-53929280D01*
X47883070Y-54528720D01*
X47927348Y-54764037D01*
X47991374Y-54863536D01*
X47934079Y-54947390D01*
X47883070Y-55199280D01*
X47883070Y-55798720D01*
X47927348Y-56034037D01*
X47991374Y-56133536D01*
X47934079Y-56217390D01*
X47883070Y-56469280D01*
X47883070Y-57068720D01*
X47927348Y-57304037D01*
X47985830Y-57394920D01*
X47895510Y-57612971D01*
X47895510Y-57753250D01*
X48054260Y-57912000D01*
X49403000Y-57912000D01*
X49403000Y-57892000D01*
X49657000Y-57892000D01*
X49657000Y-57912000D01*
X51005740Y-57912000D01*
X51164490Y-57753250D01*
X51164490Y-57612971D01*
X51074539Y-57395810D01*
X51125921Y-57320610D01*
X51176930Y-57068720D01*
X51176930Y-56469280D01*
X51132652Y-56233963D01*
X51068626Y-56134464D01*
X51125921Y-56050610D01*
X51176930Y-55798720D01*
X51176930Y-55199280D01*
X51132652Y-54963963D01*
X51068626Y-54864464D01*
X51125921Y-54780610D01*
X51176930Y-54528720D01*
X51176930Y-53929280D01*
X51132652Y-53693963D01*
X51068626Y-53594464D01*
X51125921Y-53510610D01*
X51176930Y-53258720D01*
X51176930Y-52659280D01*
X51132652Y-52423963D01*
X51068626Y-52324464D01*
X51125921Y-52240610D01*
X51176930Y-51988720D01*
X51176930Y-51389280D01*
X51132652Y-51153963D01*
X51068626Y-51054464D01*
X51125921Y-50970610D01*
X51176930Y-50718720D01*
X51176930Y-50119280D01*
X51132652Y-49883963D01*
X50993580Y-49667839D01*
X50781380Y-49522849D01*
X50529490Y-49471840D01*
X48530510Y-49471840D01*
X48303380Y-49514578D01*
X47527401Y-48738599D01*
X47280839Y-48573852D01*
X46990000Y-48516000D01*
X46952167Y-48516000D01*
X46909902Y-48291383D01*
X46770830Y-48075259D01*
X46558630Y-47930269D01*
X46306740Y-47879260D01*
X45006260Y-47879260D01*
X44770943Y-47923538D01*
X44705454Y-47965679D01*
X44653630Y-47930269D01*
X44401740Y-47879260D01*
X43101260Y-47879260D01*
X42865943Y-47923538D01*
X42649819Y-48062610D01*
X42504829Y-48274810D01*
X42455987Y-48516000D01*
X41462802Y-48516000D01*
X40923401Y-47976599D01*
X40676839Y-47811852D01*
X40386000Y-47754000D01*
X40275362Y-47754000D01*
X40376807Y-47244000D01*
X40271337Y-46713765D01*
X39970983Y-46264254D01*
X39536588Y-45974000D01*
X39970983Y-45683746D01*
X40101108Y-45489000D01*
X40428537Y-45489000D01*
X40466098Y-45688617D01*
X40605170Y-45904741D01*
X40817370Y-46049731D01*
X41069260Y-46100740D01*
X42369740Y-46100740D01*
X42605057Y-46056462D01*
X42670546Y-46014321D01*
X42722370Y-46049731D01*
X42974260Y-46100740D01*
X44274740Y-46100740D01*
X44510057Y-46056462D01*
X44726181Y-45917390D01*
X44871171Y-45705190D01*
X44922180Y-45453300D01*
X44922180Y-43954700D01*
X44877902Y-43719383D01*
X44738830Y-43503259D01*
X44637825Y-43434245D01*
X44726181Y-43377390D01*
X44871171Y-43165190D01*
X44900319Y-43021250D01*
X44970700Y-43021250D01*
X44970700Y-43512049D01*
X45067373Y-43745438D01*
X45246001Y-43924067D01*
X45479390Y-44020740D01*
X46069250Y-44020740D01*
X46228000Y-43861990D01*
X46228000Y-42862500D01*
X46482000Y-42862500D01*
X46482000Y-43861990D01*
X46640750Y-44020740D01*
X47230610Y-44020740D01*
X47463999Y-43924067D01*
X47642627Y-43745438D01*
X47739300Y-43512049D01*
X47739300Y-43402250D01*
X52209700Y-43402250D01*
X52209700Y-43893049D01*
X52306373Y-44126438D01*
X52485001Y-44305067D01*
X52718390Y-44401740D01*
X53308250Y-44401740D01*
X53467000Y-44242990D01*
X53467000Y-43243500D01*
X53721000Y-43243500D01*
X53721000Y-44242990D01*
X53879750Y-44401740D01*
X54469610Y-44401740D01*
X54702999Y-44305067D01*
X54881627Y-44126438D01*
X54978300Y-43893049D01*
X54978300Y-43402250D01*
X54819550Y-43243500D01*
X53721000Y-43243500D01*
X53467000Y-43243500D01*
X52368450Y-43243500D01*
X52209700Y-43402250D01*
X47739300Y-43402250D01*
X47739300Y-43021250D01*
X47580550Y-42862500D01*
X46482000Y-42862500D01*
X46228000Y-42862500D01*
X45129450Y-42862500D01*
X44970700Y-43021250D01*
X44900319Y-43021250D01*
X44922180Y-42913300D01*
X44922180Y-41414700D01*
X44877902Y-41179383D01*
X44738830Y-40963259D01*
X44526630Y-40818269D01*
X44509500Y-40814800D01*
X44509500Y-39052505D01*
X44509501Y-39052500D01*
X44442133Y-38713826D01*
X44442133Y-38713825D01*
X44250290Y-38426710D01*
X44250287Y-38426708D01*
X43802884Y-37979305D01*
X43803240Y-37571715D01*
X43592831Y-37062485D01*
X43203564Y-36672539D01*
X42694702Y-36461241D01*
X42143715Y-36460760D01*
X41634485Y-36671169D01*
X41344148Y-36961000D01*
X32512005Y-36961000D01*
X32512000Y-36960999D01*
X32229516Y-37017190D01*
X32173325Y-37028367D01*
X31886210Y-37220210D01*
X31886208Y-37220213D01*
X30557920Y-38548500D01*
X28276567Y-38548500D01*
X28276462Y-38547943D01*
X28137390Y-38331819D01*
X27925190Y-38186829D01*
X27673300Y-38135820D01*
X26174700Y-38135820D01*
X25939383Y-38180098D01*
X25723259Y-38319170D01*
X25578269Y-38531370D01*
X25574800Y-38548500D01*
X23958567Y-38548500D01*
X23958462Y-38547943D01*
X23819390Y-38331819D01*
X23607190Y-38186829D01*
X23355300Y-38135820D01*
X21856700Y-38135820D01*
X21621383Y-38180098D01*
X21405259Y-38319170D01*
X21260269Y-38531370D01*
X21209260Y-38783260D01*
X20710000Y-38783260D01*
X20710000Y-34027745D01*
X33616861Y-34027745D01*
X33690995Y-34273864D01*
X34228223Y-34466965D01*
X34798454Y-34439778D01*
X35199005Y-34273864D01*
X35273139Y-34027745D01*
X34445000Y-33199605D01*
X33616861Y-34027745D01*
X20710000Y-34027745D01*
X20710000Y-32803223D01*
X32998035Y-32803223D01*
X33025222Y-33373454D01*
X33191136Y-33774005D01*
X33437255Y-33848139D01*
X34265395Y-33020000D01*
X34624605Y-33020000D01*
X35452745Y-33848139D01*
X35698864Y-33774005D01*
X35891965Y-33236777D01*
X35864778Y-32666546D01*
X35698864Y-32265995D01*
X35452745Y-32191861D01*
X34624605Y-33020000D01*
X34265395Y-33020000D01*
X33437255Y-32191861D01*
X33191136Y-32265995D01*
X32998035Y-32803223D01*
X20710000Y-32803223D01*
X20710000Y-32012255D01*
X33616861Y-32012255D01*
X34445000Y-32840395D01*
X35273139Y-32012255D01*
X35199005Y-31766136D01*
X34661777Y-31573035D01*
X34091546Y-31600222D01*
X33690995Y-31766136D01*
X33616861Y-32012255D01*
X20710000Y-32012255D01*
X20710000Y-28651532D01*
X21268073Y-28651532D01*
X21366736Y-28918387D01*
X21976461Y-29144908D01*
X22626460Y-29120856D01*
X23115264Y-28918387D01*
X23213927Y-28651532D01*
X22241000Y-27678605D01*
X21268073Y-28651532D01*
X20710000Y-28651532D01*
X20710000Y-28103806D01*
X20821613Y-28373264D01*
X21088468Y-28471927D01*
X22061395Y-27499000D01*
X22420605Y-27499000D01*
X23393532Y-28471927D01*
X23660387Y-28373264D01*
X23886908Y-27763539D01*
X23862856Y-27113540D01*
X23660387Y-26624736D01*
X23393532Y-26526073D01*
X22420605Y-27499000D01*
X22061395Y-27499000D01*
X21088468Y-26526073D01*
X20821613Y-26624736D01*
X20710000Y-26925164D01*
X20710000Y-26346468D01*
X21268073Y-26346468D01*
X22241000Y-27319395D01*
X23213927Y-26346468D01*
X23115264Y-26079613D01*
X22505539Y-25853092D01*
X21855540Y-25877144D01*
X21366736Y-26079613D01*
X21268073Y-26346468D01*
X20710000Y-26346468D01*
X20710000Y-15710000D01*
X32654935Y-15710000D01*
X32394210Y-15884210D01*
X32394210Y-15884210D01*
G37*
X32394210Y-15884210D02*
X32394208Y-15884213D01*
X30134746Y-18143675D01*
X30135240Y-17577211D01*
X29810910Y-16792273D01*
X29210886Y-16191200D01*
X28426515Y-15865501D01*
X27577211Y-15864760D01*
X26792273Y-16189090D01*
X26191200Y-16789114D01*
X25865501Y-17573485D01*
X25864760Y-18422789D01*
X26150363Y-19114000D01*
X25644398Y-19114000D01*
X25627894Y-19074057D01*
X25168363Y-18613722D01*
X24567648Y-18364284D01*
X23917205Y-18363716D01*
X23316057Y-18612106D01*
X22855722Y-19071637D01*
X22606284Y-19672352D01*
X22605716Y-20322795D01*
X22854106Y-20923943D01*
X23313637Y-21384278D01*
X23356000Y-21401869D01*
X23356000Y-24748995D01*
X23355999Y-24749000D01*
X23404419Y-24992418D01*
X23423367Y-25087675D01*
X23461095Y-25144139D01*
X23615210Y-25374790D01*
X26806208Y-28565787D01*
X26806210Y-28565790D01*
X27002970Y-28697260D01*
X27093325Y-28757633D01*
X27384038Y-28815460D01*
X27395258Y-28875087D01*
X27534330Y-29091211D01*
X27746530Y-29236201D01*
X27998420Y-29287210D01*
X29298900Y-29287210D01*
X29534217Y-29242932D01*
X29750341Y-29103860D01*
X29895331Y-28891660D01*
X29946340Y-28639770D01*
X29946340Y-27240230D01*
X30251660Y-27240230D01*
X30251660Y-28639770D01*
X30295938Y-28875087D01*
X30435010Y-29091211D01*
X30647210Y-29236201D01*
X30899100Y-29287210D01*
X32199580Y-29287210D01*
X32434897Y-29242932D01*
X32651021Y-29103860D01*
X32796011Y-28891660D01*
X32809510Y-28825000D01*
X35447420Y-28825000D01*
X37060000Y-30437579D01*
X37060000Y-31588554D01*
X36909683Y-31616838D01*
X36693559Y-31755910D01*
X36548569Y-31968110D01*
X36497560Y-32220000D01*
X36497560Y-33820000D01*
X36541838Y-34055317D01*
X36680910Y-34271441D01*
X36893110Y-34416431D01*
X37145000Y-34467440D01*
X38745000Y-34467440D01*
X38980317Y-34423162D01*
X39196441Y-34284090D01*
X39341431Y-34071890D01*
X39375227Y-33905000D01*
X43829420Y-33905000D01*
X46403347Y-36478926D01*
X45901178Y-36980221D01*
X45613648Y-37672669D01*
X45612994Y-38422441D01*
X45707127Y-38650260D01*
X45537367Y-38904325D01*
X45530262Y-38940046D01*
X45469999Y-39243000D01*
X45470000Y-39243005D01*
X45470000Y-39558354D01*
X45370383Y-39577098D01*
X45154259Y-39716170D01*
X45009269Y-39928370D01*
X44958260Y-40180260D01*
X44958260Y-41480740D01*
X45002538Y-41716057D01*
X45044378Y-41781078D01*
X44970700Y-41958951D01*
X44970700Y-42449750D01*
X45129450Y-42608500D01*
X46228000Y-42608500D01*
X46228000Y-42588500D01*
X46482000Y-42588500D01*
X46482000Y-42608500D01*
X47580550Y-42608500D01*
X47739300Y-42449750D01*
X47739300Y-41958951D01*
X47724115Y-41922289D01*
X48884517Y-41922289D01*
X49013725Y-42215059D01*
X49713883Y-42483271D01*
X50463384Y-42463128D01*
X51062275Y-42215059D01*
X51191483Y-41922289D01*
X50038000Y-40768805D01*
X48884517Y-41922289D01*
X47724115Y-41922289D01*
X47666379Y-41782905D01*
X47700731Y-41732630D01*
X47751740Y-41480740D01*
X47751740Y-40180260D01*
X47707462Y-39944943D01*
X47700457Y-39934057D01*
X47871241Y-39934206D01*
X48345792Y-39738126D01*
X48143929Y-40265083D01*
X48164072Y-41014584D01*
X48412141Y-41613475D01*
X48704911Y-41742683D01*
X49858395Y-40589200D01*
X49844252Y-40575058D01*
X50023858Y-40395452D01*
X50038000Y-40409595D01*
X50052142Y-40395452D01*
X50231748Y-40575058D01*
X50217605Y-40589200D01*
X51371089Y-41742683D01*
X51663859Y-41613475D01*
X51932071Y-40913317D01*
X51911928Y-40163816D01*
X51736592Y-39740518D01*
X52201469Y-39933552D01*
X52709000Y-39933995D01*
X52709000Y-39939354D01*
X52609383Y-39958098D01*
X52393259Y-40097170D01*
X52248269Y-40309370D01*
X52197260Y-40561260D01*
X52197260Y-41861740D01*
X52241538Y-42097057D01*
X52283378Y-42162078D01*
X52209700Y-42339951D01*
X52209700Y-42830750D01*
X52368450Y-42989500D01*
X53467000Y-42989500D01*
X53467000Y-42969500D01*
X53721000Y-42969500D01*
X53721000Y-42989500D01*
X54819550Y-42989500D01*
X54978300Y-42830750D01*
X54978300Y-42339951D01*
X54905379Y-42163905D01*
X54939731Y-42113630D01*
X54990740Y-41861740D01*
X54990740Y-40657223D01*
X57227035Y-40657223D01*
X57254222Y-41227454D01*
X57420136Y-41628005D01*
X57666255Y-41702139D01*
X58494395Y-40874000D01*
X57666255Y-40045861D01*
X57420136Y-40119995D01*
X57227035Y-40657223D01*
X54990740Y-40657223D01*
X54990740Y-40561260D01*
X54946462Y-40325943D01*
X54807390Y-40109819D01*
X54595190Y-39964829D01*
X54479000Y-39941300D01*
X54479000Y-39065205D01*
X54479001Y-39065200D01*
X54452943Y-38934200D01*
X57226560Y-38934200D01*
X57226560Y-39174000D01*
X57270838Y-39409317D01*
X57409910Y-39625441D01*
X57622110Y-39770431D01*
X57860201Y-39818646D01*
X57845861Y-39866255D01*
X58674000Y-40694395D01*
X59502139Y-39866255D01*
X59487855Y-39818833D01*
X59709317Y-39777162D01*
X59714860Y-39773595D01*
X59714860Y-40055836D01*
X59681745Y-40045861D01*
X58853605Y-40874000D01*
X58867748Y-40888142D01*
X58688142Y-41067748D01*
X58674000Y-41053605D01*
X57845861Y-41881745D01*
X57919995Y-42127864D01*
X58457223Y-42320965D01*
X58725000Y-42308198D01*
X54580599Y-46452599D01*
X54415852Y-46699161D01*
X54358000Y-46990000D01*
X54358000Y-49471840D01*
X54118510Y-49471840D01*
X53883193Y-49516118D01*
X53667069Y-49655190D01*
X53522079Y-49867390D01*
X53471070Y-50119280D01*
X53471070Y-50718720D01*
X53515348Y-50954037D01*
X53579374Y-51053536D01*
X53522079Y-51137390D01*
X53471070Y-51389280D01*
X53471070Y-51988720D01*
X53515348Y-52224037D01*
X53579374Y-52323536D01*
X53522079Y-52407390D01*
X53471070Y-52659280D01*
X53471070Y-53258720D01*
X53515348Y-53494037D01*
X53579374Y-53593536D01*
X53522079Y-53677390D01*
X53471070Y-53929280D01*
X53471070Y-54528720D01*
X53515348Y-54764037D01*
X53579374Y-54863536D01*
X53522079Y-54947390D01*
X53471070Y-55199280D01*
X53471070Y-55798720D01*
X53515348Y-56034037D01*
X53579374Y-56133536D01*
X53522079Y-56217390D01*
X53471070Y-56469280D01*
X53471070Y-57068720D01*
X53510637Y-57279000D01*
X52959000Y-57279000D01*
X52668161Y-57336852D01*
X52421599Y-57501599D01*
X51786599Y-58136599D01*
X51621852Y-58383161D01*
X51564000Y-58674000D01*
X51564000Y-61024666D01*
X51488683Y-61038838D01*
X51272559Y-61177910D01*
X51127569Y-61390110D01*
X51076560Y-61642000D01*
X51076560Y-62842000D01*
X51120838Y-63077317D01*
X51202766Y-63204636D01*
X51076193Y-63573036D01*
X51106518Y-64063413D01*
X51235836Y-64375617D01*
X51461265Y-64425130D01*
X52144395Y-63742000D01*
X52130253Y-63727858D01*
X52309858Y-63548253D01*
X52324000Y-63562395D01*
X52338143Y-63548253D01*
X52517748Y-63727858D01*
X52503605Y-63742000D01*
X53186735Y-64425130D01*
X53412164Y-64375617D01*
X53571807Y-63910964D01*
X53541482Y-63420587D01*
X53449289Y-63198010D01*
X53520431Y-63093890D01*
X53571440Y-62842000D01*
X53571440Y-61642000D01*
X53527162Y-61406683D01*
X53388090Y-61190559D01*
X53175890Y-61045569D01*
X53084000Y-61026961D01*
X53084000Y-58988802D01*
X53273802Y-58799000D01*
X53513653Y-58799000D01*
X53471070Y-59009280D01*
X53471070Y-59608720D01*
X53515348Y-59844037D01*
X53654420Y-60060161D01*
X53866620Y-60205151D01*
X54118510Y-60256160D01*
X56117490Y-60256160D01*
X56352807Y-60211882D01*
X56501438Y-60116240D01*
X57108599Y-60723401D01*
X57355160Y-60888148D01*
X57646000Y-60946000D01*
X58726666Y-60946000D01*
X58740838Y-61021317D01*
X58879910Y-61237441D01*
X59092110Y-61382431D01*
X59344000Y-61433440D01*
X60544000Y-61433440D01*
X60779317Y-61389162D01*
X60995441Y-61250090D01*
X61140431Y-61037890D01*
X61191440Y-60786000D01*
X61191440Y-59586000D01*
X61147162Y-59350683D01*
X61060901Y-59216630D01*
X61178785Y-58932734D01*
X61179214Y-58441421D01*
X60991592Y-57987343D01*
X60644485Y-57639629D01*
X60190734Y-57451215D01*
X59699421Y-57450786D01*
X59245343Y-57638408D01*
X59106155Y-57777353D01*
X57560401Y-56231599D01*
X57526989Y-56209274D01*
X57567839Y-56201148D01*
X57814401Y-56036401D01*
X58238802Y-55612000D01*
X58726666Y-55612000D01*
X58740838Y-55687317D01*
X58879910Y-55903441D01*
X59092110Y-56048431D01*
X59344000Y-56099440D01*
X60544000Y-56099440D01*
X60779317Y-56055162D01*
X60995441Y-55916090D01*
X61140431Y-55703890D01*
X61170055Y-55557599D01*
X65824699Y-55557599D01*
X66088281Y-56195515D01*
X66575918Y-56684004D01*
X67213373Y-56948699D01*
X67903599Y-56949301D01*
X68541515Y-56685719D01*
X69030004Y-56198082D01*
X69294699Y-55560627D01*
X69295301Y-54870401D01*
X69031719Y-54232485D01*
X68544082Y-53743996D01*
X67906627Y-53479301D01*
X67216401Y-53478699D01*
X66578485Y-53742281D01*
X66089996Y-54229918D01*
X65825301Y-54867373D01*
X65824699Y-55557599D01*
X61170055Y-55557599D01*
X61191440Y-55452000D01*
X61191440Y-54252000D01*
X61147162Y-54016683D01*
X61060901Y-53882630D01*
X61178785Y-53598734D01*
X61179214Y-53107421D01*
X60991592Y-52653343D01*
X60644485Y-52305629D01*
X60190734Y-52117215D01*
X59699421Y-52116786D01*
X59245343Y-52304408D01*
X58957248Y-52592000D01*
X58154000Y-52592000D01*
X57863160Y-52649852D01*
X57616599Y-52814599D01*
X56962198Y-53469000D01*
X56825802Y-53469000D01*
X59731401Y-50563401D01*
X59896148Y-50316840D01*
X59954000Y-50026000D01*
X59954000Y-49997329D01*
X59967690Y-50003000D01*
X60408250Y-50003000D01*
X60567000Y-49844250D01*
X60567000Y-48895000D01*
X60821000Y-48895000D01*
X60821000Y-49844250D01*
X60979750Y-50003000D01*
X61420310Y-50003000D01*
X61653699Y-49906327D01*
X61832327Y-49727698D01*
X61847428Y-49691239D01*
X64427827Y-49691239D01*
X64904192Y-50844131D01*
X65785489Y-51726968D01*
X66937548Y-52205345D01*
X68184979Y-52206433D01*
X69337871Y-51730068D01*
X70220708Y-50848771D01*
X70699085Y-49696712D01*
X70700173Y-48449281D01*
X70223808Y-47296389D01*
X69342511Y-46413552D01*
X68190452Y-45935175D01*
X66943021Y-45934087D01*
X65790129Y-46410452D01*
X64907292Y-47291749D01*
X64428915Y-48443808D01*
X64427827Y-49691239D01*
X61847428Y-49691239D01*
X61929000Y-49494309D01*
X61929000Y-49053750D01*
X61770250Y-48895000D01*
X60821000Y-48895000D01*
X60567000Y-48895000D01*
X60547000Y-48895000D01*
X60547000Y-48641000D01*
X60567000Y-48641000D01*
X60567000Y-47691750D01*
X60821000Y-47691750D01*
X60821000Y-48641000D01*
X61770250Y-48641000D01*
X61929000Y-48482250D01*
X61929000Y-48041691D01*
X61832327Y-47808302D01*
X61653699Y-47629673D01*
X61420310Y-47533000D01*
X60979750Y-47533000D01*
X60821000Y-47691750D01*
X60567000Y-47691750D01*
X60408250Y-47533000D01*
X59967690Y-47533000D01*
X59734301Y-47629673D01*
X59716324Y-47647650D01*
X59440734Y-47533215D01*
X58949421Y-47532786D01*
X58495343Y-47720408D01*
X58164000Y-48051173D01*
X58164000Y-47812802D01*
X63275401Y-42701401D01*
X63438694Y-42457015D01*
X64453277Y-42457015D01*
X64471923Y-42559045D01*
X64742370Y-43032064D01*
X65173247Y-43365581D01*
X65698957Y-43508821D01*
X65918080Y-43348126D01*
X65918080Y-42242740D01*
X66172080Y-42242740D01*
X66172080Y-43348126D01*
X66391203Y-43508821D01*
X66916913Y-43365581D01*
X67347790Y-43032064D01*
X67618237Y-42559045D01*
X67636883Y-42457015D01*
X67514229Y-42242740D01*
X66172080Y-42242740D01*
X65918080Y-42242740D01*
X64575931Y-42242740D01*
X64453277Y-42457015D01*
X63438694Y-42457015D01*
X63440148Y-42454839D01*
X63498000Y-42164000D01*
X63498000Y-37652802D01*
X63814802Y-37336000D01*
X64637562Y-37336000D01*
X64784392Y-37555746D01*
X65233903Y-37856100D01*
X65764138Y-37961570D01*
X65233903Y-38067040D01*
X64784392Y-38367394D01*
X64484038Y-38816905D01*
X64378568Y-39347140D01*
X64484038Y-39877375D01*
X64784392Y-40326886D01*
X65233903Y-40627240D01*
X65764138Y-40732710D01*
X65918078Y-40732710D01*
X65918078Y-40883353D01*
X65698957Y-40722659D01*
X65173247Y-40865899D01*
X64742370Y-41199416D01*
X64471923Y-41672435D01*
X64453277Y-41774465D01*
X64575931Y-41988740D01*
X65918080Y-41988740D01*
X65918080Y-41968740D01*
X66172080Y-41968740D01*
X66172080Y-41988740D01*
X67514229Y-41988740D01*
X67636883Y-41774465D01*
X67618237Y-41672435D01*
X67347790Y-41199416D01*
X66916913Y-40865899D01*
X66391203Y-40722659D01*
X66172082Y-40883353D01*
X66172082Y-40732710D01*
X66326022Y-40732710D01*
X66856257Y-40627240D01*
X67305768Y-40326886D01*
X67606122Y-39877375D01*
X67711592Y-39347140D01*
X67606122Y-38816905D01*
X67305768Y-38367394D01*
X66856257Y-38067040D01*
X66326022Y-37961570D01*
X66856257Y-37856100D01*
X67305768Y-37555746D01*
X67606122Y-37106235D01*
X67711592Y-36576000D01*
X67612578Y-36078224D01*
X67700917Y-35989885D01*
X67822232Y-36171446D01*
X68074000Y-36339672D01*
X68074000Y-36812328D01*
X67822232Y-36980554D01*
X67521878Y-37430065D01*
X67416408Y-37960300D01*
X67521878Y-38490535D01*
X67822232Y-38940046D01*
X68271743Y-39240400D01*
X68801978Y-39345870D01*
X68271743Y-39451340D01*
X67822232Y-39751694D01*
X67521878Y-40201205D01*
X67416408Y-40731440D01*
X67521878Y-41261675D01*
X67822232Y-41711186D01*
X68271743Y-42011540D01*
X68801978Y-42117010D01*
X69363862Y-42117010D01*
X69894097Y-42011540D01*
X70343608Y-41711186D01*
X70643962Y-41261675D01*
X70749432Y-40731440D01*
X70643962Y-40201205D01*
X70343608Y-39751694D01*
X69894097Y-39451340D01*
X69363862Y-39345870D01*
X69894097Y-39240400D01*
X70343608Y-38940046D01*
X70643962Y-38490535D01*
X70749432Y-37960300D01*
X70643962Y-37430065D01*
X70343608Y-36980554D01*
X69894097Y-36680200D01*
X69594000Y-36620507D01*
X69594000Y-36531493D01*
X69894097Y-36471800D01*
X70343608Y-36171446D01*
X70643962Y-35721935D01*
X70749432Y-35191700D01*
X70643962Y-34661465D01*
X70343608Y-34211954D01*
X69894097Y-33911600D01*
X69363862Y-33806130D01*
X69894097Y-33700660D01*
X70343608Y-33400306D01*
X70643962Y-32950795D01*
X70749432Y-32420560D01*
X70643962Y-31890325D01*
X70343608Y-31440814D01*
X69894097Y-31140460D01*
X69363862Y-31034990D01*
X68801978Y-31034990D01*
X68271743Y-31140460D01*
X67822232Y-31440814D01*
X67521878Y-31890325D01*
X67477621Y-32112819D01*
X67339401Y-31974599D01*
X67335277Y-31971843D01*
X67606122Y-31566495D01*
X67711592Y-31036260D01*
X67606122Y-30506025D01*
X67305768Y-30056514D01*
X66856257Y-29756160D01*
X66326022Y-29650690D01*
X65764138Y-29650690D01*
X65233903Y-29756160D01*
X64784392Y-30056514D01*
X64484038Y-30506025D01*
X64378568Y-31036260D01*
X64443997Y-31365195D01*
X63793901Y-30715099D01*
X63547339Y-30550352D01*
X63380737Y-30517213D01*
X63352462Y-30366943D01*
X63310321Y-30301454D01*
X63345731Y-30249630D01*
X63396740Y-29997740D01*
X63396740Y-28697260D01*
X63352462Y-28461943D01*
X63213390Y-28245819D01*
X63001190Y-28100829D01*
X62749300Y-28049820D01*
X62736000Y-28049820D01*
X62736000Y-27411689D01*
X62810757Y-27397622D01*
X63026881Y-27258550D01*
X63171871Y-27046350D01*
X63222880Y-26794460D01*
X63222880Y-25595580D01*
X63178602Y-25360263D01*
X63039530Y-25144139D01*
X63031341Y-25138544D01*
X63113767Y-25056118D01*
X63210440Y-24822729D01*
X63210440Y-24702719D01*
X64427827Y-24702719D01*
X64904192Y-25855611D01*
X65785489Y-26738448D01*
X66937548Y-27216825D01*
X68184979Y-27217913D01*
X69337871Y-26741548D01*
X70220708Y-25860251D01*
X70699085Y-24708192D01*
X70700173Y-23460761D01*
X70223808Y-22307869D01*
X69342511Y-21425032D01*
X68190452Y-20946655D01*
X66943021Y-20945567D01*
X65790129Y-21421932D01*
X64907292Y-22303229D01*
X64428915Y-23455288D01*
X64427827Y-24702719D01*
X63210440Y-24702719D01*
X63210440Y-24382730D01*
X63051690Y-24223980D01*
X62103000Y-24223980D01*
X62103000Y-24243980D01*
X61849000Y-24243980D01*
X61849000Y-24223980D01*
X60900310Y-24223980D01*
X60741560Y-24382730D01*
X60741560Y-24822729D01*
X60838233Y-25056118D01*
X60920445Y-25138331D01*
X60780129Y-25343690D01*
X60729120Y-25595580D01*
X60729120Y-26794460D01*
X60773398Y-27029777D01*
X60912470Y-27245901D01*
X61124670Y-27390891D01*
X61216000Y-27409386D01*
X61216000Y-28056349D01*
X61015383Y-28094098D01*
X60799259Y-28233170D01*
X60654269Y-28445370D01*
X60603260Y-28697260D01*
X60603260Y-29997740D01*
X60647538Y-30233057D01*
X60689679Y-30298546D01*
X60654269Y-30350370D01*
X60603260Y-30602260D01*
X60603260Y-31902740D01*
X60647538Y-32138057D01*
X60786610Y-32354181D01*
X60998810Y-32499171D01*
X61250700Y-32550180D01*
X62749300Y-32550180D01*
X62984617Y-32505902D01*
X63200741Y-32366830D01*
X63239420Y-32310222D01*
X63974058Y-33044860D01*
X60789662Y-33044860D01*
X60073304Y-32328502D01*
X60128741Y-32292830D01*
X60273731Y-32080630D01*
X60324740Y-31828740D01*
X60324740Y-30528260D01*
X60280462Y-30292943D01*
X60238321Y-30227454D01*
X60273731Y-30175630D01*
X60324740Y-29923740D01*
X60324740Y-28623260D01*
X60280462Y-28387943D01*
X60141390Y-28171819D01*
X59929190Y-28026829D01*
X59688000Y-27977987D01*
X59688000Y-27411689D01*
X59762757Y-27397622D01*
X59978881Y-27258550D01*
X60123871Y-27046350D01*
X60174880Y-26794460D01*
X60174880Y-25595580D01*
X60130602Y-25360263D01*
X59991530Y-25144139D01*
X59983341Y-25138544D01*
X60065767Y-25056118D01*
X60162440Y-24822729D01*
X60162440Y-24382730D01*
X60003690Y-24223980D01*
X59055000Y-24223980D01*
X59055000Y-24243980D01*
X58801000Y-24243980D01*
X58801000Y-24223980D01*
X57852310Y-24223980D01*
X57693560Y-24382730D01*
X57693560Y-24822729D01*
X57790233Y-25056118D01*
X57872445Y-25138331D01*
X57732129Y-25343690D01*
X57681120Y-25595580D01*
X57681120Y-26794460D01*
X57725398Y-27029777D01*
X57864470Y-27245901D01*
X58076670Y-27390891D01*
X58168000Y-27409386D01*
X58168000Y-27977833D01*
X57943383Y-28020098D01*
X57727259Y-28159170D01*
X57582269Y-28371370D01*
X57531260Y-28623260D01*
X57531260Y-29923740D01*
X57575538Y-30159057D01*
X57617679Y-30224546D01*
X57582269Y-30276370D01*
X57531260Y-30528260D01*
X57531260Y-31828740D01*
X57575538Y-32064057D01*
X57714610Y-32280181D01*
X57926810Y-32425171D01*
X58178700Y-32476180D01*
X58211399Y-32476180D01*
X58225852Y-32548839D01*
X58390599Y-32795401D01*
X59714860Y-34119662D01*
X59714860Y-36975335D01*
X59474000Y-36926560D01*
X57874000Y-36926560D01*
X57638683Y-36970838D01*
X57422559Y-37109910D01*
X57385464Y-37164200D01*
X54251552Y-37164200D01*
X54176686Y-36983009D01*
X53646979Y-36452378D01*
X52954531Y-36164848D01*
X52204759Y-36164194D01*
X51511809Y-36450514D01*
X50981178Y-36980221D01*
X50693648Y-37672669D01*
X50692994Y-38422441D01*
X50889074Y-38896992D01*
X50362117Y-38695129D01*
X49612616Y-38715272D01*
X49189318Y-38890608D01*
X49382352Y-38425731D01*
X49383006Y-37675959D01*
X49096686Y-36983009D01*
X48566979Y-36452378D01*
X48383000Y-36375983D01*
X48383000Y-36322005D01*
X48383001Y-36322000D01*
X48315633Y-35983325D01*
X48242486Y-35873852D01*
X48123790Y-35696210D01*
X48123787Y-35696208D01*
X44821790Y-32394210D01*
X44761882Y-32354181D01*
X44534675Y-32202367D01*
X44478484Y-32191190D01*
X44196000Y-32134999D01*
X44195995Y-32135000D01*
X39376446Y-32135000D01*
X39348162Y-31984683D01*
X39209090Y-31768559D01*
X38996890Y-31623569D01*
X38830000Y-31589773D01*
X38830000Y-30071005D01*
X38830001Y-30071000D01*
X38762633Y-29732325D01*
X38570790Y-29445210D01*
X38570787Y-29445208D01*
X36439790Y-27314210D01*
X36356488Y-27258550D01*
X36152675Y-27122367D01*
X36096484Y-27111190D01*
X35814000Y-27054999D01*
X35813995Y-27055000D01*
X32812167Y-27055000D01*
X32802742Y-27004913D01*
X32663670Y-26788789D01*
X32451470Y-26643799D01*
X32199580Y-26592790D01*
X30899100Y-26592790D01*
X30663783Y-26637068D01*
X30447659Y-26776140D01*
X30302669Y-26988340D01*
X30251660Y-27240230D01*
X29946340Y-27240230D01*
X29902062Y-27004913D01*
X29762990Y-26788789D01*
X29550790Y-26643799D01*
X29298900Y-26592790D01*
X27998420Y-26592790D01*
X27763103Y-26637068D01*
X27546979Y-26776140D01*
X27535914Y-26792335D01*
X25126000Y-24382420D01*
X25126000Y-22265285D01*
X47653797Y-22265285D01*
X48015943Y-23141744D01*
X48685929Y-23812900D01*
X49561755Y-24176575D01*
X50510085Y-24177403D01*
X51386544Y-23815257D01*
X51831345Y-23371231D01*
X57693560Y-23371231D01*
X57693560Y-23811230D01*
X57852310Y-23969980D01*
X58801000Y-23969980D01*
X58801000Y-23021290D01*
X59055000Y-23021290D01*
X59055000Y-23969980D01*
X60003690Y-23969980D01*
X60162440Y-23811230D01*
X60162440Y-23371231D01*
X60741560Y-23371231D01*
X60741560Y-23811230D01*
X60900310Y-23969980D01*
X61849000Y-23969980D01*
X61849000Y-23021290D01*
X62103000Y-23021290D01*
X62103000Y-23969980D01*
X63051690Y-23969980D01*
X63210440Y-23811230D01*
X63210440Y-23371231D01*
X63113767Y-23137842D01*
X62935139Y-22959213D01*
X62701750Y-22862540D01*
X62261750Y-22862540D01*
X62103000Y-23021290D01*
X61849000Y-23021290D01*
X61690250Y-22862540D01*
X61250250Y-22862540D01*
X61016861Y-22959213D01*
X60838233Y-23137842D01*
X60741560Y-23371231D01*
X60162440Y-23371231D01*
X60065767Y-23137842D01*
X59887139Y-22959213D01*
X59653750Y-22862540D01*
X59213750Y-22862540D01*
X59055000Y-23021290D01*
X58801000Y-23021290D01*
X58642250Y-22862540D01*
X58202250Y-22862540D01*
X57968861Y-22959213D01*
X57790233Y-23137842D01*
X57693560Y-23371231D01*
X51831345Y-23371231D01*
X52057700Y-23145271D01*
X52421375Y-22269445D01*
X52422203Y-21321115D01*
X52060057Y-20444656D01*
X51390071Y-19773500D01*
X50514245Y-19409825D01*
X49565915Y-19408997D01*
X48689456Y-19771143D01*
X48018300Y-20441129D01*
X47654625Y-21316955D01*
X47653797Y-22265285D01*
X25126000Y-22265285D01*
X25126000Y-21402398D01*
X25133449Y-21399320D01*
X32922285Y-21399320D01*
X33051533Y-21692123D01*
X33751806Y-21960388D01*
X34501435Y-21940250D01*
X35100467Y-21692123D01*
X35229715Y-21399320D01*
X34076000Y-20245605D01*
X32922285Y-21399320D01*
X25133449Y-21399320D01*
X25165943Y-21385894D01*
X25626278Y-20926363D01*
X25643869Y-20884000D01*
X29530995Y-20884000D01*
X29531000Y-20884001D01*
X29813484Y-20827810D01*
X29869675Y-20816633D01*
X30156790Y-20624790D01*
X31039773Y-19741806D01*
X32181612Y-19741806D01*
X32201750Y-20491435D01*
X32449877Y-21090467D01*
X32742680Y-21219715D01*
X33896395Y-20066000D01*
X34255605Y-20066000D01*
X35409320Y-21219715D01*
X35702123Y-21090467D01*
X35970388Y-20390194D01*
X35950250Y-19640565D01*
X35702123Y-19041533D01*
X35409320Y-18912285D01*
X34255605Y-20066000D01*
X33896395Y-20066000D01*
X32742680Y-18912285D01*
X32449877Y-19041533D01*
X32181612Y-19741806D01*
X31039773Y-19741806D01*
X32048899Y-18732680D01*
X32922285Y-18732680D01*
X34076000Y-19886395D01*
X35229715Y-18732680D01*
X35100467Y-18439877D01*
X34400194Y-18171612D01*
X33650565Y-18191750D01*
X33051533Y-18439877D01*
X32922285Y-18732680D01*
X32048899Y-18732680D01*
X33386579Y-17395000D01*
X35955420Y-17395000D01*
X37518118Y-18957697D01*
X37478907Y-18996839D01*
X37191328Y-19689405D01*
X37190674Y-20439305D01*
X37477043Y-21132372D01*
X38006839Y-21663093D01*
X38699405Y-21950672D01*
X39449305Y-21951326D01*
X40142372Y-21664957D01*
X40673093Y-21135161D01*
X40960672Y-20442595D01*
X40961326Y-19692695D01*
X40674957Y-18999628D01*
X40145161Y-18468907D01*
X40034097Y-18422789D01*
X75864760Y-18422789D01*
X76189090Y-19207727D01*
X76789114Y-19808800D01*
X77573485Y-20134499D01*
X78422789Y-20135240D01*
X79207727Y-19810910D01*
X79808800Y-19210886D01*
X80134499Y-18426515D01*
X80135240Y-17577211D01*
X79810910Y-16792273D01*
X79210886Y-16191200D01*
X78426515Y-15865501D01*
X77577211Y-15864760D01*
X76792273Y-16189090D01*
X76191200Y-16789114D01*
X75865501Y-17573485D01*
X75864760Y-18422789D01*
X40034097Y-18422789D01*
X39452595Y-18181328D01*
X39244726Y-18181147D01*
X36947790Y-15884210D01*
X36918681Y-15864760D01*
X36687065Y-15710000D01*
X85290000Y-15710000D01*
X85290000Y-91290000D01*
X69981580Y-91290000D01*
X71848790Y-89422789D01*
X75864760Y-89422789D01*
X76189090Y-90207727D01*
X76789114Y-90808800D01*
X77573485Y-91134499D01*
X78422789Y-91135240D01*
X79207727Y-90810910D01*
X79808800Y-90210886D01*
X80134499Y-89426515D01*
X80135240Y-88577211D01*
X79810910Y-87792273D01*
X79210886Y-87191200D01*
X78426515Y-86865501D01*
X77577211Y-86864760D01*
X76792273Y-87189090D01*
X76191200Y-87789114D01*
X75865501Y-88573485D01*
X75864760Y-89422789D01*
X71848790Y-89422789D01*
X75301787Y-85969792D01*
X75301790Y-85969790D01*
X75493633Y-85682675D01*
X75501245Y-85644406D01*
X75561001Y-85344000D01*
X75561000Y-85343995D01*
X75561000Y-84615207D01*
X77824665Y-84615207D01*
X78118630Y-85326658D01*
X78662479Y-85871457D01*
X79373416Y-86166663D01*
X80143207Y-86167335D01*
X80854658Y-85873370D01*
X81399457Y-85329521D01*
X81694663Y-84618584D01*
X81695335Y-83848793D01*
X81401370Y-83137342D01*
X80857521Y-82592543D01*
X80146584Y-82297337D01*
X79376793Y-82296665D01*
X78665342Y-82590630D01*
X78120543Y-83134479D01*
X77825337Y-83845416D01*
X77824665Y-84615207D01*
X75561000Y-84615207D01*
X75561000Y-72615207D01*
X77824665Y-72615207D01*
X78118630Y-73326658D01*
X78662479Y-73871457D01*
X79373416Y-74166663D01*
X80143207Y-74167335D01*
X80854658Y-73873370D01*
X81399457Y-73329521D01*
X81694663Y-72618584D01*
X81695335Y-71848793D01*
X81401370Y-71137342D01*
X80857521Y-70592543D01*
X80146584Y-70297337D01*
X79376793Y-70296665D01*
X78665342Y-70590630D01*
X78120543Y-71134479D01*
X77825337Y-71845416D01*
X77824665Y-72615207D01*
X75561000Y-72615207D01*
X75561000Y-67597207D01*
X77824665Y-67597207D01*
X78118630Y-68308658D01*
X78662479Y-68853457D01*
X79373416Y-69148663D01*
X80143207Y-69149335D01*
X80854658Y-68855370D01*
X81399457Y-68311521D01*
X81694663Y-67600584D01*
X81695335Y-66830793D01*
X81401370Y-66119342D01*
X80857521Y-65574543D01*
X80146584Y-65279337D01*
X79376793Y-65278665D01*
X78665342Y-65572630D01*
X78120543Y-66116479D01*
X77825337Y-66827416D01*
X77824665Y-67597207D01*
X75561000Y-67597207D01*
X75561000Y-61580580D01*
X79992376Y-57149203D01*
X80143207Y-57149335D01*
X80854658Y-56855370D01*
X81399457Y-56311521D01*
X81694663Y-55600584D01*
X81695335Y-54830793D01*
X81401370Y-54119342D01*
X80857521Y-53574543D01*
X80146584Y-53279337D01*
X79376793Y-53278665D01*
X78665342Y-53572630D01*
X78120543Y-54116479D01*
X77825337Y-54827416D01*
X77824665Y-55597207D01*
X78118630Y-56308658D01*
X78224104Y-56414317D01*
X74050210Y-60588210D01*
X73858367Y-60875325D01*
X73858367Y-60875326D01*
X73790999Y-61214000D01*
X73791000Y-61214005D01*
X73791000Y-84977421D01*
X68975420Y-89793000D01*
X67408020Y-89793000D01*
X67427790Y-89779790D01*
X67427791Y-89779789D01*
X73015787Y-84191792D01*
X73015790Y-84191790D01*
X73207633Y-83904675D01*
X73275000Y-83566000D01*
X73275000Y-64262005D01*
X73275001Y-64262000D01*
X73207633Y-63923326D01*
X73207633Y-63923325D01*
X73015790Y-63636210D01*
X73015787Y-63636208D01*
X69967790Y-60588210D01*
X69877276Y-60527731D01*
X69680675Y-60396367D01*
X69612173Y-60382741D01*
X69342000Y-60328999D01*
X69341995Y-60329000D01*
X67396198Y-60329000D01*
X67286195Y-60062771D01*
X66714240Y-59489817D01*
X65966562Y-59179354D01*
X65156989Y-59178648D01*
X64408771Y-59487805D01*
X63835817Y-60059760D01*
X63525354Y-60807438D01*
X63524648Y-61617011D01*
X63833805Y-62365229D01*
X64405760Y-62938183D01*
X65153438Y-63248646D01*
X65963011Y-63249352D01*
X66711229Y-62940195D01*
X67284183Y-62368240D01*
X67395981Y-62099000D01*
X68975420Y-62099000D01*
X71505000Y-64628579D01*
X71505000Y-83199421D01*
X66435420Y-88269000D01*
X62057896Y-88269000D01*
X62263093Y-88064161D01*
X62550672Y-87371595D01*
X62551326Y-86621695D01*
X62264957Y-85928628D01*
X61735161Y-85397907D01*
X61551000Y-85321437D01*
X61551000Y-84575599D01*
X65824699Y-84575599D01*
X66088281Y-85213515D01*
X66575918Y-85702004D01*
X67213373Y-85966699D01*
X67903599Y-85967301D01*
X68541515Y-85703719D01*
X69030004Y-85216082D01*
X69294699Y-84578627D01*
X69295301Y-83888401D01*
X69031719Y-83250485D01*
X68544082Y-82761996D01*
X67906627Y-82497301D01*
X67216401Y-82496699D01*
X66578485Y-82760281D01*
X66089996Y-83247918D01*
X65825301Y-83885373D01*
X65824699Y-84575599D01*
X61551000Y-84575599D01*
X61551000Y-83492580D01*
X64887401Y-80156178D01*
X65153438Y-80266646D01*
X65963011Y-80267352D01*
X66711229Y-79958195D01*
X67284183Y-79386240D01*
X67594646Y-78638562D01*
X67595352Y-77828989D01*
X67286195Y-77080771D01*
X66714240Y-76507817D01*
X65966562Y-76197354D01*
X65156989Y-76196648D01*
X64408771Y-76505805D01*
X63835817Y-77077760D01*
X63525354Y-77825438D01*
X63524648Y-78635011D01*
X63635976Y-78904445D01*
X60040210Y-82500210D01*
X59848367Y-82787325D01*
X59848367Y-82787326D01*
X59780999Y-83126000D01*
X59781000Y-83126005D01*
X59781000Y-85321102D01*
X59599628Y-85396043D01*
X59068907Y-85925839D01*
X58781328Y-86618405D01*
X58780674Y-87368305D01*
X59067043Y-88061372D01*
X59274309Y-88269000D01*
X58786579Y-88269000D01*
X57550967Y-87033387D01*
X57551326Y-86621695D01*
X57264957Y-85928628D01*
X56735161Y-85397907D01*
X56042595Y-85110328D01*
X55292695Y-85109674D01*
X54599628Y-85396043D01*
X54068907Y-85925839D01*
X53781328Y-86618405D01*
X53780674Y-87368305D01*
X54067043Y-88061372D01*
X54596839Y-88592093D01*
X55289405Y-88879672D01*
X56039305Y-88880326D01*
X56644631Y-88630211D01*
X57794208Y-89779787D01*
X57794210Y-89779790D01*
X57813980Y-89793000D01*
X38379579Y-89793000D01*
X36139415Y-87552835D01*
X36214672Y-87371595D01*
X36214674Y-87368305D01*
X37444674Y-87368305D01*
X37731043Y-88061372D01*
X38260839Y-88592093D01*
X38953405Y-88879672D01*
X39703305Y-88880326D01*
X40396372Y-88593957D01*
X40927093Y-88064161D01*
X41214672Y-87371595D01*
X41214674Y-87368305D01*
X43112674Y-87368305D01*
X43399043Y-88061372D01*
X43928839Y-88592093D01*
X44621405Y-88879672D01*
X45371305Y-88880326D01*
X46064372Y-88593957D01*
X46595093Y-88064161D01*
X46882672Y-87371595D01*
X46882674Y-87368305D01*
X48112674Y-87368305D01*
X48399043Y-88061372D01*
X48928839Y-88592093D01*
X49621405Y-88879672D01*
X50371305Y-88880326D01*
X51064372Y-88593957D01*
X51595093Y-88064161D01*
X51882672Y-87371595D01*
X51883326Y-86621695D01*
X51596957Y-85928628D01*
X51067161Y-85397907D01*
X50374595Y-85110328D01*
X49624695Y-85109674D01*
X48931628Y-85396043D01*
X48400907Y-85925839D01*
X48113328Y-86618405D01*
X48112674Y-87368305D01*
X46882674Y-87368305D01*
X46883326Y-86621695D01*
X46596957Y-85928628D01*
X46067161Y-85397907D01*
X45374595Y-85110328D01*
X44624695Y-85109674D01*
X43931628Y-85396043D01*
X43400907Y-85925839D01*
X43113328Y-86618405D01*
X43112674Y-87368305D01*
X41214674Y-87368305D01*
X41215326Y-86621695D01*
X40928957Y-85928628D01*
X40399161Y-85397907D01*
X39706595Y-85110328D01*
X38956695Y-85109674D01*
X38263628Y-85396043D01*
X37732907Y-85925839D01*
X37445328Y-86618405D01*
X37444674Y-87368305D01*
X36214674Y-87368305D01*
X36215326Y-86621695D01*
X35928957Y-85928628D01*
X35399161Y-85397907D01*
X34706595Y-85110328D01*
X33956695Y-85109674D01*
X33263628Y-85396043D01*
X32732907Y-85925839D01*
X32445328Y-86618405D01*
X32444674Y-87368305D01*
X32731043Y-88061372D01*
X33260839Y-88592093D01*
X33953405Y-88879672D01*
X34703305Y-88880326D01*
X34887598Y-88804178D01*
X37373421Y-91290000D01*
X20710000Y-91290000D01*
X20710000Y-79248000D01*
X21706568Y-79248000D01*
X21812908Y-79782609D01*
X22115740Y-80235828D01*
X22538039Y-80518000D01*
X22115740Y-80800172D01*
X21812908Y-81253391D01*
X21706568Y-81788000D01*
X21812908Y-82322609D01*
X22115740Y-82775828D01*
X22568959Y-83078660D01*
X23103568Y-83185000D01*
X23642592Y-83185000D01*
X24177201Y-83078660D01*
X24630420Y-82775828D01*
X24767797Y-82570230D01*
X24808268Y-82785317D01*
X24947340Y-83001441D01*
X25159540Y-83146431D01*
X25411430Y-83197440D01*
X27410410Y-83197440D01*
X27645727Y-83153162D01*
X27861851Y-83014090D01*
X27917000Y-82933377D01*
X27917000Y-84256842D01*
X27614842Y-84559000D01*
X27571440Y-84559000D01*
X27571440Y-84244180D01*
X27527162Y-84008863D01*
X27388090Y-83792739D01*
X27175890Y-83647749D01*
X26924000Y-83596740D01*
X25400000Y-83596740D01*
X25164683Y-83641018D01*
X24948559Y-83780090D01*
X24803569Y-83992290D01*
X24759740Y-84208724D01*
X24609828Y-83984365D01*
X24156609Y-83681533D01*
X23622000Y-83575193D01*
X23087391Y-83681533D01*
X22634172Y-83984365D01*
X22331340Y-84437584D01*
X22225000Y-84972193D01*
X22225000Y-85715807D01*
X22331340Y-86250416D01*
X22634172Y-86703635D01*
X23087391Y-87006467D01*
X23622000Y-87112807D01*
X24156609Y-87006467D01*
X24609828Y-86703635D01*
X24759343Y-86479870D01*
X24796838Y-86679137D01*
X24935910Y-86895261D01*
X25148110Y-87040251D01*
X25400000Y-87091260D01*
X26924000Y-87091260D01*
X27116871Y-87054969D01*
X26792273Y-87189090D01*
X26191200Y-87789114D01*
X25865501Y-88573485D01*
X25864760Y-89422789D01*
X26189090Y-90207727D01*
X26789114Y-90808800D01*
X27573485Y-91134499D01*
X28422789Y-91135240D01*
X29207727Y-90810910D01*
X29808800Y-90210886D01*
X30134499Y-89426515D01*
X30135240Y-88577211D01*
X29810910Y-87792273D01*
X29210886Y-87191200D01*
X28426515Y-86865501D01*
X27577211Y-86864760D01*
X27200793Y-87020293D01*
X27375441Y-86907910D01*
X27520431Y-86695710D01*
X27571440Y-86443820D01*
X27571440Y-86129000D01*
X27940000Y-86129000D01*
X28240407Y-86069245D01*
X28495079Y-85899079D01*
X29257079Y-85137079D01*
X29427245Y-84882406D01*
X29487000Y-84582000D01*
X29487000Y-78897349D01*
X29875461Y-78509564D01*
X30086759Y-78000702D01*
X30087240Y-77449715D01*
X29876831Y-76940485D01*
X29487564Y-76550539D01*
X28978702Y-76339241D01*
X28427715Y-76338760D01*
X28036167Y-76500544D01*
X27971092Y-76173391D01*
X27668260Y-75720172D01*
X27215041Y-75417340D01*
X26680432Y-75311000D01*
X26141408Y-75311000D01*
X25606799Y-75417340D01*
X25153580Y-75720172D01*
X24873238Y-76139733D01*
X24679870Y-75794535D01*
X24248907Y-75454865D01*
X23720762Y-75305973D01*
X23500080Y-75464746D01*
X23500080Y-76581000D01*
X23520080Y-76581000D01*
X23520080Y-76835000D01*
X23500080Y-76835000D01*
X23500080Y-76855000D01*
X23246080Y-76855000D01*
X23246080Y-76835000D01*
X21903870Y-76835000D01*
X21781370Y-77051070D01*
X21798118Y-77142728D01*
X22066290Y-77621465D01*
X22497253Y-77961135D01*
X22543688Y-77974226D01*
X22115740Y-78260172D01*
X21812908Y-78713391D01*
X21706568Y-79248000D01*
X20710000Y-79248000D01*
X20710000Y-76364930D01*
X21781370Y-76364930D01*
X21903870Y-76581000D01*
X23246080Y-76581000D01*
X23246080Y-75464746D01*
X23025398Y-75305973D01*
X22497253Y-75454865D01*
X22066290Y-75794535D01*
X21798118Y-76273272D01*
X21781370Y-76364930D01*
X20710000Y-76364930D01*
X20710000Y-57087713D01*
X20805000Y-57106951D01*
X20805000Y-58420000D01*
X20864755Y-58720407D01*
X21034921Y-58975079D01*
X21619121Y-59559279D01*
X21873794Y-59729445D01*
X22174200Y-59789201D01*
X22174205Y-59789200D01*
X22229070Y-59789200D01*
X22229070Y-61753750D01*
X22273348Y-61989067D01*
X22412420Y-62205191D01*
X22624620Y-62350181D01*
X22876510Y-62401190D01*
X24875490Y-62401190D01*
X25110807Y-62356912D01*
X25326931Y-62217840D01*
X25471921Y-62005640D01*
X25522930Y-61753750D01*
X25522930Y-59907088D01*
X28654921Y-63039079D01*
X28909593Y-63209245D01*
X29210000Y-63269000D01*
X29494892Y-63269000D01*
X29625017Y-63463746D01*
X30059412Y-63754000D01*
X29625017Y-64044254D01*
X29494892Y-64239000D01*
X28702000Y-64239000D01*
X28401593Y-64298755D01*
X28146921Y-64468921D01*
X25522930Y-67092912D01*
X25522930Y-65754250D01*
X25478652Y-65518933D01*
X25339580Y-65302809D01*
X25127380Y-65157819D01*
X24875490Y-65106810D01*
X22876510Y-65106810D01*
X22641193Y-65151088D01*
X22425069Y-65290160D01*
X22280079Y-65502360D01*
X22229070Y-65754250D01*
X22229070Y-71253350D01*
X22273348Y-71488667D01*
X22412420Y-71704791D01*
X22624620Y-71849781D01*
X22649880Y-71854896D01*
X22641820Y-71894700D01*
X22641820Y-73393300D01*
X22686098Y-73628617D01*
X22825170Y-73844741D01*
X23037370Y-73989731D01*
X23289260Y-74040740D01*
X24589740Y-74040740D01*
X24825057Y-73996462D01*
X24890078Y-73954622D01*
X25067951Y-74028300D01*
X25558750Y-74028300D01*
X25717500Y-73869550D01*
X25717500Y-72771000D01*
X25971500Y-72771000D01*
X25971500Y-73869550D01*
X26130250Y-74028300D01*
X26621049Y-74028300D01*
X26854438Y-73931627D01*
X27033067Y-73752999D01*
X27129740Y-73519610D01*
X27129740Y-72929750D01*
X26970990Y-72771000D01*
X25971500Y-72771000D01*
X25717500Y-72771000D01*
X25697500Y-72771000D01*
X25697500Y-72517000D01*
X25717500Y-72517000D01*
X25717500Y-71418450D01*
X25971500Y-71418450D01*
X25971500Y-72517000D01*
X26970990Y-72517000D01*
X27129740Y-72358250D01*
X27129740Y-71768390D01*
X27033067Y-71535001D01*
X26854438Y-71356373D01*
X26621049Y-71259700D01*
X26130250Y-71259700D01*
X25971500Y-71418450D01*
X25717500Y-71418450D01*
X25558750Y-71259700D01*
X25521644Y-71259700D01*
X25522930Y-71253350D01*
X25522930Y-69228829D01*
X25777279Y-69058879D01*
X29027158Y-65809000D01*
X29494892Y-65809000D01*
X29625017Y-66003746D01*
X30059412Y-66294000D01*
X29625017Y-66584254D01*
X29324663Y-67033765D01*
X29219193Y-67564000D01*
X29324663Y-68094235D01*
X29625017Y-68543746D01*
X30059412Y-68834000D01*
X29625017Y-69124254D01*
X29324663Y-69573765D01*
X29219193Y-70104000D01*
X29324663Y-70634235D01*
X29625017Y-71083746D01*
X30059412Y-71374000D01*
X29625017Y-71664254D01*
X29324663Y-72113765D01*
X29219193Y-72644000D01*
X29324663Y-73174235D01*
X29625017Y-73623746D01*
X30059412Y-73914000D01*
X29625017Y-74204254D01*
X29324663Y-74653765D01*
X29219193Y-75184000D01*
X29324663Y-75714235D01*
X29625017Y-76163746D01*
X30074528Y-76464100D01*
X30604763Y-76569570D01*
X31371237Y-76569570D01*
X31901472Y-76464100D01*
X32350983Y-76163746D01*
X32651337Y-75714235D01*
X32756807Y-75184000D01*
X32651337Y-74653765D01*
X32350983Y-74204254D01*
X31916588Y-73914000D01*
X32350983Y-73623746D01*
X32651337Y-73174235D01*
X32756807Y-72644000D01*
X32651337Y-72113765D01*
X32350983Y-71664254D01*
X31916588Y-71374000D01*
X32350983Y-71083746D01*
X32651337Y-70634235D01*
X32756807Y-70104000D01*
X32651337Y-69573765D01*
X32350983Y-69124254D01*
X31916588Y-68834000D01*
X32350983Y-68543746D01*
X32651337Y-68094235D01*
X32756807Y-67564000D01*
X32651337Y-67033765D01*
X32350983Y-66584254D01*
X31916588Y-66294000D01*
X32350983Y-66003746D01*
X32651337Y-65554235D01*
X32756807Y-65024000D01*
X32651337Y-64493765D01*
X32350983Y-64044254D01*
X31916588Y-63754000D01*
X32350983Y-63463746D01*
X32651337Y-63014235D01*
X32756807Y-62484000D01*
X32651337Y-61953765D01*
X32350983Y-61504254D01*
X31901472Y-61203900D01*
X31893928Y-61202399D01*
X31984817Y-61175499D01*
X32406798Y-60833944D01*
X32665950Y-60356903D01*
X32680133Y-60285275D01*
X32557479Y-60071000D01*
X31115000Y-60071000D01*
X31115000Y-60091000D01*
X30861000Y-60091000D01*
X30861000Y-60071000D01*
X29418521Y-60071000D01*
X29295867Y-60285275D01*
X29310050Y-60356903D01*
X29569202Y-60833944D01*
X29991183Y-61175499D01*
X30082072Y-61202399D01*
X30074528Y-61203900D01*
X29625017Y-61504254D01*
X29511020Y-61674862D01*
X26285279Y-58449121D01*
X26030607Y-58278955D01*
X25730200Y-58219200D01*
X25522930Y-58219200D01*
X25522930Y-56254650D01*
X25478652Y-56019333D01*
X25339580Y-55803209D01*
X25127380Y-55658219D01*
X24875490Y-55607210D01*
X22986740Y-55607210D01*
X22986740Y-55166260D01*
X22942462Y-54930943D01*
X22900622Y-54865922D01*
X22974300Y-54688049D01*
X22974300Y-54197250D01*
X22815550Y-54038500D01*
X21717000Y-54038500D01*
X21717000Y-54058500D01*
X21463000Y-54058500D01*
X21463000Y-54038500D01*
X21443000Y-54038500D01*
X21443000Y-53784500D01*
X21463000Y-53784500D01*
X21463000Y-52785010D01*
X21717000Y-52785010D01*
X21717000Y-53784500D01*
X22815550Y-53784500D01*
X22957099Y-53642951D01*
X26301700Y-53642951D01*
X26301700Y-54133750D01*
X26460450Y-54292500D01*
X27559000Y-54292500D01*
X27559000Y-53293010D01*
X27813000Y-53293010D01*
X27813000Y-54292500D01*
X28911550Y-54292500D01*
X29070300Y-54133750D01*
X29070300Y-53642951D01*
X28973627Y-53409562D01*
X28794999Y-53230933D01*
X28561610Y-53134260D01*
X27971750Y-53134260D01*
X27813000Y-53293010D01*
X27559000Y-53293010D01*
X27400250Y-53134260D01*
X26810390Y-53134260D01*
X26577001Y-53230933D01*
X26398373Y-53409562D01*
X26301700Y-53642951D01*
X22957099Y-53642951D01*
X22974300Y-53625750D01*
X22974300Y-53134951D01*
X22877627Y-52901562D01*
X22698999Y-52722933D01*
X22465610Y-52626260D01*
X21875750Y-52626260D01*
X21717000Y-52785010D01*
X21463000Y-52785010D01*
X21304250Y-52626260D01*
X20714390Y-52626260D01*
X20710000Y-52628078D01*
X20710000Y-47816770D01*
X21371560Y-47816770D01*
X21371560Y-48256769D01*
X21468233Y-48490158D01*
X21646861Y-48668787D01*
X21880250Y-48765460D01*
X22320250Y-48765460D01*
X22479000Y-48606710D01*
X22479000Y-47658020D01*
X21530310Y-47658020D01*
X21371560Y-47816770D01*
X20710000Y-47816770D01*
X20710000Y-38783260D01*
X21209260Y-38783260D01*
X21209260Y-40083740D01*
X21253538Y-40319057D01*
X21295679Y-40384546D01*
X21260269Y-40436370D01*
X21209260Y-40688260D01*
X21209260Y-41988740D01*
X21253538Y-42224057D01*
X21392610Y-42440181D01*
X21604810Y-42585171D01*
X21821000Y-42628951D01*
X21821000Y-44221016D01*
X21771243Y-44230378D01*
X21555119Y-44369450D01*
X21410129Y-44581650D01*
X21359120Y-44833540D01*
X21359120Y-46032420D01*
X21403398Y-46267737D01*
X21542470Y-46483861D01*
X21550659Y-46489456D01*
X21468233Y-46571882D01*
X21371560Y-46805271D01*
X21371560Y-47245270D01*
X21530310Y-47404020D01*
X22479000Y-47404020D01*
X22479000Y-47384020D01*
X22733000Y-47384020D01*
X22733000Y-47404020D01*
X22753000Y-47404020D01*
X22753000Y-47658020D01*
X22733000Y-47658020D01*
X22733000Y-48606710D01*
X22891750Y-48765460D01*
X23091000Y-48765460D01*
X23091000Y-50388651D01*
X22702539Y-50776436D01*
X22491241Y-51285298D01*
X22490760Y-51836285D01*
X22701169Y-52345515D01*
X23090436Y-52735461D01*
X23599298Y-52946759D01*
X24150285Y-52947240D01*
X24659515Y-52736831D01*
X25049461Y-52347564D01*
X25260759Y-51838702D01*
X25261240Y-51287715D01*
X25050831Y-50778485D01*
X24661564Y-50388539D01*
X24661000Y-50388305D01*
X24661000Y-48839158D01*
X27474186Y-46025972D01*
X27434000Y-46228000D01*
X27434000Y-49530000D01*
X27491852Y-49820839D01*
X27656599Y-50067401D01*
X29180599Y-51591401D01*
X29373676Y-51720411D01*
X29324663Y-51793765D01*
X29219193Y-52324000D01*
X29324663Y-52854235D01*
X29625017Y-53303746D01*
X30059412Y-53594000D01*
X29625017Y-53884254D01*
X29324663Y-54333765D01*
X29219193Y-54864000D01*
X29324663Y-55394235D01*
X29547875Y-55728295D01*
X29518290Y-55698710D01*
X29481698Y-55674260D01*
X29231175Y-55506867D01*
X29174984Y-55495690D01*
X29044246Y-55469684D01*
X29038462Y-55438943D01*
X28996622Y-55373922D01*
X29070300Y-55196049D01*
X29070300Y-54705250D01*
X28911550Y-54546500D01*
X27813000Y-54546500D01*
X27813000Y-54566500D01*
X27559000Y-54566500D01*
X27559000Y-54546500D01*
X26460450Y-54546500D01*
X26301700Y-54705250D01*
X26301700Y-55196049D01*
X26374621Y-55372095D01*
X26340269Y-55422370D01*
X26289260Y-55674260D01*
X26289260Y-56974740D01*
X26333538Y-57210057D01*
X26472610Y-57426181D01*
X26684810Y-57571171D01*
X26936700Y-57622180D01*
X28435300Y-57622180D01*
X28670617Y-57577902D01*
X28806734Y-57490313D01*
X29346208Y-58029787D01*
X29346210Y-58029790D01*
X29422629Y-58080851D01*
X29625017Y-58383746D01*
X30074528Y-58684100D01*
X30082072Y-58685601D01*
X29991183Y-58712501D01*
X29569202Y-59054056D01*
X29310050Y-59531097D01*
X29295867Y-59602725D01*
X29418521Y-59817000D01*
X30861000Y-59817000D01*
X30861000Y-59797000D01*
X31115000Y-59797000D01*
X31115000Y-59817000D01*
X32557479Y-59817000D01*
X32680133Y-59602725D01*
X32665950Y-59531097D01*
X32406798Y-59054056D01*
X31984817Y-58712501D01*
X31893928Y-58685601D01*
X31901472Y-58684100D01*
X32284553Y-58428133D01*
X36966208Y-63109787D01*
X36966210Y-63109790D01*
X37042629Y-63160851D01*
X37245017Y-63463746D01*
X37679412Y-63754000D01*
X37245017Y-64044254D01*
X36944663Y-64493765D01*
X36839193Y-65024000D01*
X36944663Y-65554235D01*
X37245017Y-66003746D01*
X37679412Y-66294000D01*
X37245017Y-66584254D01*
X36944663Y-67033765D01*
X36839193Y-67564000D01*
X36944663Y-68094235D01*
X37245017Y-68543746D01*
X37679412Y-68834000D01*
X37245017Y-69124254D01*
X36944663Y-69573765D01*
X36839193Y-70104000D01*
X36944663Y-70634235D01*
X37245017Y-71083746D01*
X37679412Y-71374000D01*
X37245017Y-71664254D01*
X36944663Y-72113765D01*
X36839193Y-72644000D01*
X36944663Y-73174235D01*
X37245017Y-73623746D01*
X37679412Y-73914000D01*
X37245017Y-74204254D01*
X36944663Y-74653765D01*
X36839193Y-75184000D01*
X36944663Y-75714235D01*
X37245017Y-76163746D01*
X37694528Y-76464100D01*
X38224763Y-76569570D01*
X38991237Y-76569570D01*
X39521472Y-76464100D01*
X39970983Y-76163746D01*
X40271337Y-75714235D01*
X40376807Y-75184000D01*
X40271337Y-74653765D01*
X39970983Y-74204254D01*
X39536588Y-73914000D01*
X39970983Y-73623746D01*
X40271337Y-73174235D01*
X40376807Y-72644000D01*
X40271337Y-72113765D01*
X39970983Y-71664254D01*
X39536588Y-71374000D01*
X39970983Y-71083746D01*
X40271337Y-70634235D01*
X40376807Y-70104000D01*
X40279795Y-69616285D01*
X54748760Y-69616285D01*
X54959169Y-70125515D01*
X55348436Y-70515461D01*
X55857298Y-70726759D01*
X56408285Y-70727240D01*
X56408849Y-70727007D01*
X57381000Y-71699158D01*
X57381000Y-77820651D01*
X56992539Y-78208436D01*
X56781241Y-78717298D01*
X56780760Y-79268285D01*
X56991169Y-79777515D01*
X57380436Y-80167461D01*
X57889298Y-80378759D01*
X58440285Y-80379240D01*
X58949515Y-80168831D01*
X59339461Y-79779564D01*
X59550759Y-79270702D01*
X59551240Y-78719715D01*
X59340831Y-78210485D01*
X58951564Y-77820539D01*
X58951000Y-77820305D01*
X58951000Y-72575599D01*
X65824699Y-72575599D01*
X66088281Y-73213515D01*
X66575918Y-73702004D01*
X67213373Y-73966699D01*
X67903599Y-73967301D01*
X68541515Y-73703719D01*
X69030004Y-73216082D01*
X69294699Y-72578627D01*
X69295301Y-71888401D01*
X69031719Y-71250485D01*
X68544082Y-70761996D01*
X67906627Y-70497301D01*
X67216401Y-70496699D01*
X66578485Y-70760281D01*
X66089996Y-71247918D01*
X65825301Y-71885373D01*
X65824699Y-72575599D01*
X58951000Y-72575599D01*
X58951000Y-71374000D01*
X58928264Y-71259700D01*
X58891245Y-71073593D01*
X58721079Y-70818921D01*
X57518761Y-69616603D01*
X57519240Y-69067715D01*
X57308831Y-68558485D01*
X56919564Y-68168539D01*
X56410702Y-67957241D01*
X55859715Y-67956760D01*
X55350485Y-68167169D01*
X54960539Y-68556436D01*
X54749241Y-69065298D01*
X54748760Y-69616285D01*
X40279795Y-69616285D01*
X40271337Y-69573765D01*
X39970983Y-69124254D01*
X39536588Y-68834000D01*
X39970983Y-68543746D01*
X40271337Y-68094235D01*
X40376807Y-67564000D01*
X40375534Y-67557599D01*
X65824699Y-67557599D01*
X66088281Y-68195515D01*
X66575918Y-68684004D01*
X67213373Y-68948699D01*
X67903599Y-68949301D01*
X68541515Y-68685719D01*
X69030004Y-68198082D01*
X69294699Y-67560627D01*
X69295301Y-66870401D01*
X69031719Y-66232485D01*
X68544082Y-65743996D01*
X67906627Y-65479301D01*
X67216401Y-65478699D01*
X66578485Y-65742281D01*
X66089996Y-66229918D01*
X65825301Y-66867373D01*
X65824699Y-67557599D01*
X40375534Y-67557599D01*
X40271337Y-67033765D01*
X39970983Y-66584254D01*
X39536588Y-66294000D01*
X39970983Y-66003746D01*
X40271337Y-65554235D01*
X40376807Y-65024000D01*
X40271337Y-64493765D01*
X39970983Y-64044254D01*
X39536588Y-63754000D01*
X39970983Y-63463746D01*
X40034290Y-63369000D01*
X40447354Y-63369000D01*
X40466098Y-63468617D01*
X40605170Y-63684741D01*
X40817370Y-63829731D01*
X40834500Y-63833200D01*
X40834500Y-64071495D01*
X40834499Y-64071500D01*
X40867818Y-64239000D01*
X40901867Y-64410175D01*
X40916000Y-64431326D01*
X41093710Y-64697290D01*
X41792208Y-65395787D01*
X41792210Y-65395790D01*
X41976508Y-65518933D01*
X42079325Y-65587633D01*
X42418000Y-65655001D01*
X42418005Y-65655000D01*
X44195995Y-65655000D01*
X44196000Y-65655001D01*
X44478484Y-65598810D01*
X44534675Y-65587633D01*
X44821790Y-65395790D01*
X44821791Y-65395789D01*
X45612844Y-64604735D01*
X51640870Y-64604735D01*
X51690383Y-64830164D01*
X52155036Y-64989807D01*
X52645413Y-64959482D01*
X52957617Y-64830164D01*
X53007130Y-64604735D01*
X52324000Y-63921605D01*
X51640870Y-64604735D01*
X45612844Y-64604735D01*
X47298287Y-62919292D01*
X47298290Y-62919290D01*
X47490133Y-62632175D01*
X47509892Y-62532839D01*
X47557501Y-62293500D01*
X47557500Y-62293495D01*
X47557500Y-60534567D01*
X47558057Y-60534462D01*
X47774181Y-60395390D01*
X47911785Y-60194000D01*
X48262300Y-60194000D01*
X48278620Y-60205151D01*
X48530510Y-60256160D01*
X50529490Y-60256160D01*
X50764807Y-60211882D01*
X50980931Y-60072810D01*
X51125921Y-59860610D01*
X51176930Y-59608720D01*
X51176930Y-59009280D01*
X51132652Y-58773963D01*
X51074170Y-58683080D01*
X51164490Y-58465029D01*
X51164490Y-58324750D01*
X51005740Y-58166000D01*
X49657000Y-58166000D01*
X49657000Y-58186000D01*
X49403000Y-58186000D01*
X49403000Y-58166000D01*
X48054260Y-58166000D01*
X47941259Y-58279001D01*
X47925902Y-58197383D01*
X47786830Y-57981259D01*
X47574630Y-57836269D01*
X47322740Y-57785260D01*
X46022260Y-57785260D01*
X45786943Y-57829538D01*
X45721922Y-57871378D01*
X45544049Y-57797700D01*
X45053250Y-57797700D01*
X44894500Y-57956450D01*
X44894500Y-59055000D01*
X44914500Y-59055000D01*
X44914500Y-59309000D01*
X44894500Y-59309000D01*
X44894500Y-60407550D01*
X45053250Y-60566300D01*
X45544049Y-60566300D01*
X45720095Y-60493379D01*
X45770370Y-60527731D01*
X45787500Y-60531200D01*
X45787500Y-61926921D01*
X44909740Y-62804681D01*
X44909740Y-62769750D01*
X44750990Y-62611000D01*
X43751500Y-62611000D01*
X43751500Y-63709550D01*
X43878185Y-63836235D01*
X43829420Y-63885000D01*
X42784579Y-63885000D01*
X42711260Y-63811681D01*
X42847951Y-63868300D01*
X43338750Y-63868300D01*
X43497500Y-63709550D01*
X43497500Y-62611000D01*
X43477500Y-62611000D01*
X43477500Y-62357000D01*
X43497500Y-62357000D01*
X43497500Y-61258450D01*
X43751500Y-61258450D01*
X43751500Y-62357000D01*
X44750990Y-62357000D01*
X44909740Y-62198250D01*
X44909740Y-61608390D01*
X44813067Y-61375001D01*
X44634438Y-61196373D01*
X44401049Y-61099700D01*
X43910250Y-61099700D01*
X43751500Y-61258450D01*
X43497500Y-61258450D01*
X43338750Y-61099700D01*
X42847951Y-61099700D01*
X42671905Y-61172621D01*
X42621630Y-61138269D01*
X42369740Y-61087260D01*
X41069260Y-61087260D01*
X40833943Y-61131538D01*
X40617819Y-61270610D01*
X40472829Y-61482810D01*
X40449300Y-61599000D01*
X40034290Y-61599000D01*
X39970983Y-61504254D01*
X39536588Y-61214000D01*
X39970983Y-60923746D01*
X40271337Y-60474235D01*
X40376807Y-59944000D01*
X40282076Y-59467750D01*
X43482260Y-59467750D01*
X43482260Y-60057610D01*
X43578933Y-60290999D01*
X43757562Y-60469627D01*
X43990951Y-60566300D01*
X44481750Y-60566300D01*
X44640500Y-60407550D01*
X44640500Y-59309000D01*
X43641010Y-59309000D01*
X43482260Y-59467750D01*
X40282076Y-59467750D01*
X40271337Y-59413765D01*
X39970983Y-58964254D01*
X39521472Y-58663900D01*
X39513928Y-58662399D01*
X39604817Y-58635499D01*
X40011421Y-58306390D01*
X43482260Y-58306390D01*
X43482260Y-58896250D01*
X43641010Y-59055000D01*
X44640500Y-59055000D01*
X44640500Y-57956450D01*
X44481750Y-57797700D01*
X43990951Y-57797700D01*
X43757562Y-57894373D01*
X43578933Y-58073001D01*
X43482260Y-58306390D01*
X40011421Y-58306390D01*
X40026798Y-58293944D01*
X40285950Y-57816903D01*
X40300133Y-57745275D01*
X40177479Y-57531000D01*
X38735000Y-57531000D01*
X38735000Y-57551000D01*
X38481000Y-57551000D01*
X38481000Y-57531000D01*
X37038521Y-57531000D01*
X36915867Y-57745275D01*
X36930050Y-57816903D01*
X37189202Y-58293944D01*
X37611183Y-58635499D01*
X37702072Y-58662399D01*
X37694528Y-58663900D01*
X37245017Y-58964254D01*
X36944663Y-59413765D01*
X36839193Y-59944000D01*
X36944663Y-60474235D01*
X37167877Y-60808297D01*
X33137790Y-56778210D01*
X33104234Y-56755789D01*
X32850675Y-56586367D01*
X32794484Y-56575190D01*
X32512000Y-56518999D01*
X32511995Y-56519000D01*
X32414290Y-56519000D01*
X32350983Y-56424254D01*
X31916588Y-56134000D01*
X32350983Y-55843746D01*
X32651337Y-55394235D01*
X32756807Y-54864000D01*
X32651337Y-54333765D01*
X32350983Y-53884254D01*
X31916588Y-53594000D01*
X32350983Y-53303746D01*
X32651337Y-52854235D01*
X32756807Y-52324000D01*
X32655362Y-51814000D01*
X36940638Y-51814000D01*
X36839193Y-52324000D01*
X36944663Y-52854235D01*
X37245017Y-53303746D01*
X37679412Y-53594000D01*
X37245017Y-53884254D01*
X36944663Y-54333765D01*
X36839193Y-54864000D01*
X36944663Y-55394235D01*
X37245017Y-55843746D01*
X37694528Y-56144100D01*
X37702072Y-56145601D01*
X37611183Y-56172501D01*
X37189202Y-56514056D01*
X36930050Y-56991097D01*
X36915867Y-57062725D01*
X37038521Y-57277000D01*
X38481000Y-57277000D01*
X38481000Y-57257000D01*
X38735000Y-57257000D01*
X38735000Y-57277000D01*
X40177479Y-57277000D01*
X40300133Y-57062725D01*
X40285950Y-56991097D01*
X40026798Y-56514056D01*
X39604817Y-56172501D01*
X39513928Y-56145601D01*
X39521472Y-56144100D01*
X39970983Y-55843746D01*
X40271337Y-55394235D01*
X40376807Y-54864000D01*
X40271337Y-54333765D01*
X39970983Y-53884254D01*
X39536588Y-53594000D01*
X39970983Y-53303746D01*
X40271337Y-52854235D01*
X40376807Y-52324000D01*
X40275362Y-51814000D01*
X40325198Y-51814000D01*
X40610599Y-52099401D01*
X40857161Y-52264148D01*
X41148000Y-52322000D01*
X42455833Y-52322000D01*
X42498098Y-52546617D01*
X42637170Y-52762741D01*
X42849370Y-52907731D01*
X43101260Y-52958740D01*
X44401740Y-52958740D01*
X44637057Y-52914462D01*
X44702546Y-52872321D01*
X44754370Y-52907731D01*
X45006260Y-52958740D01*
X46306740Y-52958740D01*
X46542057Y-52914462D01*
X46758181Y-52775390D01*
X46903171Y-52563190D01*
X46926295Y-52449000D01*
X47925653Y-52449000D01*
X47883070Y-52659280D01*
X47883070Y-53258720D01*
X47927348Y-53494037D01*
X47991374Y-53593536D01*
X47934079Y-53677390D01*
X47883070Y-53929280D01*
X47883070Y-54528720D01*
X47927348Y-54764037D01*
X47991374Y-54863536D01*
X47934079Y-54947390D01*
X47883070Y-55199280D01*
X47883070Y-55798720D01*
X47927348Y-56034037D01*
X47991374Y-56133536D01*
X47934079Y-56217390D01*
X47883070Y-56469280D01*
X47883070Y-57068720D01*
X47927348Y-57304037D01*
X47985830Y-57394920D01*
X47895510Y-57612971D01*
X47895510Y-57753250D01*
X48054260Y-57912000D01*
X49403000Y-57912000D01*
X49403000Y-57892000D01*
X49657000Y-57892000D01*
X49657000Y-57912000D01*
X51005740Y-57912000D01*
X51164490Y-57753250D01*
X51164490Y-57612971D01*
X51074539Y-57395810D01*
X51125921Y-57320610D01*
X51176930Y-57068720D01*
X51176930Y-56469280D01*
X51132652Y-56233963D01*
X51068626Y-56134464D01*
X51125921Y-56050610D01*
X51176930Y-55798720D01*
X51176930Y-55199280D01*
X51132652Y-54963963D01*
X51068626Y-54864464D01*
X51125921Y-54780610D01*
X51176930Y-54528720D01*
X51176930Y-53929280D01*
X51132652Y-53693963D01*
X51068626Y-53594464D01*
X51125921Y-53510610D01*
X51176930Y-53258720D01*
X51176930Y-52659280D01*
X51132652Y-52423963D01*
X51068626Y-52324464D01*
X51125921Y-52240610D01*
X51176930Y-51988720D01*
X51176930Y-51389280D01*
X51132652Y-51153963D01*
X51068626Y-51054464D01*
X51125921Y-50970610D01*
X51176930Y-50718720D01*
X51176930Y-50119280D01*
X51132652Y-49883963D01*
X50993580Y-49667839D01*
X50781380Y-49522849D01*
X50529490Y-49471840D01*
X48530510Y-49471840D01*
X48303380Y-49514578D01*
X47527401Y-48738599D01*
X47280839Y-48573852D01*
X46990000Y-48516000D01*
X46952167Y-48516000D01*
X46909902Y-48291383D01*
X46770830Y-48075259D01*
X46558630Y-47930269D01*
X46306740Y-47879260D01*
X45006260Y-47879260D01*
X44770943Y-47923538D01*
X44705454Y-47965679D01*
X44653630Y-47930269D01*
X44401740Y-47879260D01*
X43101260Y-47879260D01*
X42865943Y-47923538D01*
X42649819Y-48062610D01*
X42504829Y-48274810D01*
X42455987Y-48516000D01*
X41462802Y-48516000D01*
X40923401Y-47976599D01*
X40676839Y-47811852D01*
X40386000Y-47754000D01*
X40275362Y-47754000D01*
X40376807Y-47244000D01*
X40271337Y-46713765D01*
X39970983Y-46264254D01*
X39536588Y-45974000D01*
X39970983Y-45683746D01*
X40101108Y-45489000D01*
X40428537Y-45489000D01*
X40466098Y-45688617D01*
X40605170Y-45904741D01*
X40817370Y-46049731D01*
X41069260Y-46100740D01*
X42369740Y-46100740D01*
X42605057Y-46056462D01*
X42670546Y-46014321D01*
X42722370Y-46049731D01*
X42974260Y-46100740D01*
X44274740Y-46100740D01*
X44510057Y-46056462D01*
X44726181Y-45917390D01*
X44871171Y-45705190D01*
X44922180Y-45453300D01*
X44922180Y-43954700D01*
X44877902Y-43719383D01*
X44738830Y-43503259D01*
X44637825Y-43434245D01*
X44726181Y-43377390D01*
X44871171Y-43165190D01*
X44900319Y-43021250D01*
X44970700Y-43021250D01*
X44970700Y-43512049D01*
X45067373Y-43745438D01*
X45246001Y-43924067D01*
X45479390Y-44020740D01*
X46069250Y-44020740D01*
X46228000Y-43861990D01*
X46228000Y-42862500D01*
X46482000Y-42862500D01*
X46482000Y-43861990D01*
X46640750Y-44020740D01*
X47230610Y-44020740D01*
X47463999Y-43924067D01*
X47642627Y-43745438D01*
X47739300Y-43512049D01*
X47739300Y-43402250D01*
X52209700Y-43402250D01*
X52209700Y-43893049D01*
X52306373Y-44126438D01*
X52485001Y-44305067D01*
X52718390Y-44401740D01*
X53308250Y-44401740D01*
X53467000Y-44242990D01*
X53467000Y-43243500D01*
X53721000Y-43243500D01*
X53721000Y-44242990D01*
X53879750Y-44401740D01*
X54469610Y-44401740D01*
X54702999Y-44305067D01*
X54881627Y-44126438D01*
X54978300Y-43893049D01*
X54978300Y-43402250D01*
X54819550Y-43243500D01*
X53721000Y-43243500D01*
X53467000Y-43243500D01*
X52368450Y-43243500D01*
X52209700Y-43402250D01*
X47739300Y-43402250D01*
X47739300Y-43021250D01*
X47580550Y-42862500D01*
X46482000Y-42862500D01*
X46228000Y-42862500D01*
X45129450Y-42862500D01*
X44970700Y-43021250D01*
X44900319Y-43021250D01*
X44922180Y-42913300D01*
X44922180Y-41414700D01*
X44877902Y-41179383D01*
X44738830Y-40963259D01*
X44526630Y-40818269D01*
X44509500Y-40814800D01*
X44509500Y-39052505D01*
X44509501Y-39052500D01*
X44442133Y-38713826D01*
X44442133Y-38713825D01*
X44250290Y-38426710D01*
X44250287Y-38426708D01*
X43802884Y-37979305D01*
X43803240Y-37571715D01*
X43592831Y-37062485D01*
X43203564Y-36672539D01*
X42694702Y-36461241D01*
X42143715Y-36460760D01*
X41634485Y-36671169D01*
X41344148Y-36961000D01*
X32512005Y-36961000D01*
X32512000Y-36960999D01*
X32229516Y-37017190D01*
X32173325Y-37028367D01*
X31886210Y-37220210D01*
X31886208Y-37220213D01*
X30557920Y-38548500D01*
X28276567Y-38548500D01*
X28276462Y-38547943D01*
X28137390Y-38331819D01*
X27925190Y-38186829D01*
X27673300Y-38135820D01*
X26174700Y-38135820D01*
X25939383Y-38180098D01*
X25723259Y-38319170D01*
X25578269Y-38531370D01*
X25574800Y-38548500D01*
X23958567Y-38548500D01*
X23958462Y-38547943D01*
X23819390Y-38331819D01*
X23607190Y-38186829D01*
X23355300Y-38135820D01*
X21856700Y-38135820D01*
X21621383Y-38180098D01*
X21405259Y-38319170D01*
X21260269Y-38531370D01*
X21209260Y-38783260D01*
X20710000Y-38783260D01*
X20710000Y-34027745D01*
X33616861Y-34027745D01*
X33690995Y-34273864D01*
X34228223Y-34466965D01*
X34798454Y-34439778D01*
X35199005Y-34273864D01*
X35273139Y-34027745D01*
X34445000Y-33199605D01*
X33616861Y-34027745D01*
X20710000Y-34027745D01*
X20710000Y-32803223D01*
X32998035Y-32803223D01*
X33025222Y-33373454D01*
X33191136Y-33774005D01*
X33437255Y-33848139D01*
X34265395Y-33020000D01*
X34624605Y-33020000D01*
X35452745Y-33848139D01*
X35698864Y-33774005D01*
X35891965Y-33236777D01*
X35864778Y-32666546D01*
X35698864Y-32265995D01*
X35452745Y-32191861D01*
X34624605Y-33020000D01*
X34265395Y-33020000D01*
X33437255Y-32191861D01*
X33191136Y-32265995D01*
X32998035Y-32803223D01*
X20710000Y-32803223D01*
X20710000Y-32012255D01*
X33616861Y-32012255D01*
X34445000Y-32840395D01*
X35273139Y-32012255D01*
X35199005Y-31766136D01*
X34661777Y-31573035D01*
X34091546Y-31600222D01*
X33690995Y-31766136D01*
X33616861Y-32012255D01*
X20710000Y-32012255D01*
X20710000Y-28651532D01*
X21268073Y-28651532D01*
X21366736Y-28918387D01*
X21976461Y-29144908D01*
X22626460Y-29120856D01*
X23115264Y-28918387D01*
X23213927Y-28651532D01*
X22241000Y-27678605D01*
X21268073Y-28651532D01*
X20710000Y-28651532D01*
X20710000Y-28103806D01*
X20821613Y-28373264D01*
X21088468Y-28471927D01*
X22061395Y-27499000D01*
X22420605Y-27499000D01*
X23393532Y-28471927D01*
X23660387Y-28373264D01*
X23886908Y-27763539D01*
X23862856Y-27113540D01*
X23660387Y-26624736D01*
X23393532Y-26526073D01*
X22420605Y-27499000D01*
X22061395Y-27499000D01*
X21088468Y-26526073D01*
X20821613Y-26624736D01*
X20710000Y-26925164D01*
X20710000Y-26346468D01*
X21268073Y-26346468D01*
X22241000Y-27319395D01*
X23213927Y-26346468D01*
X23115264Y-26079613D01*
X22505539Y-25853092D01*
X21855540Y-25877144D01*
X21366736Y-26079613D01*
X21268073Y-26346468D01*
X20710000Y-26346468D01*
X20710000Y-15710000D01*
X32654935Y-15710000D01*
X32394210Y-15884210D01*
M02*
