G04 #@! TF.FileFunction,Soldermask,Top*
%FSLAX46Y46*%
G04 Gerber Fmt 4.6, Leading zero omitted, Abs format (unit mm)*
G04 Created by KiCad (PCBNEW 4.0.6) date 12/06/17 14:38:59*
%MOMM*%
%LPD*%
G01*
G04 APERTURE LIST*
%ADD10C,0.100000*%
%ADD11R,1.598880X1.598880*%
%ADD12C,2.899360*%
%ADD13C,3.897580*%
%ADD14R,1.700480X1.799540*%
%ADD15R,1.700480X1.898600*%
%ADD16R,1.898600X1.700480*%
%ADD17R,2.000000X2.000000*%
%ADD18C,2.000000*%
%ADD19R,1.799540X1.700480*%
%ADD20C,2.900000*%
%ADD21R,1.924000X2.398980*%
%ADD22O,1.924000X2.398980*%
%ADD23R,2.599640X1.924000*%
%ADD24O,2.599640X1.924000*%
%ADD25C,5.401260*%
%ADD26O,2.398980X1.901140*%
%ADD27R,1.400760X0.999440*%
%ADD28C,2.400000*%
%ADD29R,2.398980X0.999440*%
%ADD30R,2.398980X5.899100*%
%ADD31R,1.600000X1.600000*%
%ADD32C,1.600000*%
G04 APERTURE END LIST*
D10*
D11*
X22606000Y-45432980D03*
X22606000Y-47531020D03*
X58928000Y-26195020D03*
X58928000Y-24096980D03*
X61976000Y-26195020D03*
X61976000Y-24096980D03*
D12*
X52578000Y-38049200D03*
X47498000Y-38049200D03*
X50038000Y-40589200D03*
D13*
X50038000Y-21793200D03*
D14*
X31549340Y-27940000D03*
X28648660Y-27940000D03*
D15*
X25590500Y-52070000D03*
X23685500Y-52070000D03*
X23939500Y-72644000D03*
X25844500Y-72644000D03*
X38163500Y-63754000D03*
X40068500Y-63754000D03*
D16*
X21590000Y-55816500D03*
X21590000Y-53911500D03*
D17*
X37945000Y-33020000D03*
D18*
X34445000Y-33020000D03*
D16*
X46355000Y-40830500D03*
X46355000Y-42735500D03*
X43180000Y-46799500D03*
X43180000Y-48704500D03*
D17*
X39088000Y-42926000D03*
D18*
X35588000Y-42926000D03*
D15*
X46926500Y-64516000D03*
X45021500Y-64516000D03*
D19*
X59690000Y-68399660D03*
X59690000Y-71300340D03*
X59690000Y-73479660D03*
X59690000Y-76380340D03*
D20*
X39076000Y-20066000D03*
X34076000Y-20066000D03*
D21*
X30480000Y-72384920D03*
D22*
X30480000Y-69347080D03*
X33020000Y-72384920D03*
X33020000Y-69347080D03*
X35560000Y-72384920D03*
X35560000Y-69347080D03*
D23*
X40640000Y-72136000D03*
D24*
X40640000Y-69596000D03*
D25*
X67564000Y-24081740D03*
D26*
X66045080Y-36576000D03*
X66045080Y-33804860D03*
X66045080Y-31036260D03*
X66045080Y-39347140D03*
X66045080Y-42115740D03*
X69082920Y-40731440D03*
X69082920Y-37960300D03*
X69082920Y-35191700D03*
X69082920Y-32420560D03*
D25*
X67564000Y-49070260D03*
D20*
X55666000Y-86995000D03*
X60666000Y-86995000D03*
X44998000Y-86995000D03*
X49998000Y-86995000D03*
X34330000Y-86995000D03*
X39330000Y-86995000D03*
D27*
X51013360Y-71691500D03*
X53126640Y-72644000D03*
X51013360Y-73596500D03*
X51013360Y-75501500D03*
X53126640Y-76454000D03*
X51013360Y-77406500D03*
D16*
X39878000Y-49085500D03*
X39878000Y-50990500D03*
X37846000Y-49085500D03*
X37846000Y-50990500D03*
D15*
X48704500Y-72644000D03*
X46799500Y-72644000D03*
X48704500Y-76200000D03*
X46799500Y-76200000D03*
D16*
X55118000Y-70802500D03*
X55118000Y-68897500D03*
X55118000Y-75628500D03*
X55118000Y-73723500D03*
X35814000Y-49085500D03*
X35814000Y-50990500D03*
X33782000Y-49085500D03*
X33782000Y-50990500D03*
D28*
X24241000Y-19999000D03*
X22241000Y-27499000D03*
D10*
G36*
X30138235Y-54047690D02*
X31340656Y-55250111D01*
X30668071Y-55922696D01*
X29465650Y-54720275D01*
X30138235Y-54047690D01*
X30138235Y-54047690D01*
G37*
G36*
X29574275Y-54611650D02*
X30776696Y-55814071D01*
X30104111Y-56486656D01*
X28901690Y-55284235D01*
X29574275Y-54611650D01*
X29574275Y-54611650D01*
G37*
G36*
X29008519Y-55177407D02*
X30210940Y-56379828D01*
X29538355Y-57052413D01*
X28335934Y-55849992D01*
X29008519Y-55177407D01*
X29008519Y-55177407D01*
G37*
G36*
X28442763Y-55743163D02*
X29645184Y-56945584D01*
X28972599Y-57618169D01*
X27770178Y-56415748D01*
X28442763Y-55743163D01*
X28442763Y-55743163D01*
G37*
G36*
X27877007Y-56308919D02*
X29079428Y-57511340D01*
X28406843Y-58183925D01*
X27204422Y-56981504D01*
X27877007Y-56308919D01*
X27877007Y-56308919D01*
G37*
G36*
X31835504Y-52350422D02*
X33037925Y-53552843D01*
X32365340Y-54225428D01*
X31162919Y-53023007D01*
X31835504Y-52350422D01*
X31835504Y-52350422D01*
G37*
G36*
X31269748Y-52916178D02*
X32472169Y-54118599D01*
X31799584Y-54791184D01*
X30597163Y-53588763D01*
X31269748Y-52916178D01*
X31269748Y-52916178D01*
G37*
G36*
X30703992Y-53481934D02*
X31906413Y-54684355D01*
X31233828Y-55356940D01*
X30031407Y-54154519D01*
X30703992Y-53481934D01*
X30703992Y-53481934D01*
G37*
G36*
X28406843Y-58148075D02*
X29079428Y-58820660D01*
X27877007Y-60023081D01*
X27204422Y-59350496D01*
X28406843Y-58148075D01*
X28406843Y-58148075D01*
G37*
G36*
X28972599Y-58713831D02*
X29645184Y-59386416D01*
X28442763Y-60588837D01*
X27770178Y-59916252D01*
X28972599Y-58713831D01*
X28972599Y-58713831D01*
G37*
G36*
X29538355Y-59279587D02*
X30210940Y-59952172D01*
X29008519Y-61154593D01*
X28335934Y-60482008D01*
X29538355Y-59279587D01*
X29538355Y-59279587D01*
G37*
G36*
X30104111Y-59845344D02*
X30776696Y-60517929D01*
X29574275Y-61720350D01*
X28901690Y-61047765D01*
X30104111Y-59845344D01*
X30104111Y-59845344D01*
G37*
G36*
X30668071Y-60409304D02*
X31340656Y-61081889D01*
X30138235Y-62284310D01*
X29465650Y-61611725D01*
X30668071Y-60409304D01*
X30668071Y-60409304D01*
G37*
G36*
X31233828Y-60975060D02*
X31906413Y-61647645D01*
X30703992Y-62850066D01*
X30031407Y-62177481D01*
X31233828Y-60975060D01*
X31233828Y-60975060D01*
G37*
G36*
X31799584Y-61540816D02*
X32472169Y-62213401D01*
X31269748Y-63415822D01*
X30597163Y-62743237D01*
X31799584Y-61540816D01*
X31799584Y-61540816D01*
G37*
G36*
X32365340Y-62106572D02*
X33037925Y-62779157D01*
X31835504Y-63981578D01*
X31162919Y-63308993D01*
X32365340Y-62106572D01*
X32365340Y-62106572D01*
G37*
G36*
X33674660Y-62106572D02*
X34877081Y-63308993D01*
X34204496Y-63981578D01*
X33002075Y-62779157D01*
X33674660Y-62106572D01*
X33674660Y-62106572D01*
G37*
G36*
X34240416Y-61540816D02*
X35442837Y-62743237D01*
X34770252Y-63415822D01*
X33567831Y-62213401D01*
X34240416Y-61540816D01*
X34240416Y-61540816D01*
G37*
G36*
X34806172Y-60975060D02*
X36008593Y-62177481D01*
X35336008Y-62850066D01*
X34133587Y-61647645D01*
X34806172Y-60975060D01*
X34806172Y-60975060D01*
G37*
G36*
X35371929Y-60409304D02*
X36574350Y-61611725D01*
X35901765Y-62284310D01*
X34699344Y-61081889D01*
X35371929Y-60409304D01*
X35371929Y-60409304D01*
G37*
G36*
X35935889Y-59845344D02*
X37138310Y-61047765D01*
X36465725Y-61720350D01*
X35263304Y-60517929D01*
X35935889Y-59845344D01*
X35935889Y-59845344D01*
G37*
G36*
X36501645Y-59279587D02*
X37704066Y-60482008D01*
X37031481Y-61154593D01*
X35829060Y-59952172D01*
X36501645Y-59279587D01*
X36501645Y-59279587D01*
G37*
G36*
X37067401Y-58713831D02*
X38269822Y-59916252D01*
X37597237Y-60588837D01*
X36394816Y-59386416D01*
X37067401Y-58713831D01*
X37067401Y-58713831D01*
G37*
G36*
X37633157Y-58148075D02*
X38835578Y-59350496D01*
X38162993Y-60023081D01*
X36960572Y-58820660D01*
X37633157Y-58148075D01*
X37633157Y-58148075D01*
G37*
G36*
X38162993Y-56308919D02*
X38835578Y-56981504D01*
X37633157Y-58183925D01*
X36960572Y-57511340D01*
X38162993Y-56308919D01*
X38162993Y-56308919D01*
G37*
G36*
X37597237Y-55743163D02*
X38269822Y-56415748D01*
X37067401Y-57618169D01*
X36394816Y-56945584D01*
X37597237Y-55743163D01*
X37597237Y-55743163D01*
G37*
G36*
X37031481Y-55177407D02*
X37704066Y-55849992D01*
X36501645Y-57052413D01*
X35829060Y-56379828D01*
X37031481Y-55177407D01*
X37031481Y-55177407D01*
G37*
G36*
X36465725Y-54611650D02*
X37138310Y-55284235D01*
X35935889Y-56486656D01*
X35263304Y-55814071D01*
X36465725Y-54611650D01*
X36465725Y-54611650D01*
G37*
G36*
X35901765Y-54047690D02*
X36574350Y-54720275D01*
X35371929Y-55922696D01*
X34699344Y-55250111D01*
X35901765Y-54047690D01*
X35901765Y-54047690D01*
G37*
G36*
X35336008Y-53481934D02*
X36008593Y-54154519D01*
X34806172Y-55356940D01*
X34133587Y-54684355D01*
X35336008Y-53481934D01*
X35336008Y-53481934D01*
G37*
G36*
X34770252Y-52916178D02*
X35442837Y-53588763D01*
X34240416Y-54791184D01*
X33567831Y-54118599D01*
X34770252Y-52916178D01*
X34770252Y-52916178D01*
G37*
G36*
X34204496Y-52350422D02*
X34877081Y-53023007D01*
X33674660Y-54225428D01*
X33002075Y-53552843D01*
X34204496Y-52350422D01*
X34204496Y-52350422D01*
G37*
D29*
X52578000Y-62357000D03*
X52578000Y-61087000D03*
X52578000Y-59817000D03*
X52578000Y-58547000D03*
X52578000Y-57277000D03*
X52578000Y-56007000D03*
X52578000Y-54737000D03*
X52578000Y-53467000D03*
X46990000Y-53467000D03*
X46990000Y-54737000D03*
X46990000Y-56007000D03*
X46990000Y-57277000D03*
X46990000Y-58547000D03*
X46990000Y-59817000D03*
X46990000Y-61087000D03*
X46990000Y-62357000D03*
D30*
X23876000Y-68503800D03*
X23876000Y-59004200D03*
D16*
X31750000Y-50990500D03*
X31750000Y-49085500D03*
D31*
X57658000Y-63996000D03*
D32*
X57658000Y-62496000D03*
D31*
X57658000Y-58662000D03*
D32*
X57658000Y-57162000D03*
D31*
X51054000Y-65544000D03*
D32*
X51054000Y-67044000D03*
D31*
X57658000Y-51828000D03*
D32*
X57658000Y-53328000D03*
D16*
X62000000Y-29347500D03*
X62000000Y-31252500D03*
X58928000Y-29273500D03*
X58928000Y-31178500D03*
D15*
X23685500Y-42164000D03*
X25590500Y-42164000D03*
M02*
