G04 #@! TF.FileFunction,Legend,Top*
%FSLAX46Y46*%
G04 Gerber Fmt 4.6, Leading zero omitted, Abs format (unit mm)*
G04 Created by KiCad (PCBNEW 4.0.7) date 03/02/18 13:50:20*
%MOMM*%
%LPD*%
G01*
G04 APERTURE LIST*
%ADD10C,0.100000*%
%ADD11C,0.127000*%
%ADD12C,0.254000*%
%ADD13C,0.304800*%
%ADD14C,0.300000*%
%ADD15C,0.381000*%
%ADD16C,0.508000*%
%ADD17C,0.203200*%
%ADD18C,0.299720*%
%ADD19C,0.150000*%
G04 APERTURE END LIST*
D10*
D11*
X50342800Y-56769000D02*
X49250600Y-56769000D01*
X50342800Y-55499000D02*
X49250600Y-55499000D01*
X50342800Y-54229000D02*
X49250600Y-54229000D01*
X50342800Y-58039000D02*
X49250600Y-58039000D01*
X49250600Y-59309000D02*
X50342800Y-59309000D01*
X49250600Y-52959000D02*
X50342800Y-52959000D01*
X49250600Y-51689000D02*
X50342800Y-51689000D01*
X49250600Y-50419000D02*
X50342800Y-50419000D01*
X54305200Y-50419000D02*
X55397400Y-50419000D01*
X54305200Y-51689000D02*
X55397400Y-51689000D01*
X54305200Y-52959000D02*
X55397400Y-52959000D01*
X54305200Y-59309000D02*
X55397400Y-59309000D01*
X55397400Y-58039000D02*
X54305200Y-58039000D01*
X55397400Y-54229000D02*
X54305200Y-54229000D01*
X55397400Y-55499000D02*
X54305200Y-55499000D01*
X55397400Y-56769000D02*
X54305200Y-56769000D01*
X54041067Y-58928000D02*
G75*
G03X54041067Y-58928000I-472467J0D01*
G01*
X50342800Y-59690000D02*
X54305200Y-59690000D01*
X54305200Y-59690000D02*
X54305200Y-50038000D01*
X54305200Y-50038000D02*
X50342800Y-50038000D01*
X50342800Y-50038000D02*
X50342800Y-59690000D01*
D12*
X78000000Y-15841000D02*
X78000000Y-20159000D01*
X75841000Y-18000000D02*
X80159000Y-18000000D01*
X79778000Y-18000000D02*
G75*
G03X79778000Y-18000000I-1778000J0D01*
G01*
X28000000Y-15841000D02*
X28000000Y-20159000D01*
X25841000Y-18000000D02*
X30159000Y-18000000D01*
X29778000Y-18000000D02*
G75*
G03X29778000Y-18000000I-1778000J0D01*
G01*
X28000000Y-86841000D02*
X28000000Y-91159000D01*
X25841000Y-89000000D02*
X30159000Y-89000000D01*
X29778000Y-89000000D02*
G75*
G03X29778000Y-89000000I-1778000J0D01*
G01*
D11*
X22606000Y-46682660D02*
X22905720Y-46382940D01*
X22905720Y-46382940D02*
X22306280Y-46382940D01*
X22306280Y-46382940D02*
X22606000Y-46682660D01*
X22506940Y-46581060D02*
X22705060Y-46581060D01*
X22806660Y-46482000D02*
X22405340Y-46482000D01*
X21805900Y-46781720D02*
X23406100Y-46781720D01*
X23406100Y-46182280D02*
X21805900Y-46182280D01*
X23406100Y-45481240D02*
X23406100Y-47482760D01*
X23406100Y-47482760D02*
X21805900Y-47482760D01*
X21805900Y-47482760D02*
X21805900Y-45481240D01*
X21805900Y-45481240D02*
X23406100Y-45481240D01*
X58928000Y-24945340D02*
X58628280Y-25245060D01*
X58628280Y-25245060D02*
X59227720Y-25245060D01*
X59227720Y-25245060D02*
X58928000Y-24945340D01*
X59027060Y-25046940D02*
X58828940Y-25046940D01*
X58727340Y-25146000D02*
X59128660Y-25146000D01*
X59728100Y-24846280D02*
X58127900Y-24846280D01*
X58127900Y-25445720D02*
X59728100Y-25445720D01*
X58127900Y-26146760D02*
X58127900Y-24145240D01*
X58127900Y-24145240D02*
X59728100Y-24145240D01*
X59728100Y-24145240D02*
X59728100Y-26146760D01*
X59728100Y-26146760D02*
X58127900Y-26146760D01*
X61976000Y-24945340D02*
X61676280Y-25245060D01*
X61676280Y-25245060D02*
X62275720Y-25245060D01*
X62275720Y-25245060D02*
X61976000Y-24945340D01*
X62075060Y-25046940D02*
X61876940Y-25046940D01*
X61775340Y-25146000D02*
X62176660Y-25146000D01*
X62776100Y-24846280D02*
X61175900Y-24846280D01*
X61175900Y-25445720D02*
X62776100Y-25445720D01*
X61175900Y-26146760D02*
X61175900Y-24145240D01*
X61175900Y-24145240D02*
X62776100Y-24145240D01*
X62776100Y-24145240D02*
X62776100Y-26146760D01*
X62776100Y-26146760D02*
X61175900Y-26146760D01*
D13*
X52038432Y-21793200D02*
G75*
G03X52038432Y-21793200I-2000432J0D01*
G01*
X55537100Y-32217360D02*
X57038240Y-32217360D01*
X55537100Y-31219140D02*
X57038240Y-31219140D01*
X55537100Y-28216860D02*
X57038240Y-28216860D01*
X55537100Y-27218640D02*
X57038240Y-27218640D01*
X55537100Y-23718520D02*
X57038240Y-23718520D01*
X55537100Y-22717760D02*
X57038240Y-22717760D01*
X55537100Y-19718020D02*
X57038240Y-19718020D01*
X55537100Y-18717260D02*
X57038240Y-18717260D01*
X43037760Y-18717260D02*
X44538900Y-18717260D01*
X43037760Y-19718020D02*
X44538900Y-19718020D01*
X43037760Y-22717760D02*
X44538900Y-22717760D01*
X43037760Y-23718520D02*
X44538900Y-23718520D01*
X43037760Y-27218640D02*
X44538900Y-27218640D01*
X43037760Y-28216860D02*
X44538900Y-28216860D01*
X43037760Y-31219140D02*
X44538900Y-31219140D01*
X43037760Y-32217360D02*
X44538900Y-32217360D01*
X55537100Y-15717520D02*
X55537100Y-35217100D01*
X44538900Y-35217100D02*
X44538900Y-15717520D01*
X43037760Y-35217100D02*
X57038240Y-35217100D01*
X57038240Y-35217100D02*
X57038240Y-15717520D01*
X57038240Y-15717520D02*
X43037760Y-15717520D01*
X43037760Y-15717520D02*
X43037760Y-35217100D01*
X50038000Y-33909000D02*
X50038000Y-40640000D01*
X52578000Y-38100000D02*
X52578000Y-33909000D01*
X47498000Y-38100000D02*
X47498000Y-33909000D01*
X44958000Y-33909000D02*
X55118000Y-33909000D01*
X55118000Y-18542000D02*
X44958000Y-18542000D01*
X55118000Y-33909000D02*
X55118000Y-18542000D01*
X44958000Y-18542000D02*
X44958000Y-33909000D01*
D12*
X55118000Y-25019000D02*
X44958000Y-25019000D01*
D11*
X31498540Y-28940760D02*
X31498540Y-26939240D01*
X31399480Y-26939240D02*
X31399480Y-28940760D01*
X31297880Y-28940760D02*
X31297880Y-26939240D01*
X31198820Y-26939240D02*
X31198820Y-28940760D01*
X31099760Y-26939240D02*
X31099760Y-28940760D01*
X31600140Y-26939240D02*
X28597860Y-26939240D01*
X28597860Y-26939240D02*
X28597860Y-28940760D01*
X28597860Y-28940760D02*
X31600140Y-28940760D01*
X31600140Y-28940760D02*
X31600140Y-26939240D01*
X42037000Y-63119000D02*
X42037000Y-61849000D01*
X43307000Y-63119000D02*
X43307000Y-61874400D01*
X43688000Y-63119000D02*
X41656000Y-63119000D01*
X41656000Y-63119000D02*
X41656000Y-61849000D01*
X41656000Y-61849000D02*
X43688000Y-61849000D01*
X43688000Y-61849000D02*
X43688000Y-63119000D01*
X24257000Y-73279000D02*
X24257000Y-72009000D01*
X25527000Y-73279000D02*
X25527000Y-72034400D01*
X25908000Y-73279000D02*
X23876000Y-73279000D01*
X23876000Y-73279000D02*
X23876000Y-72009000D01*
X23876000Y-72009000D02*
X25908000Y-72009000D01*
X25908000Y-72009000D02*
X25908000Y-73279000D01*
X46355000Y-58547000D02*
X46355000Y-59817000D01*
X45085000Y-58547000D02*
X45085000Y-59791600D01*
X44704000Y-58547000D02*
X46736000Y-58547000D01*
X46736000Y-58547000D02*
X46736000Y-59817000D01*
X46736000Y-59817000D02*
X44704000Y-59817000D01*
X44704000Y-59817000D02*
X44704000Y-58547000D01*
X22225000Y-55499000D02*
X20955000Y-55499000D01*
X22225000Y-54229000D02*
X20980400Y-54229000D01*
X22225000Y-53848000D02*
X22225000Y-55880000D01*
X22225000Y-55880000D02*
X20955000Y-55880000D01*
X20955000Y-55880000D02*
X20955000Y-53848000D01*
X20955000Y-53848000D02*
X22225000Y-53848000D01*
D13*
X32695000Y-35420000D02*
X32695000Y-30620000D01*
X40495000Y-33020000D02*
G75*
G03X40495000Y-33020000I-4300000J0D01*
G01*
X32495000Y-34820000D02*
X32495000Y-31220000D01*
X32295000Y-34420000D02*
X32295000Y-31620000D01*
X32095000Y-33820000D02*
X32095000Y-32120000D01*
D14*
X33995000Y-31720000D02*
X33995000Y-30520000D01*
D11*
X45720000Y-41148000D02*
X46990000Y-41148000D01*
X45720000Y-42418000D02*
X46964600Y-42418000D01*
X45720000Y-42799000D02*
X45720000Y-40767000D01*
X45720000Y-40767000D02*
X46990000Y-40767000D01*
X46990000Y-40767000D02*
X46990000Y-42799000D01*
X46990000Y-42799000D02*
X45720000Y-42799000D01*
X52959000Y-41529000D02*
X54229000Y-41529000D01*
X52959000Y-42799000D02*
X54203600Y-42799000D01*
X52959000Y-43180000D02*
X52959000Y-41148000D01*
X52959000Y-41148000D02*
X54229000Y-41148000D01*
X54229000Y-41148000D02*
X54229000Y-43180000D01*
X54229000Y-43180000D02*
X52959000Y-43180000D01*
X28321000Y-56007000D02*
X27051000Y-56007000D01*
X28321000Y-54737000D02*
X27076400Y-54737000D01*
X28321000Y-54356000D02*
X28321000Y-56388000D01*
X28321000Y-56388000D02*
X27051000Y-56388000D01*
X27051000Y-56388000D02*
X27051000Y-54356000D01*
X27051000Y-54356000D02*
X28321000Y-54356000D01*
D15*
X36576000Y-15966000D02*
X36576000Y-15466000D01*
X36076000Y-19966000D02*
G75*
G03X36076000Y-19966000I-2000000J0D01*
G01*
X41076000Y-19966000D02*
G75*
G03X41076000Y-19966000I-2000000J0D01*
G01*
X41576000Y-17466000D02*
X31576000Y-17466000D01*
X41576000Y-22366000D02*
X31576000Y-22366000D01*
X41576000Y-15966000D02*
X31576000Y-15966000D01*
X41576000Y-15466000D02*
X31576000Y-15466000D01*
X31576000Y-15466000D02*
X31576000Y-25266000D01*
X31576000Y-25266000D02*
X41576000Y-25266000D01*
X41576000Y-25266000D02*
X41576000Y-15466000D01*
D13*
X22352000Y-83058000D02*
X22352000Y-75438000D01*
X22352000Y-75438000D02*
X27432000Y-75438000D01*
X27432000Y-75438000D02*
X27432000Y-83058000D01*
X24892000Y-83058000D02*
X24892000Y-80518000D01*
X24892000Y-80518000D02*
X27432000Y-80518000D01*
X22352000Y-83058000D02*
X27432000Y-83058000D01*
X24892000Y-86614000D02*
X24892000Y-84074000D01*
X24892000Y-84074000D02*
X27432000Y-86614000D01*
X27432000Y-84074000D02*
X24892000Y-86614000D01*
X22352000Y-84074000D02*
X27432000Y-84074000D01*
X27432000Y-86614000D02*
X22352000Y-86614000D01*
X27432000Y-84074000D02*
X27432000Y-86614000D01*
X22352000Y-86614000D02*
X22352000Y-84074000D01*
D15*
X76200000Y-26035000D02*
X69596000Y-26035000D01*
X69596000Y-26035000D02*
X67564000Y-25654000D01*
X67564000Y-25654000D02*
X67564000Y-22479000D01*
X67564000Y-22479000D02*
X69723000Y-21971000D01*
X69723000Y-21971000D02*
X76200000Y-21971000D01*
X67564000Y-47498000D02*
X69723000Y-46990000D01*
X69723000Y-46990000D02*
X76200000Y-46990000D01*
X76200000Y-51308000D02*
X69850000Y-51308000D01*
X69850000Y-51308000D02*
X67564000Y-50673000D01*
X67564000Y-50673000D02*
X67564000Y-47498000D01*
X76200000Y-21717000D02*
X76200000Y-26289000D01*
X76200000Y-26289000D02*
X76454000Y-26289000D01*
X76454000Y-26289000D02*
X76454000Y-21717000D01*
X76454000Y-21717000D02*
X76200000Y-21717000D01*
X76200000Y-46736000D02*
X76200000Y-51562000D01*
X76200000Y-51562000D02*
X76454000Y-51562000D01*
X76454000Y-51562000D02*
X76454000Y-46736000D01*
X76454000Y-46736000D02*
X76200000Y-46736000D01*
X76581000Y-25146000D02*
X74041000Y-25146000D01*
X74041000Y-25146000D02*
X74041000Y-22860000D01*
X74041000Y-22860000D02*
X76581000Y-22860000D01*
X76581000Y-50292000D02*
X74041000Y-50292000D01*
X74041000Y-50292000D02*
X74041000Y-48006000D01*
X74041000Y-48006000D02*
X76581000Y-48006000D01*
X76581000Y-27559000D02*
X64262000Y-27559000D01*
X76581000Y-45593000D02*
X64262000Y-45593000D01*
X76581000Y-52070000D02*
X76581000Y-21082000D01*
X79248000Y-47625000D02*
X85090000Y-47625000D01*
X79248000Y-50673000D02*
X85090000Y-50673000D01*
X79248000Y-22479000D02*
X85090000Y-22479000D01*
X79248000Y-25527000D02*
X85090000Y-25527000D01*
X79248000Y-26543000D02*
X85090000Y-26543000D01*
X85090000Y-26543000D02*
X85090000Y-21463000D01*
X85090000Y-21463000D02*
X79375000Y-21463000D01*
X79248000Y-51689000D02*
X85090000Y-51689000D01*
X85090000Y-51689000D02*
X85090000Y-46609000D01*
X85090000Y-46609000D02*
X79375000Y-46609000D01*
X79248000Y-44704000D02*
X85090000Y-44704000D01*
X85090000Y-44704000D02*
X85090000Y-28448000D01*
X85090000Y-28448000D02*
X79248000Y-28448000D01*
X79248000Y-52070000D02*
X79248000Y-21082000D01*
X79248000Y-21082000D02*
X64262000Y-21082000D01*
X64262000Y-21082000D02*
X64262000Y-52070000D01*
X64262000Y-52070000D02*
X79248000Y-52070000D01*
X58166000Y-91095000D02*
X58166000Y-91595000D01*
X62666000Y-87095000D02*
G75*
G03X62666000Y-87095000I-2000000J0D01*
G01*
X57666000Y-87095000D02*
G75*
G03X57666000Y-87095000I-2000000J0D01*
G01*
X53166000Y-89595000D02*
X63166000Y-89595000D01*
X53166000Y-84695000D02*
X63166000Y-84695000D01*
X53166000Y-91095000D02*
X63166000Y-91095000D01*
X53166000Y-91595000D02*
X63166000Y-91595000D01*
X63166000Y-91595000D02*
X63166000Y-81795000D01*
X63166000Y-81795000D02*
X53166000Y-81795000D01*
X53166000Y-81795000D02*
X53166000Y-91595000D01*
X47498000Y-91095000D02*
X47498000Y-91595000D01*
X51998000Y-87095000D02*
G75*
G03X51998000Y-87095000I-2000000J0D01*
G01*
X46998000Y-87095000D02*
G75*
G03X46998000Y-87095000I-2000000J0D01*
G01*
X42498000Y-89595000D02*
X52498000Y-89595000D01*
X42498000Y-84695000D02*
X52498000Y-84695000D01*
X42498000Y-91095000D02*
X52498000Y-91095000D01*
X42498000Y-91595000D02*
X52498000Y-91595000D01*
X52498000Y-91595000D02*
X52498000Y-81795000D01*
X52498000Y-81795000D02*
X42498000Y-81795000D01*
X42498000Y-81795000D02*
X42498000Y-91595000D01*
X36830000Y-91095000D02*
X36830000Y-91595000D01*
X41330000Y-87095000D02*
G75*
G03X41330000Y-87095000I-2000000J0D01*
G01*
X36330000Y-87095000D02*
G75*
G03X36330000Y-87095000I-2000000J0D01*
G01*
X31830000Y-89595000D02*
X41830000Y-89595000D01*
X31830000Y-84695000D02*
X41830000Y-84695000D01*
X31830000Y-91095000D02*
X41830000Y-91095000D01*
X31830000Y-91595000D02*
X41830000Y-91595000D01*
X41830000Y-91595000D02*
X41830000Y-81795000D01*
X41830000Y-81795000D02*
X31830000Y-81795000D01*
X31830000Y-81795000D02*
X31830000Y-91595000D01*
D11*
X43307000Y-44069000D02*
X43307000Y-45339000D01*
X42037000Y-44069000D02*
X42037000Y-45313600D01*
X41656000Y-44069000D02*
X43688000Y-44069000D01*
X43688000Y-44069000D02*
X43688000Y-45339000D01*
X43688000Y-45339000D02*
X41656000Y-45339000D01*
X41656000Y-45339000D02*
X41656000Y-44069000D01*
X43307000Y-41529000D02*
X43307000Y-42799000D01*
X42037000Y-41529000D02*
X42037000Y-42773600D01*
X41656000Y-41529000D02*
X43688000Y-41529000D01*
X43688000Y-41529000D02*
X43688000Y-42799000D01*
X43688000Y-42799000D02*
X41656000Y-42799000D01*
X41656000Y-42799000D02*
X41656000Y-41529000D01*
X45339000Y-50927000D02*
X45339000Y-52197000D01*
X44069000Y-50927000D02*
X44069000Y-52171600D01*
X43688000Y-50927000D02*
X45720000Y-50927000D01*
X45720000Y-50927000D02*
X45720000Y-52197000D01*
X45720000Y-52197000D02*
X43688000Y-52197000D01*
X43688000Y-52197000D02*
X43688000Y-50927000D01*
X45339000Y-48641000D02*
X45339000Y-49911000D01*
X44069000Y-48641000D02*
X44069000Y-49885600D01*
X43688000Y-48641000D02*
X45720000Y-48641000D01*
X45720000Y-48641000D02*
X45720000Y-49911000D01*
X45720000Y-49911000D02*
X43688000Y-49911000D01*
X43688000Y-49911000D02*
X43688000Y-48641000D01*
D16*
X83160000Y-68914000D02*
X83160000Y-53514000D01*
X64160000Y-68914000D02*
X83160000Y-68914000D01*
X64160000Y-53514000D02*
X83160000Y-53514000D01*
X64160000Y-68914000D02*
X64160000Y-53514000D01*
X79760000Y-62914000D02*
X79760000Y-67214000D01*
X79760000Y-55214000D02*
X79760000Y-59514000D01*
X75060000Y-61214000D02*
X76560000Y-61214000D01*
X76560000Y-61214000D02*
X81160000Y-58714000D01*
X75060000Y-64814000D02*
X68260000Y-64814000D01*
X75060000Y-61214000D02*
X75060000Y-64814000D01*
X65560000Y-61214000D02*
X68260000Y-61214000D01*
X68260000Y-61214000D02*
X68260000Y-64814000D01*
X67560000Y-67214000D02*
X71660000Y-67214000D01*
X67560000Y-55214000D02*
X71660000Y-55214000D01*
X71660000Y-55214000D02*
X71660000Y-59414000D01*
X71660000Y-63014000D02*
X71660000Y-67214000D01*
X73660000Y-63014000D02*
X69660000Y-59414000D01*
X69660000Y-63014000D02*
X69660000Y-59414000D01*
X69660000Y-59414000D02*
X73660000Y-59414000D01*
X73660000Y-59414000D02*
X73660000Y-63014000D01*
X73660000Y-63014000D02*
X69660000Y-63014000D01*
X83160000Y-85932000D02*
X83160000Y-70532000D01*
X64160000Y-85932000D02*
X83160000Y-85932000D01*
X64160000Y-70532000D02*
X83160000Y-70532000D01*
X64160000Y-85932000D02*
X64160000Y-70532000D01*
X79760000Y-79932000D02*
X79760000Y-84232000D01*
X79760000Y-72232000D02*
X79760000Y-76532000D01*
X75060000Y-78232000D02*
X76560000Y-78232000D01*
X76560000Y-78232000D02*
X81160000Y-75732000D01*
X75060000Y-81832000D02*
X68260000Y-81832000D01*
X75060000Y-78232000D02*
X75060000Y-81832000D01*
X65560000Y-78232000D02*
X68260000Y-78232000D01*
X68260000Y-78232000D02*
X68260000Y-81832000D01*
X67560000Y-84232000D02*
X71660000Y-84232000D01*
X67560000Y-72232000D02*
X71660000Y-72232000D01*
X71660000Y-72232000D02*
X71660000Y-76432000D01*
X71660000Y-80032000D02*
X71660000Y-84232000D01*
X73660000Y-80032000D02*
X69660000Y-76432000D01*
X69660000Y-80032000D02*
X69660000Y-76432000D01*
X69660000Y-76432000D02*
X73660000Y-76432000D01*
X73660000Y-76432000D02*
X73660000Y-80032000D01*
X73660000Y-80032000D02*
X69660000Y-80032000D01*
D17*
X25441000Y-15549000D02*
X25441000Y-31949000D01*
X25441000Y-31949000D02*
X21041000Y-31949000D01*
X21041000Y-31949000D02*
X21041000Y-15549000D01*
X21041000Y-15549000D02*
X25441000Y-15549000D01*
D18*
X21376640Y-69552820D02*
X26375360Y-69552820D01*
X26375360Y-69552820D02*
X26375360Y-57955180D01*
X26375360Y-57955180D02*
X21376640Y-57955180D01*
X21376640Y-57955180D02*
X21376640Y-69552820D01*
D12*
X23876000Y-58166000D02*
G75*
G03X21590000Y-60452000I0J-2286000D01*
G01*
X25654000Y-67056000D02*
X25654000Y-60452000D01*
X22098000Y-60452000D02*
X22098000Y-67056000D01*
X25654000Y-60452000D02*
G75*
G03X23876000Y-58674000I-1778000J0D01*
G01*
X23876000Y-58674000D02*
G75*
G03X22098000Y-60452000I0J-1778000D01*
G01*
X23876000Y-68834000D02*
G75*
G03X25654000Y-67056000I0J1778000D01*
G01*
X22098000Y-67056000D02*
G75*
G03X23876000Y-68834000I1778000J0D01*
G01*
X26162000Y-60452000D02*
G75*
G03X23876000Y-58166000I-2286000J0D01*
G01*
X26162000Y-60452000D02*
X26162000Y-67056000D01*
X21590000Y-67056000D02*
X21590000Y-60452000D01*
X23876000Y-69342000D02*
G75*
G03X26162000Y-67056000I0J2286000D01*
G01*
X21590000Y-67056000D02*
G75*
G03X23876000Y-69342000I2286000J0D01*
G01*
D11*
X27559000Y-41021000D02*
X26289000Y-41021000D01*
X27559000Y-39751000D02*
X26314400Y-39751000D01*
X27559000Y-39370000D02*
X27559000Y-41402000D01*
X27559000Y-41402000D02*
X26289000Y-41402000D01*
X26289000Y-41402000D02*
X26289000Y-39370000D01*
X26289000Y-39370000D02*
X27559000Y-39370000D01*
D13*
X59244000Y-57336000D02*
X60644000Y-57336000D01*
X58744000Y-57536000D02*
X61144000Y-57536000D01*
X58444000Y-57736000D02*
X61444000Y-57736000D01*
D14*
X60944000Y-58636000D02*
X61544000Y-58636000D01*
D13*
X62244000Y-59436000D02*
G75*
G03X62244000Y-59436000I-2300000J0D01*
G01*
X59244000Y-52002000D02*
X60644000Y-52002000D01*
X58744000Y-52202000D02*
X61144000Y-52202000D01*
X58444000Y-52402000D02*
X61444000Y-52402000D01*
D14*
X60944000Y-53302000D02*
X61544000Y-53302000D01*
D13*
X62244000Y-54102000D02*
G75*
G03X62244000Y-54102000I-2300000J0D01*
G01*
X53024000Y-65092000D02*
X51624000Y-65092000D01*
X53524000Y-64892000D02*
X51124000Y-64892000D01*
X53824000Y-64692000D02*
X50824000Y-64692000D01*
D14*
X51324000Y-63792000D02*
X50724000Y-63792000D01*
D13*
X54624000Y-62992000D02*
G75*
G03X54624000Y-62992000I-2300000J0D01*
G01*
X57844000Y-49468000D02*
X57844000Y-48068000D01*
X58044000Y-49968000D02*
X58044000Y-47568000D01*
X58244000Y-50268000D02*
X58244000Y-47268000D01*
D14*
X59144000Y-47768000D02*
X59144000Y-47168000D01*
D13*
X62244000Y-48768000D02*
G75*
G03X62244000Y-48768000I-2300000J0D01*
G01*
D11*
X61365000Y-29665000D02*
X62635000Y-29665000D01*
X61365000Y-30935000D02*
X62609600Y-30935000D01*
X61365000Y-31316000D02*
X61365000Y-29284000D01*
X61365000Y-29284000D02*
X62635000Y-29284000D01*
X62635000Y-29284000D02*
X62635000Y-31316000D01*
X62635000Y-31316000D02*
X61365000Y-31316000D01*
X58293000Y-29591000D02*
X59563000Y-29591000D01*
X58293000Y-30861000D02*
X59537600Y-30861000D01*
X58293000Y-31242000D02*
X58293000Y-29210000D01*
X58293000Y-29210000D02*
X59563000Y-29210000D01*
X59563000Y-29210000D02*
X59563000Y-31242000D01*
X59563000Y-31242000D02*
X58293000Y-31242000D01*
X23241000Y-41021000D02*
X21971000Y-41021000D01*
X23241000Y-39751000D02*
X21996400Y-39751000D01*
X23241000Y-39370000D02*
X23241000Y-41402000D01*
X23241000Y-41402000D02*
X21971000Y-41402000D01*
X21971000Y-41402000D02*
X21971000Y-39370000D01*
X21971000Y-39370000D02*
X23241000Y-39370000D01*
D12*
X78000000Y-86841000D02*
X78000000Y-91159000D01*
X75841000Y-89000000D02*
X80159000Y-89000000D01*
X79778000Y-89000000D02*
G75*
G03X79778000Y-89000000I-1778000J0D01*
G01*
D15*
X38100000Y-77470000D02*
X38100000Y-39878000D01*
X31496000Y-77470000D02*
X31496000Y-39878000D01*
X36068000Y-40894000D02*
X33528000Y-40894000D01*
X33528000Y-40894000D02*
X33528000Y-39878000D01*
X36068000Y-40894000D02*
X36068000Y-39878000D01*
X38100000Y-77470000D02*
X31496000Y-77470000D01*
X31496000Y-39878000D02*
X38100000Y-39878000D01*
D13*
X60774000Y-42224000D02*
X56574000Y-42224000D01*
X60474000Y-42424000D02*
X56874000Y-42424000D01*
X60074000Y-42624000D02*
X57274000Y-42624000D01*
X59474000Y-42824000D02*
X57774000Y-42824000D01*
X62074000Y-39624000D02*
G75*
G03X62074000Y-39624000I-3400000J0D01*
G01*
D14*
X57274000Y-40824000D02*
X56274000Y-40824000D01*
D19*
X51562095Y-54316381D02*
X51562095Y-55125905D01*
X51609714Y-55221143D01*
X51657333Y-55268762D01*
X51752571Y-55316381D01*
X51943048Y-55316381D01*
X52038286Y-55268762D01*
X52085905Y-55221143D01*
X52133524Y-55125905D01*
X52133524Y-54316381D01*
X52514476Y-54316381D02*
X53133524Y-54316381D01*
X52800190Y-54697333D01*
X52943048Y-54697333D01*
X53038286Y-54744952D01*
X53085905Y-54792571D01*
X53133524Y-54887810D01*
X53133524Y-55125905D01*
X53085905Y-55221143D01*
X53038286Y-55268762D01*
X52943048Y-55316381D01*
X52657333Y-55316381D01*
X52562095Y-55268762D01*
X52514476Y-55221143D01*
X21867905Y-49728381D02*
X21867905Y-48728381D01*
X22106000Y-48728381D01*
X22248858Y-48776000D01*
X22344096Y-48871238D01*
X22391715Y-48966476D01*
X22439334Y-49156952D01*
X22439334Y-49299810D01*
X22391715Y-49490286D01*
X22344096Y-49585524D01*
X22248858Y-49680762D01*
X22106000Y-49728381D01*
X21867905Y-49728381D01*
X23296477Y-48728381D02*
X23106000Y-48728381D01*
X23010762Y-48776000D01*
X22963143Y-48823619D01*
X22867905Y-48966476D01*
X22820286Y-49156952D01*
X22820286Y-49537905D01*
X22867905Y-49633143D01*
X22915524Y-49680762D01*
X23010762Y-49728381D01*
X23201239Y-49728381D01*
X23296477Y-49680762D01*
X23344096Y-49633143D01*
X23391715Y-49537905D01*
X23391715Y-49299810D01*
X23344096Y-49204571D01*
X23296477Y-49156952D01*
X23201239Y-49109333D01*
X23010762Y-49109333D01*
X22915524Y-49156952D01*
X22867905Y-49204571D01*
X22820286Y-49299810D01*
X58189905Y-21788381D02*
X58189905Y-20788381D01*
X58428000Y-20788381D01*
X58570858Y-20836000D01*
X58666096Y-20931238D01*
X58713715Y-21026476D01*
X58761334Y-21216952D01*
X58761334Y-21359810D01*
X58713715Y-21550286D01*
X58666096Y-21645524D01*
X58570858Y-21740762D01*
X58428000Y-21788381D01*
X58189905Y-21788381D01*
X59666096Y-20788381D02*
X59189905Y-20788381D01*
X59142286Y-21264571D01*
X59189905Y-21216952D01*
X59285143Y-21169333D01*
X59523239Y-21169333D01*
X59618477Y-21216952D01*
X59666096Y-21264571D01*
X59713715Y-21359810D01*
X59713715Y-21597905D01*
X59666096Y-21693143D01*
X59618477Y-21740762D01*
X59523239Y-21788381D01*
X59285143Y-21788381D01*
X59189905Y-21740762D01*
X59142286Y-21693143D01*
X61237905Y-21788381D02*
X61237905Y-20788381D01*
X61476000Y-20788381D01*
X61618858Y-20836000D01*
X61714096Y-20931238D01*
X61761715Y-21026476D01*
X61809334Y-21216952D01*
X61809334Y-21359810D01*
X61761715Y-21550286D01*
X61714096Y-21645524D01*
X61618858Y-21740762D01*
X61476000Y-21788381D01*
X61237905Y-21788381D01*
X62666477Y-21121714D02*
X62666477Y-21788381D01*
X62428381Y-20740762D02*
X62190286Y-21455048D01*
X62809334Y-21455048D01*
X49022095Y-28916381D02*
X49022095Y-29725905D01*
X49069714Y-29821143D01*
X49117333Y-29868762D01*
X49212571Y-29916381D01*
X49403048Y-29916381D01*
X49498286Y-29868762D01*
X49545905Y-29821143D01*
X49593524Y-29725905D01*
X49593524Y-28916381D01*
X50022095Y-29011619D02*
X50069714Y-28964000D01*
X50164952Y-28916381D01*
X50403048Y-28916381D01*
X50498286Y-28964000D01*
X50545905Y-29011619D01*
X50593524Y-29106857D01*
X50593524Y-29202095D01*
X50545905Y-29344952D01*
X49974476Y-29916381D01*
X50593524Y-29916381D01*
X34107381Y-28678095D02*
X33107381Y-28678095D01*
X33107381Y-28440000D01*
X33155000Y-28297142D01*
X33250238Y-28201904D01*
X33345476Y-28154285D01*
X33535952Y-28106666D01*
X33678810Y-28106666D01*
X33869286Y-28154285D01*
X33964524Y-28201904D01*
X34059762Y-28297142D01*
X34107381Y-28440000D01*
X34107381Y-28678095D01*
X34107381Y-27154285D02*
X34107381Y-27725714D01*
X34107381Y-27440000D02*
X33107381Y-27440000D01*
X33250238Y-27535238D01*
X33345476Y-27630476D01*
X33393095Y-27725714D01*
X45553334Y-62841143D02*
X45505715Y-62888762D01*
X45362858Y-62936381D01*
X45267620Y-62936381D01*
X45124762Y-62888762D01*
X45029524Y-62793524D01*
X44981905Y-62698286D01*
X44934286Y-62507810D01*
X44934286Y-62364952D01*
X44981905Y-62174476D01*
X45029524Y-62079238D01*
X45124762Y-61984000D01*
X45267620Y-61936381D01*
X45362858Y-61936381D01*
X45505715Y-61984000D01*
X45553334Y-62031619D01*
X46505715Y-62936381D02*
X45934286Y-62936381D01*
X46220000Y-62936381D02*
X46220000Y-61936381D01*
X46124762Y-62079238D01*
X46029524Y-62174476D01*
X45934286Y-62222095D01*
X24725334Y-74779143D02*
X24677715Y-74826762D01*
X24534858Y-74874381D01*
X24439620Y-74874381D01*
X24296762Y-74826762D01*
X24201524Y-74731524D01*
X24153905Y-74636286D01*
X24106286Y-74445810D01*
X24106286Y-74302952D01*
X24153905Y-74112476D01*
X24201524Y-74017238D01*
X24296762Y-73922000D01*
X24439620Y-73874381D01*
X24534858Y-73874381D01*
X24677715Y-73922000D01*
X24725334Y-73969619D01*
X25106286Y-73969619D02*
X25153905Y-73922000D01*
X25249143Y-73874381D01*
X25487239Y-73874381D01*
X25582477Y-73922000D01*
X25630096Y-73969619D01*
X25677715Y-74064857D01*
X25677715Y-74160095D01*
X25630096Y-74302952D01*
X25058667Y-74874381D01*
X25677715Y-74874381D01*
X45553334Y-57761143D02*
X45505715Y-57808762D01*
X45362858Y-57856381D01*
X45267620Y-57856381D01*
X45124762Y-57808762D01*
X45029524Y-57713524D01*
X44981905Y-57618286D01*
X44934286Y-57427810D01*
X44934286Y-57284952D01*
X44981905Y-57094476D01*
X45029524Y-56999238D01*
X45124762Y-56904000D01*
X45267620Y-56856381D01*
X45362858Y-56856381D01*
X45505715Y-56904000D01*
X45553334Y-56951619D01*
X45886667Y-56856381D02*
X46505715Y-56856381D01*
X46172381Y-57237333D01*
X46315239Y-57237333D01*
X46410477Y-57284952D01*
X46458096Y-57332571D01*
X46505715Y-57427810D01*
X46505715Y-57665905D01*
X46458096Y-57761143D01*
X46410477Y-57808762D01*
X46315239Y-57856381D01*
X46029524Y-57856381D01*
X45934286Y-57808762D01*
X45886667Y-57761143D01*
X23455334Y-55729143D02*
X23407715Y-55776762D01*
X23264858Y-55824381D01*
X23169620Y-55824381D01*
X23026762Y-55776762D01*
X22931524Y-55681524D01*
X22883905Y-55586286D01*
X22836286Y-55395810D01*
X22836286Y-55252952D01*
X22883905Y-55062476D01*
X22931524Y-54967238D01*
X23026762Y-54872000D01*
X23169620Y-54824381D01*
X23264858Y-54824381D01*
X23407715Y-54872000D01*
X23455334Y-54919619D01*
X24312477Y-55157714D02*
X24312477Y-55824381D01*
X24074381Y-54776762D02*
X23836286Y-55491048D01*
X24455334Y-55491048D01*
X36028334Y-35663143D02*
X35980715Y-35710762D01*
X35837858Y-35758381D01*
X35742620Y-35758381D01*
X35599762Y-35710762D01*
X35504524Y-35615524D01*
X35456905Y-35520286D01*
X35409286Y-35329810D01*
X35409286Y-35186952D01*
X35456905Y-34996476D01*
X35504524Y-34901238D01*
X35599762Y-34806000D01*
X35742620Y-34758381D01*
X35837858Y-34758381D01*
X35980715Y-34806000D01*
X36028334Y-34853619D01*
X36885477Y-34758381D02*
X36695000Y-34758381D01*
X36599762Y-34806000D01*
X36552143Y-34853619D01*
X36456905Y-34996476D01*
X36409286Y-35186952D01*
X36409286Y-35567905D01*
X36456905Y-35663143D01*
X36504524Y-35710762D01*
X36599762Y-35758381D01*
X36790239Y-35758381D01*
X36885477Y-35710762D01*
X36933096Y-35663143D01*
X36980715Y-35567905D01*
X36980715Y-35329810D01*
X36933096Y-35234571D01*
X36885477Y-35186952D01*
X36790239Y-35139333D01*
X36599762Y-35139333D01*
X36504524Y-35186952D01*
X36456905Y-35234571D01*
X36409286Y-35329810D01*
X46188334Y-44807143D02*
X46140715Y-44854762D01*
X45997858Y-44902381D01*
X45902620Y-44902381D01*
X45759762Y-44854762D01*
X45664524Y-44759524D01*
X45616905Y-44664286D01*
X45569286Y-44473810D01*
X45569286Y-44330952D01*
X45616905Y-44140476D01*
X45664524Y-44045238D01*
X45759762Y-43950000D01*
X45902620Y-43902381D01*
X45997858Y-43902381D01*
X46140715Y-43950000D01*
X46188334Y-43997619D01*
X46521667Y-43902381D02*
X47188334Y-43902381D01*
X46759762Y-44902381D01*
X53427334Y-45315143D02*
X53379715Y-45362762D01*
X53236858Y-45410381D01*
X53141620Y-45410381D01*
X52998762Y-45362762D01*
X52903524Y-45267524D01*
X52855905Y-45172286D01*
X52808286Y-44981810D01*
X52808286Y-44838952D01*
X52855905Y-44648476D01*
X52903524Y-44553238D01*
X52998762Y-44458000D01*
X53141620Y-44410381D01*
X53236858Y-44410381D01*
X53379715Y-44458000D01*
X53427334Y-44505619D01*
X53998762Y-44838952D02*
X53903524Y-44791333D01*
X53855905Y-44743714D01*
X53808286Y-44648476D01*
X53808286Y-44600857D01*
X53855905Y-44505619D01*
X53903524Y-44458000D01*
X53998762Y-44410381D01*
X54189239Y-44410381D01*
X54284477Y-44458000D01*
X54332096Y-44505619D01*
X54379715Y-44600857D01*
X54379715Y-44648476D01*
X54332096Y-44743714D01*
X54284477Y-44791333D01*
X54189239Y-44838952D01*
X53998762Y-44838952D01*
X53903524Y-44886571D01*
X53855905Y-44934190D01*
X53808286Y-45029429D01*
X53808286Y-45219905D01*
X53855905Y-45315143D01*
X53903524Y-45362762D01*
X53998762Y-45410381D01*
X54189239Y-45410381D01*
X54284477Y-45362762D01*
X54332096Y-45315143D01*
X54379715Y-45219905D01*
X54379715Y-45029429D01*
X54332096Y-44934190D01*
X54284477Y-44886571D01*
X54189239Y-44838952D01*
X27043143Y-52681143D02*
X26995524Y-52728762D01*
X26852667Y-52776381D01*
X26757429Y-52776381D01*
X26614571Y-52728762D01*
X26519333Y-52633524D01*
X26471714Y-52538286D01*
X26424095Y-52347810D01*
X26424095Y-52204952D01*
X26471714Y-52014476D01*
X26519333Y-51919238D01*
X26614571Y-51824000D01*
X26757429Y-51776381D01*
X26852667Y-51776381D01*
X26995524Y-51824000D01*
X27043143Y-51871619D01*
X27995524Y-52776381D02*
X27424095Y-52776381D01*
X27709809Y-52776381D02*
X27709809Y-51776381D01*
X27614571Y-51919238D01*
X27519333Y-52014476D01*
X27424095Y-52062095D01*
X28947905Y-52776381D02*
X28376476Y-52776381D01*
X28662190Y-52776381D02*
X28662190Y-51776381D01*
X28566952Y-51919238D01*
X28471714Y-52014476D01*
X28376476Y-52062095D01*
X36242667Y-23328381D02*
X36242667Y-24042667D01*
X36195047Y-24185524D01*
X36099809Y-24280762D01*
X35956952Y-24328381D01*
X35861714Y-24328381D01*
X37242667Y-24328381D02*
X36671238Y-24328381D01*
X36956952Y-24328381D02*
X36956952Y-23328381D01*
X36861714Y-23471238D01*
X36766476Y-23566476D01*
X36671238Y-23614095D01*
X20748667Y-78700381D02*
X20748667Y-79414667D01*
X20701047Y-79557524D01*
X20605809Y-79652762D01*
X20462952Y-79700381D01*
X20367714Y-79700381D01*
X21177238Y-78795619D02*
X21224857Y-78748000D01*
X21320095Y-78700381D01*
X21558191Y-78700381D01*
X21653429Y-78748000D01*
X21701048Y-78795619D01*
X21748667Y-78890857D01*
X21748667Y-78986095D01*
X21701048Y-79128952D01*
X21129619Y-79700381D01*
X21748667Y-79700381D01*
X20748667Y-84796381D02*
X20748667Y-85510667D01*
X20701047Y-85653524D01*
X20605809Y-85748762D01*
X20462952Y-85796381D01*
X20367714Y-85796381D01*
X21129619Y-84796381D02*
X21748667Y-84796381D01*
X21415333Y-85177333D01*
X21558191Y-85177333D01*
X21653429Y-85224952D01*
X21701048Y-85272571D01*
X21748667Y-85367810D01*
X21748667Y-85605905D01*
X21701048Y-85701143D01*
X21653429Y-85748762D01*
X21558191Y-85796381D01*
X21272476Y-85796381D01*
X21177238Y-85748762D01*
X21129619Y-85701143D01*
X72564667Y-35774381D02*
X72564667Y-36488667D01*
X72517047Y-36631524D01*
X72421809Y-36726762D01*
X72278952Y-36774381D01*
X72183714Y-36774381D01*
X73469429Y-36107714D02*
X73469429Y-36774381D01*
X73231333Y-35726762D02*
X72993238Y-36441048D01*
X73612286Y-36441048D01*
X57832667Y-82637381D02*
X57832667Y-83351667D01*
X57785047Y-83494524D01*
X57689809Y-83589762D01*
X57546952Y-83637381D01*
X57451714Y-83637381D01*
X58785048Y-82637381D02*
X58308857Y-82637381D01*
X58261238Y-83113571D01*
X58308857Y-83065952D01*
X58404095Y-83018333D01*
X58642191Y-83018333D01*
X58737429Y-83065952D01*
X58785048Y-83113571D01*
X58832667Y-83208810D01*
X58832667Y-83446905D01*
X58785048Y-83542143D01*
X58737429Y-83589762D01*
X58642191Y-83637381D01*
X58404095Y-83637381D01*
X58308857Y-83589762D01*
X58261238Y-83542143D01*
X47164667Y-82637381D02*
X47164667Y-83351667D01*
X47117047Y-83494524D01*
X47021809Y-83589762D01*
X46878952Y-83637381D01*
X46783714Y-83637381D01*
X48069429Y-82637381D02*
X47878952Y-82637381D01*
X47783714Y-82685000D01*
X47736095Y-82732619D01*
X47640857Y-82875476D01*
X47593238Y-83065952D01*
X47593238Y-83446905D01*
X47640857Y-83542143D01*
X47688476Y-83589762D01*
X47783714Y-83637381D01*
X47974191Y-83637381D01*
X48069429Y-83589762D01*
X48117048Y-83542143D01*
X48164667Y-83446905D01*
X48164667Y-83208810D01*
X48117048Y-83113571D01*
X48069429Y-83065952D01*
X47974191Y-83018333D01*
X47783714Y-83018333D01*
X47688476Y-83065952D01*
X47640857Y-83113571D01*
X47593238Y-83208810D01*
X36496667Y-82637381D02*
X36496667Y-83351667D01*
X36449047Y-83494524D01*
X36353809Y-83589762D01*
X36210952Y-83637381D01*
X36115714Y-83637381D01*
X36877619Y-82637381D02*
X37544286Y-82637381D01*
X37115714Y-83637381D01*
X42505334Y-46934381D02*
X42172000Y-46458190D01*
X41933905Y-46934381D02*
X41933905Y-45934381D01*
X42314858Y-45934381D01*
X42410096Y-45982000D01*
X42457715Y-46029619D01*
X42505334Y-46124857D01*
X42505334Y-46267714D01*
X42457715Y-46362952D01*
X42410096Y-46410571D01*
X42314858Y-46458190D01*
X41933905Y-46458190D01*
X43457715Y-46934381D02*
X42886286Y-46934381D01*
X43172000Y-46934381D02*
X43172000Y-45934381D01*
X43076762Y-46077238D01*
X42981524Y-46172476D01*
X42886286Y-46220095D01*
X42505334Y-40838381D02*
X42172000Y-40362190D01*
X41933905Y-40838381D02*
X41933905Y-39838381D01*
X42314858Y-39838381D01*
X42410096Y-39886000D01*
X42457715Y-39933619D01*
X42505334Y-40028857D01*
X42505334Y-40171714D01*
X42457715Y-40266952D01*
X42410096Y-40314571D01*
X42314858Y-40362190D01*
X41933905Y-40362190D01*
X42886286Y-39933619D02*
X42933905Y-39886000D01*
X43029143Y-39838381D01*
X43267239Y-39838381D01*
X43362477Y-39886000D01*
X43410096Y-39933619D01*
X43457715Y-40028857D01*
X43457715Y-40124095D01*
X43410096Y-40266952D01*
X42838667Y-40838381D01*
X43457715Y-40838381D01*
X41489334Y-52014381D02*
X41156000Y-51538190D01*
X40917905Y-52014381D02*
X40917905Y-51014381D01*
X41298858Y-51014381D01*
X41394096Y-51062000D01*
X41441715Y-51109619D01*
X41489334Y-51204857D01*
X41489334Y-51347714D01*
X41441715Y-51442952D01*
X41394096Y-51490571D01*
X41298858Y-51538190D01*
X40917905Y-51538190D01*
X41822667Y-51014381D02*
X42489334Y-51014381D01*
X42060762Y-52014381D01*
X41489334Y-49728381D02*
X41156000Y-49252190D01*
X40917905Y-49728381D02*
X40917905Y-48728381D01*
X41298858Y-48728381D01*
X41394096Y-48776000D01*
X41441715Y-48823619D01*
X41489334Y-48918857D01*
X41489334Y-49061714D01*
X41441715Y-49156952D01*
X41394096Y-49204571D01*
X41298858Y-49252190D01*
X40917905Y-49252190D01*
X42060762Y-49156952D02*
X41965524Y-49109333D01*
X41917905Y-49061714D01*
X41870286Y-48966476D01*
X41870286Y-48918857D01*
X41917905Y-48823619D01*
X41965524Y-48776000D01*
X42060762Y-48728381D01*
X42251239Y-48728381D01*
X42346477Y-48776000D01*
X42394096Y-48823619D01*
X42441715Y-48918857D01*
X42441715Y-48966476D01*
X42394096Y-49061714D01*
X42346477Y-49109333D01*
X42251239Y-49156952D01*
X42060762Y-49156952D01*
X41965524Y-49204571D01*
X41917905Y-49252190D01*
X41870286Y-49347429D01*
X41870286Y-49537905D01*
X41917905Y-49633143D01*
X41965524Y-49680762D01*
X42060762Y-49728381D01*
X42251239Y-49728381D01*
X42346477Y-49680762D01*
X42394096Y-49633143D01*
X42441715Y-49537905D01*
X42441715Y-49347429D01*
X42394096Y-49252190D01*
X42346477Y-49204571D01*
X42251239Y-49156952D01*
X74184000Y-56332381D02*
X73850666Y-55856190D01*
X73612571Y-56332381D02*
X73612571Y-55332381D01*
X73993524Y-55332381D01*
X74088762Y-55380000D01*
X74136381Y-55427619D01*
X74184000Y-55522857D01*
X74184000Y-55665714D01*
X74136381Y-55760952D01*
X74088762Y-55808571D01*
X73993524Y-55856190D01*
X73612571Y-55856190D01*
X75088762Y-56332381D02*
X74612571Y-56332381D01*
X74612571Y-55332381D01*
X75612571Y-55856190D02*
X75612571Y-56332381D01*
X75279238Y-55332381D02*
X75612571Y-55856190D01*
X75945905Y-55332381D01*
X76803048Y-56332381D02*
X76231619Y-56332381D01*
X76517333Y-56332381D02*
X76517333Y-55332381D01*
X76422095Y-55475238D01*
X76326857Y-55570476D01*
X76231619Y-55618095D01*
X74692000Y-73604381D02*
X74358666Y-73128190D01*
X74120571Y-73604381D02*
X74120571Y-72604381D01*
X74501524Y-72604381D01*
X74596762Y-72652000D01*
X74644381Y-72699619D01*
X74692000Y-72794857D01*
X74692000Y-72937714D01*
X74644381Y-73032952D01*
X74596762Y-73080571D01*
X74501524Y-73128190D01*
X74120571Y-73128190D01*
X75596762Y-73604381D02*
X75120571Y-73604381D01*
X75120571Y-72604381D01*
X76120571Y-73128190D02*
X76120571Y-73604381D01*
X75787238Y-72604381D02*
X76120571Y-73128190D01*
X76453905Y-72604381D01*
X76739619Y-72699619D02*
X76787238Y-72652000D01*
X76882476Y-72604381D01*
X77120572Y-72604381D01*
X77215810Y-72652000D01*
X77263429Y-72699619D01*
X77311048Y-72794857D01*
X77311048Y-72890095D01*
X77263429Y-73032952D01*
X76692000Y-73604381D01*
X77311048Y-73604381D01*
X23693381Y-24344238D02*
X23217190Y-24677572D01*
X23693381Y-24915667D02*
X22693381Y-24915667D01*
X22693381Y-24534714D01*
X22741000Y-24439476D01*
X22788619Y-24391857D01*
X22883857Y-24344238D01*
X23026714Y-24344238D01*
X23121952Y-24391857D01*
X23169571Y-24439476D01*
X23217190Y-24534714D01*
X23217190Y-24915667D01*
X22693381Y-24058524D02*
X23693381Y-23725191D01*
X22693381Y-23391857D01*
X23693381Y-22534714D02*
X23693381Y-23106143D01*
X23693381Y-22820429D02*
X22693381Y-22820429D01*
X22836238Y-22915667D01*
X22931476Y-23010905D01*
X22979095Y-23106143D01*
X23399809Y-63730190D02*
X23399809Y-64206381D01*
X23066476Y-63206381D02*
X23399809Y-63730190D01*
X23733143Y-63206381D01*
X24590286Y-64206381D02*
X24018857Y-64206381D01*
X24304571Y-64206381D02*
X24304571Y-63206381D01*
X24209333Y-63349238D01*
X24114095Y-63444476D01*
X24018857Y-63492095D01*
X26757334Y-38044381D02*
X26424000Y-37568190D01*
X26185905Y-38044381D02*
X26185905Y-37044381D01*
X26566858Y-37044381D01*
X26662096Y-37092000D01*
X26709715Y-37139619D01*
X26757334Y-37234857D01*
X26757334Y-37377714D01*
X26709715Y-37472952D01*
X26662096Y-37520571D01*
X26566858Y-37568190D01*
X26185905Y-37568190D01*
X27233524Y-38044381D02*
X27424000Y-38044381D01*
X27519239Y-37996762D01*
X27566858Y-37949143D01*
X27662096Y-37806286D01*
X27709715Y-37615810D01*
X27709715Y-37234857D01*
X27662096Y-37139619D01*
X27614477Y-37092000D01*
X27519239Y-37044381D01*
X27328762Y-37044381D01*
X27233524Y-37092000D01*
X27185905Y-37139619D01*
X27138286Y-37234857D01*
X27138286Y-37472952D01*
X27185905Y-37568190D01*
X27233524Y-37615810D01*
X27328762Y-37663429D01*
X27519239Y-37663429D01*
X27614477Y-37615810D01*
X27662096Y-37568190D01*
X27709715Y-37472952D01*
X63365143Y-59793143D02*
X63317524Y-59840762D01*
X63174667Y-59888381D01*
X63079429Y-59888381D01*
X62936571Y-59840762D01*
X62841333Y-59745524D01*
X62793714Y-59650286D01*
X62746095Y-59459810D01*
X62746095Y-59316952D01*
X62793714Y-59126476D01*
X62841333Y-59031238D01*
X62936571Y-58936000D01*
X63079429Y-58888381D01*
X63174667Y-58888381D01*
X63317524Y-58936000D01*
X63365143Y-58983619D01*
X64317524Y-59888381D02*
X63746095Y-59888381D01*
X64031809Y-59888381D02*
X64031809Y-58888381D01*
X63936571Y-59031238D01*
X63841333Y-59126476D01*
X63746095Y-59174095D01*
X64936571Y-58888381D02*
X65031810Y-58888381D01*
X65127048Y-58936000D01*
X65174667Y-58983619D01*
X65222286Y-59078857D01*
X65269905Y-59269333D01*
X65269905Y-59507429D01*
X65222286Y-59697905D01*
X65174667Y-59793143D01*
X65127048Y-59840762D01*
X65031810Y-59888381D01*
X64936571Y-59888381D01*
X64841333Y-59840762D01*
X64793714Y-59793143D01*
X64746095Y-59697905D01*
X64698476Y-59507429D01*
X64698476Y-59269333D01*
X64746095Y-59078857D01*
X64793714Y-58983619D01*
X64841333Y-58936000D01*
X64936571Y-58888381D01*
X63365143Y-54459143D02*
X63317524Y-54506762D01*
X63174667Y-54554381D01*
X63079429Y-54554381D01*
X62936571Y-54506762D01*
X62841333Y-54411524D01*
X62793714Y-54316286D01*
X62746095Y-54125810D01*
X62746095Y-53982952D01*
X62793714Y-53792476D01*
X62841333Y-53697238D01*
X62936571Y-53602000D01*
X63079429Y-53554381D01*
X63174667Y-53554381D01*
X63317524Y-53602000D01*
X63365143Y-53649619D01*
X64317524Y-54554381D02*
X63746095Y-54554381D01*
X64031809Y-54554381D02*
X64031809Y-53554381D01*
X63936571Y-53697238D01*
X63841333Y-53792476D01*
X63746095Y-53840095D01*
X64698476Y-53649619D02*
X64746095Y-53602000D01*
X64841333Y-53554381D01*
X65079429Y-53554381D01*
X65174667Y-53602000D01*
X65222286Y-53649619D01*
X65269905Y-53744857D01*
X65269905Y-53840095D01*
X65222286Y-53982952D01*
X64650857Y-54554381D01*
X65269905Y-54554381D01*
X55745143Y-63857143D02*
X55697524Y-63904762D01*
X55554667Y-63952381D01*
X55459429Y-63952381D01*
X55316571Y-63904762D01*
X55221333Y-63809524D01*
X55173714Y-63714286D01*
X55126095Y-63523810D01*
X55126095Y-63380952D01*
X55173714Y-63190476D01*
X55221333Y-63095238D01*
X55316571Y-63000000D01*
X55459429Y-62952381D01*
X55554667Y-62952381D01*
X55697524Y-63000000D01*
X55745143Y-63047619D01*
X56697524Y-63952381D02*
X56126095Y-63952381D01*
X56411809Y-63952381D02*
X56411809Y-62952381D01*
X56316571Y-63095238D01*
X56221333Y-63190476D01*
X56126095Y-63238095D01*
X57030857Y-62952381D02*
X57649905Y-62952381D01*
X57316571Y-63333333D01*
X57459429Y-63333333D01*
X57554667Y-63380952D01*
X57602286Y-63428571D01*
X57649905Y-63523810D01*
X57649905Y-63761905D01*
X57602286Y-63857143D01*
X57554667Y-63904762D01*
X57459429Y-63952381D01*
X57173714Y-63952381D01*
X57078476Y-63904762D01*
X57030857Y-63857143D01*
X60301143Y-53474857D02*
X60348762Y-53522476D01*
X60396381Y-53665333D01*
X60396381Y-53760571D01*
X60348762Y-53903429D01*
X60253524Y-53998667D01*
X60158286Y-54046286D01*
X59967810Y-54093905D01*
X59824952Y-54093905D01*
X59634476Y-54046286D01*
X59539238Y-53998667D01*
X59444000Y-53903429D01*
X59396381Y-53760571D01*
X59396381Y-53665333D01*
X59444000Y-53522476D01*
X59491619Y-53474857D01*
X60396381Y-52522476D02*
X60396381Y-53093905D01*
X60396381Y-52808191D02*
X59396381Y-52808191D01*
X59539238Y-52903429D01*
X59634476Y-52998667D01*
X59682095Y-53093905D01*
X59729714Y-51665333D02*
X60396381Y-51665333D01*
X59348762Y-51903429D02*
X60063048Y-52141524D01*
X60063048Y-51522476D01*
X61357143Y-33546381D02*
X61023809Y-33070190D01*
X60785714Y-33546381D02*
X60785714Y-32546381D01*
X61166667Y-32546381D01*
X61261905Y-32594000D01*
X61309524Y-32641619D01*
X61357143Y-32736857D01*
X61357143Y-32879714D01*
X61309524Y-32974952D01*
X61261905Y-33022571D01*
X61166667Y-33070190D01*
X60785714Y-33070190D01*
X62309524Y-33546381D02*
X61738095Y-33546381D01*
X62023809Y-33546381D02*
X62023809Y-32546381D01*
X61928571Y-32689238D01*
X61833333Y-32784476D01*
X61738095Y-32832095D01*
X62928571Y-32546381D02*
X63023810Y-32546381D01*
X63119048Y-32594000D01*
X63166667Y-32641619D01*
X63214286Y-32736857D01*
X63261905Y-32927333D01*
X63261905Y-33165429D01*
X63214286Y-33355905D01*
X63166667Y-33451143D01*
X63119048Y-33498762D01*
X63023810Y-33546381D01*
X62928571Y-33546381D01*
X62833333Y-33498762D01*
X62785714Y-33451143D01*
X62738095Y-33355905D01*
X62690476Y-33165429D01*
X62690476Y-32927333D01*
X62738095Y-32736857D01*
X62785714Y-32641619D01*
X62833333Y-32594000D01*
X62928571Y-32546381D01*
X58285143Y-33472381D02*
X57951809Y-32996190D01*
X57713714Y-33472381D02*
X57713714Y-32472381D01*
X58094667Y-32472381D01*
X58189905Y-32520000D01*
X58237524Y-32567619D01*
X58285143Y-32662857D01*
X58285143Y-32805714D01*
X58237524Y-32900952D01*
X58189905Y-32948571D01*
X58094667Y-32996190D01*
X57713714Y-32996190D01*
X59237524Y-33472381D02*
X58666095Y-33472381D01*
X58951809Y-33472381D02*
X58951809Y-32472381D01*
X58856571Y-32615238D01*
X58761333Y-32710476D01*
X58666095Y-32758095D01*
X60189905Y-33472381D02*
X59618476Y-33472381D01*
X59904190Y-33472381D02*
X59904190Y-32472381D01*
X59808952Y-32615238D01*
X59713714Y-32710476D01*
X59618476Y-32758095D01*
X23058381Y-37726857D02*
X22582190Y-38060191D01*
X23058381Y-38298286D02*
X22058381Y-38298286D01*
X22058381Y-37917333D01*
X22106000Y-37822095D01*
X22153619Y-37774476D01*
X22248857Y-37726857D01*
X22391714Y-37726857D01*
X22486952Y-37774476D01*
X22534571Y-37822095D01*
X22582190Y-37917333D01*
X22582190Y-38298286D01*
X23058381Y-36774476D02*
X23058381Y-37345905D01*
X23058381Y-37060191D02*
X22058381Y-37060191D01*
X22201238Y-37155429D01*
X22296476Y-37250667D01*
X22344095Y-37345905D01*
X22153619Y-36393524D02*
X22106000Y-36345905D01*
X22058381Y-36250667D01*
X22058381Y-36012571D01*
X22106000Y-35917333D01*
X22153619Y-35869714D01*
X22248857Y-35822095D01*
X22344095Y-35822095D01*
X22486952Y-35869714D01*
X23058381Y-36441143D01*
X23058381Y-35822095D01*
X34036095Y-58126381D02*
X34036095Y-58935905D01*
X34083714Y-59031143D01*
X34131333Y-59078762D01*
X34226571Y-59126381D01*
X34417048Y-59126381D01*
X34512286Y-59078762D01*
X34559905Y-59031143D01*
X34607524Y-58935905D01*
X34607524Y-58126381D01*
X35607524Y-59126381D02*
X35036095Y-59126381D01*
X35321809Y-59126381D02*
X35321809Y-58126381D01*
X35226571Y-58269238D01*
X35131333Y-58364476D01*
X35036095Y-58412095D01*
X58507334Y-44681143D02*
X58459715Y-44728762D01*
X58316858Y-44776381D01*
X58221620Y-44776381D01*
X58078762Y-44728762D01*
X57983524Y-44633524D01*
X57935905Y-44538286D01*
X57888286Y-44347810D01*
X57888286Y-44204952D01*
X57935905Y-44014476D01*
X57983524Y-43919238D01*
X58078762Y-43824000D01*
X58221620Y-43776381D01*
X58316858Y-43776381D01*
X58459715Y-43824000D01*
X58507334Y-43871619D01*
X58983524Y-44776381D02*
X59174000Y-44776381D01*
X59269239Y-44728762D01*
X59316858Y-44681143D01*
X59412096Y-44538286D01*
X59459715Y-44347810D01*
X59459715Y-43966857D01*
X59412096Y-43871619D01*
X59364477Y-43824000D01*
X59269239Y-43776381D01*
X59078762Y-43776381D01*
X58983524Y-43824000D01*
X58935905Y-43871619D01*
X58888286Y-43966857D01*
X58888286Y-44204952D01*
X58935905Y-44300190D01*
X58983524Y-44347810D01*
X59078762Y-44395429D01*
X59269239Y-44395429D01*
X59364477Y-44347810D01*
X59412096Y-44300190D01*
X59459715Y-44204952D01*
M02*
