G04 #@! TF.FileFunction,Copper,L2,Bot,Signal*
%FSLAX46Y46*%
G04 Gerber Fmt 4.6, Leading zero omitted, Abs format (unit mm)*
G04 Created by KiCad (PCBNEW 4.0.7) date 03/02/18 13:50:20*
%MOMM*%
%LPD*%
G01*
G04 APERTURE LIST*
%ADD10C,0.100000*%
%ADD11C,2.999740*%
%ADD12C,2.499360*%
%ADD13R,1.600000X1.600000*%
%ADD14C,1.600000*%
%ADD15R,1.399540X1.300480*%
%ADD16C,2.500000*%
%ADD17R,1.998980X1.524000*%
%ADD18O,1.998980X1.524000*%
%ADD19R,1.524000X2.199640*%
%ADD20O,1.524000X2.199640*%
%ADD21C,5.001260*%
%ADD22O,1.998980X1.501140*%
%ADD23R,1.000760X0.599440*%
%ADD24R,0.599440X1.000760*%
%ADD25R,1.300480X1.498600*%
%ADD26R,1.498600X1.300480*%
%ADD27C,2.200000*%
%ADD28C,2.600000*%
%ADD29C,2.800000*%
%ADD30C,2.000000*%
%ADD31R,1.200000X1.200000*%
%ADD32C,1.200000*%
%ADD33O,2.199640X1.501140*%
%ADD34C,1.500000*%
%ADD35C,0.500000*%
%ADD36C,0.300000*%
%ADD37C,0.254000*%
G04 APERTURE END LIST*
D10*
D11*
X78000000Y-18000000D03*
X28000000Y-18000000D03*
X28000000Y-89000000D03*
D12*
X52578000Y-38049200D03*
X47498000Y-38049200D03*
X50038000Y-40589200D03*
D13*
X37945000Y-33020000D03*
D14*
X34445000Y-33020000D03*
D15*
X68834000Y-59509660D03*
X68834000Y-62410340D03*
X69088000Y-78305660D03*
X69088000Y-81206340D03*
D16*
X39076000Y-20066000D03*
X34076000Y-20066000D03*
D17*
X26410920Y-81788000D03*
D18*
X23373080Y-81788000D03*
X26410920Y-79248000D03*
X23373080Y-79248000D03*
X26410920Y-76708000D03*
X23373080Y-76708000D03*
D19*
X26162000Y-85344000D03*
D20*
X23622000Y-85344000D03*
D21*
X67564000Y-24081740D03*
D22*
X66045080Y-36576000D03*
X66045080Y-33804860D03*
X66045080Y-31036260D03*
X66045080Y-39347140D03*
X66045080Y-42115740D03*
X69082920Y-40731440D03*
X69082920Y-37960300D03*
X69082920Y-35191700D03*
X69082920Y-32420560D03*
D21*
X67564000Y-49070260D03*
D16*
X55666000Y-86995000D03*
X60666000Y-86995000D03*
X44998000Y-86995000D03*
X49998000Y-86995000D03*
X34330000Y-86995000D03*
X39330000Y-86995000D03*
D23*
X62697360Y-69278500D03*
X64810640Y-68326000D03*
X62697360Y-67373500D03*
D24*
X62293500Y-81493360D03*
X63246000Y-83606640D03*
X64198500Y-81493360D03*
D25*
X60388500Y-69342000D03*
X58483500Y-69342000D03*
X62166500Y-78994000D03*
X60261500Y-78994000D03*
X65214500Y-64770000D03*
X63309500Y-64770000D03*
D26*
X71882000Y-81216500D03*
X71882000Y-79311500D03*
D27*
X67560000Y-67214000D03*
D28*
X79760000Y-67214000D03*
X79760000Y-55214000D03*
D27*
X67560000Y-55214000D03*
D29*
X65560000Y-61214000D03*
D27*
X67560000Y-84232000D03*
D28*
X79760000Y-84232000D03*
X79760000Y-72232000D03*
D27*
X67560000Y-72232000D03*
D29*
X65560000Y-78232000D03*
D30*
X24241000Y-19999000D03*
X22241000Y-27499000D03*
D31*
X59944000Y-60186000D03*
D32*
X59944000Y-58686000D03*
D31*
X59944000Y-54852000D03*
D32*
X59944000Y-53352000D03*
D31*
X52324000Y-62242000D03*
D32*
X52324000Y-63742000D03*
D31*
X60694000Y-48768000D03*
D32*
X59194000Y-48768000D03*
D11*
X78000000Y-89000000D03*
D33*
X30988000Y-42164000D03*
X30988000Y-44704000D03*
X30988000Y-47244000D03*
X30988000Y-49784000D03*
X30988000Y-52324000D03*
X30988000Y-54864000D03*
X30988000Y-57404000D03*
X30988000Y-59944000D03*
X30988000Y-62484000D03*
X30988000Y-65024000D03*
X30988000Y-67564000D03*
X30988000Y-70104000D03*
X30988000Y-72644000D03*
X30988000Y-75184000D03*
X38608000Y-75184000D03*
X38608000Y-72644000D03*
X38608000Y-70104000D03*
X38608000Y-67564000D03*
X38608000Y-65024000D03*
X38608000Y-62484000D03*
X38608000Y-59944000D03*
X38608000Y-57404000D03*
X38608000Y-54864000D03*
X38608000Y-52324000D03*
X38608000Y-49784000D03*
X38608000Y-47244000D03*
X38608000Y-44704000D03*
X38608000Y-42164000D03*
D13*
X58674000Y-38374000D03*
D14*
X58674000Y-40874000D03*
D34*
X42418000Y-37846000D03*
X28702000Y-77724000D03*
X23876000Y-51562000D03*
X56134000Y-69342000D03*
X58166000Y-78994000D03*
D35*
X63309500Y-64770000D02*
X61976000Y-64770000D01*
X66452000Y-55214000D02*
X67560000Y-55214000D01*
X62992000Y-58674000D02*
X66452000Y-55214000D01*
X62992000Y-60706000D02*
X62992000Y-58674000D01*
X61468000Y-62230000D02*
X62992000Y-60706000D01*
X61468000Y-64262000D02*
X61468000Y-62230000D01*
X61976000Y-64770000D02*
X61468000Y-64262000D01*
X71882000Y-79311500D02*
X71882000Y-78305660D01*
X69088000Y-78305660D02*
X71882000Y-78305660D01*
X71882000Y-78305660D02*
X81206340Y-78305660D01*
X79502000Y-62484000D02*
X70866000Y-62484000D01*
X84582000Y-67564000D02*
X79502000Y-62484000D01*
X84582000Y-74930000D02*
X84582000Y-67564000D01*
X81206340Y-78305660D02*
X84582000Y-74930000D01*
X68834000Y-59509660D02*
X70431660Y-59509660D01*
X69500000Y-72232000D02*
X70866000Y-70866000D01*
X69500000Y-72232000D02*
X67560000Y-72232000D01*
X70866000Y-59944000D02*
X70866000Y-62484000D01*
X70866000Y-62484000D02*
X70866000Y-70866000D01*
X70431660Y-59509660D02*
X70866000Y-59944000D01*
X67560000Y-55214000D02*
X67560000Y-56638000D01*
X68834000Y-57912000D02*
X68834000Y-59509660D01*
X67560000Y-56638000D02*
X68834000Y-57912000D01*
X58674000Y-38374000D02*
X57638000Y-38374000D01*
X63908000Y-51562000D02*
X67560000Y-55214000D01*
X58166000Y-51562000D02*
X63908000Y-51562000D01*
X55626000Y-49022000D02*
X58166000Y-51562000D01*
X55626000Y-40386000D02*
X55626000Y-49022000D01*
X57638000Y-38374000D02*
X55626000Y-40386000D01*
X42418000Y-37846000D02*
X42418000Y-34544000D01*
X52578000Y-38049200D02*
X52578000Y-36576000D01*
X52578000Y-36576000D02*
X50546000Y-34544000D01*
X50546000Y-34544000D02*
X42418000Y-34544000D01*
X32766000Y-57404000D02*
X30988000Y-57404000D01*
X42418000Y-34544000D02*
X40640000Y-34544000D01*
X40640000Y-34544000D02*
X34544000Y-40640000D01*
X34544000Y-40640000D02*
X34544000Y-55626000D01*
X34544000Y-55626000D02*
X32766000Y-57404000D01*
X66294000Y-42115740D02*
X59915740Y-42115740D01*
X59915740Y-42115740D02*
X58674000Y-40874000D01*
X30988000Y-59944000D02*
X33274000Y-59944000D01*
X35814000Y-57404000D02*
X38608000Y-57404000D01*
X33274000Y-59944000D02*
X35814000Y-57404000D01*
X52324000Y-63742000D02*
X48756000Y-63742000D01*
X42418000Y-57404000D02*
X38608000Y-57404000D01*
X48756000Y-63742000D02*
X42418000Y-57404000D01*
X60694000Y-48768000D02*
X62230000Y-48768000D01*
X66294000Y-44704000D02*
X66294000Y-42115740D01*
X62230000Y-48768000D02*
X66294000Y-44704000D01*
X34445000Y-33020000D02*
X34445000Y-20435000D01*
X34445000Y-20435000D02*
X34076000Y-20066000D01*
D36*
X26162000Y-81788000D02*
X35814000Y-81788000D01*
X40640000Y-67564000D02*
X38608000Y-67564000D01*
X41910000Y-68834000D02*
X40640000Y-67564000D01*
X41910000Y-75692000D02*
X41910000Y-68834000D01*
X35814000Y-81788000D02*
X41910000Y-75692000D01*
X26162000Y-79248000D02*
X32512000Y-79248000D01*
X36830000Y-65024000D02*
X38608000Y-65024000D01*
X34544000Y-67310000D02*
X36830000Y-65024000D01*
X34544000Y-77216000D02*
X34544000Y-67310000D01*
X32512000Y-79248000D02*
X34544000Y-77216000D01*
X23622000Y-79248000D02*
X24892000Y-80518000D01*
X37338000Y-70104000D02*
X38608000Y-70104000D01*
X35814000Y-71628000D02*
X37338000Y-70104000D01*
X35814000Y-78486000D02*
X35814000Y-71628000D01*
X33782000Y-80518000D02*
X35814000Y-78486000D01*
X24892000Y-80518000D02*
X33782000Y-80518000D01*
X26162000Y-76708000D02*
X26162000Y-45212000D01*
X29210000Y-42164000D02*
X30988000Y-42164000D01*
X26162000Y-45212000D02*
X29210000Y-42164000D01*
X36322000Y-46482000D02*
X38100000Y-44704000D01*
X36322000Y-55372000D02*
X36322000Y-46482000D01*
X33020000Y-58674000D02*
X36322000Y-55372000D01*
X29718000Y-58674000D02*
X33020000Y-58674000D01*
X28702000Y-59690000D02*
X29718000Y-58674000D01*
X28702000Y-77724000D02*
X28702000Y-59690000D01*
X38100000Y-44704000D02*
X38608000Y-44704000D01*
X22098000Y-85344000D02*
X23622000Y-85344000D01*
X20828000Y-84074000D02*
X22098000Y-85344000D01*
X20828000Y-54610000D02*
X20828000Y-84074000D01*
X23876000Y-51562000D02*
X20828000Y-54610000D01*
D35*
X44998000Y-86995000D02*
X44998000Y-84288000D01*
X82804000Y-70258000D02*
X79760000Y-67214000D01*
X82804000Y-73914000D02*
X82804000Y-70258000D01*
X80772000Y-75946000D02*
X82804000Y-73914000D01*
X53340000Y-75946000D02*
X80772000Y-75946000D01*
X44998000Y-84288000D02*
X53340000Y-75946000D01*
X49998000Y-86995000D02*
X49998000Y-87082000D01*
X49998000Y-87082000D02*
X53594000Y-90678000D01*
X53594000Y-90678000D02*
X73314000Y-90678000D01*
X73314000Y-90678000D02*
X79760000Y-84232000D01*
X79760000Y-72232000D02*
X75342000Y-72232000D01*
X39330000Y-82082000D02*
X39330000Y-86995000D01*
X46990000Y-74422000D02*
X39330000Y-82082000D01*
X73152000Y-74422000D02*
X46990000Y-74422000D01*
X75342000Y-72232000D02*
X73152000Y-74422000D01*
D36*
X62697360Y-69278500D02*
X60452000Y-69278500D01*
X60452000Y-69278500D02*
X60388500Y-69342000D01*
X62293500Y-81493360D02*
X62293500Y-79121000D01*
X62293500Y-79121000D02*
X62166500Y-78994000D01*
X38608000Y-49784000D02*
X44196000Y-49784000D01*
X56134000Y-61722000D02*
X56134000Y-69342000D01*
X44196000Y-49784000D02*
X56134000Y-61722000D01*
X60261500Y-78994000D02*
X58166000Y-78994000D01*
X56134000Y-69342000D02*
X58483500Y-69342000D01*
X65214500Y-64770000D02*
X65214500Y-64868500D01*
X65214500Y-64868500D02*
X67560000Y-67214000D01*
X64810640Y-68326000D02*
X66448000Y-68326000D01*
X66448000Y-68326000D02*
X67560000Y-67214000D01*
X68834000Y-62410340D02*
X68834000Y-65940000D01*
X68834000Y-65940000D02*
X67560000Y-67214000D01*
X67560000Y-84232000D02*
X65182000Y-84232000D01*
X64556640Y-83606640D02*
X63246000Y-83606640D01*
X65182000Y-84232000D02*
X64556640Y-83606640D01*
X71882000Y-81216500D02*
X71871840Y-81206340D01*
X71871840Y-81206340D02*
X69088000Y-81206340D01*
X69088000Y-81206340D02*
X69088000Y-82704000D01*
X69088000Y-82704000D02*
X67560000Y-84232000D01*
D37*
G36*
X85290000Y-67061247D02*
X85207790Y-66938210D01*
X85207787Y-66938208D01*
X80127790Y-61858210D01*
X79980957Y-61760100D01*
X79840675Y-61666367D01*
X79784484Y-61655190D01*
X79502000Y-61598999D01*
X79501995Y-61599000D01*
X71751000Y-61599000D01*
X71751000Y-59944005D01*
X71751001Y-59944000D01*
X71683634Y-59605326D01*
X71555637Y-59413765D01*
X71491790Y-59318210D01*
X71491787Y-59318208D01*
X71057450Y-58883870D01*
X71020858Y-58859420D01*
X70770335Y-58692027D01*
X70679708Y-58674000D01*
X70431660Y-58624659D01*
X70431655Y-58624660D01*
X70137037Y-58624660D01*
X70136932Y-58624103D01*
X69997860Y-58407979D01*
X69785660Y-58262989D01*
X69719000Y-58249490D01*
X69719000Y-57912005D01*
X69719001Y-57912000D01*
X69651633Y-57573325D01*
X69459790Y-57286210D01*
X69459787Y-57286208D01*
X68700545Y-56526966D01*
X69030004Y-56198082D01*
X69279509Y-55597207D01*
X77824665Y-55597207D01*
X78118630Y-56308658D01*
X78662479Y-56853457D01*
X79373416Y-57148663D01*
X80143207Y-57149335D01*
X80854658Y-56855370D01*
X81399457Y-56311521D01*
X81694663Y-55600584D01*
X81695335Y-54830793D01*
X81401370Y-54119342D01*
X80857521Y-53574543D01*
X80146584Y-53279337D01*
X79376793Y-53278665D01*
X78665342Y-53572630D01*
X78120543Y-54116479D01*
X77825337Y-54827416D01*
X77824665Y-55597207D01*
X69279509Y-55597207D01*
X69294699Y-55560627D01*
X69295301Y-54870401D01*
X69031719Y-54232485D01*
X68544082Y-53743996D01*
X67906627Y-53479301D01*
X67216401Y-53478699D01*
X67117248Y-53519668D01*
X64533790Y-50936210D01*
X64246675Y-50744367D01*
X64190484Y-50733190D01*
X63908000Y-50676999D01*
X63907995Y-50677000D01*
X58532579Y-50677000D01*
X56868159Y-49012579D01*
X57958786Y-49012579D01*
X58146408Y-49466657D01*
X58493515Y-49814371D01*
X58947266Y-50002785D01*
X59438579Y-50003214D01*
X59716396Y-49888422D01*
X59734301Y-49906327D01*
X59967690Y-50003000D01*
X60408250Y-50003000D01*
X60567000Y-49844250D01*
X60567000Y-48895000D01*
X60821000Y-48895000D01*
X60821000Y-49844250D01*
X60979750Y-50003000D01*
X61420310Y-50003000D01*
X61653699Y-49906327D01*
X61832327Y-49727698D01*
X61847428Y-49691239D01*
X64427827Y-49691239D01*
X64904192Y-50844131D01*
X65785489Y-51726968D01*
X66937548Y-52205345D01*
X68184979Y-52206433D01*
X69337871Y-51730068D01*
X70220708Y-50848771D01*
X70699085Y-49696712D01*
X70700173Y-48449281D01*
X70223808Y-47296389D01*
X69342511Y-46413552D01*
X68190452Y-45935175D01*
X66943021Y-45934087D01*
X65790129Y-46410452D01*
X64907292Y-47291749D01*
X64428915Y-48443808D01*
X64427827Y-49691239D01*
X61847428Y-49691239D01*
X61929000Y-49494309D01*
X61929000Y-49053750D01*
X61770250Y-48895000D01*
X60821000Y-48895000D01*
X60567000Y-48895000D01*
X60547000Y-48895000D01*
X60547000Y-48641000D01*
X60567000Y-48641000D01*
X60567000Y-47691750D01*
X60821000Y-47691750D01*
X60821000Y-48641000D01*
X61770250Y-48641000D01*
X61929000Y-48482250D01*
X61929000Y-48041691D01*
X61832327Y-47808302D01*
X61653699Y-47629673D01*
X61420310Y-47533000D01*
X60979750Y-47533000D01*
X60821000Y-47691750D01*
X60567000Y-47691750D01*
X60408250Y-47533000D01*
X59967690Y-47533000D01*
X59734301Y-47629673D01*
X59716324Y-47647650D01*
X59440734Y-47533215D01*
X58949421Y-47532786D01*
X58495343Y-47720408D01*
X58147629Y-48067515D01*
X57959215Y-48521266D01*
X57958786Y-49012579D01*
X56868159Y-49012579D01*
X56511000Y-48655420D01*
X56511000Y-42457015D01*
X64453277Y-42457015D01*
X64471923Y-42559045D01*
X64742370Y-43032064D01*
X65173247Y-43365581D01*
X65698957Y-43508821D01*
X65918080Y-43348126D01*
X65918080Y-42242740D01*
X66172080Y-42242740D01*
X66172080Y-43348126D01*
X66391203Y-43508821D01*
X66916913Y-43365581D01*
X67347790Y-43032064D01*
X67618237Y-42559045D01*
X67636883Y-42457015D01*
X67514229Y-42242740D01*
X66172080Y-42242740D01*
X65918080Y-42242740D01*
X64575931Y-42242740D01*
X64453277Y-42457015D01*
X56511000Y-42457015D01*
X56511000Y-41881745D01*
X57845861Y-41881745D01*
X57919995Y-42127864D01*
X58457223Y-42320965D01*
X59027454Y-42293778D01*
X59428005Y-42127864D01*
X59502139Y-41881745D01*
X58674000Y-41053605D01*
X57845861Y-41881745D01*
X56511000Y-41881745D01*
X56511000Y-40752580D01*
X56606356Y-40657223D01*
X57227035Y-40657223D01*
X57254222Y-41227454D01*
X57420136Y-41628005D01*
X57666255Y-41702139D01*
X58494395Y-40874000D01*
X58853605Y-40874000D01*
X59681745Y-41702139D01*
X59927864Y-41628005D01*
X60120965Y-41090777D01*
X60093778Y-40520546D01*
X59927864Y-40119995D01*
X59681745Y-40045861D01*
X58853605Y-40874000D01*
X58494395Y-40874000D01*
X57666255Y-40045861D01*
X57420136Y-40119995D01*
X57227035Y-40657223D01*
X56606356Y-40657223D01*
X57545496Y-39718083D01*
X57622110Y-39770431D01*
X57860201Y-39818646D01*
X57845861Y-39866255D01*
X58674000Y-40694395D01*
X59502139Y-39866255D01*
X59487855Y-39818833D01*
X59709317Y-39777162D01*
X59925441Y-39638090D01*
X60070431Y-39425890D01*
X60121440Y-39174000D01*
X60121440Y-37574000D01*
X60077162Y-37338683D01*
X59938090Y-37122559D01*
X59725890Y-36977569D01*
X59474000Y-36926560D01*
X57874000Y-36926560D01*
X57638683Y-36970838D01*
X57422559Y-37109910D01*
X57277569Y-37322110D01*
X57226560Y-37574000D01*
X57226560Y-37604987D01*
X57012210Y-37748210D01*
X57012208Y-37748213D01*
X55000210Y-39760210D01*
X54808367Y-40047325D01*
X54808367Y-40047326D01*
X54740999Y-40386000D01*
X54741000Y-40386005D01*
X54741000Y-49021995D01*
X54740999Y-49022000D01*
X54782159Y-49228921D01*
X54808367Y-49360675D01*
X54897658Y-49494309D01*
X55000210Y-49647790D01*
X57540208Y-52187787D01*
X57540210Y-52187790D01*
X57716570Y-52305629D01*
X57827325Y-52379633D01*
X58166000Y-52447000D01*
X59102502Y-52447000D01*
X58897629Y-52651515D01*
X58709215Y-53105266D01*
X58708786Y-53596579D01*
X58827304Y-53883414D01*
X58747569Y-54000110D01*
X58696560Y-54252000D01*
X58696560Y-55452000D01*
X58740838Y-55687317D01*
X58879910Y-55903441D01*
X59092110Y-56048431D01*
X59344000Y-56099440D01*
X60544000Y-56099440D01*
X60779317Y-56055162D01*
X60995441Y-55916090D01*
X61140431Y-55703890D01*
X61191440Y-55452000D01*
X61191440Y-54252000D01*
X61147162Y-54016683D01*
X61060901Y-53882630D01*
X61178785Y-53598734D01*
X61179214Y-53107421D01*
X60991592Y-52653343D01*
X60785609Y-52447000D01*
X63541420Y-52447000D01*
X65754421Y-54660000D01*
X62366210Y-58048210D01*
X62174367Y-58335325D01*
X62174367Y-58335326D01*
X62106999Y-58674000D01*
X62107000Y-58674005D01*
X62107000Y-60339421D01*
X60842210Y-61604210D01*
X60650367Y-61891325D01*
X60650367Y-61891326D01*
X60582999Y-62230000D01*
X60583000Y-62230005D01*
X60583000Y-64261995D01*
X60582999Y-64262000D01*
X60616681Y-64431325D01*
X60650367Y-64600675D01*
X60763506Y-64770000D01*
X60842210Y-64887790D01*
X61350208Y-65395787D01*
X61350210Y-65395790D01*
X61637325Y-65587633D01*
X61976000Y-65655000D01*
X62037354Y-65655000D01*
X62056098Y-65754617D01*
X62195170Y-65970741D01*
X62407370Y-66115731D01*
X62659260Y-66166740D01*
X63959740Y-66166740D01*
X64195057Y-66122462D01*
X64260546Y-66080321D01*
X64312370Y-66115731D01*
X64564260Y-66166740D01*
X65402582Y-66166740D01*
X65906842Y-66671000D01*
X65825301Y-66867373D01*
X65824713Y-67541000D01*
X65725585Y-67541000D01*
X65562910Y-67429849D01*
X65311020Y-67378840D01*
X64310260Y-67378840D01*
X64074943Y-67423118D01*
X63858819Y-67562190D01*
X63808835Y-67635345D01*
X63673990Y-67500500D01*
X62824360Y-67500500D01*
X62824360Y-68149470D01*
X62983110Y-68308220D01*
X63324050Y-68308220D01*
X63557439Y-68211547D01*
X63662820Y-68106165D01*
X63662820Y-68528878D01*
X63661830Y-68527339D01*
X63449630Y-68382349D01*
X63197740Y-68331340D01*
X62196980Y-68331340D01*
X61961663Y-68375618D01*
X61778469Y-68493500D01*
X61667514Y-68493500D01*
X61641902Y-68357383D01*
X61502830Y-68141259D01*
X61290630Y-67996269D01*
X61038740Y-67945260D01*
X59738260Y-67945260D01*
X59502943Y-67989538D01*
X59437454Y-68031679D01*
X59385630Y-67996269D01*
X59133740Y-67945260D01*
X57833260Y-67945260D01*
X57597943Y-67989538D01*
X57381819Y-68128610D01*
X57236829Y-68340810D01*
X57212326Y-68461811D01*
X56919564Y-68168539D01*
X56919000Y-68168305D01*
X56919000Y-67659250D01*
X61561980Y-67659250D01*
X61561980Y-67799529D01*
X61658653Y-68032918D01*
X61837281Y-68211547D01*
X62070670Y-68308220D01*
X62411610Y-68308220D01*
X62570360Y-68149470D01*
X62570360Y-67500500D01*
X61720730Y-67500500D01*
X61561980Y-67659250D01*
X56919000Y-67659250D01*
X56919000Y-66947471D01*
X61561980Y-66947471D01*
X61561980Y-67087750D01*
X61720730Y-67246500D01*
X62570360Y-67246500D01*
X62570360Y-66597530D01*
X62824360Y-66597530D01*
X62824360Y-67246500D01*
X63673990Y-67246500D01*
X63832740Y-67087750D01*
X63832740Y-66947471D01*
X63736067Y-66714082D01*
X63557439Y-66535453D01*
X63324050Y-66438780D01*
X62983110Y-66438780D01*
X62824360Y-66597530D01*
X62570360Y-66597530D01*
X62411610Y-66438780D01*
X62070670Y-66438780D01*
X61837281Y-66535453D01*
X61658653Y-66714082D01*
X61561980Y-66947471D01*
X56919000Y-66947471D01*
X56919000Y-61722005D01*
X56919001Y-61722000D01*
X56859245Y-61421594D01*
X56797757Y-61329570D01*
X56689079Y-61166921D01*
X56689076Y-61166919D01*
X55108158Y-59586000D01*
X58696560Y-59586000D01*
X58696560Y-60786000D01*
X58740838Y-61021317D01*
X58879910Y-61237441D01*
X59092110Y-61382431D01*
X59344000Y-61433440D01*
X60544000Y-61433440D01*
X60779317Y-61389162D01*
X60995441Y-61250090D01*
X61140431Y-61037890D01*
X61191440Y-60786000D01*
X61191440Y-59586000D01*
X61147162Y-59350683D01*
X61060901Y-59216630D01*
X61178785Y-58932734D01*
X61179214Y-58441421D01*
X60991592Y-57987343D01*
X60644485Y-57639629D01*
X60190734Y-57451215D01*
X59699421Y-57450786D01*
X59245343Y-57638408D01*
X58897629Y-57985515D01*
X58709215Y-58439266D01*
X58708786Y-58930579D01*
X58827304Y-59217414D01*
X58747569Y-59334110D01*
X58696560Y-59586000D01*
X55108158Y-59586000D01*
X44751079Y-49228921D01*
X44496407Y-49058755D01*
X44196000Y-48999000D01*
X40101108Y-48999000D01*
X39970983Y-48804254D01*
X39536588Y-48514000D01*
X39970983Y-48223746D01*
X40271337Y-47774235D01*
X40376807Y-47244000D01*
X40271337Y-46713765D01*
X39970983Y-46264254D01*
X39536588Y-45974000D01*
X39970983Y-45683746D01*
X40271337Y-45234235D01*
X40376807Y-44704000D01*
X40271337Y-44173765D01*
X39970983Y-43724254D01*
X39536588Y-43434000D01*
X39970983Y-43143746D01*
X40271337Y-42694235D01*
X40376807Y-42164000D01*
X40328728Y-41922289D01*
X48884517Y-41922289D01*
X49013725Y-42215059D01*
X49713883Y-42483271D01*
X50463384Y-42463128D01*
X51062275Y-42215059D01*
X51191483Y-41922289D01*
X50038000Y-40768805D01*
X48884517Y-41922289D01*
X40328728Y-41922289D01*
X40271337Y-41633765D01*
X39970983Y-41184254D01*
X39521472Y-40883900D01*
X38991237Y-40778430D01*
X38224763Y-40778430D01*
X37694528Y-40883900D01*
X37245017Y-41184254D01*
X36944663Y-41633765D01*
X36839193Y-42164000D01*
X36944663Y-42694235D01*
X37245017Y-43143746D01*
X37679412Y-43434000D01*
X37245017Y-43724254D01*
X36944663Y-44173765D01*
X36839193Y-44704000D01*
X36864187Y-44829655D01*
X35766921Y-45926921D01*
X35596755Y-46181593D01*
X35596755Y-46181594D01*
X35537000Y-46482000D01*
X35537000Y-55046842D01*
X35429000Y-55154842D01*
X35429000Y-41006580D01*
X41006579Y-35429000D01*
X41533000Y-35429000D01*
X41533000Y-36772477D01*
X41244539Y-37060436D01*
X41033241Y-37569298D01*
X41032760Y-38120285D01*
X41243169Y-38629515D01*
X41632436Y-39019461D01*
X42141298Y-39230759D01*
X42692285Y-39231240D01*
X43201515Y-39020831D01*
X43591461Y-38631564D01*
X43802759Y-38122702D01*
X43803240Y-37571715D01*
X43592831Y-37062485D01*
X43303000Y-36772148D01*
X43303000Y-35429000D01*
X50179420Y-35429000D01*
X51356236Y-36605816D01*
X50981178Y-36980221D01*
X50693648Y-37672669D01*
X50692994Y-38422441D01*
X50889074Y-38896992D01*
X50362117Y-38695129D01*
X49612616Y-38715272D01*
X49189318Y-38890608D01*
X49382352Y-38425731D01*
X49383006Y-37675959D01*
X49096686Y-36983009D01*
X48566979Y-36452378D01*
X47874531Y-36164848D01*
X47124759Y-36164194D01*
X46431809Y-36450514D01*
X45901178Y-36980221D01*
X45613648Y-37672669D01*
X45612994Y-38422441D01*
X45899314Y-39115391D01*
X46429021Y-39646022D01*
X47121469Y-39933552D01*
X47871241Y-39934206D01*
X48345792Y-39738126D01*
X48143929Y-40265083D01*
X48164072Y-41014584D01*
X48412141Y-41613475D01*
X48704911Y-41742683D01*
X49858395Y-40589200D01*
X49844252Y-40575058D01*
X50023858Y-40395452D01*
X50038000Y-40409595D01*
X50052142Y-40395452D01*
X50231748Y-40575058D01*
X50217605Y-40589200D01*
X51371089Y-41742683D01*
X51663859Y-41613475D01*
X51932071Y-40913317D01*
X51911928Y-40163816D01*
X51736592Y-39740518D01*
X52201469Y-39933552D01*
X52951241Y-39934206D01*
X53644191Y-39647886D01*
X54174822Y-39118179D01*
X54462352Y-38425731D01*
X54463006Y-37675959D01*
X54176686Y-36983009D01*
X53646979Y-36452378D01*
X53419632Y-36357975D01*
X53395633Y-36237326D01*
X53395633Y-36237325D01*
X53203790Y-35950210D01*
X53203787Y-35950208D01*
X51171790Y-33918210D01*
X51161897Y-33911600D01*
X50884675Y-33726367D01*
X50828484Y-33715190D01*
X50546000Y-33658999D01*
X50545995Y-33659000D01*
X40640005Y-33659000D01*
X40640000Y-33658999D01*
X40357516Y-33715190D01*
X40301325Y-33726367D01*
X40014210Y-33918210D01*
X40014208Y-33918213D01*
X33918210Y-40014210D01*
X33726367Y-40301325D01*
X33726367Y-40301326D01*
X33658999Y-40640000D01*
X33659000Y-40640005D01*
X33659000Y-55259421D01*
X32408334Y-56510086D01*
X32350983Y-56424254D01*
X31916588Y-56134000D01*
X32350983Y-55843746D01*
X32651337Y-55394235D01*
X32756807Y-54864000D01*
X32651337Y-54333765D01*
X32350983Y-53884254D01*
X31916588Y-53594000D01*
X32350983Y-53303746D01*
X32651337Y-52854235D01*
X32756807Y-52324000D01*
X32651337Y-51793765D01*
X32350983Y-51344254D01*
X31916588Y-51054000D01*
X32350983Y-50763746D01*
X32651337Y-50314235D01*
X32756807Y-49784000D01*
X32651337Y-49253765D01*
X32350983Y-48804254D01*
X31916588Y-48514000D01*
X32350983Y-48223746D01*
X32651337Y-47774235D01*
X32756807Y-47244000D01*
X32651337Y-46713765D01*
X32350983Y-46264254D01*
X31916588Y-45974000D01*
X32350983Y-45683746D01*
X32651337Y-45234235D01*
X32756807Y-44704000D01*
X32651337Y-44173765D01*
X32350983Y-43724254D01*
X31916588Y-43434000D01*
X32350983Y-43143746D01*
X32651337Y-42694235D01*
X32756807Y-42164000D01*
X32651337Y-41633765D01*
X32350983Y-41184254D01*
X31901472Y-40883900D01*
X31371237Y-40778430D01*
X30604763Y-40778430D01*
X30074528Y-40883900D01*
X29625017Y-41184254D01*
X29494892Y-41379000D01*
X29210000Y-41379000D01*
X28909594Y-41438755D01*
X28654921Y-41608921D01*
X25606921Y-44656921D01*
X25436755Y-44911593D01*
X25436755Y-44911594D01*
X25377000Y-45212000D01*
X25377000Y-75570887D01*
X25153580Y-75720172D01*
X24873238Y-76139733D01*
X24679870Y-75794535D01*
X24248907Y-75454865D01*
X23720762Y-75305973D01*
X23500080Y-75464746D01*
X23500080Y-76581000D01*
X23520080Y-76581000D01*
X23520080Y-76835000D01*
X23500080Y-76835000D01*
X23500080Y-76855000D01*
X23246080Y-76855000D01*
X23246080Y-76835000D01*
X21903870Y-76835000D01*
X21781370Y-77051070D01*
X21798118Y-77142728D01*
X22066290Y-77621465D01*
X22497253Y-77961135D01*
X22543688Y-77974226D01*
X22115740Y-78260172D01*
X21812908Y-78713391D01*
X21706568Y-79248000D01*
X21812908Y-79782609D01*
X22115740Y-80235828D01*
X22538039Y-80518000D01*
X22115740Y-80800172D01*
X21812908Y-81253391D01*
X21706568Y-81788000D01*
X21812908Y-82322609D01*
X22115740Y-82775828D01*
X22568959Y-83078660D01*
X23103568Y-83185000D01*
X23642592Y-83185000D01*
X24177201Y-83078660D01*
X24630420Y-82775828D01*
X24767797Y-82570230D01*
X24808268Y-82785317D01*
X24947340Y-83001441D01*
X25159540Y-83146431D01*
X25411430Y-83197440D01*
X27410410Y-83197440D01*
X27645727Y-83153162D01*
X27861851Y-83014090D01*
X28006841Y-82801890D01*
X28053192Y-82573000D01*
X35814000Y-82573000D01*
X36114407Y-82513245D01*
X36369079Y-82343079D01*
X42465079Y-76247079D01*
X42635245Y-75992406D01*
X42695000Y-75692000D01*
X42695000Y-68834000D01*
X42673004Y-68723421D01*
X42635245Y-68533593D01*
X42465079Y-68278921D01*
X41195079Y-67008921D01*
X40940407Y-66838755D01*
X40640000Y-66779000D01*
X40101108Y-66779000D01*
X39970983Y-66584254D01*
X39536588Y-66294000D01*
X39970983Y-66003746D01*
X40271337Y-65554235D01*
X40376807Y-65024000D01*
X40293411Y-64604735D01*
X51640870Y-64604735D01*
X51690383Y-64830164D01*
X52155036Y-64989807D01*
X52645413Y-64959482D01*
X52957617Y-64830164D01*
X53007130Y-64604735D01*
X52324000Y-63921605D01*
X51640870Y-64604735D01*
X40293411Y-64604735D01*
X40271337Y-64493765D01*
X39970983Y-64044254D01*
X39536588Y-63754000D01*
X39807419Y-63573036D01*
X51076193Y-63573036D01*
X51106518Y-64063413D01*
X51235836Y-64375617D01*
X51461265Y-64425130D01*
X52144395Y-63742000D01*
X52130253Y-63727858D01*
X52309858Y-63548253D01*
X52324000Y-63562395D01*
X52338143Y-63548253D01*
X52517748Y-63727858D01*
X52503605Y-63742000D01*
X53186735Y-64425130D01*
X53412164Y-64375617D01*
X53571807Y-63910964D01*
X53541482Y-63420587D01*
X53449289Y-63198010D01*
X53520431Y-63093890D01*
X53571440Y-62842000D01*
X53571440Y-61642000D01*
X53527162Y-61406683D01*
X53388090Y-61190559D01*
X53175890Y-61045569D01*
X52924000Y-60994560D01*
X51724000Y-60994560D01*
X51488683Y-61038838D01*
X51272559Y-61177910D01*
X51127569Y-61390110D01*
X51076560Y-61642000D01*
X51076560Y-62842000D01*
X51120838Y-63077317D01*
X51202766Y-63204636D01*
X51076193Y-63573036D01*
X39807419Y-63573036D01*
X39970983Y-63463746D01*
X40271337Y-63014235D01*
X40376807Y-62484000D01*
X40271337Y-61953765D01*
X39970983Y-61504254D01*
X39536588Y-61214000D01*
X39970983Y-60923746D01*
X40271337Y-60474235D01*
X40376807Y-59944000D01*
X40271337Y-59413765D01*
X39970983Y-58964254D01*
X39521472Y-58663900D01*
X39513928Y-58662399D01*
X39604817Y-58635499D01*
X40026798Y-58293944D01*
X40285950Y-57816903D01*
X40300133Y-57745275D01*
X40177479Y-57531000D01*
X38735000Y-57531000D01*
X38735000Y-57551000D01*
X38481000Y-57551000D01*
X38481000Y-57531000D01*
X37038521Y-57531000D01*
X36915867Y-57745275D01*
X36930050Y-57816903D01*
X37189202Y-58293944D01*
X37611183Y-58635499D01*
X37702072Y-58662399D01*
X37694528Y-58663900D01*
X37245017Y-58964254D01*
X36944663Y-59413765D01*
X36839193Y-59944000D01*
X36944663Y-60474235D01*
X37245017Y-60923746D01*
X37679412Y-61214000D01*
X37245017Y-61504254D01*
X36944663Y-61953765D01*
X36839193Y-62484000D01*
X36944663Y-63014235D01*
X37245017Y-63463746D01*
X37679412Y-63754000D01*
X37245017Y-64044254D01*
X37114892Y-64239000D01*
X36830000Y-64239000D01*
X36529593Y-64298755D01*
X36274921Y-64468921D01*
X33988921Y-66754921D01*
X33818755Y-67009593D01*
X33818755Y-67009594D01*
X33759000Y-67310000D01*
X33759000Y-76890842D01*
X32186842Y-78463000D01*
X29894796Y-78463000D01*
X30086759Y-78000702D01*
X30087240Y-77449715D01*
X29876831Y-76940485D01*
X29487564Y-76550539D01*
X29487000Y-76550305D01*
X29487000Y-75957189D01*
X29625017Y-76163746D01*
X30074528Y-76464100D01*
X30604763Y-76569570D01*
X31371237Y-76569570D01*
X31901472Y-76464100D01*
X32350983Y-76163746D01*
X32651337Y-75714235D01*
X32756807Y-75184000D01*
X32651337Y-74653765D01*
X32350983Y-74204254D01*
X31916588Y-73914000D01*
X32350983Y-73623746D01*
X32651337Y-73174235D01*
X32756807Y-72644000D01*
X32651337Y-72113765D01*
X32350983Y-71664254D01*
X31916588Y-71374000D01*
X32350983Y-71083746D01*
X32651337Y-70634235D01*
X32756807Y-70104000D01*
X32651337Y-69573765D01*
X32350983Y-69124254D01*
X31916588Y-68834000D01*
X32350983Y-68543746D01*
X32651337Y-68094235D01*
X32756807Y-67564000D01*
X32651337Y-67033765D01*
X32350983Y-66584254D01*
X31916588Y-66294000D01*
X32350983Y-66003746D01*
X32651337Y-65554235D01*
X32756807Y-65024000D01*
X32651337Y-64493765D01*
X32350983Y-64044254D01*
X31916588Y-63754000D01*
X32350983Y-63463746D01*
X32651337Y-63014235D01*
X32756807Y-62484000D01*
X32651337Y-61953765D01*
X32350983Y-61504254D01*
X31901472Y-61203900D01*
X31893928Y-61202399D01*
X31984817Y-61175499D01*
X32406798Y-60833944D01*
X32665950Y-60356903D01*
X32680133Y-60285275D01*
X32557479Y-60071000D01*
X31115000Y-60071000D01*
X31115000Y-60091000D01*
X30861000Y-60091000D01*
X30861000Y-60071000D01*
X30841000Y-60071000D01*
X30841000Y-59817000D01*
X30861000Y-59817000D01*
X30861000Y-59797000D01*
X31115000Y-59797000D01*
X31115000Y-59817000D01*
X32557479Y-59817000D01*
X32680133Y-59602725D01*
X32665950Y-59531097D01*
X32626783Y-59459000D01*
X33020000Y-59459000D01*
X33320407Y-59399245D01*
X33575079Y-59229079D01*
X36877079Y-55927079D01*
X37047245Y-55672407D01*
X37066351Y-55576354D01*
X37245017Y-55843746D01*
X37694528Y-56144100D01*
X37702072Y-56145601D01*
X37611183Y-56172501D01*
X37189202Y-56514056D01*
X36930050Y-56991097D01*
X36915867Y-57062725D01*
X37038521Y-57277000D01*
X38481000Y-57277000D01*
X38481000Y-57257000D01*
X38735000Y-57257000D01*
X38735000Y-57277000D01*
X40177479Y-57277000D01*
X40300133Y-57062725D01*
X40285950Y-56991097D01*
X40026798Y-56514056D01*
X39604817Y-56172501D01*
X39513928Y-56145601D01*
X39521472Y-56144100D01*
X39970983Y-55843746D01*
X40271337Y-55394235D01*
X40376807Y-54864000D01*
X40271337Y-54333765D01*
X39970983Y-53884254D01*
X39536588Y-53594000D01*
X39970983Y-53303746D01*
X40271337Y-52854235D01*
X40376807Y-52324000D01*
X40271337Y-51793765D01*
X39970983Y-51344254D01*
X39536588Y-51054000D01*
X39970983Y-50763746D01*
X40101108Y-50569000D01*
X43870842Y-50569000D01*
X55349000Y-62047157D01*
X55349000Y-68168651D01*
X54960539Y-68556436D01*
X54749241Y-69065298D01*
X54748760Y-69616285D01*
X54959169Y-70125515D01*
X55348436Y-70515461D01*
X55857298Y-70726759D01*
X56408285Y-70727240D01*
X56917515Y-70516831D01*
X57210800Y-70224057D01*
X57230098Y-70326617D01*
X57369170Y-70542741D01*
X57581370Y-70687731D01*
X57833260Y-70738740D01*
X59133740Y-70738740D01*
X59369057Y-70694462D01*
X59434546Y-70652321D01*
X59486370Y-70687731D01*
X59738260Y-70738740D01*
X61038740Y-70738740D01*
X61274057Y-70694462D01*
X61490181Y-70555390D01*
X61635171Y-70343190D01*
X61686180Y-70091300D01*
X61686180Y-70063500D01*
X61782415Y-70063500D01*
X61945090Y-70174651D01*
X62196980Y-70225660D01*
X63197740Y-70225660D01*
X63433057Y-70181382D01*
X63649181Y-70042310D01*
X63794171Y-69830110D01*
X63845180Y-69578220D01*
X63845180Y-69075622D01*
X63846170Y-69077161D01*
X64058370Y-69222151D01*
X64310260Y-69273160D01*
X65311020Y-69273160D01*
X65546337Y-69228882D01*
X65729531Y-69111000D01*
X66448000Y-69111000D01*
X66748407Y-69051245D01*
X67003079Y-68881079D01*
X67017000Y-68867158D01*
X67213373Y-68948699D01*
X67903599Y-68949301D01*
X68541515Y-68685719D01*
X69030004Y-68198082D01*
X69294699Y-67560627D01*
X69295301Y-66870401D01*
X69212983Y-66671175D01*
X69389079Y-66495079D01*
X69559245Y-66240407D01*
X69619000Y-65940000D01*
X69619000Y-63691983D01*
X69769087Y-63663742D01*
X69981000Y-63527380D01*
X69981000Y-70499421D01*
X69133420Y-71347000D01*
X69071598Y-71347000D01*
X69031719Y-71250485D01*
X68544082Y-70761996D01*
X67906627Y-70497301D01*
X67216401Y-70496699D01*
X66578485Y-70760281D01*
X66089996Y-71247918D01*
X65825301Y-71885373D01*
X65824699Y-72575599D01*
X66088281Y-73213515D01*
X66411202Y-73537000D01*
X46990005Y-73537000D01*
X46990000Y-73536999D01*
X46707516Y-73593190D01*
X46651325Y-73604367D01*
X46364210Y-73796210D01*
X46364208Y-73796213D01*
X38704210Y-81456210D01*
X38512367Y-81743325D01*
X38512367Y-81743326D01*
X38444999Y-82082000D01*
X38445000Y-82082005D01*
X38445000Y-85321102D01*
X38263628Y-85396043D01*
X37732907Y-85925839D01*
X37445328Y-86618405D01*
X37444674Y-87368305D01*
X37731043Y-88061372D01*
X38260839Y-88592093D01*
X38953405Y-88879672D01*
X39703305Y-88880326D01*
X40396372Y-88593957D01*
X40927093Y-88064161D01*
X41214672Y-87371595D01*
X41215326Y-86621695D01*
X40928957Y-85928628D01*
X40399161Y-85397907D01*
X40215000Y-85321437D01*
X40215000Y-82448580D01*
X47356579Y-75307000D01*
X52733980Y-75307000D01*
X52714210Y-75320210D01*
X52714208Y-75320213D01*
X44372210Y-83662210D01*
X44180367Y-83949325D01*
X44180367Y-83949326D01*
X44112999Y-84288000D01*
X44113000Y-84288005D01*
X44113000Y-85321102D01*
X43931628Y-85396043D01*
X43400907Y-85925839D01*
X43113328Y-86618405D01*
X43112674Y-87368305D01*
X43399043Y-88061372D01*
X43928839Y-88592093D01*
X44621405Y-88879672D01*
X45371305Y-88880326D01*
X46064372Y-88593957D01*
X46595093Y-88064161D01*
X46882672Y-87371595D01*
X46883326Y-86621695D01*
X46596957Y-85928628D01*
X46067161Y-85397907D01*
X45883000Y-85321437D01*
X45883000Y-84654580D01*
X53706579Y-76831000D01*
X64083008Y-76831000D01*
X63835817Y-77077760D01*
X63525354Y-77825438D01*
X63524648Y-78635011D01*
X63833805Y-79383229D01*
X64405760Y-79956183D01*
X65153438Y-80266646D01*
X65963011Y-80267352D01*
X66711229Y-79958195D01*
X67284183Y-79386240D01*
X67594646Y-78638562D01*
X67595352Y-77828989D01*
X67286195Y-77080771D01*
X67036859Y-76831000D01*
X80771995Y-76831000D01*
X80772000Y-76831001D01*
X81054484Y-76774810D01*
X81110675Y-76763633D01*
X81397790Y-76571790D01*
X81397791Y-76571789D01*
X83429787Y-74539792D01*
X83429790Y-74539790D01*
X83621633Y-74252675D01*
X83666012Y-74029570D01*
X83689001Y-73914000D01*
X83689000Y-73913995D01*
X83689000Y-70258005D01*
X83689001Y-70258000D01*
X83621633Y-69919325D01*
X83606769Y-69897079D01*
X83429790Y-69632210D01*
X83429787Y-69632208D01*
X81607669Y-67810089D01*
X81694663Y-67600584D01*
X81695335Y-66830793D01*
X81401370Y-66119342D01*
X80857521Y-65574543D01*
X80146584Y-65279337D01*
X79376793Y-65278665D01*
X78665342Y-65572630D01*
X78120543Y-66116479D01*
X77825337Y-66827416D01*
X77824665Y-67597207D01*
X78118630Y-68308658D01*
X78662479Y-68853457D01*
X79373416Y-69148663D01*
X80143207Y-69149335D01*
X80355881Y-69061460D01*
X81919000Y-70624579D01*
X81919000Y-73547421D01*
X80405420Y-75061000D01*
X73758020Y-75061000D01*
X73777790Y-75047790D01*
X73777791Y-75047789D01*
X75708579Y-73117000D01*
X78032001Y-73117000D01*
X78118630Y-73326658D01*
X78662479Y-73871457D01*
X79373416Y-74166663D01*
X80143207Y-74167335D01*
X80854658Y-73873370D01*
X81399457Y-73329521D01*
X81694663Y-72618584D01*
X81695335Y-71848793D01*
X81401370Y-71137342D01*
X80857521Y-70592543D01*
X80146584Y-70297337D01*
X79376793Y-70296665D01*
X78665342Y-70590630D01*
X78120543Y-71134479D01*
X78032297Y-71347000D01*
X75342005Y-71347000D01*
X75342000Y-71346999D01*
X75059516Y-71403190D01*
X75003325Y-71414367D01*
X74716210Y-71606210D01*
X74716208Y-71606213D01*
X72785420Y-73537000D01*
X68708525Y-73537000D01*
X69030004Y-73216082D01*
X69071147Y-73117000D01*
X69499995Y-73117000D01*
X69500000Y-73117001D01*
X69782484Y-73060810D01*
X69838675Y-73049633D01*
X70125790Y-72857790D01*
X70125791Y-72857789D01*
X71491787Y-71491792D01*
X71491790Y-71491790D01*
X71683633Y-71204675D01*
X71697596Y-71134479D01*
X71751001Y-70866000D01*
X71751000Y-70865995D01*
X71751000Y-63369000D01*
X79135420Y-63369000D01*
X83697000Y-67930579D01*
X83697000Y-74563421D01*
X80839760Y-77420660D01*
X70391037Y-77420660D01*
X70390932Y-77420103D01*
X70251860Y-77203979D01*
X70039660Y-77058989D01*
X69787770Y-77007980D01*
X68388230Y-77007980D01*
X68152913Y-77052258D01*
X67936789Y-77191330D01*
X67791799Y-77403530D01*
X67740790Y-77655420D01*
X67740790Y-78955900D01*
X67785068Y-79191217D01*
X67924140Y-79407341D01*
X68136340Y-79552331D01*
X68388230Y-79603340D01*
X69787770Y-79603340D01*
X70023087Y-79559062D01*
X70239211Y-79419990D01*
X70384201Y-79207790D01*
X70387670Y-79190660D01*
X70485260Y-79190660D01*
X70485260Y-79961740D01*
X70529538Y-80197057D01*
X70571679Y-80262546D01*
X70536269Y-80314370D01*
X70514607Y-80421340D01*
X70409853Y-80421340D01*
X70390932Y-80320783D01*
X70251860Y-80104659D01*
X70039660Y-79959669D01*
X69787770Y-79908660D01*
X68388230Y-79908660D01*
X68152913Y-79952938D01*
X67936789Y-80092010D01*
X67791799Y-80304210D01*
X67740790Y-80556100D01*
X67740790Y-81856580D01*
X67785068Y-82091897D01*
X67924140Y-82308021D01*
X68136340Y-82453011D01*
X68213255Y-82468587D01*
X68103000Y-82578842D01*
X67906627Y-82497301D01*
X67216401Y-82496699D01*
X66578485Y-82760281D01*
X66089996Y-83247918D01*
X66007330Y-83447000D01*
X65507158Y-83447000D01*
X65111719Y-83051561D01*
X64857047Y-82881395D01*
X64556640Y-82821640D01*
X64117156Y-82821640D01*
X64009810Y-82654819D01*
X63936655Y-82604835D01*
X64071500Y-82469990D01*
X64071500Y-81620360D01*
X64325500Y-81620360D01*
X64325500Y-82469990D01*
X64484250Y-82628740D01*
X64624529Y-82628740D01*
X64857918Y-82532067D01*
X65036547Y-82353439D01*
X65133220Y-82120050D01*
X65133220Y-81779110D01*
X64974470Y-81620360D01*
X64325500Y-81620360D01*
X64071500Y-81620360D01*
X63422530Y-81620360D01*
X63263780Y-81779110D01*
X63263780Y-82120050D01*
X63360453Y-82353439D01*
X63465835Y-82458820D01*
X63043122Y-82458820D01*
X63044661Y-82457830D01*
X63189651Y-82245630D01*
X63240660Y-81993740D01*
X63240660Y-80992980D01*
X63216894Y-80866670D01*
X63263780Y-80866670D01*
X63263780Y-81207610D01*
X63422530Y-81366360D01*
X64071500Y-81366360D01*
X64071500Y-80516730D01*
X64325500Y-80516730D01*
X64325500Y-81366360D01*
X64974470Y-81366360D01*
X65133220Y-81207610D01*
X65133220Y-80866670D01*
X65036547Y-80633281D01*
X64857918Y-80454653D01*
X64624529Y-80357980D01*
X64484250Y-80357980D01*
X64325500Y-80516730D01*
X64071500Y-80516730D01*
X63912750Y-80357980D01*
X63772471Y-80357980D01*
X63539082Y-80454653D01*
X63360453Y-80633281D01*
X63263780Y-80866670D01*
X63216894Y-80866670D01*
X63196382Y-80757663D01*
X63078500Y-80574469D01*
X63078500Y-80329446D01*
X63268181Y-80207390D01*
X63413171Y-79995190D01*
X63464180Y-79743300D01*
X63464180Y-78244700D01*
X63419902Y-78009383D01*
X63280830Y-77793259D01*
X63068630Y-77648269D01*
X62816740Y-77597260D01*
X61516260Y-77597260D01*
X61280943Y-77641538D01*
X61215454Y-77683679D01*
X61163630Y-77648269D01*
X60911740Y-77597260D01*
X59611260Y-77597260D01*
X59375943Y-77641538D01*
X59159819Y-77780610D01*
X59059000Y-77928163D01*
X58951564Y-77820539D01*
X58442702Y-77609241D01*
X57891715Y-77608760D01*
X57382485Y-77819169D01*
X56992539Y-78208436D01*
X56781241Y-78717298D01*
X56780760Y-79268285D01*
X56991169Y-79777515D01*
X57380436Y-80167461D01*
X57889298Y-80378759D01*
X58440285Y-80379240D01*
X58949515Y-80168831D01*
X59059711Y-80058826D01*
X59147170Y-80194741D01*
X59359370Y-80339731D01*
X59611260Y-80390740D01*
X60911740Y-80390740D01*
X61147057Y-80346462D01*
X61212546Y-80304321D01*
X61264370Y-80339731D01*
X61508500Y-80389169D01*
X61508500Y-80578415D01*
X61397349Y-80741090D01*
X61346340Y-80992980D01*
X61346340Y-81993740D01*
X61390618Y-82229057D01*
X61529690Y-82445181D01*
X61741890Y-82590171D01*
X61993780Y-82641180D01*
X62496378Y-82641180D01*
X62494839Y-82642170D01*
X62349849Y-82854370D01*
X62298840Y-83106260D01*
X62298840Y-84107020D01*
X62343118Y-84342337D01*
X62482190Y-84558461D01*
X62694390Y-84703451D01*
X62946280Y-84754460D01*
X63545720Y-84754460D01*
X63781037Y-84710182D01*
X63997161Y-84571110D01*
X64119788Y-84391640D01*
X64231482Y-84391640D01*
X64626921Y-84787079D01*
X64881594Y-84957245D01*
X65182000Y-85017001D01*
X65182005Y-85017000D01*
X66007083Y-85017000D01*
X66088281Y-85213515D01*
X66575918Y-85702004D01*
X67213373Y-85966699D01*
X67903599Y-85967301D01*
X68541515Y-85703719D01*
X69030004Y-85216082D01*
X69294699Y-84578627D01*
X69295301Y-83888401D01*
X69212983Y-83689175D01*
X69643079Y-83259079D01*
X69813245Y-83004407D01*
X69873000Y-82704000D01*
X69873000Y-82487983D01*
X70023087Y-82459742D01*
X70239211Y-82320670D01*
X70384201Y-82108470D01*
X70407920Y-81991340D01*
X70508705Y-81991340D01*
X70529538Y-82102057D01*
X70668610Y-82318181D01*
X70880810Y-82463171D01*
X71132700Y-82514180D01*
X72631300Y-82514180D01*
X72866617Y-82469902D01*
X73082741Y-82330830D01*
X73227731Y-82118630D01*
X73278740Y-81866740D01*
X73278740Y-80566260D01*
X73234462Y-80330943D01*
X73192321Y-80265454D01*
X73227731Y-80213630D01*
X73278740Y-79961740D01*
X73278740Y-79190660D01*
X81206335Y-79190660D01*
X81206340Y-79190661D01*
X81488824Y-79134470D01*
X81545015Y-79123293D01*
X81832130Y-78931450D01*
X85207787Y-75555792D01*
X85207790Y-75555790D01*
X85290000Y-75432753D01*
X85290000Y-91290000D01*
X73953580Y-91290000D01*
X75864798Y-89378781D01*
X75864760Y-89422789D01*
X76189090Y-90207727D01*
X76789114Y-90808800D01*
X77573485Y-91134499D01*
X78422789Y-91135240D01*
X79207727Y-90810910D01*
X79808800Y-90210886D01*
X80134499Y-89426515D01*
X80135240Y-88577211D01*
X79810910Y-87792273D01*
X79210886Y-87191200D01*
X78426515Y-86865501D01*
X78378121Y-86865459D01*
X79163910Y-86079669D01*
X79373416Y-86166663D01*
X80143207Y-86167335D01*
X80854658Y-85873370D01*
X81399457Y-85329521D01*
X81694663Y-84618584D01*
X81695335Y-83848793D01*
X81401370Y-83137342D01*
X80857521Y-82592543D01*
X80146584Y-82297337D01*
X79376793Y-82296665D01*
X78665342Y-82590630D01*
X78120543Y-83134479D01*
X77825337Y-83845416D01*
X77824665Y-84615207D01*
X77912540Y-84827881D01*
X72947420Y-89793000D01*
X53960579Y-89793000D01*
X51781888Y-87614309D01*
X51882672Y-87371595D01*
X51882674Y-87368305D01*
X53780674Y-87368305D01*
X54067043Y-88061372D01*
X54596839Y-88592093D01*
X55289405Y-88879672D01*
X56039305Y-88880326D01*
X56732372Y-88593957D01*
X57263093Y-88064161D01*
X57550672Y-87371595D01*
X57550674Y-87368305D01*
X58780674Y-87368305D01*
X59067043Y-88061372D01*
X59596839Y-88592093D01*
X60289405Y-88879672D01*
X61039305Y-88880326D01*
X61732372Y-88593957D01*
X62263093Y-88064161D01*
X62550672Y-87371595D01*
X62551326Y-86621695D01*
X62264957Y-85928628D01*
X61735161Y-85397907D01*
X61042595Y-85110328D01*
X60292695Y-85109674D01*
X59599628Y-85396043D01*
X59068907Y-85925839D01*
X58781328Y-86618405D01*
X58780674Y-87368305D01*
X57550674Y-87368305D01*
X57551326Y-86621695D01*
X57264957Y-85928628D01*
X56735161Y-85397907D01*
X56042595Y-85110328D01*
X55292695Y-85109674D01*
X54599628Y-85396043D01*
X54068907Y-85925839D01*
X53781328Y-86618405D01*
X53780674Y-87368305D01*
X51882674Y-87368305D01*
X51883326Y-86621695D01*
X51596957Y-85928628D01*
X51067161Y-85397907D01*
X50374595Y-85110328D01*
X49624695Y-85109674D01*
X48931628Y-85396043D01*
X48400907Y-85925839D01*
X48113328Y-86618405D01*
X48112674Y-87368305D01*
X48399043Y-88061372D01*
X48928839Y-88592093D01*
X49621405Y-88879672D01*
X50371305Y-88880326D01*
X50494035Y-88829615D01*
X52954421Y-91290000D01*
X20710000Y-91290000D01*
X20710000Y-85066158D01*
X21542921Y-85899079D01*
X21797593Y-86069245D01*
X22098000Y-86129000D01*
X22307189Y-86129000D01*
X22331340Y-86250416D01*
X22634172Y-86703635D01*
X23087391Y-87006467D01*
X23622000Y-87112807D01*
X24156609Y-87006467D01*
X24609828Y-86703635D01*
X24759343Y-86479870D01*
X24796838Y-86679137D01*
X24935910Y-86895261D01*
X25148110Y-87040251D01*
X25400000Y-87091260D01*
X26924000Y-87091260D01*
X27116871Y-87054969D01*
X26792273Y-87189090D01*
X26191200Y-87789114D01*
X25865501Y-88573485D01*
X25864760Y-89422789D01*
X26189090Y-90207727D01*
X26789114Y-90808800D01*
X27573485Y-91134499D01*
X28422789Y-91135240D01*
X29207727Y-90810910D01*
X29808800Y-90210886D01*
X30134499Y-89426515D01*
X30135240Y-88577211D01*
X29810910Y-87792273D01*
X29387682Y-87368305D01*
X32444674Y-87368305D01*
X32731043Y-88061372D01*
X33260839Y-88592093D01*
X33953405Y-88879672D01*
X34703305Y-88880326D01*
X35396372Y-88593957D01*
X35927093Y-88064161D01*
X36214672Y-87371595D01*
X36215326Y-86621695D01*
X35928957Y-85928628D01*
X35399161Y-85397907D01*
X34706595Y-85110328D01*
X33956695Y-85109674D01*
X33263628Y-85396043D01*
X32732907Y-85925839D01*
X32445328Y-86618405D01*
X32444674Y-87368305D01*
X29387682Y-87368305D01*
X29210886Y-87191200D01*
X28426515Y-86865501D01*
X27577211Y-86864760D01*
X27200793Y-87020293D01*
X27375441Y-86907910D01*
X27520431Y-86695710D01*
X27571440Y-86443820D01*
X27571440Y-84244180D01*
X27527162Y-84008863D01*
X27388090Y-83792739D01*
X27175890Y-83647749D01*
X26924000Y-83596740D01*
X25400000Y-83596740D01*
X25164683Y-83641018D01*
X24948559Y-83780090D01*
X24803569Y-83992290D01*
X24759740Y-84208724D01*
X24609828Y-83984365D01*
X24156609Y-83681533D01*
X23622000Y-83575193D01*
X23087391Y-83681533D01*
X22634172Y-83984365D01*
X22331340Y-84437584D01*
X22326429Y-84462271D01*
X21613000Y-83748842D01*
X21613000Y-76364930D01*
X21781370Y-76364930D01*
X21903870Y-76581000D01*
X23246080Y-76581000D01*
X23246080Y-75464746D01*
X23025398Y-75305973D01*
X22497253Y-75454865D01*
X22066290Y-75794535D01*
X21798118Y-76273272D01*
X21781370Y-76364930D01*
X21613000Y-76364930D01*
X21613000Y-54935158D01*
X23601397Y-52946761D01*
X24150285Y-52947240D01*
X24659515Y-52736831D01*
X25049461Y-52347564D01*
X25260759Y-51838702D01*
X25261240Y-51287715D01*
X25050831Y-50778485D01*
X24661564Y-50388539D01*
X24152702Y-50177241D01*
X23601715Y-50176760D01*
X23092485Y-50387169D01*
X22702539Y-50776436D01*
X22491241Y-51285298D01*
X22490760Y-51836285D01*
X22490993Y-51836849D01*
X20710000Y-53617842D01*
X20710000Y-34027745D01*
X33616861Y-34027745D01*
X33690995Y-34273864D01*
X34228223Y-34466965D01*
X34798454Y-34439778D01*
X35199005Y-34273864D01*
X35273139Y-34027745D01*
X34445000Y-33199605D01*
X33616861Y-34027745D01*
X20710000Y-34027745D01*
X20710000Y-32803223D01*
X32998035Y-32803223D01*
X33025222Y-33373454D01*
X33191136Y-33774005D01*
X33437255Y-33848139D01*
X34265395Y-33020000D01*
X34624605Y-33020000D01*
X35452745Y-33848139D01*
X35698864Y-33774005D01*
X35891965Y-33236777D01*
X35864778Y-32666546D01*
X35698864Y-32265995D01*
X35546165Y-32220000D01*
X36497560Y-32220000D01*
X36497560Y-33820000D01*
X36541838Y-34055317D01*
X36680910Y-34271441D01*
X36893110Y-34416431D01*
X37145000Y-34467440D01*
X38745000Y-34467440D01*
X38980317Y-34423162D01*
X39196441Y-34284090D01*
X39341431Y-34071890D01*
X39392440Y-33820000D01*
X39392440Y-32220000D01*
X39348162Y-31984683D01*
X39209090Y-31768559D01*
X38996890Y-31623569D01*
X38745000Y-31572560D01*
X37145000Y-31572560D01*
X36909683Y-31616838D01*
X36693559Y-31755910D01*
X36548569Y-31968110D01*
X36497560Y-32220000D01*
X35546165Y-32220000D01*
X35452745Y-32191861D01*
X34624605Y-33020000D01*
X34265395Y-33020000D01*
X33437255Y-32191861D01*
X33191136Y-32265995D01*
X32998035Y-32803223D01*
X20710000Y-32803223D01*
X20710000Y-32012255D01*
X33616861Y-32012255D01*
X34445000Y-32840395D01*
X35273139Y-32012255D01*
X35199005Y-31766136D01*
X34661777Y-31573035D01*
X34091546Y-31600222D01*
X33690995Y-31766136D01*
X33616861Y-32012255D01*
X20710000Y-32012255D01*
X20710000Y-31036260D01*
X64378568Y-31036260D01*
X64484038Y-31566495D01*
X64784392Y-32016006D01*
X65233903Y-32316360D01*
X65757753Y-32420560D01*
X65233903Y-32524760D01*
X64784392Y-32825114D01*
X64484038Y-33274625D01*
X64378568Y-33804860D01*
X64484038Y-34335095D01*
X64784392Y-34784606D01*
X65233903Y-35084960D01*
X65764138Y-35190430D01*
X65233903Y-35295900D01*
X64784392Y-35596254D01*
X64484038Y-36045765D01*
X64378568Y-36576000D01*
X64484038Y-37106235D01*
X64784392Y-37555746D01*
X65233903Y-37856100D01*
X65764138Y-37961570D01*
X65233903Y-38067040D01*
X64784392Y-38367394D01*
X64484038Y-38816905D01*
X64378568Y-39347140D01*
X64484038Y-39877375D01*
X64784392Y-40326886D01*
X65233903Y-40627240D01*
X65764138Y-40732710D01*
X65918078Y-40732710D01*
X65918078Y-40883353D01*
X65698957Y-40722659D01*
X65173247Y-40865899D01*
X64742370Y-41199416D01*
X64471923Y-41672435D01*
X64453277Y-41774465D01*
X64575931Y-41988740D01*
X65918080Y-41988740D01*
X65918080Y-41968740D01*
X66172080Y-41968740D01*
X66172080Y-41988740D01*
X67514229Y-41988740D01*
X67636883Y-41774465D01*
X67618237Y-41672435D01*
X67347790Y-41199416D01*
X66916913Y-40865899D01*
X66391203Y-40722659D01*
X66172082Y-40883353D01*
X66172082Y-40732710D01*
X66326022Y-40732710D01*
X66856257Y-40627240D01*
X67305768Y-40326886D01*
X67606122Y-39877375D01*
X67711592Y-39347140D01*
X67606122Y-38816905D01*
X67305768Y-38367394D01*
X66856257Y-38067040D01*
X66326022Y-37961570D01*
X66856257Y-37856100D01*
X67305768Y-37555746D01*
X67606122Y-37106235D01*
X67711592Y-36576000D01*
X67606122Y-36045765D01*
X67305768Y-35596254D01*
X66856257Y-35295900D01*
X66326022Y-35190430D01*
X66856257Y-35084960D01*
X67305768Y-34784606D01*
X67606122Y-34335095D01*
X67711592Y-33804860D01*
X67606122Y-33274625D01*
X67305768Y-32825114D01*
X66856257Y-32524760D01*
X66332407Y-32420560D01*
X67416408Y-32420560D01*
X67521878Y-32950795D01*
X67822232Y-33400306D01*
X68271743Y-33700660D01*
X68801978Y-33806130D01*
X68271743Y-33911600D01*
X67822232Y-34211954D01*
X67521878Y-34661465D01*
X67416408Y-35191700D01*
X67521878Y-35721935D01*
X67822232Y-36171446D01*
X68271743Y-36471800D01*
X68795593Y-36576000D01*
X68271743Y-36680200D01*
X67822232Y-36980554D01*
X67521878Y-37430065D01*
X67416408Y-37960300D01*
X67521878Y-38490535D01*
X67822232Y-38940046D01*
X68271743Y-39240400D01*
X68801978Y-39345870D01*
X68271743Y-39451340D01*
X67822232Y-39751694D01*
X67521878Y-40201205D01*
X67416408Y-40731440D01*
X67521878Y-41261675D01*
X67822232Y-41711186D01*
X68271743Y-42011540D01*
X68801978Y-42117010D01*
X69363862Y-42117010D01*
X69894097Y-42011540D01*
X70343608Y-41711186D01*
X70643962Y-41261675D01*
X70749432Y-40731440D01*
X70643962Y-40201205D01*
X70343608Y-39751694D01*
X69894097Y-39451340D01*
X69363862Y-39345870D01*
X69894097Y-39240400D01*
X70343608Y-38940046D01*
X70643962Y-38490535D01*
X70749432Y-37960300D01*
X70643962Y-37430065D01*
X70343608Y-36980554D01*
X69894097Y-36680200D01*
X69370247Y-36576000D01*
X69894097Y-36471800D01*
X70343608Y-36171446D01*
X70643962Y-35721935D01*
X70749432Y-35191700D01*
X70643962Y-34661465D01*
X70343608Y-34211954D01*
X69894097Y-33911600D01*
X69363862Y-33806130D01*
X69894097Y-33700660D01*
X70343608Y-33400306D01*
X70643962Y-32950795D01*
X70749432Y-32420560D01*
X70643962Y-31890325D01*
X70343608Y-31440814D01*
X69894097Y-31140460D01*
X69363862Y-31034990D01*
X68801978Y-31034990D01*
X68271743Y-31140460D01*
X67822232Y-31440814D01*
X67521878Y-31890325D01*
X67416408Y-32420560D01*
X66332407Y-32420560D01*
X66856257Y-32316360D01*
X67305768Y-32016006D01*
X67606122Y-31566495D01*
X67711592Y-31036260D01*
X67606122Y-30506025D01*
X67305768Y-30056514D01*
X66856257Y-29756160D01*
X66326022Y-29650690D01*
X65764138Y-29650690D01*
X65233903Y-29756160D01*
X64784392Y-30056514D01*
X64484038Y-30506025D01*
X64378568Y-31036260D01*
X20710000Y-31036260D01*
X20710000Y-28651532D01*
X21268073Y-28651532D01*
X21366736Y-28918387D01*
X21976461Y-29144908D01*
X22626460Y-29120856D01*
X23115264Y-28918387D01*
X23213927Y-28651532D01*
X22241000Y-27678605D01*
X21268073Y-28651532D01*
X20710000Y-28651532D01*
X20710000Y-28103806D01*
X20821613Y-28373264D01*
X21088468Y-28471927D01*
X22061395Y-27499000D01*
X22420605Y-27499000D01*
X23393532Y-28471927D01*
X23660387Y-28373264D01*
X23886908Y-27763539D01*
X23862856Y-27113540D01*
X23660387Y-26624736D01*
X23393532Y-26526073D01*
X22420605Y-27499000D01*
X22061395Y-27499000D01*
X21088468Y-26526073D01*
X20821613Y-26624736D01*
X20710000Y-26925164D01*
X20710000Y-26346468D01*
X21268073Y-26346468D01*
X22241000Y-27319395D01*
X23213927Y-26346468D01*
X23115264Y-26079613D01*
X22505539Y-25853092D01*
X21855540Y-25877144D01*
X21366736Y-26079613D01*
X21268073Y-26346468D01*
X20710000Y-26346468D01*
X20710000Y-24702719D01*
X64427827Y-24702719D01*
X64904192Y-25855611D01*
X65785489Y-26738448D01*
X66937548Y-27216825D01*
X68184979Y-27217913D01*
X69337871Y-26741548D01*
X70220708Y-25860251D01*
X70699085Y-24708192D01*
X70700173Y-23460761D01*
X70223808Y-22307869D01*
X69342511Y-21425032D01*
X68190452Y-20946655D01*
X66943021Y-20945567D01*
X65790129Y-21421932D01*
X64907292Y-22303229D01*
X64428915Y-23455288D01*
X64427827Y-24702719D01*
X20710000Y-24702719D01*
X20710000Y-22265285D01*
X47653797Y-22265285D01*
X48015943Y-23141744D01*
X48685929Y-23812900D01*
X49561755Y-24176575D01*
X50510085Y-24177403D01*
X51386544Y-23815257D01*
X52057700Y-23145271D01*
X52421375Y-22269445D01*
X52422203Y-21321115D01*
X52060057Y-20444656D01*
X51390071Y-19773500D01*
X50514245Y-19409825D01*
X49565915Y-19408997D01*
X48689456Y-19771143D01*
X48018300Y-20441129D01*
X47654625Y-21316955D01*
X47653797Y-22265285D01*
X20710000Y-22265285D01*
X20710000Y-20322795D01*
X22605716Y-20322795D01*
X22854106Y-20923943D01*
X23313637Y-21384278D01*
X23914352Y-21633716D01*
X24564795Y-21634284D01*
X25133449Y-21399320D01*
X32922285Y-21399320D01*
X33051533Y-21692123D01*
X33751806Y-21960388D01*
X34501435Y-21940250D01*
X35100467Y-21692123D01*
X35229715Y-21399320D01*
X34076000Y-20245605D01*
X32922285Y-21399320D01*
X25133449Y-21399320D01*
X25165943Y-21385894D01*
X25626278Y-20926363D01*
X25875716Y-20325648D01*
X25876284Y-19675205D01*
X25627894Y-19074057D01*
X25168363Y-18613722D01*
X24708545Y-18422789D01*
X25864760Y-18422789D01*
X26189090Y-19207727D01*
X26789114Y-19808800D01*
X27573485Y-20134499D01*
X28422789Y-20135240D01*
X29207727Y-19810910D01*
X29276951Y-19741806D01*
X32181612Y-19741806D01*
X32201750Y-20491435D01*
X32449877Y-21090467D01*
X32742680Y-21219715D01*
X33896395Y-20066000D01*
X34255605Y-20066000D01*
X35409320Y-21219715D01*
X35702123Y-21090467D01*
X35951574Y-20439305D01*
X37190674Y-20439305D01*
X37477043Y-21132372D01*
X38006839Y-21663093D01*
X38699405Y-21950672D01*
X39449305Y-21951326D01*
X40142372Y-21664957D01*
X40673093Y-21135161D01*
X40960672Y-20442595D01*
X40961326Y-19692695D01*
X40674957Y-18999628D01*
X40145161Y-18468907D01*
X40034097Y-18422789D01*
X75864760Y-18422789D01*
X76189090Y-19207727D01*
X76789114Y-19808800D01*
X77573485Y-20134499D01*
X78422789Y-20135240D01*
X79207727Y-19810910D01*
X79808800Y-19210886D01*
X80134499Y-18426515D01*
X80135240Y-17577211D01*
X79810910Y-16792273D01*
X79210886Y-16191200D01*
X78426515Y-15865501D01*
X77577211Y-15864760D01*
X76792273Y-16189090D01*
X76191200Y-16789114D01*
X75865501Y-17573485D01*
X75864760Y-18422789D01*
X40034097Y-18422789D01*
X39452595Y-18181328D01*
X38702695Y-18180674D01*
X38009628Y-18467043D01*
X37478907Y-18996839D01*
X37191328Y-19689405D01*
X37190674Y-20439305D01*
X35951574Y-20439305D01*
X35970388Y-20390194D01*
X35950250Y-19640565D01*
X35702123Y-19041533D01*
X35409320Y-18912285D01*
X34255605Y-20066000D01*
X33896395Y-20066000D01*
X32742680Y-18912285D01*
X32449877Y-19041533D01*
X32181612Y-19741806D01*
X29276951Y-19741806D01*
X29808800Y-19210886D01*
X30007368Y-18732680D01*
X32922285Y-18732680D01*
X34076000Y-19886395D01*
X35229715Y-18732680D01*
X35100467Y-18439877D01*
X34400194Y-18171612D01*
X33650565Y-18191750D01*
X33051533Y-18439877D01*
X32922285Y-18732680D01*
X30007368Y-18732680D01*
X30134499Y-18426515D01*
X30135240Y-17577211D01*
X29810910Y-16792273D01*
X29210886Y-16191200D01*
X28426515Y-15865501D01*
X27577211Y-15864760D01*
X26792273Y-16189090D01*
X26191200Y-16789114D01*
X25865501Y-17573485D01*
X25864760Y-18422789D01*
X24708545Y-18422789D01*
X24567648Y-18364284D01*
X23917205Y-18363716D01*
X23316057Y-18612106D01*
X22855722Y-19071637D01*
X22606284Y-19672352D01*
X22605716Y-20322795D01*
X20710000Y-20322795D01*
X20710000Y-15710000D01*
X85290000Y-15710000D01*
X85290000Y-67061247D01*
X85290000Y-67061247D01*
G37*
X85290000Y-67061247D02*
X85207790Y-66938210D01*
X85207787Y-66938208D01*
X80127790Y-61858210D01*
X79980957Y-61760100D01*
X79840675Y-61666367D01*
X79784484Y-61655190D01*
X79502000Y-61598999D01*
X79501995Y-61599000D01*
X71751000Y-61599000D01*
X71751000Y-59944005D01*
X71751001Y-59944000D01*
X71683634Y-59605326D01*
X71555637Y-59413765D01*
X71491790Y-59318210D01*
X71491787Y-59318208D01*
X71057450Y-58883870D01*
X71020858Y-58859420D01*
X70770335Y-58692027D01*
X70679708Y-58674000D01*
X70431660Y-58624659D01*
X70431655Y-58624660D01*
X70137037Y-58624660D01*
X70136932Y-58624103D01*
X69997860Y-58407979D01*
X69785660Y-58262989D01*
X69719000Y-58249490D01*
X69719000Y-57912005D01*
X69719001Y-57912000D01*
X69651633Y-57573325D01*
X69459790Y-57286210D01*
X69459787Y-57286208D01*
X68700545Y-56526966D01*
X69030004Y-56198082D01*
X69279509Y-55597207D01*
X77824665Y-55597207D01*
X78118630Y-56308658D01*
X78662479Y-56853457D01*
X79373416Y-57148663D01*
X80143207Y-57149335D01*
X80854658Y-56855370D01*
X81399457Y-56311521D01*
X81694663Y-55600584D01*
X81695335Y-54830793D01*
X81401370Y-54119342D01*
X80857521Y-53574543D01*
X80146584Y-53279337D01*
X79376793Y-53278665D01*
X78665342Y-53572630D01*
X78120543Y-54116479D01*
X77825337Y-54827416D01*
X77824665Y-55597207D01*
X69279509Y-55597207D01*
X69294699Y-55560627D01*
X69295301Y-54870401D01*
X69031719Y-54232485D01*
X68544082Y-53743996D01*
X67906627Y-53479301D01*
X67216401Y-53478699D01*
X67117248Y-53519668D01*
X64533790Y-50936210D01*
X64246675Y-50744367D01*
X64190484Y-50733190D01*
X63908000Y-50676999D01*
X63907995Y-50677000D01*
X58532579Y-50677000D01*
X56868159Y-49012579D01*
X57958786Y-49012579D01*
X58146408Y-49466657D01*
X58493515Y-49814371D01*
X58947266Y-50002785D01*
X59438579Y-50003214D01*
X59716396Y-49888422D01*
X59734301Y-49906327D01*
X59967690Y-50003000D01*
X60408250Y-50003000D01*
X60567000Y-49844250D01*
X60567000Y-48895000D01*
X60821000Y-48895000D01*
X60821000Y-49844250D01*
X60979750Y-50003000D01*
X61420310Y-50003000D01*
X61653699Y-49906327D01*
X61832327Y-49727698D01*
X61847428Y-49691239D01*
X64427827Y-49691239D01*
X64904192Y-50844131D01*
X65785489Y-51726968D01*
X66937548Y-52205345D01*
X68184979Y-52206433D01*
X69337871Y-51730068D01*
X70220708Y-50848771D01*
X70699085Y-49696712D01*
X70700173Y-48449281D01*
X70223808Y-47296389D01*
X69342511Y-46413552D01*
X68190452Y-45935175D01*
X66943021Y-45934087D01*
X65790129Y-46410452D01*
X64907292Y-47291749D01*
X64428915Y-48443808D01*
X64427827Y-49691239D01*
X61847428Y-49691239D01*
X61929000Y-49494309D01*
X61929000Y-49053750D01*
X61770250Y-48895000D01*
X60821000Y-48895000D01*
X60567000Y-48895000D01*
X60547000Y-48895000D01*
X60547000Y-48641000D01*
X60567000Y-48641000D01*
X60567000Y-47691750D01*
X60821000Y-47691750D01*
X60821000Y-48641000D01*
X61770250Y-48641000D01*
X61929000Y-48482250D01*
X61929000Y-48041691D01*
X61832327Y-47808302D01*
X61653699Y-47629673D01*
X61420310Y-47533000D01*
X60979750Y-47533000D01*
X60821000Y-47691750D01*
X60567000Y-47691750D01*
X60408250Y-47533000D01*
X59967690Y-47533000D01*
X59734301Y-47629673D01*
X59716324Y-47647650D01*
X59440734Y-47533215D01*
X58949421Y-47532786D01*
X58495343Y-47720408D01*
X58147629Y-48067515D01*
X57959215Y-48521266D01*
X57958786Y-49012579D01*
X56868159Y-49012579D01*
X56511000Y-48655420D01*
X56511000Y-42457015D01*
X64453277Y-42457015D01*
X64471923Y-42559045D01*
X64742370Y-43032064D01*
X65173247Y-43365581D01*
X65698957Y-43508821D01*
X65918080Y-43348126D01*
X65918080Y-42242740D01*
X66172080Y-42242740D01*
X66172080Y-43348126D01*
X66391203Y-43508821D01*
X66916913Y-43365581D01*
X67347790Y-43032064D01*
X67618237Y-42559045D01*
X67636883Y-42457015D01*
X67514229Y-42242740D01*
X66172080Y-42242740D01*
X65918080Y-42242740D01*
X64575931Y-42242740D01*
X64453277Y-42457015D01*
X56511000Y-42457015D01*
X56511000Y-41881745D01*
X57845861Y-41881745D01*
X57919995Y-42127864D01*
X58457223Y-42320965D01*
X59027454Y-42293778D01*
X59428005Y-42127864D01*
X59502139Y-41881745D01*
X58674000Y-41053605D01*
X57845861Y-41881745D01*
X56511000Y-41881745D01*
X56511000Y-40752580D01*
X56606356Y-40657223D01*
X57227035Y-40657223D01*
X57254222Y-41227454D01*
X57420136Y-41628005D01*
X57666255Y-41702139D01*
X58494395Y-40874000D01*
X58853605Y-40874000D01*
X59681745Y-41702139D01*
X59927864Y-41628005D01*
X60120965Y-41090777D01*
X60093778Y-40520546D01*
X59927864Y-40119995D01*
X59681745Y-40045861D01*
X58853605Y-40874000D01*
X58494395Y-40874000D01*
X57666255Y-40045861D01*
X57420136Y-40119995D01*
X57227035Y-40657223D01*
X56606356Y-40657223D01*
X57545496Y-39718083D01*
X57622110Y-39770431D01*
X57860201Y-39818646D01*
X57845861Y-39866255D01*
X58674000Y-40694395D01*
X59502139Y-39866255D01*
X59487855Y-39818833D01*
X59709317Y-39777162D01*
X59925441Y-39638090D01*
X60070431Y-39425890D01*
X60121440Y-39174000D01*
X60121440Y-37574000D01*
X60077162Y-37338683D01*
X59938090Y-37122559D01*
X59725890Y-36977569D01*
X59474000Y-36926560D01*
X57874000Y-36926560D01*
X57638683Y-36970838D01*
X57422559Y-37109910D01*
X57277569Y-37322110D01*
X57226560Y-37574000D01*
X57226560Y-37604987D01*
X57012210Y-37748210D01*
X57012208Y-37748213D01*
X55000210Y-39760210D01*
X54808367Y-40047325D01*
X54808367Y-40047326D01*
X54740999Y-40386000D01*
X54741000Y-40386005D01*
X54741000Y-49021995D01*
X54740999Y-49022000D01*
X54782159Y-49228921D01*
X54808367Y-49360675D01*
X54897658Y-49494309D01*
X55000210Y-49647790D01*
X57540208Y-52187787D01*
X57540210Y-52187790D01*
X57716570Y-52305629D01*
X57827325Y-52379633D01*
X58166000Y-52447000D01*
X59102502Y-52447000D01*
X58897629Y-52651515D01*
X58709215Y-53105266D01*
X58708786Y-53596579D01*
X58827304Y-53883414D01*
X58747569Y-54000110D01*
X58696560Y-54252000D01*
X58696560Y-55452000D01*
X58740838Y-55687317D01*
X58879910Y-55903441D01*
X59092110Y-56048431D01*
X59344000Y-56099440D01*
X60544000Y-56099440D01*
X60779317Y-56055162D01*
X60995441Y-55916090D01*
X61140431Y-55703890D01*
X61191440Y-55452000D01*
X61191440Y-54252000D01*
X61147162Y-54016683D01*
X61060901Y-53882630D01*
X61178785Y-53598734D01*
X61179214Y-53107421D01*
X60991592Y-52653343D01*
X60785609Y-52447000D01*
X63541420Y-52447000D01*
X65754421Y-54660000D01*
X62366210Y-58048210D01*
X62174367Y-58335325D01*
X62174367Y-58335326D01*
X62106999Y-58674000D01*
X62107000Y-58674005D01*
X62107000Y-60339421D01*
X60842210Y-61604210D01*
X60650367Y-61891325D01*
X60650367Y-61891326D01*
X60582999Y-62230000D01*
X60583000Y-62230005D01*
X60583000Y-64261995D01*
X60582999Y-64262000D01*
X60616681Y-64431325D01*
X60650367Y-64600675D01*
X60763506Y-64770000D01*
X60842210Y-64887790D01*
X61350208Y-65395787D01*
X61350210Y-65395790D01*
X61637325Y-65587633D01*
X61976000Y-65655000D01*
X62037354Y-65655000D01*
X62056098Y-65754617D01*
X62195170Y-65970741D01*
X62407370Y-66115731D01*
X62659260Y-66166740D01*
X63959740Y-66166740D01*
X64195057Y-66122462D01*
X64260546Y-66080321D01*
X64312370Y-66115731D01*
X64564260Y-66166740D01*
X65402582Y-66166740D01*
X65906842Y-66671000D01*
X65825301Y-66867373D01*
X65824713Y-67541000D01*
X65725585Y-67541000D01*
X65562910Y-67429849D01*
X65311020Y-67378840D01*
X64310260Y-67378840D01*
X64074943Y-67423118D01*
X63858819Y-67562190D01*
X63808835Y-67635345D01*
X63673990Y-67500500D01*
X62824360Y-67500500D01*
X62824360Y-68149470D01*
X62983110Y-68308220D01*
X63324050Y-68308220D01*
X63557439Y-68211547D01*
X63662820Y-68106165D01*
X63662820Y-68528878D01*
X63661830Y-68527339D01*
X63449630Y-68382349D01*
X63197740Y-68331340D01*
X62196980Y-68331340D01*
X61961663Y-68375618D01*
X61778469Y-68493500D01*
X61667514Y-68493500D01*
X61641902Y-68357383D01*
X61502830Y-68141259D01*
X61290630Y-67996269D01*
X61038740Y-67945260D01*
X59738260Y-67945260D01*
X59502943Y-67989538D01*
X59437454Y-68031679D01*
X59385630Y-67996269D01*
X59133740Y-67945260D01*
X57833260Y-67945260D01*
X57597943Y-67989538D01*
X57381819Y-68128610D01*
X57236829Y-68340810D01*
X57212326Y-68461811D01*
X56919564Y-68168539D01*
X56919000Y-68168305D01*
X56919000Y-67659250D01*
X61561980Y-67659250D01*
X61561980Y-67799529D01*
X61658653Y-68032918D01*
X61837281Y-68211547D01*
X62070670Y-68308220D01*
X62411610Y-68308220D01*
X62570360Y-68149470D01*
X62570360Y-67500500D01*
X61720730Y-67500500D01*
X61561980Y-67659250D01*
X56919000Y-67659250D01*
X56919000Y-66947471D01*
X61561980Y-66947471D01*
X61561980Y-67087750D01*
X61720730Y-67246500D01*
X62570360Y-67246500D01*
X62570360Y-66597530D01*
X62824360Y-66597530D01*
X62824360Y-67246500D01*
X63673990Y-67246500D01*
X63832740Y-67087750D01*
X63832740Y-66947471D01*
X63736067Y-66714082D01*
X63557439Y-66535453D01*
X63324050Y-66438780D01*
X62983110Y-66438780D01*
X62824360Y-66597530D01*
X62570360Y-66597530D01*
X62411610Y-66438780D01*
X62070670Y-66438780D01*
X61837281Y-66535453D01*
X61658653Y-66714082D01*
X61561980Y-66947471D01*
X56919000Y-66947471D01*
X56919000Y-61722005D01*
X56919001Y-61722000D01*
X56859245Y-61421594D01*
X56797757Y-61329570D01*
X56689079Y-61166921D01*
X56689076Y-61166919D01*
X55108158Y-59586000D01*
X58696560Y-59586000D01*
X58696560Y-60786000D01*
X58740838Y-61021317D01*
X58879910Y-61237441D01*
X59092110Y-61382431D01*
X59344000Y-61433440D01*
X60544000Y-61433440D01*
X60779317Y-61389162D01*
X60995441Y-61250090D01*
X61140431Y-61037890D01*
X61191440Y-60786000D01*
X61191440Y-59586000D01*
X61147162Y-59350683D01*
X61060901Y-59216630D01*
X61178785Y-58932734D01*
X61179214Y-58441421D01*
X60991592Y-57987343D01*
X60644485Y-57639629D01*
X60190734Y-57451215D01*
X59699421Y-57450786D01*
X59245343Y-57638408D01*
X58897629Y-57985515D01*
X58709215Y-58439266D01*
X58708786Y-58930579D01*
X58827304Y-59217414D01*
X58747569Y-59334110D01*
X58696560Y-59586000D01*
X55108158Y-59586000D01*
X44751079Y-49228921D01*
X44496407Y-49058755D01*
X44196000Y-48999000D01*
X40101108Y-48999000D01*
X39970983Y-48804254D01*
X39536588Y-48514000D01*
X39970983Y-48223746D01*
X40271337Y-47774235D01*
X40376807Y-47244000D01*
X40271337Y-46713765D01*
X39970983Y-46264254D01*
X39536588Y-45974000D01*
X39970983Y-45683746D01*
X40271337Y-45234235D01*
X40376807Y-44704000D01*
X40271337Y-44173765D01*
X39970983Y-43724254D01*
X39536588Y-43434000D01*
X39970983Y-43143746D01*
X40271337Y-42694235D01*
X40376807Y-42164000D01*
X40328728Y-41922289D01*
X48884517Y-41922289D01*
X49013725Y-42215059D01*
X49713883Y-42483271D01*
X50463384Y-42463128D01*
X51062275Y-42215059D01*
X51191483Y-41922289D01*
X50038000Y-40768805D01*
X48884517Y-41922289D01*
X40328728Y-41922289D01*
X40271337Y-41633765D01*
X39970983Y-41184254D01*
X39521472Y-40883900D01*
X38991237Y-40778430D01*
X38224763Y-40778430D01*
X37694528Y-40883900D01*
X37245017Y-41184254D01*
X36944663Y-41633765D01*
X36839193Y-42164000D01*
X36944663Y-42694235D01*
X37245017Y-43143746D01*
X37679412Y-43434000D01*
X37245017Y-43724254D01*
X36944663Y-44173765D01*
X36839193Y-44704000D01*
X36864187Y-44829655D01*
X35766921Y-45926921D01*
X35596755Y-46181593D01*
X35596755Y-46181594D01*
X35537000Y-46482000D01*
X35537000Y-55046842D01*
X35429000Y-55154842D01*
X35429000Y-41006580D01*
X41006579Y-35429000D01*
X41533000Y-35429000D01*
X41533000Y-36772477D01*
X41244539Y-37060436D01*
X41033241Y-37569298D01*
X41032760Y-38120285D01*
X41243169Y-38629515D01*
X41632436Y-39019461D01*
X42141298Y-39230759D01*
X42692285Y-39231240D01*
X43201515Y-39020831D01*
X43591461Y-38631564D01*
X43802759Y-38122702D01*
X43803240Y-37571715D01*
X43592831Y-37062485D01*
X43303000Y-36772148D01*
X43303000Y-35429000D01*
X50179420Y-35429000D01*
X51356236Y-36605816D01*
X50981178Y-36980221D01*
X50693648Y-37672669D01*
X50692994Y-38422441D01*
X50889074Y-38896992D01*
X50362117Y-38695129D01*
X49612616Y-38715272D01*
X49189318Y-38890608D01*
X49382352Y-38425731D01*
X49383006Y-37675959D01*
X49096686Y-36983009D01*
X48566979Y-36452378D01*
X47874531Y-36164848D01*
X47124759Y-36164194D01*
X46431809Y-36450514D01*
X45901178Y-36980221D01*
X45613648Y-37672669D01*
X45612994Y-38422441D01*
X45899314Y-39115391D01*
X46429021Y-39646022D01*
X47121469Y-39933552D01*
X47871241Y-39934206D01*
X48345792Y-39738126D01*
X48143929Y-40265083D01*
X48164072Y-41014584D01*
X48412141Y-41613475D01*
X48704911Y-41742683D01*
X49858395Y-40589200D01*
X49844252Y-40575058D01*
X50023858Y-40395452D01*
X50038000Y-40409595D01*
X50052142Y-40395452D01*
X50231748Y-40575058D01*
X50217605Y-40589200D01*
X51371089Y-41742683D01*
X51663859Y-41613475D01*
X51932071Y-40913317D01*
X51911928Y-40163816D01*
X51736592Y-39740518D01*
X52201469Y-39933552D01*
X52951241Y-39934206D01*
X53644191Y-39647886D01*
X54174822Y-39118179D01*
X54462352Y-38425731D01*
X54463006Y-37675959D01*
X54176686Y-36983009D01*
X53646979Y-36452378D01*
X53419632Y-36357975D01*
X53395633Y-36237326D01*
X53395633Y-36237325D01*
X53203790Y-35950210D01*
X53203787Y-35950208D01*
X51171790Y-33918210D01*
X51161897Y-33911600D01*
X50884675Y-33726367D01*
X50828484Y-33715190D01*
X50546000Y-33658999D01*
X50545995Y-33659000D01*
X40640005Y-33659000D01*
X40640000Y-33658999D01*
X40357516Y-33715190D01*
X40301325Y-33726367D01*
X40014210Y-33918210D01*
X40014208Y-33918213D01*
X33918210Y-40014210D01*
X33726367Y-40301325D01*
X33726367Y-40301326D01*
X33658999Y-40640000D01*
X33659000Y-40640005D01*
X33659000Y-55259421D01*
X32408334Y-56510086D01*
X32350983Y-56424254D01*
X31916588Y-56134000D01*
X32350983Y-55843746D01*
X32651337Y-55394235D01*
X32756807Y-54864000D01*
X32651337Y-54333765D01*
X32350983Y-53884254D01*
X31916588Y-53594000D01*
X32350983Y-53303746D01*
X32651337Y-52854235D01*
X32756807Y-52324000D01*
X32651337Y-51793765D01*
X32350983Y-51344254D01*
X31916588Y-51054000D01*
X32350983Y-50763746D01*
X32651337Y-50314235D01*
X32756807Y-49784000D01*
X32651337Y-49253765D01*
X32350983Y-48804254D01*
X31916588Y-48514000D01*
X32350983Y-48223746D01*
X32651337Y-47774235D01*
X32756807Y-47244000D01*
X32651337Y-46713765D01*
X32350983Y-46264254D01*
X31916588Y-45974000D01*
X32350983Y-45683746D01*
X32651337Y-45234235D01*
X32756807Y-44704000D01*
X32651337Y-44173765D01*
X32350983Y-43724254D01*
X31916588Y-43434000D01*
X32350983Y-43143746D01*
X32651337Y-42694235D01*
X32756807Y-42164000D01*
X32651337Y-41633765D01*
X32350983Y-41184254D01*
X31901472Y-40883900D01*
X31371237Y-40778430D01*
X30604763Y-40778430D01*
X30074528Y-40883900D01*
X29625017Y-41184254D01*
X29494892Y-41379000D01*
X29210000Y-41379000D01*
X28909594Y-41438755D01*
X28654921Y-41608921D01*
X25606921Y-44656921D01*
X25436755Y-44911593D01*
X25436755Y-44911594D01*
X25377000Y-45212000D01*
X25377000Y-75570887D01*
X25153580Y-75720172D01*
X24873238Y-76139733D01*
X24679870Y-75794535D01*
X24248907Y-75454865D01*
X23720762Y-75305973D01*
X23500080Y-75464746D01*
X23500080Y-76581000D01*
X23520080Y-76581000D01*
X23520080Y-76835000D01*
X23500080Y-76835000D01*
X23500080Y-76855000D01*
X23246080Y-76855000D01*
X23246080Y-76835000D01*
X21903870Y-76835000D01*
X21781370Y-77051070D01*
X21798118Y-77142728D01*
X22066290Y-77621465D01*
X22497253Y-77961135D01*
X22543688Y-77974226D01*
X22115740Y-78260172D01*
X21812908Y-78713391D01*
X21706568Y-79248000D01*
X21812908Y-79782609D01*
X22115740Y-80235828D01*
X22538039Y-80518000D01*
X22115740Y-80800172D01*
X21812908Y-81253391D01*
X21706568Y-81788000D01*
X21812908Y-82322609D01*
X22115740Y-82775828D01*
X22568959Y-83078660D01*
X23103568Y-83185000D01*
X23642592Y-83185000D01*
X24177201Y-83078660D01*
X24630420Y-82775828D01*
X24767797Y-82570230D01*
X24808268Y-82785317D01*
X24947340Y-83001441D01*
X25159540Y-83146431D01*
X25411430Y-83197440D01*
X27410410Y-83197440D01*
X27645727Y-83153162D01*
X27861851Y-83014090D01*
X28006841Y-82801890D01*
X28053192Y-82573000D01*
X35814000Y-82573000D01*
X36114407Y-82513245D01*
X36369079Y-82343079D01*
X42465079Y-76247079D01*
X42635245Y-75992406D01*
X42695000Y-75692000D01*
X42695000Y-68834000D01*
X42673004Y-68723421D01*
X42635245Y-68533593D01*
X42465079Y-68278921D01*
X41195079Y-67008921D01*
X40940407Y-66838755D01*
X40640000Y-66779000D01*
X40101108Y-66779000D01*
X39970983Y-66584254D01*
X39536588Y-66294000D01*
X39970983Y-66003746D01*
X40271337Y-65554235D01*
X40376807Y-65024000D01*
X40293411Y-64604735D01*
X51640870Y-64604735D01*
X51690383Y-64830164D01*
X52155036Y-64989807D01*
X52645413Y-64959482D01*
X52957617Y-64830164D01*
X53007130Y-64604735D01*
X52324000Y-63921605D01*
X51640870Y-64604735D01*
X40293411Y-64604735D01*
X40271337Y-64493765D01*
X39970983Y-64044254D01*
X39536588Y-63754000D01*
X39807419Y-63573036D01*
X51076193Y-63573036D01*
X51106518Y-64063413D01*
X51235836Y-64375617D01*
X51461265Y-64425130D01*
X52144395Y-63742000D01*
X52130253Y-63727858D01*
X52309858Y-63548253D01*
X52324000Y-63562395D01*
X52338143Y-63548253D01*
X52517748Y-63727858D01*
X52503605Y-63742000D01*
X53186735Y-64425130D01*
X53412164Y-64375617D01*
X53571807Y-63910964D01*
X53541482Y-63420587D01*
X53449289Y-63198010D01*
X53520431Y-63093890D01*
X53571440Y-62842000D01*
X53571440Y-61642000D01*
X53527162Y-61406683D01*
X53388090Y-61190559D01*
X53175890Y-61045569D01*
X52924000Y-60994560D01*
X51724000Y-60994560D01*
X51488683Y-61038838D01*
X51272559Y-61177910D01*
X51127569Y-61390110D01*
X51076560Y-61642000D01*
X51076560Y-62842000D01*
X51120838Y-63077317D01*
X51202766Y-63204636D01*
X51076193Y-63573036D01*
X39807419Y-63573036D01*
X39970983Y-63463746D01*
X40271337Y-63014235D01*
X40376807Y-62484000D01*
X40271337Y-61953765D01*
X39970983Y-61504254D01*
X39536588Y-61214000D01*
X39970983Y-60923746D01*
X40271337Y-60474235D01*
X40376807Y-59944000D01*
X40271337Y-59413765D01*
X39970983Y-58964254D01*
X39521472Y-58663900D01*
X39513928Y-58662399D01*
X39604817Y-58635499D01*
X40026798Y-58293944D01*
X40285950Y-57816903D01*
X40300133Y-57745275D01*
X40177479Y-57531000D01*
X38735000Y-57531000D01*
X38735000Y-57551000D01*
X38481000Y-57551000D01*
X38481000Y-57531000D01*
X37038521Y-57531000D01*
X36915867Y-57745275D01*
X36930050Y-57816903D01*
X37189202Y-58293944D01*
X37611183Y-58635499D01*
X37702072Y-58662399D01*
X37694528Y-58663900D01*
X37245017Y-58964254D01*
X36944663Y-59413765D01*
X36839193Y-59944000D01*
X36944663Y-60474235D01*
X37245017Y-60923746D01*
X37679412Y-61214000D01*
X37245017Y-61504254D01*
X36944663Y-61953765D01*
X36839193Y-62484000D01*
X36944663Y-63014235D01*
X37245017Y-63463746D01*
X37679412Y-63754000D01*
X37245017Y-64044254D01*
X37114892Y-64239000D01*
X36830000Y-64239000D01*
X36529593Y-64298755D01*
X36274921Y-64468921D01*
X33988921Y-66754921D01*
X33818755Y-67009593D01*
X33818755Y-67009594D01*
X33759000Y-67310000D01*
X33759000Y-76890842D01*
X32186842Y-78463000D01*
X29894796Y-78463000D01*
X30086759Y-78000702D01*
X30087240Y-77449715D01*
X29876831Y-76940485D01*
X29487564Y-76550539D01*
X29487000Y-76550305D01*
X29487000Y-75957189D01*
X29625017Y-76163746D01*
X30074528Y-76464100D01*
X30604763Y-76569570D01*
X31371237Y-76569570D01*
X31901472Y-76464100D01*
X32350983Y-76163746D01*
X32651337Y-75714235D01*
X32756807Y-75184000D01*
X32651337Y-74653765D01*
X32350983Y-74204254D01*
X31916588Y-73914000D01*
X32350983Y-73623746D01*
X32651337Y-73174235D01*
X32756807Y-72644000D01*
X32651337Y-72113765D01*
X32350983Y-71664254D01*
X31916588Y-71374000D01*
X32350983Y-71083746D01*
X32651337Y-70634235D01*
X32756807Y-70104000D01*
X32651337Y-69573765D01*
X32350983Y-69124254D01*
X31916588Y-68834000D01*
X32350983Y-68543746D01*
X32651337Y-68094235D01*
X32756807Y-67564000D01*
X32651337Y-67033765D01*
X32350983Y-66584254D01*
X31916588Y-66294000D01*
X32350983Y-66003746D01*
X32651337Y-65554235D01*
X32756807Y-65024000D01*
X32651337Y-64493765D01*
X32350983Y-64044254D01*
X31916588Y-63754000D01*
X32350983Y-63463746D01*
X32651337Y-63014235D01*
X32756807Y-62484000D01*
X32651337Y-61953765D01*
X32350983Y-61504254D01*
X31901472Y-61203900D01*
X31893928Y-61202399D01*
X31984817Y-61175499D01*
X32406798Y-60833944D01*
X32665950Y-60356903D01*
X32680133Y-60285275D01*
X32557479Y-60071000D01*
X31115000Y-60071000D01*
X31115000Y-60091000D01*
X30861000Y-60091000D01*
X30861000Y-60071000D01*
X30841000Y-60071000D01*
X30841000Y-59817000D01*
X30861000Y-59817000D01*
X30861000Y-59797000D01*
X31115000Y-59797000D01*
X31115000Y-59817000D01*
X32557479Y-59817000D01*
X32680133Y-59602725D01*
X32665950Y-59531097D01*
X32626783Y-59459000D01*
X33020000Y-59459000D01*
X33320407Y-59399245D01*
X33575079Y-59229079D01*
X36877079Y-55927079D01*
X37047245Y-55672407D01*
X37066351Y-55576354D01*
X37245017Y-55843746D01*
X37694528Y-56144100D01*
X37702072Y-56145601D01*
X37611183Y-56172501D01*
X37189202Y-56514056D01*
X36930050Y-56991097D01*
X36915867Y-57062725D01*
X37038521Y-57277000D01*
X38481000Y-57277000D01*
X38481000Y-57257000D01*
X38735000Y-57257000D01*
X38735000Y-57277000D01*
X40177479Y-57277000D01*
X40300133Y-57062725D01*
X40285950Y-56991097D01*
X40026798Y-56514056D01*
X39604817Y-56172501D01*
X39513928Y-56145601D01*
X39521472Y-56144100D01*
X39970983Y-55843746D01*
X40271337Y-55394235D01*
X40376807Y-54864000D01*
X40271337Y-54333765D01*
X39970983Y-53884254D01*
X39536588Y-53594000D01*
X39970983Y-53303746D01*
X40271337Y-52854235D01*
X40376807Y-52324000D01*
X40271337Y-51793765D01*
X39970983Y-51344254D01*
X39536588Y-51054000D01*
X39970983Y-50763746D01*
X40101108Y-50569000D01*
X43870842Y-50569000D01*
X55349000Y-62047157D01*
X55349000Y-68168651D01*
X54960539Y-68556436D01*
X54749241Y-69065298D01*
X54748760Y-69616285D01*
X54959169Y-70125515D01*
X55348436Y-70515461D01*
X55857298Y-70726759D01*
X56408285Y-70727240D01*
X56917515Y-70516831D01*
X57210800Y-70224057D01*
X57230098Y-70326617D01*
X57369170Y-70542741D01*
X57581370Y-70687731D01*
X57833260Y-70738740D01*
X59133740Y-70738740D01*
X59369057Y-70694462D01*
X59434546Y-70652321D01*
X59486370Y-70687731D01*
X59738260Y-70738740D01*
X61038740Y-70738740D01*
X61274057Y-70694462D01*
X61490181Y-70555390D01*
X61635171Y-70343190D01*
X61686180Y-70091300D01*
X61686180Y-70063500D01*
X61782415Y-70063500D01*
X61945090Y-70174651D01*
X62196980Y-70225660D01*
X63197740Y-70225660D01*
X63433057Y-70181382D01*
X63649181Y-70042310D01*
X63794171Y-69830110D01*
X63845180Y-69578220D01*
X63845180Y-69075622D01*
X63846170Y-69077161D01*
X64058370Y-69222151D01*
X64310260Y-69273160D01*
X65311020Y-69273160D01*
X65546337Y-69228882D01*
X65729531Y-69111000D01*
X66448000Y-69111000D01*
X66748407Y-69051245D01*
X67003079Y-68881079D01*
X67017000Y-68867158D01*
X67213373Y-68948699D01*
X67903599Y-68949301D01*
X68541515Y-68685719D01*
X69030004Y-68198082D01*
X69294699Y-67560627D01*
X69295301Y-66870401D01*
X69212983Y-66671175D01*
X69389079Y-66495079D01*
X69559245Y-66240407D01*
X69619000Y-65940000D01*
X69619000Y-63691983D01*
X69769087Y-63663742D01*
X69981000Y-63527380D01*
X69981000Y-70499421D01*
X69133420Y-71347000D01*
X69071598Y-71347000D01*
X69031719Y-71250485D01*
X68544082Y-70761996D01*
X67906627Y-70497301D01*
X67216401Y-70496699D01*
X66578485Y-70760281D01*
X66089996Y-71247918D01*
X65825301Y-71885373D01*
X65824699Y-72575599D01*
X66088281Y-73213515D01*
X66411202Y-73537000D01*
X46990005Y-73537000D01*
X46990000Y-73536999D01*
X46707516Y-73593190D01*
X46651325Y-73604367D01*
X46364210Y-73796210D01*
X46364208Y-73796213D01*
X38704210Y-81456210D01*
X38512367Y-81743325D01*
X38512367Y-81743326D01*
X38444999Y-82082000D01*
X38445000Y-82082005D01*
X38445000Y-85321102D01*
X38263628Y-85396043D01*
X37732907Y-85925839D01*
X37445328Y-86618405D01*
X37444674Y-87368305D01*
X37731043Y-88061372D01*
X38260839Y-88592093D01*
X38953405Y-88879672D01*
X39703305Y-88880326D01*
X40396372Y-88593957D01*
X40927093Y-88064161D01*
X41214672Y-87371595D01*
X41215326Y-86621695D01*
X40928957Y-85928628D01*
X40399161Y-85397907D01*
X40215000Y-85321437D01*
X40215000Y-82448580D01*
X47356579Y-75307000D01*
X52733980Y-75307000D01*
X52714210Y-75320210D01*
X52714208Y-75320213D01*
X44372210Y-83662210D01*
X44180367Y-83949325D01*
X44180367Y-83949326D01*
X44112999Y-84288000D01*
X44113000Y-84288005D01*
X44113000Y-85321102D01*
X43931628Y-85396043D01*
X43400907Y-85925839D01*
X43113328Y-86618405D01*
X43112674Y-87368305D01*
X43399043Y-88061372D01*
X43928839Y-88592093D01*
X44621405Y-88879672D01*
X45371305Y-88880326D01*
X46064372Y-88593957D01*
X46595093Y-88064161D01*
X46882672Y-87371595D01*
X46883326Y-86621695D01*
X46596957Y-85928628D01*
X46067161Y-85397907D01*
X45883000Y-85321437D01*
X45883000Y-84654580D01*
X53706579Y-76831000D01*
X64083008Y-76831000D01*
X63835817Y-77077760D01*
X63525354Y-77825438D01*
X63524648Y-78635011D01*
X63833805Y-79383229D01*
X64405760Y-79956183D01*
X65153438Y-80266646D01*
X65963011Y-80267352D01*
X66711229Y-79958195D01*
X67284183Y-79386240D01*
X67594646Y-78638562D01*
X67595352Y-77828989D01*
X67286195Y-77080771D01*
X67036859Y-76831000D01*
X80771995Y-76831000D01*
X80772000Y-76831001D01*
X81054484Y-76774810D01*
X81110675Y-76763633D01*
X81397790Y-76571790D01*
X81397791Y-76571789D01*
X83429787Y-74539792D01*
X83429790Y-74539790D01*
X83621633Y-74252675D01*
X83666012Y-74029570D01*
X83689001Y-73914000D01*
X83689000Y-73913995D01*
X83689000Y-70258005D01*
X83689001Y-70258000D01*
X83621633Y-69919325D01*
X83606769Y-69897079D01*
X83429790Y-69632210D01*
X83429787Y-69632208D01*
X81607669Y-67810089D01*
X81694663Y-67600584D01*
X81695335Y-66830793D01*
X81401370Y-66119342D01*
X80857521Y-65574543D01*
X80146584Y-65279337D01*
X79376793Y-65278665D01*
X78665342Y-65572630D01*
X78120543Y-66116479D01*
X77825337Y-66827416D01*
X77824665Y-67597207D01*
X78118630Y-68308658D01*
X78662479Y-68853457D01*
X79373416Y-69148663D01*
X80143207Y-69149335D01*
X80355881Y-69061460D01*
X81919000Y-70624579D01*
X81919000Y-73547421D01*
X80405420Y-75061000D01*
X73758020Y-75061000D01*
X73777790Y-75047790D01*
X73777791Y-75047789D01*
X75708579Y-73117000D01*
X78032001Y-73117000D01*
X78118630Y-73326658D01*
X78662479Y-73871457D01*
X79373416Y-74166663D01*
X80143207Y-74167335D01*
X80854658Y-73873370D01*
X81399457Y-73329521D01*
X81694663Y-72618584D01*
X81695335Y-71848793D01*
X81401370Y-71137342D01*
X80857521Y-70592543D01*
X80146584Y-70297337D01*
X79376793Y-70296665D01*
X78665342Y-70590630D01*
X78120543Y-71134479D01*
X78032297Y-71347000D01*
X75342005Y-71347000D01*
X75342000Y-71346999D01*
X75059516Y-71403190D01*
X75003325Y-71414367D01*
X74716210Y-71606210D01*
X74716208Y-71606213D01*
X72785420Y-73537000D01*
X68708525Y-73537000D01*
X69030004Y-73216082D01*
X69071147Y-73117000D01*
X69499995Y-73117000D01*
X69500000Y-73117001D01*
X69782484Y-73060810D01*
X69838675Y-73049633D01*
X70125790Y-72857790D01*
X70125791Y-72857789D01*
X71491787Y-71491792D01*
X71491790Y-71491790D01*
X71683633Y-71204675D01*
X71697596Y-71134479D01*
X71751001Y-70866000D01*
X71751000Y-70865995D01*
X71751000Y-63369000D01*
X79135420Y-63369000D01*
X83697000Y-67930579D01*
X83697000Y-74563421D01*
X80839760Y-77420660D01*
X70391037Y-77420660D01*
X70390932Y-77420103D01*
X70251860Y-77203979D01*
X70039660Y-77058989D01*
X69787770Y-77007980D01*
X68388230Y-77007980D01*
X68152913Y-77052258D01*
X67936789Y-77191330D01*
X67791799Y-77403530D01*
X67740790Y-77655420D01*
X67740790Y-78955900D01*
X67785068Y-79191217D01*
X67924140Y-79407341D01*
X68136340Y-79552331D01*
X68388230Y-79603340D01*
X69787770Y-79603340D01*
X70023087Y-79559062D01*
X70239211Y-79419990D01*
X70384201Y-79207790D01*
X70387670Y-79190660D01*
X70485260Y-79190660D01*
X70485260Y-79961740D01*
X70529538Y-80197057D01*
X70571679Y-80262546D01*
X70536269Y-80314370D01*
X70514607Y-80421340D01*
X70409853Y-80421340D01*
X70390932Y-80320783D01*
X70251860Y-80104659D01*
X70039660Y-79959669D01*
X69787770Y-79908660D01*
X68388230Y-79908660D01*
X68152913Y-79952938D01*
X67936789Y-80092010D01*
X67791799Y-80304210D01*
X67740790Y-80556100D01*
X67740790Y-81856580D01*
X67785068Y-82091897D01*
X67924140Y-82308021D01*
X68136340Y-82453011D01*
X68213255Y-82468587D01*
X68103000Y-82578842D01*
X67906627Y-82497301D01*
X67216401Y-82496699D01*
X66578485Y-82760281D01*
X66089996Y-83247918D01*
X66007330Y-83447000D01*
X65507158Y-83447000D01*
X65111719Y-83051561D01*
X64857047Y-82881395D01*
X64556640Y-82821640D01*
X64117156Y-82821640D01*
X64009810Y-82654819D01*
X63936655Y-82604835D01*
X64071500Y-82469990D01*
X64071500Y-81620360D01*
X64325500Y-81620360D01*
X64325500Y-82469990D01*
X64484250Y-82628740D01*
X64624529Y-82628740D01*
X64857918Y-82532067D01*
X65036547Y-82353439D01*
X65133220Y-82120050D01*
X65133220Y-81779110D01*
X64974470Y-81620360D01*
X64325500Y-81620360D01*
X64071500Y-81620360D01*
X63422530Y-81620360D01*
X63263780Y-81779110D01*
X63263780Y-82120050D01*
X63360453Y-82353439D01*
X63465835Y-82458820D01*
X63043122Y-82458820D01*
X63044661Y-82457830D01*
X63189651Y-82245630D01*
X63240660Y-81993740D01*
X63240660Y-80992980D01*
X63216894Y-80866670D01*
X63263780Y-80866670D01*
X63263780Y-81207610D01*
X63422530Y-81366360D01*
X64071500Y-81366360D01*
X64071500Y-80516730D01*
X64325500Y-80516730D01*
X64325500Y-81366360D01*
X64974470Y-81366360D01*
X65133220Y-81207610D01*
X65133220Y-80866670D01*
X65036547Y-80633281D01*
X64857918Y-80454653D01*
X64624529Y-80357980D01*
X64484250Y-80357980D01*
X64325500Y-80516730D01*
X64071500Y-80516730D01*
X63912750Y-80357980D01*
X63772471Y-80357980D01*
X63539082Y-80454653D01*
X63360453Y-80633281D01*
X63263780Y-80866670D01*
X63216894Y-80866670D01*
X63196382Y-80757663D01*
X63078500Y-80574469D01*
X63078500Y-80329446D01*
X63268181Y-80207390D01*
X63413171Y-79995190D01*
X63464180Y-79743300D01*
X63464180Y-78244700D01*
X63419902Y-78009383D01*
X63280830Y-77793259D01*
X63068630Y-77648269D01*
X62816740Y-77597260D01*
X61516260Y-77597260D01*
X61280943Y-77641538D01*
X61215454Y-77683679D01*
X61163630Y-77648269D01*
X60911740Y-77597260D01*
X59611260Y-77597260D01*
X59375943Y-77641538D01*
X59159819Y-77780610D01*
X59059000Y-77928163D01*
X58951564Y-77820539D01*
X58442702Y-77609241D01*
X57891715Y-77608760D01*
X57382485Y-77819169D01*
X56992539Y-78208436D01*
X56781241Y-78717298D01*
X56780760Y-79268285D01*
X56991169Y-79777515D01*
X57380436Y-80167461D01*
X57889298Y-80378759D01*
X58440285Y-80379240D01*
X58949515Y-80168831D01*
X59059711Y-80058826D01*
X59147170Y-80194741D01*
X59359370Y-80339731D01*
X59611260Y-80390740D01*
X60911740Y-80390740D01*
X61147057Y-80346462D01*
X61212546Y-80304321D01*
X61264370Y-80339731D01*
X61508500Y-80389169D01*
X61508500Y-80578415D01*
X61397349Y-80741090D01*
X61346340Y-80992980D01*
X61346340Y-81993740D01*
X61390618Y-82229057D01*
X61529690Y-82445181D01*
X61741890Y-82590171D01*
X61993780Y-82641180D01*
X62496378Y-82641180D01*
X62494839Y-82642170D01*
X62349849Y-82854370D01*
X62298840Y-83106260D01*
X62298840Y-84107020D01*
X62343118Y-84342337D01*
X62482190Y-84558461D01*
X62694390Y-84703451D01*
X62946280Y-84754460D01*
X63545720Y-84754460D01*
X63781037Y-84710182D01*
X63997161Y-84571110D01*
X64119788Y-84391640D01*
X64231482Y-84391640D01*
X64626921Y-84787079D01*
X64881594Y-84957245D01*
X65182000Y-85017001D01*
X65182005Y-85017000D01*
X66007083Y-85017000D01*
X66088281Y-85213515D01*
X66575918Y-85702004D01*
X67213373Y-85966699D01*
X67903599Y-85967301D01*
X68541515Y-85703719D01*
X69030004Y-85216082D01*
X69294699Y-84578627D01*
X69295301Y-83888401D01*
X69212983Y-83689175D01*
X69643079Y-83259079D01*
X69813245Y-83004407D01*
X69873000Y-82704000D01*
X69873000Y-82487983D01*
X70023087Y-82459742D01*
X70239211Y-82320670D01*
X70384201Y-82108470D01*
X70407920Y-81991340D01*
X70508705Y-81991340D01*
X70529538Y-82102057D01*
X70668610Y-82318181D01*
X70880810Y-82463171D01*
X71132700Y-82514180D01*
X72631300Y-82514180D01*
X72866617Y-82469902D01*
X73082741Y-82330830D01*
X73227731Y-82118630D01*
X73278740Y-81866740D01*
X73278740Y-80566260D01*
X73234462Y-80330943D01*
X73192321Y-80265454D01*
X73227731Y-80213630D01*
X73278740Y-79961740D01*
X73278740Y-79190660D01*
X81206335Y-79190660D01*
X81206340Y-79190661D01*
X81488824Y-79134470D01*
X81545015Y-79123293D01*
X81832130Y-78931450D01*
X85207787Y-75555792D01*
X85207790Y-75555790D01*
X85290000Y-75432753D01*
X85290000Y-91290000D01*
X73953580Y-91290000D01*
X75864798Y-89378781D01*
X75864760Y-89422789D01*
X76189090Y-90207727D01*
X76789114Y-90808800D01*
X77573485Y-91134499D01*
X78422789Y-91135240D01*
X79207727Y-90810910D01*
X79808800Y-90210886D01*
X80134499Y-89426515D01*
X80135240Y-88577211D01*
X79810910Y-87792273D01*
X79210886Y-87191200D01*
X78426515Y-86865501D01*
X78378121Y-86865459D01*
X79163910Y-86079669D01*
X79373416Y-86166663D01*
X80143207Y-86167335D01*
X80854658Y-85873370D01*
X81399457Y-85329521D01*
X81694663Y-84618584D01*
X81695335Y-83848793D01*
X81401370Y-83137342D01*
X80857521Y-82592543D01*
X80146584Y-82297337D01*
X79376793Y-82296665D01*
X78665342Y-82590630D01*
X78120543Y-83134479D01*
X77825337Y-83845416D01*
X77824665Y-84615207D01*
X77912540Y-84827881D01*
X72947420Y-89793000D01*
X53960579Y-89793000D01*
X51781888Y-87614309D01*
X51882672Y-87371595D01*
X51882674Y-87368305D01*
X53780674Y-87368305D01*
X54067043Y-88061372D01*
X54596839Y-88592093D01*
X55289405Y-88879672D01*
X56039305Y-88880326D01*
X56732372Y-88593957D01*
X57263093Y-88064161D01*
X57550672Y-87371595D01*
X57550674Y-87368305D01*
X58780674Y-87368305D01*
X59067043Y-88061372D01*
X59596839Y-88592093D01*
X60289405Y-88879672D01*
X61039305Y-88880326D01*
X61732372Y-88593957D01*
X62263093Y-88064161D01*
X62550672Y-87371595D01*
X62551326Y-86621695D01*
X62264957Y-85928628D01*
X61735161Y-85397907D01*
X61042595Y-85110328D01*
X60292695Y-85109674D01*
X59599628Y-85396043D01*
X59068907Y-85925839D01*
X58781328Y-86618405D01*
X58780674Y-87368305D01*
X57550674Y-87368305D01*
X57551326Y-86621695D01*
X57264957Y-85928628D01*
X56735161Y-85397907D01*
X56042595Y-85110328D01*
X55292695Y-85109674D01*
X54599628Y-85396043D01*
X54068907Y-85925839D01*
X53781328Y-86618405D01*
X53780674Y-87368305D01*
X51882674Y-87368305D01*
X51883326Y-86621695D01*
X51596957Y-85928628D01*
X51067161Y-85397907D01*
X50374595Y-85110328D01*
X49624695Y-85109674D01*
X48931628Y-85396043D01*
X48400907Y-85925839D01*
X48113328Y-86618405D01*
X48112674Y-87368305D01*
X48399043Y-88061372D01*
X48928839Y-88592093D01*
X49621405Y-88879672D01*
X50371305Y-88880326D01*
X50494035Y-88829615D01*
X52954421Y-91290000D01*
X20710000Y-91290000D01*
X20710000Y-85066158D01*
X21542921Y-85899079D01*
X21797593Y-86069245D01*
X22098000Y-86129000D01*
X22307189Y-86129000D01*
X22331340Y-86250416D01*
X22634172Y-86703635D01*
X23087391Y-87006467D01*
X23622000Y-87112807D01*
X24156609Y-87006467D01*
X24609828Y-86703635D01*
X24759343Y-86479870D01*
X24796838Y-86679137D01*
X24935910Y-86895261D01*
X25148110Y-87040251D01*
X25400000Y-87091260D01*
X26924000Y-87091260D01*
X27116871Y-87054969D01*
X26792273Y-87189090D01*
X26191200Y-87789114D01*
X25865501Y-88573485D01*
X25864760Y-89422789D01*
X26189090Y-90207727D01*
X26789114Y-90808800D01*
X27573485Y-91134499D01*
X28422789Y-91135240D01*
X29207727Y-90810910D01*
X29808800Y-90210886D01*
X30134499Y-89426515D01*
X30135240Y-88577211D01*
X29810910Y-87792273D01*
X29387682Y-87368305D01*
X32444674Y-87368305D01*
X32731043Y-88061372D01*
X33260839Y-88592093D01*
X33953405Y-88879672D01*
X34703305Y-88880326D01*
X35396372Y-88593957D01*
X35927093Y-88064161D01*
X36214672Y-87371595D01*
X36215326Y-86621695D01*
X35928957Y-85928628D01*
X35399161Y-85397907D01*
X34706595Y-85110328D01*
X33956695Y-85109674D01*
X33263628Y-85396043D01*
X32732907Y-85925839D01*
X32445328Y-86618405D01*
X32444674Y-87368305D01*
X29387682Y-87368305D01*
X29210886Y-87191200D01*
X28426515Y-86865501D01*
X27577211Y-86864760D01*
X27200793Y-87020293D01*
X27375441Y-86907910D01*
X27520431Y-86695710D01*
X27571440Y-86443820D01*
X27571440Y-84244180D01*
X27527162Y-84008863D01*
X27388090Y-83792739D01*
X27175890Y-83647749D01*
X26924000Y-83596740D01*
X25400000Y-83596740D01*
X25164683Y-83641018D01*
X24948559Y-83780090D01*
X24803569Y-83992290D01*
X24759740Y-84208724D01*
X24609828Y-83984365D01*
X24156609Y-83681533D01*
X23622000Y-83575193D01*
X23087391Y-83681533D01*
X22634172Y-83984365D01*
X22331340Y-84437584D01*
X22326429Y-84462271D01*
X21613000Y-83748842D01*
X21613000Y-76364930D01*
X21781370Y-76364930D01*
X21903870Y-76581000D01*
X23246080Y-76581000D01*
X23246080Y-75464746D01*
X23025398Y-75305973D01*
X22497253Y-75454865D01*
X22066290Y-75794535D01*
X21798118Y-76273272D01*
X21781370Y-76364930D01*
X21613000Y-76364930D01*
X21613000Y-54935158D01*
X23601397Y-52946761D01*
X24150285Y-52947240D01*
X24659515Y-52736831D01*
X25049461Y-52347564D01*
X25260759Y-51838702D01*
X25261240Y-51287715D01*
X25050831Y-50778485D01*
X24661564Y-50388539D01*
X24152702Y-50177241D01*
X23601715Y-50176760D01*
X23092485Y-50387169D01*
X22702539Y-50776436D01*
X22491241Y-51285298D01*
X22490760Y-51836285D01*
X22490993Y-51836849D01*
X20710000Y-53617842D01*
X20710000Y-34027745D01*
X33616861Y-34027745D01*
X33690995Y-34273864D01*
X34228223Y-34466965D01*
X34798454Y-34439778D01*
X35199005Y-34273864D01*
X35273139Y-34027745D01*
X34445000Y-33199605D01*
X33616861Y-34027745D01*
X20710000Y-34027745D01*
X20710000Y-32803223D01*
X32998035Y-32803223D01*
X33025222Y-33373454D01*
X33191136Y-33774005D01*
X33437255Y-33848139D01*
X34265395Y-33020000D01*
X34624605Y-33020000D01*
X35452745Y-33848139D01*
X35698864Y-33774005D01*
X35891965Y-33236777D01*
X35864778Y-32666546D01*
X35698864Y-32265995D01*
X35546165Y-32220000D01*
X36497560Y-32220000D01*
X36497560Y-33820000D01*
X36541838Y-34055317D01*
X36680910Y-34271441D01*
X36893110Y-34416431D01*
X37145000Y-34467440D01*
X38745000Y-34467440D01*
X38980317Y-34423162D01*
X39196441Y-34284090D01*
X39341431Y-34071890D01*
X39392440Y-33820000D01*
X39392440Y-32220000D01*
X39348162Y-31984683D01*
X39209090Y-31768559D01*
X38996890Y-31623569D01*
X38745000Y-31572560D01*
X37145000Y-31572560D01*
X36909683Y-31616838D01*
X36693559Y-31755910D01*
X36548569Y-31968110D01*
X36497560Y-32220000D01*
X35546165Y-32220000D01*
X35452745Y-32191861D01*
X34624605Y-33020000D01*
X34265395Y-33020000D01*
X33437255Y-32191861D01*
X33191136Y-32265995D01*
X32998035Y-32803223D01*
X20710000Y-32803223D01*
X20710000Y-32012255D01*
X33616861Y-32012255D01*
X34445000Y-32840395D01*
X35273139Y-32012255D01*
X35199005Y-31766136D01*
X34661777Y-31573035D01*
X34091546Y-31600222D01*
X33690995Y-31766136D01*
X33616861Y-32012255D01*
X20710000Y-32012255D01*
X20710000Y-31036260D01*
X64378568Y-31036260D01*
X64484038Y-31566495D01*
X64784392Y-32016006D01*
X65233903Y-32316360D01*
X65757753Y-32420560D01*
X65233903Y-32524760D01*
X64784392Y-32825114D01*
X64484038Y-33274625D01*
X64378568Y-33804860D01*
X64484038Y-34335095D01*
X64784392Y-34784606D01*
X65233903Y-35084960D01*
X65764138Y-35190430D01*
X65233903Y-35295900D01*
X64784392Y-35596254D01*
X64484038Y-36045765D01*
X64378568Y-36576000D01*
X64484038Y-37106235D01*
X64784392Y-37555746D01*
X65233903Y-37856100D01*
X65764138Y-37961570D01*
X65233903Y-38067040D01*
X64784392Y-38367394D01*
X64484038Y-38816905D01*
X64378568Y-39347140D01*
X64484038Y-39877375D01*
X64784392Y-40326886D01*
X65233903Y-40627240D01*
X65764138Y-40732710D01*
X65918078Y-40732710D01*
X65918078Y-40883353D01*
X65698957Y-40722659D01*
X65173247Y-40865899D01*
X64742370Y-41199416D01*
X64471923Y-41672435D01*
X64453277Y-41774465D01*
X64575931Y-41988740D01*
X65918080Y-41988740D01*
X65918080Y-41968740D01*
X66172080Y-41968740D01*
X66172080Y-41988740D01*
X67514229Y-41988740D01*
X67636883Y-41774465D01*
X67618237Y-41672435D01*
X67347790Y-41199416D01*
X66916913Y-40865899D01*
X66391203Y-40722659D01*
X66172082Y-40883353D01*
X66172082Y-40732710D01*
X66326022Y-40732710D01*
X66856257Y-40627240D01*
X67305768Y-40326886D01*
X67606122Y-39877375D01*
X67711592Y-39347140D01*
X67606122Y-38816905D01*
X67305768Y-38367394D01*
X66856257Y-38067040D01*
X66326022Y-37961570D01*
X66856257Y-37856100D01*
X67305768Y-37555746D01*
X67606122Y-37106235D01*
X67711592Y-36576000D01*
X67606122Y-36045765D01*
X67305768Y-35596254D01*
X66856257Y-35295900D01*
X66326022Y-35190430D01*
X66856257Y-35084960D01*
X67305768Y-34784606D01*
X67606122Y-34335095D01*
X67711592Y-33804860D01*
X67606122Y-33274625D01*
X67305768Y-32825114D01*
X66856257Y-32524760D01*
X66332407Y-32420560D01*
X67416408Y-32420560D01*
X67521878Y-32950795D01*
X67822232Y-33400306D01*
X68271743Y-33700660D01*
X68801978Y-33806130D01*
X68271743Y-33911600D01*
X67822232Y-34211954D01*
X67521878Y-34661465D01*
X67416408Y-35191700D01*
X67521878Y-35721935D01*
X67822232Y-36171446D01*
X68271743Y-36471800D01*
X68795593Y-36576000D01*
X68271743Y-36680200D01*
X67822232Y-36980554D01*
X67521878Y-37430065D01*
X67416408Y-37960300D01*
X67521878Y-38490535D01*
X67822232Y-38940046D01*
X68271743Y-39240400D01*
X68801978Y-39345870D01*
X68271743Y-39451340D01*
X67822232Y-39751694D01*
X67521878Y-40201205D01*
X67416408Y-40731440D01*
X67521878Y-41261675D01*
X67822232Y-41711186D01*
X68271743Y-42011540D01*
X68801978Y-42117010D01*
X69363862Y-42117010D01*
X69894097Y-42011540D01*
X70343608Y-41711186D01*
X70643962Y-41261675D01*
X70749432Y-40731440D01*
X70643962Y-40201205D01*
X70343608Y-39751694D01*
X69894097Y-39451340D01*
X69363862Y-39345870D01*
X69894097Y-39240400D01*
X70343608Y-38940046D01*
X70643962Y-38490535D01*
X70749432Y-37960300D01*
X70643962Y-37430065D01*
X70343608Y-36980554D01*
X69894097Y-36680200D01*
X69370247Y-36576000D01*
X69894097Y-36471800D01*
X70343608Y-36171446D01*
X70643962Y-35721935D01*
X70749432Y-35191700D01*
X70643962Y-34661465D01*
X70343608Y-34211954D01*
X69894097Y-33911600D01*
X69363862Y-33806130D01*
X69894097Y-33700660D01*
X70343608Y-33400306D01*
X70643962Y-32950795D01*
X70749432Y-32420560D01*
X70643962Y-31890325D01*
X70343608Y-31440814D01*
X69894097Y-31140460D01*
X69363862Y-31034990D01*
X68801978Y-31034990D01*
X68271743Y-31140460D01*
X67822232Y-31440814D01*
X67521878Y-31890325D01*
X67416408Y-32420560D01*
X66332407Y-32420560D01*
X66856257Y-32316360D01*
X67305768Y-32016006D01*
X67606122Y-31566495D01*
X67711592Y-31036260D01*
X67606122Y-30506025D01*
X67305768Y-30056514D01*
X66856257Y-29756160D01*
X66326022Y-29650690D01*
X65764138Y-29650690D01*
X65233903Y-29756160D01*
X64784392Y-30056514D01*
X64484038Y-30506025D01*
X64378568Y-31036260D01*
X20710000Y-31036260D01*
X20710000Y-28651532D01*
X21268073Y-28651532D01*
X21366736Y-28918387D01*
X21976461Y-29144908D01*
X22626460Y-29120856D01*
X23115264Y-28918387D01*
X23213927Y-28651532D01*
X22241000Y-27678605D01*
X21268073Y-28651532D01*
X20710000Y-28651532D01*
X20710000Y-28103806D01*
X20821613Y-28373264D01*
X21088468Y-28471927D01*
X22061395Y-27499000D01*
X22420605Y-27499000D01*
X23393532Y-28471927D01*
X23660387Y-28373264D01*
X23886908Y-27763539D01*
X23862856Y-27113540D01*
X23660387Y-26624736D01*
X23393532Y-26526073D01*
X22420605Y-27499000D01*
X22061395Y-27499000D01*
X21088468Y-26526073D01*
X20821613Y-26624736D01*
X20710000Y-26925164D01*
X20710000Y-26346468D01*
X21268073Y-26346468D01*
X22241000Y-27319395D01*
X23213927Y-26346468D01*
X23115264Y-26079613D01*
X22505539Y-25853092D01*
X21855540Y-25877144D01*
X21366736Y-26079613D01*
X21268073Y-26346468D01*
X20710000Y-26346468D01*
X20710000Y-24702719D01*
X64427827Y-24702719D01*
X64904192Y-25855611D01*
X65785489Y-26738448D01*
X66937548Y-27216825D01*
X68184979Y-27217913D01*
X69337871Y-26741548D01*
X70220708Y-25860251D01*
X70699085Y-24708192D01*
X70700173Y-23460761D01*
X70223808Y-22307869D01*
X69342511Y-21425032D01*
X68190452Y-20946655D01*
X66943021Y-20945567D01*
X65790129Y-21421932D01*
X64907292Y-22303229D01*
X64428915Y-23455288D01*
X64427827Y-24702719D01*
X20710000Y-24702719D01*
X20710000Y-22265285D01*
X47653797Y-22265285D01*
X48015943Y-23141744D01*
X48685929Y-23812900D01*
X49561755Y-24176575D01*
X50510085Y-24177403D01*
X51386544Y-23815257D01*
X52057700Y-23145271D01*
X52421375Y-22269445D01*
X52422203Y-21321115D01*
X52060057Y-20444656D01*
X51390071Y-19773500D01*
X50514245Y-19409825D01*
X49565915Y-19408997D01*
X48689456Y-19771143D01*
X48018300Y-20441129D01*
X47654625Y-21316955D01*
X47653797Y-22265285D01*
X20710000Y-22265285D01*
X20710000Y-20322795D01*
X22605716Y-20322795D01*
X22854106Y-20923943D01*
X23313637Y-21384278D01*
X23914352Y-21633716D01*
X24564795Y-21634284D01*
X25133449Y-21399320D01*
X32922285Y-21399320D01*
X33051533Y-21692123D01*
X33751806Y-21960388D01*
X34501435Y-21940250D01*
X35100467Y-21692123D01*
X35229715Y-21399320D01*
X34076000Y-20245605D01*
X32922285Y-21399320D01*
X25133449Y-21399320D01*
X25165943Y-21385894D01*
X25626278Y-20926363D01*
X25875716Y-20325648D01*
X25876284Y-19675205D01*
X25627894Y-19074057D01*
X25168363Y-18613722D01*
X24708545Y-18422789D01*
X25864760Y-18422789D01*
X26189090Y-19207727D01*
X26789114Y-19808800D01*
X27573485Y-20134499D01*
X28422789Y-20135240D01*
X29207727Y-19810910D01*
X29276951Y-19741806D01*
X32181612Y-19741806D01*
X32201750Y-20491435D01*
X32449877Y-21090467D01*
X32742680Y-21219715D01*
X33896395Y-20066000D01*
X34255605Y-20066000D01*
X35409320Y-21219715D01*
X35702123Y-21090467D01*
X35951574Y-20439305D01*
X37190674Y-20439305D01*
X37477043Y-21132372D01*
X38006839Y-21663093D01*
X38699405Y-21950672D01*
X39449305Y-21951326D01*
X40142372Y-21664957D01*
X40673093Y-21135161D01*
X40960672Y-20442595D01*
X40961326Y-19692695D01*
X40674957Y-18999628D01*
X40145161Y-18468907D01*
X40034097Y-18422789D01*
X75864760Y-18422789D01*
X76189090Y-19207727D01*
X76789114Y-19808800D01*
X77573485Y-20134499D01*
X78422789Y-20135240D01*
X79207727Y-19810910D01*
X79808800Y-19210886D01*
X80134499Y-18426515D01*
X80135240Y-17577211D01*
X79810910Y-16792273D01*
X79210886Y-16191200D01*
X78426515Y-15865501D01*
X77577211Y-15864760D01*
X76792273Y-16189090D01*
X76191200Y-16789114D01*
X75865501Y-17573485D01*
X75864760Y-18422789D01*
X40034097Y-18422789D01*
X39452595Y-18181328D01*
X38702695Y-18180674D01*
X38009628Y-18467043D01*
X37478907Y-18996839D01*
X37191328Y-19689405D01*
X37190674Y-20439305D01*
X35951574Y-20439305D01*
X35970388Y-20390194D01*
X35950250Y-19640565D01*
X35702123Y-19041533D01*
X35409320Y-18912285D01*
X34255605Y-20066000D01*
X33896395Y-20066000D01*
X32742680Y-18912285D01*
X32449877Y-19041533D01*
X32181612Y-19741806D01*
X29276951Y-19741806D01*
X29808800Y-19210886D01*
X30007368Y-18732680D01*
X32922285Y-18732680D01*
X34076000Y-19886395D01*
X35229715Y-18732680D01*
X35100467Y-18439877D01*
X34400194Y-18171612D01*
X33650565Y-18191750D01*
X33051533Y-18439877D01*
X32922285Y-18732680D01*
X30007368Y-18732680D01*
X30134499Y-18426515D01*
X30135240Y-17577211D01*
X29810910Y-16792273D01*
X29210886Y-16191200D01*
X28426515Y-15865501D01*
X27577211Y-15864760D01*
X26792273Y-16189090D01*
X26191200Y-16789114D01*
X25865501Y-17573485D01*
X25864760Y-18422789D01*
X24708545Y-18422789D01*
X24567648Y-18364284D01*
X23917205Y-18363716D01*
X23316057Y-18612106D01*
X22855722Y-19071637D01*
X22606284Y-19672352D01*
X22605716Y-20322795D01*
X20710000Y-20322795D01*
X20710000Y-15710000D01*
X85290000Y-15710000D01*
X85290000Y-67061247D01*
M02*
