G04 #@! TF.FileFunction,Copper,L2,Bot,Signal*
%FSLAX46Y46*%
G04 Gerber Fmt 4.6, Leading zero omitted, Abs format (unit mm)*
G04 Created by KiCad (PCBNEW 4.0.6) date 12/06/17 14:38:59*
%MOMM*%
%LPD*%
G01*
G04 APERTURE LIST*
%ADD10C,0.100000*%
%ADD11C,2.999740*%
%ADD12C,2.499360*%
%ADD13R,1.600000X1.600000*%
%ADD14C,1.600000*%
%ADD15C,2.500000*%
%ADD16R,1.524000X1.998980*%
%ADD17O,1.524000X1.998980*%
%ADD18R,2.199640X1.524000*%
%ADD19O,2.199640X1.524000*%
%ADD20C,5.001260*%
%ADD21O,1.998980X1.501140*%
%ADD22C,2.200000*%
%ADD23C,2.600000*%
%ADD24C,2.800000*%
%ADD25C,2.000000*%
%ADD26R,1.200000X1.200000*%
%ADD27C,1.200000*%
%ADD28C,1.000000*%
%ADD29C,0.500000*%
%ADD30C,0.250000*%
%ADD31C,0.254000*%
G04 APERTURE END LIST*
D10*
D11*
X78000000Y-18000000D03*
X28000000Y-18000000D03*
X28000000Y-89000000D03*
D12*
X52578000Y-38049200D03*
X47498000Y-38049200D03*
X50038000Y-40589200D03*
D13*
X37945000Y-33020000D03*
D14*
X34445000Y-33020000D03*
D13*
X39088000Y-42926000D03*
D14*
X35588000Y-42926000D03*
D15*
X39076000Y-20066000D03*
X34076000Y-20066000D03*
D16*
X30480000Y-72384920D03*
D17*
X30480000Y-69347080D03*
X33020000Y-72384920D03*
X33020000Y-69347080D03*
X35560000Y-72384920D03*
X35560000Y-69347080D03*
D18*
X40640000Y-72136000D03*
D19*
X40640000Y-69596000D03*
D20*
X67564000Y-24081740D03*
D21*
X66045080Y-36576000D03*
X66045080Y-33804860D03*
X66045080Y-31036260D03*
X66045080Y-39347140D03*
X66045080Y-42115740D03*
X69082920Y-40731440D03*
X69082920Y-37960300D03*
X69082920Y-35191700D03*
X69082920Y-32420560D03*
D20*
X67564000Y-49070260D03*
D15*
X55666000Y-86995000D03*
X60666000Y-86995000D03*
X44998000Y-86995000D03*
X49998000Y-86995000D03*
X34330000Y-86995000D03*
X39330000Y-86995000D03*
D22*
X67560000Y-67214000D03*
D23*
X79760000Y-67214000D03*
X79760000Y-55214000D03*
D22*
X67560000Y-55214000D03*
D24*
X65560000Y-61214000D03*
D22*
X67560000Y-84232000D03*
D23*
X79760000Y-84232000D03*
X79760000Y-72232000D03*
D22*
X67560000Y-72232000D03*
D24*
X65560000Y-78232000D03*
D25*
X24241000Y-19999000D03*
X22241000Y-27499000D03*
D26*
X57658000Y-63996000D03*
D27*
X57658000Y-62496000D03*
D26*
X57658000Y-58662000D03*
D27*
X57658000Y-57162000D03*
D26*
X51054000Y-65544000D03*
D27*
X51054000Y-67044000D03*
D26*
X57658000Y-51828000D03*
D27*
X57658000Y-53328000D03*
D11*
X78000000Y-89000000D03*
D28*
X57150000Y-72898000D03*
X48514000Y-64516000D03*
X54356000Y-65024000D03*
X42672000Y-67056000D03*
X49530000Y-59944000D03*
X49530000Y-74422000D03*
X29718000Y-52578000D03*
X23622000Y-54102000D03*
X27178000Y-53340000D03*
X32766000Y-61468000D03*
X29718000Y-51054000D03*
X36576000Y-53340000D03*
X39116000Y-54864000D03*
X38608000Y-52832000D03*
X43180000Y-56896000D03*
X44450000Y-71882000D03*
X36068000Y-46228000D03*
X44704000Y-54102000D03*
X46990000Y-52070000D03*
X32766000Y-46736000D03*
D29*
X67560000Y-72232000D02*
X69246000Y-72232000D01*
X71882000Y-59536000D02*
X67560000Y-55214000D01*
X71882000Y-69596000D02*
X71882000Y-59536000D01*
X69246000Y-72232000D02*
X71882000Y-69596000D01*
X54356000Y-70104000D02*
X54356000Y-65024000D01*
X57150000Y-72898000D02*
X54356000Y-70104000D01*
X49276000Y-63754000D02*
X48514000Y-64516000D01*
X53086000Y-63754000D02*
X49276000Y-63754000D01*
X54356000Y-65024000D02*
X53086000Y-63754000D01*
X39088000Y-42926000D02*
X41910000Y-45748000D01*
X41910000Y-66294000D02*
X42672000Y-67056000D01*
X41910000Y-45748000D02*
X41910000Y-66294000D01*
X48248000Y-67044000D02*
X51054000Y-67044000D01*
X46990000Y-65786000D02*
X48248000Y-67044000D01*
X46990000Y-62484000D02*
X46990000Y-65786000D01*
X49530000Y-59944000D02*
X46990000Y-62484000D01*
X49530000Y-74422000D02*
X49530000Y-68568000D01*
X49530000Y-68568000D02*
X51054000Y-67044000D01*
X27940000Y-52578000D02*
X27178000Y-53340000D01*
X29718000Y-52578000D02*
X27940000Y-52578000D01*
X24384000Y-54102000D02*
X23622000Y-54102000D01*
X25146000Y-53340000D02*
X24384000Y-54102000D01*
X27178000Y-53340000D02*
X25146000Y-53340000D01*
D30*
X33020000Y-69596000D02*
X33020000Y-61722000D01*
X33020000Y-61722000D02*
X32766000Y-61468000D01*
X36576000Y-53340000D02*
X35052000Y-53340000D01*
X32766000Y-51054000D02*
X29718000Y-51054000D01*
X35052000Y-53340000D02*
X32766000Y-51054000D01*
X36576000Y-53340000D02*
X35560000Y-54356000D01*
X37592000Y-70104000D02*
X35560000Y-72136000D01*
X37592000Y-66294000D02*
X37592000Y-70104000D01*
X35560000Y-64262000D02*
X37592000Y-66294000D01*
X35560000Y-54356000D02*
X35560000Y-64262000D01*
X40640000Y-72136000D02*
X40386000Y-72136000D01*
X40386000Y-72136000D02*
X38862000Y-70612000D01*
X38862000Y-70612000D02*
X38862000Y-55118000D01*
X38862000Y-55118000D02*
X39116000Y-54864000D01*
X40640000Y-69596000D02*
X40640000Y-54864000D01*
X40640000Y-54864000D02*
X38608000Y-52832000D01*
D29*
X79760000Y-67214000D02*
X80930000Y-67214000D01*
X80930000Y-67214000D02*
X83439000Y-69723000D01*
X83439000Y-69723000D02*
X83439000Y-73152000D01*
X83439000Y-73152000D02*
X76073000Y-80518000D01*
X76073000Y-80518000D02*
X67183000Y-80518000D01*
X67183000Y-80518000D02*
X65151000Y-82550000D01*
X65151000Y-82550000D02*
X49443000Y-82550000D01*
X49443000Y-82550000D02*
X44998000Y-86995000D01*
X79760000Y-55214000D02*
X74645000Y-55214000D01*
X34330000Y-81875000D02*
X34330000Y-86995000D01*
X39878000Y-76327000D02*
X34330000Y-81875000D01*
X56515000Y-76327000D02*
X39878000Y-76327000D01*
X61341000Y-71501000D02*
X56515000Y-76327000D01*
X61341000Y-57658000D02*
X61341000Y-71501000D01*
X66040000Y-52959000D02*
X61341000Y-57658000D01*
X72390000Y-52959000D02*
X66040000Y-52959000D01*
X74645000Y-55214000D02*
X72390000Y-52959000D01*
X39330000Y-86995000D02*
X39330000Y-83860000D01*
X76935000Y-75057000D02*
X79760000Y-72232000D01*
X62357000Y-75057000D02*
X76935000Y-75057000D01*
X57150000Y-80264000D02*
X62357000Y-75057000D01*
X42926000Y-80264000D02*
X57150000Y-80264000D01*
X39330000Y-83860000D02*
X42926000Y-80264000D01*
D30*
X44450000Y-58166000D02*
X43180000Y-56896000D01*
X44450000Y-71882000D02*
X44450000Y-58166000D01*
X37338000Y-44958000D02*
X36068000Y-46228000D01*
X37338000Y-41656000D02*
X37338000Y-44958000D01*
X38100000Y-40894000D02*
X37338000Y-41656000D01*
X40132000Y-40894000D02*
X38100000Y-40894000D01*
X43434000Y-44196000D02*
X40132000Y-40894000D01*
X43434000Y-52832000D02*
X43434000Y-44196000D01*
X44704000Y-54102000D02*
X43434000Y-52832000D01*
X44958000Y-50038000D02*
X46990000Y-52070000D01*
X44958000Y-44450000D02*
X44958000Y-50038000D01*
X39878000Y-39370000D02*
X44958000Y-44450000D01*
X35052000Y-39370000D02*
X39878000Y-39370000D01*
X32766000Y-41656000D02*
X35052000Y-39370000D01*
X32766000Y-46736000D02*
X32766000Y-41656000D01*
D31*
G36*
X85290000Y-91290000D02*
X20710000Y-91290000D01*
X20710000Y-89422789D01*
X25864760Y-89422789D01*
X26189090Y-90207727D01*
X26789114Y-90808800D01*
X27573485Y-91134499D01*
X28422789Y-91135240D01*
X29207727Y-90810910D01*
X29808800Y-90210886D01*
X30134499Y-89426515D01*
X30134502Y-89422789D01*
X75864760Y-89422789D01*
X76189090Y-90207727D01*
X76789114Y-90808800D01*
X77573485Y-91134499D01*
X78422789Y-91135240D01*
X79207727Y-90810910D01*
X79808800Y-90210886D01*
X80134499Y-89426515D01*
X80135240Y-88577211D01*
X79810910Y-87792273D01*
X79210886Y-87191200D01*
X78426515Y-86865501D01*
X77577211Y-86864760D01*
X76792273Y-87189090D01*
X76191200Y-87789114D01*
X75865501Y-88573485D01*
X75864760Y-89422789D01*
X30134502Y-89422789D01*
X30135240Y-88577211D01*
X29810910Y-87792273D01*
X29387682Y-87368305D01*
X32444674Y-87368305D01*
X32731043Y-88061372D01*
X33260839Y-88592093D01*
X33953405Y-88879672D01*
X34703305Y-88880326D01*
X35396372Y-88593957D01*
X35927093Y-88064161D01*
X36214672Y-87371595D01*
X36214674Y-87368305D01*
X37444674Y-87368305D01*
X37731043Y-88061372D01*
X38260839Y-88592093D01*
X38953405Y-88879672D01*
X39703305Y-88880326D01*
X40396372Y-88593957D01*
X40927093Y-88064161D01*
X41214672Y-87371595D01*
X41214674Y-87368305D01*
X43112674Y-87368305D01*
X43399043Y-88061372D01*
X43928839Y-88592093D01*
X44621405Y-88879672D01*
X45371305Y-88880326D01*
X46064372Y-88593957D01*
X46595093Y-88064161D01*
X46882672Y-87371595D01*
X46882674Y-87368305D01*
X48112674Y-87368305D01*
X48399043Y-88061372D01*
X48928839Y-88592093D01*
X49621405Y-88879672D01*
X50371305Y-88880326D01*
X51064372Y-88593957D01*
X51595093Y-88064161D01*
X51882672Y-87371595D01*
X51882674Y-87368305D01*
X53780674Y-87368305D01*
X54067043Y-88061372D01*
X54596839Y-88592093D01*
X55289405Y-88879672D01*
X56039305Y-88880326D01*
X56732372Y-88593957D01*
X57263093Y-88064161D01*
X57550672Y-87371595D01*
X57550674Y-87368305D01*
X58780674Y-87368305D01*
X59067043Y-88061372D01*
X59596839Y-88592093D01*
X60289405Y-88879672D01*
X61039305Y-88880326D01*
X61732372Y-88593957D01*
X62263093Y-88064161D01*
X62550672Y-87371595D01*
X62551326Y-86621695D01*
X62264957Y-85928628D01*
X61735161Y-85397907D01*
X61042595Y-85110328D01*
X60292695Y-85109674D01*
X59599628Y-85396043D01*
X59068907Y-85925839D01*
X58781328Y-86618405D01*
X58780674Y-87368305D01*
X57550674Y-87368305D01*
X57551326Y-86621695D01*
X57264957Y-85928628D01*
X56735161Y-85397907D01*
X56042595Y-85110328D01*
X55292695Y-85109674D01*
X54599628Y-85396043D01*
X54068907Y-85925839D01*
X53781328Y-86618405D01*
X53780674Y-87368305D01*
X51882674Y-87368305D01*
X51883326Y-86621695D01*
X51596957Y-85928628D01*
X51067161Y-85397907D01*
X50374595Y-85110328D01*
X49624695Y-85109674D01*
X48931628Y-85396043D01*
X48400907Y-85925839D01*
X48113328Y-86618405D01*
X48112674Y-87368305D01*
X46882674Y-87368305D01*
X46883326Y-86621695D01*
X46807178Y-86437402D01*
X48668980Y-84575599D01*
X65824699Y-84575599D01*
X66088281Y-85213515D01*
X66575918Y-85702004D01*
X67213373Y-85966699D01*
X67903599Y-85967301D01*
X68541515Y-85703719D01*
X69030004Y-85216082D01*
X69279509Y-84615207D01*
X77824665Y-84615207D01*
X78118630Y-85326658D01*
X78662479Y-85871457D01*
X79373416Y-86166663D01*
X80143207Y-86167335D01*
X80854658Y-85873370D01*
X81399457Y-85329521D01*
X81694663Y-84618584D01*
X81695335Y-83848793D01*
X81401370Y-83137342D01*
X80857521Y-82592543D01*
X80146584Y-82297337D01*
X79376793Y-82296665D01*
X78665342Y-82590630D01*
X78120543Y-83134479D01*
X77825337Y-83845416D01*
X77824665Y-84615207D01*
X69279509Y-84615207D01*
X69294699Y-84578627D01*
X69295301Y-83888401D01*
X69031719Y-83250485D01*
X68544082Y-82761996D01*
X67906627Y-82497301D01*
X67216401Y-82496699D01*
X66578485Y-82760281D01*
X66089996Y-83247918D01*
X65825301Y-83885373D01*
X65824699Y-84575599D01*
X48668980Y-84575599D01*
X49809579Y-83435000D01*
X65150995Y-83435000D01*
X65151000Y-83435001D01*
X65433484Y-83378810D01*
X65489675Y-83367633D01*
X65776790Y-83175790D01*
X67549579Y-81403000D01*
X76072995Y-81403000D01*
X76073000Y-81403001D01*
X76355484Y-81346810D01*
X76411675Y-81335633D01*
X76698790Y-81143790D01*
X76698791Y-81143789D01*
X84064787Y-73777792D01*
X84064790Y-73777790D01*
X84256633Y-73490675D01*
X84277771Y-73384410D01*
X84324001Y-73152000D01*
X84324000Y-73151995D01*
X84324000Y-69723005D01*
X84324001Y-69723000D01*
X84256633Y-69384326D01*
X84256633Y-69384325D01*
X84064790Y-69097210D01*
X84064787Y-69097208D01*
X81622783Y-66655203D01*
X81401370Y-66119342D01*
X80857521Y-65574543D01*
X80146584Y-65279337D01*
X79376793Y-65278665D01*
X78665342Y-65572630D01*
X78120543Y-66116479D01*
X77825337Y-66827416D01*
X77824665Y-67597207D01*
X78118630Y-68308658D01*
X78662479Y-68853457D01*
X79373416Y-69148663D01*
X80143207Y-69149335D01*
X80854658Y-68855370D01*
X81087427Y-68623007D01*
X82554000Y-70089579D01*
X82554000Y-72785421D01*
X75706420Y-79633000D01*
X67183005Y-79633000D01*
X67183000Y-79632999D01*
X67000659Y-79669270D01*
X67284183Y-79386240D01*
X67594646Y-78638562D01*
X67595352Y-77828989D01*
X67286195Y-77080771D01*
X66714240Y-76507817D01*
X65966562Y-76197354D01*
X65156989Y-76196648D01*
X64408771Y-76505805D01*
X63835817Y-77077760D01*
X63525354Y-77825438D01*
X63524648Y-78635011D01*
X63833805Y-79383229D01*
X64405760Y-79956183D01*
X65153438Y-80266646D01*
X65963011Y-80267352D01*
X66336315Y-80113106D01*
X64784420Y-81665000D01*
X49443005Y-81665000D01*
X49443000Y-81664999D01*
X49104325Y-81732367D01*
X48817210Y-81924210D01*
X48817208Y-81924213D01*
X45555835Y-85185585D01*
X45374595Y-85110328D01*
X44624695Y-85109674D01*
X43931628Y-85396043D01*
X43400907Y-85925839D01*
X43113328Y-86618405D01*
X43112674Y-87368305D01*
X41214674Y-87368305D01*
X41215326Y-86621695D01*
X40928957Y-85928628D01*
X40399161Y-85397907D01*
X40215000Y-85321437D01*
X40215000Y-84226580D01*
X43292579Y-81149000D01*
X57149995Y-81149000D01*
X57150000Y-81149001D01*
X57432484Y-81092810D01*
X57488675Y-81081633D01*
X57775790Y-80889790D01*
X57775791Y-80889789D01*
X62723579Y-75942000D01*
X76934995Y-75942000D01*
X76935000Y-75942001D01*
X77217484Y-75885810D01*
X77273675Y-75874633D01*
X77560790Y-75682790D01*
X79163910Y-74079669D01*
X79373416Y-74166663D01*
X80143207Y-74167335D01*
X80854658Y-73873370D01*
X81399457Y-73329521D01*
X81694663Y-72618584D01*
X81695335Y-71848793D01*
X81401370Y-71137342D01*
X80857521Y-70592543D01*
X80146584Y-70297337D01*
X79376793Y-70296665D01*
X78665342Y-70590630D01*
X78120543Y-71134479D01*
X77825337Y-71845416D01*
X77824665Y-72615207D01*
X77912540Y-72827881D01*
X76568420Y-74172000D01*
X62357005Y-74172000D01*
X62357000Y-74171999D01*
X62074516Y-74228190D01*
X62018325Y-74239367D01*
X61731210Y-74431210D01*
X61731208Y-74431213D01*
X56783420Y-79379000D01*
X42926005Y-79379000D01*
X42926000Y-79378999D01*
X42643516Y-79435190D01*
X42587325Y-79446367D01*
X42300210Y-79638210D01*
X42300208Y-79638213D01*
X38704210Y-83234210D01*
X38512367Y-83521325D01*
X38512367Y-83521326D01*
X38444999Y-83860000D01*
X38445000Y-83860005D01*
X38445000Y-85321102D01*
X38263628Y-85396043D01*
X37732907Y-85925839D01*
X37445328Y-86618405D01*
X37444674Y-87368305D01*
X36214674Y-87368305D01*
X36215326Y-86621695D01*
X35928957Y-85928628D01*
X35399161Y-85397907D01*
X35215000Y-85321437D01*
X35215000Y-82241580D01*
X40244579Y-77212000D01*
X56514995Y-77212000D01*
X56515000Y-77212001D01*
X56797484Y-77155810D01*
X56853675Y-77144633D01*
X57140790Y-76952790D01*
X57140791Y-76952789D01*
X61966787Y-72126792D01*
X61966790Y-72126790D01*
X62158633Y-71839675D01*
X62169810Y-71783484D01*
X62226001Y-71501000D01*
X62226000Y-71500995D01*
X62226000Y-67557599D01*
X65824699Y-67557599D01*
X66088281Y-68195515D01*
X66575918Y-68684004D01*
X67213373Y-68948699D01*
X67903599Y-68949301D01*
X68541515Y-68685719D01*
X69030004Y-68198082D01*
X69294699Y-67560627D01*
X69295301Y-66870401D01*
X69031719Y-66232485D01*
X68544082Y-65743996D01*
X67906627Y-65479301D01*
X67216401Y-65478699D01*
X66578485Y-65742281D01*
X66089996Y-66229918D01*
X65825301Y-66867373D01*
X65824699Y-67557599D01*
X62226000Y-67557599D01*
X62226000Y-61617011D01*
X63524648Y-61617011D01*
X63833805Y-62365229D01*
X64405760Y-62938183D01*
X65153438Y-63248646D01*
X65963011Y-63249352D01*
X66711229Y-62940195D01*
X67284183Y-62368240D01*
X67594646Y-61620562D01*
X67595352Y-60810989D01*
X67286195Y-60062771D01*
X66714240Y-59489817D01*
X65966562Y-59179354D01*
X65156989Y-59178648D01*
X64408771Y-59487805D01*
X63835817Y-60059760D01*
X63525354Y-60807438D01*
X63524648Y-61617011D01*
X62226000Y-61617011D01*
X62226000Y-58024580D01*
X66406579Y-53844000D01*
X66476588Y-53844000D01*
X66089996Y-54229918D01*
X65825301Y-54867373D01*
X65824699Y-55557599D01*
X66088281Y-56195515D01*
X66575918Y-56684004D01*
X67213373Y-56948699D01*
X67903599Y-56949301D01*
X68002752Y-56908332D01*
X70997000Y-59902579D01*
X70997000Y-69229421D01*
X69003851Y-71222569D01*
X68544082Y-70761996D01*
X67906627Y-70497301D01*
X67216401Y-70496699D01*
X66578485Y-70760281D01*
X66089996Y-71247918D01*
X65825301Y-71885373D01*
X65824699Y-72575599D01*
X66088281Y-73213515D01*
X66575918Y-73702004D01*
X67213373Y-73966699D01*
X67903599Y-73967301D01*
X68541515Y-73703719D01*
X69030004Y-73216082D01*
X69071147Y-73117000D01*
X69245995Y-73117000D01*
X69246000Y-73117001D01*
X69528484Y-73060810D01*
X69584675Y-73049633D01*
X69871790Y-72857790D01*
X72507787Y-70221792D01*
X72507790Y-70221790D01*
X72699633Y-69934675D01*
X72733319Y-69765326D01*
X72767001Y-69596000D01*
X72767000Y-69595995D01*
X72767000Y-59536005D01*
X72767001Y-59536000D01*
X72699633Y-59197326D01*
X72699633Y-59197325D01*
X72507790Y-58910210D01*
X72507787Y-58910208D01*
X69254652Y-55657072D01*
X69294699Y-55560627D01*
X69295301Y-54870401D01*
X69031719Y-54232485D01*
X68643912Y-53844000D01*
X72023420Y-53844000D01*
X74019208Y-55839787D01*
X74019210Y-55839790D01*
X74211054Y-55967975D01*
X74306326Y-56031634D01*
X74645000Y-56099001D01*
X74645005Y-56099000D01*
X78032001Y-56099000D01*
X78118630Y-56308658D01*
X78662479Y-56853457D01*
X79373416Y-57148663D01*
X80143207Y-57149335D01*
X80854658Y-56855370D01*
X81399457Y-56311521D01*
X81694663Y-55600584D01*
X81695335Y-54830793D01*
X81401370Y-54119342D01*
X80857521Y-53574543D01*
X80146584Y-53279337D01*
X79376793Y-53278665D01*
X78665342Y-53572630D01*
X78120543Y-54116479D01*
X78032297Y-54329000D01*
X75011579Y-54329000D01*
X73015790Y-52333210D01*
X72961232Y-52296756D01*
X72728675Y-52141367D01*
X72672484Y-52130190D01*
X72390000Y-52073999D01*
X72389995Y-52074000D01*
X68505492Y-52074000D01*
X69337871Y-51730068D01*
X70220708Y-50848771D01*
X70699085Y-49696712D01*
X70700173Y-48449281D01*
X70223808Y-47296389D01*
X69342511Y-46413552D01*
X68190452Y-45935175D01*
X66943021Y-45934087D01*
X65790129Y-46410452D01*
X64907292Y-47291749D01*
X64428915Y-48443808D01*
X64427827Y-49691239D01*
X64904192Y-50844131D01*
X65785489Y-51726968D01*
X66621234Y-52074000D01*
X66040005Y-52074000D01*
X66040000Y-52073999D01*
X65701326Y-52141366D01*
X65629742Y-52189197D01*
X65414210Y-52333210D01*
X65414208Y-52333213D01*
X60715210Y-57032210D01*
X60523367Y-57319325D01*
X60523367Y-57319326D01*
X60455999Y-57658000D01*
X60456000Y-57658005D01*
X60456000Y-71134421D01*
X58156374Y-73434047D01*
X58284803Y-73124756D01*
X58285197Y-72673225D01*
X58112767Y-72255914D01*
X57793765Y-71936355D01*
X57376756Y-71763197D01*
X57266680Y-71763101D01*
X55241000Y-69737420D01*
X55241000Y-65744276D01*
X55317645Y-65667765D01*
X55490803Y-65250756D01*
X55491197Y-64799225D01*
X55318767Y-64381914D01*
X54999765Y-64062355D01*
X54582756Y-63889197D01*
X54472680Y-63889101D01*
X53979580Y-63396000D01*
X56410560Y-63396000D01*
X56410560Y-64596000D01*
X56454838Y-64831317D01*
X56593910Y-65047441D01*
X56806110Y-65192431D01*
X57058000Y-65243440D01*
X58258000Y-65243440D01*
X58493317Y-65199162D01*
X58709441Y-65060090D01*
X58854431Y-64847890D01*
X58905440Y-64596000D01*
X58905440Y-63396000D01*
X58861162Y-63160683D01*
X58774901Y-63026630D01*
X58892785Y-62742734D01*
X58893214Y-62251421D01*
X58705592Y-61797343D01*
X58358485Y-61449629D01*
X57904734Y-61261215D01*
X57413421Y-61260786D01*
X56959343Y-61448408D01*
X56611629Y-61795515D01*
X56423215Y-62249266D01*
X56422786Y-62740579D01*
X56541304Y-63027414D01*
X56461569Y-63144110D01*
X56410560Y-63396000D01*
X53979580Y-63396000D01*
X53711790Y-63128210D01*
X53424675Y-62936367D01*
X53368484Y-62925190D01*
X53086000Y-62868999D01*
X53085995Y-62869000D01*
X49276005Y-62869000D01*
X49276000Y-62868999D01*
X48993516Y-62925190D01*
X48937325Y-62936367D01*
X48650210Y-63128210D01*
X48650208Y-63128213D01*
X48397523Y-63380897D01*
X48289225Y-63380803D01*
X47871914Y-63553233D01*
X47552355Y-63872235D01*
X47379197Y-64289244D01*
X47378803Y-64740775D01*
X47551233Y-65158086D01*
X47870235Y-65477645D01*
X48287244Y-65650803D01*
X48738775Y-65651197D01*
X49156086Y-65478767D01*
X49475645Y-65159765D01*
X49648803Y-64742756D01*
X49648894Y-64639000D01*
X49893857Y-64639000D01*
X49857569Y-64692110D01*
X49806560Y-64944000D01*
X49806560Y-66144000D01*
X49850838Y-66379317D01*
X49932766Y-66506636D01*
X49806193Y-66875036D01*
X49836518Y-67365413D01*
X49965836Y-67677617D01*
X50191265Y-67727130D01*
X50874395Y-67044000D01*
X50860253Y-67029858D01*
X51039858Y-66850253D01*
X51054000Y-66864395D01*
X51068143Y-66850253D01*
X51247748Y-67029858D01*
X51233605Y-67044000D01*
X51916735Y-67727130D01*
X52142164Y-67677617D01*
X52301807Y-67212964D01*
X52271482Y-66722587D01*
X52179289Y-66500010D01*
X52250431Y-66395890D01*
X52301440Y-66144000D01*
X52301440Y-64944000D01*
X52257162Y-64708683D01*
X52212322Y-64639000D01*
X52719420Y-64639000D01*
X53220897Y-65140477D01*
X53220803Y-65248775D01*
X53393233Y-65666086D01*
X53471000Y-65743989D01*
X53471000Y-70103995D01*
X53470999Y-70104000D01*
X53514196Y-70321161D01*
X53538367Y-70442675D01*
X53632682Y-70583828D01*
X53730210Y-70729790D01*
X56014897Y-73014477D01*
X56014803Y-73122775D01*
X56187233Y-73540086D01*
X56506235Y-73859645D01*
X56923244Y-74032803D01*
X57374775Y-74033197D01*
X57685692Y-73904728D01*
X56148420Y-75442000D01*
X39878005Y-75442000D01*
X39878000Y-75441999D01*
X39595516Y-75498190D01*
X39539325Y-75509367D01*
X39252210Y-75701210D01*
X39252208Y-75701213D01*
X33704210Y-81249210D01*
X33512367Y-81536325D01*
X33512367Y-81536326D01*
X33444999Y-81875000D01*
X33445000Y-81875005D01*
X33445000Y-85321102D01*
X33263628Y-85396043D01*
X32732907Y-85925839D01*
X32445328Y-86618405D01*
X32444674Y-87368305D01*
X29387682Y-87368305D01*
X29210886Y-87191200D01*
X28426515Y-86865501D01*
X27577211Y-86864760D01*
X26792273Y-87189090D01*
X26191200Y-87789114D01*
X25865501Y-88573485D01*
X25864760Y-89422789D01*
X20710000Y-89422789D01*
X20710000Y-51278775D01*
X28582803Y-51278775D01*
X28755233Y-51696086D01*
X29074235Y-52015645D01*
X29491244Y-52188803D01*
X29942775Y-52189197D01*
X30360086Y-52016767D01*
X30563207Y-51814000D01*
X32451198Y-51814000D01*
X34514599Y-53877401D01*
X34761160Y-54042148D01*
X34860081Y-54061825D01*
X34857852Y-54065161D01*
X34800000Y-54356000D01*
X34800000Y-64262000D01*
X34857852Y-64552839D01*
X35022599Y-64799401D01*
X36832000Y-66608802D01*
X36832000Y-68538170D01*
X36813135Y-68471253D01*
X36473465Y-68040290D01*
X35994728Y-67772118D01*
X35903070Y-67755370D01*
X35687000Y-67877870D01*
X35687000Y-69220080D01*
X35707000Y-69220080D01*
X35707000Y-69474080D01*
X35687000Y-69474080D01*
X35687000Y-69494080D01*
X35433000Y-69494080D01*
X35433000Y-69474080D01*
X35413000Y-69474080D01*
X35413000Y-69220080D01*
X35433000Y-69220080D01*
X35433000Y-67877870D01*
X35216930Y-67755370D01*
X35125272Y-67772118D01*
X34646535Y-68040290D01*
X34306865Y-68471253D01*
X34293774Y-68517688D01*
X34007828Y-68089740D01*
X33780000Y-67937510D01*
X33780000Y-61985681D01*
X33900803Y-61694756D01*
X33901197Y-61243225D01*
X33728767Y-60825914D01*
X33409765Y-60506355D01*
X32992756Y-60333197D01*
X32541225Y-60332803D01*
X32123914Y-60505233D01*
X31804355Y-60824235D01*
X31631197Y-61241244D01*
X31630803Y-61692775D01*
X31803233Y-62110086D01*
X32122235Y-62429645D01*
X32260000Y-62486850D01*
X32260000Y-67937510D01*
X32032172Y-68089740D01*
X31750000Y-68512039D01*
X31467828Y-68089740D01*
X31014609Y-67786908D01*
X30480000Y-67680568D01*
X29945391Y-67786908D01*
X29492172Y-68089740D01*
X29189340Y-68542959D01*
X29083000Y-69077568D01*
X29083000Y-69616592D01*
X29189340Y-70151201D01*
X29492172Y-70604420D01*
X29697770Y-70741797D01*
X29482683Y-70782268D01*
X29266559Y-70921340D01*
X29121569Y-71133540D01*
X29070560Y-71385430D01*
X29070560Y-73384410D01*
X29114838Y-73619727D01*
X29253910Y-73835851D01*
X29466110Y-73980841D01*
X29718000Y-74031850D01*
X31242000Y-74031850D01*
X31477317Y-73987572D01*
X31693441Y-73848500D01*
X31838431Y-73636300D01*
X31882565Y-73418358D01*
X32032172Y-73642260D01*
X32485391Y-73945092D01*
X33020000Y-74051432D01*
X33554609Y-73945092D01*
X34007828Y-73642260D01*
X34290000Y-73219961D01*
X34572172Y-73642260D01*
X35025391Y-73945092D01*
X35560000Y-74051432D01*
X36094609Y-73945092D01*
X36547828Y-73642260D01*
X36850660Y-73189041D01*
X36957000Y-72654432D01*
X36957000Y-72115408D01*
X36906960Y-71863842D01*
X38111424Y-70659378D01*
X38159852Y-70902839D01*
X38324599Y-71149401D01*
X38892740Y-71717542D01*
X38892740Y-72898000D01*
X38937018Y-73133317D01*
X39076090Y-73349441D01*
X39288290Y-73494431D01*
X39540180Y-73545440D01*
X41739820Y-73545440D01*
X41975137Y-73501162D01*
X42191261Y-73362090D01*
X42336251Y-73149890D01*
X42387260Y-72898000D01*
X42387260Y-71374000D01*
X42342982Y-71138683D01*
X42203910Y-70922559D01*
X41991710Y-70777569D01*
X41775276Y-70733740D01*
X41999635Y-70583828D01*
X42302467Y-70130609D01*
X42408807Y-69596000D01*
X42302467Y-69061391D01*
X41999635Y-68608172D01*
X41546416Y-68305340D01*
X41400000Y-68276216D01*
X41400000Y-67035580D01*
X41536897Y-67172477D01*
X41536803Y-67280775D01*
X41709233Y-67698086D01*
X42028235Y-68017645D01*
X42445244Y-68190803D01*
X42896775Y-68191197D01*
X43314086Y-68018767D01*
X43633645Y-67699765D01*
X43690000Y-67564048D01*
X43690000Y-71036941D01*
X43488355Y-71238235D01*
X43315197Y-71655244D01*
X43314803Y-72106775D01*
X43487233Y-72524086D01*
X43806235Y-72843645D01*
X44223244Y-73016803D01*
X44674775Y-73017197D01*
X45092086Y-72844767D01*
X45411645Y-72525765D01*
X45584803Y-72108756D01*
X45585197Y-71657225D01*
X45412767Y-71239914D01*
X45210000Y-71036793D01*
X45210000Y-67906735D01*
X50370870Y-67906735D01*
X50420383Y-68132164D01*
X50885036Y-68291807D01*
X51375413Y-68261482D01*
X51687617Y-68132164D01*
X51737130Y-67906735D01*
X51054000Y-67223605D01*
X50370870Y-67906735D01*
X45210000Y-67906735D01*
X45210000Y-58166000D01*
X45189313Y-58062000D01*
X56410560Y-58062000D01*
X56410560Y-59262000D01*
X56454838Y-59497317D01*
X56593910Y-59713441D01*
X56806110Y-59858431D01*
X57058000Y-59909440D01*
X58258000Y-59909440D01*
X58493317Y-59865162D01*
X58709441Y-59726090D01*
X58854431Y-59513890D01*
X58905440Y-59262000D01*
X58905440Y-58062000D01*
X58861162Y-57826683D01*
X58774901Y-57692630D01*
X58892785Y-57408734D01*
X58893214Y-56917421D01*
X58705592Y-56463343D01*
X58358485Y-56115629D01*
X57904734Y-55927215D01*
X57413421Y-55926786D01*
X56959343Y-56114408D01*
X56611629Y-56461515D01*
X56423215Y-56915266D01*
X56422786Y-57406579D01*
X56541304Y-57693414D01*
X56461569Y-57810110D01*
X56410560Y-58062000D01*
X45189313Y-58062000D01*
X45152148Y-57875161D01*
X45152148Y-57875160D01*
X44987401Y-57628599D01*
X44314948Y-56956146D01*
X44315197Y-56671225D01*
X44142767Y-56253914D01*
X43823765Y-55934355D01*
X43406756Y-55761197D01*
X42955225Y-55760803D01*
X42795000Y-55827007D01*
X42795000Y-53217347D01*
X42896599Y-53369401D01*
X43569052Y-54041854D01*
X43568803Y-54326775D01*
X43741233Y-54744086D01*
X44060235Y-55063645D01*
X44477244Y-55236803D01*
X44928775Y-55237197D01*
X45346086Y-55064767D01*
X45665645Y-54745765D01*
X45838803Y-54328756D01*
X45839197Y-53877225D01*
X45713320Y-53572579D01*
X56422786Y-53572579D01*
X56610408Y-54026657D01*
X56957515Y-54374371D01*
X57411266Y-54562785D01*
X57902579Y-54563214D01*
X58356657Y-54375592D01*
X58704371Y-54028485D01*
X58892785Y-53574734D01*
X58893214Y-53083421D01*
X58778422Y-52805604D01*
X58796327Y-52787699D01*
X58893000Y-52554310D01*
X58893000Y-52113750D01*
X58734250Y-51955000D01*
X57785000Y-51955000D01*
X57785000Y-51975000D01*
X57531000Y-51975000D01*
X57531000Y-51955000D01*
X56581750Y-51955000D01*
X56423000Y-52113750D01*
X56423000Y-52554310D01*
X56519673Y-52787699D01*
X56537650Y-52805676D01*
X56423215Y-53081266D01*
X56422786Y-53572579D01*
X45713320Y-53572579D01*
X45666767Y-53459914D01*
X45347765Y-53140355D01*
X44930756Y-52967197D01*
X44643749Y-52966947D01*
X44194000Y-52517198D01*
X44194000Y-44760802D01*
X44198000Y-44764802D01*
X44198000Y-50038000D01*
X44255852Y-50328839D01*
X44420599Y-50575401D01*
X45855052Y-52009854D01*
X45854803Y-52294775D01*
X46027233Y-52712086D01*
X46346235Y-53031645D01*
X46763244Y-53204803D01*
X47214775Y-53205197D01*
X47632086Y-53032767D01*
X47951645Y-52713765D01*
X48124803Y-52296756D01*
X48125197Y-51845225D01*
X47952767Y-51427914D01*
X47633765Y-51108355D01*
X47617714Y-51101690D01*
X56423000Y-51101690D01*
X56423000Y-51542250D01*
X56581750Y-51701000D01*
X57531000Y-51701000D01*
X57531000Y-50751750D01*
X57785000Y-50751750D01*
X57785000Y-51701000D01*
X58734250Y-51701000D01*
X58893000Y-51542250D01*
X58893000Y-51101690D01*
X58796327Y-50868301D01*
X58617698Y-50689673D01*
X58384309Y-50593000D01*
X57943750Y-50593000D01*
X57785000Y-50751750D01*
X57531000Y-50751750D01*
X57372250Y-50593000D01*
X56931691Y-50593000D01*
X56698302Y-50689673D01*
X56519673Y-50868301D01*
X56423000Y-51101690D01*
X47617714Y-51101690D01*
X47216756Y-50935197D01*
X46929749Y-50934947D01*
X45718000Y-49723198D01*
X45718000Y-44450000D01*
X45660148Y-44159161D01*
X45495401Y-43912599D01*
X43505091Y-41922289D01*
X48884517Y-41922289D01*
X49013725Y-42215059D01*
X49713883Y-42483271D01*
X50463384Y-42463128D01*
X50478142Y-42457015D01*
X64453277Y-42457015D01*
X64471923Y-42559045D01*
X64742370Y-43032064D01*
X65173247Y-43365581D01*
X65698957Y-43508821D01*
X65918080Y-43348126D01*
X65918080Y-42242740D01*
X66172080Y-42242740D01*
X66172080Y-43348126D01*
X66391203Y-43508821D01*
X66916913Y-43365581D01*
X67347790Y-43032064D01*
X67618237Y-42559045D01*
X67636883Y-42457015D01*
X67514229Y-42242740D01*
X66172080Y-42242740D01*
X65918080Y-42242740D01*
X64575931Y-42242740D01*
X64453277Y-42457015D01*
X50478142Y-42457015D01*
X51062275Y-42215059D01*
X51191483Y-41922289D01*
X50038000Y-40768805D01*
X48884517Y-41922289D01*
X43505091Y-41922289D01*
X40415401Y-38832599D01*
X40168839Y-38667852D01*
X39878000Y-38610000D01*
X35052000Y-38610000D01*
X34761160Y-38667852D01*
X34514599Y-38832599D01*
X32228599Y-41118599D01*
X32063852Y-41365161D01*
X32006000Y-41656000D01*
X32006000Y-45890941D01*
X31804355Y-46092235D01*
X31631197Y-46509244D01*
X31630803Y-46960775D01*
X31803233Y-47378086D01*
X32122235Y-47697645D01*
X32539244Y-47870803D01*
X32990775Y-47871197D01*
X33408086Y-47698767D01*
X33727645Y-47379765D01*
X33900803Y-46962756D01*
X33901197Y-46511225D01*
X33728767Y-46093914D01*
X33526000Y-45890793D01*
X33526000Y-42709223D01*
X34141035Y-42709223D01*
X34168222Y-43279454D01*
X34334136Y-43680005D01*
X34580255Y-43754139D01*
X35408395Y-42926000D01*
X34580255Y-42097861D01*
X34334136Y-42171995D01*
X34141035Y-42709223D01*
X33526000Y-42709223D01*
X33526000Y-41970802D01*
X35366802Y-40130000D01*
X39563198Y-40130000D01*
X39567198Y-40134000D01*
X38100000Y-40134000D01*
X37809161Y-40191852D01*
X37562599Y-40356599D01*
X36800599Y-41118599D01*
X36635852Y-41365161D01*
X36578000Y-41656000D01*
X36578000Y-41850364D01*
X36531014Y-41803378D01*
X36416139Y-41918253D01*
X36342005Y-41672136D01*
X35804777Y-41479035D01*
X35234546Y-41506222D01*
X34833995Y-41672136D01*
X34759861Y-41918255D01*
X35588000Y-42746395D01*
X35602142Y-42732252D01*
X35781748Y-42911858D01*
X35767605Y-42926000D01*
X35781748Y-42940142D01*
X35602142Y-43119748D01*
X35588000Y-43105605D01*
X34759861Y-43933745D01*
X34833995Y-44179864D01*
X35371223Y-44372965D01*
X35941454Y-44345778D01*
X36342005Y-44179864D01*
X36416139Y-43933747D01*
X36531014Y-44048622D01*
X36578000Y-44001636D01*
X36578000Y-44643198D01*
X36128146Y-45093052D01*
X35843225Y-45092803D01*
X35425914Y-45265233D01*
X35106355Y-45584235D01*
X34933197Y-46001244D01*
X34932803Y-46452775D01*
X35105233Y-46870086D01*
X35424235Y-47189645D01*
X35841244Y-47362803D01*
X36292775Y-47363197D01*
X36710086Y-47190767D01*
X37029645Y-46871765D01*
X37202803Y-46454756D01*
X37203053Y-46167749D01*
X37875401Y-45495401D01*
X38040148Y-45248840D01*
X38098000Y-44958000D01*
X38098000Y-44334964D01*
X38288000Y-44373440D01*
X39283860Y-44373440D01*
X41025000Y-46114579D01*
X41025000Y-54174198D01*
X39742948Y-52892146D01*
X39743197Y-52607225D01*
X39570767Y-52189914D01*
X39251765Y-51870355D01*
X38834756Y-51697197D01*
X38383225Y-51696803D01*
X37965914Y-51869233D01*
X37646355Y-52188235D01*
X37473197Y-52605244D01*
X37473173Y-52632206D01*
X37219765Y-52378355D01*
X36802756Y-52205197D01*
X36351225Y-52204803D01*
X35933914Y-52377233D01*
X35730793Y-52580000D01*
X35366802Y-52580000D01*
X33303401Y-50516599D01*
X33056839Y-50351852D01*
X32766000Y-50294000D01*
X30563059Y-50294000D01*
X30361765Y-50092355D01*
X29944756Y-49919197D01*
X29493225Y-49918803D01*
X29075914Y-50091233D01*
X28756355Y-50410235D01*
X28583197Y-50827244D01*
X28582803Y-51278775D01*
X20710000Y-51278775D01*
X20710000Y-38422441D01*
X45612994Y-38422441D01*
X45899314Y-39115391D01*
X46429021Y-39646022D01*
X47121469Y-39933552D01*
X47871241Y-39934206D01*
X48345792Y-39738126D01*
X48143929Y-40265083D01*
X48164072Y-41014584D01*
X48412141Y-41613475D01*
X48704911Y-41742683D01*
X49858395Y-40589200D01*
X49844252Y-40575058D01*
X50023858Y-40395452D01*
X50038000Y-40409595D01*
X50052142Y-40395452D01*
X50231748Y-40575058D01*
X50217605Y-40589200D01*
X51371089Y-41742683D01*
X51663859Y-41613475D01*
X51932071Y-40913317D01*
X51911928Y-40163816D01*
X51736592Y-39740518D01*
X52201469Y-39933552D01*
X52951241Y-39934206D01*
X53644191Y-39647886D01*
X54174822Y-39118179D01*
X54462352Y-38425731D01*
X54463006Y-37675959D01*
X54176686Y-36983009D01*
X53646979Y-36452378D01*
X52954531Y-36164848D01*
X52204759Y-36164194D01*
X51511809Y-36450514D01*
X50981178Y-36980221D01*
X50693648Y-37672669D01*
X50692994Y-38422441D01*
X50889074Y-38896992D01*
X50362117Y-38695129D01*
X49612616Y-38715272D01*
X49189318Y-38890608D01*
X49382352Y-38425731D01*
X49383006Y-37675959D01*
X49096686Y-36983009D01*
X48566979Y-36452378D01*
X47874531Y-36164848D01*
X47124759Y-36164194D01*
X46431809Y-36450514D01*
X45901178Y-36980221D01*
X45613648Y-37672669D01*
X45612994Y-38422441D01*
X20710000Y-38422441D01*
X20710000Y-34027745D01*
X33616861Y-34027745D01*
X33690995Y-34273864D01*
X34228223Y-34466965D01*
X34798454Y-34439778D01*
X35199005Y-34273864D01*
X35273139Y-34027745D01*
X34445000Y-33199605D01*
X33616861Y-34027745D01*
X20710000Y-34027745D01*
X20710000Y-32803223D01*
X32998035Y-32803223D01*
X33025222Y-33373454D01*
X33191136Y-33774005D01*
X33437255Y-33848139D01*
X34265395Y-33020000D01*
X34624605Y-33020000D01*
X35452745Y-33848139D01*
X35698864Y-33774005D01*
X35891965Y-33236777D01*
X35864778Y-32666546D01*
X35698864Y-32265995D01*
X35546165Y-32220000D01*
X36497560Y-32220000D01*
X36497560Y-33820000D01*
X36541838Y-34055317D01*
X36680910Y-34271441D01*
X36893110Y-34416431D01*
X37145000Y-34467440D01*
X38745000Y-34467440D01*
X38980317Y-34423162D01*
X39196441Y-34284090D01*
X39341431Y-34071890D01*
X39392440Y-33820000D01*
X39392440Y-32220000D01*
X39348162Y-31984683D01*
X39209090Y-31768559D01*
X38996890Y-31623569D01*
X38745000Y-31572560D01*
X37145000Y-31572560D01*
X36909683Y-31616838D01*
X36693559Y-31755910D01*
X36548569Y-31968110D01*
X36497560Y-32220000D01*
X35546165Y-32220000D01*
X35452745Y-32191861D01*
X34624605Y-33020000D01*
X34265395Y-33020000D01*
X33437255Y-32191861D01*
X33191136Y-32265995D01*
X32998035Y-32803223D01*
X20710000Y-32803223D01*
X20710000Y-32012255D01*
X33616861Y-32012255D01*
X34445000Y-32840395D01*
X35273139Y-32012255D01*
X35199005Y-31766136D01*
X34661777Y-31573035D01*
X34091546Y-31600222D01*
X33690995Y-31766136D01*
X33616861Y-32012255D01*
X20710000Y-32012255D01*
X20710000Y-31036260D01*
X64378568Y-31036260D01*
X64484038Y-31566495D01*
X64784392Y-32016006D01*
X65233903Y-32316360D01*
X65757753Y-32420560D01*
X65233903Y-32524760D01*
X64784392Y-32825114D01*
X64484038Y-33274625D01*
X64378568Y-33804860D01*
X64484038Y-34335095D01*
X64784392Y-34784606D01*
X65233903Y-35084960D01*
X65764138Y-35190430D01*
X65233903Y-35295900D01*
X64784392Y-35596254D01*
X64484038Y-36045765D01*
X64378568Y-36576000D01*
X64484038Y-37106235D01*
X64784392Y-37555746D01*
X65233903Y-37856100D01*
X65764138Y-37961570D01*
X65233903Y-38067040D01*
X64784392Y-38367394D01*
X64484038Y-38816905D01*
X64378568Y-39347140D01*
X64484038Y-39877375D01*
X64784392Y-40326886D01*
X65233903Y-40627240D01*
X65764138Y-40732710D01*
X65918078Y-40732710D01*
X65918078Y-40883353D01*
X65698957Y-40722659D01*
X65173247Y-40865899D01*
X64742370Y-41199416D01*
X64471923Y-41672435D01*
X64453277Y-41774465D01*
X64575931Y-41988740D01*
X65918080Y-41988740D01*
X65918080Y-41968740D01*
X66172080Y-41968740D01*
X66172080Y-41988740D01*
X67514229Y-41988740D01*
X67636883Y-41774465D01*
X67618237Y-41672435D01*
X67347790Y-41199416D01*
X66916913Y-40865899D01*
X66391203Y-40722659D01*
X66172082Y-40883353D01*
X66172082Y-40732710D01*
X66326022Y-40732710D01*
X66856257Y-40627240D01*
X67305768Y-40326886D01*
X67606122Y-39877375D01*
X67711592Y-39347140D01*
X67606122Y-38816905D01*
X67305768Y-38367394D01*
X66856257Y-38067040D01*
X66326022Y-37961570D01*
X66856257Y-37856100D01*
X67305768Y-37555746D01*
X67606122Y-37106235D01*
X67711592Y-36576000D01*
X67606122Y-36045765D01*
X67305768Y-35596254D01*
X66856257Y-35295900D01*
X66326022Y-35190430D01*
X66856257Y-35084960D01*
X67305768Y-34784606D01*
X67606122Y-34335095D01*
X67711592Y-33804860D01*
X67606122Y-33274625D01*
X67305768Y-32825114D01*
X66856257Y-32524760D01*
X66332407Y-32420560D01*
X67416408Y-32420560D01*
X67521878Y-32950795D01*
X67822232Y-33400306D01*
X68271743Y-33700660D01*
X68801978Y-33806130D01*
X68271743Y-33911600D01*
X67822232Y-34211954D01*
X67521878Y-34661465D01*
X67416408Y-35191700D01*
X67521878Y-35721935D01*
X67822232Y-36171446D01*
X68271743Y-36471800D01*
X68795593Y-36576000D01*
X68271743Y-36680200D01*
X67822232Y-36980554D01*
X67521878Y-37430065D01*
X67416408Y-37960300D01*
X67521878Y-38490535D01*
X67822232Y-38940046D01*
X68271743Y-39240400D01*
X68801978Y-39345870D01*
X68271743Y-39451340D01*
X67822232Y-39751694D01*
X67521878Y-40201205D01*
X67416408Y-40731440D01*
X67521878Y-41261675D01*
X67822232Y-41711186D01*
X68271743Y-42011540D01*
X68801978Y-42117010D01*
X69363862Y-42117010D01*
X69894097Y-42011540D01*
X70343608Y-41711186D01*
X70643962Y-41261675D01*
X70749432Y-40731440D01*
X70643962Y-40201205D01*
X70343608Y-39751694D01*
X69894097Y-39451340D01*
X69363862Y-39345870D01*
X69894097Y-39240400D01*
X70343608Y-38940046D01*
X70643962Y-38490535D01*
X70749432Y-37960300D01*
X70643962Y-37430065D01*
X70343608Y-36980554D01*
X69894097Y-36680200D01*
X69370247Y-36576000D01*
X69894097Y-36471800D01*
X70343608Y-36171446D01*
X70643962Y-35721935D01*
X70749432Y-35191700D01*
X70643962Y-34661465D01*
X70343608Y-34211954D01*
X69894097Y-33911600D01*
X69363862Y-33806130D01*
X69894097Y-33700660D01*
X70343608Y-33400306D01*
X70643962Y-32950795D01*
X70749432Y-32420560D01*
X70643962Y-31890325D01*
X70343608Y-31440814D01*
X69894097Y-31140460D01*
X69363862Y-31034990D01*
X68801978Y-31034990D01*
X68271743Y-31140460D01*
X67822232Y-31440814D01*
X67521878Y-31890325D01*
X67416408Y-32420560D01*
X66332407Y-32420560D01*
X66856257Y-32316360D01*
X67305768Y-32016006D01*
X67606122Y-31566495D01*
X67711592Y-31036260D01*
X67606122Y-30506025D01*
X67305768Y-30056514D01*
X66856257Y-29756160D01*
X66326022Y-29650690D01*
X65764138Y-29650690D01*
X65233903Y-29756160D01*
X64784392Y-30056514D01*
X64484038Y-30506025D01*
X64378568Y-31036260D01*
X20710000Y-31036260D01*
X20710000Y-28651532D01*
X21268073Y-28651532D01*
X21366736Y-28918387D01*
X21976461Y-29144908D01*
X22626460Y-29120856D01*
X23115264Y-28918387D01*
X23213927Y-28651532D01*
X22241000Y-27678605D01*
X21268073Y-28651532D01*
X20710000Y-28651532D01*
X20710000Y-28103806D01*
X20821613Y-28373264D01*
X21088468Y-28471927D01*
X22061395Y-27499000D01*
X22420605Y-27499000D01*
X23393532Y-28471927D01*
X23660387Y-28373264D01*
X23886908Y-27763539D01*
X23862856Y-27113540D01*
X23660387Y-26624736D01*
X23393532Y-26526073D01*
X22420605Y-27499000D01*
X22061395Y-27499000D01*
X21088468Y-26526073D01*
X20821613Y-26624736D01*
X20710000Y-26925164D01*
X20710000Y-26346468D01*
X21268073Y-26346468D01*
X22241000Y-27319395D01*
X23213927Y-26346468D01*
X23115264Y-26079613D01*
X22505539Y-25853092D01*
X21855540Y-25877144D01*
X21366736Y-26079613D01*
X21268073Y-26346468D01*
X20710000Y-26346468D01*
X20710000Y-24702719D01*
X64427827Y-24702719D01*
X64904192Y-25855611D01*
X65785489Y-26738448D01*
X66937548Y-27216825D01*
X68184979Y-27217913D01*
X69337871Y-26741548D01*
X70220708Y-25860251D01*
X70699085Y-24708192D01*
X70700173Y-23460761D01*
X70223808Y-22307869D01*
X69342511Y-21425032D01*
X68190452Y-20946655D01*
X66943021Y-20945567D01*
X65790129Y-21421932D01*
X64907292Y-22303229D01*
X64428915Y-23455288D01*
X64427827Y-24702719D01*
X20710000Y-24702719D01*
X20710000Y-22265285D01*
X47653797Y-22265285D01*
X48015943Y-23141744D01*
X48685929Y-23812900D01*
X49561755Y-24176575D01*
X50510085Y-24177403D01*
X51386544Y-23815257D01*
X52057700Y-23145271D01*
X52421375Y-22269445D01*
X52422203Y-21321115D01*
X52060057Y-20444656D01*
X51390071Y-19773500D01*
X50514245Y-19409825D01*
X49565915Y-19408997D01*
X48689456Y-19771143D01*
X48018300Y-20441129D01*
X47654625Y-21316955D01*
X47653797Y-22265285D01*
X20710000Y-22265285D01*
X20710000Y-20322795D01*
X22605716Y-20322795D01*
X22854106Y-20923943D01*
X23313637Y-21384278D01*
X23914352Y-21633716D01*
X24564795Y-21634284D01*
X25133449Y-21399320D01*
X32922285Y-21399320D01*
X33051533Y-21692123D01*
X33751806Y-21960388D01*
X34501435Y-21940250D01*
X35100467Y-21692123D01*
X35229715Y-21399320D01*
X34076000Y-20245605D01*
X32922285Y-21399320D01*
X25133449Y-21399320D01*
X25165943Y-21385894D01*
X25626278Y-20926363D01*
X25875716Y-20325648D01*
X25876284Y-19675205D01*
X25627894Y-19074057D01*
X25168363Y-18613722D01*
X24708545Y-18422789D01*
X25864760Y-18422789D01*
X26189090Y-19207727D01*
X26789114Y-19808800D01*
X27573485Y-20134499D01*
X28422789Y-20135240D01*
X29207727Y-19810910D01*
X29276951Y-19741806D01*
X32181612Y-19741806D01*
X32201750Y-20491435D01*
X32449877Y-21090467D01*
X32742680Y-21219715D01*
X33896395Y-20066000D01*
X34255605Y-20066000D01*
X35409320Y-21219715D01*
X35702123Y-21090467D01*
X35951574Y-20439305D01*
X37190674Y-20439305D01*
X37477043Y-21132372D01*
X38006839Y-21663093D01*
X38699405Y-21950672D01*
X39449305Y-21951326D01*
X40142372Y-21664957D01*
X40673093Y-21135161D01*
X40960672Y-20442595D01*
X40961326Y-19692695D01*
X40674957Y-18999628D01*
X40145161Y-18468907D01*
X40034097Y-18422789D01*
X75864760Y-18422789D01*
X76189090Y-19207727D01*
X76789114Y-19808800D01*
X77573485Y-20134499D01*
X78422789Y-20135240D01*
X79207727Y-19810910D01*
X79808800Y-19210886D01*
X80134499Y-18426515D01*
X80135240Y-17577211D01*
X79810910Y-16792273D01*
X79210886Y-16191200D01*
X78426515Y-15865501D01*
X77577211Y-15864760D01*
X76792273Y-16189090D01*
X76191200Y-16789114D01*
X75865501Y-17573485D01*
X75864760Y-18422789D01*
X40034097Y-18422789D01*
X39452595Y-18181328D01*
X38702695Y-18180674D01*
X38009628Y-18467043D01*
X37478907Y-18996839D01*
X37191328Y-19689405D01*
X37190674Y-20439305D01*
X35951574Y-20439305D01*
X35970388Y-20390194D01*
X35950250Y-19640565D01*
X35702123Y-19041533D01*
X35409320Y-18912285D01*
X34255605Y-20066000D01*
X33896395Y-20066000D01*
X32742680Y-18912285D01*
X32449877Y-19041533D01*
X32181612Y-19741806D01*
X29276951Y-19741806D01*
X29808800Y-19210886D01*
X30007368Y-18732680D01*
X32922285Y-18732680D01*
X34076000Y-19886395D01*
X35229715Y-18732680D01*
X35100467Y-18439877D01*
X34400194Y-18171612D01*
X33650565Y-18191750D01*
X33051533Y-18439877D01*
X32922285Y-18732680D01*
X30007368Y-18732680D01*
X30134499Y-18426515D01*
X30135240Y-17577211D01*
X29810910Y-16792273D01*
X29210886Y-16191200D01*
X28426515Y-15865501D01*
X27577211Y-15864760D01*
X26792273Y-16189090D01*
X26191200Y-16789114D01*
X25865501Y-17573485D01*
X25864760Y-18422789D01*
X24708545Y-18422789D01*
X24567648Y-18364284D01*
X23917205Y-18363716D01*
X23316057Y-18612106D01*
X22855722Y-19071637D01*
X22606284Y-19672352D01*
X22605716Y-20322795D01*
X20710000Y-20322795D01*
X20710000Y-15710000D01*
X85290000Y-15710000D01*
X85290000Y-91290000D01*
X85290000Y-91290000D01*
G37*
X85290000Y-91290000D02*
X20710000Y-91290000D01*
X20710000Y-89422789D01*
X25864760Y-89422789D01*
X26189090Y-90207727D01*
X26789114Y-90808800D01*
X27573485Y-91134499D01*
X28422789Y-91135240D01*
X29207727Y-90810910D01*
X29808800Y-90210886D01*
X30134499Y-89426515D01*
X30134502Y-89422789D01*
X75864760Y-89422789D01*
X76189090Y-90207727D01*
X76789114Y-90808800D01*
X77573485Y-91134499D01*
X78422789Y-91135240D01*
X79207727Y-90810910D01*
X79808800Y-90210886D01*
X80134499Y-89426515D01*
X80135240Y-88577211D01*
X79810910Y-87792273D01*
X79210886Y-87191200D01*
X78426515Y-86865501D01*
X77577211Y-86864760D01*
X76792273Y-87189090D01*
X76191200Y-87789114D01*
X75865501Y-88573485D01*
X75864760Y-89422789D01*
X30134502Y-89422789D01*
X30135240Y-88577211D01*
X29810910Y-87792273D01*
X29387682Y-87368305D01*
X32444674Y-87368305D01*
X32731043Y-88061372D01*
X33260839Y-88592093D01*
X33953405Y-88879672D01*
X34703305Y-88880326D01*
X35396372Y-88593957D01*
X35927093Y-88064161D01*
X36214672Y-87371595D01*
X36214674Y-87368305D01*
X37444674Y-87368305D01*
X37731043Y-88061372D01*
X38260839Y-88592093D01*
X38953405Y-88879672D01*
X39703305Y-88880326D01*
X40396372Y-88593957D01*
X40927093Y-88064161D01*
X41214672Y-87371595D01*
X41214674Y-87368305D01*
X43112674Y-87368305D01*
X43399043Y-88061372D01*
X43928839Y-88592093D01*
X44621405Y-88879672D01*
X45371305Y-88880326D01*
X46064372Y-88593957D01*
X46595093Y-88064161D01*
X46882672Y-87371595D01*
X46882674Y-87368305D01*
X48112674Y-87368305D01*
X48399043Y-88061372D01*
X48928839Y-88592093D01*
X49621405Y-88879672D01*
X50371305Y-88880326D01*
X51064372Y-88593957D01*
X51595093Y-88064161D01*
X51882672Y-87371595D01*
X51882674Y-87368305D01*
X53780674Y-87368305D01*
X54067043Y-88061372D01*
X54596839Y-88592093D01*
X55289405Y-88879672D01*
X56039305Y-88880326D01*
X56732372Y-88593957D01*
X57263093Y-88064161D01*
X57550672Y-87371595D01*
X57550674Y-87368305D01*
X58780674Y-87368305D01*
X59067043Y-88061372D01*
X59596839Y-88592093D01*
X60289405Y-88879672D01*
X61039305Y-88880326D01*
X61732372Y-88593957D01*
X62263093Y-88064161D01*
X62550672Y-87371595D01*
X62551326Y-86621695D01*
X62264957Y-85928628D01*
X61735161Y-85397907D01*
X61042595Y-85110328D01*
X60292695Y-85109674D01*
X59599628Y-85396043D01*
X59068907Y-85925839D01*
X58781328Y-86618405D01*
X58780674Y-87368305D01*
X57550674Y-87368305D01*
X57551326Y-86621695D01*
X57264957Y-85928628D01*
X56735161Y-85397907D01*
X56042595Y-85110328D01*
X55292695Y-85109674D01*
X54599628Y-85396043D01*
X54068907Y-85925839D01*
X53781328Y-86618405D01*
X53780674Y-87368305D01*
X51882674Y-87368305D01*
X51883326Y-86621695D01*
X51596957Y-85928628D01*
X51067161Y-85397907D01*
X50374595Y-85110328D01*
X49624695Y-85109674D01*
X48931628Y-85396043D01*
X48400907Y-85925839D01*
X48113328Y-86618405D01*
X48112674Y-87368305D01*
X46882674Y-87368305D01*
X46883326Y-86621695D01*
X46807178Y-86437402D01*
X48668980Y-84575599D01*
X65824699Y-84575599D01*
X66088281Y-85213515D01*
X66575918Y-85702004D01*
X67213373Y-85966699D01*
X67903599Y-85967301D01*
X68541515Y-85703719D01*
X69030004Y-85216082D01*
X69279509Y-84615207D01*
X77824665Y-84615207D01*
X78118630Y-85326658D01*
X78662479Y-85871457D01*
X79373416Y-86166663D01*
X80143207Y-86167335D01*
X80854658Y-85873370D01*
X81399457Y-85329521D01*
X81694663Y-84618584D01*
X81695335Y-83848793D01*
X81401370Y-83137342D01*
X80857521Y-82592543D01*
X80146584Y-82297337D01*
X79376793Y-82296665D01*
X78665342Y-82590630D01*
X78120543Y-83134479D01*
X77825337Y-83845416D01*
X77824665Y-84615207D01*
X69279509Y-84615207D01*
X69294699Y-84578627D01*
X69295301Y-83888401D01*
X69031719Y-83250485D01*
X68544082Y-82761996D01*
X67906627Y-82497301D01*
X67216401Y-82496699D01*
X66578485Y-82760281D01*
X66089996Y-83247918D01*
X65825301Y-83885373D01*
X65824699Y-84575599D01*
X48668980Y-84575599D01*
X49809579Y-83435000D01*
X65150995Y-83435000D01*
X65151000Y-83435001D01*
X65433484Y-83378810D01*
X65489675Y-83367633D01*
X65776790Y-83175790D01*
X67549579Y-81403000D01*
X76072995Y-81403000D01*
X76073000Y-81403001D01*
X76355484Y-81346810D01*
X76411675Y-81335633D01*
X76698790Y-81143790D01*
X76698791Y-81143789D01*
X84064787Y-73777792D01*
X84064790Y-73777790D01*
X84256633Y-73490675D01*
X84277771Y-73384410D01*
X84324001Y-73152000D01*
X84324000Y-73151995D01*
X84324000Y-69723005D01*
X84324001Y-69723000D01*
X84256633Y-69384326D01*
X84256633Y-69384325D01*
X84064790Y-69097210D01*
X84064787Y-69097208D01*
X81622783Y-66655203D01*
X81401370Y-66119342D01*
X80857521Y-65574543D01*
X80146584Y-65279337D01*
X79376793Y-65278665D01*
X78665342Y-65572630D01*
X78120543Y-66116479D01*
X77825337Y-66827416D01*
X77824665Y-67597207D01*
X78118630Y-68308658D01*
X78662479Y-68853457D01*
X79373416Y-69148663D01*
X80143207Y-69149335D01*
X80854658Y-68855370D01*
X81087427Y-68623007D01*
X82554000Y-70089579D01*
X82554000Y-72785421D01*
X75706420Y-79633000D01*
X67183005Y-79633000D01*
X67183000Y-79632999D01*
X67000659Y-79669270D01*
X67284183Y-79386240D01*
X67594646Y-78638562D01*
X67595352Y-77828989D01*
X67286195Y-77080771D01*
X66714240Y-76507817D01*
X65966562Y-76197354D01*
X65156989Y-76196648D01*
X64408771Y-76505805D01*
X63835817Y-77077760D01*
X63525354Y-77825438D01*
X63524648Y-78635011D01*
X63833805Y-79383229D01*
X64405760Y-79956183D01*
X65153438Y-80266646D01*
X65963011Y-80267352D01*
X66336315Y-80113106D01*
X64784420Y-81665000D01*
X49443005Y-81665000D01*
X49443000Y-81664999D01*
X49104325Y-81732367D01*
X48817210Y-81924210D01*
X48817208Y-81924213D01*
X45555835Y-85185585D01*
X45374595Y-85110328D01*
X44624695Y-85109674D01*
X43931628Y-85396043D01*
X43400907Y-85925839D01*
X43113328Y-86618405D01*
X43112674Y-87368305D01*
X41214674Y-87368305D01*
X41215326Y-86621695D01*
X40928957Y-85928628D01*
X40399161Y-85397907D01*
X40215000Y-85321437D01*
X40215000Y-84226580D01*
X43292579Y-81149000D01*
X57149995Y-81149000D01*
X57150000Y-81149001D01*
X57432484Y-81092810D01*
X57488675Y-81081633D01*
X57775790Y-80889790D01*
X57775791Y-80889789D01*
X62723579Y-75942000D01*
X76934995Y-75942000D01*
X76935000Y-75942001D01*
X77217484Y-75885810D01*
X77273675Y-75874633D01*
X77560790Y-75682790D01*
X79163910Y-74079669D01*
X79373416Y-74166663D01*
X80143207Y-74167335D01*
X80854658Y-73873370D01*
X81399457Y-73329521D01*
X81694663Y-72618584D01*
X81695335Y-71848793D01*
X81401370Y-71137342D01*
X80857521Y-70592543D01*
X80146584Y-70297337D01*
X79376793Y-70296665D01*
X78665342Y-70590630D01*
X78120543Y-71134479D01*
X77825337Y-71845416D01*
X77824665Y-72615207D01*
X77912540Y-72827881D01*
X76568420Y-74172000D01*
X62357005Y-74172000D01*
X62357000Y-74171999D01*
X62074516Y-74228190D01*
X62018325Y-74239367D01*
X61731210Y-74431210D01*
X61731208Y-74431213D01*
X56783420Y-79379000D01*
X42926005Y-79379000D01*
X42926000Y-79378999D01*
X42643516Y-79435190D01*
X42587325Y-79446367D01*
X42300210Y-79638210D01*
X42300208Y-79638213D01*
X38704210Y-83234210D01*
X38512367Y-83521325D01*
X38512367Y-83521326D01*
X38444999Y-83860000D01*
X38445000Y-83860005D01*
X38445000Y-85321102D01*
X38263628Y-85396043D01*
X37732907Y-85925839D01*
X37445328Y-86618405D01*
X37444674Y-87368305D01*
X36214674Y-87368305D01*
X36215326Y-86621695D01*
X35928957Y-85928628D01*
X35399161Y-85397907D01*
X35215000Y-85321437D01*
X35215000Y-82241580D01*
X40244579Y-77212000D01*
X56514995Y-77212000D01*
X56515000Y-77212001D01*
X56797484Y-77155810D01*
X56853675Y-77144633D01*
X57140790Y-76952790D01*
X57140791Y-76952789D01*
X61966787Y-72126792D01*
X61966790Y-72126790D01*
X62158633Y-71839675D01*
X62169810Y-71783484D01*
X62226001Y-71501000D01*
X62226000Y-71500995D01*
X62226000Y-67557599D01*
X65824699Y-67557599D01*
X66088281Y-68195515D01*
X66575918Y-68684004D01*
X67213373Y-68948699D01*
X67903599Y-68949301D01*
X68541515Y-68685719D01*
X69030004Y-68198082D01*
X69294699Y-67560627D01*
X69295301Y-66870401D01*
X69031719Y-66232485D01*
X68544082Y-65743996D01*
X67906627Y-65479301D01*
X67216401Y-65478699D01*
X66578485Y-65742281D01*
X66089996Y-66229918D01*
X65825301Y-66867373D01*
X65824699Y-67557599D01*
X62226000Y-67557599D01*
X62226000Y-61617011D01*
X63524648Y-61617011D01*
X63833805Y-62365229D01*
X64405760Y-62938183D01*
X65153438Y-63248646D01*
X65963011Y-63249352D01*
X66711229Y-62940195D01*
X67284183Y-62368240D01*
X67594646Y-61620562D01*
X67595352Y-60810989D01*
X67286195Y-60062771D01*
X66714240Y-59489817D01*
X65966562Y-59179354D01*
X65156989Y-59178648D01*
X64408771Y-59487805D01*
X63835817Y-60059760D01*
X63525354Y-60807438D01*
X63524648Y-61617011D01*
X62226000Y-61617011D01*
X62226000Y-58024580D01*
X66406579Y-53844000D01*
X66476588Y-53844000D01*
X66089996Y-54229918D01*
X65825301Y-54867373D01*
X65824699Y-55557599D01*
X66088281Y-56195515D01*
X66575918Y-56684004D01*
X67213373Y-56948699D01*
X67903599Y-56949301D01*
X68002752Y-56908332D01*
X70997000Y-59902579D01*
X70997000Y-69229421D01*
X69003851Y-71222569D01*
X68544082Y-70761996D01*
X67906627Y-70497301D01*
X67216401Y-70496699D01*
X66578485Y-70760281D01*
X66089996Y-71247918D01*
X65825301Y-71885373D01*
X65824699Y-72575599D01*
X66088281Y-73213515D01*
X66575918Y-73702004D01*
X67213373Y-73966699D01*
X67903599Y-73967301D01*
X68541515Y-73703719D01*
X69030004Y-73216082D01*
X69071147Y-73117000D01*
X69245995Y-73117000D01*
X69246000Y-73117001D01*
X69528484Y-73060810D01*
X69584675Y-73049633D01*
X69871790Y-72857790D01*
X72507787Y-70221792D01*
X72507790Y-70221790D01*
X72699633Y-69934675D01*
X72733319Y-69765326D01*
X72767001Y-69596000D01*
X72767000Y-69595995D01*
X72767000Y-59536005D01*
X72767001Y-59536000D01*
X72699633Y-59197326D01*
X72699633Y-59197325D01*
X72507790Y-58910210D01*
X72507787Y-58910208D01*
X69254652Y-55657072D01*
X69294699Y-55560627D01*
X69295301Y-54870401D01*
X69031719Y-54232485D01*
X68643912Y-53844000D01*
X72023420Y-53844000D01*
X74019208Y-55839787D01*
X74019210Y-55839790D01*
X74211054Y-55967975D01*
X74306326Y-56031634D01*
X74645000Y-56099001D01*
X74645005Y-56099000D01*
X78032001Y-56099000D01*
X78118630Y-56308658D01*
X78662479Y-56853457D01*
X79373416Y-57148663D01*
X80143207Y-57149335D01*
X80854658Y-56855370D01*
X81399457Y-56311521D01*
X81694663Y-55600584D01*
X81695335Y-54830793D01*
X81401370Y-54119342D01*
X80857521Y-53574543D01*
X80146584Y-53279337D01*
X79376793Y-53278665D01*
X78665342Y-53572630D01*
X78120543Y-54116479D01*
X78032297Y-54329000D01*
X75011579Y-54329000D01*
X73015790Y-52333210D01*
X72961232Y-52296756D01*
X72728675Y-52141367D01*
X72672484Y-52130190D01*
X72390000Y-52073999D01*
X72389995Y-52074000D01*
X68505492Y-52074000D01*
X69337871Y-51730068D01*
X70220708Y-50848771D01*
X70699085Y-49696712D01*
X70700173Y-48449281D01*
X70223808Y-47296389D01*
X69342511Y-46413552D01*
X68190452Y-45935175D01*
X66943021Y-45934087D01*
X65790129Y-46410452D01*
X64907292Y-47291749D01*
X64428915Y-48443808D01*
X64427827Y-49691239D01*
X64904192Y-50844131D01*
X65785489Y-51726968D01*
X66621234Y-52074000D01*
X66040005Y-52074000D01*
X66040000Y-52073999D01*
X65701326Y-52141366D01*
X65629742Y-52189197D01*
X65414210Y-52333210D01*
X65414208Y-52333213D01*
X60715210Y-57032210D01*
X60523367Y-57319325D01*
X60523367Y-57319326D01*
X60455999Y-57658000D01*
X60456000Y-57658005D01*
X60456000Y-71134421D01*
X58156374Y-73434047D01*
X58284803Y-73124756D01*
X58285197Y-72673225D01*
X58112767Y-72255914D01*
X57793765Y-71936355D01*
X57376756Y-71763197D01*
X57266680Y-71763101D01*
X55241000Y-69737420D01*
X55241000Y-65744276D01*
X55317645Y-65667765D01*
X55490803Y-65250756D01*
X55491197Y-64799225D01*
X55318767Y-64381914D01*
X54999765Y-64062355D01*
X54582756Y-63889197D01*
X54472680Y-63889101D01*
X53979580Y-63396000D01*
X56410560Y-63396000D01*
X56410560Y-64596000D01*
X56454838Y-64831317D01*
X56593910Y-65047441D01*
X56806110Y-65192431D01*
X57058000Y-65243440D01*
X58258000Y-65243440D01*
X58493317Y-65199162D01*
X58709441Y-65060090D01*
X58854431Y-64847890D01*
X58905440Y-64596000D01*
X58905440Y-63396000D01*
X58861162Y-63160683D01*
X58774901Y-63026630D01*
X58892785Y-62742734D01*
X58893214Y-62251421D01*
X58705592Y-61797343D01*
X58358485Y-61449629D01*
X57904734Y-61261215D01*
X57413421Y-61260786D01*
X56959343Y-61448408D01*
X56611629Y-61795515D01*
X56423215Y-62249266D01*
X56422786Y-62740579D01*
X56541304Y-63027414D01*
X56461569Y-63144110D01*
X56410560Y-63396000D01*
X53979580Y-63396000D01*
X53711790Y-63128210D01*
X53424675Y-62936367D01*
X53368484Y-62925190D01*
X53086000Y-62868999D01*
X53085995Y-62869000D01*
X49276005Y-62869000D01*
X49276000Y-62868999D01*
X48993516Y-62925190D01*
X48937325Y-62936367D01*
X48650210Y-63128210D01*
X48650208Y-63128213D01*
X48397523Y-63380897D01*
X48289225Y-63380803D01*
X47871914Y-63553233D01*
X47552355Y-63872235D01*
X47379197Y-64289244D01*
X47378803Y-64740775D01*
X47551233Y-65158086D01*
X47870235Y-65477645D01*
X48287244Y-65650803D01*
X48738775Y-65651197D01*
X49156086Y-65478767D01*
X49475645Y-65159765D01*
X49648803Y-64742756D01*
X49648894Y-64639000D01*
X49893857Y-64639000D01*
X49857569Y-64692110D01*
X49806560Y-64944000D01*
X49806560Y-66144000D01*
X49850838Y-66379317D01*
X49932766Y-66506636D01*
X49806193Y-66875036D01*
X49836518Y-67365413D01*
X49965836Y-67677617D01*
X50191265Y-67727130D01*
X50874395Y-67044000D01*
X50860253Y-67029858D01*
X51039858Y-66850253D01*
X51054000Y-66864395D01*
X51068143Y-66850253D01*
X51247748Y-67029858D01*
X51233605Y-67044000D01*
X51916735Y-67727130D01*
X52142164Y-67677617D01*
X52301807Y-67212964D01*
X52271482Y-66722587D01*
X52179289Y-66500010D01*
X52250431Y-66395890D01*
X52301440Y-66144000D01*
X52301440Y-64944000D01*
X52257162Y-64708683D01*
X52212322Y-64639000D01*
X52719420Y-64639000D01*
X53220897Y-65140477D01*
X53220803Y-65248775D01*
X53393233Y-65666086D01*
X53471000Y-65743989D01*
X53471000Y-70103995D01*
X53470999Y-70104000D01*
X53514196Y-70321161D01*
X53538367Y-70442675D01*
X53632682Y-70583828D01*
X53730210Y-70729790D01*
X56014897Y-73014477D01*
X56014803Y-73122775D01*
X56187233Y-73540086D01*
X56506235Y-73859645D01*
X56923244Y-74032803D01*
X57374775Y-74033197D01*
X57685692Y-73904728D01*
X56148420Y-75442000D01*
X39878005Y-75442000D01*
X39878000Y-75441999D01*
X39595516Y-75498190D01*
X39539325Y-75509367D01*
X39252210Y-75701210D01*
X39252208Y-75701213D01*
X33704210Y-81249210D01*
X33512367Y-81536325D01*
X33512367Y-81536326D01*
X33444999Y-81875000D01*
X33445000Y-81875005D01*
X33445000Y-85321102D01*
X33263628Y-85396043D01*
X32732907Y-85925839D01*
X32445328Y-86618405D01*
X32444674Y-87368305D01*
X29387682Y-87368305D01*
X29210886Y-87191200D01*
X28426515Y-86865501D01*
X27577211Y-86864760D01*
X26792273Y-87189090D01*
X26191200Y-87789114D01*
X25865501Y-88573485D01*
X25864760Y-89422789D01*
X20710000Y-89422789D01*
X20710000Y-51278775D01*
X28582803Y-51278775D01*
X28755233Y-51696086D01*
X29074235Y-52015645D01*
X29491244Y-52188803D01*
X29942775Y-52189197D01*
X30360086Y-52016767D01*
X30563207Y-51814000D01*
X32451198Y-51814000D01*
X34514599Y-53877401D01*
X34761160Y-54042148D01*
X34860081Y-54061825D01*
X34857852Y-54065161D01*
X34800000Y-54356000D01*
X34800000Y-64262000D01*
X34857852Y-64552839D01*
X35022599Y-64799401D01*
X36832000Y-66608802D01*
X36832000Y-68538170D01*
X36813135Y-68471253D01*
X36473465Y-68040290D01*
X35994728Y-67772118D01*
X35903070Y-67755370D01*
X35687000Y-67877870D01*
X35687000Y-69220080D01*
X35707000Y-69220080D01*
X35707000Y-69474080D01*
X35687000Y-69474080D01*
X35687000Y-69494080D01*
X35433000Y-69494080D01*
X35433000Y-69474080D01*
X35413000Y-69474080D01*
X35413000Y-69220080D01*
X35433000Y-69220080D01*
X35433000Y-67877870D01*
X35216930Y-67755370D01*
X35125272Y-67772118D01*
X34646535Y-68040290D01*
X34306865Y-68471253D01*
X34293774Y-68517688D01*
X34007828Y-68089740D01*
X33780000Y-67937510D01*
X33780000Y-61985681D01*
X33900803Y-61694756D01*
X33901197Y-61243225D01*
X33728767Y-60825914D01*
X33409765Y-60506355D01*
X32992756Y-60333197D01*
X32541225Y-60332803D01*
X32123914Y-60505233D01*
X31804355Y-60824235D01*
X31631197Y-61241244D01*
X31630803Y-61692775D01*
X31803233Y-62110086D01*
X32122235Y-62429645D01*
X32260000Y-62486850D01*
X32260000Y-67937510D01*
X32032172Y-68089740D01*
X31750000Y-68512039D01*
X31467828Y-68089740D01*
X31014609Y-67786908D01*
X30480000Y-67680568D01*
X29945391Y-67786908D01*
X29492172Y-68089740D01*
X29189340Y-68542959D01*
X29083000Y-69077568D01*
X29083000Y-69616592D01*
X29189340Y-70151201D01*
X29492172Y-70604420D01*
X29697770Y-70741797D01*
X29482683Y-70782268D01*
X29266559Y-70921340D01*
X29121569Y-71133540D01*
X29070560Y-71385430D01*
X29070560Y-73384410D01*
X29114838Y-73619727D01*
X29253910Y-73835851D01*
X29466110Y-73980841D01*
X29718000Y-74031850D01*
X31242000Y-74031850D01*
X31477317Y-73987572D01*
X31693441Y-73848500D01*
X31838431Y-73636300D01*
X31882565Y-73418358D01*
X32032172Y-73642260D01*
X32485391Y-73945092D01*
X33020000Y-74051432D01*
X33554609Y-73945092D01*
X34007828Y-73642260D01*
X34290000Y-73219961D01*
X34572172Y-73642260D01*
X35025391Y-73945092D01*
X35560000Y-74051432D01*
X36094609Y-73945092D01*
X36547828Y-73642260D01*
X36850660Y-73189041D01*
X36957000Y-72654432D01*
X36957000Y-72115408D01*
X36906960Y-71863842D01*
X38111424Y-70659378D01*
X38159852Y-70902839D01*
X38324599Y-71149401D01*
X38892740Y-71717542D01*
X38892740Y-72898000D01*
X38937018Y-73133317D01*
X39076090Y-73349441D01*
X39288290Y-73494431D01*
X39540180Y-73545440D01*
X41739820Y-73545440D01*
X41975137Y-73501162D01*
X42191261Y-73362090D01*
X42336251Y-73149890D01*
X42387260Y-72898000D01*
X42387260Y-71374000D01*
X42342982Y-71138683D01*
X42203910Y-70922559D01*
X41991710Y-70777569D01*
X41775276Y-70733740D01*
X41999635Y-70583828D01*
X42302467Y-70130609D01*
X42408807Y-69596000D01*
X42302467Y-69061391D01*
X41999635Y-68608172D01*
X41546416Y-68305340D01*
X41400000Y-68276216D01*
X41400000Y-67035580D01*
X41536897Y-67172477D01*
X41536803Y-67280775D01*
X41709233Y-67698086D01*
X42028235Y-68017645D01*
X42445244Y-68190803D01*
X42896775Y-68191197D01*
X43314086Y-68018767D01*
X43633645Y-67699765D01*
X43690000Y-67564048D01*
X43690000Y-71036941D01*
X43488355Y-71238235D01*
X43315197Y-71655244D01*
X43314803Y-72106775D01*
X43487233Y-72524086D01*
X43806235Y-72843645D01*
X44223244Y-73016803D01*
X44674775Y-73017197D01*
X45092086Y-72844767D01*
X45411645Y-72525765D01*
X45584803Y-72108756D01*
X45585197Y-71657225D01*
X45412767Y-71239914D01*
X45210000Y-71036793D01*
X45210000Y-67906735D01*
X50370870Y-67906735D01*
X50420383Y-68132164D01*
X50885036Y-68291807D01*
X51375413Y-68261482D01*
X51687617Y-68132164D01*
X51737130Y-67906735D01*
X51054000Y-67223605D01*
X50370870Y-67906735D01*
X45210000Y-67906735D01*
X45210000Y-58166000D01*
X45189313Y-58062000D01*
X56410560Y-58062000D01*
X56410560Y-59262000D01*
X56454838Y-59497317D01*
X56593910Y-59713441D01*
X56806110Y-59858431D01*
X57058000Y-59909440D01*
X58258000Y-59909440D01*
X58493317Y-59865162D01*
X58709441Y-59726090D01*
X58854431Y-59513890D01*
X58905440Y-59262000D01*
X58905440Y-58062000D01*
X58861162Y-57826683D01*
X58774901Y-57692630D01*
X58892785Y-57408734D01*
X58893214Y-56917421D01*
X58705592Y-56463343D01*
X58358485Y-56115629D01*
X57904734Y-55927215D01*
X57413421Y-55926786D01*
X56959343Y-56114408D01*
X56611629Y-56461515D01*
X56423215Y-56915266D01*
X56422786Y-57406579D01*
X56541304Y-57693414D01*
X56461569Y-57810110D01*
X56410560Y-58062000D01*
X45189313Y-58062000D01*
X45152148Y-57875161D01*
X45152148Y-57875160D01*
X44987401Y-57628599D01*
X44314948Y-56956146D01*
X44315197Y-56671225D01*
X44142767Y-56253914D01*
X43823765Y-55934355D01*
X43406756Y-55761197D01*
X42955225Y-55760803D01*
X42795000Y-55827007D01*
X42795000Y-53217347D01*
X42896599Y-53369401D01*
X43569052Y-54041854D01*
X43568803Y-54326775D01*
X43741233Y-54744086D01*
X44060235Y-55063645D01*
X44477244Y-55236803D01*
X44928775Y-55237197D01*
X45346086Y-55064767D01*
X45665645Y-54745765D01*
X45838803Y-54328756D01*
X45839197Y-53877225D01*
X45713320Y-53572579D01*
X56422786Y-53572579D01*
X56610408Y-54026657D01*
X56957515Y-54374371D01*
X57411266Y-54562785D01*
X57902579Y-54563214D01*
X58356657Y-54375592D01*
X58704371Y-54028485D01*
X58892785Y-53574734D01*
X58893214Y-53083421D01*
X58778422Y-52805604D01*
X58796327Y-52787699D01*
X58893000Y-52554310D01*
X58893000Y-52113750D01*
X58734250Y-51955000D01*
X57785000Y-51955000D01*
X57785000Y-51975000D01*
X57531000Y-51975000D01*
X57531000Y-51955000D01*
X56581750Y-51955000D01*
X56423000Y-52113750D01*
X56423000Y-52554310D01*
X56519673Y-52787699D01*
X56537650Y-52805676D01*
X56423215Y-53081266D01*
X56422786Y-53572579D01*
X45713320Y-53572579D01*
X45666767Y-53459914D01*
X45347765Y-53140355D01*
X44930756Y-52967197D01*
X44643749Y-52966947D01*
X44194000Y-52517198D01*
X44194000Y-44760802D01*
X44198000Y-44764802D01*
X44198000Y-50038000D01*
X44255852Y-50328839D01*
X44420599Y-50575401D01*
X45855052Y-52009854D01*
X45854803Y-52294775D01*
X46027233Y-52712086D01*
X46346235Y-53031645D01*
X46763244Y-53204803D01*
X47214775Y-53205197D01*
X47632086Y-53032767D01*
X47951645Y-52713765D01*
X48124803Y-52296756D01*
X48125197Y-51845225D01*
X47952767Y-51427914D01*
X47633765Y-51108355D01*
X47617714Y-51101690D01*
X56423000Y-51101690D01*
X56423000Y-51542250D01*
X56581750Y-51701000D01*
X57531000Y-51701000D01*
X57531000Y-50751750D01*
X57785000Y-50751750D01*
X57785000Y-51701000D01*
X58734250Y-51701000D01*
X58893000Y-51542250D01*
X58893000Y-51101690D01*
X58796327Y-50868301D01*
X58617698Y-50689673D01*
X58384309Y-50593000D01*
X57943750Y-50593000D01*
X57785000Y-50751750D01*
X57531000Y-50751750D01*
X57372250Y-50593000D01*
X56931691Y-50593000D01*
X56698302Y-50689673D01*
X56519673Y-50868301D01*
X56423000Y-51101690D01*
X47617714Y-51101690D01*
X47216756Y-50935197D01*
X46929749Y-50934947D01*
X45718000Y-49723198D01*
X45718000Y-44450000D01*
X45660148Y-44159161D01*
X45495401Y-43912599D01*
X43505091Y-41922289D01*
X48884517Y-41922289D01*
X49013725Y-42215059D01*
X49713883Y-42483271D01*
X50463384Y-42463128D01*
X50478142Y-42457015D01*
X64453277Y-42457015D01*
X64471923Y-42559045D01*
X64742370Y-43032064D01*
X65173247Y-43365581D01*
X65698957Y-43508821D01*
X65918080Y-43348126D01*
X65918080Y-42242740D01*
X66172080Y-42242740D01*
X66172080Y-43348126D01*
X66391203Y-43508821D01*
X66916913Y-43365581D01*
X67347790Y-43032064D01*
X67618237Y-42559045D01*
X67636883Y-42457015D01*
X67514229Y-42242740D01*
X66172080Y-42242740D01*
X65918080Y-42242740D01*
X64575931Y-42242740D01*
X64453277Y-42457015D01*
X50478142Y-42457015D01*
X51062275Y-42215059D01*
X51191483Y-41922289D01*
X50038000Y-40768805D01*
X48884517Y-41922289D01*
X43505091Y-41922289D01*
X40415401Y-38832599D01*
X40168839Y-38667852D01*
X39878000Y-38610000D01*
X35052000Y-38610000D01*
X34761160Y-38667852D01*
X34514599Y-38832599D01*
X32228599Y-41118599D01*
X32063852Y-41365161D01*
X32006000Y-41656000D01*
X32006000Y-45890941D01*
X31804355Y-46092235D01*
X31631197Y-46509244D01*
X31630803Y-46960775D01*
X31803233Y-47378086D01*
X32122235Y-47697645D01*
X32539244Y-47870803D01*
X32990775Y-47871197D01*
X33408086Y-47698767D01*
X33727645Y-47379765D01*
X33900803Y-46962756D01*
X33901197Y-46511225D01*
X33728767Y-46093914D01*
X33526000Y-45890793D01*
X33526000Y-42709223D01*
X34141035Y-42709223D01*
X34168222Y-43279454D01*
X34334136Y-43680005D01*
X34580255Y-43754139D01*
X35408395Y-42926000D01*
X34580255Y-42097861D01*
X34334136Y-42171995D01*
X34141035Y-42709223D01*
X33526000Y-42709223D01*
X33526000Y-41970802D01*
X35366802Y-40130000D01*
X39563198Y-40130000D01*
X39567198Y-40134000D01*
X38100000Y-40134000D01*
X37809161Y-40191852D01*
X37562599Y-40356599D01*
X36800599Y-41118599D01*
X36635852Y-41365161D01*
X36578000Y-41656000D01*
X36578000Y-41850364D01*
X36531014Y-41803378D01*
X36416139Y-41918253D01*
X36342005Y-41672136D01*
X35804777Y-41479035D01*
X35234546Y-41506222D01*
X34833995Y-41672136D01*
X34759861Y-41918255D01*
X35588000Y-42746395D01*
X35602142Y-42732252D01*
X35781748Y-42911858D01*
X35767605Y-42926000D01*
X35781748Y-42940142D01*
X35602142Y-43119748D01*
X35588000Y-43105605D01*
X34759861Y-43933745D01*
X34833995Y-44179864D01*
X35371223Y-44372965D01*
X35941454Y-44345778D01*
X36342005Y-44179864D01*
X36416139Y-43933747D01*
X36531014Y-44048622D01*
X36578000Y-44001636D01*
X36578000Y-44643198D01*
X36128146Y-45093052D01*
X35843225Y-45092803D01*
X35425914Y-45265233D01*
X35106355Y-45584235D01*
X34933197Y-46001244D01*
X34932803Y-46452775D01*
X35105233Y-46870086D01*
X35424235Y-47189645D01*
X35841244Y-47362803D01*
X36292775Y-47363197D01*
X36710086Y-47190767D01*
X37029645Y-46871765D01*
X37202803Y-46454756D01*
X37203053Y-46167749D01*
X37875401Y-45495401D01*
X38040148Y-45248840D01*
X38098000Y-44958000D01*
X38098000Y-44334964D01*
X38288000Y-44373440D01*
X39283860Y-44373440D01*
X41025000Y-46114579D01*
X41025000Y-54174198D01*
X39742948Y-52892146D01*
X39743197Y-52607225D01*
X39570767Y-52189914D01*
X39251765Y-51870355D01*
X38834756Y-51697197D01*
X38383225Y-51696803D01*
X37965914Y-51869233D01*
X37646355Y-52188235D01*
X37473197Y-52605244D01*
X37473173Y-52632206D01*
X37219765Y-52378355D01*
X36802756Y-52205197D01*
X36351225Y-52204803D01*
X35933914Y-52377233D01*
X35730793Y-52580000D01*
X35366802Y-52580000D01*
X33303401Y-50516599D01*
X33056839Y-50351852D01*
X32766000Y-50294000D01*
X30563059Y-50294000D01*
X30361765Y-50092355D01*
X29944756Y-49919197D01*
X29493225Y-49918803D01*
X29075914Y-50091233D01*
X28756355Y-50410235D01*
X28583197Y-50827244D01*
X28582803Y-51278775D01*
X20710000Y-51278775D01*
X20710000Y-38422441D01*
X45612994Y-38422441D01*
X45899314Y-39115391D01*
X46429021Y-39646022D01*
X47121469Y-39933552D01*
X47871241Y-39934206D01*
X48345792Y-39738126D01*
X48143929Y-40265083D01*
X48164072Y-41014584D01*
X48412141Y-41613475D01*
X48704911Y-41742683D01*
X49858395Y-40589200D01*
X49844252Y-40575058D01*
X50023858Y-40395452D01*
X50038000Y-40409595D01*
X50052142Y-40395452D01*
X50231748Y-40575058D01*
X50217605Y-40589200D01*
X51371089Y-41742683D01*
X51663859Y-41613475D01*
X51932071Y-40913317D01*
X51911928Y-40163816D01*
X51736592Y-39740518D01*
X52201469Y-39933552D01*
X52951241Y-39934206D01*
X53644191Y-39647886D01*
X54174822Y-39118179D01*
X54462352Y-38425731D01*
X54463006Y-37675959D01*
X54176686Y-36983009D01*
X53646979Y-36452378D01*
X52954531Y-36164848D01*
X52204759Y-36164194D01*
X51511809Y-36450514D01*
X50981178Y-36980221D01*
X50693648Y-37672669D01*
X50692994Y-38422441D01*
X50889074Y-38896992D01*
X50362117Y-38695129D01*
X49612616Y-38715272D01*
X49189318Y-38890608D01*
X49382352Y-38425731D01*
X49383006Y-37675959D01*
X49096686Y-36983009D01*
X48566979Y-36452378D01*
X47874531Y-36164848D01*
X47124759Y-36164194D01*
X46431809Y-36450514D01*
X45901178Y-36980221D01*
X45613648Y-37672669D01*
X45612994Y-38422441D01*
X20710000Y-38422441D01*
X20710000Y-34027745D01*
X33616861Y-34027745D01*
X33690995Y-34273864D01*
X34228223Y-34466965D01*
X34798454Y-34439778D01*
X35199005Y-34273864D01*
X35273139Y-34027745D01*
X34445000Y-33199605D01*
X33616861Y-34027745D01*
X20710000Y-34027745D01*
X20710000Y-32803223D01*
X32998035Y-32803223D01*
X33025222Y-33373454D01*
X33191136Y-33774005D01*
X33437255Y-33848139D01*
X34265395Y-33020000D01*
X34624605Y-33020000D01*
X35452745Y-33848139D01*
X35698864Y-33774005D01*
X35891965Y-33236777D01*
X35864778Y-32666546D01*
X35698864Y-32265995D01*
X35546165Y-32220000D01*
X36497560Y-32220000D01*
X36497560Y-33820000D01*
X36541838Y-34055317D01*
X36680910Y-34271441D01*
X36893110Y-34416431D01*
X37145000Y-34467440D01*
X38745000Y-34467440D01*
X38980317Y-34423162D01*
X39196441Y-34284090D01*
X39341431Y-34071890D01*
X39392440Y-33820000D01*
X39392440Y-32220000D01*
X39348162Y-31984683D01*
X39209090Y-31768559D01*
X38996890Y-31623569D01*
X38745000Y-31572560D01*
X37145000Y-31572560D01*
X36909683Y-31616838D01*
X36693559Y-31755910D01*
X36548569Y-31968110D01*
X36497560Y-32220000D01*
X35546165Y-32220000D01*
X35452745Y-32191861D01*
X34624605Y-33020000D01*
X34265395Y-33020000D01*
X33437255Y-32191861D01*
X33191136Y-32265995D01*
X32998035Y-32803223D01*
X20710000Y-32803223D01*
X20710000Y-32012255D01*
X33616861Y-32012255D01*
X34445000Y-32840395D01*
X35273139Y-32012255D01*
X35199005Y-31766136D01*
X34661777Y-31573035D01*
X34091546Y-31600222D01*
X33690995Y-31766136D01*
X33616861Y-32012255D01*
X20710000Y-32012255D01*
X20710000Y-31036260D01*
X64378568Y-31036260D01*
X64484038Y-31566495D01*
X64784392Y-32016006D01*
X65233903Y-32316360D01*
X65757753Y-32420560D01*
X65233903Y-32524760D01*
X64784392Y-32825114D01*
X64484038Y-33274625D01*
X64378568Y-33804860D01*
X64484038Y-34335095D01*
X64784392Y-34784606D01*
X65233903Y-35084960D01*
X65764138Y-35190430D01*
X65233903Y-35295900D01*
X64784392Y-35596254D01*
X64484038Y-36045765D01*
X64378568Y-36576000D01*
X64484038Y-37106235D01*
X64784392Y-37555746D01*
X65233903Y-37856100D01*
X65764138Y-37961570D01*
X65233903Y-38067040D01*
X64784392Y-38367394D01*
X64484038Y-38816905D01*
X64378568Y-39347140D01*
X64484038Y-39877375D01*
X64784392Y-40326886D01*
X65233903Y-40627240D01*
X65764138Y-40732710D01*
X65918078Y-40732710D01*
X65918078Y-40883353D01*
X65698957Y-40722659D01*
X65173247Y-40865899D01*
X64742370Y-41199416D01*
X64471923Y-41672435D01*
X64453277Y-41774465D01*
X64575931Y-41988740D01*
X65918080Y-41988740D01*
X65918080Y-41968740D01*
X66172080Y-41968740D01*
X66172080Y-41988740D01*
X67514229Y-41988740D01*
X67636883Y-41774465D01*
X67618237Y-41672435D01*
X67347790Y-41199416D01*
X66916913Y-40865899D01*
X66391203Y-40722659D01*
X66172082Y-40883353D01*
X66172082Y-40732710D01*
X66326022Y-40732710D01*
X66856257Y-40627240D01*
X67305768Y-40326886D01*
X67606122Y-39877375D01*
X67711592Y-39347140D01*
X67606122Y-38816905D01*
X67305768Y-38367394D01*
X66856257Y-38067040D01*
X66326022Y-37961570D01*
X66856257Y-37856100D01*
X67305768Y-37555746D01*
X67606122Y-37106235D01*
X67711592Y-36576000D01*
X67606122Y-36045765D01*
X67305768Y-35596254D01*
X66856257Y-35295900D01*
X66326022Y-35190430D01*
X66856257Y-35084960D01*
X67305768Y-34784606D01*
X67606122Y-34335095D01*
X67711592Y-33804860D01*
X67606122Y-33274625D01*
X67305768Y-32825114D01*
X66856257Y-32524760D01*
X66332407Y-32420560D01*
X67416408Y-32420560D01*
X67521878Y-32950795D01*
X67822232Y-33400306D01*
X68271743Y-33700660D01*
X68801978Y-33806130D01*
X68271743Y-33911600D01*
X67822232Y-34211954D01*
X67521878Y-34661465D01*
X67416408Y-35191700D01*
X67521878Y-35721935D01*
X67822232Y-36171446D01*
X68271743Y-36471800D01*
X68795593Y-36576000D01*
X68271743Y-36680200D01*
X67822232Y-36980554D01*
X67521878Y-37430065D01*
X67416408Y-37960300D01*
X67521878Y-38490535D01*
X67822232Y-38940046D01*
X68271743Y-39240400D01*
X68801978Y-39345870D01*
X68271743Y-39451340D01*
X67822232Y-39751694D01*
X67521878Y-40201205D01*
X67416408Y-40731440D01*
X67521878Y-41261675D01*
X67822232Y-41711186D01*
X68271743Y-42011540D01*
X68801978Y-42117010D01*
X69363862Y-42117010D01*
X69894097Y-42011540D01*
X70343608Y-41711186D01*
X70643962Y-41261675D01*
X70749432Y-40731440D01*
X70643962Y-40201205D01*
X70343608Y-39751694D01*
X69894097Y-39451340D01*
X69363862Y-39345870D01*
X69894097Y-39240400D01*
X70343608Y-38940046D01*
X70643962Y-38490535D01*
X70749432Y-37960300D01*
X70643962Y-37430065D01*
X70343608Y-36980554D01*
X69894097Y-36680200D01*
X69370247Y-36576000D01*
X69894097Y-36471800D01*
X70343608Y-36171446D01*
X70643962Y-35721935D01*
X70749432Y-35191700D01*
X70643962Y-34661465D01*
X70343608Y-34211954D01*
X69894097Y-33911600D01*
X69363862Y-33806130D01*
X69894097Y-33700660D01*
X70343608Y-33400306D01*
X70643962Y-32950795D01*
X70749432Y-32420560D01*
X70643962Y-31890325D01*
X70343608Y-31440814D01*
X69894097Y-31140460D01*
X69363862Y-31034990D01*
X68801978Y-31034990D01*
X68271743Y-31140460D01*
X67822232Y-31440814D01*
X67521878Y-31890325D01*
X67416408Y-32420560D01*
X66332407Y-32420560D01*
X66856257Y-32316360D01*
X67305768Y-32016006D01*
X67606122Y-31566495D01*
X67711592Y-31036260D01*
X67606122Y-30506025D01*
X67305768Y-30056514D01*
X66856257Y-29756160D01*
X66326022Y-29650690D01*
X65764138Y-29650690D01*
X65233903Y-29756160D01*
X64784392Y-30056514D01*
X64484038Y-30506025D01*
X64378568Y-31036260D01*
X20710000Y-31036260D01*
X20710000Y-28651532D01*
X21268073Y-28651532D01*
X21366736Y-28918387D01*
X21976461Y-29144908D01*
X22626460Y-29120856D01*
X23115264Y-28918387D01*
X23213927Y-28651532D01*
X22241000Y-27678605D01*
X21268073Y-28651532D01*
X20710000Y-28651532D01*
X20710000Y-28103806D01*
X20821613Y-28373264D01*
X21088468Y-28471927D01*
X22061395Y-27499000D01*
X22420605Y-27499000D01*
X23393532Y-28471927D01*
X23660387Y-28373264D01*
X23886908Y-27763539D01*
X23862856Y-27113540D01*
X23660387Y-26624736D01*
X23393532Y-26526073D01*
X22420605Y-27499000D01*
X22061395Y-27499000D01*
X21088468Y-26526073D01*
X20821613Y-26624736D01*
X20710000Y-26925164D01*
X20710000Y-26346468D01*
X21268073Y-26346468D01*
X22241000Y-27319395D01*
X23213927Y-26346468D01*
X23115264Y-26079613D01*
X22505539Y-25853092D01*
X21855540Y-25877144D01*
X21366736Y-26079613D01*
X21268073Y-26346468D01*
X20710000Y-26346468D01*
X20710000Y-24702719D01*
X64427827Y-24702719D01*
X64904192Y-25855611D01*
X65785489Y-26738448D01*
X66937548Y-27216825D01*
X68184979Y-27217913D01*
X69337871Y-26741548D01*
X70220708Y-25860251D01*
X70699085Y-24708192D01*
X70700173Y-23460761D01*
X70223808Y-22307869D01*
X69342511Y-21425032D01*
X68190452Y-20946655D01*
X66943021Y-20945567D01*
X65790129Y-21421932D01*
X64907292Y-22303229D01*
X64428915Y-23455288D01*
X64427827Y-24702719D01*
X20710000Y-24702719D01*
X20710000Y-22265285D01*
X47653797Y-22265285D01*
X48015943Y-23141744D01*
X48685929Y-23812900D01*
X49561755Y-24176575D01*
X50510085Y-24177403D01*
X51386544Y-23815257D01*
X52057700Y-23145271D01*
X52421375Y-22269445D01*
X52422203Y-21321115D01*
X52060057Y-20444656D01*
X51390071Y-19773500D01*
X50514245Y-19409825D01*
X49565915Y-19408997D01*
X48689456Y-19771143D01*
X48018300Y-20441129D01*
X47654625Y-21316955D01*
X47653797Y-22265285D01*
X20710000Y-22265285D01*
X20710000Y-20322795D01*
X22605716Y-20322795D01*
X22854106Y-20923943D01*
X23313637Y-21384278D01*
X23914352Y-21633716D01*
X24564795Y-21634284D01*
X25133449Y-21399320D01*
X32922285Y-21399320D01*
X33051533Y-21692123D01*
X33751806Y-21960388D01*
X34501435Y-21940250D01*
X35100467Y-21692123D01*
X35229715Y-21399320D01*
X34076000Y-20245605D01*
X32922285Y-21399320D01*
X25133449Y-21399320D01*
X25165943Y-21385894D01*
X25626278Y-20926363D01*
X25875716Y-20325648D01*
X25876284Y-19675205D01*
X25627894Y-19074057D01*
X25168363Y-18613722D01*
X24708545Y-18422789D01*
X25864760Y-18422789D01*
X26189090Y-19207727D01*
X26789114Y-19808800D01*
X27573485Y-20134499D01*
X28422789Y-20135240D01*
X29207727Y-19810910D01*
X29276951Y-19741806D01*
X32181612Y-19741806D01*
X32201750Y-20491435D01*
X32449877Y-21090467D01*
X32742680Y-21219715D01*
X33896395Y-20066000D01*
X34255605Y-20066000D01*
X35409320Y-21219715D01*
X35702123Y-21090467D01*
X35951574Y-20439305D01*
X37190674Y-20439305D01*
X37477043Y-21132372D01*
X38006839Y-21663093D01*
X38699405Y-21950672D01*
X39449305Y-21951326D01*
X40142372Y-21664957D01*
X40673093Y-21135161D01*
X40960672Y-20442595D01*
X40961326Y-19692695D01*
X40674957Y-18999628D01*
X40145161Y-18468907D01*
X40034097Y-18422789D01*
X75864760Y-18422789D01*
X76189090Y-19207727D01*
X76789114Y-19808800D01*
X77573485Y-20134499D01*
X78422789Y-20135240D01*
X79207727Y-19810910D01*
X79808800Y-19210886D01*
X80134499Y-18426515D01*
X80135240Y-17577211D01*
X79810910Y-16792273D01*
X79210886Y-16191200D01*
X78426515Y-15865501D01*
X77577211Y-15864760D01*
X76792273Y-16189090D01*
X76191200Y-16789114D01*
X75865501Y-17573485D01*
X75864760Y-18422789D01*
X40034097Y-18422789D01*
X39452595Y-18181328D01*
X38702695Y-18180674D01*
X38009628Y-18467043D01*
X37478907Y-18996839D01*
X37191328Y-19689405D01*
X37190674Y-20439305D01*
X35951574Y-20439305D01*
X35970388Y-20390194D01*
X35950250Y-19640565D01*
X35702123Y-19041533D01*
X35409320Y-18912285D01*
X34255605Y-20066000D01*
X33896395Y-20066000D01*
X32742680Y-18912285D01*
X32449877Y-19041533D01*
X32181612Y-19741806D01*
X29276951Y-19741806D01*
X29808800Y-19210886D01*
X30007368Y-18732680D01*
X32922285Y-18732680D01*
X34076000Y-19886395D01*
X35229715Y-18732680D01*
X35100467Y-18439877D01*
X34400194Y-18171612D01*
X33650565Y-18191750D01*
X33051533Y-18439877D01*
X32922285Y-18732680D01*
X30007368Y-18732680D01*
X30134499Y-18426515D01*
X30135240Y-17577211D01*
X29810910Y-16792273D01*
X29210886Y-16191200D01*
X28426515Y-15865501D01*
X27577211Y-15864760D01*
X26792273Y-16189090D01*
X26191200Y-16789114D01*
X25865501Y-17573485D01*
X25864760Y-18422789D01*
X24708545Y-18422789D01*
X24567648Y-18364284D01*
X23917205Y-18363716D01*
X23316057Y-18612106D01*
X22855722Y-19071637D01*
X22606284Y-19672352D01*
X22605716Y-20322795D01*
X20710000Y-20322795D01*
X20710000Y-15710000D01*
X85290000Y-15710000D01*
X85290000Y-91290000D01*
M02*
