M48
INCH,TZ
T1C0.026
T2C0.031
T3C0.035
T4C0.039
T5C0.039
T6C0.047
T7C0.051
T8C0.055
T9C0.118
T10C0.126
%
G90
G05
T1
X13561Y-13000
X14011Y-16900
X14939Y-13000
X15389Y-16900
X20100Y-25805
X20100Y-26395
X22700Y-20405
X22700Y-20995
X22700Y-22505
X22700Y-23095
X22700Y-24605
X22700Y-25195
T2
X9300Y-21300
X10700Y-21000
X11700Y-20100
X11700Y-20700
X12900Y-18400
X12900Y-24200
X14200Y-18200
X14400Y-21000
X15200Y-20800
X15400Y-21600
X16800Y-26400
X17000Y-22400
X17500Y-28300
X17600Y-21300
X18500Y-20500
X19100Y-25400
X19500Y-23600
X19500Y-29300
X21400Y-25600
X22500Y-28700
T3
X26100Y-12219
X26100Y-13309
X26100Y-14400
X26100Y-15491
X26100Y-16581
X27100Y-12764
X27100Y-13855
X27100Y-14945
X27100Y-16036
T4
X8756Y-10826
X9544Y-7874
T5
X12000Y-27400
X12000Y-28400
X13000Y-27400
X13000Y-28400
X14000Y-27400
X14000Y-28400
X16000Y-27400
X16000Y-28400
T6
X18700Y-14980
X19700Y-15980
X20700Y-14980
T7
X13416Y-7900
X13516Y-34250
X15384Y-7900
X15484Y-34250
X17716Y-34250
X19684Y-34250
X21916Y-34250
X23884Y-34250
X26598Y-21738
X26598Y-26462
X26598Y-28438
X26598Y-33162
X31402Y-21738
X31402Y-26462
X31402Y-28438
X31402Y-33162
T8
X25811Y-24100
X25811Y-30800
T9
X11024Y-7087
X11024Y-35039
X30709Y-7087
X30709Y-35039
T10
X26600Y-9481
X26600Y-19319
T0
M30
