G04 #@! TF.FileFunction,Legend,Top*
%FSLAX46Y46*%
G04 Gerber Fmt 4.6, Leading zero omitted, Abs format (unit mm)*
G04 Created by KiCad (PCBNEW 4.0.6) date 12/06/17 14:38:59*
%MOMM*%
%LPD*%
G01*
G04 APERTURE LIST*
%ADD10C,0.100000*%
%ADD11C,0.254000*%
%ADD12C,0.127000*%
%ADD13C,0.304800*%
%ADD14C,0.300000*%
%ADD15C,0.381000*%
%ADD16C,0.508000*%
%ADD17C,0.203200*%
%ADD18C,0.149860*%
%ADD19C,0.299720*%
%ADD20C,0.150000*%
G04 APERTURE END LIST*
D10*
D11*
X78000000Y-15841000D02*
X78000000Y-20159000D01*
X75841000Y-18000000D02*
X80159000Y-18000000D01*
X79778000Y-18000000D02*
G75*
G03X79778000Y-18000000I-1778000J0D01*
G01*
X28000000Y-15841000D02*
X28000000Y-20159000D01*
X25841000Y-18000000D02*
X30159000Y-18000000D01*
X29778000Y-18000000D02*
G75*
G03X29778000Y-18000000I-1778000J0D01*
G01*
X28000000Y-86841000D02*
X28000000Y-91159000D01*
X25841000Y-89000000D02*
X30159000Y-89000000D01*
X29778000Y-89000000D02*
G75*
G03X29778000Y-89000000I-1778000J0D01*
G01*
D12*
X22606000Y-46682660D02*
X22905720Y-46382940D01*
X22905720Y-46382940D02*
X22306280Y-46382940D01*
X22306280Y-46382940D02*
X22606000Y-46682660D01*
X22506940Y-46581060D02*
X22705060Y-46581060D01*
X22806660Y-46482000D02*
X22405340Y-46482000D01*
X21805900Y-46781720D02*
X23406100Y-46781720D01*
X23406100Y-46182280D02*
X21805900Y-46182280D01*
X23406100Y-45481240D02*
X23406100Y-47482760D01*
X23406100Y-47482760D02*
X21805900Y-47482760D01*
X21805900Y-47482760D02*
X21805900Y-45481240D01*
X21805900Y-45481240D02*
X23406100Y-45481240D01*
X58928000Y-24945340D02*
X58628280Y-25245060D01*
X58628280Y-25245060D02*
X59227720Y-25245060D01*
X59227720Y-25245060D02*
X58928000Y-24945340D01*
X59027060Y-25046940D02*
X58828940Y-25046940D01*
X58727340Y-25146000D02*
X59128660Y-25146000D01*
X59728100Y-24846280D02*
X58127900Y-24846280D01*
X58127900Y-25445720D02*
X59728100Y-25445720D01*
X58127900Y-26146760D02*
X58127900Y-24145240D01*
X58127900Y-24145240D02*
X59728100Y-24145240D01*
X59728100Y-24145240D02*
X59728100Y-26146760D01*
X59728100Y-26146760D02*
X58127900Y-26146760D01*
X61976000Y-24945340D02*
X61676280Y-25245060D01*
X61676280Y-25245060D02*
X62275720Y-25245060D01*
X62275720Y-25245060D02*
X61976000Y-24945340D01*
X62075060Y-25046940D02*
X61876940Y-25046940D01*
X61775340Y-25146000D02*
X62176660Y-25146000D01*
X62776100Y-24846280D02*
X61175900Y-24846280D01*
X61175900Y-25445720D02*
X62776100Y-25445720D01*
X61175900Y-26146760D02*
X61175900Y-24145240D01*
X61175900Y-24145240D02*
X62776100Y-24145240D01*
X62776100Y-24145240D02*
X62776100Y-26146760D01*
X62776100Y-26146760D02*
X61175900Y-26146760D01*
D13*
X52038432Y-21793200D02*
G75*
G03X52038432Y-21793200I-2000432J0D01*
G01*
X55537100Y-32217360D02*
X57038240Y-32217360D01*
X55537100Y-31219140D02*
X57038240Y-31219140D01*
X55537100Y-28216860D02*
X57038240Y-28216860D01*
X55537100Y-27218640D02*
X57038240Y-27218640D01*
X55537100Y-23718520D02*
X57038240Y-23718520D01*
X55537100Y-22717760D02*
X57038240Y-22717760D01*
X55537100Y-19718020D02*
X57038240Y-19718020D01*
X55537100Y-18717260D02*
X57038240Y-18717260D01*
X43037760Y-18717260D02*
X44538900Y-18717260D01*
X43037760Y-19718020D02*
X44538900Y-19718020D01*
X43037760Y-22717760D02*
X44538900Y-22717760D01*
X43037760Y-23718520D02*
X44538900Y-23718520D01*
X43037760Y-27218640D02*
X44538900Y-27218640D01*
X43037760Y-28216860D02*
X44538900Y-28216860D01*
X43037760Y-31219140D02*
X44538900Y-31219140D01*
X43037760Y-32217360D02*
X44538900Y-32217360D01*
X55537100Y-15717520D02*
X55537100Y-35217100D01*
X44538900Y-35217100D02*
X44538900Y-15717520D01*
X43037760Y-35217100D02*
X57038240Y-35217100D01*
X57038240Y-35217100D02*
X57038240Y-15717520D01*
X57038240Y-15717520D02*
X43037760Y-15717520D01*
X43037760Y-15717520D02*
X43037760Y-35217100D01*
X50038000Y-33909000D02*
X50038000Y-40640000D01*
X52578000Y-38100000D02*
X52578000Y-33909000D01*
X47498000Y-38100000D02*
X47498000Y-33909000D01*
X44958000Y-33909000D02*
X55118000Y-33909000D01*
X55118000Y-18542000D02*
X44958000Y-18542000D01*
X55118000Y-33909000D02*
X55118000Y-18542000D01*
X44958000Y-18542000D02*
X44958000Y-33909000D01*
D11*
X55118000Y-25019000D02*
X44958000Y-25019000D01*
D12*
X31498540Y-28940760D02*
X31498540Y-26939240D01*
X31399480Y-26939240D02*
X31399480Y-28940760D01*
X31297880Y-28940760D02*
X31297880Y-26939240D01*
X31198820Y-26939240D02*
X31198820Y-28940760D01*
X31099760Y-26939240D02*
X31099760Y-28940760D01*
X31600140Y-26939240D02*
X28597860Y-26939240D01*
X28597860Y-26939240D02*
X28597860Y-28940760D01*
X28597860Y-28940760D02*
X31600140Y-28940760D01*
X31600140Y-28940760D02*
X31600140Y-26939240D01*
X25273000Y-51435000D02*
X25273000Y-52705000D01*
X24003000Y-51435000D02*
X24003000Y-52679600D01*
X23622000Y-51435000D02*
X25654000Y-51435000D01*
X25654000Y-51435000D02*
X25654000Y-52705000D01*
X25654000Y-52705000D02*
X23622000Y-52705000D01*
X23622000Y-52705000D02*
X23622000Y-51435000D01*
X24257000Y-73279000D02*
X24257000Y-72009000D01*
X25527000Y-73279000D02*
X25527000Y-72034400D01*
X25908000Y-73279000D02*
X23876000Y-73279000D01*
X23876000Y-73279000D02*
X23876000Y-72009000D01*
X23876000Y-72009000D02*
X25908000Y-72009000D01*
X25908000Y-72009000D02*
X25908000Y-73279000D01*
X38481000Y-64389000D02*
X38481000Y-63119000D01*
X39751000Y-64389000D02*
X39751000Y-63144400D01*
X40132000Y-64389000D02*
X38100000Y-64389000D01*
X38100000Y-64389000D02*
X38100000Y-63119000D01*
X38100000Y-63119000D02*
X40132000Y-63119000D01*
X40132000Y-63119000D02*
X40132000Y-64389000D01*
X22225000Y-55499000D02*
X20955000Y-55499000D01*
X22225000Y-54229000D02*
X20980400Y-54229000D01*
X22225000Y-53848000D02*
X22225000Y-55880000D01*
X22225000Y-55880000D02*
X20955000Y-55880000D01*
X20955000Y-55880000D02*
X20955000Y-53848000D01*
X20955000Y-53848000D02*
X22225000Y-53848000D01*
D13*
X32695000Y-35420000D02*
X32695000Y-30620000D01*
X40495000Y-33020000D02*
G75*
G03X40495000Y-33020000I-4300000J0D01*
G01*
X32495000Y-34820000D02*
X32495000Y-31220000D01*
X32295000Y-34420000D02*
X32295000Y-31620000D01*
X32095000Y-33820000D02*
X32095000Y-32120000D01*
D14*
X33995000Y-31720000D02*
X33995000Y-30520000D01*
D12*
X45720000Y-41148000D02*
X46990000Y-41148000D01*
X45720000Y-42418000D02*
X46964600Y-42418000D01*
X45720000Y-42799000D02*
X45720000Y-40767000D01*
X45720000Y-40767000D02*
X46990000Y-40767000D01*
X46990000Y-40767000D02*
X46990000Y-42799000D01*
X46990000Y-42799000D02*
X45720000Y-42799000D01*
X42545000Y-47117000D02*
X43815000Y-47117000D01*
X42545000Y-48387000D02*
X43789600Y-48387000D01*
X42545000Y-48768000D02*
X42545000Y-46736000D01*
X42545000Y-46736000D02*
X43815000Y-46736000D01*
X43815000Y-46736000D02*
X43815000Y-48768000D01*
X43815000Y-48768000D02*
X42545000Y-48768000D01*
D13*
X33838000Y-45326000D02*
X33838000Y-40526000D01*
X41638000Y-42926000D02*
G75*
G03X41638000Y-42926000I-4300000J0D01*
G01*
X33638000Y-44726000D02*
X33638000Y-41126000D01*
X33438000Y-44326000D02*
X33438000Y-41526000D01*
X33238000Y-43726000D02*
X33238000Y-42026000D01*
D14*
X35138000Y-41626000D02*
X35138000Y-40426000D01*
D12*
X46609000Y-63881000D02*
X46609000Y-65151000D01*
X45339000Y-63881000D02*
X45339000Y-65125600D01*
X44958000Y-63881000D02*
X46990000Y-63881000D01*
X46990000Y-63881000D02*
X46990000Y-65151000D01*
X46990000Y-65151000D02*
X44958000Y-65151000D01*
X44958000Y-65151000D02*
X44958000Y-63881000D01*
X60690760Y-68450460D02*
X58689240Y-68450460D01*
X58689240Y-68549520D02*
X60690760Y-68549520D01*
X60690760Y-68651120D02*
X58689240Y-68651120D01*
X58689240Y-68750180D02*
X60690760Y-68750180D01*
X58689240Y-68849240D02*
X60690760Y-68849240D01*
X58689240Y-68348860D02*
X58689240Y-71351140D01*
X58689240Y-71351140D02*
X60690760Y-71351140D01*
X60690760Y-71351140D02*
X60690760Y-68348860D01*
X60690760Y-68348860D02*
X58689240Y-68348860D01*
X60690760Y-73530460D02*
X58689240Y-73530460D01*
X58689240Y-73629520D02*
X60690760Y-73629520D01*
X60690760Y-73731120D02*
X58689240Y-73731120D01*
X58689240Y-73830180D02*
X60690760Y-73830180D01*
X58689240Y-73929240D02*
X60690760Y-73929240D01*
X58689240Y-73428860D02*
X58689240Y-76431140D01*
X58689240Y-76431140D02*
X60690760Y-76431140D01*
X60690760Y-76431140D02*
X60690760Y-73428860D01*
X60690760Y-73428860D02*
X58689240Y-73428860D01*
D15*
X36576000Y-15966000D02*
X36576000Y-15466000D01*
X36076000Y-19966000D02*
G75*
G03X36076000Y-19966000I-2000000J0D01*
G01*
X41076000Y-19966000D02*
G75*
G03X41076000Y-19966000I-2000000J0D01*
G01*
X41576000Y-17466000D02*
X31576000Y-17466000D01*
X41576000Y-22366000D02*
X31576000Y-22366000D01*
X41576000Y-15966000D02*
X31576000Y-15966000D01*
X41576000Y-15466000D02*
X31576000Y-15466000D01*
X31576000Y-15466000D02*
X31576000Y-25266000D01*
X31576000Y-25266000D02*
X41576000Y-25266000D01*
X41576000Y-25266000D02*
X41576000Y-15466000D01*
D13*
X29210000Y-68326000D02*
X36830000Y-68326000D01*
X36830000Y-68326000D02*
X36830000Y-73406000D01*
X36830000Y-73406000D02*
X29210000Y-73406000D01*
X29210000Y-70866000D02*
X31750000Y-70866000D01*
X31750000Y-70866000D02*
X31750000Y-73406000D01*
X29210000Y-68326000D02*
X29210000Y-73406000D01*
X39370000Y-70866000D02*
X41910000Y-70866000D01*
X41910000Y-70866000D02*
X39370000Y-73406000D01*
X41910000Y-73406000D02*
X39370000Y-70866000D01*
X41910000Y-68326000D02*
X41910000Y-73406000D01*
X39370000Y-73406000D02*
X39370000Y-68326000D01*
X41910000Y-73406000D02*
X39370000Y-73406000D01*
X39370000Y-68326000D02*
X41910000Y-68326000D01*
D15*
X76200000Y-26035000D02*
X69596000Y-26035000D01*
X69596000Y-26035000D02*
X67564000Y-25654000D01*
X67564000Y-25654000D02*
X67564000Y-22479000D01*
X67564000Y-22479000D02*
X69723000Y-21971000D01*
X69723000Y-21971000D02*
X76200000Y-21971000D01*
X67564000Y-47498000D02*
X69723000Y-46990000D01*
X69723000Y-46990000D02*
X76200000Y-46990000D01*
X76200000Y-51308000D02*
X69850000Y-51308000D01*
X69850000Y-51308000D02*
X67564000Y-50673000D01*
X67564000Y-50673000D02*
X67564000Y-47498000D01*
X76200000Y-21717000D02*
X76200000Y-26289000D01*
X76200000Y-26289000D02*
X76454000Y-26289000D01*
X76454000Y-26289000D02*
X76454000Y-21717000D01*
X76454000Y-21717000D02*
X76200000Y-21717000D01*
X76200000Y-46736000D02*
X76200000Y-51562000D01*
X76200000Y-51562000D02*
X76454000Y-51562000D01*
X76454000Y-51562000D02*
X76454000Y-46736000D01*
X76454000Y-46736000D02*
X76200000Y-46736000D01*
X76581000Y-25146000D02*
X74041000Y-25146000D01*
X74041000Y-25146000D02*
X74041000Y-22860000D01*
X74041000Y-22860000D02*
X76581000Y-22860000D01*
X76581000Y-50292000D02*
X74041000Y-50292000D01*
X74041000Y-50292000D02*
X74041000Y-48006000D01*
X74041000Y-48006000D02*
X76581000Y-48006000D01*
X76581000Y-27559000D02*
X64262000Y-27559000D01*
X76581000Y-45593000D02*
X64262000Y-45593000D01*
X76581000Y-52070000D02*
X76581000Y-21082000D01*
X79248000Y-47625000D02*
X85090000Y-47625000D01*
X79248000Y-50673000D02*
X85090000Y-50673000D01*
X79248000Y-22479000D02*
X85090000Y-22479000D01*
X79248000Y-25527000D02*
X85090000Y-25527000D01*
X79248000Y-26543000D02*
X85090000Y-26543000D01*
X85090000Y-26543000D02*
X85090000Y-21463000D01*
X85090000Y-21463000D02*
X79375000Y-21463000D01*
X79248000Y-51689000D02*
X85090000Y-51689000D01*
X85090000Y-51689000D02*
X85090000Y-46609000D01*
X85090000Y-46609000D02*
X79375000Y-46609000D01*
X79248000Y-44704000D02*
X85090000Y-44704000D01*
X85090000Y-44704000D02*
X85090000Y-28448000D01*
X85090000Y-28448000D02*
X79248000Y-28448000D01*
X79248000Y-52070000D02*
X79248000Y-21082000D01*
X79248000Y-21082000D02*
X64262000Y-21082000D01*
X64262000Y-21082000D02*
X64262000Y-52070000D01*
X64262000Y-52070000D02*
X79248000Y-52070000D01*
X58166000Y-91095000D02*
X58166000Y-91595000D01*
X62666000Y-87095000D02*
G75*
G03X62666000Y-87095000I-2000000J0D01*
G01*
X57666000Y-87095000D02*
G75*
G03X57666000Y-87095000I-2000000J0D01*
G01*
X53166000Y-89595000D02*
X63166000Y-89595000D01*
X53166000Y-84695000D02*
X63166000Y-84695000D01*
X53166000Y-91095000D02*
X63166000Y-91095000D01*
X53166000Y-91595000D02*
X63166000Y-91595000D01*
X63166000Y-91595000D02*
X63166000Y-81795000D01*
X63166000Y-81795000D02*
X53166000Y-81795000D01*
X53166000Y-81795000D02*
X53166000Y-91595000D01*
X47498000Y-91095000D02*
X47498000Y-91595000D01*
X51998000Y-87095000D02*
G75*
G03X51998000Y-87095000I-2000000J0D01*
G01*
X46998000Y-87095000D02*
G75*
G03X46998000Y-87095000I-2000000J0D01*
G01*
X42498000Y-89595000D02*
X52498000Y-89595000D01*
X42498000Y-84695000D02*
X52498000Y-84695000D01*
X42498000Y-91095000D02*
X52498000Y-91095000D01*
X42498000Y-91595000D02*
X52498000Y-91595000D01*
X52498000Y-91595000D02*
X52498000Y-81795000D01*
X52498000Y-81795000D02*
X42498000Y-81795000D01*
X42498000Y-81795000D02*
X42498000Y-91595000D01*
X36830000Y-91095000D02*
X36830000Y-91595000D01*
X41330000Y-87095000D02*
G75*
G03X41330000Y-87095000I-2000000J0D01*
G01*
X36330000Y-87095000D02*
G75*
G03X36330000Y-87095000I-2000000J0D01*
G01*
X31830000Y-89595000D02*
X41830000Y-89595000D01*
X31830000Y-84695000D02*
X41830000Y-84695000D01*
X31830000Y-91095000D02*
X41830000Y-91095000D01*
X31830000Y-91595000D02*
X41830000Y-91595000D01*
X41830000Y-91595000D02*
X41830000Y-81795000D01*
X41830000Y-81795000D02*
X31830000Y-81795000D01*
X31830000Y-81795000D02*
X31830000Y-91595000D01*
D12*
X51371500Y-73596500D02*
X50711100Y-73596500D01*
X51371500Y-71691500D02*
X50711100Y-71691500D01*
X52768500Y-72644000D02*
X53428900Y-72644000D01*
X52768500Y-71145400D02*
X52768500Y-74142600D01*
X52768500Y-74142600D02*
X51371500Y-74142600D01*
X51371500Y-74142600D02*
X51371500Y-71145400D01*
X51371500Y-71145400D02*
X52768500Y-71145400D01*
X51371500Y-77406500D02*
X50711100Y-77406500D01*
X51371500Y-75501500D02*
X50711100Y-75501500D01*
X52768500Y-76454000D02*
X53428900Y-76454000D01*
X52768500Y-74955400D02*
X52768500Y-77952600D01*
X52768500Y-77952600D02*
X51371500Y-77952600D01*
X51371500Y-77952600D02*
X51371500Y-74955400D01*
X51371500Y-74955400D02*
X52768500Y-74955400D01*
X39243000Y-49403000D02*
X40513000Y-49403000D01*
X39243000Y-50673000D02*
X40487600Y-50673000D01*
X39243000Y-51054000D02*
X39243000Y-49022000D01*
X39243000Y-49022000D02*
X40513000Y-49022000D01*
X40513000Y-49022000D02*
X40513000Y-51054000D01*
X40513000Y-51054000D02*
X39243000Y-51054000D01*
X37211000Y-49403000D02*
X38481000Y-49403000D01*
X37211000Y-50673000D02*
X38455600Y-50673000D01*
X37211000Y-51054000D02*
X37211000Y-49022000D01*
X37211000Y-49022000D02*
X38481000Y-49022000D01*
X38481000Y-49022000D02*
X38481000Y-51054000D01*
X38481000Y-51054000D02*
X37211000Y-51054000D01*
X48387000Y-72009000D02*
X48387000Y-73279000D01*
X47117000Y-72009000D02*
X47117000Y-73253600D01*
X46736000Y-72009000D02*
X48768000Y-72009000D01*
X48768000Y-72009000D02*
X48768000Y-73279000D01*
X48768000Y-73279000D02*
X46736000Y-73279000D01*
X46736000Y-73279000D02*
X46736000Y-72009000D01*
X48387000Y-75565000D02*
X48387000Y-76835000D01*
X47117000Y-75565000D02*
X47117000Y-76809600D01*
X46736000Y-75565000D02*
X48768000Y-75565000D01*
X48768000Y-75565000D02*
X48768000Y-76835000D01*
X48768000Y-76835000D02*
X46736000Y-76835000D01*
X46736000Y-76835000D02*
X46736000Y-75565000D01*
X55753000Y-70485000D02*
X54483000Y-70485000D01*
X55753000Y-69215000D02*
X54508400Y-69215000D01*
X55753000Y-68834000D02*
X55753000Y-70866000D01*
X55753000Y-70866000D02*
X54483000Y-70866000D01*
X54483000Y-70866000D02*
X54483000Y-68834000D01*
X54483000Y-68834000D02*
X55753000Y-68834000D01*
X55753000Y-75311000D02*
X54483000Y-75311000D01*
X55753000Y-74041000D02*
X54508400Y-74041000D01*
X55753000Y-73660000D02*
X55753000Y-75692000D01*
X55753000Y-75692000D02*
X54483000Y-75692000D01*
X54483000Y-75692000D02*
X54483000Y-73660000D01*
X54483000Y-73660000D02*
X55753000Y-73660000D01*
X35179000Y-49403000D02*
X36449000Y-49403000D01*
X35179000Y-50673000D02*
X36423600Y-50673000D01*
X35179000Y-51054000D02*
X35179000Y-49022000D01*
X35179000Y-49022000D02*
X36449000Y-49022000D01*
X36449000Y-49022000D02*
X36449000Y-51054000D01*
X36449000Y-51054000D02*
X35179000Y-51054000D01*
X33147000Y-49403000D02*
X34417000Y-49403000D01*
X33147000Y-50673000D02*
X34391600Y-50673000D01*
X33147000Y-51054000D02*
X33147000Y-49022000D01*
X33147000Y-49022000D02*
X34417000Y-49022000D01*
X34417000Y-49022000D02*
X34417000Y-51054000D01*
X34417000Y-51054000D02*
X33147000Y-51054000D01*
D16*
X83160000Y-68914000D02*
X83160000Y-53514000D01*
X64160000Y-68914000D02*
X83160000Y-68914000D01*
X64160000Y-53514000D02*
X83160000Y-53514000D01*
X64160000Y-68914000D02*
X64160000Y-53514000D01*
X79760000Y-62914000D02*
X79760000Y-67214000D01*
X79760000Y-55214000D02*
X79760000Y-59514000D01*
X75060000Y-61214000D02*
X76560000Y-61214000D01*
X76560000Y-61214000D02*
X81160000Y-58714000D01*
X75060000Y-64814000D02*
X68260000Y-64814000D01*
X75060000Y-61214000D02*
X75060000Y-64814000D01*
X65560000Y-61214000D02*
X68260000Y-61214000D01*
X68260000Y-61214000D02*
X68260000Y-64814000D01*
X67560000Y-67214000D02*
X71660000Y-67214000D01*
X67560000Y-55214000D02*
X71660000Y-55214000D01*
X71660000Y-55214000D02*
X71660000Y-59414000D01*
X71660000Y-63014000D02*
X71660000Y-67214000D01*
X73660000Y-63014000D02*
X69660000Y-59414000D01*
X69660000Y-63014000D02*
X69660000Y-59414000D01*
X69660000Y-59414000D02*
X73660000Y-59414000D01*
X73660000Y-59414000D02*
X73660000Y-63014000D01*
X73660000Y-63014000D02*
X69660000Y-63014000D01*
X83160000Y-85932000D02*
X83160000Y-70532000D01*
X64160000Y-85932000D02*
X83160000Y-85932000D01*
X64160000Y-70532000D02*
X83160000Y-70532000D01*
X64160000Y-85932000D02*
X64160000Y-70532000D01*
X79760000Y-79932000D02*
X79760000Y-84232000D01*
X79760000Y-72232000D02*
X79760000Y-76532000D01*
X75060000Y-78232000D02*
X76560000Y-78232000D01*
X76560000Y-78232000D02*
X81160000Y-75732000D01*
X75060000Y-81832000D02*
X68260000Y-81832000D01*
X75060000Y-78232000D02*
X75060000Y-81832000D01*
X65560000Y-78232000D02*
X68260000Y-78232000D01*
X68260000Y-78232000D02*
X68260000Y-81832000D01*
X67560000Y-84232000D02*
X71660000Y-84232000D01*
X67560000Y-72232000D02*
X71660000Y-72232000D01*
X71660000Y-72232000D02*
X71660000Y-76432000D01*
X71660000Y-80032000D02*
X71660000Y-84232000D01*
X73660000Y-80032000D02*
X69660000Y-76432000D01*
X69660000Y-80032000D02*
X69660000Y-76432000D01*
X69660000Y-76432000D02*
X73660000Y-76432000D01*
X73660000Y-76432000D02*
X73660000Y-80032000D01*
X73660000Y-80032000D02*
X69660000Y-80032000D01*
D17*
X25441000Y-15549000D02*
X25441000Y-31949000D01*
X25441000Y-31949000D02*
X21041000Y-31949000D01*
X21041000Y-31949000D02*
X21041000Y-15549000D01*
X21041000Y-15549000D02*
X25441000Y-15549000D01*
D18*
X32878112Y-52510235D02*
X33161888Y-52510235D01*
X33301980Y-52650327D02*
X32738020Y-52650327D01*
X32596132Y-52792215D02*
X33443868Y-52792215D01*
X32454244Y-52934103D02*
X33020000Y-52368347D01*
X33020000Y-52368347D02*
X33585756Y-52934103D01*
X33585756Y-52934103D02*
X32454244Y-52934103D01*
X27788103Y-58731756D02*
X27222347Y-58166000D01*
X27222347Y-58166000D02*
X27788103Y-57600244D01*
X33585756Y-63397897D02*
X33020000Y-63963653D01*
X33020000Y-63963653D02*
X32454244Y-63397897D01*
X38251897Y-57600244D02*
X38817653Y-58166000D01*
X38817653Y-58166000D02*
X38251897Y-58731756D01*
D12*
X33303981Y-54753503D02*
G75*
G03X33303981Y-54753503I-283981J0D01*
G01*
X28260464Y-58435408D02*
X28260464Y-57896592D01*
X28260464Y-57896592D02*
X32750592Y-53406464D01*
X32750592Y-53406464D02*
X33289408Y-53406464D01*
X33289408Y-53406464D02*
X37779536Y-57896592D01*
X37779536Y-57896592D02*
X37779536Y-58435408D01*
X37779536Y-58435408D02*
X33289408Y-62925536D01*
X33289408Y-62925536D02*
X32750592Y-62925536D01*
X32750592Y-62925536D02*
X28260464Y-58435408D01*
X47802800Y-59817000D02*
X46710600Y-59817000D01*
X47802800Y-58547000D02*
X46710600Y-58547000D01*
X47802800Y-57277000D02*
X46710600Y-57277000D01*
X47802800Y-61087000D02*
X46710600Y-61087000D01*
X46710600Y-62357000D02*
X47802800Y-62357000D01*
X46710600Y-56007000D02*
X47802800Y-56007000D01*
X46710600Y-54737000D02*
X47802800Y-54737000D01*
X46710600Y-53467000D02*
X47802800Y-53467000D01*
X51765200Y-53467000D02*
X52857400Y-53467000D01*
X51765200Y-54737000D02*
X52857400Y-54737000D01*
X51765200Y-56007000D02*
X52857400Y-56007000D01*
X51765200Y-62357000D02*
X52857400Y-62357000D01*
X52857400Y-61087000D02*
X51765200Y-61087000D01*
X52857400Y-57277000D02*
X51765200Y-57277000D01*
X52857400Y-58547000D02*
X51765200Y-58547000D01*
X52857400Y-59817000D02*
X51765200Y-59817000D01*
X51501067Y-61976000D02*
G75*
G03X51501067Y-61976000I-472467J0D01*
G01*
X47802800Y-62738000D02*
X51765200Y-62738000D01*
X51765200Y-62738000D02*
X51765200Y-53086000D01*
X51765200Y-53086000D02*
X47802800Y-53086000D01*
X47802800Y-53086000D02*
X47802800Y-62738000D01*
D19*
X21376640Y-69552820D02*
X26375360Y-69552820D01*
X26375360Y-69552820D02*
X26375360Y-57955180D01*
X26375360Y-57955180D02*
X21376640Y-57955180D01*
X21376640Y-57955180D02*
X21376640Y-69552820D01*
D11*
X23876000Y-58166000D02*
G75*
G03X21590000Y-60452000I0J-2286000D01*
G01*
X25654000Y-67056000D02*
X25654000Y-60452000D01*
X22098000Y-60452000D02*
X22098000Y-67056000D01*
X25654000Y-60452000D02*
G75*
G03X23876000Y-58674000I-1778000J0D01*
G01*
X23876000Y-58674000D02*
G75*
G03X22098000Y-60452000I0J-1778000D01*
G01*
X23876000Y-68834000D02*
G75*
G03X25654000Y-67056000I0J1778000D01*
G01*
X22098000Y-67056000D02*
G75*
G03X23876000Y-68834000I1778000J0D01*
G01*
X26162000Y-60452000D02*
G75*
G03X23876000Y-58166000I-2286000J0D01*
G01*
X26162000Y-60452000D02*
X26162000Y-67056000D01*
X21590000Y-67056000D02*
X21590000Y-60452000D01*
X23876000Y-69342000D02*
G75*
G03X26162000Y-67056000I0J2286000D01*
G01*
X21590000Y-67056000D02*
G75*
G03X23876000Y-69342000I2286000J0D01*
G01*
D12*
X32385000Y-50673000D02*
X31115000Y-50673000D01*
X32385000Y-49403000D02*
X31140400Y-49403000D01*
X32385000Y-49022000D02*
X32385000Y-51054000D01*
X32385000Y-51054000D02*
X31115000Y-51054000D01*
X31115000Y-51054000D02*
X31115000Y-49022000D01*
X31115000Y-49022000D02*
X32385000Y-49022000D01*
D13*
X56958000Y-61146000D02*
X58358000Y-61146000D01*
X56458000Y-61346000D02*
X58858000Y-61346000D01*
X56158000Y-61546000D02*
X59158000Y-61546000D01*
D14*
X58658000Y-62446000D02*
X59258000Y-62446000D01*
D13*
X59958000Y-63246000D02*
G75*
G03X59958000Y-63246000I-2300000J0D01*
G01*
X56958000Y-55812000D02*
X58358000Y-55812000D01*
X56458000Y-56012000D02*
X58858000Y-56012000D01*
X56158000Y-56212000D02*
X59158000Y-56212000D01*
D14*
X58658000Y-57112000D02*
X59258000Y-57112000D01*
D13*
X59958000Y-57912000D02*
G75*
G03X59958000Y-57912000I-2300000J0D01*
G01*
X51754000Y-68394000D02*
X50354000Y-68394000D01*
X52254000Y-68194000D02*
X49854000Y-68194000D01*
X52554000Y-67994000D02*
X49554000Y-67994000D01*
D14*
X50054000Y-67094000D02*
X49454000Y-67094000D01*
D13*
X53354000Y-66294000D02*
G75*
G03X53354000Y-66294000I-2300000J0D01*
G01*
X58358000Y-54678000D02*
X56958000Y-54678000D01*
X58858000Y-54478000D02*
X56458000Y-54478000D01*
X59158000Y-54278000D02*
X56158000Y-54278000D01*
D14*
X56658000Y-53378000D02*
X56058000Y-53378000D01*
D13*
X59958000Y-52578000D02*
G75*
G03X59958000Y-52578000I-2300000J0D01*
G01*
D12*
X61365000Y-29665000D02*
X62635000Y-29665000D01*
X61365000Y-30935000D02*
X62609600Y-30935000D01*
X61365000Y-31316000D02*
X61365000Y-29284000D01*
X61365000Y-29284000D02*
X62635000Y-29284000D01*
X62635000Y-29284000D02*
X62635000Y-31316000D01*
X62635000Y-31316000D02*
X61365000Y-31316000D01*
X58293000Y-29591000D02*
X59563000Y-29591000D01*
X58293000Y-30861000D02*
X59537600Y-30861000D01*
X58293000Y-31242000D02*
X58293000Y-29210000D01*
X58293000Y-29210000D02*
X59563000Y-29210000D01*
X59563000Y-29210000D02*
X59563000Y-31242000D01*
X59563000Y-31242000D02*
X58293000Y-31242000D01*
X24003000Y-42799000D02*
X24003000Y-41529000D01*
X25273000Y-42799000D02*
X25273000Y-41554400D01*
X25654000Y-42799000D02*
X23622000Y-42799000D01*
X23622000Y-42799000D02*
X23622000Y-41529000D01*
X23622000Y-41529000D02*
X25654000Y-41529000D01*
X25654000Y-41529000D02*
X25654000Y-42799000D01*
D11*
X78000000Y-86841000D02*
X78000000Y-91159000D01*
X75841000Y-89000000D02*
X80159000Y-89000000D01*
X79778000Y-89000000D02*
G75*
G03X79778000Y-89000000I-1778000J0D01*
G01*
D20*
X21867905Y-49728381D02*
X21867905Y-48728381D01*
X22106000Y-48728381D01*
X22248858Y-48776000D01*
X22344096Y-48871238D01*
X22391715Y-48966476D01*
X22439334Y-49156952D01*
X22439334Y-49299810D01*
X22391715Y-49490286D01*
X22344096Y-49585524D01*
X22248858Y-49680762D01*
X22106000Y-49728381D01*
X21867905Y-49728381D01*
X23296477Y-48728381D02*
X23106000Y-48728381D01*
X23010762Y-48776000D01*
X22963143Y-48823619D01*
X22867905Y-48966476D01*
X22820286Y-49156952D01*
X22820286Y-49537905D01*
X22867905Y-49633143D01*
X22915524Y-49680762D01*
X23010762Y-49728381D01*
X23201239Y-49728381D01*
X23296477Y-49680762D01*
X23344096Y-49633143D01*
X23391715Y-49537905D01*
X23391715Y-49299810D01*
X23344096Y-49204571D01*
X23296477Y-49156952D01*
X23201239Y-49109333D01*
X23010762Y-49109333D01*
X22915524Y-49156952D01*
X22867905Y-49204571D01*
X22820286Y-49299810D01*
X58189905Y-21788381D02*
X58189905Y-20788381D01*
X58428000Y-20788381D01*
X58570858Y-20836000D01*
X58666096Y-20931238D01*
X58713715Y-21026476D01*
X58761334Y-21216952D01*
X58761334Y-21359810D01*
X58713715Y-21550286D01*
X58666096Y-21645524D01*
X58570858Y-21740762D01*
X58428000Y-21788381D01*
X58189905Y-21788381D01*
X59666096Y-20788381D02*
X59189905Y-20788381D01*
X59142286Y-21264571D01*
X59189905Y-21216952D01*
X59285143Y-21169333D01*
X59523239Y-21169333D01*
X59618477Y-21216952D01*
X59666096Y-21264571D01*
X59713715Y-21359810D01*
X59713715Y-21597905D01*
X59666096Y-21693143D01*
X59618477Y-21740762D01*
X59523239Y-21788381D01*
X59285143Y-21788381D01*
X59189905Y-21740762D01*
X59142286Y-21693143D01*
X61237905Y-21788381D02*
X61237905Y-20788381D01*
X61476000Y-20788381D01*
X61618858Y-20836000D01*
X61714096Y-20931238D01*
X61761715Y-21026476D01*
X61809334Y-21216952D01*
X61809334Y-21359810D01*
X61761715Y-21550286D01*
X61714096Y-21645524D01*
X61618858Y-21740762D01*
X61476000Y-21788381D01*
X61237905Y-21788381D01*
X62666477Y-21121714D02*
X62666477Y-21788381D01*
X62428381Y-20740762D02*
X62190286Y-21455048D01*
X62809334Y-21455048D01*
X49022095Y-28916381D02*
X49022095Y-29725905D01*
X49069714Y-29821143D01*
X49117333Y-29868762D01*
X49212571Y-29916381D01*
X49403048Y-29916381D01*
X49498286Y-29868762D01*
X49545905Y-29821143D01*
X49593524Y-29725905D01*
X49593524Y-28916381D01*
X50022095Y-29011619D02*
X50069714Y-28964000D01*
X50164952Y-28916381D01*
X50403048Y-28916381D01*
X50498286Y-28964000D01*
X50545905Y-29011619D01*
X50593524Y-29106857D01*
X50593524Y-29202095D01*
X50545905Y-29344952D01*
X49974476Y-29916381D01*
X50593524Y-29916381D01*
X34107381Y-28678095D02*
X33107381Y-28678095D01*
X33107381Y-28440000D01*
X33155000Y-28297142D01*
X33250238Y-28201904D01*
X33345476Y-28154285D01*
X33535952Y-28106666D01*
X33678810Y-28106666D01*
X33869286Y-28154285D01*
X33964524Y-28201904D01*
X34059762Y-28297142D01*
X34107381Y-28440000D01*
X34107381Y-28678095D01*
X34107381Y-27154285D02*
X34107381Y-27725714D01*
X34107381Y-27440000D02*
X33107381Y-27440000D01*
X33250238Y-27535238D01*
X33345476Y-27630476D01*
X33393095Y-27725714D01*
X21423334Y-52427143D02*
X21375715Y-52474762D01*
X21232858Y-52522381D01*
X21137620Y-52522381D01*
X20994762Y-52474762D01*
X20899524Y-52379524D01*
X20851905Y-52284286D01*
X20804286Y-52093810D01*
X20804286Y-51950952D01*
X20851905Y-51760476D01*
X20899524Y-51665238D01*
X20994762Y-51570000D01*
X21137620Y-51522381D01*
X21232858Y-51522381D01*
X21375715Y-51570000D01*
X21423334Y-51617619D01*
X22375715Y-52522381D02*
X21804286Y-52522381D01*
X22090000Y-52522381D02*
X22090000Y-51522381D01*
X21994762Y-51665238D01*
X21899524Y-51760476D01*
X21804286Y-51808095D01*
X24725334Y-74779143D02*
X24677715Y-74826762D01*
X24534858Y-74874381D01*
X24439620Y-74874381D01*
X24296762Y-74826762D01*
X24201524Y-74731524D01*
X24153905Y-74636286D01*
X24106286Y-74445810D01*
X24106286Y-74302952D01*
X24153905Y-74112476D01*
X24201524Y-74017238D01*
X24296762Y-73922000D01*
X24439620Y-73874381D01*
X24534858Y-73874381D01*
X24677715Y-73922000D01*
X24725334Y-73969619D01*
X25106286Y-73969619D02*
X25153905Y-73922000D01*
X25249143Y-73874381D01*
X25487239Y-73874381D01*
X25582477Y-73922000D01*
X25630096Y-73969619D01*
X25677715Y-74064857D01*
X25677715Y-74160095D01*
X25630096Y-74302952D01*
X25058667Y-74874381D01*
X25677715Y-74874381D01*
X38949334Y-65889143D02*
X38901715Y-65936762D01*
X38758858Y-65984381D01*
X38663620Y-65984381D01*
X38520762Y-65936762D01*
X38425524Y-65841524D01*
X38377905Y-65746286D01*
X38330286Y-65555810D01*
X38330286Y-65412952D01*
X38377905Y-65222476D01*
X38425524Y-65127238D01*
X38520762Y-65032000D01*
X38663620Y-64984381D01*
X38758858Y-64984381D01*
X38901715Y-65032000D01*
X38949334Y-65079619D01*
X39282667Y-64984381D02*
X39901715Y-64984381D01*
X39568381Y-65365333D01*
X39711239Y-65365333D01*
X39806477Y-65412952D01*
X39854096Y-65460571D01*
X39901715Y-65555810D01*
X39901715Y-65793905D01*
X39854096Y-65889143D01*
X39806477Y-65936762D01*
X39711239Y-65984381D01*
X39425524Y-65984381D01*
X39330286Y-65936762D01*
X39282667Y-65889143D01*
X23455334Y-55729143D02*
X23407715Y-55776762D01*
X23264858Y-55824381D01*
X23169620Y-55824381D01*
X23026762Y-55776762D01*
X22931524Y-55681524D01*
X22883905Y-55586286D01*
X22836286Y-55395810D01*
X22836286Y-55252952D01*
X22883905Y-55062476D01*
X22931524Y-54967238D01*
X23026762Y-54872000D01*
X23169620Y-54824381D01*
X23264858Y-54824381D01*
X23407715Y-54872000D01*
X23455334Y-54919619D01*
X24312477Y-55157714D02*
X24312477Y-55824381D01*
X24074381Y-54776762D02*
X23836286Y-55491048D01*
X24455334Y-55491048D01*
X36028334Y-35663143D02*
X35980715Y-35710762D01*
X35837858Y-35758381D01*
X35742620Y-35758381D01*
X35599762Y-35710762D01*
X35504524Y-35615524D01*
X35456905Y-35520286D01*
X35409286Y-35329810D01*
X35409286Y-35186952D01*
X35456905Y-34996476D01*
X35504524Y-34901238D01*
X35599762Y-34806000D01*
X35742620Y-34758381D01*
X35837858Y-34758381D01*
X35980715Y-34806000D01*
X36028334Y-34853619D01*
X36885477Y-34758381D02*
X36695000Y-34758381D01*
X36599762Y-34806000D01*
X36552143Y-34853619D01*
X36456905Y-34996476D01*
X36409286Y-35186952D01*
X36409286Y-35567905D01*
X36456905Y-35663143D01*
X36504524Y-35710762D01*
X36599762Y-35758381D01*
X36790239Y-35758381D01*
X36885477Y-35710762D01*
X36933096Y-35663143D01*
X36980715Y-35567905D01*
X36980715Y-35329810D01*
X36933096Y-35234571D01*
X36885477Y-35186952D01*
X36790239Y-35139333D01*
X36599762Y-35139333D01*
X36504524Y-35186952D01*
X36456905Y-35234571D01*
X36409286Y-35329810D01*
X46188334Y-44807143D02*
X46140715Y-44854762D01*
X45997858Y-44902381D01*
X45902620Y-44902381D01*
X45759762Y-44854762D01*
X45664524Y-44759524D01*
X45616905Y-44664286D01*
X45569286Y-44473810D01*
X45569286Y-44330952D01*
X45616905Y-44140476D01*
X45664524Y-44045238D01*
X45759762Y-43950000D01*
X45902620Y-43902381D01*
X45997858Y-43902381D01*
X46140715Y-43950000D01*
X46188334Y-43997619D01*
X46521667Y-43902381D02*
X47188334Y-43902381D01*
X46759762Y-44902381D01*
X43013334Y-50903143D02*
X42965715Y-50950762D01*
X42822858Y-50998381D01*
X42727620Y-50998381D01*
X42584762Y-50950762D01*
X42489524Y-50855524D01*
X42441905Y-50760286D01*
X42394286Y-50569810D01*
X42394286Y-50426952D01*
X42441905Y-50236476D01*
X42489524Y-50141238D01*
X42584762Y-50046000D01*
X42727620Y-49998381D01*
X42822858Y-49998381D01*
X42965715Y-50046000D01*
X43013334Y-50093619D01*
X43584762Y-50426952D02*
X43489524Y-50379333D01*
X43441905Y-50331714D01*
X43394286Y-50236476D01*
X43394286Y-50188857D01*
X43441905Y-50093619D01*
X43489524Y-50046000D01*
X43584762Y-49998381D01*
X43775239Y-49998381D01*
X43870477Y-50046000D01*
X43918096Y-50093619D01*
X43965715Y-50188857D01*
X43965715Y-50236476D01*
X43918096Y-50331714D01*
X43870477Y-50379333D01*
X43775239Y-50426952D01*
X43584762Y-50426952D01*
X43489524Y-50474571D01*
X43441905Y-50522190D01*
X43394286Y-50617429D01*
X43394286Y-50807905D01*
X43441905Y-50903143D01*
X43489524Y-50950762D01*
X43584762Y-50998381D01*
X43775239Y-50998381D01*
X43870477Y-50950762D01*
X43918096Y-50903143D01*
X43965715Y-50807905D01*
X43965715Y-50617429D01*
X43918096Y-50522190D01*
X43870477Y-50474571D01*
X43775239Y-50426952D01*
X37171334Y-45823143D02*
X37123715Y-45870762D01*
X36980858Y-45918381D01*
X36885620Y-45918381D01*
X36742762Y-45870762D01*
X36647524Y-45775524D01*
X36599905Y-45680286D01*
X36552286Y-45489810D01*
X36552286Y-45346952D01*
X36599905Y-45156476D01*
X36647524Y-45061238D01*
X36742762Y-44966000D01*
X36885620Y-44918381D01*
X36980858Y-44918381D01*
X37123715Y-44966000D01*
X37171334Y-45013619D01*
X37647524Y-45918381D02*
X37838000Y-45918381D01*
X37933239Y-45870762D01*
X37980858Y-45823143D01*
X38076096Y-45680286D01*
X38123715Y-45489810D01*
X38123715Y-45108857D01*
X38076096Y-45013619D01*
X38028477Y-44966000D01*
X37933239Y-44918381D01*
X37742762Y-44918381D01*
X37647524Y-44966000D01*
X37599905Y-45013619D01*
X37552286Y-45108857D01*
X37552286Y-45346952D01*
X37599905Y-45442190D01*
X37647524Y-45489810D01*
X37742762Y-45537429D01*
X37933239Y-45537429D01*
X38028477Y-45489810D01*
X38076096Y-45442190D01*
X38123715Y-45346952D01*
X45331143Y-66905143D02*
X45283524Y-66952762D01*
X45140667Y-67000381D01*
X45045429Y-67000381D01*
X44902571Y-66952762D01*
X44807333Y-66857524D01*
X44759714Y-66762286D01*
X44712095Y-66571810D01*
X44712095Y-66428952D01*
X44759714Y-66238476D01*
X44807333Y-66143238D01*
X44902571Y-66048000D01*
X45045429Y-66000381D01*
X45140667Y-66000381D01*
X45283524Y-66048000D01*
X45331143Y-66095619D01*
X46283524Y-67000381D02*
X45712095Y-67000381D01*
X45997809Y-67000381D02*
X45997809Y-66000381D01*
X45902571Y-66143238D01*
X45807333Y-66238476D01*
X45712095Y-66286095D01*
X47235905Y-67000381D02*
X46664476Y-67000381D01*
X46950190Y-67000381D02*
X46950190Y-66000381D01*
X46854952Y-66143238D01*
X46759714Y-66238476D01*
X46664476Y-66286095D01*
X58951905Y-67254381D02*
X58951905Y-66254381D01*
X59190000Y-66254381D01*
X59332858Y-66302000D01*
X59428096Y-66397238D01*
X59475715Y-66492476D01*
X59523334Y-66682952D01*
X59523334Y-66825810D01*
X59475715Y-67016286D01*
X59428096Y-67111524D01*
X59332858Y-67206762D01*
X59190000Y-67254381D01*
X58951905Y-67254381D01*
X59904286Y-66349619D02*
X59951905Y-66302000D01*
X60047143Y-66254381D01*
X60285239Y-66254381D01*
X60380477Y-66302000D01*
X60428096Y-66349619D01*
X60475715Y-66444857D01*
X60475715Y-66540095D01*
X60428096Y-66682952D01*
X59856667Y-67254381D01*
X60475715Y-67254381D01*
X58951905Y-78684381D02*
X58951905Y-77684381D01*
X59190000Y-77684381D01*
X59332858Y-77732000D01*
X59428096Y-77827238D01*
X59475715Y-77922476D01*
X59523334Y-78112952D01*
X59523334Y-78255810D01*
X59475715Y-78446286D01*
X59428096Y-78541524D01*
X59332858Y-78636762D01*
X59190000Y-78684381D01*
X58951905Y-78684381D01*
X59856667Y-77684381D02*
X60475715Y-77684381D01*
X60142381Y-78065333D01*
X60285239Y-78065333D01*
X60380477Y-78112952D01*
X60428096Y-78160571D01*
X60475715Y-78255810D01*
X60475715Y-78493905D01*
X60428096Y-78589143D01*
X60380477Y-78636762D01*
X60285239Y-78684381D01*
X59999524Y-78684381D01*
X59904286Y-78636762D01*
X59856667Y-78589143D01*
X36242667Y-23328381D02*
X36242667Y-24042667D01*
X36195047Y-24185524D01*
X36099809Y-24280762D01*
X35956952Y-24328381D01*
X35861714Y-24328381D01*
X37242667Y-24328381D02*
X36671238Y-24328381D01*
X36956952Y-24328381D02*
X36956952Y-23328381D01*
X36861714Y-23471238D01*
X36766476Y-23566476D01*
X36671238Y-23614095D01*
X32686667Y-66508381D02*
X32686667Y-67222667D01*
X32639047Y-67365524D01*
X32543809Y-67460762D01*
X32400952Y-67508381D01*
X32305714Y-67508381D01*
X33115238Y-66603619D02*
X33162857Y-66556000D01*
X33258095Y-66508381D01*
X33496191Y-66508381D01*
X33591429Y-66556000D01*
X33639048Y-66603619D01*
X33686667Y-66698857D01*
X33686667Y-66794095D01*
X33639048Y-66936952D01*
X33067619Y-67508381D01*
X33686667Y-67508381D01*
X40306667Y-66635381D02*
X40306667Y-67349667D01*
X40259047Y-67492524D01*
X40163809Y-67587762D01*
X40020952Y-67635381D01*
X39925714Y-67635381D01*
X40687619Y-66635381D02*
X41306667Y-66635381D01*
X40973333Y-67016333D01*
X41116191Y-67016333D01*
X41211429Y-67063952D01*
X41259048Y-67111571D01*
X41306667Y-67206810D01*
X41306667Y-67444905D01*
X41259048Y-67540143D01*
X41211429Y-67587762D01*
X41116191Y-67635381D01*
X40830476Y-67635381D01*
X40735238Y-67587762D01*
X40687619Y-67540143D01*
X72564667Y-35774381D02*
X72564667Y-36488667D01*
X72517047Y-36631524D01*
X72421809Y-36726762D01*
X72278952Y-36774381D01*
X72183714Y-36774381D01*
X73469429Y-36107714D02*
X73469429Y-36774381D01*
X73231333Y-35726762D02*
X72993238Y-36441048D01*
X73612286Y-36441048D01*
X57832667Y-82637381D02*
X57832667Y-83351667D01*
X57785047Y-83494524D01*
X57689809Y-83589762D01*
X57546952Y-83637381D01*
X57451714Y-83637381D01*
X58785048Y-82637381D02*
X58308857Y-82637381D01*
X58261238Y-83113571D01*
X58308857Y-83065952D01*
X58404095Y-83018333D01*
X58642191Y-83018333D01*
X58737429Y-83065952D01*
X58785048Y-83113571D01*
X58832667Y-83208810D01*
X58832667Y-83446905D01*
X58785048Y-83542143D01*
X58737429Y-83589762D01*
X58642191Y-83637381D01*
X58404095Y-83637381D01*
X58308857Y-83589762D01*
X58261238Y-83542143D01*
X47164667Y-82637381D02*
X47164667Y-83351667D01*
X47117047Y-83494524D01*
X47021809Y-83589762D01*
X46878952Y-83637381D01*
X46783714Y-83637381D01*
X48069429Y-82637381D02*
X47878952Y-82637381D01*
X47783714Y-82685000D01*
X47736095Y-82732619D01*
X47640857Y-82875476D01*
X47593238Y-83065952D01*
X47593238Y-83446905D01*
X47640857Y-83542143D01*
X47688476Y-83589762D01*
X47783714Y-83637381D01*
X47974191Y-83637381D01*
X48069429Y-83589762D01*
X48117048Y-83542143D01*
X48164667Y-83446905D01*
X48164667Y-83208810D01*
X48117048Y-83113571D01*
X48069429Y-83065952D01*
X47974191Y-83018333D01*
X47783714Y-83018333D01*
X47688476Y-83065952D01*
X47640857Y-83113571D01*
X47593238Y-83208810D01*
X36496667Y-82637381D02*
X36496667Y-83351667D01*
X36449047Y-83494524D01*
X36353809Y-83589762D01*
X36210952Y-83637381D01*
X36115714Y-83637381D01*
X36877619Y-82637381D02*
X37544286Y-82637381D01*
X37115714Y-83637381D01*
X51974762Y-70651619D02*
X51879524Y-70604000D01*
X51784286Y-70508762D01*
X51641429Y-70365905D01*
X51546190Y-70318286D01*
X51450952Y-70318286D01*
X51498571Y-70556381D02*
X51403333Y-70508762D01*
X51308095Y-70413524D01*
X51260476Y-70223048D01*
X51260476Y-69889714D01*
X51308095Y-69699238D01*
X51403333Y-69604000D01*
X51498571Y-69556381D01*
X51689048Y-69556381D01*
X51784286Y-69604000D01*
X51879524Y-69699238D01*
X51927143Y-69889714D01*
X51927143Y-70223048D01*
X51879524Y-70413524D01*
X51784286Y-70508762D01*
X51689048Y-70556381D01*
X51498571Y-70556381D01*
X52879524Y-70556381D02*
X52308095Y-70556381D01*
X52593809Y-70556381D02*
X52593809Y-69556381D01*
X52498571Y-69699238D01*
X52403333Y-69794476D01*
X52308095Y-69842095D01*
X54006762Y-79033619D02*
X53911524Y-78986000D01*
X53816286Y-78890762D01*
X53673429Y-78747905D01*
X53578190Y-78700286D01*
X53482952Y-78700286D01*
X53530571Y-78938381D02*
X53435333Y-78890762D01*
X53340095Y-78795524D01*
X53292476Y-78605048D01*
X53292476Y-78271714D01*
X53340095Y-78081238D01*
X53435333Y-77986000D01*
X53530571Y-77938381D01*
X53721048Y-77938381D01*
X53816286Y-77986000D01*
X53911524Y-78081238D01*
X53959143Y-78271714D01*
X53959143Y-78605048D01*
X53911524Y-78795524D01*
X53816286Y-78890762D01*
X53721048Y-78938381D01*
X53530571Y-78938381D01*
X54340095Y-78033619D02*
X54387714Y-77986000D01*
X54482952Y-77938381D01*
X54721048Y-77938381D01*
X54816286Y-77986000D01*
X54863905Y-78033619D01*
X54911524Y-78128857D01*
X54911524Y-78224095D01*
X54863905Y-78366952D01*
X54292476Y-78938381D01*
X54911524Y-78938381D01*
X39711334Y-53030381D02*
X39378000Y-52554190D01*
X39139905Y-53030381D02*
X39139905Y-52030381D01*
X39520858Y-52030381D01*
X39616096Y-52078000D01*
X39663715Y-52125619D01*
X39711334Y-52220857D01*
X39711334Y-52363714D01*
X39663715Y-52458952D01*
X39616096Y-52506571D01*
X39520858Y-52554190D01*
X39139905Y-52554190D01*
X40663715Y-53030381D02*
X40092286Y-53030381D01*
X40378000Y-53030381D02*
X40378000Y-52030381D01*
X40282762Y-52173238D01*
X40187524Y-52268476D01*
X40092286Y-52316095D01*
X37742834Y-53030381D02*
X37409500Y-52554190D01*
X37171405Y-53030381D02*
X37171405Y-52030381D01*
X37552358Y-52030381D01*
X37647596Y-52078000D01*
X37695215Y-52125619D01*
X37742834Y-52220857D01*
X37742834Y-52363714D01*
X37695215Y-52458952D01*
X37647596Y-52506571D01*
X37552358Y-52554190D01*
X37171405Y-52554190D01*
X38123786Y-52125619D02*
X38171405Y-52078000D01*
X38266643Y-52030381D01*
X38504739Y-52030381D01*
X38599977Y-52078000D01*
X38647596Y-52125619D01*
X38695215Y-52220857D01*
X38695215Y-52316095D01*
X38647596Y-52458952D01*
X38076167Y-53030381D01*
X38695215Y-53030381D01*
X47585334Y-71318381D02*
X47252000Y-70842190D01*
X47013905Y-71318381D02*
X47013905Y-70318381D01*
X47394858Y-70318381D01*
X47490096Y-70366000D01*
X47537715Y-70413619D01*
X47585334Y-70508857D01*
X47585334Y-70651714D01*
X47537715Y-70746952D01*
X47490096Y-70794571D01*
X47394858Y-70842190D01*
X47013905Y-70842190D01*
X47918667Y-70318381D02*
X48537715Y-70318381D01*
X48204381Y-70699333D01*
X48347239Y-70699333D01*
X48442477Y-70746952D01*
X48490096Y-70794571D01*
X48537715Y-70889810D01*
X48537715Y-71127905D01*
X48490096Y-71223143D01*
X48442477Y-71270762D01*
X48347239Y-71318381D01*
X48061524Y-71318381D01*
X47966286Y-71270762D01*
X47918667Y-71223143D01*
X47585334Y-75128381D02*
X47252000Y-74652190D01*
X47013905Y-75128381D02*
X47013905Y-74128381D01*
X47394858Y-74128381D01*
X47490096Y-74176000D01*
X47537715Y-74223619D01*
X47585334Y-74318857D01*
X47585334Y-74461714D01*
X47537715Y-74556952D01*
X47490096Y-74604571D01*
X47394858Y-74652190D01*
X47013905Y-74652190D01*
X48442477Y-74461714D02*
X48442477Y-75128381D01*
X48204381Y-74080762D02*
X47966286Y-74795048D01*
X48585334Y-74795048D01*
X56729334Y-70302381D02*
X56396000Y-69826190D01*
X56157905Y-70302381D02*
X56157905Y-69302381D01*
X56538858Y-69302381D01*
X56634096Y-69350000D01*
X56681715Y-69397619D01*
X56729334Y-69492857D01*
X56729334Y-69635714D01*
X56681715Y-69730952D01*
X56634096Y-69778571D01*
X56538858Y-69826190D01*
X56157905Y-69826190D01*
X57634096Y-69302381D02*
X57157905Y-69302381D01*
X57110286Y-69778571D01*
X57157905Y-69730952D01*
X57253143Y-69683333D01*
X57491239Y-69683333D01*
X57586477Y-69730952D01*
X57634096Y-69778571D01*
X57681715Y-69873810D01*
X57681715Y-70111905D01*
X57634096Y-70207143D01*
X57586477Y-70254762D01*
X57491239Y-70302381D01*
X57253143Y-70302381D01*
X57157905Y-70254762D01*
X57110286Y-70207143D01*
X56983334Y-75128381D02*
X56650000Y-74652190D01*
X56411905Y-75128381D02*
X56411905Y-74128381D01*
X56792858Y-74128381D01*
X56888096Y-74176000D01*
X56935715Y-74223619D01*
X56983334Y-74318857D01*
X56983334Y-74461714D01*
X56935715Y-74556952D01*
X56888096Y-74604571D01*
X56792858Y-74652190D01*
X56411905Y-74652190D01*
X57840477Y-74128381D02*
X57650000Y-74128381D01*
X57554762Y-74176000D01*
X57507143Y-74223619D01*
X57411905Y-74366476D01*
X57364286Y-74556952D01*
X57364286Y-74937905D01*
X57411905Y-75033143D01*
X57459524Y-75080762D01*
X57554762Y-75128381D01*
X57745239Y-75128381D01*
X57840477Y-75080762D01*
X57888096Y-75033143D01*
X57935715Y-74937905D01*
X57935715Y-74699810D01*
X57888096Y-74604571D01*
X57840477Y-74556952D01*
X57745239Y-74509333D01*
X57554762Y-74509333D01*
X57459524Y-74556952D01*
X57411905Y-74604571D01*
X57364286Y-74699810D01*
X35647334Y-53030381D02*
X35314000Y-52554190D01*
X35075905Y-53030381D02*
X35075905Y-52030381D01*
X35456858Y-52030381D01*
X35552096Y-52078000D01*
X35599715Y-52125619D01*
X35647334Y-52220857D01*
X35647334Y-52363714D01*
X35599715Y-52458952D01*
X35552096Y-52506571D01*
X35456858Y-52554190D01*
X35075905Y-52554190D01*
X35980667Y-52030381D02*
X36647334Y-52030381D01*
X36218762Y-53030381D01*
X33615334Y-47950381D02*
X33282000Y-47474190D01*
X33043905Y-47950381D02*
X33043905Y-46950381D01*
X33424858Y-46950381D01*
X33520096Y-46998000D01*
X33567715Y-47045619D01*
X33615334Y-47140857D01*
X33615334Y-47283714D01*
X33567715Y-47378952D01*
X33520096Y-47426571D01*
X33424858Y-47474190D01*
X33043905Y-47474190D01*
X34186762Y-47378952D02*
X34091524Y-47331333D01*
X34043905Y-47283714D01*
X33996286Y-47188476D01*
X33996286Y-47140857D01*
X34043905Y-47045619D01*
X34091524Y-46998000D01*
X34186762Y-46950381D01*
X34377239Y-46950381D01*
X34472477Y-46998000D01*
X34520096Y-47045619D01*
X34567715Y-47140857D01*
X34567715Y-47188476D01*
X34520096Y-47283714D01*
X34472477Y-47331333D01*
X34377239Y-47378952D01*
X34186762Y-47378952D01*
X34091524Y-47426571D01*
X34043905Y-47474190D01*
X33996286Y-47569429D01*
X33996286Y-47759905D01*
X34043905Y-47855143D01*
X34091524Y-47902762D01*
X34186762Y-47950381D01*
X34377239Y-47950381D01*
X34472477Y-47902762D01*
X34520096Y-47855143D01*
X34567715Y-47759905D01*
X34567715Y-47569429D01*
X34520096Y-47474190D01*
X34472477Y-47426571D01*
X34377239Y-47378952D01*
X74184000Y-56332381D02*
X73850666Y-55856190D01*
X73612571Y-56332381D02*
X73612571Y-55332381D01*
X73993524Y-55332381D01*
X74088762Y-55380000D01*
X74136381Y-55427619D01*
X74184000Y-55522857D01*
X74184000Y-55665714D01*
X74136381Y-55760952D01*
X74088762Y-55808571D01*
X73993524Y-55856190D01*
X73612571Y-55856190D01*
X75088762Y-56332381D02*
X74612571Y-56332381D01*
X74612571Y-55332381D01*
X75612571Y-55856190D02*
X75612571Y-56332381D01*
X75279238Y-55332381D02*
X75612571Y-55856190D01*
X75945905Y-55332381D01*
X76803048Y-56332381D02*
X76231619Y-56332381D01*
X76517333Y-56332381D02*
X76517333Y-55332381D01*
X76422095Y-55475238D01*
X76326857Y-55570476D01*
X76231619Y-55618095D01*
X74692000Y-73604381D02*
X74358666Y-73128190D01*
X74120571Y-73604381D02*
X74120571Y-72604381D01*
X74501524Y-72604381D01*
X74596762Y-72652000D01*
X74644381Y-72699619D01*
X74692000Y-72794857D01*
X74692000Y-72937714D01*
X74644381Y-73032952D01*
X74596762Y-73080571D01*
X74501524Y-73128190D01*
X74120571Y-73128190D01*
X75596762Y-73604381D02*
X75120571Y-73604381D01*
X75120571Y-72604381D01*
X76120571Y-73128190D02*
X76120571Y-73604381D01*
X75787238Y-72604381D02*
X76120571Y-73128190D01*
X76453905Y-72604381D01*
X76739619Y-72699619D02*
X76787238Y-72652000D01*
X76882476Y-72604381D01*
X77120572Y-72604381D01*
X77215810Y-72652000D01*
X77263429Y-72699619D01*
X77311048Y-72794857D01*
X77311048Y-72890095D01*
X77263429Y-73032952D01*
X76692000Y-73604381D01*
X77311048Y-73604381D01*
X23693381Y-24344238D02*
X23217190Y-24677572D01*
X23693381Y-24915667D02*
X22693381Y-24915667D01*
X22693381Y-24534714D01*
X22741000Y-24439476D01*
X22788619Y-24391857D01*
X22883857Y-24344238D01*
X23026714Y-24344238D01*
X23121952Y-24391857D01*
X23169571Y-24439476D01*
X23217190Y-24534714D01*
X23217190Y-24915667D01*
X22693381Y-24058524D02*
X23693381Y-23725191D01*
X22693381Y-23391857D01*
X23693381Y-22534714D02*
X23693381Y-23106143D01*
X23693381Y-22820429D02*
X22693381Y-22820429D01*
X22836238Y-22915667D01*
X22931476Y-23010905D01*
X22979095Y-23106143D01*
X31285804Y-57509300D02*
X31858224Y-58081720D01*
X31959239Y-58115392D01*
X32026582Y-58115392D01*
X32127597Y-58081720D01*
X32262285Y-57947032D01*
X32295957Y-57846017D01*
X32295957Y-57778674D01*
X32262285Y-57677659D01*
X31689865Y-57105239D01*
X33104079Y-57105239D02*
X32700017Y-57509300D01*
X32902048Y-57307270D02*
X32194941Y-56600163D01*
X32228613Y-56768522D01*
X32228613Y-56903208D01*
X32194941Y-57004224D01*
X49022095Y-57364381D02*
X49022095Y-58173905D01*
X49069714Y-58269143D01*
X49117333Y-58316762D01*
X49212571Y-58364381D01*
X49403048Y-58364381D01*
X49498286Y-58316762D01*
X49545905Y-58269143D01*
X49593524Y-58173905D01*
X49593524Y-57364381D01*
X49974476Y-57364381D02*
X50593524Y-57364381D01*
X50260190Y-57745333D01*
X50403048Y-57745333D01*
X50498286Y-57792952D01*
X50545905Y-57840571D01*
X50593524Y-57935810D01*
X50593524Y-58173905D01*
X50545905Y-58269143D01*
X50498286Y-58316762D01*
X50403048Y-58364381D01*
X50117333Y-58364381D01*
X50022095Y-58316762D01*
X49974476Y-58269143D01*
X23399809Y-63730190D02*
X23399809Y-64206381D01*
X23066476Y-63206381D02*
X23399809Y-63730190D01*
X23733143Y-63206381D01*
X24590286Y-64206381D02*
X24018857Y-64206381D01*
X24304571Y-64206381D02*
X24304571Y-63206381D01*
X24209333Y-63349238D01*
X24114095Y-63444476D01*
X24018857Y-63492095D01*
X29551334Y-50490381D02*
X29218000Y-50014190D01*
X28979905Y-50490381D02*
X28979905Y-49490381D01*
X29360858Y-49490381D01*
X29456096Y-49538000D01*
X29503715Y-49585619D01*
X29551334Y-49680857D01*
X29551334Y-49823714D01*
X29503715Y-49918952D01*
X29456096Y-49966571D01*
X29360858Y-50014190D01*
X28979905Y-50014190D01*
X30027524Y-50490381D02*
X30218000Y-50490381D01*
X30313239Y-50442762D01*
X30360858Y-50395143D01*
X30456096Y-50252286D01*
X30503715Y-50061810D01*
X30503715Y-49680857D01*
X30456096Y-49585619D01*
X30408477Y-49538000D01*
X30313239Y-49490381D01*
X30122762Y-49490381D01*
X30027524Y-49538000D01*
X29979905Y-49585619D01*
X29932286Y-49680857D01*
X29932286Y-49918952D01*
X29979905Y-50014190D01*
X30027524Y-50061810D01*
X30122762Y-50109429D01*
X30313239Y-50109429D01*
X30408477Y-50061810D01*
X30456096Y-50014190D01*
X30503715Y-49918952D01*
X61079143Y-63603143D02*
X61031524Y-63650762D01*
X60888667Y-63698381D01*
X60793429Y-63698381D01*
X60650571Y-63650762D01*
X60555333Y-63555524D01*
X60507714Y-63460286D01*
X60460095Y-63269810D01*
X60460095Y-63126952D01*
X60507714Y-62936476D01*
X60555333Y-62841238D01*
X60650571Y-62746000D01*
X60793429Y-62698381D01*
X60888667Y-62698381D01*
X61031524Y-62746000D01*
X61079143Y-62793619D01*
X62031524Y-63698381D02*
X61460095Y-63698381D01*
X61745809Y-63698381D02*
X61745809Y-62698381D01*
X61650571Y-62841238D01*
X61555333Y-62936476D01*
X61460095Y-62984095D01*
X62650571Y-62698381D02*
X62745810Y-62698381D01*
X62841048Y-62746000D01*
X62888667Y-62793619D01*
X62936286Y-62888857D01*
X62983905Y-63079333D01*
X62983905Y-63317429D01*
X62936286Y-63507905D01*
X62888667Y-63603143D01*
X62841048Y-63650762D01*
X62745810Y-63698381D01*
X62650571Y-63698381D01*
X62555333Y-63650762D01*
X62507714Y-63603143D01*
X62460095Y-63507905D01*
X62412476Y-63317429D01*
X62412476Y-63079333D01*
X62460095Y-62888857D01*
X62507714Y-62793619D01*
X62555333Y-62746000D01*
X62650571Y-62698381D01*
X61079143Y-58269143D02*
X61031524Y-58316762D01*
X60888667Y-58364381D01*
X60793429Y-58364381D01*
X60650571Y-58316762D01*
X60555333Y-58221524D01*
X60507714Y-58126286D01*
X60460095Y-57935810D01*
X60460095Y-57792952D01*
X60507714Y-57602476D01*
X60555333Y-57507238D01*
X60650571Y-57412000D01*
X60793429Y-57364381D01*
X60888667Y-57364381D01*
X61031524Y-57412000D01*
X61079143Y-57459619D01*
X62031524Y-58364381D02*
X61460095Y-58364381D01*
X61745809Y-58364381D02*
X61745809Y-57364381D01*
X61650571Y-57507238D01*
X61555333Y-57602476D01*
X61460095Y-57650095D01*
X62412476Y-57459619D02*
X62460095Y-57412000D01*
X62555333Y-57364381D01*
X62793429Y-57364381D01*
X62888667Y-57412000D01*
X62936286Y-57459619D01*
X62983905Y-57554857D01*
X62983905Y-57650095D01*
X62936286Y-57792952D01*
X62364857Y-58364381D01*
X62983905Y-58364381D01*
X54475143Y-67159143D02*
X54427524Y-67206762D01*
X54284667Y-67254381D01*
X54189429Y-67254381D01*
X54046571Y-67206762D01*
X53951333Y-67111524D01*
X53903714Y-67016286D01*
X53856095Y-66825810D01*
X53856095Y-66682952D01*
X53903714Y-66492476D01*
X53951333Y-66397238D01*
X54046571Y-66302000D01*
X54189429Y-66254381D01*
X54284667Y-66254381D01*
X54427524Y-66302000D01*
X54475143Y-66349619D01*
X55427524Y-67254381D02*
X54856095Y-67254381D01*
X55141809Y-67254381D02*
X55141809Y-66254381D01*
X55046571Y-66397238D01*
X54951333Y-66492476D01*
X54856095Y-66540095D01*
X55760857Y-66254381D02*
X56379905Y-66254381D01*
X56046571Y-66635333D01*
X56189429Y-66635333D01*
X56284667Y-66682952D01*
X56332286Y-66730571D01*
X56379905Y-66825810D01*
X56379905Y-67063905D01*
X56332286Y-67159143D01*
X56284667Y-67206762D01*
X56189429Y-67254381D01*
X55903714Y-67254381D01*
X55808476Y-67206762D01*
X55760857Y-67159143D01*
X61079143Y-52935143D02*
X61031524Y-52982762D01*
X60888667Y-53030381D01*
X60793429Y-53030381D01*
X60650571Y-52982762D01*
X60555333Y-52887524D01*
X60507714Y-52792286D01*
X60460095Y-52601810D01*
X60460095Y-52458952D01*
X60507714Y-52268476D01*
X60555333Y-52173238D01*
X60650571Y-52078000D01*
X60793429Y-52030381D01*
X60888667Y-52030381D01*
X61031524Y-52078000D01*
X61079143Y-52125619D01*
X62031524Y-53030381D02*
X61460095Y-53030381D01*
X61745809Y-53030381D02*
X61745809Y-52030381D01*
X61650571Y-52173238D01*
X61555333Y-52268476D01*
X61460095Y-52316095D01*
X62888667Y-52363714D02*
X62888667Y-53030381D01*
X62650571Y-51982762D02*
X62412476Y-52697048D01*
X63031524Y-52697048D01*
X61357143Y-33546381D02*
X61023809Y-33070190D01*
X60785714Y-33546381D02*
X60785714Y-32546381D01*
X61166667Y-32546381D01*
X61261905Y-32594000D01*
X61309524Y-32641619D01*
X61357143Y-32736857D01*
X61357143Y-32879714D01*
X61309524Y-32974952D01*
X61261905Y-33022571D01*
X61166667Y-33070190D01*
X60785714Y-33070190D01*
X62309524Y-33546381D02*
X61738095Y-33546381D01*
X62023809Y-33546381D02*
X62023809Y-32546381D01*
X61928571Y-32689238D01*
X61833333Y-32784476D01*
X61738095Y-32832095D01*
X62928571Y-32546381D02*
X63023810Y-32546381D01*
X63119048Y-32594000D01*
X63166667Y-32641619D01*
X63214286Y-32736857D01*
X63261905Y-32927333D01*
X63261905Y-33165429D01*
X63214286Y-33355905D01*
X63166667Y-33451143D01*
X63119048Y-33498762D01*
X63023810Y-33546381D01*
X62928571Y-33546381D01*
X62833333Y-33498762D01*
X62785714Y-33451143D01*
X62738095Y-33355905D01*
X62690476Y-33165429D01*
X62690476Y-32927333D01*
X62738095Y-32736857D01*
X62785714Y-32641619D01*
X62833333Y-32594000D01*
X62928571Y-32546381D01*
X58285143Y-33472381D02*
X57951809Y-32996190D01*
X57713714Y-33472381D02*
X57713714Y-32472381D01*
X58094667Y-32472381D01*
X58189905Y-32520000D01*
X58237524Y-32567619D01*
X58285143Y-32662857D01*
X58285143Y-32805714D01*
X58237524Y-32900952D01*
X58189905Y-32948571D01*
X58094667Y-32996190D01*
X57713714Y-32996190D01*
X59237524Y-33472381D02*
X58666095Y-33472381D01*
X58951809Y-33472381D02*
X58951809Y-32472381D01*
X58856571Y-32615238D01*
X58761333Y-32710476D01*
X58666095Y-32758095D01*
X60189905Y-33472381D02*
X59618476Y-33472381D01*
X59904190Y-33472381D02*
X59904190Y-32472381D01*
X59808952Y-32615238D01*
X59713714Y-32710476D01*
X59618476Y-32758095D01*
X27297143Y-42616381D02*
X26963809Y-42140190D01*
X26725714Y-42616381D02*
X26725714Y-41616381D01*
X27106667Y-41616381D01*
X27201905Y-41664000D01*
X27249524Y-41711619D01*
X27297143Y-41806857D01*
X27297143Y-41949714D01*
X27249524Y-42044952D01*
X27201905Y-42092571D01*
X27106667Y-42140190D01*
X26725714Y-42140190D01*
X28249524Y-42616381D02*
X27678095Y-42616381D01*
X27963809Y-42616381D02*
X27963809Y-41616381D01*
X27868571Y-41759238D01*
X27773333Y-41854476D01*
X27678095Y-41902095D01*
X28630476Y-41711619D02*
X28678095Y-41664000D01*
X28773333Y-41616381D01*
X29011429Y-41616381D01*
X29106667Y-41664000D01*
X29154286Y-41711619D01*
X29201905Y-41806857D01*
X29201905Y-41902095D01*
X29154286Y-42044952D01*
X28582857Y-42616381D01*
X29201905Y-42616381D01*
M02*
