M48
;DRILL file {KiCad 4.0.7} date 03/02/18 13:50:22
;FORMAT={-:-/ absolute / inch / decimal}
FMAT,2
INCH,TZ
T1C0.026
T2C0.032
T3C0.035
T4C0.039
T5C0.039
T6C0.047
T7C0.051
T8C0.055
T9C0.118
T10C0.126
%
G90
G05
M72
T1
X1.3561Y-1.3
X1.4939Y-1.3
X2.06Y-2.4505
X2.06Y-2.5095
X2.31Y-1.5108
X2.31Y-1.6092
X2.3305Y-1.92
X2.36Y-2.1005
X2.36Y-2.1595
X2.36Y-2.3105
X2.36Y-2.3695
X2.3895Y-1.92
T2
X1.22Y-1.66
X1.22Y-1.76
X1.22Y-1.86
X1.22Y-1.96
X1.22Y-2.06
X1.22Y-2.16
X1.22Y-2.26
X1.22Y-2.36
X1.22Y-2.46
X1.22Y-2.56
X1.22Y-2.66
X1.22Y-2.76
X1.22Y-2.86
X1.22Y-2.96
X1.52Y-1.66
X1.52Y-1.76
X1.52Y-1.86
X1.52Y-1.96
X1.52Y-2.06
X1.52Y-2.16
X1.52Y-2.26
X1.52Y-2.36
X1.52Y-2.46
X1.52Y-2.56
X1.52Y-2.66
X1.52Y-2.76
X1.52Y-2.86
X1.52Y-2.96
T3
X2.61Y-1.2219
X2.61Y-1.3309
X2.61Y-1.44
X2.61Y-1.5491
X2.61Y-1.6581
X2.71Y-1.2764
X2.71Y-1.3855
X2.71Y-1.4945
X2.71Y-1.6036
T4
X0.8756Y-1.0826
X0.94Y-2.03
X0.9544Y-0.7874
X1.13Y-3.06
X1.67Y-1.49
X2.21Y-2.73
X2.29Y-3.11
T5
X0.93Y-3.02
X0.93Y-3.12
X0.93Y-3.22
X0.93Y-3.36
X1.03Y-3.02
X1.03Y-3.12
X1.03Y-3.22
X1.03Y-3.36
T6
X1.87Y-1.498
X1.97Y-1.598
X2.07Y-1.498
T7
X1.3416Y-0.79
X1.3516Y-3.425
X1.5384Y-0.79
X1.5484Y-3.425
X1.7716Y-3.425
X1.9684Y-3.425
X2.1916Y-3.425
X2.3884Y-3.425
X2.6598Y-2.1738
X2.6598Y-2.6462
X2.6598Y-2.8438
X2.6598Y-3.3162
X3.1402Y-2.1738
X3.1402Y-2.6462
X3.1402Y-2.8438
X3.1402Y-3.3162
T8
X2.5811Y-2.41
X2.5811Y-3.08
T9
X1.1024Y-0.7087
X1.1024Y-3.5039
X3.0709Y-0.7087
X3.0709Y-3.5039
T10
X2.66Y-0.9481
X2.66Y-1.9319
T0
M30
