G04 #@! TF.FileFunction,Legend,Top*
%FSLAX46Y46*%
G04 Gerber Fmt 4.6, Leading zero omitted, Abs format (unit mm)*
G04 Created by KiCad (PCBNEW 4.0.6) date 10/27/17 08:06:12*
%MOMM*%
%LPD*%
G01*
G04 APERTURE LIST*
%ADD10C,0.100000*%
%ADD11C,0.248920*%
%ADD12C,0.299720*%
%ADD13C,0.254000*%
%ADD14C,0.381000*%
%ADD15C,0.304800*%
%ADD16C,0.150000*%
G04 APERTURE END LIST*
D10*
D11*
X83947000Y-136398000D02*
X85725000Y-136398000D01*
X85725000Y-136398000D02*
X85725000Y-130302000D01*
X85725000Y-130302000D02*
X83947000Y-130302000D01*
X83947000Y-130302000D02*
X83947000Y-136398000D01*
X105029000Y-136398000D02*
X106807000Y-136398000D01*
X106807000Y-136398000D02*
X106807000Y-130302000D01*
X106807000Y-130302000D02*
X105029000Y-130302000D01*
X105029000Y-130302000D02*
X105029000Y-136398000D01*
X85217000Y-107950000D02*
X83439000Y-107950000D01*
X83439000Y-107950000D02*
X83439000Y-114046000D01*
X83439000Y-114046000D02*
X85217000Y-114046000D01*
X85217000Y-114046000D02*
X85217000Y-107950000D01*
X104775000Y-115570000D02*
X106553000Y-115570000D01*
X106553000Y-115570000D02*
X106553000Y-109474000D01*
X106553000Y-109474000D02*
X104775000Y-109474000D01*
X104775000Y-109474000D02*
X104775000Y-115570000D01*
X87884000Y-88265000D02*
X89662000Y-88265000D01*
X89662000Y-88265000D02*
X89662000Y-82169000D01*
X89662000Y-82169000D02*
X87884000Y-82169000D01*
X87884000Y-82169000D02*
X87884000Y-88265000D01*
D12*
X82509360Y-74691240D02*
G75*
G03X82311240Y-77510640I1310640J-1508760D01*
G01*
X85321140Y-77530960D02*
G75*
G03X85150960Y-74698860I-1501140J1330960D01*
G01*
X81821020Y-76200000D02*
G75*
G03X83820000Y-78198980I1998980J0D01*
G01*
X83820000Y-78198980D02*
G75*
G03X85818980Y-76200000I0J1998980D01*
G01*
X85321140Y-74899520D02*
X82318860Y-74899520D01*
X85120480Y-74698860D02*
X82519520Y-74698860D01*
X85321140Y-76200000D02*
G75*
G03X85321140Y-76200000I-1501140J0D01*
G01*
X87589360Y-74691240D02*
G75*
G03X87391240Y-77510640I1310640J-1508760D01*
G01*
X90401140Y-77530960D02*
G75*
G03X90230960Y-74698860I-1501140J1330960D01*
G01*
X86901020Y-76200000D02*
G75*
G03X88900000Y-78198980I1998980J0D01*
G01*
X88900000Y-78198980D02*
G75*
G03X90898980Y-76200000I0J1998980D01*
G01*
X90401140Y-74899520D02*
X87398860Y-74899520D01*
X90200480Y-74698860D02*
X87599520Y-74698860D01*
X90401140Y-76200000D02*
G75*
G03X90401140Y-76200000I-1501140J0D01*
G01*
D13*
X65786000Y-120396000D02*
X65786000Y-122936000D01*
X67056000Y-120396000D02*
G75*
G03X67056000Y-120396000I-1270000J0D01*
G01*
X89916000Y-120142000D02*
X89916000Y-122682000D01*
X91186000Y-120142000D02*
G75*
G03X91186000Y-120142000I-1270000J0D01*
G01*
X68834000Y-120396000D02*
X68834000Y-122936000D01*
X70104000Y-120396000D02*
G75*
G03X70104000Y-120396000I-1270000J0D01*
G01*
X92964000Y-120142000D02*
X92964000Y-122682000D01*
X94234000Y-120142000D02*
G75*
G03X94234000Y-120142000I-1270000J0D01*
G01*
X74930000Y-120396000D02*
X74930000Y-122936000D01*
X76200000Y-120396000D02*
G75*
G03X76200000Y-120396000I-1270000J0D01*
G01*
X99060000Y-120142000D02*
X99060000Y-122682000D01*
X100330000Y-120142000D02*
G75*
G03X100330000Y-120142000I-1270000J0D01*
G01*
X77978000Y-120396000D02*
X77978000Y-122936000D01*
X79248000Y-120396000D02*
G75*
G03X79248000Y-120396000I-1270000J0D01*
G01*
X102108000Y-120142000D02*
X102108000Y-122682000D01*
X103378000Y-120142000D02*
G75*
G03X103378000Y-120142000I-1270000J0D01*
G01*
X71882000Y-120396000D02*
X71882000Y-122936000D01*
X73152000Y-120396000D02*
G75*
G03X73152000Y-120396000I-1270000J0D01*
G01*
X96012000Y-120142000D02*
X96012000Y-122682000D01*
X97282000Y-120142000D02*
G75*
G03X97282000Y-120142000I-1270000J0D01*
G01*
X60960000Y-133350000D02*
X63500000Y-133350000D01*
X62230000Y-133350000D02*
G75*
G03X62230000Y-133350000I-1270000J0D01*
G01*
X60960000Y-136398000D02*
X63500000Y-136398000D01*
X62230000Y-136398000D02*
G75*
G03X62230000Y-136398000I-1270000J0D01*
G01*
X87630000Y-134874000D02*
X90170000Y-134874000D01*
X88900000Y-134874000D02*
G75*
G03X88900000Y-134874000I-1270000J0D01*
G01*
X87630000Y-137922000D02*
X90170000Y-137922000D01*
X88900000Y-137922000D02*
G75*
G03X88900000Y-137922000I-1270000J0D01*
G01*
X60960000Y-130302000D02*
X63500000Y-130302000D01*
X62230000Y-130302000D02*
G75*
G03X62230000Y-130302000I-1270000J0D01*
G01*
X87630000Y-131826000D02*
X90170000Y-131826000D01*
X88900000Y-131826000D02*
G75*
G03X88900000Y-131826000I-1270000J0D01*
G01*
X66548000Y-100838000D02*
X66548000Y-103378000D01*
X67818000Y-100838000D02*
G75*
G03X67818000Y-100838000I-1270000J0D01*
G01*
X89408000Y-100838000D02*
X89408000Y-103378000D01*
X90678000Y-100838000D02*
G75*
G03X90678000Y-100838000I-1270000J0D01*
G01*
X69596000Y-100838000D02*
X69596000Y-103378000D01*
X70866000Y-100838000D02*
G75*
G03X70866000Y-100838000I-1270000J0D01*
G01*
X92456000Y-100838000D02*
X92456000Y-103378000D01*
X93726000Y-100838000D02*
G75*
G03X93726000Y-100838000I-1270000J0D01*
G01*
X75692000Y-100838000D02*
X75692000Y-103378000D01*
X76962000Y-100838000D02*
G75*
G03X76962000Y-100838000I-1270000J0D01*
G01*
X98552000Y-100838000D02*
X98552000Y-103378000D01*
X99822000Y-100838000D02*
G75*
G03X99822000Y-100838000I-1270000J0D01*
G01*
X78740000Y-100838000D02*
X78740000Y-103378000D01*
X80010000Y-100838000D02*
G75*
G03X80010000Y-100838000I-1270000J0D01*
G01*
X101600000Y-100838000D02*
X101600000Y-103378000D01*
X102870000Y-100838000D02*
G75*
G03X102870000Y-100838000I-1270000J0D01*
G01*
X72644000Y-100838000D02*
X72644000Y-103378000D01*
X73914000Y-100838000D02*
G75*
G03X73914000Y-100838000I-1270000J0D01*
G01*
X95504000Y-100838000D02*
X95504000Y-103378000D01*
X96774000Y-100838000D02*
G75*
G03X96774000Y-100838000I-1270000J0D01*
G01*
X81026000Y-120396000D02*
X81026000Y-122936000D01*
X82296000Y-120396000D02*
G75*
G03X82296000Y-120396000I-1270000J0D01*
G01*
X65532000Y-112014000D02*
X68072000Y-112014000D01*
X66802000Y-112014000D02*
G75*
G03X66802000Y-112014000I-1270000J0D01*
G01*
X84328000Y-116586000D02*
X86868000Y-116586000D01*
X85598000Y-116586000D02*
G75*
G03X85598000Y-116586000I-1270000J0D01*
G01*
X84328000Y-119634000D02*
X86868000Y-119634000D01*
X85598000Y-119634000D02*
G75*
G03X85598000Y-119634000I-1270000J0D01*
G01*
X65532000Y-115062000D02*
X68072000Y-115062000D01*
X66802000Y-115062000D02*
G75*
G03X66802000Y-115062000I-1270000J0D01*
G01*
X87376000Y-113284000D02*
X89916000Y-113284000D01*
X88646000Y-113284000D02*
G75*
G03X88646000Y-113284000I-1270000J0D01*
G01*
X96012000Y-74930000D02*
X96012000Y-77470000D01*
X97282000Y-74930000D02*
G75*
G03X97282000Y-74930000I-1270000J0D01*
G01*
X67564000Y-91694000D02*
X67564000Y-94234000D01*
X68834000Y-91694000D02*
G75*
G03X68834000Y-91694000I-1270000J0D01*
G01*
X64262000Y-91694000D02*
X64262000Y-94234000D01*
X65532000Y-91694000D02*
G75*
G03X65532000Y-91694000I-1270000J0D01*
G01*
X79121000Y-76327000D02*
X79121000Y-73787000D01*
X80391000Y-76327000D02*
G75*
G03X80391000Y-76327000I-1270000J0D01*
G01*
X92710000Y-74930000D02*
X92710000Y-77470000D01*
X93980000Y-74930000D02*
G75*
G03X93980000Y-74930000I-1270000J0D01*
G01*
X76454000Y-92456000D02*
X76454000Y-94996000D01*
X77724000Y-92456000D02*
G75*
G03X77724000Y-92456000I-1270000J0D01*
G01*
X84074000Y-92456000D02*
X84074000Y-94996000D01*
X85344000Y-92456000D02*
G75*
G03X85344000Y-92456000I-1270000J0D01*
G01*
D14*
X69360000Y-73960000D02*
X57930000Y-73960000D01*
X57930000Y-73960000D02*
X56660000Y-75230000D01*
X56660000Y-75230000D02*
X56660000Y-140000000D01*
X110000000Y-73960000D02*
X110000000Y-140000000D01*
X110000000Y-140000000D02*
X56660000Y-140000000D01*
X69360000Y-73960000D02*
X71900000Y-71420000D01*
X71900000Y-71420000D02*
X104920000Y-71420000D01*
X104920000Y-71420000D02*
X107460000Y-73960000D01*
X107460000Y-73960000D02*
X110000000Y-73960000D01*
D13*
X74676000Y-130048000D02*
X78740000Y-130048000D01*
X78740000Y-132588000D02*
X74676000Y-132588000D01*
D14*
X71628000Y-126238000D02*
X81788000Y-126238000D01*
X82804000Y-128016000D02*
X70612000Y-128016000D01*
X71628000Y-136398000D02*
X81788000Y-136398000D01*
X82804000Y-134620000D02*
X70612000Y-134620000D01*
D13*
X80518000Y-131318000D02*
G75*
G03X81788000Y-132588000I1270000J0D01*
G01*
X81788000Y-130048000D02*
G75*
G03X80518000Y-131318000I0J-1270000D01*
G01*
D14*
X81788000Y-130048000D02*
X82804000Y-130048000D01*
X81788000Y-132588000D02*
X82804000Y-132588000D01*
D13*
X78740000Y-132588000D02*
X78740000Y-130048000D01*
X74676000Y-130048000D02*
X74676000Y-132588000D01*
D14*
X71628000Y-136398000D02*
X71628000Y-126238000D01*
X81788000Y-126238000D02*
X81788000Y-136398000D01*
X70612000Y-134620000D02*
X70612000Y-128016000D01*
X82804000Y-128016000D02*
X82804000Y-134620000D01*
D13*
X95758000Y-130048000D02*
X99822000Y-130048000D01*
X99822000Y-132588000D02*
X95758000Y-132588000D01*
D14*
X92710000Y-126238000D02*
X102870000Y-126238000D01*
X103886000Y-128016000D02*
X91694000Y-128016000D01*
X92710000Y-136398000D02*
X102870000Y-136398000D01*
X103886000Y-134620000D02*
X91694000Y-134620000D01*
D13*
X101600000Y-131318000D02*
G75*
G03X102870000Y-132588000I1270000J0D01*
G01*
X102870000Y-130048000D02*
G75*
G03X101600000Y-131318000I0J-1270000D01*
G01*
D14*
X102870000Y-130048000D02*
X103886000Y-130048000D01*
X102870000Y-132588000D02*
X103886000Y-132588000D01*
D13*
X99822000Y-132588000D02*
X99822000Y-130048000D01*
X95758000Y-130048000D02*
X95758000Y-132588000D01*
D14*
X92710000Y-136398000D02*
X92710000Y-126238000D01*
X102870000Y-126238000D02*
X102870000Y-136398000D01*
X91694000Y-134620000D02*
X91694000Y-128016000D01*
X103886000Y-128016000D02*
X103886000Y-134620000D01*
D13*
X74422000Y-109982000D02*
X78486000Y-109982000D01*
X78486000Y-112522000D02*
X74422000Y-112522000D01*
D14*
X71374000Y-106172000D02*
X81534000Y-106172000D01*
X82550000Y-107950000D02*
X70358000Y-107950000D01*
X71374000Y-116332000D02*
X81534000Y-116332000D01*
X82550000Y-114554000D02*
X70358000Y-114554000D01*
D13*
X80264000Y-111252000D02*
G75*
G03X81534000Y-112522000I1270000J0D01*
G01*
X81534000Y-109982000D02*
G75*
G03X80264000Y-111252000I0J-1270000D01*
G01*
D14*
X81534000Y-109982000D02*
X82550000Y-109982000D01*
X81534000Y-112522000D02*
X82550000Y-112522000D01*
D13*
X78486000Y-112522000D02*
X78486000Y-109982000D01*
X74422000Y-109982000D02*
X74422000Y-112522000D01*
D14*
X71374000Y-116332000D02*
X71374000Y-106172000D01*
X81534000Y-106172000D02*
X81534000Y-116332000D01*
X70358000Y-114554000D02*
X70358000Y-107950000D01*
X82550000Y-107950000D02*
X82550000Y-114554000D01*
D13*
X95758000Y-109982000D02*
X99822000Y-109982000D01*
X99822000Y-112522000D02*
X95758000Y-112522000D01*
D14*
X92710000Y-106172000D02*
X102870000Y-106172000D01*
X103886000Y-107950000D02*
X91694000Y-107950000D01*
X92710000Y-116332000D02*
X102870000Y-116332000D01*
X103886000Y-114554000D02*
X91694000Y-114554000D01*
D13*
X101600000Y-111252000D02*
G75*
G03X102870000Y-112522000I1270000J0D01*
G01*
X102870000Y-109982000D02*
G75*
G03X101600000Y-111252000I0J-1270000D01*
G01*
D14*
X102870000Y-109982000D02*
X103886000Y-109982000D01*
X102870000Y-112522000D02*
X103886000Y-112522000D01*
D13*
X99822000Y-112522000D02*
X99822000Y-109982000D01*
X95758000Y-109982000D02*
X95758000Y-112522000D01*
D14*
X92710000Y-116332000D02*
X92710000Y-106172000D01*
X102870000Y-106172000D02*
X102870000Y-116332000D01*
X91694000Y-114554000D02*
X91694000Y-107950000D01*
X103886000Y-107950000D02*
X103886000Y-114554000D01*
D13*
X66040000Y-83058000D02*
X80264000Y-83058000D01*
X80264000Y-85598000D02*
X66040000Y-85598000D01*
D14*
X62992000Y-89408000D02*
X83312000Y-89408000D01*
X83312000Y-79248000D02*
X62992000Y-79248000D01*
X61976000Y-81026000D02*
X84328000Y-81026000D01*
X84328000Y-87630000D02*
X61976000Y-87630000D01*
D13*
X82042000Y-84328000D02*
G75*
G03X83312000Y-85598000I1270000J0D01*
G01*
X83312000Y-83058000D02*
G75*
G03X82042000Y-84328000I0J-1270000D01*
G01*
D14*
X83312000Y-83058000D02*
X84328000Y-83058000D01*
X83312000Y-85598000D02*
X84328000Y-85598000D01*
D13*
X80264000Y-85598000D02*
X80264000Y-83058000D01*
X66040000Y-83058000D02*
X66040000Y-85598000D01*
D14*
X62992000Y-89408000D02*
X62992000Y-79248000D01*
X83312000Y-79248000D02*
X83312000Y-89408000D01*
X61976000Y-87630000D02*
X61976000Y-81026000D01*
X84328000Y-81026000D02*
X84328000Y-87630000D01*
D12*
X99273360Y-77485240D02*
G75*
G03X99075240Y-80304640I1310640J-1508760D01*
G01*
X102085140Y-80324960D02*
G75*
G03X101914960Y-77492860I-1501140J1330960D01*
G01*
X98585020Y-78994000D02*
G75*
G03X100584000Y-80992980I1998980J0D01*
G01*
X100584000Y-80992980D02*
G75*
G03X102582980Y-78994000I0J1998980D01*
G01*
X102085140Y-77693520D02*
X99082860Y-77693520D01*
X101884480Y-77492860D02*
X99283520Y-77492860D01*
X102085140Y-78994000D02*
G75*
G03X102085140Y-78994000I-1501140J0D01*
G01*
D14*
X67818000Y-125222000D02*
X67818000Y-130302000D01*
X67818000Y-125222000D02*
X69088000Y-125857000D01*
X69088000Y-125857000D02*
X69088000Y-129667000D01*
X69088000Y-129667000D02*
X67818000Y-130302000D01*
X67818000Y-125222000D02*
G75*
G03X65278000Y-127762000I0J-2540000D01*
G01*
X65278000Y-127762000D02*
G75*
G03X67818000Y-130302000I2540000J0D01*
G01*
X88900000Y-124714000D02*
X88900000Y-129794000D01*
X88900000Y-124714000D02*
X90170000Y-125349000D01*
X90170000Y-125349000D02*
X90170000Y-129159000D01*
X90170000Y-129159000D02*
X88900000Y-129794000D01*
X88900000Y-124714000D02*
G75*
G03X86360000Y-127254000I0J-2540000D01*
G01*
X86360000Y-127254000D02*
G75*
G03X88900000Y-129794000I2540000J0D01*
G01*
X64516000Y-107188000D02*
X69596000Y-107188000D01*
X64516000Y-107188000D02*
X65151000Y-105918000D01*
X65151000Y-105918000D02*
X68961000Y-105918000D01*
X68961000Y-105918000D02*
X69596000Y-107188000D01*
X64516000Y-107188000D02*
G75*
G03X67056000Y-109728000I2540000J0D01*
G01*
X67056000Y-109728000D02*
G75*
G03X69596000Y-107188000I0J2540000D01*
G01*
X89154000Y-106172000D02*
X89154000Y-111252000D01*
X89154000Y-106172000D02*
X90424000Y-106807000D01*
X90424000Y-106807000D02*
X90424000Y-110617000D01*
X90424000Y-110617000D02*
X89154000Y-111252000D01*
X89154000Y-106172000D02*
G75*
G03X86614000Y-108712000I0J-2540000D01*
G01*
X86614000Y-108712000D02*
G75*
G03X89154000Y-111252000I2540000J0D01*
G01*
D15*
X76708000Y-136906000D02*
X76708000Y-139446000D01*
X76708000Y-139446000D02*
X74168000Y-136906000D01*
X74168000Y-139446000D02*
X76708000Y-136906000D01*
X79248000Y-139446000D02*
X74168000Y-139446000D01*
X74168000Y-136906000D02*
X79248000Y-136906000D01*
X74168000Y-139446000D02*
X74168000Y-136906000D01*
X79248000Y-136906000D02*
X79248000Y-139446000D01*
X97790000Y-136906000D02*
X97790000Y-139446000D01*
X97790000Y-139446000D02*
X95250000Y-136906000D01*
X95250000Y-139446000D02*
X97790000Y-136906000D01*
X100330000Y-139446000D02*
X95250000Y-139446000D01*
X95250000Y-136906000D02*
X100330000Y-136906000D01*
X95250000Y-139446000D02*
X95250000Y-136906000D01*
X100330000Y-136906000D02*
X100330000Y-139446000D01*
X60960000Y-120142000D02*
X63500000Y-120142000D01*
X63500000Y-120142000D02*
X60960000Y-122682000D01*
X63500000Y-122682000D02*
X60960000Y-120142000D01*
X63500000Y-117602000D02*
X63500000Y-122682000D01*
X60960000Y-122682000D02*
X60960000Y-117602000D01*
X63500000Y-122682000D02*
X60960000Y-122682000D01*
X60960000Y-117602000D02*
X63500000Y-117602000D01*
X105918000Y-119634000D02*
X108458000Y-119634000D01*
X108458000Y-119634000D02*
X105918000Y-122174000D01*
X108458000Y-122174000D02*
X105918000Y-119634000D01*
X108458000Y-117094000D02*
X108458000Y-122174000D01*
X105918000Y-122174000D02*
X105918000Y-117094000D01*
X108458000Y-122174000D02*
X105918000Y-122174000D01*
X105918000Y-117094000D02*
X108458000Y-117094000D01*
D16*
X82891334Y-137517143D02*
X82843715Y-137564762D01*
X82700858Y-137612381D01*
X82605620Y-137612381D01*
X82462762Y-137564762D01*
X82367524Y-137469524D01*
X82319905Y-137374286D01*
X82272286Y-137183810D01*
X82272286Y-137040952D01*
X82319905Y-136850476D01*
X82367524Y-136755238D01*
X82462762Y-136660000D01*
X82605620Y-136612381D01*
X82700858Y-136612381D01*
X82843715Y-136660000D01*
X82891334Y-136707619D01*
X83843715Y-137612381D02*
X83272286Y-137612381D01*
X83558000Y-137612381D02*
X83558000Y-136612381D01*
X83462762Y-136755238D01*
X83367524Y-136850476D01*
X83272286Y-136898095D01*
X108037334Y-136247143D02*
X107989715Y-136294762D01*
X107846858Y-136342381D01*
X107751620Y-136342381D01*
X107608762Y-136294762D01*
X107513524Y-136199524D01*
X107465905Y-136104286D01*
X107418286Y-135913810D01*
X107418286Y-135770952D01*
X107465905Y-135580476D01*
X107513524Y-135485238D01*
X107608762Y-135390000D01*
X107751620Y-135342381D01*
X107846858Y-135342381D01*
X107989715Y-135390000D01*
X108037334Y-135437619D01*
X108418286Y-135437619D02*
X108465905Y-135390000D01*
X108561143Y-135342381D01*
X108799239Y-135342381D01*
X108894477Y-135390000D01*
X108942096Y-135437619D01*
X108989715Y-135532857D01*
X108989715Y-135628095D01*
X108942096Y-135770952D01*
X108370667Y-136342381D01*
X108989715Y-136342381D01*
X83907334Y-107037143D02*
X83859715Y-107084762D01*
X83716858Y-107132381D01*
X83621620Y-107132381D01*
X83478762Y-107084762D01*
X83383524Y-106989524D01*
X83335905Y-106894286D01*
X83288286Y-106703810D01*
X83288286Y-106560952D01*
X83335905Y-106370476D01*
X83383524Y-106275238D01*
X83478762Y-106180000D01*
X83621620Y-106132381D01*
X83716858Y-106132381D01*
X83859715Y-106180000D01*
X83907334Y-106227619D01*
X84240667Y-106132381D02*
X84859715Y-106132381D01*
X84526381Y-106513333D01*
X84669239Y-106513333D01*
X84764477Y-106560952D01*
X84812096Y-106608571D01*
X84859715Y-106703810D01*
X84859715Y-106941905D01*
X84812096Y-107037143D01*
X84764477Y-107084762D01*
X84669239Y-107132381D01*
X84383524Y-107132381D01*
X84288286Y-107084762D01*
X84240667Y-107037143D01*
X107783334Y-115419143D02*
X107735715Y-115466762D01*
X107592858Y-115514381D01*
X107497620Y-115514381D01*
X107354762Y-115466762D01*
X107259524Y-115371524D01*
X107211905Y-115276286D01*
X107164286Y-115085810D01*
X107164286Y-114942952D01*
X107211905Y-114752476D01*
X107259524Y-114657238D01*
X107354762Y-114562000D01*
X107497620Y-114514381D01*
X107592858Y-114514381D01*
X107735715Y-114562000D01*
X107783334Y-114609619D01*
X108640477Y-114847714D02*
X108640477Y-115514381D01*
X108402381Y-114466762D02*
X108164286Y-115181048D01*
X108783334Y-115181048D01*
X90765334Y-87987143D02*
X90717715Y-88034762D01*
X90574858Y-88082381D01*
X90479620Y-88082381D01*
X90336762Y-88034762D01*
X90241524Y-87939524D01*
X90193905Y-87844286D01*
X90146286Y-87653810D01*
X90146286Y-87510952D01*
X90193905Y-87320476D01*
X90241524Y-87225238D01*
X90336762Y-87130000D01*
X90479620Y-87082381D01*
X90574858Y-87082381D01*
X90717715Y-87130000D01*
X90765334Y-87177619D01*
X91670096Y-87082381D02*
X91193905Y-87082381D01*
X91146286Y-87558571D01*
X91193905Y-87510952D01*
X91289143Y-87463333D01*
X91527239Y-87463333D01*
X91622477Y-87510952D01*
X91670096Y-87558571D01*
X91717715Y-87653810D01*
X91717715Y-87891905D01*
X91670096Y-87987143D01*
X91622477Y-88034762D01*
X91527239Y-88082381D01*
X91289143Y-88082381D01*
X91193905Y-88034762D01*
X91146286Y-87987143D01*
X84097905Y-73096381D02*
X84097905Y-72096381D01*
X84336000Y-72096381D01*
X84478858Y-72144000D01*
X84574096Y-72239238D01*
X84621715Y-72334476D01*
X84669334Y-72524952D01*
X84669334Y-72667810D01*
X84621715Y-72858286D01*
X84574096Y-72953524D01*
X84478858Y-73048762D01*
X84336000Y-73096381D01*
X84097905Y-73096381D01*
X85050286Y-72191619D02*
X85097905Y-72144000D01*
X85193143Y-72096381D01*
X85431239Y-72096381D01*
X85526477Y-72144000D01*
X85574096Y-72191619D01*
X85621715Y-72286857D01*
X85621715Y-72382095D01*
X85574096Y-72524952D01*
X85002667Y-73096381D01*
X85621715Y-73096381D01*
X89177905Y-73096381D02*
X89177905Y-72096381D01*
X89416000Y-72096381D01*
X89558858Y-72144000D01*
X89654096Y-72239238D01*
X89701715Y-72334476D01*
X89749334Y-72524952D01*
X89749334Y-72667810D01*
X89701715Y-72858286D01*
X89654096Y-72953524D01*
X89558858Y-73048762D01*
X89416000Y-73096381D01*
X89177905Y-73096381D01*
X90082667Y-72096381D02*
X90701715Y-72096381D01*
X90368381Y-72477333D01*
X90511239Y-72477333D01*
X90606477Y-72524952D01*
X90654096Y-72572571D01*
X90701715Y-72667810D01*
X90701715Y-72905905D01*
X90654096Y-73001143D01*
X90606477Y-73048762D01*
X90511239Y-73096381D01*
X90225524Y-73096381D01*
X90130286Y-73048762D01*
X90082667Y-73001143D01*
X65873334Y-118562381D02*
X65540000Y-118086190D01*
X65301905Y-118562381D02*
X65301905Y-117562381D01*
X65682858Y-117562381D01*
X65778096Y-117610000D01*
X65825715Y-117657619D01*
X65873334Y-117752857D01*
X65873334Y-117895714D01*
X65825715Y-117990952D01*
X65778096Y-118038571D01*
X65682858Y-118086190D01*
X65301905Y-118086190D01*
X66825715Y-118562381D02*
X66254286Y-118562381D01*
X66540000Y-118562381D02*
X66540000Y-117562381D01*
X66444762Y-117705238D01*
X66349524Y-117800476D01*
X66254286Y-117848095D01*
X89749334Y-118308381D02*
X89416000Y-117832190D01*
X89177905Y-118308381D02*
X89177905Y-117308381D01*
X89558858Y-117308381D01*
X89654096Y-117356000D01*
X89701715Y-117403619D01*
X89749334Y-117498857D01*
X89749334Y-117641714D01*
X89701715Y-117736952D01*
X89654096Y-117784571D01*
X89558858Y-117832190D01*
X89177905Y-117832190D01*
X90130286Y-117403619D02*
X90177905Y-117356000D01*
X90273143Y-117308381D01*
X90511239Y-117308381D01*
X90606477Y-117356000D01*
X90654096Y-117403619D01*
X90701715Y-117498857D01*
X90701715Y-117594095D01*
X90654096Y-117736952D01*
X90082667Y-118308381D01*
X90701715Y-118308381D01*
X68667334Y-118562381D02*
X68334000Y-118086190D01*
X68095905Y-118562381D02*
X68095905Y-117562381D01*
X68476858Y-117562381D01*
X68572096Y-117610000D01*
X68619715Y-117657619D01*
X68667334Y-117752857D01*
X68667334Y-117895714D01*
X68619715Y-117990952D01*
X68572096Y-118038571D01*
X68476858Y-118086190D01*
X68095905Y-118086190D01*
X69000667Y-117562381D02*
X69619715Y-117562381D01*
X69286381Y-117943333D01*
X69429239Y-117943333D01*
X69524477Y-117990952D01*
X69572096Y-118038571D01*
X69619715Y-118133810D01*
X69619715Y-118371905D01*
X69572096Y-118467143D01*
X69524477Y-118514762D01*
X69429239Y-118562381D01*
X69143524Y-118562381D01*
X69048286Y-118514762D01*
X69000667Y-118467143D01*
X92797334Y-118308381D02*
X92464000Y-117832190D01*
X92225905Y-118308381D02*
X92225905Y-117308381D01*
X92606858Y-117308381D01*
X92702096Y-117356000D01*
X92749715Y-117403619D01*
X92797334Y-117498857D01*
X92797334Y-117641714D01*
X92749715Y-117736952D01*
X92702096Y-117784571D01*
X92606858Y-117832190D01*
X92225905Y-117832190D01*
X93654477Y-117641714D02*
X93654477Y-118308381D01*
X93416381Y-117260762D02*
X93178286Y-117975048D01*
X93797334Y-117975048D01*
X74763334Y-118562381D02*
X74430000Y-118086190D01*
X74191905Y-118562381D02*
X74191905Y-117562381D01*
X74572858Y-117562381D01*
X74668096Y-117610000D01*
X74715715Y-117657619D01*
X74763334Y-117752857D01*
X74763334Y-117895714D01*
X74715715Y-117990952D01*
X74668096Y-118038571D01*
X74572858Y-118086190D01*
X74191905Y-118086190D01*
X75668096Y-117562381D02*
X75191905Y-117562381D01*
X75144286Y-118038571D01*
X75191905Y-117990952D01*
X75287143Y-117943333D01*
X75525239Y-117943333D01*
X75620477Y-117990952D01*
X75668096Y-118038571D01*
X75715715Y-118133810D01*
X75715715Y-118371905D01*
X75668096Y-118467143D01*
X75620477Y-118514762D01*
X75525239Y-118562381D01*
X75287143Y-118562381D01*
X75191905Y-118514762D01*
X75144286Y-118467143D01*
X98893334Y-118308381D02*
X98560000Y-117832190D01*
X98321905Y-118308381D02*
X98321905Y-117308381D01*
X98702858Y-117308381D01*
X98798096Y-117356000D01*
X98845715Y-117403619D01*
X98893334Y-117498857D01*
X98893334Y-117641714D01*
X98845715Y-117736952D01*
X98798096Y-117784571D01*
X98702858Y-117832190D01*
X98321905Y-117832190D01*
X99750477Y-117308381D02*
X99560000Y-117308381D01*
X99464762Y-117356000D01*
X99417143Y-117403619D01*
X99321905Y-117546476D01*
X99274286Y-117736952D01*
X99274286Y-118117905D01*
X99321905Y-118213143D01*
X99369524Y-118260762D01*
X99464762Y-118308381D01*
X99655239Y-118308381D01*
X99750477Y-118260762D01*
X99798096Y-118213143D01*
X99845715Y-118117905D01*
X99845715Y-117879810D01*
X99798096Y-117784571D01*
X99750477Y-117736952D01*
X99655239Y-117689333D01*
X99464762Y-117689333D01*
X99369524Y-117736952D01*
X99321905Y-117784571D01*
X99274286Y-117879810D01*
X77811334Y-118562381D02*
X77478000Y-118086190D01*
X77239905Y-118562381D02*
X77239905Y-117562381D01*
X77620858Y-117562381D01*
X77716096Y-117610000D01*
X77763715Y-117657619D01*
X77811334Y-117752857D01*
X77811334Y-117895714D01*
X77763715Y-117990952D01*
X77716096Y-118038571D01*
X77620858Y-118086190D01*
X77239905Y-118086190D01*
X78144667Y-117562381D02*
X78811334Y-117562381D01*
X78382762Y-118562381D01*
X101941334Y-118308381D02*
X101608000Y-117832190D01*
X101369905Y-118308381D02*
X101369905Y-117308381D01*
X101750858Y-117308381D01*
X101846096Y-117356000D01*
X101893715Y-117403619D01*
X101941334Y-117498857D01*
X101941334Y-117641714D01*
X101893715Y-117736952D01*
X101846096Y-117784571D01*
X101750858Y-117832190D01*
X101369905Y-117832190D01*
X102512762Y-117736952D02*
X102417524Y-117689333D01*
X102369905Y-117641714D01*
X102322286Y-117546476D01*
X102322286Y-117498857D01*
X102369905Y-117403619D01*
X102417524Y-117356000D01*
X102512762Y-117308381D01*
X102703239Y-117308381D01*
X102798477Y-117356000D01*
X102846096Y-117403619D01*
X102893715Y-117498857D01*
X102893715Y-117546476D01*
X102846096Y-117641714D01*
X102798477Y-117689333D01*
X102703239Y-117736952D01*
X102512762Y-117736952D01*
X102417524Y-117784571D01*
X102369905Y-117832190D01*
X102322286Y-117927429D01*
X102322286Y-118117905D01*
X102369905Y-118213143D01*
X102417524Y-118260762D01*
X102512762Y-118308381D01*
X102703239Y-118308381D01*
X102798477Y-118260762D01*
X102846096Y-118213143D01*
X102893715Y-118117905D01*
X102893715Y-117927429D01*
X102846096Y-117832190D01*
X102798477Y-117784571D01*
X102703239Y-117736952D01*
X71715334Y-118562381D02*
X71382000Y-118086190D01*
X71143905Y-118562381D02*
X71143905Y-117562381D01*
X71524858Y-117562381D01*
X71620096Y-117610000D01*
X71667715Y-117657619D01*
X71715334Y-117752857D01*
X71715334Y-117895714D01*
X71667715Y-117990952D01*
X71620096Y-118038571D01*
X71524858Y-118086190D01*
X71143905Y-118086190D01*
X72191524Y-118562381D02*
X72382000Y-118562381D01*
X72477239Y-118514762D01*
X72524858Y-118467143D01*
X72620096Y-118324286D01*
X72667715Y-118133810D01*
X72667715Y-117752857D01*
X72620096Y-117657619D01*
X72572477Y-117610000D01*
X72477239Y-117562381D01*
X72286762Y-117562381D01*
X72191524Y-117610000D01*
X72143905Y-117657619D01*
X72096286Y-117752857D01*
X72096286Y-117990952D01*
X72143905Y-118086190D01*
X72191524Y-118133810D01*
X72286762Y-118181429D01*
X72477239Y-118181429D01*
X72572477Y-118133810D01*
X72620096Y-118086190D01*
X72667715Y-117990952D01*
X95369143Y-118308381D02*
X95035809Y-117832190D01*
X94797714Y-118308381D02*
X94797714Y-117308381D01*
X95178667Y-117308381D01*
X95273905Y-117356000D01*
X95321524Y-117403619D01*
X95369143Y-117498857D01*
X95369143Y-117641714D01*
X95321524Y-117736952D01*
X95273905Y-117784571D01*
X95178667Y-117832190D01*
X94797714Y-117832190D01*
X96321524Y-118308381D02*
X95750095Y-118308381D01*
X96035809Y-118308381D02*
X96035809Y-117308381D01*
X95940571Y-117451238D01*
X95845333Y-117546476D01*
X95750095Y-117594095D01*
X96940571Y-117308381D02*
X97035810Y-117308381D01*
X97131048Y-117356000D01*
X97178667Y-117403619D01*
X97226286Y-117498857D01*
X97273905Y-117689333D01*
X97273905Y-117927429D01*
X97226286Y-118117905D01*
X97178667Y-118213143D01*
X97131048Y-118260762D01*
X97035810Y-118308381D01*
X96940571Y-118308381D01*
X96845333Y-118260762D01*
X96797714Y-118213143D01*
X96750095Y-118117905D01*
X96702476Y-117927429D01*
X96702476Y-117689333D01*
X96750095Y-117498857D01*
X96797714Y-117403619D01*
X96845333Y-117356000D01*
X96940571Y-117308381D01*
X65905143Y-133802381D02*
X65571809Y-133326190D01*
X65333714Y-133802381D02*
X65333714Y-132802381D01*
X65714667Y-132802381D01*
X65809905Y-132850000D01*
X65857524Y-132897619D01*
X65905143Y-132992857D01*
X65905143Y-133135714D01*
X65857524Y-133230952D01*
X65809905Y-133278571D01*
X65714667Y-133326190D01*
X65333714Y-133326190D01*
X66857524Y-133802381D02*
X66286095Y-133802381D01*
X66571809Y-133802381D02*
X66571809Y-132802381D01*
X66476571Y-132945238D01*
X66381333Y-133040476D01*
X66286095Y-133088095D01*
X67809905Y-133802381D02*
X67238476Y-133802381D01*
X67524190Y-133802381D02*
X67524190Y-132802381D01*
X67428952Y-132945238D01*
X67333714Y-133040476D01*
X67238476Y-133088095D01*
X65905143Y-136850381D02*
X65571809Y-136374190D01*
X65333714Y-136850381D02*
X65333714Y-135850381D01*
X65714667Y-135850381D01*
X65809905Y-135898000D01*
X65857524Y-135945619D01*
X65905143Y-136040857D01*
X65905143Y-136183714D01*
X65857524Y-136278952D01*
X65809905Y-136326571D01*
X65714667Y-136374190D01*
X65333714Y-136374190D01*
X66857524Y-136850381D02*
X66286095Y-136850381D01*
X66571809Y-136850381D02*
X66571809Y-135850381D01*
X66476571Y-135993238D01*
X66381333Y-136088476D01*
X66286095Y-136136095D01*
X67238476Y-135945619D02*
X67286095Y-135898000D01*
X67381333Y-135850381D01*
X67619429Y-135850381D01*
X67714667Y-135898000D01*
X67762286Y-135945619D01*
X67809905Y-136040857D01*
X67809905Y-136136095D01*
X67762286Y-136278952D01*
X67190857Y-136850381D01*
X67809905Y-136850381D01*
X83685143Y-128214381D02*
X83351809Y-127738190D01*
X83113714Y-128214381D02*
X83113714Y-127214381D01*
X83494667Y-127214381D01*
X83589905Y-127262000D01*
X83637524Y-127309619D01*
X83685143Y-127404857D01*
X83685143Y-127547714D01*
X83637524Y-127642952D01*
X83589905Y-127690571D01*
X83494667Y-127738190D01*
X83113714Y-127738190D01*
X84637524Y-128214381D02*
X84066095Y-128214381D01*
X84351809Y-128214381D02*
X84351809Y-127214381D01*
X84256571Y-127357238D01*
X84161333Y-127452476D01*
X84066095Y-127500095D01*
X84970857Y-127214381D02*
X85589905Y-127214381D01*
X85256571Y-127595333D01*
X85399429Y-127595333D01*
X85494667Y-127642952D01*
X85542286Y-127690571D01*
X85589905Y-127785810D01*
X85589905Y-128023905D01*
X85542286Y-128119143D01*
X85494667Y-128166762D01*
X85399429Y-128214381D01*
X85113714Y-128214381D01*
X85018476Y-128166762D01*
X84970857Y-128119143D01*
X83685143Y-129484381D02*
X83351809Y-129008190D01*
X83113714Y-129484381D02*
X83113714Y-128484381D01*
X83494667Y-128484381D01*
X83589905Y-128532000D01*
X83637524Y-128579619D01*
X83685143Y-128674857D01*
X83685143Y-128817714D01*
X83637524Y-128912952D01*
X83589905Y-128960571D01*
X83494667Y-129008190D01*
X83113714Y-129008190D01*
X84637524Y-129484381D02*
X84066095Y-129484381D01*
X84351809Y-129484381D02*
X84351809Y-128484381D01*
X84256571Y-128627238D01*
X84161333Y-128722476D01*
X84066095Y-128770095D01*
X85494667Y-128817714D02*
X85494667Y-129484381D01*
X85256571Y-128436762D02*
X85018476Y-129151048D01*
X85637524Y-129151048D01*
X61333143Y-128214381D02*
X60999809Y-127738190D01*
X60761714Y-128214381D02*
X60761714Y-127214381D01*
X61142667Y-127214381D01*
X61237905Y-127262000D01*
X61285524Y-127309619D01*
X61333143Y-127404857D01*
X61333143Y-127547714D01*
X61285524Y-127642952D01*
X61237905Y-127690571D01*
X61142667Y-127738190D01*
X60761714Y-127738190D01*
X62285524Y-128214381D02*
X61714095Y-128214381D01*
X61999809Y-128214381D02*
X61999809Y-127214381D01*
X61904571Y-127357238D01*
X61809333Y-127452476D01*
X61714095Y-127500095D01*
X63190286Y-127214381D02*
X62714095Y-127214381D01*
X62666476Y-127690571D01*
X62714095Y-127642952D01*
X62809333Y-127595333D01*
X63047429Y-127595333D01*
X63142667Y-127642952D01*
X63190286Y-127690571D01*
X63237905Y-127785810D01*
X63237905Y-128023905D01*
X63190286Y-128119143D01*
X63142667Y-128166762D01*
X63047429Y-128214381D01*
X62809333Y-128214381D01*
X62714095Y-128166762D01*
X62666476Y-128119143D01*
X83685143Y-126944381D02*
X83351809Y-126468190D01*
X83113714Y-126944381D02*
X83113714Y-125944381D01*
X83494667Y-125944381D01*
X83589905Y-125992000D01*
X83637524Y-126039619D01*
X83685143Y-126134857D01*
X83685143Y-126277714D01*
X83637524Y-126372952D01*
X83589905Y-126420571D01*
X83494667Y-126468190D01*
X83113714Y-126468190D01*
X84637524Y-126944381D02*
X84066095Y-126944381D01*
X84351809Y-126944381D02*
X84351809Y-125944381D01*
X84256571Y-126087238D01*
X84161333Y-126182476D01*
X84066095Y-126230095D01*
X85494667Y-125944381D02*
X85304190Y-125944381D01*
X85208952Y-125992000D01*
X85161333Y-126039619D01*
X85066095Y-126182476D01*
X85018476Y-126372952D01*
X85018476Y-126753905D01*
X85066095Y-126849143D01*
X85113714Y-126896762D01*
X85208952Y-126944381D01*
X85399429Y-126944381D01*
X85494667Y-126896762D01*
X85542286Y-126849143D01*
X85589905Y-126753905D01*
X85589905Y-126515810D01*
X85542286Y-126420571D01*
X85494667Y-126372952D01*
X85399429Y-126325333D01*
X85208952Y-126325333D01*
X85113714Y-126372952D01*
X85066095Y-126420571D01*
X85018476Y-126515810D01*
X65905143Y-99258381D02*
X65571809Y-98782190D01*
X65333714Y-99258381D02*
X65333714Y-98258381D01*
X65714667Y-98258381D01*
X65809905Y-98306000D01*
X65857524Y-98353619D01*
X65905143Y-98448857D01*
X65905143Y-98591714D01*
X65857524Y-98686952D01*
X65809905Y-98734571D01*
X65714667Y-98782190D01*
X65333714Y-98782190D01*
X66857524Y-99258381D02*
X66286095Y-99258381D01*
X66571809Y-99258381D02*
X66571809Y-98258381D01*
X66476571Y-98401238D01*
X66381333Y-98496476D01*
X66286095Y-98544095D01*
X67190857Y-98258381D02*
X67857524Y-98258381D01*
X67428952Y-99258381D01*
X88765143Y-99004381D02*
X88431809Y-98528190D01*
X88193714Y-99004381D02*
X88193714Y-98004381D01*
X88574667Y-98004381D01*
X88669905Y-98052000D01*
X88717524Y-98099619D01*
X88765143Y-98194857D01*
X88765143Y-98337714D01*
X88717524Y-98432952D01*
X88669905Y-98480571D01*
X88574667Y-98528190D01*
X88193714Y-98528190D01*
X89717524Y-99004381D02*
X89146095Y-99004381D01*
X89431809Y-99004381D02*
X89431809Y-98004381D01*
X89336571Y-98147238D01*
X89241333Y-98242476D01*
X89146095Y-98290095D01*
X90288952Y-98432952D02*
X90193714Y-98385333D01*
X90146095Y-98337714D01*
X90098476Y-98242476D01*
X90098476Y-98194857D01*
X90146095Y-98099619D01*
X90193714Y-98052000D01*
X90288952Y-98004381D01*
X90479429Y-98004381D01*
X90574667Y-98052000D01*
X90622286Y-98099619D01*
X90669905Y-98194857D01*
X90669905Y-98242476D01*
X90622286Y-98337714D01*
X90574667Y-98385333D01*
X90479429Y-98432952D01*
X90288952Y-98432952D01*
X90193714Y-98480571D01*
X90146095Y-98528190D01*
X90098476Y-98623429D01*
X90098476Y-98813905D01*
X90146095Y-98909143D01*
X90193714Y-98956762D01*
X90288952Y-99004381D01*
X90479429Y-99004381D01*
X90574667Y-98956762D01*
X90622286Y-98909143D01*
X90669905Y-98813905D01*
X90669905Y-98623429D01*
X90622286Y-98528190D01*
X90574667Y-98480571D01*
X90479429Y-98432952D01*
X68953143Y-99258381D02*
X68619809Y-98782190D01*
X68381714Y-99258381D02*
X68381714Y-98258381D01*
X68762667Y-98258381D01*
X68857905Y-98306000D01*
X68905524Y-98353619D01*
X68953143Y-98448857D01*
X68953143Y-98591714D01*
X68905524Y-98686952D01*
X68857905Y-98734571D01*
X68762667Y-98782190D01*
X68381714Y-98782190D01*
X69905524Y-99258381D02*
X69334095Y-99258381D01*
X69619809Y-99258381D02*
X69619809Y-98258381D01*
X69524571Y-98401238D01*
X69429333Y-98496476D01*
X69334095Y-98544095D01*
X70381714Y-99258381D02*
X70572190Y-99258381D01*
X70667429Y-99210762D01*
X70715048Y-99163143D01*
X70810286Y-99020286D01*
X70857905Y-98829810D01*
X70857905Y-98448857D01*
X70810286Y-98353619D01*
X70762667Y-98306000D01*
X70667429Y-98258381D01*
X70476952Y-98258381D01*
X70381714Y-98306000D01*
X70334095Y-98353619D01*
X70286476Y-98448857D01*
X70286476Y-98686952D01*
X70334095Y-98782190D01*
X70381714Y-98829810D01*
X70476952Y-98877429D01*
X70667429Y-98877429D01*
X70762667Y-98829810D01*
X70810286Y-98782190D01*
X70857905Y-98686952D01*
X91813143Y-99004381D02*
X91479809Y-98528190D01*
X91241714Y-99004381D02*
X91241714Y-98004381D01*
X91622667Y-98004381D01*
X91717905Y-98052000D01*
X91765524Y-98099619D01*
X91813143Y-98194857D01*
X91813143Y-98337714D01*
X91765524Y-98432952D01*
X91717905Y-98480571D01*
X91622667Y-98528190D01*
X91241714Y-98528190D01*
X92194095Y-98099619D02*
X92241714Y-98052000D01*
X92336952Y-98004381D01*
X92575048Y-98004381D01*
X92670286Y-98052000D01*
X92717905Y-98099619D01*
X92765524Y-98194857D01*
X92765524Y-98290095D01*
X92717905Y-98432952D01*
X92146476Y-99004381D01*
X92765524Y-99004381D01*
X93384571Y-98004381D02*
X93479810Y-98004381D01*
X93575048Y-98052000D01*
X93622667Y-98099619D01*
X93670286Y-98194857D01*
X93717905Y-98385333D01*
X93717905Y-98623429D01*
X93670286Y-98813905D01*
X93622667Y-98909143D01*
X93575048Y-98956762D01*
X93479810Y-99004381D01*
X93384571Y-99004381D01*
X93289333Y-98956762D01*
X93241714Y-98909143D01*
X93194095Y-98813905D01*
X93146476Y-98623429D01*
X93146476Y-98385333D01*
X93194095Y-98194857D01*
X93241714Y-98099619D01*
X93289333Y-98052000D01*
X93384571Y-98004381D01*
X75049143Y-99258381D02*
X74715809Y-98782190D01*
X74477714Y-99258381D02*
X74477714Y-98258381D01*
X74858667Y-98258381D01*
X74953905Y-98306000D01*
X75001524Y-98353619D01*
X75049143Y-98448857D01*
X75049143Y-98591714D01*
X75001524Y-98686952D01*
X74953905Y-98734571D01*
X74858667Y-98782190D01*
X74477714Y-98782190D01*
X75430095Y-98353619D02*
X75477714Y-98306000D01*
X75572952Y-98258381D01*
X75811048Y-98258381D01*
X75906286Y-98306000D01*
X75953905Y-98353619D01*
X76001524Y-98448857D01*
X76001524Y-98544095D01*
X75953905Y-98686952D01*
X75382476Y-99258381D01*
X76001524Y-99258381D01*
X76953905Y-99258381D02*
X76382476Y-99258381D01*
X76668190Y-99258381D02*
X76668190Y-98258381D01*
X76572952Y-98401238D01*
X76477714Y-98496476D01*
X76382476Y-98544095D01*
X98163143Y-99004381D02*
X97829809Y-98528190D01*
X97591714Y-99004381D02*
X97591714Y-98004381D01*
X97972667Y-98004381D01*
X98067905Y-98052000D01*
X98115524Y-98099619D01*
X98163143Y-98194857D01*
X98163143Y-98337714D01*
X98115524Y-98432952D01*
X98067905Y-98480571D01*
X97972667Y-98528190D01*
X97591714Y-98528190D01*
X98544095Y-98099619D02*
X98591714Y-98052000D01*
X98686952Y-98004381D01*
X98925048Y-98004381D01*
X99020286Y-98052000D01*
X99067905Y-98099619D01*
X99115524Y-98194857D01*
X99115524Y-98290095D01*
X99067905Y-98432952D01*
X98496476Y-99004381D01*
X99115524Y-99004381D01*
X99496476Y-98099619D02*
X99544095Y-98052000D01*
X99639333Y-98004381D01*
X99877429Y-98004381D01*
X99972667Y-98052000D01*
X100020286Y-98099619D01*
X100067905Y-98194857D01*
X100067905Y-98290095D01*
X100020286Y-98432952D01*
X99448857Y-99004381D01*
X100067905Y-99004381D01*
X78097143Y-99258381D02*
X77763809Y-98782190D01*
X77525714Y-99258381D02*
X77525714Y-98258381D01*
X77906667Y-98258381D01*
X78001905Y-98306000D01*
X78049524Y-98353619D01*
X78097143Y-98448857D01*
X78097143Y-98591714D01*
X78049524Y-98686952D01*
X78001905Y-98734571D01*
X77906667Y-98782190D01*
X77525714Y-98782190D01*
X78478095Y-98353619D02*
X78525714Y-98306000D01*
X78620952Y-98258381D01*
X78859048Y-98258381D01*
X78954286Y-98306000D01*
X79001905Y-98353619D01*
X79049524Y-98448857D01*
X79049524Y-98544095D01*
X79001905Y-98686952D01*
X78430476Y-99258381D01*
X79049524Y-99258381D01*
X79382857Y-98258381D02*
X80001905Y-98258381D01*
X79668571Y-98639333D01*
X79811429Y-98639333D01*
X79906667Y-98686952D01*
X79954286Y-98734571D01*
X80001905Y-98829810D01*
X80001905Y-99067905D01*
X79954286Y-99163143D01*
X79906667Y-99210762D01*
X79811429Y-99258381D01*
X79525714Y-99258381D01*
X79430476Y-99210762D01*
X79382857Y-99163143D01*
X100957143Y-99004381D02*
X100623809Y-98528190D01*
X100385714Y-99004381D02*
X100385714Y-98004381D01*
X100766667Y-98004381D01*
X100861905Y-98052000D01*
X100909524Y-98099619D01*
X100957143Y-98194857D01*
X100957143Y-98337714D01*
X100909524Y-98432952D01*
X100861905Y-98480571D01*
X100766667Y-98528190D01*
X100385714Y-98528190D01*
X101338095Y-98099619D02*
X101385714Y-98052000D01*
X101480952Y-98004381D01*
X101719048Y-98004381D01*
X101814286Y-98052000D01*
X101861905Y-98099619D01*
X101909524Y-98194857D01*
X101909524Y-98290095D01*
X101861905Y-98432952D01*
X101290476Y-99004381D01*
X101909524Y-99004381D01*
X102766667Y-98337714D02*
X102766667Y-99004381D01*
X102528571Y-97956762D02*
X102290476Y-98671048D01*
X102909524Y-98671048D01*
X72001143Y-99258381D02*
X71667809Y-98782190D01*
X71429714Y-99258381D02*
X71429714Y-98258381D01*
X71810667Y-98258381D01*
X71905905Y-98306000D01*
X71953524Y-98353619D01*
X72001143Y-98448857D01*
X72001143Y-98591714D01*
X71953524Y-98686952D01*
X71905905Y-98734571D01*
X71810667Y-98782190D01*
X71429714Y-98782190D01*
X72382095Y-98353619D02*
X72429714Y-98306000D01*
X72524952Y-98258381D01*
X72763048Y-98258381D01*
X72858286Y-98306000D01*
X72905905Y-98353619D01*
X72953524Y-98448857D01*
X72953524Y-98544095D01*
X72905905Y-98686952D01*
X72334476Y-99258381D01*
X72953524Y-99258381D01*
X73858286Y-98258381D02*
X73382095Y-98258381D01*
X73334476Y-98734571D01*
X73382095Y-98686952D01*
X73477333Y-98639333D01*
X73715429Y-98639333D01*
X73810667Y-98686952D01*
X73858286Y-98734571D01*
X73905905Y-98829810D01*
X73905905Y-99067905D01*
X73858286Y-99163143D01*
X73810667Y-99210762D01*
X73715429Y-99258381D01*
X73477333Y-99258381D01*
X73382095Y-99210762D01*
X73334476Y-99163143D01*
X94861143Y-99004381D02*
X94527809Y-98528190D01*
X94289714Y-99004381D02*
X94289714Y-98004381D01*
X94670667Y-98004381D01*
X94765905Y-98052000D01*
X94813524Y-98099619D01*
X94861143Y-98194857D01*
X94861143Y-98337714D01*
X94813524Y-98432952D01*
X94765905Y-98480571D01*
X94670667Y-98528190D01*
X94289714Y-98528190D01*
X95242095Y-98099619D02*
X95289714Y-98052000D01*
X95384952Y-98004381D01*
X95623048Y-98004381D01*
X95718286Y-98052000D01*
X95765905Y-98099619D01*
X95813524Y-98194857D01*
X95813524Y-98290095D01*
X95765905Y-98432952D01*
X95194476Y-99004381D01*
X95813524Y-99004381D01*
X96670667Y-98004381D02*
X96480190Y-98004381D01*
X96384952Y-98052000D01*
X96337333Y-98099619D01*
X96242095Y-98242476D01*
X96194476Y-98432952D01*
X96194476Y-98813905D01*
X96242095Y-98909143D01*
X96289714Y-98956762D01*
X96384952Y-99004381D01*
X96575429Y-99004381D01*
X96670667Y-98956762D01*
X96718286Y-98909143D01*
X96765905Y-98813905D01*
X96765905Y-98575810D01*
X96718286Y-98480571D01*
X96670667Y-98432952D01*
X96575429Y-98385333D01*
X96384952Y-98385333D01*
X96289714Y-98432952D01*
X96242095Y-98480571D01*
X96194476Y-98575810D01*
X80383143Y-118562381D02*
X80049809Y-118086190D01*
X79811714Y-118562381D02*
X79811714Y-117562381D01*
X80192667Y-117562381D01*
X80287905Y-117610000D01*
X80335524Y-117657619D01*
X80383143Y-117752857D01*
X80383143Y-117895714D01*
X80335524Y-117990952D01*
X80287905Y-118038571D01*
X80192667Y-118086190D01*
X79811714Y-118086190D01*
X80764095Y-117657619D02*
X80811714Y-117610000D01*
X80906952Y-117562381D01*
X81145048Y-117562381D01*
X81240286Y-117610000D01*
X81287905Y-117657619D01*
X81335524Y-117752857D01*
X81335524Y-117848095D01*
X81287905Y-117990952D01*
X80716476Y-118562381D01*
X81335524Y-118562381D01*
X81668857Y-117562381D02*
X82335524Y-117562381D01*
X81906952Y-118562381D01*
X61841143Y-112466381D02*
X61507809Y-111990190D01*
X61269714Y-112466381D02*
X61269714Y-111466381D01*
X61650667Y-111466381D01*
X61745905Y-111514000D01*
X61793524Y-111561619D01*
X61841143Y-111656857D01*
X61841143Y-111799714D01*
X61793524Y-111894952D01*
X61745905Y-111942571D01*
X61650667Y-111990190D01*
X61269714Y-111990190D01*
X62222095Y-111561619D02*
X62269714Y-111514000D01*
X62364952Y-111466381D01*
X62603048Y-111466381D01*
X62698286Y-111514000D01*
X62745905Y-111561619D01*
X62793524Y-111656857D01*
X62793524Y-111752095D01*
X62745905Y-111894952D01*
X62174476Y-112466381D01*
X62793524Y-112466381D01*
X63364952Y-111894952D02*
X63269714Y-111847333D01*
X63222095Y-111799714D01*
X63174476Y-111704476D01*
X63174476Y-111656857D01*
X63222095Y-111561619D01*
X63269714Y-111514000D01*
X63364952Y-111466381D01*
X63555429Y-111466381D01*
X63650667Y-111514000D01*
X63698286Y-111561619D01*
X63745905Y-111656857D01*
X63745905Y-111704476D01*
X63698286Y-111799714D01*
X63650667Y-111847333D01*
X63555429Y-111894952D01*
X63364952Y-111894952D01*
X63269714Y-111942571D01*
X63222095Y-111990190D01*
X63174476Y-112085429D01*
X63174476Y-112275905D01*
X63222095Y-112371143D01*
X63269714Y-112418762D01*
X63364952Y-112466381D01*
X63555429Y-112466381D01*
X63650667Y-112418762D01*
X63698286Y-112371143D01*
X63745905Y-112275905D01*
X63745905Y-112085429D01*
X63698286Y-111990190D01*
X63650667Y-111942571D01*
X63555429Y-111894952D01*
X84955143Y-122626381D02*
X84621809Y-122150190D01*
X84383714Y-122626381D02*
X84383714Y-121626381D01*
X84764667Y-121626381D01*
X84859905Y-121674000D01*
X84907524Y-121721619D01*
X84955143Y-121816857D01*
X84955143Y-121959714D01*
X84907524Y-122054952D01*
X84859905Y-122102571D01*
X84764667Y-122150190D01*
X84383714Y-122150190D01*
X85288476Y-121626381D02*
X85907524Y-121626381D01*
X85574190Y-122007333D01*
X85717048Y-122007333D01*
X85812286Y-122054952D01*
X85859905Y-122102571D01*
X85907524Y-122197810D01*
X85907524Y-122435905D01*
X85859905Y-122531143D01*
X85812286Y-122578762D01*
X85717048Y-122626381D01*
X85431333Y-122626381D01*
X85336095Y-122578762D01*
X85288476Y-122531143D01*
X86526571Y-121626381D02*
X86621810Y-121626381D01*
X86717048Y-121674000D01*
X86764667Y-121721619D01*
X86812286Y-121816857D01*
X86859905Y-122007333D01*
X86859905Y-122245429D01*
X86812286Y-122435905D01*
X86764667Y-122531143D01*
X86717048Y-122578762D01*
X86621810Y-122626381D01*
X86526571Y-122626381D01*
X86431333Y-122578762D01*
X86383714Y-122531143D01*
X86336095Y-122435905D01*
X86288476Y-122245429D01*
X86288476Y-122007333D01*
X86336095Y-121816857D01*
X86383714Y-121721619D01*
X86431333Y-121674000D01*
X86526571Y-121626381D01*
X61841143Y-115514381D02*
X61507809Y-115038190D01*
X61269714Y-115514381D02*
X61269714Y-114514381D01*
X61650667Y-114514381D01*
X61745905Y-114562000D01*
X61793524Y-114609619D01*
X61841143Y-114704857D01*
X61841143Y-114847714D01*
X61793524Y-114942952D01*
X61745905Y-114990571D01*
X61650667Y-115038190D01*
X61269714Y-115038190D01*
X62174476Y-114514381D02*
X62793524Y-114514381D01*
X62460190Y-114895333D01*
X62603048Y-114895333D01*
X62698286Y-114942952D01*
X62745905Y-114990571D01*
X62793524Y-115085810D01*
X62793524Y-115323905D01*
X62745905Y-115419143D01*
X62698286Y-115466762D01*
X62603048Y-115514381D01*
X62317333Y-115514381D01*
X62222095Y-115466762D01*
X62174476Y-115419143D01*
X63745905Y-115514381D02*
X63174476Y-115514381D01*
X63460190Y-115514381D02*
X63460190Y-114514381D01*
X63364952Y-114657238D01*
X63269714Y-114752476D01*
X63174476Y-114800095D01*
X89273143Y-115768381D02*
X88939809Y-115292190D01*
X88701714Y-115768381D02*
X88701714Y-114768381D01*
X89082667Y-114768381D01*
X89177905Y-114816000D01*
X89225524Y-114863619D01*
X89273143Y-114958857D01*
X89273143Y-115101714D01*
X89225524Y-115196952D01*
X89177905Y-115244571D01*
X89082667Y-115292190D01*
X88701714Y-115292190D01*
X89606476Y-114768381D02*
X90225524Y-114768381D01*
X89892190Y-115149333D01*
X90035048Y-115149333D01*
X90130286Y-115196952D01*
X90177905Y-115244571D01*
X90225524Y-115339810D01*
X90225524Y-115577905D01*
X90177905Y-115673143D01*
X90130286Y-115720762D01*
X90035048Y-115768381D01*
X89749333Y-115768381D01*
X89654095Y-115720762D01*
X89606476Y-115673143D01*
X90606476Y-114863619D02*
X90654095Y-114816000D01*
X90749333Y-114768381D01*
X90987429Y-114768381D01*
X91082667Y-114816000D01*
X91130286Y-114863619D01*
X91177905Y-114958857D01*
X91177905Y-115054095D01*
X91130286Y-115196952D01*
X90558857Y-115768381D01*
X91177905Y-115768381D01*
X95369143Y-73096381D02*
X95035809Y-72620190D01*
X94797714Y-73096381D02*
X94797714Y-72096381D01*
X95178667Y-72096381D01*
X95273905Y-72144000D01*
X95321524Y-72191619D01*
X95369143Y-72286857D01*
X95369143Y-72429714D01*
X95321524Y-72524952D01*
X95273905Y-72572571D01*
X95178667Y-72620190D01*
X94797714Y-72620190D01*
X95702476Y-72096381D02*
X96321524Y-72096381D01*
X95988190Y-72477333D01*
X96131048Y-72477333D01*
X96226286Y-72524952D01*
X96273905Y-72572571D01*
X96321524Y-72667810D01*
X96321524Y-72905905D01*
X96273905Y-73001143D01*
X96226286Y-73048762D01*
X96131048Y-73096381D01*
X95845333Y-73096381D01*
X95750095Y-73048762D01*
X95702476Y-73001143D01*
X96654857Y-72096381D02*
X97273905Y-72096381D01*
X96940571Y-72477333D01*
X97083429Y-72477333D01*
X97178667Y-72524952D01*
X97226286Y-72572571D01*
X97273905Y-72667810D01*
X97273905Y-72905905D01*
X97226286Y-73001143D01*
X97178667Y-73048762D01*
X97083429Y-73096381D01*
X96797714Y-73096381D01*
X96702476Y-73048762D01*
X96654857Y-73001143D01*
X67175143Y-96972381D02*
X66841809Y-96496190D01*
X66603714Y-96972381D02*
X66603714Y-95972381D01*
X66984667Y-95972381D01*
X67079905Y-96020000D01*
X67127524Y-96067619D01*
X67175143Y-96162857D01*
X67175143Y-96305714D01*
X67127524Y-96400952D01*
X67079905Y-96448571D01*
X66984667Y-96496190D01*
X66603714Y-96496190D01*
X67508476Y-95972381D02*
X68127524Y-95972381D01*
X67794190Y-96353333D01*
X67937048Y-96353333D01*
X68032286Y-96400952D01*
X68079905Y-96448571D01*
X68127524Y-96543810D01*
X68127524Y-96781905D01*
X68079905Y-96877143D01*
X68032286Y-96924762D01*
X67937048Y-96972381D01*
X67651333Y-96972381D01*
X67556095Y-96924762D01*
X67508476Y-96877143D01*
X68984667Y-96305714D02*
X68984667Y-96972381D01*
X68746571Y-95924762D02*
X68508476Y-96639048D01*
X69127524Y-96639048D01*
X63619143Y-96972381D02*
X63285809Y-96496190D01*
X63047714Y-96972381D02*
X63047714Y-95972381D01*
X63428667Y-95972381D01*
X63523905Y-96020000D01*
X63571524Y-96067619D01*
X63619143Y-96162857D01*
X63619143Y-96305714D01*
X63571524Y-96400952D01*
X63523905Y-96448571D01*
X63428667Y-96496190D01*
X63047714Y-96496190D01*
X63952476Y-95972381D02*
X64571524Y-95972381D01*
X64238190Y-96353333D01*
X64381048Y-96353333D01*
X64476286Y-96400952D01*
X64523905Y-96448571D01*
X64571524Y-96543810D01*
X64571524Y-96781905D01*
X64523905Y-96877143D01*
X64476286Y-96924762D01*
X64381048Y-96972381D01*
X64095333Y-96972381D01*
X64000095Y-96924762D01*
X63952476Y-96877143D01*
X65476286Y-95972381D02*
X65000095Y-95972381D01*
X64952476Y-96448571D01*
X65000095Y-96400952D01*
X65095333Y-96353333D01*
X65333429Y-96353333D01*
X65428667Y-96400952D01*
X65476286Y-96448571D01*
X65523905Y-96543810D01*
X65523905Y-96781905D01*
X65476286Y-96877143D01*
X65428667Y-96924762D01*
X65333429Y-96972381D01*
X65095333Y-96972381D01*
X65000095Y-96924762D01*
X64952476Y-96877143D01*
X78605143Y-72588381D02*
X78271809Y-72112190D01*
X78033714Y-72588381D02*
X78033714Y-71588381D01*
X78414667Y-71588381D01*
X78509905Y-71636000D01*
X78557524Y-71683619D01*
X78605143Y-71778857D01*
X78605143Y-71921714D01*
X78557524Y-72016952D01*
X78509905Y-72064571D01*
X78414667Y-72112190D01*
X78033714Y-72112190D01*
X78938476Y-71588381D02*
X79557524Y-71588381D01*
X79224190Y-71969333D01*
X79367048Y-71969333D01*
X79462286Y-72016952D01*
X79509905Y-72064571D01*
X79557524Y-72159810D01*
X79557524Y-72397905D01*
X79509905Y-72493143D01*
X79462286Y-72540762D01*
X79367048Y-72588381D01*
X79081333Y-72588381D01*
X78986095Y-72540762D01*
X78938476Y-72493143D01*
X80414667Y-71588381D02*
X80224190Y-71588381D01*
X80128952Y-71636000D01*
X80081333Y-71683619D01*
X79986095Y-71826476D01*
X79938476Y-72016952D01*
X79938476Y-72397905D01*
X79986095Y-72493143D01*
X80033714Y-72540762D01*
X80128952Y-72588381D01*
X80319429Y-72588381D01*
X80414667Y-72540762D01*
X80462286Y-72493143D01*
X80509905Y-72397905D01*
X80509905Y-72159810D01*
X80462286Y-72064571D01*
X80414667Y-72016952D01*
X80319429Y-71969333D01*
X80128952Y-71969333D01*
X80033714Y-72016952D01*
X79986095Y-72064571D01*
X79938476Y-72159810D01*
X92067143Y-73096381D02*
X91733809Y-72620190D01*
X91495714Y-73096381D02*
X91495714Y-72096381D01*
X91876667Y-72096381D01*
X91971905Y-72144000D01*
X92019524Y-72191619D01*
X92067143Y-72286857D01*
X92067143Y-72429714D01*
X92019524Y-72524952D01*
X91971905Y-72572571D01*
X91876667Y-72620190D01*
X91495714Y-72620190D01*
X92400476Y-72096381D02*
X93019524Y-72096381D01*
X92686190Y-72477333D01*
X92829048Y-72477333D01*
X92924286Y-72524952D01*
X92971905Y-72572571D01*
X93019524Y-72667810D01*
X93019524Y-72905905D01*
X92971905Y-73001143D01*
X92924286Y-73048762D01*
X92829048Y-73096381D01*
X92543333Y-73096381D01*
X92448095Y-73048762D01*
X92400476Y-73001143D01*
X93352857Y-72096381D02*
X94019524Y-72096381D01*
X93590952Y-73096381D01*
X75811143Y-97480381D02*
X75477809Y-97004190D01*
X75239714Y-97480381D02*
X75239714Y-96480381D01*
X75620667Y-96480381D01*
X75715905Y-96528000D01*
X75763524Y-96575619D01*
X75811143Y-96670857D01*
X75811143Y-96813714D01*
X75763524Y-96908952D01*
X75715905Y-96956571D01*
X75620667Y-97004190D01*
X75239714Y-97004190D01*
X76144476Y-96480381D02*
X76763524Y-96480381D01*
X76430190Y-96861333D01*
X76573048Y-96861333D01*
X76668286Y-96908952D01*
X76715905Y-96956571D01*
X76763524Y-97051810D01*
X76763524Y-97289905D01*
X76715905Y-97385143D01*
X76668286Y-97432762D01*
X76573048Y-97480381D01*
X76287333Y-97480381D01*
X76192095Y-97432762D01*
X76144476Y-97385143D01*
X77334952Y-96908952D02*
X77239714Y-96861333D01*
X77192095Y-96813714D01*
X77144476Y-96718476D01*
X77144476Y-96670857D01*
X77192095Y-96575619D01*
X77239714Y-96528000D01*
X77334952Y-96480381D01*
X77525429Y-96480381D01*
X77620667Y-96528000D01*
X77668286Y-96575619D01*
X77715905Y-96670857D01*
X77715905Y-96718476D01*
X77668286Y-96813714D01*
X77620667Y-96861333D01*
X77525429Y-96908952D01*
X77334952Y-96908952D01*
X77239714Y-96956571D01*
X77192095Y-97004190D01*
X77144476Y-97099429D01*
X77144476Y-97289905D01*
X77192095Y-97385143D01*
X77239714Y-97432762D01*
X77334952Y-97480381D01*
X77525429Y-97480381D01*
X77620667Y-97432762D01*
X77668286Y-97385143D01*
X77715905Y-97289905D01*
X77715905Y-97099429D01*
X77668286Y-97004190D01*
X77620667Y-96956571D01*
X77525429Y-96908952D01*
X83431143Y-97734381D02*
X83097809Y-97258190D01*
X82859714Y-97734381D02*
X82859714Y-96734381D01*
X83240667Y-96734381D01*
X83335905Y-96782000D01*
X83383524Y-96829619D01*
X83431143Y-96924857D01*
X83431143Y-97067714D01*
X83383524Y-97162952D01*
X83335905Y-97210571D01*
X83240667Y-97258190D01*
X82859714Y-97258190D01*
X83764476Y-96734381D02*
X84383524Y-96734381D01*
X84050190Y-97115333D01*
X84193048Y-97115333D01*
X84288286Y-97162952D01*
X84335905Y-97210571D01*
X84383524Y-97305810D01*
X84383524Y-97543905D01*
X84335905Y-97639143D01*
X84288286Y-97686762D01*
X84193048Y-97734381D01*
X83907333Y-97734381D01*
X83812095Y-97686762D01*
X83764476Y-97639143D01*
X84859714Y-97734381D02*
X85050190Y-97734381D01*
X85145429Y-97686762D01*
X85193048Y-97639143D01*
X85288286Y-97496286D01*
X85335905Y-97305810D01*
X85335905Y-96924857D01*
X85288286Y-96829619D01*
X85240667Y-96782000D01*
X85145429Y-96734381D01*
X84954952Y-96734381D01*
X84859714Y-96782000D01*
X84812095Y-96829619D01*
X84764476Y-96924857D01*
X84764476Y-97162952D01*
X84812095Y-97258190D01*
X84859714Y-97305810D01*
X84954952Y-97353429D01*
X85145429Y-97353429D01*
X85240667Y-97305810D01*
X85288286Y-97258190D01*
X85335905Y-97162952D01*
X58404762Y-138880952D02*
X58452381Y-138738095D01*
X58452381Y-138499999D01*
X58404762Y-138404761D01*
X58357143Y-138357142D01*
X58261905Y-138309523D01*
X58166667Y-138309523D01*
X58071429Y-138357142D01*
X58023810Y-138404761D01*
X57976190Y-138499999D01*
X57928571Y-138690476D01*
X57880952Y-138785714D01*
X57833333Y-138833333D01*
X57738095Y-138880952D01*
X57642857Y-138880952D01*
X57547619Y-138833333D01*
X57500000Y-138785714D01*
X57452381Y-138690476D01*
X57452381Y-138452380D01*
X57500000Y-138309523D01*
X58452381Y-137880952D02*
X57452381Y-137880952D01*
X57928571Y-137880952D02*
X57928571Y-137309523D01*
X58452381Y-137309523D02*
X57452381Y-137309523D01*
X58452381Y-136833333D02*
X57452381Y-136833333D01*
X57928571Y-136357143D02*
X57928571Y-136023809D01*
X58452381Y-135880952D02*
X58452381Y-136357143D01*
X57452381Y-136357143D01*
X57452381Y-135880952D01*
X58452381Y-134976190D02*
X58452381Y-135452381D01*
X57452381Y-135452381D01*
X58452381Y-134642857D02*
X57452381Y-134642857D01*
X57452381Y-134404762D01*
X57500000Y-134261904D01*
X57595238Y-134166666D01*
X57690476Y-134119047D01*
X57880952Y-134071428D01*
X58023810Y-134071428D01*
X58214286Y-134119047D01*
X58309524Y-134166666D01*
X58404762Y-134261904D01*
X58452381Y-134404762D01*
X58452381Y-134642857D01*
X58452381Y-133119047D02*
X58452381Y-133690476D01*
X58452381Y-133404762D02*
X57452381Y-133404762D01*
X57595238Y-133500000D01*
X57690476Y-133595238D01*
X57738095Y-133690476D01*
X75946095Y-130770381D02*
X75946095Y-131579905D01*
X75993714Y-131675143D01*
X76041333Y-131722762D01*
X76136571Y-131770381D01*
X76327048Y-131770381D01*
X76422286Y-131722762D01*
X76469905Y-131675143D01*
X76517524Y-131579905D01*
X76517524Y-130770381D01*
X77517524Y-131770381D02*
X76946095Y-131770381D01*
X77231809Y-131770381D02*
X77231809Y-130770381D01*
X77136571Y-130913238D01*
X77041333Y-131008476D01*
X76946095Y-131056095D01*
X97028095Y-130770381D02*
X97028095Y-131579905D01*
X97075714Y-131675143D01*
X97123333Y-131722762D01*
X97218571Y-131770381D01*
X97409048Y-131770381D01*
X97504286Y-131722762D01*
X97551905Y-131675143D01*
X97599524Y-131579905D01*
X97599524Y-130770381D01*
X98028095Y-130865619D02*
X98075714Y-130818000D01*
X98170952Y-130770381D01*
X98409048Y-130770381D01*
X98504286Y-130818000D01*
X98551905Y-130865619D01*
X98599524Y-130960857D01*
X98599524Y-131056095D01*
X98551905Y-131198952D01*
X97980476Y-131770381D01*
X98599524Y-131770381D01*
X75692095Y-110704381D02*
X75692095Y-111513905D01*
X75739714Y-111609143D01*
X75787333Y-111656762D01*
X75882571Y-111704381D01*
X76073048Y-111704381D01*
X76168286Y-111656762D01*
X76215905Y-111609143D01*
X76263524Y-111513905D01*
X76263524Y-110704381D01*
X76644476Y-110704381D02*
X77263524Y-110704381D01*
X76930190Y-111085333D01*
X77073048Y-111085333D01*
X77168286Y-111132952D01*
X77215905Y-111180571D01*
X77263524Y-111275810D01*
X77263524Y-111513905D01*
X77215905Y-111609143D01*
X77168286Y-111656762D01*
X77073048Y-111704381D01*
X76787333Y-111704381D01*
X76692095Y-111656762D01*
X76644476Y-111609143D01*
X97028095Y-110704381D02*
X97028095Y-111513905D01*
X97075714Y-111609143D01*
X97123333Y-111656762D01*
X97218571Y-111704381D01*
X97409048Y-111704381D01*
X97504286Y-111656762D01*
X97551905Y-111609143D01*
X97599524Y-111513905D01*
X97599524Y-110704381D01*
X98504286Y-111037714D02*
X98504286Y-111704381D01*
X98266190Y-110656762D02*
X98028095Y-111371048D01*
X98647143Y-111371048D01*
X72263095Y-83653381D02*
X72263095Y-84462905D01*
X72310714Y-84558143D01*
X72358333Y-84605762D01*
X72453571Y-84653381D01*
X72644048Y-84653381D01*
X72739286Y-84605762D01*
X72786905Y-84558143D01*
X72834524Y-84462905D01*
X72834524Y-83653381D01*
X73786905Y-83653381D02*
X73310714Y-83653381D01*
X73263095Y-84129571D01*
X73310714Y-84081952D01*
X73405952Y-84034333D01*
X73644048Y-84034333D01*
X73739286Y-84081952D01*
X73786905Y-84129571D01*
X73834524Y-84224810D01*
X73834524Y-84462905D01*
X73786905Y-84558143D01*
X73739286Y-84605762D01*
X73644048Y-84653381D01*
X73405952Y-84653381D01*
X73310714Y-84605762D01*
X73263095Y-84558143D01*
X103401905Y-79446381D02*
X103401905Y-78446381D01*
X103640000Y-78446381D01*
X103782858Y-78494000D01*
X103878096Y-78589238D01*
X103925715Y-78684476D01*
X103973334Y-78874952D01*
X103973334Y-79017810D01*
X103925715Y-79208286D01*
X103878096Y-79303524D01*
X103782858Y-79398762D01*
X103640000Y-79446381D01*
X103401905Y-79446381D01*
X104925715Y-79446381D02*
X104354286Y-79446381D01*
X104640000Y-79446381D02*
X104640000Y-78446381D01*
X104544762Y-78589238D01*
X104449524Y-78684476D01*
X104354286Y-78732095D01*
X64674762Y-125515619D02*
X64579524Y-125468000D01*
X64484286Y-125372762D01*
X64341429Y-125229905D01*
X64246190Y-125182286D01*
X64150952Y-125182286D01*
X64198571Y-125420381D02*
X64103333Y-125372762D01*
X64008095Y-125277524D01*
X63960476Y-125087048D01*
X63960476Y-124753714D01*
X64008095Y-124563238D01*
X64103333Y-124468000D01*
X64198571Y-124420381D01*
X64389048Y-124420381D01*
X64484286Y-124468000D01*
X64579524Y-124563238D01*
X64627143Y-124753714D01*
X64627143Y-125087048D01*
X64579524Y-125277524D01*
X64484286Y-125372762D01*
X64389048Y-125420381D01*
X64198571Y-125420381D01*
X65579524Y-125420381D02*
X65008095Y-125420381D01*
X65293809Y-125420381D02*
X65293809Y-124420381D01*
X65198571Y-124563238D01*
X65103333Y-124658476D01*
X65008095Y-124706095D01*
X86010762Y-125261619D02*
X85915524Y-125214000D01*
X85820286Y-125118762D01*
X85677429Y-124975905D01*
X85582190Y-124928286D01*
X85486952Y-124928286D01*
X85534571Y-125166381D02*
X85439333Y-125118762D01*
X85344095Y-125023524D01*
X85296476Y-124833048D01*
X85296476Y-124499714D01*
X85344095Y-124309238D01*
X85439333Y-124214000D01*
X85534571Y-124166381D01*
X85725048Y-124166381D01*
X85820286Y-124214000D01*
X85915524Y-124309238D01*
X85963143Y-124499714D01*
X85963143Y-124833048D01*
X85915524Y-125023524D01*
X85820286Y-125118762D01*
X85725048Y-125166381D01*
X85534571Y-125166381D01*
X86344095Y-124261619D02*
X86391714Y-124214000D01*
X86486952Y-124166381D01*
X86725048Y-124166381D01*
X86820286Y-124214000D01*
X86867905Y-124261619D01*
X86915524Y-124356857D01*
X86915524Y-124452095D01*
X86867905Y-124594952D01*
X86296476Y-125166381D01*
X86915524Y-125166381D01*
X62642762Y-108243619D02*
X62547524Y-108196000D01*
X62452286Y-108100762D01*
X62309429Y-107957905D01*
X62214190Y-107910286D01*
X62118952Y-107910286D01*
X62166571Y-108148381D02*
X62071333Y-108100762D01*
X61976095Y-108005524D01*
X61928476Y-107815048D01*
X61928476Y-107481714D01*
X61976095Y-107291238D01*
X62071333Y-107196000D01*
X62166571Y-107148381D01*
X62357048Y-107148381D01*
X62452286Y-107196000D01*
X62547524Y-107291238D01*
X62595143Y-107481714D01*
X62595143Y-107815048D01*
X62547524Y-108005524D01*
X62452286Y-108100762D01*
X62357048Y-108148381D01*
X62166571Y-108148381D01*
X62928476Y-107148381D02*
X63547524Y-107148381D01*
X63214190Y-107529333D01*
X63357048Y-107529333D01*
X63452286Y-107576952D01*
X63499905Y-107624571D01*
X63547524Y-107719810D01*
X63547524Y-107957905D01*
X63499905Y-108053143D01*
X63452286Y-108100762D01*
X63357048Y-108148381D01*
X63071333Y-108148381D01*
X62976095Y-108100762D01*
X62928476Y-108053143D01*
X86264762Y-106465619D02*
X86169524Y-106418000D01*
X86074286Y-106322762D01*
X85931429Y-106179905D01*
X85836190Y-106132286D01*
X85740952Y-106132286D01*
X85788571Y-106370381D02*
X85693333Y-106322762D01*
X85598095Y-106227524D01*
X85550476Y-106037048D01*
X85550476Y-105703714D01*
X85598095Y-105513238D01*
X85693333Y-105418000D01*
X85788571Y-105370381D01*
X85979048Y-105370381D01*
X86074286Y-105418000D01*
X86169524Y-105513238D01*
X86217143Y-105703714D01*
X86217143Y-106037048D01*
X86169524Y-106227524D01*
X86074286Y-106322762D01*
X85979048Y-106370381D01*
X85788571Y-106370381D01*
X87074286Y-105703714D02*
X87074286Y-106370381D01*
X86836190Y-105322762D02*
X86598095Y-106037048D01*
X87217143Y-106037048D01*
X79716381Y-138509333D02*
X80430667Y-138509333D01*
X80573524Y-138556953D01*
X80668762Y-138652191D01*
X80716381Y-138795048D01*
X80716381Y-138890286D01*
X80716381Y-137509333D02*
X80716381Y-138080762D01*
X80716381Y-137795048D02*
X79716381Y-137795048D01*
X79859238Y-137890286D01*
X79954476Y-137985524D01*
X80002095Y-138080762D01*
X101520667Y-137628381D02*
X101520667Y-138342667D01*
X101473047Y-138485524D01*
X101377809Y-138580762D01*
X101234952Y-138628381D01*
X101139714Y-138628381D01*
X101949238Y-137723619D02*
X101996857Y-137676000D01*
X102092095Y-137628381D01*
X102330191Y-137628381D01*
X102425429Y-137676000D01*
X102473048Y-137723619D01*
X102520667Y-137818857D01*
X102520667Y-137914095D01*
X102473048Y-138056952D01*
X101901619Y-138628381D01*
X102520667Y-138628381D01*
X59102667Y-119594381D02*
X59102667Y-120308667D01*
X59055047Y-120451524D01*
X58959809Y-120546762D01*
X58816952Y-120594381D01*
X58721714Y-120594381D01*
X59483619Y-119594381D02*
X60102667Y-119594381D01*
X59769333Y-119975333D01*
X59912191Y-119975333D01*
X60007429Y-120022952D01*
X60055048Y-120070571D01*
X60102667Y-120165810D01*
X60102667Y-120403905D01*
X60055048Y-120499143D01*
X60007429Y-120546762D01*
X59912191Y-120594381D01*
X59626476Y-120594381D01*
X59531238Y-120546762D01*
X59483619Y-120499143D01*
X104481381Y-119967333D02*
X105195667Y-119967333D01*
X105338524Y-120014953D01*
X105433762Y-120110191D01*
X105481381Y-120253048D01*
X105481381Y-120348286D01*
X104814714Y-119062571D02*
X105481381Y-119062571D01*
X104433762Y-119300667D02*
X105148048Y-119538762D01*
X105148048Y-118919714D01*
M02*
