G04 #@! TF.FileFunction,Copper,L2,Bot,Signal*
%FSLAX46Y46*%
G04 Gerber Fmt 4.6, Leading zero omitted, Abs format (unit mm)*
G04 Created by KiCad (PCBNEW 4.0.6) date 10/27/17 08:06:12*
%MOMM*%
%LPD*%
G01*
G04 APERTURE LIST*
%ADD10C,0.100000*%
%ADD11C,1.501140*%
%ADD12C,1.998980*%
%ADD13O,2.540000X1.524000*%
%ADD14C,3.937000*%
%ADD15O,1.501140X2.199640*%
%ADD16C,1.750060*%
%ADD17R,1.524000X2.199640*%
%ADD18O,1.524000X2.199640*%
%ADD19R,2.199640X1.524000*%
%ADD20O,2.199640X1.524000*%
%ADD21C,0.250000*%
%ADD22C,0.254000*%
G04 APERTURE END LIST*
D10*
D11*
X84836000Y-135890000D03*
X84836000Y-130810000D03*
X105918000Y-135890000D03*
X105918000Y-130810000D03*
X84328000Y-108458000D03*
X84328000Y-113538000D03*
X105664000Y-115062000D03*
X105664000Y-109982000D03*
X88773000Y-87757000D03*
X88773000Y-82677000D03*
D12*
X83820000Y-77470000D03*
X83820000Y-74930000D03*
X88900000Y-77470000D03*
X88900000Y-74930000D03*
X65786000Y-120396000D03*
X65786000Y-122936000D03*
X89916000Y-120142000D03*
X89916000Y-122682000D03*
X68834000Y-120396000D03*
X68834000Y-122936000D03*
X92964000Y-120142000D03*
X92964000Y-122682000D03*
X74930000Y-120396000D03*
X74930000Y-122936000D03*
X99060000Y-120142000D03*
X99060000Y-122682000D03*
X77978000Y-120396000D03*
X77978000Y-122936000D03*
X102108000Y-120142000D03*
X102108000Y-122682000D03*
X71882000Y-120396000D03*
X71882000Y-122936000D03*
X96012000Y-120142000D03*
X96012000Y-122682000D03*
X60960000Y-133350000D03*
X63500000Y-133350000D03*
X60960000Y-136398000D03*
X63500000Y-136398000D03*
X87630000Y-134874000D03*
X90170000Y-134874000D03*
X87630000Y-137922000D03*
X90170000Y-137922000D03*
X60960000Y-130302000D03*
X63500000Y-130302000D03*
X87630000Y-131826000D03*
X90170000Y-131826000D03*
X66548000Y-100838000D03*
X66548000Y-103378000D03*
X89408000Y-100838000D03*
X89408000Y-103378000D03*
X69596000Y-100838000D03*
X69596000Y-103378000D03*
X92456000Y-100838000D03*
X92456000Y-103378000D03*
X75692000Y-100838000D03*
X75692000Y-103378000D03*
X98552000Y-100838000D03*
X98552000Y-103378000D03*
X78740000Y-100838000D03*
X78740000Y-103378000D03*
X101600000Y-100838000D03*
X101600000Y-103378000D03*
X72644000Y-100838000D03*
X72644000Y-103378000D03*
X95504000Y-100838000D03*
X95504000Y-103378000D03*
X81026000Y-120396000D03*
X81026000Y-122936000D03*
X65532000Y-112014000D03*
X68072000Y-112014000D03*
X84328000Y-116586000D03*
X86868000Y-116586000D03*
X84328000Y-119634000D03*
X86868000Y-119634000D03*
X65532000Y-115062000D03*
X68072000Y-115062000D03*
X87376000Y-113284000D03*
X89916000Y-113284000D03*
X96012000Y-74930000D03*
X96012000Y-77470000D03*
X67564000Y-91694000D03*
X67564000Y-94234000D03*
X64262000Y-91694000D03*
X64262000Y-94234000D03*
X79121000Y-76327000D03*
X79121000Y-73787000D03*
X92710000Y-74930000D03*
X92710000Y-77470000D03*
X76454000Y-92456000D03*
X76454000Y-94996000D03*
X84074000Y-92456000D03*
X84074000Y-94996000D03*
D13*
X107460000Y-76500000D03*
X107460000Y-79040000D03*
X107460000Y-81580000D03*
X107460000Y-89200000D03*
X107460000Y-86660000D03*
X107460000Y-84120000D03*
X107460000Y-94280000D03*
X107460000Y-96820000D03*
X107460000Y-99360000D03*
X107460000Y-104440000D03*
X107460000Y-106980000D03*
X59200000Y-76500000D03*
X59200000Y-79040000D03*
X59200000Y-81580000D03*
X59200000Y-84120000D03*
X59200000Y-86660000D03*
X59200000Y-89200000D03*
X59200000Y-91740000D03*
X59200000Y-94280000D03*
X59200000Y-98344000D03*
X59200000Y-100884000D03*
X59200000Y-103424000D03*
X59200000Y-105964000D03*
X59200000Y-108504000D03*
X59200000Y-111044000D03*
X59200000Y-113584000D03*
X59200000Y-116124000D03*
X107460000Y-101900000D03*
D14*
X102380000Y-73960000D03*
X74440000Y-73960000D03*
X59200000Y-124760000D03*
X107460000Y-126030000D03*
D15*
X80518000Y-127508000D03*
X77978000Y-127508000D03*
X75438000Y-127508000D03*
X72898000Y-127508000D03*
X72898000Y-135128000D03*
X75438000Y-135128000D03*
X77978000Y-135128000D03*
X80518000Y-135128000D03*
X101600000Y-127508000D03*
X99060000Y-127508000D03*
X96520000Y-127508000D03*
X93980000Y-127508000D03*
X93980000Y-135128000D03*
X96520000Y-135128000D03*
X99060000Y-135128000D03*
X101600000Y-135128000D03*
X80264000Y-107442000D03*
X77724000Y-107442000D03*
X75184000Y-107442000D03*
X72644000Y-107442000D03*
X72644000Y-115062000D03*
X75184000Y-115062000D03*
X77724000Y-115062000D03*
X80264000Y-115062000D03*
X101600000Y-107442000D03*
X99060000Y-107442000D03*
X96520000Y-107442000D03*
X93980000Y-107442000D03*
X93980000Y-115062000D03*
X96520000Y-115062000D03*
X99060000Y-115062000D03*
X101600000Y-115062000D03*
X82042000Y-80518000D03*
X79502000Y-80518000D03*
X76962000Y-80518000D03*
X74422000Y-80518000D03*
X71882000Y-80518000D03*
X69342000Y-80518000D03*
X66802000Y-80518000D03*
X64262000Y-80518000D03*
X64262000Y-88138000D03*
X66802000Y-88138000D03*
X69342000Y-88138000D03*
X71882000Y-88138000D03*
X74422000Y-88138000D03*
X76962000Y-88138000D03*
X79502000Y-88138000D03*
X82042000Y-88138000D03*
D12*
X100584000Y-80264000D03*
X100584000Y-77724000D03*
D16*
X68453000Y-125857000D03*
X65913000Y-127762000D03*
X68453000Y-129667000D03*
X89535000Y-125349000D03*
X86995000Y-127254000D03*
X89535000Y-129159000D03*
X65151000Y-106553000D03*
X67056000Y-109093000D03*
X68961000Y-106553000D03*
X89789000Y-106807000D03*
X87249000Y-108712000D03*
X89789000Y-110617000D03*
D17*
X75438000Y-138176000D03*
D18*
X77978000Y-138176000D03*
D17*
X96520000Y-138176000D03*
D18*
X99060000Y-138176000D03*
D19*
X62230000Y-121412000D03*
D20*
X62230000Y-118872000D03*
D19*
X107188000Y-120904000D03*
D20*
X107188000Y-118364000D03*
D21*
X96012000Y-122682000D02*
X96012000Y-124206000D01*
X101600000Y-132588000D02*
X101600000Y-135128000D01*
X97790000Y-128778000D02*
X101600000Y-132588000D01*
X97790000Y-125984000D02*
X97790000Y-128778000D01*
X96012000Y-124206000D02*
X97790000Y-125984000D01*
X87630000Y-131826000D02*
X86360000Y-131826000D01*
X84836000Y-133350000D02*
X84836000Y-135890000D01*
X86360000Y-131826000D02*
X84836000Y-133350000D01*
X84836000Y-135890000D02*
X83312000Y-135890000D01*
X82550000Y-135128000D02*
X80518000Y-135128000D01*
X83312000Y-135890000D02*
X82550000Y-135128000D01*
X96012000Y-122682000D02*
X96520000Y-122682000D01*
X96520000Y-122682000D02*
X99060000Y-120142000D01*
X80264000Y-115062000D02*
X80264000Y-116840000D01*
X80264000Y-116840000D02*
X79248000Y-117856000D01*
X79248000Y-117856000D02*
X77470000Y-117856000D01*
X77470000Y-117856000D02*
X74930000Y-120396000D01*
X74930000Y-120396000D02*
X74676000Y-120396000D01*
X74676000Y-120396000D02*
X72136000Y-122936000D01*
X72136000Y-122936000D02*
X71882000Y-122936000D01*
X65532000Y-115062000D02*
X65532000Y-116586000D01*
X70358000Y-122174000D02*
X71120000Y-122936000D01*
X70358000Y-118618000D02*
X70358000Y-122174000D01*
X69088000Y-117348000D02*
X70358000Y-118618000D01*
X66294000Y-117348000D02*
X69088000Y-117348000D01*
X65532000Y-116586000D02*
X66294000Y-117348000D01*
X71120000Y-122936000D02*
X71882000Y-122936000D01*
X87376000Y-113284000D02*
X87376000Y-112776000D01*
X87376000Y-112776000D02*
X84328000Y-109728000D01*
X84328000Y-109728000D02*
X84328000Y-108458000D01*
X84074000Y-92456000D02*
X85090000Y-92456000D01*
X85090000Y-92456000D02*
X86614000Y-93980000D01*
X86614000Y-93980000D02*
X86614000Y-102870000D01*
X86614000Y-102870000D02*
X84328000Y-105156000D01*
X84328000Y-105156000D02*
X84328000Y-108458000D01*
X107460000Y-101900000D02*
X105710000Y-101900000D01*
X100584000Y-98806000D02*
X98552000Y-100838000D01*
X102616000Y-98806000D02*
X100584000Y-98806000D01*
X103886000Y-100076000D02*
X102616000Y-98806000D01*
X105710000Y-101900000D02*
X103886000Y-100076000D01*
X98552000Y-100838000D02*
X98044000Y-100838000D01*
X98044000Y-100838000D02*
X95504000Y-103378000D01*
X88773000Y-87757000D02*
X85979000Y-87757000D01*
X85598000Y-88138000D02*
X82042000Y-88138000D01*
X85979000Y-87757000D02*
X85598000Y-88138000D01*
X82042000Y-88138000D02*
X82042000Y-90424000D01*
X82042000Y-90424000D02*
X84074000Y-92456000D01*
X72644000Y-103378000D02*
X73152000Y-103378000D01*
X73152000Y-103378000D02*
X75692000Y-100838000D01*
X103632000Y-132334000D02*
X103632000Y-135890000D01*
X105156000Y-130810000D02*
X103632000Y-132334000D01*
X105918000Y-130810000D02*
X105156000Y-130810000D01*
X93980000Y-138430000D02*
X93980000Y-135128000D01*
X95250000Y-139700000D02*
X93980000Y-138430000D01*
X99822000Y-139700000D02*
X95250000Y-139700000D01*
X103632000Y-135890000D02*
X99822000Y-139700000D01*
X89535000Y-125349000D02*
X89281000Y-125349000D01*
X89281000Y-125349000D02*
X86868000Y-122936000D01*
X86868000Y-122936000D02*
X86868000Y-119634000D01*
X84836000Y-130810000D02*
X85852000Y-130810000D01*
X89535000Y-127127000D02*
X89535000Y-125349000D01*
X85852000Y-130810000D02*
X89535000Y-127127000D01*
X59200000Y-113584000D02*
X60498000Y-113584000D01*
X67310000Y-124714000D02*
X68453000Y-125857000D01*
X67310000Y-119126000D02*
X67310000Y-124714000D01*
X66548000Y-118364000D02*
X67310000Y-119126000D01*
X65278000Y-118364000D02*
X66548000Y-118364000D01*
X60498000Y-113584000D02*
X65278000Y-118364000D01*
X72644000Y-115062000D02*
X72644000Y-116840000D01*
X86868000Y-120650000D02*
X86868000Y-119634000D01*
X85852000Y-121666000D02*
X86868000Y-120650000D01*
X83820000Y-121666000D02*
X85852000Y-121666000D01*
X82550000Y-120396000D02*
X83820000Y-121666000D01*
X82550000Y-118110000D02*
X82550000Y-120396000D01*
X81788000Y-117348000D02*
X82550000Y-118110000D01*
X81788000Y-114046000D02*
X81788000Y-117348000D01*
X81026000Y-113284000D02*
X81788000Y-114046000D01*
X79502000Y-113284000D02*
X81026000Y-113284000D01*
X78994000Y-113792000D02*
X79502000Y-113284000D01*
X78994000Y-116078000D02*
X78994000Y-113792000D01*
X77978000Y-117094000D02*
X78994000Y-116078000D01*
X72898000Y-117094000D02*
X77978000Y-117094000D01*
X72644000Y-116840000D02*
X72898000Y-117094000D01*
X93980000Y-115062000D02*
X91948000Y-115062000D01*
X91948000Y-115062000D02*
X87376000Y-119634000D01*
X59200000Y-113584000D02*
X60406000Y-113584000D01*
X60406000Y-113584000D02*
X65151000Y-108839000D01*
X65151000Y-108839000D02*
X65151000Y-106553000D01*
X88773000Y-82677000D02*
X92329000Y-82677000D01*
X96012000Y-78994000D02*
X96012000Y-77470000D01*
X92329000Y-82677000D02*
X96012000Y-78994000D01*
X107460000Y-96820000D02*
X107460000Y-99360000D01*
X107460000Y-99360000D02*
X109266000Y-99360000D01*
X109266000Y-99360000D02*
X109982000Y-100076000D01*
X109982000Y-100076000D02*
X109982000Y-107950000D01*
X109982000Y-107950000D02*
X107950000Y-109982000D01*
X107950000Y-109982000D02*
X105664000Y-109982000D01*
X100584000Y-77724000D02*
X100584000Y-77216000D01*
X100584000Y-77216000D02*
X98298000Y-74930000D01*
X98298000Y-74930000D02*
X96012000Y-74930000D01*
X83820000Y-77470000D02*
X86106000Y-77470000D01*
X90678000Y-79502000D02*
X92710000Y-77470000D01*
X88138000Y-79502000D02*
X90678000Y-79502000D01*
X86106000Y-77470000D02*
X88138000Y-79502000D01*
X83820000Y-74930000D02*
X82042000Y-74930000D01*
X80899000Y-73787000D02*
X79121000Y-73787000D01*
X82042000Y-74930000D02*
X80899000Y-73787000D01*
X59200000Y-76500000D02*
X67772000Y-76500000D01*
X76708000Y-71374000D02*
X79121000Y-73787000D01*
X72898000Y-71374000D02*
X76708000Y-71374000D01*
X67772000Y-76500000D02*
X72898000Y-71374000D01*
X74422000Y-88138000D02*
X74422000Y-87630000D01*
X74422000Y-87630000D02*
X76454000Y-85598000D01*
X92456000Y-71374000D02*
X88900000Y-74930000D01*
X104648000Y-71374000D02*
X92456000Y-71374000D01*
X109728000Y-76454000D02*
X104648000Y-71374000D01*
X109728000Y-89408000D02*
X109728000Y-76454000D01*
X108204000Y-90932000D02*
X109728000Y-89408000D01*
X96266000Y-90932000D02*
X108204000Y-90932000D01*
X90932000Y-85598000D02*
X96266000Y-90932000D01*
X76454000Y-85598000D02*
X90932000Y-85598000D01*
X65913000Y-127762000D02*
X65913000Y-126619000D01*
X64008000Y-122174000D02*
X65786000Y-120396000D01*
X64008000Y-124714000D02*
X64008000Y-122174000D01*
X65913000Y-126619000D02*
X64008000Y-124714000D01*
X89916000Y-122682000D02*
X90424000Y-122682000D01*
X90424000Y-122682000D02*
X92964000Y-120142000D01*
X92964000Y-122682000D02*
X93472000Y-122682000D01*
X93472000Y-122682000D02*
X96012000Y-120142000D01*
X80518000Y-127508000D02*
X80518000Y-125984000D01*
X80518000Y-125984000D02*
X77978000Y-123444000D01*
X77978000Y-123444000D02*
X77978000Y-122936000D01*
X105918000Y-112776000D02*
X93218000Y-112776000D01*
X109220000Y-116078000D02*
X105918000Y-112776000D01*
X109220000Y-121666000D02*
X109220000Y-116078000D01*
X108458000Y-122428000D02*
X109220000Y-121666000D01*
X105664000Y-122428000D02*
X108458000Y-122428000D01*
X103378000Y-120142000D02*
X105664000Y-122428000D01*
X102108000Y-120142000D02*
X103378000Y-120142000D01*
X74422000Y-79502000D02*
X72136000Y-77216000D01*
X79756000Y-96774000D02*
X82550000Y-99568000D01*
X82550000Y-99568000D02*
X82550000Y-114046000D01*
X82550000Y-114046000D02*
X83312000Y-114808000D01*
X83312000Y-114808000D02*
X87884000Y-114808000D01*
X91186000Y-114808000D02*
X93218000Y-112776000D01*
X87884000Y-114808000D02*
X91186000Y-114808000D01*
X72136000Y-77216000D02*
X61468000Y-77216000D01*
X61468000Y-77216000D02*
X60960000Y-77724000D01*
X60960000Y-77724000D02*
X57912000Y-77724000D01*
X57912000Y-77724000D02*
X56896000Y-78740000D01*
X56896000Y-78740000D02*
X56896000Y-95504000D01*
X56896000Y-95504000D02*
X58166000Y-96774000D01*
X58166000Y-96774000D02*
X79756000Y-96774000D01*
X74422000Y-80518000D02*
X74422000Y-79502000D01*
X76962000Y-88138000D02*
X76962000Y-87884000D01*
X76962000Y-87884000D02*
X78486000Y-86360000D01*
X92456000Y-88900000D02*
X92456000Y-100838000D01*
X89916000Y-86360000D02*
X92456000Y-88900000D01*
X78486000Y-86360000D02*
X89916000Y-86360000D01*
X92456000Y-100838000D02*
X91948000Y-100838000D01*
X91948000Y-100838000D02*
X89408000Y-103378000D01*
X76962000Y-88138000D02*
X76962000Y-88646000D01*
X88900000Y-103378000D02*
X89408000Y-103378000D01*
X72644000Y-100838000D02*
X72136000Y-100838000D01*
X72136000Y-100838000D02*
X69596000Y-103378000D01*
X72644000Y-107442000D02*
X72644000Y-106172000D01*
X70612000Y-105156000D02*
X69596000Y-104140000D01*
X71628000Y-105156000D02*
X70612000Y-105156000D01*
X72644000Y-106172000D02*
X71628000Y-105156000D01*
X69596000Y-104140000D02*
X69596000Y-103378000D01*
X93980000Y-107442000D02*
X92456000Y-105918000D01*
X92456000Y-105918000D02*
X92456000Y-103378000D01*
X95504000Y-100838000D02*
X94996000Y-100838000D01*
X94996000Y-100838000D02*
X92456000Y-103378000D01*
X80264000Y-107442000D02*
X80264000Y-104902000D01*
X80264000Y-104902000D02*
X78740000Y-103378000D01*
X101600000Y-103378000D02*
X101600000Y-107442000D01*
X107460000Y-89200000D02*
X98344000Y-89200000D01*
X69342000Y-94234000D02*
X67564000Y-94234000D01*
X70612000Y-92964000D02*
X69342000Y-94234000D01*
X70612000Y-86614000D02*
X70612000Y-92964000D01*
X72390000Y-84836000D02*
X70612000Y-86614000D01*
X93980000Y-84836000D02*
X72390000Y-84836000D01*
X98344000Y-89200000D02*
X93980000Y-84836000D01*
X64770000Y-84074000D02*
X97790000Y-84074000D01*
X62992000Y-94234000D02*
X61976000Y-93218000D01*
X61976000Y-93218000D02*
X61976000Y-86868000D01*
X61976000Y-86868000D02*
X64770000Y-84074000D01*
X107460000Y-86660000D02*
X100376000Y-86660000D01*
X100376000Y-86660000D02*
X97790000Y-84074000D01*
X62992000Y-94234000D02*
X64262000Y-94234000D01*
X79121000Y-76327000D02*
X77851000Y-76327000D01*
X76962000Y-77216000D02*
X76962000Y-80518000D01*
X77851000Y-76327000D02*
X76962000Y-77216000D01*
X76454000Y-94996000D02*
X71628000Y-94996000D01*
X57404000Y-80836000D02*
X59200000Y-79040000D01*
X57404000Y-94996000D02*
X57404000Y-80836000D01*
X58420000Y-96012000D02*
X57404000Y-94996000D01*
X70612000Y-96012000D02*
X58420000Y-96012000D01*
X71628000Y-94996000D02*
X70612000Y-96012000D01*
X68453000Y-129667000D02*
X74295000Y-129667000D01*
X74295000Y-129667000D02*
X75438000Y-128524000D01*
X75438000Y-128524000D02*
X75438000Y-127508000D01*
X74930000Y-122936000D02*
X74930000Y-124714000D01*
X75438000Y-125222000D02*
X75438000Y-127508000D01*
X74930000Y-124714000D02*
X75438000Y-125222000D01*
X75438000Y-127508000D02*
X77978000Y-127508000D01*
X75184000Y-107442000D02*
X75184000Y-108712000D01*
X72136000Y-109728000D02*
X68961000Y-106553000D01*
X74168000Y-109728000D02*
X72136000Y-109728000D01*
X75184000Y-108712000D02*
X74168000Y-109728000D01*
X75692000Y-103378000D02*
X75692000Y-104902000D01*
X75184000Y-105410000D02*
X75184000Y-107442000D01*
X75692000Y-104902000D02*
X75184000Y-105410000D01*
X77724000Y-107442000D02*
X75184000Y-107442000D01*
X89789000Y-110617000D02*
X95123000Y-110617000D01*
X96520000Y-109220000D02*
X96520000Y-107442000D01*
X95123000Y-110617000D02*
X96520000Y-109220000D01*
X96520000Y-107442000D02*
X99060000Y-107442000D01*
X98552000Y-103378000D02*
X98552000Y-105664000D01*
X99060000Y-106172000D02*
X99060000Y-107442000D01*
X98552000Y-105664000D02*
X99060000Y-106172000D01*
X75438000Y-138176000D02*
X60198000Y-138176000D01*
X58928000Y-135382000D02*
X60960000Y-133350000D01*
X58928000Y-136906000D02*
X58928000Y-135382000D01*
X60198000Y-138176000D02*
X58928000Y-136906000D01*
X75438000Y-135128000D02*
X75438000Y-138176000D01*
X77978000Y-135128000D02*
X77978000Y-138176000D01*
X77978000Y-135128000D02*
X77978000Y-133604000D01*
X77216000Y-132842000D02*
X64008000Y-132842000D01*
X77978000Y-133604000D02*
X77216000Y-132842000D01*
X64008000Y-132842000D02*
X63500000Y-133350000D01*
X96520000Y-135128000D02*
X96520000Y-138176000D01*
X87630000Y-134874000D02*
X87630000Y-134366000D01*
X87630000Y-134366000D02*
X90170000Y-131826000D01*
X99060000Y-135128000D02*
X99060000Y-138176000D01*
X99060000Y-135128000D02*
X99060000Y-133604000D01*
X92202000Y-132842000D02*
X90170000Y-134874000D01*
X98298000Y-132842000D02*
X92202000Y-132842000D01*
X99060000Y-133604000D02*
X98298000Y-132842000D01*
X87630000Y-137922000D02*
X87630000Y-137414000D01*
X87630000Y-137414000D02*
X90170000Y-134874000D01*
X65532000Y-112014000D02*
X67056000Y-110490000D01*
X77724000Y-113030000D02*
X77724000Y-115062000D01*
X76200000Y-111506000D02*
X77724000Y-113030000D01*
X71882000Y-111506000D02*
X76200000Y-111506000D01*
X70866000Y-110490000D02*
X71882000Y-111506000D01*
X69342000Y-110490000D02*
X70866000Y-110490000D01*
X67056000Y-110490000D02*
X69342000Y-110490000D01*
X107188000Y-120904000D02*
X106426000Y-120904000D01*
X106426000Y-120904000D02*
X103632000Y-118110000D01*
X103632000Y-118110000D02*
X98044000Y-118110000D01*
X98044000Y-118110000D02*
X96520000Y-116586000D01*
X96520000Y-116586000D02*
X96520000Y-115062000D01*
X107188000Y-118364000D02*
X106172000Y-118364000D01*
X106172000Y-118364000D02*
X104902000Y-117094000D01*
X104902000Y-117094000D02*
X100584000Y-117094000D01*
X100584000Y-117094000D02*
X99060000Y-115570000D01*
X99060000Y-115570000D02*
X99060000Y-115062000D01*
X86868000Y-116586000D02*
X86868000Y-117094000D01*
X86868000Y-117094000D02*
X84328000Y-119634000D01*
D22*
G36*
X95728599Y-91469401D02*
X95975161Y-91634148D01*
X96266000Y-91692000D01*
X108204000Y-91692000D01*
X108494839Y-91634148D01*
X108741401Y-91469401D01*
X109790000Y-90420802D01*
X109790000Y-124851391D01*
X109668427Y-124557162D01*
X108936690Y-123824147D01*
X107980140Y-123426953D01*
X106944404Y-123426049D01*
X105987162Y-123821573D01*
X105254147Y-124553310D01*
X104856953Y-125509860D01*
X104856049Y-126545596D01*
X105251573Y-127502838D01*
X105983310Y-128235853D01*
X106939860Y-128633047D01*
X107975596Y-128633951D01*
X108932838Y-128238427D01*
X109665853Y-127506690D01*
X109790000Y-127207711D01*
X109790000Y-139790000D01*
X56710000Y-139790000D01*
X56710000Y-125551379D01*
X56991573Y-126232838D01*
X57723310Y-126965853D01*
X58679860Y-127363047D01*
X59715596Y-127363951D01*
X60672838Y-126968427D01*
X61405853Y-126236690D01*
X61803047Y-125280140D01*
X61803951Y-124244404D01*
X61408427Y-123287162D01*
X60676690Y-122554147D01*
X59761194Y-122174000D01*
X63248000Y-122174000D01*
X63248000Y-124714000D01*
X63305852Y-125004839D01*
X63470599Y-125251401D01*
X64879376Y-126660178D01*
X64633606Y-126905520D01*
X64403233Y-127460319D01*
X64402709Y-128061046D01*
X64632113Y-128616246D01*
X65056520Y-129041394D01*
X65611319Y-129271767D01*
X66212046Y-129272291D01*
X66767246Y-129042887D01*
X67192394Y-128618480D01*
X67422767Y-128063681D01*
X67423291Y-127462954D01*
X67198568Y-126919081D01*
X67570524Y-126919081D01*
X67653868Y-127172977D01*
X68218300Y-127378619D01*
X68818464Y-127352609D01*
X69252132Y-127172977D01*
X69335476Y-126919081D01*
X68453000Y-126036605D01*
X67570524Y-126919081D01*
X67198568Y-126919081D01*
X67193887Y-126907754D01*
X66769480Y-126482606D01*
X66634740Y-126426657D01*
X66615148Y-126328161D01*
X66450401Y-126081599D01*
X65991102Y-125622300D01*
X66931381Y-125622300D01*
X66957391Y-126222464D01*
X67137023Y-126656132D01*
X67390919Y-126739476D01*
X68273395Y-125857000D01*
X68632605Y-125857000D01*
X69515081Y-126739476D01*
X69768977Y-126656132D01*
X69974619Y-126091700D01*
X69948609Y-125491536D01*
X69768977Y-125057868D01*
X69515081Y-124974524D01*
X68632605Y-125857000D01*
X68273395Y-125857000D01*
X67390919Y-124974524D01*
X67137023Y-125057868D01*
X66931381Y-125622300D01*
X65991102Y-125622300D01*
X64768000Y-124399198D01*
X64768000Y-124229760D01*
X64858927Y-124320846D01*
X65459453Y-124570206D01*
X66109694Y-124570774D01*
X66710655Y-124322462D01*
X67170846Y-123863073D01*
X67310034Y-123527870D01*
X67447538Y-123860655D01*
X67906927Y-124320846D01*
X68046002Y-124378595D01*
X67653868Y-124541023D01*
X67570524Y-124794919D01*
X68453000Y-125677395D01*
X69335476Y-124794919D01*
X69252132Y-124541023D01*
X69240210Y-124536679D01*
X69758655Y-124322462D01*
X70218846Y-123863073D01*
X70358034Y-123527870D01*
X70495538Y-123860655D01*
X70954927Y-124320846D01*
X71555453Y-124570206D01*
X72205694Y-124570774D01*
X72806655Y-124322462D01*
X73266846Y-123863073D01*
X73406034Y-123527870D01*
X73543538Y-123860655D01*
X74002927Y-124320846D01*
X74170000Y-124390221D01*
X74170000Y-124714000D01*
X74227852Y-125004839D01*
X74392599Y-125251401D01*
X74678000Y-125536802D01*
X74678000Y-125998187D01*
X74458254Y-126145017D01*
X74168000Y-126579412D01*
X73877746Y-126145017D01*
X73428235Y-125844663D01*
X72898000Y-125739193D01*
X72367765Y-125844663D01*
X71918254Y-126145017D01*
X71617900Y-126594528D01*
X71512430Y-127124763D01*
X71512430Y-127891237D01*
X71617900Y-128421472D01*
X71918254Y-128870983D01*
X71972157Y-128907000D01*
X69772829Y-128907000D01*
X69733887Y-128812754D01*
X69309480Y-128387606D01*
X68754681Y-128157233D01*
X68153954Y-128156709D01*
X67598754Y-128386113D01*
X67173606Y-128810520D01*
X66943233Y-129365319D01*
X66942709Y-129966046D01*
X67172113Y-130521246D01*
X67596520Y-130946394D01*
X68151319Y-131176767D01*
X68752046Y-131177291D01*
X69307246Y-130947887D01*
X69650697Y-130605034D01*
X83438233Y-130605034D01*
X83466195Y-131155538D01*
X83623069Y-131534265D01*
X83864070Y-131602325D01*
X84656395Y-130810000D01*
X83864070Y-130017675D01*
X83623069Y-130085735D01*
X83438233Y-130605034D01*
X69650697Y-130605034D01*
X69732394Y-130523480D01*
X69772456Y-130427000D01*
X74295000Y-130427000D01*
X74585839Y-130369148D01*
X74832401Y-130204401D01*
X75198732Y-129838070D01*
X84043675Y-129838070D01*
X84836000Y-130630395D01*
X85628325Y-129838070D01*
X85560265Y-129597069D01*
X85040966Y-129412233D01*
X84490462Y-129440195D01*
X84111735Y-129597069D01*
X84043675Y-129838070D01*
X75198732Y-129838070D01*
X75839947Y-129196855D01*
X75968235Y-129171337D01*
X76417746Y-128870983D01*
X76708000Y-128436588D01*
X76998254Y-128870983D01*
X77447765Y-129171337D01*
X77978000Y-129276807D01*
X78508235Y-129171337D01*
X78957746Y-128870983D01*
X79248000Y-128436588D01*
X79538254Y-128870983D01*
X79987765Y-129171337D01*
X80518000Y-129276807D01*
X81048235Y-129171337D01*
X81497746Y-128870983D01*
X81798100Y-128421472D01*
X81903570Y-127891237D01*
X81903570Y-127553046D01*
X85484709Y-127553046D01*
X85714113Y-128108246D01*
X86138520Y-128533394D01*
X86693319Y-128763767D01*
X87294046Y-128764291D01*
X87849246Y-128534887D01*
X88274394Y-128110480D01*
X88504767Y-127555681D01*
X88505291Y-126954954D01*
X88280568Y-126411081D01*
X88652524Y-126411081D01*
X88735868Y-126664977D01*
X89300300Y-126870619D01*
X89900464Y-126844609D01*
X90334132Y-126664977D01*
X90417476Y-126411081D01*
X89535000Y-125528605D01*
X88652524Y-126411081D01*
X88280568Y-126411081D01*
X88275887Y-126399754D01*
X87851480Y-125974606D01*
X87296681Y-125744233D01*
X86695954Y-125743709D01*
X86140754Y-125973113D01*
X85715606Y-126397520D01*
X85485233Y-126952319D01*
X85484709Y-127553046D01*
X81903570Y-127553046D01*
X81903570Y-127124763D01*
X81798100Y-126594528D01*
X81497746Y-126145017D01*
X81278000Y-125998187D01*
X81278000Y-125984000D01*
X81229304Y-125739193D01*
X81220148Y-125693160D01*
X81055401Y-125446599D01*
X80723102Y-125114300D01*
X88013381Y-125114300D01*
X88039391Y-125714464D01*
X88219023Y-126148132D01*
X88472919Y-126231476D01*
X89355395Y-125349000D01*
X89714605Y-125349000D01*
X90597081Y-126231476D01*
X90850977Y-126148132D01*
X91056619Y-125583700D01*
X91030609Y-124983536D01*
X90850977Y-124549868D01*
X90597081Y-124466524D01*
X89714605Y-125349000D01*
X89355395Y-125349000D01*
X88472919Y-124466524D01*
X88219023Y-124549868D01*
X88013381Y-125114300D01*
X80723102Y-125114300D01*
X79394836Y-123786034D01*
X79502034Y-123527870D01*
X79639538Y-123860655D01*
X80098927Y-124320846D01*
X80699453Y-124570206D01*
X81349694Y-124570774D01*
X81950655Y-124322462D01*
X82410846Y-123863073D01*
X82660206Y-123262547D01*
X82660774Y-122612306D01*
X82412462Y-122011345D01*
X82067520Y-121665801D01*
X82410846Y-121323073D01*
X82660206Y-120722547D01*
X82660774Y-120072306D01*
X82412462Y-119471345D01*
X81953073Y-119011154D01*
X81352547Y-118761794D01*
X80702306Y-118761226D01*
X80101345Y-119009538D01*
X79641154Y-119468927D01*
X79501966Y-119804130D01*
X79364462Y-119471345D01*
X78905073Y-119011154D01*
X78304547Y-118761794D01*
X77654306Y-118761226D01*
X77629204Y-118771598D01*
X77784802Y-118616000D01*
X79248000Y-118616000D01*
X79538839Y-118558148D01*
X79785401Y-118393401D01*
X80801401Y-117377401D01*
X80966148Y-117130839D01*
X81024000Y-116840000D01*
X81024000Y-116571813D01*
X81243746Y-116424983D01*
X81544100Y-115975472D01*
X81649570Y-115445237D01*
X81649570Y-114678763D01*
X81544100Y-114148528D01*
X81243746Y-113699017D01*
X80794235Y-113398663D01*
X80264000Y-113293193D01*
X79733765Y-113398663D01*
X79284254Y-113699017D01*
X78994000Y-114133412D01*
X78703746Y-113699017D01*
X78484000Y-113552187D01*
X78484000Y-113030000D01*
X78426148Y-112739161D01*
X78426148Y-112739160D01*
X78261401Y-112492599D01*
X76737401Y-110968599D01*
X76490839Y-110803852D01*
X76200000Y-110746000D01*
X72196802Y-110746000D01*
X71889837Y-110439035D01*
X72136000Y-110488000D01*
X74168000Y-110488000D01*
X74458839Y-110430148D01*
X74705401Y-110265401D01*
X75721401Y-109249401D01*
X75886148Y-109002839D01*
X75888986Y-108988572D01*
X76163746Y-108804983D01*
X76454000Y-108370588D01*
X76744254Y-108804983D01*
X77193765Y-109105337D01*
X77724000Y-109210807D01*
X78254235Y-109105337D01*
X78703746Y-108804983D01*
X78994000Y-108370588D01*
X79284254Y-108804983D01*
X79733765Y-109105337D01*
X80264000Y-109210807D01*
X80794235Y-109105337D01*
X81243746Y-108804983D01*
X81544100Y-108355472D01*
X81649570Y-107825237D01*
X81649570Y-107058763D01*
X81544100Y-106528528D01*
X81243746Y-106079017D01*
X81024000Y-105932187D01*
X81024000Y-104902000D01*
X80966148Y-104611161D01*
X80966148Y-104611160D01*
X80801401Y-104364599D01*
X80305885Y-103869083D01*
X80374206Y-103704547D01*
X80374774Y-103054306D01*
X80126462Y-102453345D01*
X79781520Y-102107801D01*
X80124846Y-101765073D01*
X80374206Y-101164547D01*
X80374774Y-100514306D01*
X80126462Y-99913345D01*
X79667073Y-99453154D01*
X79066547Y-99203794D01*
X78416306Y-99203226D01*
X77815345Y-99451538D01*
X77355154Y-99910927D01*
X77215966Y-100246130D01*
X77078462Y-99913345D01*
X76619073Y-99453154D01*
X76018547Y-99203794D01*
X75368306Y-99203226D01*
X74767345Y-99451538D01*
X74307154Y-99910927D01*
X74167966Y-100246130D01*
X74030462Y-99913345D01*
X73571073Y-99453154D01*
X72970547Y-99203794D01*
X72320306Y-99203226D01*
X71719345Y-99451538D01*
X71259154Y-99910927D01*
X71119966Y-100246130D01*
X70982462Y-99913345D01*
X70523073Y-99453154D01*
X69922547Y-99203794D01*
X69272306Y-99203226D01*
X68671345Y-99451538D01*
X68211154Y-99910927D01*
X68071966Y-100246130D01*
X67934462Y-99913345D01*
X67475073Y-99453154D01*
X66874547Y-99203794D01*
X66224306Y-99203226D01*
X65623345Y-99451538D01*
X65163154Y-99910927D01*
X64913794Y-100511453D01*
X64913226Y-101161694D01*
X65161538Y-101762655D01*
X65506480Y-102108199D01*
X65163154Y-102450927D01*
X64913794Y-103051453D01*
X64913226Y-103701694D01*
X65161538Y-104302655D01*
X65620927Y-104762846D01*
X66221453Y-105012206D01*
X66871694Y-105012774D01*
X67472655Y-104764462D01*
X67932846Y-104305073D01*
X68072034Y-103969870D01*
X68209538Y-104302655D01*
X68668927Y-104762846D01*
X69269453Y-105012206D01*
X69393512Y-105012314D01*
X69539289Y-105158091D01*
X69262681Y-105043233D01*
X68661954Y-105042709D01*
X68106754Y-105272113D01*
X67681606Y-105696520D01*
X67451233Y-106251319D01*
X67450709Y-106852046D01*
X67680113Y-107407246D01*
X68104520Y-107832394D01*
X68659319Y-108062767D01*
X69260046Y-108063291D01*
X69356596Y-108023398D01*
X71112163Y-109778965D01*
X70866000Y-109730000D01*
X68426530Y-109730000D01*
X68565767Y-109394681D01*
X68566291Y-108793954D01*
X68336887Y-108238754D01*
X67912480Y-107813606D01*
X67357681Y-107583233D01*
X66756954Y-107582709D01*
X66201754Y-107812113D01*
X65776606Y-108236520D01*
X65546233Y-108791319D01*
X65545709Y-109392046D01*
X65775113Y-109947246D01*
X66149206Y-110321992D01*
X66023083Y-110448115D01*
X65858547Y-110379794D01*
X65208306Y-110379226D01*
X64607345Y-110627538D01*
X64147154Y-111086927D01*
X63897794Y-111687453D01*
X63897226Y-112337694D01*
X64145538Y-112938655D01*
X64604927Y-113398846D01*
X64940130Y-113538034D01*
X64607345Y-113675538D01*
X64147154Y-114134927D01*
X63897794Y-114735453D01*
X63897226Y-115385694D01*
X64145538Y-115986655D01*
X64604927Y-116446846D01*
X64772000Y-116516221D01*
X64772000Y-116586000D01*
X64829852Y-116876839D01*
X64994599Y-117123401D01*
X65756599Y-117885401D01*
X66003161Y-118050148D01*
X66294000Y-118108000D01*
X68773198Y-118108000D01*
X69598000Y-118932802D01*
X69598000Y-118943440D01*
X69160547Y-118761794D01*
X68510306Y-118761226D01*
X67909345Y-119009538D01*
X67449154Y-119468927D01*
X67309966Y-119804130D01*
X67172462Y-119471345D01*
X66713073Y-119011154D01*
X66112547Y-118761794D01*
X65462306Y-118761226D01*
X64861345Y-119009538D01*
X64401154Y-119468927D01*
X64151794Y-120069453D01*
X64151226Y-120719694D01*
X64220309Y-120886889D01*
X63470599Y-121636599D01*
X63305852Y-121883161D01*
X63248000Y-122174000D01*
X59761194Y-122174000D01*
X59720140Y-122156953D01*
X58684404Y-122156049D01*
X57727162Y-122551573D01*
X56994147Y-123283310D01*
X56710000Y-123967612D01*
X56710000Y-116124000D01*
X57257679Y-116124000D01*
X57364019Y-116658609D01*
X57666851Y-117111828D01*
X58120070Y-117414660D01*
X58654679Y-117521000D01*
X59745321Y-117521000D01*
X60279930Y-117414660D01*
X60733149Y-117111828D01*
X61035981Y-116658609D01*
X61142321Y-116124000D01*
X61035981Y-115589391D01*
X60733149Y-115136172D01*
X60296887Y-114844670D01*
X60359941Y-114826059D01*
X60785630Y-114482026D01*
X61047260Y-114001277D01*
X61062220Y-113927070D01*
X60939720Y-113711000D01*
X59327000Y-113711000D01*
X59327000Y-113731000D01*
X59073000Y-113731000D01*
X59073000Y-113711000D01*
X57460280Y-113711000D01*
X57337780Y-113927070D01*
X57352740Y-114001277D01*
X57614370Y-114482026D01*
X58040059Y-114826059D01*
X58103113Y-114844670D01*
X57666851Y-115136172D01*
X57364019Y-115589391D01*
X57257679Y-116124000D01*
X56710000Y-116124000D01*
X56710000Y-96392802D01*
X57628599Y-97311401D01*
X57681227Y-97346566D01*
X57666851Y-97356172D01*
X57364019Y-97809391D01*
X57257679Y-98344000D01*
X57364019Y-98878609D01*
X57666851Y-99331828D01*
X58089150Y-99614000D01*
X57666851Y-99896172D01*
X57364019Y-100349391D01*
X57257679Y-100884000D01*
X57364019Y-101418609D01*
X57666851Y-101871828D01*
X58089150Y-102154000D01*
X57666851Y-102436172D01*
X57364019Y-102889391D01*
X57257679Y-103424000D01*
X57364019Y-103958609D01*
X57666851Y-104411828D01*
X58089150Y-104694000D01*
X57666851Y-104976172D01*
X57364019Y-105429391D01*
X57257679Y-105964000D01*
X57364019Y-106498609D01*
X57666851Y-106951828D01*
X58089150Y-107234000D01*
X57666851Y-107516172D01*
X57364019Y-107969391D01*
X57257679Y-108504000D01*
X57364019Y-109038609D01*
X57666851Y-109491828D01*
X58089150Y-109774000D01*
X57666851Y-110056172D01*
X57364019Y-110509391D01*
X57257679Y-111044000D01*
X57364019Y-111578609D01*
X57666851Y-112031828D01*
X58103113Y-112323330D01*
X58040059Y-112341941D01*
X57614370Y-112685974D01*
X57352740Y-113166723D01*
X57337780Y-113240930D01*
X57460280Y-113457000D01*
X59073000Y-113457000D01*
X59073000Y-113437000D01*
X59327000Y-113437000D01*
X59327000Y-113457000D01*
X60939720Y-113457000D01*
X61062220Y-113240930D01*
X61047260Y-113166723D01*
X60785630Y-112685974D01*
X60359941Y-112341941D01*
X60296887Y-112323330D01*
X60733149Y-112031828D01*
X61035981Y-111578609D01*
X61142321Y-111044000D01*
X61035981Y-110509391D01*
X60733149Y-110056172D01*
X60310850Y-109774000D01*
X60733149Y-109491828D01*
X61035981Y-109038609D01*
X61142321Y-108504000D01*
X61035981Y-107969391D01*
X60799239Y-107615081D01*
X64268524Y-107615081D01*
X64351868Y-107868977D01*
X64916300Y-108074619D01*
X65516464Y-108048609D01*
X65950132Y-107868977D01*
X66033476Y-107615081D01*
X65151000Y-106732605D01*
X64268524Y-107615081D01*
X60799239Y-107615081D01*
X60733149Y-107516172D01*
X60310850Y-107234000D01*
X60733149Y-106951828D01*
X61035981Y-106498609D01*
X61071846Y-106318300D01*
X63629381Y-106318300D01*
X63655391Y-106918464D01*
X63835023Y-107352132D01*
X64088919Y-107435476D01*
X64971395Y-106553000D01*
X65330605Y-106553000D01*
X66213081Y-107435476D01*
X66466977Y-107352132D01*
X66672619Y-106787700D01*
X66646609Y-106187536D01*
X66466977Y-105753868D01*
X66213081Y-105670524D01*
X65330605Y-106553000D01*
X64971395Y-106553000D01*
X64088919Y-105670524D01*
X63835023Y-105753868D01*
X63629381Y-106318300D01*
X61071846Y-106318300D01*
X61142321Y-105964000D01*
X61048220Y-105490919D01*
X64268524Y-105490919D01*
X65151000Y-106373395D01*
X66033476Y-105490919D01*
X65950132Y-105237023D01*
X65385700Y-105031381D01*
X64785536Y-105057391D01*
X64351868Y-105237023D01*
X64268524Y-105490919D01*
X61048220Y-105490919D01*
X61035981Y-105429391D01*
X60733149Y-104976172D01*
X60310850Y-104694000D01*
X60733149Y-104411828D01*
X61035981Y-103958609D01*
X61142321Y-103424000D01*
X61035981Y-102889391D01*
X60733149Y-102436172D01*
X60310850Y-102154000D01*
X60733149Y-101871828D01*
X61035981Y-101418609D01*
X61142321Y-100884000D01*
X61035981Y-100349391D01*
X60733149Y-99896172D01*
X60310850Y-99614000D01*
X60733149Y-99331828D01*
X61035981Y-98878609D01*
X61142321Y-98344000D01*
X61035981Y-97809391D01*
X60851970Y-97534000D01*
X79441198Y-97534000D01*
X81790000Y-99882802D01*
X81790000Y-114046000D01*
X81847852Y-114336839D01*
X82012599Y-114583401D01*
X82774599Y-115345401D01*
X83021161Y-115510148D01*
X83080391Y-115521930D01*
X82943154Y-115658927D01*
X82693794Y-116259453D01*
X82693226Y-116909694D01*
X82941538Y-117510655D01*
X83400927Y-117970846D01*
X83736130Y-118110034D01*
X83403345Y-118247538D01*
X82943154Y-118706927D01*
X82693794Y-119307453D01*
X82693226Y-119957694D01*
X82941538Y-120558655D01*
X83400927Y-121018846D01*
X84001453Y-121268206D01*
X84651694Y-121268774D01*
X85252655Y-121020462D01*
X85487362Y-120786163D01*
X85895443Y-120786163D01*
X85994042Y-121052965D01*
X86603582Y-121279401D01*
X87253377Y-121255341D01*
X87741958Y-121052965D01*
X87840557Y-120786163D01*
X86868000Y-119813605D01*
X85895443Y-120786163D01*
X85487362Y-120786163D01*
X85680401Y-120593461D01*
X85715837Y-120606557D01*
X86688395Y-119634000D01*
X86674252Y-119619858D01*
X86853858Y-119440252D01*
X86868000Y-119454395D01*
X87840557Y-118481837D01*
X87741958Y-118215035D01*
X87459517Y-118110112D01*
X87792655Y-117972462D01*
X88252846Y-117513073D01*
X88502206Y-116912547D01*
X88502774Y-116262306D01*
X88254462Y-115661345D01*
X88161280Y-115568000D01*
X91186000Y-115568000D01*
X91476839Y-115510148D01*
X91723401Y-115345401D01*
X91879802Y-115189000D01*
X92594430Y-115189000D01*
X92594430Y-115538250D01*
X92748501Y-116058817D01*
X93090056Y-116480798D01*
X93567097Y-116739950D01*
X93638725Y-116754133D01*
X93853000Y-116631479D01*
X93853000Y-115189000D01*
X92594430Y-115189000D01*
X91879802Y-115189000D01*
X92641252Y-114427550D01*
X92594430Y-114585750D01*
X92594430Y-114935000D01*
X93853000Y-114935000D01*
X93853000Y-114915000D01*
X94107000Y-114915000D01*
X94107000Y-114935000D01*
X94127000Y-114935000D01*
X94127000Y-115189000D01*
X94107000Y-115189000D01*
X94107000Y-116631479D01*
X94321275Y-116754133D01*
X94392903Y-116739950D01*
X94869944Y-116480798D01*
X95211499Y-116058817D01*
X95238399Y-115967928D01*
X95239900Y-115975472D01*
X95540254Y-116424983D01*
X95989765Y-116725337D01*
X96520000Y-116830807D01*
X97050235Y-116725337D01*
X97499746Y-116424983D01*
X97790000Y-115990588D01*
X98080254Y-116424983D01*
X98529765Y-116725337D01*
X99060000Y-116830807D01*
X99590235Y-116725337D01*
X100039746Y-116424983D01*
X100330000Y-115990588D01*
X100620254Y-116424983D01*
X100659795Y-116451403D01*
X98522599Y-118588599D01*
X98516204Y-118598170D01*
X98135345Y-118755538D01*
X97675154Y-119214927D01*
X97535966Y-119550130D01*
X97398462Y-119217345D01*
X96939073Y-118757154D01*
X96338547Y-118507794D01*
X95688306Y-118507226D01*
X95087345Y-118755538D01*
X94627154Y-119214927D01*
X94487966Y-119550130D01*
X94350462Y-119217345D01*
X93891073Y-118757154D01*
X93290547Y-118507794D01*
X92640306Y-118507226D01*
X92039345Y-118755538D01*
X91579154Y-119214927D01*
X91439966Y-119550130D01*
X91302462Y-119217345D01*
X90843073Y-118757154D01*
X90242547Y-118507794D01*
X89592306Y-118507226D01*
X88991345Y-118755538D01*
X88531154Y-119214927D01*
X88491619Y-119310139D01*
X88489341Y-119248623D01*
X88286965Y-118760042D01*
X88020163Y-118661443D01*
X87047605Y-119634000D01*
X88020163Y-120606557D01*
X88286965Y-120507958D01*
X88292516Y-120493017D01*
X88529538Y-121066655D01*
X88874480Y-121412199D01*
X88531154Y-121754927D01*
X88281794Y-122355453D01*
X88281226Y-123005694D01*
X88529538Y-123606655D01*
X88891012Y-123968760D01*
X88735868Y-124033023D01*
X88652524Y-124286919D01*
X89535000Y-125169395D01*
X90417476Y-124286919D01*
X90404872Y-124248524D01*
X90840655Y-124068462D01*
X91300846Y-123609073D01*
X91440034Y-123273870D01*
X91577538Y-123606655D01*
X92036927Y-124066846D01*
X92637453Y-124316206D01*
X93287694Y-124316774D01*
X93888655Y-124068462D01*
X94348846Y-123609073D01*
X94488034Y-123273870D01*
X94625538Y-123606655D01*
X95084927Y-124066846D01*
X95252000Y-124136221D01*
X95252000Y-124206000D01*
X95309852Y-124496839D01*
X95474599Y-124743401D01*
X96478622Y-125747424D01*
X95989765Y-125844663D01*
X95540254Y-126145017D01*
X95250000Y-126579412D01*
X94959746Y-126145017D01*
X94510235Y-125844663D01*
X93980000Y-125739193D01*
X93449765Y-125844663D01*
X93000254Y-126145017D01*
X92699900Y-126594528D01*
X92594430Y-127124763D01*
X92594430Y-127891237D01*
X92699900Y-128421472D01*
X93000254Y-128870983D01*
X93449765Y-129171337D01*
X93980000Y-129276807D01*
X94510235Y-129171337D01*
X94959746Y-128870983D01*
X95250000Y-128436588D01*
X95540254Y-128870983D01*
X95989765Y-129171337D01*
X96520000Y-129276807D01*
X97050235Y-129171337D01*
X97123589Y-129122323D01*
X97252599Y-129315401D01*
X100840000Y-132902802D01*
X100840000Y-133618187D01*
X100620254Y-133765017D01*
X100330000Y-134199412D01*
X100039746Y-133765017D01*
X99820000Y-133618187D01*
X99820000Y-133604000D01*
X99762148Y-133313161D01*
X99597401Y-133066599D01*
X98835401Y-132304599D01*
X98588839Y-132139852D01*
X98298000Y-132082000D01*
X92202000Y-132082000D01*
X91911161Y-132139852D01*
X91770432Y-132233884D01*
X91804206Y-132152547D01*
X91804774Y-131502306D01*
X91556462Y-130901345D01*
X91097073Y-130441154D01*
X90596285Y-130233209D01*
X90814394Y-130015480D01*
X91044767Y-129460681D01*
X91045291Y-128859954D01*
X90815887Y-128304754D01*
X90391480Y-127879606D01*
X89836681Y-127649233D01*
X89235954Y-127648709D01*
X88680754Y-127878113D01*
X88255606Y-128302520D01*
X88025233Y-128857319D01*
X88024709Y-129458046D01*
X88254113Y-130013246D01*
X88678520Y-130438394D01*
X89079640Y-130604954D01*
X88899801Y-130784480D01*
X88557073Y-130441154D01*
X87956547Y-130191794D01*
X87306306Y-130191226D01*
X86705345Y-130439538D01*
X86245154Y-130898927D01*
X86229756Y-130936008D01*
X86205805Y-130464462D01*
X86048931Y-130085735D01*
X85807930Y-130017675D01*
X85015605Y-130810000D01*
X85029748Y-130824143D01*
X84850143Y-131003748D01*
X84836000Y-130989605D01*
X84043675Y-131781930D01*
X84111735Y-132022931D01*
X84631034Y-132207767D01*
X84918007Y-132193191D01*
X84298599Y-132812599D01*
X84133852Y-133059161D01*
X84076000Y-133350000D01*
X84076000Y-134704837D01*
X84052163Y-134714686D01*
X83662056Y-135104113D01*
X83651307Y-135130000D01*
X83626802Y-135130000D01*
X83087401Y-134590599D01*
X82840839Y-134425852D01*
X82550000Y-134368000D01*
X81828627Y-134368000D01*
X81798100Y-134214528D01*
X81497746Y-133765017D01*
X81048235Y-133464663D01*
X80518000Y-133359193D01*
X79987765Y-133464663D01*
X79538254Y-133765017D01*
X79248000Y-134199412D01*
X78957746Y-133765017D01*
X78738000Y-133618187D01*
X78738000Y-133604000D01*
X78680148Y-133313161D01*
X78515401Y-133066599D01*
X77753401Y-132304599D01*
X77506839Y-132139852D01*
X77216000Y-132082000D01*
X64543715Y-132082000D01*
X64427073Y-131965154D01*
X64091870Y-131825966D01*
X64424655Y-131688462D01*
X64884846Y-131229073D01*
X65134206Y-130628547D01*
X65134774Y-129978306D01*
X64886462Y-129377345D01*
X64427073Y-128917154D01*
X63826547Y-128667794D01*
X63176306Y-128667226D01*
X62575345Y-128915538D01*
X62229801Y-129260480D01*
X61887073Y-128917154D01*
X61286547Y-128667794D01*
X60636306Y-128667226D01*
X60035345Y-128915538D01*
X59575154Y-129374927D01*
X59325794Y-129975453D01*
X59325226Y-130625694D01*
X59573538Y-131226655D01*
X60032927Y-131686846D01*
X60368130Y-131826034D01*
X60035345Y-131963538D01*
X59575154Y-132422927D01*
X59325794Y-133023453D01*
X59325226Y-133673694D01*
X59573538Y-134274655D01*
X60032927Y-134734846D01*
X60368130Y-134874034D01*
X60035345Y-135011538D01*
X59575154Y-135470927D01*
X59325794Y-136071453D01*
X59325226Y-136721694D01*
X59573538Y-137322655D01*
X60032927Y-137782846D01*
X60633453Y-138032206D01*
X61283694Y-138032774D01*
X61884655Y-137784462D01*
X62119362Y-137550163D01*
X62527443Y-137550163D01*
X62626042Y-137816965D01*
X63235582Y-138043401D01*
X63885377Y-138019341D01*
X64373958Y-137816965D01*
X64472557Y-137550163D01*
X63500000Y-136577605D01*
X62527443Y-137550163D01*
X62119362Y-137550163D01*
X62312401Y-137357461D01*
X62347837Y-137370557D01*
X63320395Y-136398000D01*
X63306252Y-136383858D01*
X63485858Y-136204252D01*
X63500000Y-136218395D01*
X63514142Y-136204252D01*
X63693748Y-136383858D01*
X63679605Y-136398000D01*
X64652163Y-137370557D01*
X64918965Y-137271958D01*
X65145401Y-136662418D01*
X65121341Y-136012623D01*
X64964511Y-135634000D01*
X66995198Y-135634000D01*
X69312599Y-137951401D01*
X69559160Y-138116148D01*
X69607414Y-138125746D01*
X69850000Y-138174000D01*
X74422000Y-138174000D01*
X74712839Y-138116148D01*
X74959401Y-137951401D01*
X75975401Y-136935401D01*
X76140148Y-136688839D01*
X76142986Y-136674572D01*
X76417746Y-136490983D01*
X76708000Y-136056588D01*
X76998254Y-136490983D01*
X77447765Y-136791337D01*
X77978000Y-136896807D01*
X78508235Y-136791337D01*
X78957746Y-136490983D01*
X79248000Y-136056588D01*
X79538254Y-136490983D01*
X79987765Y-136791337D01*
X80518000Y-136896807D01*
X81048235Y-136791337D01*
X81497746Y-136490983D01*
X81798100Y-136041472D01*
X81828627Y-135888000D01*
X82235198Y-135888000D01*
X82774599Y-136427401D01*
X83021161Y-136592148D01*
X83312000Y-136650000D01*
X83650837Y-136650000D01*
X83660686Y-136673837D01*
X84050113Y-137063944D01*
X84559184Y-137275329D01*
X85110398Y-137275810D01*
X85619837Y-137065314D01*
X86009944Y-136675887D01*
X86221329Y-136166816D01*
X86221696Y-135745794D01*
X86243538Y-135798655D01*
X86702927Y-136258846D01*
X87038130Y-136398034D01*
X86705345Y-136535538D01*
X86245154Y-136994927D01*
X85995794Y-137595453D01*
X85995226Y-138245694D01*
X86243538Y-138846655D01*
X86702927Y-139306846D01*
X87303453Y-139556206D01*
X87953694Y-139556774D01*
X88554655Y-139308462D01*
X88789362Y-139074163D01*
X89197443Y-139074163D01*
X89296042Y-139340965D01*
X89905582Y-139567401D01*
X90555377Y-139543341D01*
X91043958Y-139340965D01*
X91142557Y-139074163D01*
X90170000Y-138101605D01*
X89197443Y-139074163D01*
X88789362Y-139074163D01*
X88982401Y-138881461D01*
X89017837Y-138894557D01*
X89990395Y-137922000D01*
X90349605Y-137922000D01*
X91322163Y-138894557D01*
X91588965Y-138795958D01*
X91815401Y-138186418D01*
X91791341Y-137536623D01*
X91588965Y-137048042D01*
X91322163Y-136949443D01*
X90349605Y-137922000D01*
X89990395Y-137922000D01*
X89976252Y-137907858D01*
X90155858Y-137728252D01*
X90170000Y-137742395D01*
X91142557Y-136769837D01*
X91043958Y-136503035D01*
X90761517Y-136398112D01*
X91094655Y-136260462D01*
X91554846Y-135801073D01*
X91781595Y-135255000D01*
X92594430Y-135255000D01*
X92594430Y-135604250D01*
X92748501Y-136124817D01*
X93090056Y-136546798D01*
X93567097Y-136805950D01*
X93638725Y-136820133D01*
X93853000Y-136697479D01*
X93853000Y-135255000D01*
X92594430Y-135255000D01*
X91781595Y-135255000D01*
X91804206Y-135200547D01*
X91804774Y-134550306D01*
X91735691Y-134383111D01*
X92516802Y-133602000D01*
X93287391Y-133602000D01*
X93090056Y-133709202D01*
X92748501Y-134131183D01*
X92594430Y-134651750D01*
X92594430Y-135001000D01*
X93853000Y-135001000D01*
X93853000Y-134981000D01*
X94107000Y-134981000D01*
X94107000Y-135001000D01*
X94127000Y-135001000D01*
X94127000Y-135255000D01*
X94107000Y-135255000D01*
X94107000Y-136697479D01*
X94321275Y-136820133D01*
X94392903Y-136805950D01*
X94869944Y-136546798D01*
X95211499Y-136124817D01*
X95238399Y-136033928D01*
X95239900Y-136041472D01*
X95540254Y-136490983D01*
X95989765Y-136791337D01*
X96520000Y-136896807D01*
X97050235Y-136791337D01*
X97499746Y-136490983D01*
X97790000Y-136056588D01*
X98080254Y-136490983D01*
X98529765Y-136791337D01*
X99060000Y-136896807D01*
X99590235Y-136791337D01*
X100039746Y-136490983D01*
X100330000Y-136056588D01*
X100620254Y-136490983D01*
X101069765Y-136791337D01*
X101600000Y-136896807D01*
X102130235Y-136791337D01*
X102579746Y-136490983D01*
X102797963Y-136164398D01*
X104532190Y-136164398D01*
X104742686Y-136673837D01*
X105132113Y-137063944D01*
X105641184Y-137275329D01*
X106192398Y-137275810D01*
X106701837Y-137065314D01*
X107091944Y-136675887D01*
X107303329Y-136166816D01*
X107303810Y-135615602D01*
X107093314Y-135106163D01*
X106703887Y-134716056D01*
X106194816Y-134504671D01*
X105643602Y-134504190D01*
X105134163Y-134714686D01*
X104744056Y-135104113D01*
X104532671Y-135613184D01*
X104532190Y-136164398D01*
X102797963Y-136164398D01*
X102880100Y-136041472D01*
X102985570Y-135511237D01*
X102985570Y-134744763D01*
X102880100Y-134214528D01*
X102579746Y-133765017D01*
X102360000Y-133618187D01*
X102360000Y-132588000D01*
X102302148Y-132297161D01*
X102137401Y-132050599D01*
X101868732Y-131781930D01*
X105125675Y-131781930D01*
X105193735Y-132022931D01*
X105713034Y-132207767D01*
X106263538Y-132179805D01*
X106642265Y-132022931D01*
X106710325Y-131781930D01*
X105918000Y-130989605D01*
X105125675Y-131781930D01*
X101868732Y-131781930D01*
X100691836Y-130605034D01*
X104520233Y-130605034D01*
X104548195Y-131155538D01*
X104705069Y-131534265D01*
X104946070Y-131602325D01*
X105738395Y-130810000D01*
X106097605Y-130810000D01*
X106889930Y-131602325D01*
X107130931Y-131534265D01*
X107315767Y-131014966D01*
X107287805Y-130464462D01*
X107130931Y-130085735D01*
X106889930Y-130017675D01*
X106097605Y-130810000D01*
X105738395Y-130810000D01*
X104946070Y-130017675D01*
X104705069Y-130085735D01*
X104520233Y-130605034D01*
X100691836Y-130605034D01*
X99924872Y-129838070D01*
X105125675Y-129838070D01*
X105918000Y-130630395D01*
X106710325Y-129838070D01*
X106642265Y-129597069D01*
X106122966Y-129412233D01*
X105572462Y-129440195D01*
X105193735Y-129597069D01*
X105125675Y-129838070D01*
X99924872Y-129838070D01*
X99313237Y-129226435D01*
X99590235Y-129171337D01*
X100039746Y-128870983D01*
X100330000Y-128436588D01*
X100620254Y-128870983D01*
X101069765Y-129171337D01*
X101600000Y-129276807D01*
X102130235Y-129171337D01*
X102579746Y-128870983D01*
X102880100Y-128421472D01*
X102985570Y-127891237D01*
X102985570Y-127124763D01*
X102880100Y-126594528D01*
X102579746Y-126145017D01*
X102130235Y-125844663D01*
X101600000Y-125739193D01*
X101069765Y-125844663D01*
X100620254Y-126145017D01*
X100330000Y-126579412D01*
X100039746Y-126145017D01*
X99590235Y-125844663D01*
X99060000Y-125739193D01*
X98529765Y-125844663D01*
X98523162Y-125849075D01*
X98492148Y-125693161D01*
X98327401Y-125446599D01*
X96942965Y-124062163D01*
X97396846Y-123609073D01*
X97536034Y-123273870D01*
X97673538Y-123606655D01*
X98132927Y-124066846D01*
X98733453Y-124316206D01*
X99383694Y-124316774D01*
X99984655Y-124068462D01*
X100444846Y-123609073D01*
X100584034Y-123273870D01*
X100721538Y-123606655D01*
X101180927Y-124066846D01*
X101781453Y-124316206D01*
X102431694Y-124316774D01*
X103032655Y-124068462D01*
X103492846Y-123609073D01*
X103742206Y-123008547D01*
X103742774Y-122358306D01*
X103494462Y-121757345D01*
X103149520Y-121411801D01*
X103492846Y-121069073D01*
X103562221Y-120902000D01*
X104140000Y-120902000D01*
X104430839Y-120844148D01*
X104677401Y-120679401D01*
X107979401Y-117377401D01*
X108144148Y-117130840D01*
X108202000Y-116840000D01*
X108202000Y-114300000D01*
X108144148Y-114009161D01*
X108144148Y-114009160D01*
X107979401Y-113762599D01*
X106455401Y-112238599D01*
X106208839Y-112073852D01*
X105918000Y-112016000D01*
X93218000Y-112016000D01*
X92927161Y-112073852D01*
X92680599Y-112238599D01*
X91550417Y-113368781D01*
X91550774Y-112960306D01*
X91302462Y-112359345D01*
X90843073Y-111899154D01*
X90701052Y-111840182D01*
X91068394Y-111473480D01*
X91108456Y-111377000D01*
X95123000Y-111377000D01*
X95413839Y-111319148D01*
X95660401Y-111154401D01*
X95860872Y-110953930D01*
X104871675Y-110953930D01*
X104939735Y-111194931D01*
X105459034Y-111379767D01*
X106009538Y-111351805D01*
X106388265Y-111194931D01*
X106456325Y-110953930D01*
X105664000Y-110161605D01*
X104871675Y-110953930D01*
X95860872Y-110953930D01*
X97037768Y-109777034D01*
X104266233Y-109777034D01*
X104294195Y-110327538D01*
X104451069Y-110706265D01*
X104692070Y-110774325D01*
X105484395Y-109982000D01*
X105843605Y-109982000D01*
X106635930Y-110774325D01*
X106876931Y-110706265D01*
X107061767Y-110186966D01*
X107033805Y-109636462D01*
X106876931Y-109257735D01*
X106635930Y-109189675D01*
X105843605Y-109982000D01*
X105484395Y-109982000D01*
X104692070Y-109189675D01*
X104451069Y-109257735D01*
X104266233Y-109777034D01*
X97037768Y-109777034D01*
X97057401Y-109757401D01*
X97222148Y-109510840D01*
X97280000Y-109220000D01*
X97280000Y-108951813D01*
X97499746Y-108804983D01*
X97790000Y-108370588D01*
X98080254Y-108804983D01*
X98529765Y-109105337D01*
X99060000Y-109210807D01*
X99590235Y-109105337D01*
X100039746Y-108804983D01*
X100330000Y-108370588D01*
X100620254Y-108804983D01*
X101069765Y-109105337D01*
X101600000Y-109210807D01*
X102130235Y-109105337D01*
X102272811Y-109010070D01*
X104871675Y-109010070D01*
X105664000Y-109802395D01*
X106456325Y-109010070D01*
X106388265Y-108769069D01*
X105868966Y-108584233D01*
X105318462Y-108612195D01*
X104939735Y-108769069D01*
X104871675Y-109010070D01*
X102272811Y-109010070D01*
X102579746Y-108804983D01*
X102880100Y-108355472D01*
X102985570Y-107825237D01*
X102985570Y-107058763D01*
X102880100Y-106528528D01*
X102579746Y-106079017D01*
X102360000Y-105932187D01*
X102360000Y-104832496D01*
X102524655Y-104764462D01*
X102984846Y-104305073D01*
X103234206Y-103704547D01*
X103234774Y-103054306D01*
X102986462Y-102453345D01*
X102641520Y-102107801D01*
X102984846Y-101765073D01*
X103234206Y-101164547D01*
X103234774Y-100514306D01*
X103224402Y-100489204D01*
X105172599Y-102437401D01*
X105419161Y-102602148D01*
X105710000Y-102660000D01*
X105774621Y-102660000D01*
X105926851Y-102887828D01*
X106349150Y-103170000D01*
X105926851Y-103452172D01*
X105624019Y-103905391D01*
X105517679Y-104440000D01*
X105624019Y-104974609D01*
X105926851Y-105427828D01*
X106349150Y-105710000D01*
X105926851Y-105992172D01*
X105624019Y-106445391D01*
X105517679Y-106980000D01*
X105624019Y-107514609D01*
X105926851Y-107967828D01*
X106380070Y-108270660D01*
X106914679Y-108377000D01*
X108005321Y-108377000D01*
X108539930Y-108270660D01*
X108993149Y-107967828D01*
X109295981Y-107514609D01*
X109402321Y-106980000D01*
X109295981Y-106445391D01*
X108993149Y-105992172D01*
X108570850Y-105710000D01*
X108993149Y-105427828D01*
X109295981Y-104974609D01*
X109402321Y-104440000D01*
X109295981Y-103905391D01*
X108993149Y-103452172D01*
X108570850Y-103170000D01*
X108993149Y-102887828D01*
X109295981Y-102434609D01*
X109402321Y-101900000D01*
X109295981Y-101365391D01*
X108993149Y-100912172D01*
X108556887Y-100620670D01*
X108619941Y-100602059D01*
X109045630Y-100258026D01*
X109307260Y-99777277D01*
X109322220Y-99703070D01*
X109199720Y-99487000D01*
X107587000Y-99487000D01*
X107587000Y-99507000D01*
X107333000Y-99507000D01*
X107333000Y-99487000D01*
X105720280Y-99487000D01*
X105597780Y-99703070D01*
X105612740Y-99777277D01*
X105874370Y-100258026D01*
X106300059Y-100602059D01*
X106363113Y-100620670D01*
X105926851Y-100912172D01*
X105874829Y-100990027D01*
X103153401Y-98268599D01*
X102906839Y-98103852D01*
X102616000Y-98046000D01*
X100584000Y-98046000D01*
X100293161Y-98103852D01*
X100046599Y-98268599D01*
X99043083Y-99272115D01*
X98878547Y-99203794D01*
X98228306Y-99203226D01*
X97627345Y-99451538D01*
X97167154Y-99910927D01*
X97027966Y-100246130D01*
X96890462Y-99913345D01*
X96431073Y-99453154D01*
X95830547Y-99203794D01*
X95180306Y-99203226D01*
X94579345Y-99451538D01*
X94119154Y-99910927D01*
X93979966Y-100246130D01*
X93842462Y-99913345D01*
X93383073Y-99453154D01*
X93216000Y-99383779D01*
X93216000Y-97163070D01*
X105597780Y-97163070D01*
X105612740Y-97237277D01*
X105874370Y-97718026D01*
X106300059Y-98062059D01*
X106394723Y-98090000D01*
X106300059Y-98117941D01*
X105874370Y-98461974D01*
X105612740Y-98942723D01*
X105597780Y-99016930D01*
X105720280Y-99233000D01*
X107333000Y-99233000D01*
X107333000Y-96947000D01*
X107587000Y-96947000D01*
X107587000Y-99233000D01*
X109199720Y-99233000D01*
X109322220Y-99016930D01*
X109307260Y-98942723D01*
X109045630Y-98461974D01*
X108619941Y-98117941D01*
X108525277Y-98090000D01*
X108619941Y-98062059D01*
X109045630Y-97718026D01*
X109307260Y-97237277D01*
X109322220Y-97163070D01*
X109199720Y-96947000D01*
X107587000Y-96947000D01*
X107333000Y-96947000D01*
X105720280Y-96947000D01*
X105597780Y-97163070D01*
X93216000Y-97163070D01*
X93216000Y-94280000D01*
X105517679Y-94280000D01*
X105624019Y-94814609D01*
X105926851Y-95267828D01*
X106363113Y-95559330D01*
X106300059Y-95577941D01*
X105874370Y-95921974D01*
X105612740Y-96402723D01*
X105597780Y-96476930D01*
X105720280Y-96693000D01*
X107333000Y-96693000D01*
X107333000Y-96673000D01*
X107587000Y-96673000D01*
X107587000Y-96693000D01*
X109199720Y-96693000D01*
X109322220Y-96476930D01*
X109307260Y-96402723D01*
X109045630Y-95921974D01*
X108619941Y-95577941D01*
X108556887Y-95559330D01*
X108993149Y-95267828D01*
X109295981Y-94814609D01*
X109402321Y-94280000D01*
X109295981Y-93745391D01*
X108993149Y-93292172D01*
X108539930Y-92989340D01*
X108005321Y-92883000D01*
X106914679Y-92883000D01*
X106380070Y-92989340D01*
X105926851Y-93292172D01*
X105624019Y-93745391D01*
X105517679Y-94280000D01*
X93216000Y-94280000D01*
X93216000Y-88956802D01*
X95728599Y-91469401D01*
X95728599Y-91469401D01*
G37*
X95728599Y-91469401D02*
X95975161Y-91634148D01*
X96266000Y-91692000D01*
X108204000Y-91692000D01*
X108494839Y-91634148D01*
X108741401Y-91469401D01*
X109790000Y-90420802D01*
X109790000Y-124851391D01*
X109668427Y-124557162D01*
X108936690Y-123824147D01*
X107980140Y-123426953D01*
X106944404Y-123426049D01*
X105987162Y-123821573D01*
X105254147Y-124553310D01*
X104856953Y-125509860D01*
X104856049Y-126545596D01*
X105251573Y-127502838D01*
X105983310Y-128235853D01*
X106939860Y-128633047D01*
X107975596Y-128633951D01*
X108932838Y-128238427D01*
X109665853Y-127506690D01*
X109790000Y-127207711D01*
X109790000Y-139790000D01*
X56710000Y-139790000D01*
X56710000Y-125551379D01*
X56991573Y-126232838D01*
X57723310Y-126965853D01*
X58679860Y-127363047D01*
X59715596Y-127363951D01*
X60672838Y-126968427D01*
X61405853Y-126236690D01*
X61803047Y-125280140D01*
X61803951Y-124244404D01*
X61408427Y-123287162D01*
X60676690Y-122554147D01*
X59761194Y-122174000D01*
X63248000Y-122174000D01*
X63248000Y-124714000D01*
X63305852Y-125004839D01*
X63470599Y-125251401D01*
X64879376Y-126660178D01*
X64633606Y-126905520D01*
X64403233Y-127460319D01*
X64402709Y-128061046D01*
X64632113Y-128616246D01*
X65056520Y-129041394D01*
X65611319Y-129271767D01*
X66212046Y-129272291D01*
X66767246Y-129042887D01*
X67192394Y-128618480D01*
X67422767Y-128063681D01*
X67423291Y-127462954D01*
X67198568Y-126919081D01*
X67570524Y-126919081D01*
X67653868Y-127172977D01*
X68218300Y-127378619D01*
X68818464Y-127352609D01*
X69252132Y-127172977D01*
X69335476Y-126919081D01*
X68453000Y-126036605D01*
X67570524Y-126919081D01*
X67198568Y-126919081D01*
X67193887Y-126907754D01*
X66769480Y-126482606D01*
X66634740Y-126426657D01*
X66615148Y-126328161D01*
X66450401Y-126081599D01*
X65991102Y-125622300D01*
X66931381Y-125622300D01*
X66957391Y-126222464D01*
X67137023Y-126656132D01*
X67390919Y-126739476D01*
X68273395Y-125857000D01*
X68632605Y-125857000D01*
X69515081Y-126739476D01*
X69768977Y-126656132D01*
X69974619Y-126091700D01*
X69948609Y-125491536D01*
X69768977Y-125057868D01*
X69515081Y-124974524D01*
X68632605Y-125857000D01*
X68273395Y-125857000D01*
X67390919Y-124974524D01*
X67137023Y-125057868D01*
X66931381Y-125622300D01*
X65991102Y-125622300D01*
X64768000Y-124399198D01*
X64768000Y-124229760D01*
X64858927Y-124320846D01*
X65459453Y-124570206D01*
X66109694Y-124570774D01*
X66710655Y-124322462D01*
X67170846Y-123863073D01*
X67310034Y-123527870D01*
X67447538Y-123860655D01*
X67906927Y-124320846D01*
X68046002Y-124378595D01*
X67653868Y-124541023D01*
X67570524Y-124794919D01*
X68453000Y-125677395D01*
X69335476Y-124794919D01*
X69252132Y-124541023D01*
X69240210Y-124536679D01*
X69758655Y-124322462D01*
X70218846Y-123863073D01*
X70358034Y-123527870D01*
X70495538Y-123860655D01*
X70954927Y-124320846D01*
X71555453Y-124570206D01*
X72205694Y-124570774D01*
X72806655Y-124322462D01*
X73266846Y-123863073D01*
X73406034Y-123527870D01*
X73543538Y-123860655D01*
X74002927Y-124320846D01*
X74170000Y-124390221D01*
X74170000Y-124714000D01*
X74227852Y-125004839D01*
X74392599Y-125251401D01*
X74678000Y-125536802D01*
X74678000Y-125998187D01*
X74458254Y-126145017D01*
X74168000Y-126579412D01*
X73877746Y-126145017D01*
X73428235Y-125844663D01*
X72898000Y-125739193D01*
X72367765Y-125844663D01*
X71918254Y-126145017D01*
X71617900Y-126594528D01*
X71512430Y-127124763D01*
X71512430Y-127891237D01*
X71617900Y-128421472D01*
X71918254Y-128870983D01*
X71972157Y-128907000D01*
X69772829Y-128907000D01*
X69733887Y-128812754D01*
X69309480Y-128387606D01*
X68754681Y-128157233D01*
X68153954Y-128156709D01*
X67598754Y-128386113D01*
X67173606Y-128810520D01*
X66943233Y-129365319D01*
X66942709Y-129966046D01*
X67172113Y-130521246D01*
X67596520Y-130946394D01*
X68151319Y-131176767D01*
X68752046Y-131177291D01*
X69307246Y-130947887D01*
X69650697Y-130605034D01*
X83438233Y-130605034D01*
X83466195Y-131155538D01*
X83623069Y-131534265D01*
X83864070Y-131602325D01*
X84656395Y-130810000D01*
X83864070Y-130017675D01*
X83623069Y-130085735D01*
X83438233Y-130605034D01*
X69650697Y-130605034D01*
X69732394Y-130523480D01*
X69772456Y-130427000D01*
X74295000Y-130427000D01*
X74585839Y-130369148D01*
X74832401Y-130204401D01*
X75198732Y-129838070D01*
X84043675Y-129838070D01*
X84836000Y-130630395D01*
X85628325Y-129838070D01*
X85560265Y-129597069D01*
X85040966Y-129412233D01*
X84490462Y-129440195D01*
X84111735Y-129597069D01*
X84043675Y-129838070D01*
X75198732Y-129838070D01*
X75839947Y-129196855D01*
X75968235Y-129171337D01*
X76417746Y-128870983D01*
X76708000Y-128436588D01*
X76998254Y-128870983D01*
X77447765Y-129171337D01*
X77978000Y-129276807D01*
X78508235Y-129171337D01*
X78957746Y-128870983D01*
X79248000Y-128436588D01*
X79538254Y-128870983D01*
X79987765Y-129171337D01*
X80518000Y-129276807D01*
X81048235Y-129171337D01*
X81497746Y-128870983D01*
X81798100Y-128421472D01*
X81903570Y-127891237D01*
X81903570Y-127553046D01*
X85484709Y-127553046D01*
X85714113Y-128108246D01*
X86138520Y-128533394D01*
X86693319Y-128763767D01*
X87294046Y-128764291D01*
X87849246Y-128534887D01*
X88274394Y-128110480D01*
X88504767Y-127555681D01*
X88505291Y-126954954D01*
X88280568Y-126411081D01*
X88652524Y-126411081D01*
X88735868Y-126664977D01*
X89300300Y-126870619D01*
X89900464Y-126844609D01*
X90334132Y-126664977D01*
X90417476Y-126411081D01*
X89535000Y-125528605D01*
X88652524Y-126411081D01*
X88280568Y-126411081D01*
X88275887Y-126399754D01*
X87851480Y-125974606D01*
X87296681Y-125744233D01*
X86695954Y-125743709D01*
X86140754Y-125973113D01*
X85715606Y-126397520D01*
X85485233Y-126952319D01*
X85484709Y-127553046D01*
X81903570Y-127553046D01*
X81903570Y-127124763D01*
X81798100Y-126594528D01*
X81497746Y-126145017D01*
X81278000Y-125998187D01*
X81278000Y-125984000D01*
X81229304Y-125739193D01*
X81220148Y-125693160D01*
X81055401Y-125446599D01*
X80723102Y-125114300D01*
X88013381Y-125114300D01*
X88039391Y-125714464D01*
X88219023Y-126148132D01*
X88472919Y-126231476D01*
X89355395Y-125349000D01*
X89714605Y-125349000D01*
X90597081Y-126231476D01*
X90850977Y-126148132D01*
X91056619Y-125583700D01*
X91030609Y-124983536D01*
X90850977Y-124549868D01*
X90597081Y-124466524D01*
X89714605Y-125349000D01*
X89355395Y-125349000D01*
X88472919Y-124466524D01*
X88219023Y-124549868D01*
X88013381Y-125114300D01*
X80723102Y-125114300D01*
X79394836Y-123786034D01*
X79502034Y-123527870D01*
X79639538Y-123860655D01*
X80098927Y-124320846D01*
X80699453Y-124570206D01*
X81349694Y-124570774D01*
X81950655Y-124322462D01*
X82410846Y-123863073D01*
X82660206Y-123262547D01*
X82660774Y-122612306D01*
X82412462Y-122011345D01*
X82067520Y-121665801D01*
X82410846Y-121323073D01*
X82660206Y-120722547D01*
X82660774Y-120072306D01*
X82412462Y-119471345D01*
X81953073Y-119011154D01*
X81352547Y-118761794D01*
X80702306Y-118761226D01*
X80101345Y-119009538D01*
X79641154Y-119468927D01*
X79501966Y-119804130D01*
X79364462Y-119471345D01*
X78905073Y-119011154D01*
X78304547Y-118761794D01*
X77654306Y-118761226D01*
X77629204Y-118771598D01*
X77784802Y-118616000D01*
X79248000Y-118616000D01*
X79538839Y-118558148D01*
X79785401Y-118393401D01*
X80801401Y-117377401D01*
X80966148Y-117130839D01*
X81024000Y-116840000D01*
X81024000Y-116571813D01*
X81243746Y-116424983D01*
X81544100Y-115975472D01*
X81649570Y-115445237D01*
X81649570Y-114678763D01*
X81544100Y-114148528D01*
X81243746Y-113699017D01*
X80794235Y-113398663D01*
X80264000Y-113293193D01*
X79733765Y-113398663D01*
X79284254Y-113699017D01*
X78994000Y-114133412D01*
X78703746Y-113699017D01*
X78484000Y-113552187D01*
X78484000Y-113030000D01*
X78426148Y-112739161D01*
X78426148Y-112739160D01*
X78261401Y-112492599D01*
X76737401Y-110968599D01*
X76490839Y-110803852D01*
X76200000Y-110746000D01*
X72196802Y-110746000D01*
X71889837Y-110439035D01*
X72136000Y-110488000D01*
X74168000Y-110488000D01*
X74458839Y-110430148D01*
X74705401Y-110265401D01*
X75721401Y-109249401D01*
X75886148Y-109002839D01*
X75888986Y-108988572D01*
X76163746Y-108804983D01*
X76454000Y-108370588D01*
X76744254Y-108804983D01*
X77193765Y-109105337D01*
X77724000Y-109210807D01*
X78254235Y-109105337D01*
X78703746Y-108804983D01*
X78994000Y-108370588D01*
X79284254Y-108804983D01*
X79733765Y-109105337D01*
X80264000Y-109210807D01*
X80794235Y-109105337D01*
X81243746Y-108804983D01*
X81544100Y-108355472D01*
X81649570Y-107825237D01*
X81649570Y-107058763D01*
X81544100Y-106528528D01*
X81243746Y-106079017D01*
X81024000Y-105932187D01*
X81024000Y-104902000D01*
X80966148Y-104611161D01*
X80966148Y-104611160D01*
X80801401Y-104364599D01*
X80305885Y-103869083D01*
X80374206Y-103704547D01*
X80374774Y-103054306D01*
X80126462Y-102453345D01*
X79781520Y-102107801D01*
X80124846Y-101765073D01*
X80374206Y-101164547D01*
X80374774Y-100514306D01*
X80126462Y-99913345D01*
X79667073Y-99453154D01*
X79066547Y-99203794D01*
X78416306Y-99203226D01*
X77815345Y-99451538D01*
X77355154Y-99910927D01*
X77215966Y-100246130D01*
X77078462Y-99913345D01*
X76619073Y-99453154D01*
X76018547Y-99203794D01*
X75368306Y-99203226D01*
X74767345Y-99451538D01*
X74307154Y-99910927D01*
X74167966Y-100246130D01*
X74030462Y-99913345D01*
X73571073Y-99453154D01*
X72970547Y-99203794D01*
X72320306Y-99203226D01*
X71719345Y-99451538D01*
X71259154Y-99910927D01*
X71119966Y-100246130D01*
X70982462Y-99913345D01*
X70523073Y-99453154D01*
X69922547Y-99203794D01*
X69272306Y-99203226D01*
X68671345Y-99451538D01*
X68211154Y-99910927D01*
X68071966Y-100246130D01*
X67934462Y-99913345D01*
X67475073Y-99453154D01*
X66874547Y-99203794D01*
X66224306Y-99203226D01*
X65623345Y-99451538D01*
X65163154Y-99910927D01*
X64913794Y-100511453D01*
X64913226Y-101161694D01*
X65161538Y-101762655D01*
X65506480Y-102108199D01*
X65163154Y-102450927D01*
X64913794Y-103051453D01*
X64913226Y-103701694D01*
X65161538Y-104302655D01*
X65620927Y-104762846D01*
X66221453Y-105012206D01*
X66871694Y-105012774D01*
X67472655Y-104764462D01*
X67932846Y-104305073D01*
X68072034Y-103969870D01*
X68209538Y-104302655D01*
X68668927Y-104762846D01*
X69269453Y-105012206D01*
X69393512Y-105012314D01*
X69539289Y-105158091D01*
X69262681Y-105043233D01*
X68661954Y-105042709D01*
X68106754Y-105272113D01*
X67681606Y-105696520D01*
X67451233Y-106251319D01*
X67450709Y-106852046D01*
X67680113Y-107407246D01*
X68104520Y-107832394D01*
X68659319Y-108062767D01*
X69260046Y-108063291D01*
X69356596Y-108023398D01*
X71112163Y-109778965D01*
X70866000Y-109730000D01*
X68426530Y-109730000D01*
X68565767Y-109394681D01*
X68566291Y-108793954D01*
X68336887Y-108238754D01*
X67912480Y-107813606D01*
X67357681Y-107583233D01*
X66756954Y-107582709D01*
X66201754Y-107812113D01*
X65776606Y-108236520D01*
X65546233Y-108791319D01*
X65545709Y-109392046D01*
X65775113Y-109947246D01*
X66149206Y-110321992D01*
X66023083Y-110448115D01*
X65858547Y-110379794D01*
X65208306Y-110379226D01*
X64607345Y-110627538D01*
X64147154Y-111086927D01*
X63897794Y-111687453D01*
X63897226Y-112337694D01*
X64145538Y-112938655D01*
X64604927Y-113398846D01*
X64940130Y-113538034D01*
X64607345Y-113675538D01*
X64147154Y-114134927D01*
X63897794Y-114735453D01*
X63897226Y-115385694D01*
X64145538Y-115986655D01*
X64604927Y-116446846D01*
X64772000Y-116516221D01*
X64772000Y-116586000D01*
X64829852Y-116876839D01*
X64994599Y-117123401D01*
X65756599Y-117885401D01*
X66003161Y-118050148D01*
X66294000Y-118108000D01*
X68773198Y-118108000D01*
X69598000Y-118932802D01*
X69598000Y-118943440D01*
X69160547Y-118761794D01*
X68510306Y-118761226D01*
X67909345Y-119009538D01*
X67449154Y-119468927D01*
X67309966Y-119804130D01*
X67172462Y-119471345D01*
X66713073Y-119011154D01*
X66112547Y-118761794D01*
X65462306Y-118761226D01*
X64861345Y-119009538D01*
X64401154Y-119468927D01*
X64151794Y-120069453D01*
X64151226Y-120719694D01*
X64220309Y-120886889D01*
X63470599Y-121636599D01*
X63305852Y-121883161D01*
X63248000Y-122174000D01*
X59761194Y-122174000D01*
X59720140Y-122156953D01*
X58684404Y-122156049D01*
X57727162Y-122551573D01*
X56994147Y-123283310D01*
X56710000Y-123967612D01*
X56710000Y-116124000D01*
X57257679Y-116124000D01*
X57364019Y-116658609D01*
X57666851Y-117111828D01*
X58120070Y-117414660D01*
X58654679Y-117521000D01*
X59745321Y-117521000D01*
X60279930Y-117414660D01*
X60733149Y-117111828D01*
X61035981Y-116658609D01*
X61142321Y-116124000D01*
X61035981Y-115589391D01*
X60733149Y-115136172D01*
X60296887Y-114844670D01*
X60359941Y-114826059D01*
X60785630Y-114482026D01*
X61047260Y-114001277D01*
X61062220Y-113927070D01*
X60939720Y-113711000D01*
X59327000Y-113711000D01*
X59327000Y-113731000D01*
X59073000Y-113731000D01*
X59073000Y-113711000D01*
X57460280Y-113711000D01*
X57337780Y-113927070D01*
X57352740Y-114001277D01*
X57614370Y-114482026D01*
X58040059Y-114826059D01*
X58103113Y-114844670D01*
X57666851Y-115136172D01*
X57364019Y-115589391D01*
X57257679Y-116124000D01*
X56710000Y-116124000D01*
X56710000Y-96392802D01*
X57628599Y-97311401D01*
X57681227Y-97346566D01*
X57666851Y-97356172D01*
X57364019Y-97809391D01*
X57257679Y-98344000D01*
X57364019Y-98878609D01*
X57666851Y-99331828D01*
X58089150Y-99614000D01*
X57666851Y-99896172D01*
X57364019Y-100349391D01*
X57257679Y-100884000D01*
X57364019Y-101418609D01*
X57666851Y-101871828D01*
X58089150Y-102154000D01*
X57666851Y-102436172D01*
X57364019Y-102889391D01*
X57257679Y-103424000D01*
X57364019Y-103958609D01*
X57666851Y-104411828D01*
X58089150Y-104694000D01*
X57666851Y-104976172D01*
X57364019Y-105429391D01*
X57257679Y-105964000D01*
X57364019Y-106498609D01*
X57666851Y-106951828D01*
X58089150Y-107234000D01*
X57666851Y-107516172D01*
X57364019Y-107969391D01*
X57257679Y-108504000D01*
X57364019Y-109038609D01*
X57666851Y-109491828D01*
X58089150Y-109774000D01*
X57666851Y-110056172D01*
X57364019Y-110509391D01*
X57257679Y-111044000D01*
X57364019Y-111578609D01*
X57666851Y-112031828D01*
X58103113Y-112323330D01*
X58040059Y-112341941D01*
X57614370Y-112685974D01*
X57352740Y-113166723D01*
X57337780Y-113240930D01*
X57460280Y-113457000D01*
X59073000Y-113457000D01*
X59073000Y-113437000D01*
X59327000Y-113437000D01*
X59327000Y-113457000D01*
X60939720Y-113457000D01*
X61062220Y-113240930D01*
X61047260Y-113166723D01*
X60785630Y-112685974D01*
X60359941Y-112341941D01*
X60296887Y-112323330D01*
X60733149Y-112031828D01*
X61035981Y-111578609D01*
X61142321Y-111044000D01*
X61035981Y-110509391D01*
X60733149Y-110056172D01*
X60310850Y-109774000D01*
X60733149Y-109491828D01*
X61035981Y-109038609D01*
X61142321Y-108504000D01*
X61035981Y-107969391D01*
X60799239Y-107615081D01*
X64268524Y-107615081D01*
X64351868Y-107868977D01*
X64916300Y-108074619D01*
X65516464Y-108048609D01*
X65950132Y-107868977D01*
X66033476Y-107615081D01*
X65151000Y-106732605D01*
X64268524Y-107615081D01*
X60799239Y-107615081D01*
X60733149Y-107516172D01*
X60310850Y-107234000D01*
X60733149Y-106951828D01*
X61035981Y-106498609D01*
X61071846Y-106318300D01*
X63629381Y-106318300D01*
X63655391Y-106918464D01*
X63835023Y-107352132D01*
X64088919Y-107435476D01*
X64971395Y-106553000D01*
X65330605Y-106553000D01*
X66213081Y-107435476D01*
X66466977Y-107352132D01*
X66672619Y-106787700D01*
X66646609Y-106187536D01*
X66466977Y-105753868D01*
X66213081Y-105670524D01*
X65330605Y-106553000D01*
X64971395Y-106553000D01*
X64088919Y-105670524D01*
X63835023Y-105753868D01*
X63629381Y-106318300D01*
X61071846Y-106318300D01*
X61142321Y-105964000D01*
X61048220Y-105490919D01*
X64268524Y-105490919D01*
X65151000Y-106373395D01*
X66033476Y-105490919D01*
X65950132Y-105237023D01*
X65385700Y-105031381D01*
X64785536Y-105057391D01*
X64351868Y-105237023D01*
X64268524Y-105490919D01*
X61048220Y-105490919D01*
X61035981Y-105429391D01*
X60733149Y-104976172D01*
X60310850Y-104694000D01*
X60733149Y-104411828D01*
X61035981Y-103958609D01*
X61142321Y-103424000D01*
X61035981Y-102889391D01*
X60733149Y-102436172D01*
X60310850Y-102154000D01*
X60733149Y-101871828D01*
X61035981Y-101418609D01*
X61142321Y-100884000D01*
X61035981Y-100349391D01*
X60733149Y-99896172D01*
X60310850Y-99614000D01*
X60733149Y-99331828D01*
X61035981Y-98878609D01*
X61142321Y-98344000D01*
X61035981Y-97809391D01*
X60851970Y-97534000D01*
X79441198Y-97534000D01*
X81790000Y-99882802D01*
X81790000Y-114046000D01*
X81847852Y-114336839D01*
X82012599Y-114583401D01*
X82774599Y-115345401D01*
X83021161Y-115510148D01*
X83080391Y-115521930D01*
X82943154Y-115658927D01*
X82693794Y-116259453D01*
X82693226Y-116909694D01*
X82941538Y-117510655D01*
X83400927Y-117970846D01*
X83736130Y-118110034D01*
X83403345Y-118247538D01*
X82943154Y-118706927D01*
X82693794Y-119307453D01*
X82693226Y-119957694D01*
X82941538Y-120558655D01*
X83400927Y-121018846D01*
X84001453Y-121268206D01*
X84651694Y-121268774D01*
X85252655Y-121020462D01*
X85487362Y-120786163D01*
X85895443Y-120786163D01*
X85994042Y-121052965D01*
X86603582Y-121279401D01*
X87253377Y-121255341D01*
X87741958Y-121052965D01*
X87840557Y-120786163D01*
X86868000Y-119813605D01*
X85895443Y-120786163D01*
X85487362Y-120786163D01*
X85680401Y-120593461D01*
X85715837Y-120606557D01*
X86688395Y-119634000D01*
X86674252Y-119619858D01*
X86853858Y-119440252D01*
X86868000Y-119454395D01*
X87840557Y-118481837D01*
X87741958Y-118215035D01*
X87459517Y-118110112D01*
X87792655Y-117972462D01*
X88252846Y-117513073D01*
X88502206Y-116912547D01*
X88502774Y-116262306D01*
X88254462Y-115661345D01*
X88161280Y-115568000D01*
X91186000Y-115568000D01*
X91476839Y-115510148D01*
X91723401Y-115345401D01*
X91879802Y-115189000D01*
X92594430Y-115189000D01*
X92594430Y-115538250D01*
X92748501Y-116058817D01*
X93090056Y-116480798D01*
X93567097Y-116739950D01*
X93638725Y-116754133D01*
X93853000Y-116631479D01*
X93853000Y-115189000D01*
X92594430Y-115189000D01*
X91879802Y-115189000D01*
X92641252Y-114427550D01*
X92594430Y-114585750D01*
X92594430Y-114935000D01*
X93853000Y-114935000D01*
X93853000Y-114915000D01*
X94107000Y-114915000D01*
X94107000Y-114935000D01*
X94127000Y-114935000D01*
X94127000Y-115189000D01*
X94107000Y-115189000D01*
X94107000Y-116631479D01*
X94321275Y-116754133D01*
X94392903Y-116739950D01*
X94869944Y-116480798D01*
X95211499Y-116058817D01*
X95238399Y-115967928D01*
X95239900Y-115975472D01*
X95540254Y-116424983D01*
X95989765Y-116725337D01*
X96520000Y-116830807D01*
X97050235Y-116725337D01*
X97499746Y-116424983D01*
X97790000Y-115990588D01*
X98080254Y-116424983D01*
X98529765Y-116725337D01*
X99060000Y-116830807D01*
X99590235Y-116725337D01*
X100039746Y-116424983D01*
X100330000Y-115990588D01*
X100620254Y-116424983D01*
X100659795Y-116451403D01*
X98522599Y-118588599D01*
X98516204Y-118598170D01*
X98135345Y-118755538D01*
X97675154Y-119214927D01*
X97535966Y-119550130D01*
X97398462Y-119217345D01*
X96939073Y-118757154D01*
X96338547Y-118507794D01*
X95688306Y-118507226D01*
X95087345Y-118755538D01*
X94627154Y-119214927D01*
X94487966Y-119550130D01*
X94350462Y-119217345D01*
X93891073Y-118757154D01*
X93290547Y-118507794D01*
X92640306Y-118507226D01*
X92039345Y-118755538D01*
X91579154Y-119214927D01*
X91439966Y-119550130D01*
X91302462Y-119217345D01*
X90843073Y-118757154D01*
X90242547Y-118507794D01*
X89592306Y-118507226D01*
X88991345Y-118755538D01*
X88531154Y-119214927D01*
X88491619Y-119310139D01*
X88489341Y-119248623D01*
X88286965Y-118760042D01*
X88020163Y-118661443D01*
X87047605Y-119634000D01*
X88020163Y-120606557D01*
X88286965Y-120507958D01*
X88292516Y-120493017D01*
X88529538Y-121066655D01*
X88874480Y-121412199D01*
X88531154Y-121754927D01*
X88281794Y-122355453D01*
X88281226Y-123005694D01*
X88529538Y-123606655D01*
X88891012Y-123968760D01*
X88735868Y-124033023D01*
X88652524Y-124286919D01*
X89535000Y-125169395D01*
X90417476Y-124286919D01*
X90404872Y-124248524D01*
X90840655Y-124068462D01*
X91300846Y-123609073D01*
X91440034Y-123273870D01*
X91577538Y-123606655D01*
X92036927Y-124066846D01*
X92637453Y-124316206D01*
X93287694Y-124316774D01*
X93888655Y-124068462D01*
X94348846Y-123609073D01*
X94488034Y-123273870D01*
X94625538Y-123606655D01*
X95084927Y-124066846D01*
X95252000Y-124136221D01*
X95252000Y-124206000D01*
X95309852Y-124496839D01*
X95474599Y-124743401D01*
X96478622Y-125747424D01*
X95989765Y-125844663D01*
X95540254Y-126145017D01*
X95250000Y-126579412D01*
X94959746Y-126145017D01*
X94510235Y-125844663D01*
X93980000Y-125739193D01*
X93449765Y-125844663D01*
X93000254Y-126145017D01*
X92699900Y-126594528D01*
X92594430Y-127124763D01*
X92594430Y-127891237D01*
X92699900Y-128421472D01*
X93000254Y-128870983D01*
X93449765Y-129171337D01*
X93980000Y-129276807D01*
X94510235Y-129171337D01*
X94959746Y-128870983D01*
X95250000Y-128436588D01*
X95540254Y-128870983D01*
X95989765Y-129171337D01*
X96520000Y-129276807D01*
X97050235Y-129171337D01*
X97123589Y-129122323D01*
X97252599Y-129315401D01*
X100840000Y-132902802D01*
X100840000Y-133618187D01*
X100620254Y-133765017D01*
X100330000Y-134199412D01*
X100039746Y-133765017D01*
X99820000Y-133618187D01*
X99820000Y-133604000D01*
X99762148Y-133313161D01*
X99597401Y-133066599D01*
X98835401Y-132304599D01*
X98588839Y-132139852D01*
X98298000Y-132082000D01*
X92202000Y-132082000D01*
X91911161Y-132139852D01*
X91770432Y-132233884D01*
X91804206Y-132152547D01*
X91804774Y-131502306D01*
X91556462Y-130901345D01*
X91097073Y-130441154D01*
X90596285Y-130233209D01*
X90814394Y-130015480D01*
X91044767Y-129460681D01*
X91045291Y-128859954D01*
X90815887Y-128304754D01*
X90391480Y-127879606D01*
X89836681Y-127649233D01*
X89235954Y-127648709D01*
X88680754Y-127878113D01*
X88255606Y-128302520D01*
X88025233Y-128857319D01*
X88024709Y-129458046D01*
X88254113Y-130013246D01*
X88678520Y-130438394D01*
X89079640Y-130604954D01*
X88899801Y-130784480D01*
X88557073Y-130441154D01*
X87956547Y-130191794D01*
X87306306Y-130191226D01*
X86705345Y-130439538D01*
X86245154Y-130898927D01*
X86229756Y-130936008D01*
X86205805Y-130464462D01*
X86048931Y-130085735D01*
X85807930Y-130017675D01*
X85015605Y-130810000D01*
X85029748Y-130824143D01*
X84850143Y-131003748D01*
X84836000Y-130989605D01*
X84043675Y-131781930D01*
X84111735Y-132022931D01*
X84631034Y-132207767D01*
X84918007Y-132193191D01*
X84298599Y-132812599D01*
X84133852Y-133059161D01*
X84076000Y-133350000D01*
X84076000Y-134704837D01*
X84052163Y-134714686D01*
X83662056Y-135104113D01*
X83651307Y-135130000D01*
X83626802Y-135130000D01*
X83087401Y-134590599D01*
X82840839Y-134425852D01*
X82550000Y-134368000D01*
X81828627Y-134368000D01*
X81798100Y-134214528D01*
X81497746Y-133765017D01*
X81048235Y-133464663D01*
X80518000Y-133359193D01*
X79987765Y-133464663D01*
X79538254Y-133765017D01*
X79248000Y-134199412D01*
X78957746Y-133765017D01*
X78738000Y-133618187D01*
X78738000Y-133604000D01*
X78680148Y-133313161D01*
X78515401Y-133066599D01*
X77753401Y-132304599D01*
X77506839Y-132139852D01*
X77216000Y-132082000D01*
X64543715Y-132082000D01*
X64427073Y-131965154D01*
X64091870Y-131825966D01*
X64424655Y-131688462D01*
X64884846Y-131229073D01*
X65134206Y-130628547D01*
X65134774Y-129978306D01*
X64886462Y-129377345D01*
X64427073Y-128917154D01*
X63826547Y-128667794D01*
X63176306Y-128667226D01*
X62575345Y-128915538D01*
X62229801Y-129260480D01*
X61887073Y-128917154D01*
X61286547Y-128667794D01*
X60636306Y-128667226D01*
X60035345Y-128915538D01*
X59575154Y-129374927D01*
X59325794Y-129975453D01*
X59325226Y-130625694D01*
X59573538Y-131226655D01*
X60032927Y-131686846D01*
X60368130Y-131826034D01*
X60035345Y-131963538D01*
X59575154Y-132422927D01*
X59325794Y-133023453D01*
X59325226Y-133673694D01*
X59573538Y-134274655D01*
X60032927Y-134734846D01*
X60368130Y-134874034D01*
X60035345Y-135011538D01*
X59575154Y-135470927D01*
X59325794Y-136071453D01*
X59325226Y-136721694D01*
X59573538Y-137322655D01*
X60032927Y-137782846D01*
X60633453Y-138032206D01*
X61283694Y-138032774D01*
X61884655Y-137784462D01*
X62119362Y-137550163D01*
X62527443Y-137550163D01*
X62626042Y-137816965D01*
X63235582Y-138043401D01*
X63885377Y-138019341D01*
X64373958Y-137816965D01*
X64472557Y-137550163D01*
X63500000Y-136577605D01*
X62527443Y-137550163D01*
X62119362Y-137550163D01*
X62312401Y-137357461D01*
X62347837Y-137370557D01*
X63320395Y-136398000D01*
X63306252Y-136383858D01*
X63485858Y-136204252D01*
X63500000Y-136218395D01*
X63514142Y-136204252D01*
X63693748Y-136383858D01*
X63679605Y-136398000D01*
X64652163Y-137370557D01*
X64918965Y-137271958D01*
X65145401Y-136662418D01*
X65121341Y-136012623D01*
X64964511Y-135634000D01*
X66995198Y-135634000D01*
X69312599Y-137951401D01*
X69559160Y-138116148D01*
X69607414Y-138125746D01*
X69850000Y-138174000D01*
X74422000Y-138174000D01*
X74712839Y-138116148D01*
X74959401Y-137951401D01*
X75975401Y-136935401D01*
X76140148Y-136688839D01*
X76142986Y-136674572D01*
X76417746Y-136490983D01*
X76708000Y-136056588D01*
X76998254Y-136490983D01*
X77447765Y-136791337D01*
X77978000Y-136896807D01*
X78508235Y-136791337D01*
X78957746Y-136490983D01*
X79248000Y-136056588D01*
X79538254Y-136490983D01*
X79987765Y-136791337D01*
X80518000Y-136896807D01*
X81048235Y-136791337D01*
X81497746Y-136490983D01*
X81798100Y-136041472D01*
X81828627Y-135888000D01*
X82235198Y-135888000D01*
X82774599Y-136427401D01*
X83021161Y-136592148D01*
X83312000Y-136650000D01*
X83650837Y-136650000D01*
X83660686Y-136673837D01*
X84050113Y-137063944D01*
X84559184Y-137275329D01*
X85110398Y-137275810D01*
X85619837Y-137065314D01*
X86009944Y-136675887D01*
X86221329Y-136166816D01*
X86221696Y-135745794D01*
X86243538Y-135798655D01*
X86702927Y-136258846D01*
X87038130Y-136398034D01*
X86705345Y-136535538D01*
X86245154Y-136994927D01*
X85995794Y-137595453D01*
X85995226Y-138245694D01*
X86243538Y-138846655D01*
X86702927Y-139306846D01*
X87303453Y-139556206D01*
X87953694Y-139556774D01*
X88554655Y-139308462D01*
X88789362Y-139074163D01*
X89197443Y-139074163D01*
X89296042Y-139340965D01*
X89905582Y-139567401D01*
X90555377Y-139543341D01*
X91043958Y-139340965D01*
X91142557Y-139074163D01*
X90170000Y-138101605D01*
X89197443Y-139074163D01*
X88789362Y-139074163D01*
X88982401Y-138881461D01*
X89017837Y-138894557D01*
X89990395Y-137922000D01*
X90349605Y-137922000D01*
X91322163Y-138894557D01*
X91588965Y-138795958D01*
X91815401Y-138186418D01*
X91791341Y-137536623D01*
X91588965Y-137048042D01*
X91322163Y-136949443D01*
X90349605Y-137922000D01*
X89990395Y-137922000D01*
X89976252Y-137907858D01*
X90155858Y-137728252D01*
X90170000Y-137742395D01*
X91142557Y-136769837D01*
X91043958Y-136503035D01*
X90761517Y-136398112D01*
X91094655Y-136260462D01*
X91554846Y-135801073D01*
X91781595Y-135255000D01*
X92594430Y-135255000D01*
X92594430Y-135604250D01*
X92748501Y-136124817D01*
X93090056Y-136546798D01*
X93567097Y-136805950D01*
X93638725Y-136820133D01*
X93853000Y-136697479D01*
X93853000Y-135255000D01*
X92594430Y-135255000D01*
X91781595Y-135255000D01*
X91804206Y-135200547D01*
X91804774Y-134550306D01*
X91735691Y-134383111D01*
X92516802Y-133602000D01*
X93287391Y-133602000D01*
X93090056Y-133709202D01*
X92748501Y-134131183D01*
X92594430Y-134651750D01*
X92594430Y-135001000D01*
X93853000Y-135001000D01*
X93853000Y-134981000D01*
X94107000Y-134981000D01*
X94107000Y-135001000D01*
X94127000Y-135001000D01*
X94127000Y-135255000D01*
X94107000Y-135255000D01*
X94107000Y-136697479D01*
X94321275Y-136820133D01*
X94392903Y-136805950D01*
X94869944Y-136546798D01*
X95211499Y-136124817D01*
X95238399Y-136033928D01*
X95239900Y-136041472D01*
X95540254Y-136490983D01*
X95989765Y-136791337D01*
X96520000Y-136896807D01*
X97050235Y-136791337D01*
X97499746Y-136490983D01*
X97790000Y-136056588D01*
X98080254Y-136490983D01*
X98529765Y-136791337D01*
X99060000Y-136896807D01*
X99590235Y-136791337D01*
X100039746Y-136490983D01*
X100330000Y-136056588D01*
X100620254Y-136490983D01*
X101069765Y-136791337D01*
X101600000Y-136896807D01*
X102130235Y-136791337D01*
X102579746Y-136490983D01*
X102797963Y-136164398D01*
X104532190Y-136164398D01*
X104742686Y-136673837D01*
X105132113Y-137063944D01*
X105641184Y-137275329D01*
X106192398Y-137275810D01*
X106701837Y-137065314D01*
X107091944Y-136675887D01*
X107303329Y-136166816D01*
X107303810Y-135615602D01*
X107093314Y-135106163D01*
X106703887Y-134716056D01*
X106194816Y-134504671D01*
X105643602Y-134504190D01*
X105134163Y-134714686D01*
X104744056Y-135104113D01*
X104532671Y-135613184D01*
X104532190Y-136164398D01*
X102797963Y-136164398D01*
X102880100Y-136041472D01*
X102985570Y-135511237D01*
X102985570Y-134744763D01*
X102880100Y-134214528D01*
X102579746Y-133765017D01*
X102360000Y-133618187D01*
X102360000Y-132588000D01*
X102302148Y-132297161D01*
X102137401Y-132050599D01*
X101868732Y-131781930D01*
X105125675Y-131781930D01*
X105193735Y-132022931D01*
X105713034Y-132207767D01*
X106263538Y-132179805D01*
X106642265Y-132022931D01*
X106710325Y-131781930D01*
X105918000Y-130989605D01*
X105125675Y-131781930D01*
X101868732Y-131781930D01*
X100691836Y-130605034D01*
X104520233Y-130605034D01*
X104548195Y-131155538D01*
X104705069Y-131534265D01*
X104946070Y-131602325D01*
X105738395Y-130810000D01*
X106097605Y-130810000D01*
X106889930Y-131602325D01*
X107130931Y-131534265D01*
X107315767Y-131014966D01*
X107287805Y-130464462D01*
X107130931Y-130085735D01*
X106889930Y-130017675D01*
X106097605Y-130810000D01*
X105738395Y-130810000D01*
X104946070Y-130017675D01*
X104705069Y-130085735D01*
X104520233Y-130605034D01*
X100691836Y-130605034D01*
X99924872Y-129838070D01*
X105125675Y-129838070D01*
X105918000Y-130630395D01*
X106710325Y-129838070D01*
X106642265Y-129597069D01*
X106122966Y-129412233D01*
X105572462Y-129440195D01*
X105193735Y-129597069D01*
X105125675Y-129838070D01*
X99924872Y-129838070D01*
X99313237Y-129226435D01*
X99590235Y-129171337D01*
X100039746Y-128870983D01*
X100330000Y-128436588D01*
X100620254Y-128870983D01*
X101069765Y-129171337D01*
X101600000Y-129276807D01*
X102130235Y-129171337D01*
X102579746Y-128870983D01*
X102880100Y-128421472D01*
X102985570Y-127891237D01*
X102985570Y-127124763D01*
X102880100Y-126594528D01*
X102579746Y-126145017D01*
X102130235Y-125844663D01*
X101600000Y-125739193D01*
X101069765Y-125844663D01*
X100620254Y-126145017D01*
X100330000Y-126579412D01*
X100039746Y-126145017D01*
X99590235Y-125844663D01*
X99060000Y-125739193D01*
X98529765Y-125844663D01*
X98523162Y-125849075D01*
X98492148Y-125693161D01*
X98327401Y-125446599D01*
X96942965Y-124062163D01*
X97396846Y-123609073D01*
X97536034Y-123273870D01*
X97673538Y-123606655D01*
X98132927Y-124066846D01*
X98733453Y-124316206D01*
X99383694Y-124316774D01*
X99984655Y-124068462D01*
X100444846Y-123609073D01*
X100584034Y-123273870D01*
X100721538Y-123606655D01*
X101180927Y-124066846D01*
X101781453Y-124316206D01*
X102431694Y-124316774D01*
X103032655Y-124068462D01*
X103492846Y-123609073D01*
X103742206Y-123008547D01*
X103742774Y-122358306D01*
X103494462Y-121757345D01*
X103149520Y-121411801D01*
X103492846Y-121069073D01*
X103562221Y-120902000D01*
X104140000Y-120902000D01*
X104430839Y-120844148D01*
X104677401Y-120679401D01*
X107979401Y-117377401D01*
X108144148Y-117130840D01*
X108202000Y-116840000D01*
X108202000Y-114300000D01*
X108144148Y-114009161D01*
X108144148Y-114009160D01*
X107979401Y-113762599D01*
X106455401Y-112238599D01*
X106208839Y-112073852D01*
X105918000Y-112016000D01*
X93218000Y-112016000D01*
X92927161Y-112073852D01*
X92680599Y-112238599D01*
X91550417Y-113368781D01*
X91550774Y-112960306D01*
X91302462Y-112359345D01*
X90843073Y-111899154D01*
X90701052Y-111840182D01*
X91068394Y-111473480D01*
X91108456Y-111377000D01*
X95123000Y-111377000D01*
X95413839Y-111319148D01*
X95660401Y-111154401D01*
X95860872Y-110953930D01*
X104871675Y-110953930D01*
X104939735Y-111194931D01*
X105459034Y-111379767D01*
X106009538Y-111351805D01*
X106388265Y-111194931D01*
X106456325Y-110953930D01*
X105664000Y-110161605D01*
X104871675Y-110953930D01*
X95860872Y-110953930D01*
X97037768Y-109777034D01*
X104266233Y-109777034D01*
X104294195Y-110327538D01*
X104451069Y-110706265D01*
X104692070Y-110774325D01*
X105484395Y-109982000D01*
X105843605Y-109982000D01*
X106635930Y-110774325D01*
X106876931Y-110706265D01*
X107061767Y-110186966D01*
X107033805Y-109636462D01*
X106876931Y-109257735D01*
X106635930Y-109189675D01*
X105843605Y-109982000D01*
X105484395Y-109982000D01*
X104692070Y-109189675D01*
X104451069Y-109257735D01*
X104266233Y-109777034D01*
X97037768Y-109777034D01*
X97057401Y-109757401D01*
X97222148Y-109510840D01*
X97280000Y-109220000D01*
X97280000Y-108951813D01*
X97499746Y-108804983D01*
X97790000Y-108370588D01*
X98080254Y-108804983D01*
X98529765Y-109105337D01*
X99060000Y-109210807D01*
X99590235Y-109105337D01*
X100039746Y-108804983D01*
X100330000Y-108370588D01*
X100620254Y-108804983D01*
X101069765Y-109105337D01*
X101600000Y-109210807D01*
X102130235Y-109105337D01*
X102272811Y-109010070D01*
X104871675Y-109010070D01*
X105664000Y-109802395D01*
X106456325Y-109010070D01*
X106388265Y-108769069D01*
X105868966Y-108584233D01*
X105318462Y-108612195D01*
X104939735Y-108769069D01*
X104871675Y-109010070D01*
X102272811Y-109010070D01*
X102579746Y-108804983D01*
X102880100Y-108355472D01*
X102985570Y-107825237D01*
X102985570Y-107058763D01*
X102880100Y-106528528D01*
X102579746Y-106079017D01*
X102360000Y-105932187D01*
X102360000Y-104832496D01*
X102524655Y-104764462D01*
X102984846Y-104305073D01*
X103234206Y-103704547D01*
X103234774Y-103054306D01*
X102986462Y-102453345D01*
X102641520Y-102107801D01*
X102984846Y-101765073D01*
X103234206Y-101164547D01*
X103234774Y-100514306D01*
X103224402Y-100489204D01*
X105172599Y-102437401D01*
X105419161Y-102602148D01*
X105710000Y-102660000D01*
X105774621Y-102660000D01*
X105926851Y-102887828D01*
X106349150Y-103170000D01*
X105926851Y-103452172D01*
X105624019Y-103905391D01*
X105517679Y-104440000D01*
X105624019Y-104974609D01*
X105926851Y-105427828D01*
X106349150Y-105710000D01*
X105926851Y-105992172D01*
X105624019Y-106445391D01*
X105517679Y-106980000D01*
X105624019Y-107514609D01*
X105926851Y-107967828D01*
X106380070Y-108270660D01*
X106914679Y-108377000D01*
X108005321Y-108377000D01*
X108539930Y-108270660D01*
X108993149Y-107967828D01*
X109295981Y-107514609D01*
X109402321Y-106980000D01*
X109295981Y-106445391D01*
X108993149Y-105992172D01*
X108570850Y-105710000D01*
X108993149Y-105427828D01*
X109295981Y-104974609D01*
X109402321Y-104440000D01*
X109295981Y-103905391D01*
X108993149Y-103452172D01*
X108570850Y-103170000D01*
X108993149Y-102887828D01*
X109295981Y-102434609D01*
X109402321Y-101900000D01*
X109295981Y-101365391D01*
X108993149Y-100912172D01*
X108556887Y-100620670D01*
X108619941Y-100602059D01*
X109045630Y-100258026D01*
X109307260Y-99777277D01*
X109322220Y-99703070D01*
X109199720Y-99487000D01*
X107587000Y-99487000D01*
X107587000Y-99507000D01*
X107333000Y-99507000D01*
X107333000Y-99487000D01*
X105720280Y-99487000D01*
X105597780Y-99703070D01*
X105612740Y-99777277D01*
X105874370Y-100258026D01*
X106300059Y-100602059D01*
X106363113Y-100620670D01*
X105926851Y-100912172D01*
X105874829Y-100990027D01*
X103153401Y-98268599D01*
X102906839Y-98103852D01*
X102616000Y-98046000D01*
X100584000Y-98046000D01*
X100293161Y-98103852D01*
X100046599Y-98268599D01*
X99043083Y-99272115D01*
X98878547Y-99203794D01*
X98228306Y-99203226D01*
X97627345Y-99451538D01*
X97167154Y-99910927D01*
X97027966Y-100246130D01*
X96890462Y-99913345D01*
X96431073Y-99453154D01*
X95830547Y-99203794D01*
X95180306Y-99203226D01*
X94579345Y-99451538D01*
X94119154Y-99910927D01*
X93979966Y-100246130D01*
X93842462Y-99913345D01*
X93383073Y-99453154D01*
X93216000Y-99383779D01*
X93216000Y-97163070D01*
X105597780Y-97163070D01*
X105612740Y-97237277D01*
X105874370Y-97718026D01*
X106300059Y-98062059D01*
X106394723Y-98090000D01*
X106300059Y-98117941D01*
X105874370Y-98461974D01*
X105612740Y-98942723D01*
X105597780Y-99016930D01*
X105720280Y-99233000D01*
X107333000Y-99233000D01*
X107333000Y-96947000D01*
X107587000Y-96947000D01*
X107587000Y-99233000D01*
X109199720Y-99233000D01*
X109322220Y-99016930D01*
X109307260Y-98942723D01*
X109045630Y-98461974D01*
X108619941Y-98117941D01*
X108525277Y-98090000D01*
X108619941Y-98062059D01*
X109045630Y-97718026D01*
X109307260Y-97237277D01*
X109322220Y-97163070D01*
X109199720Y-96947000D01*
X107587000Y-96947000D01*
X107333000Y-96947000D01*
X105720280Y-96947000D01*
X105597780Y-97163070D01*
X93216000Y-97163070D01*
X93216000Y-94280000D01*
X105517679Y-94280000D01*
X105624019Y-94814609D01*
X105926851Y-95267828D01*
X106363113Y-95559330D01*
X106300059Y-95577941D01*
X105874370Y-95921974D01*
X105612740Y-96402723D01*
X105597780Y-96476930D01*
X105720280Y-96693000D01*
X107333000Y-96693000D01*
X107333000Y-96673000D01*
X107587000Y-96673000D01*
X107587000Y-96693000D01*
X109199720Y-96693000D01*
X109322220Y-96476930D01*
X109307260Y-96402723D01*
X109045630Y-95921974D01*
X108619941Y-95577941D01*
X108556887Y-95559330D01*
X108993149Y-95267828D01*
X109295981Y-94814609D01*
X109402321Y-94280000D01*
X109295981Y-93745391D01*
X108993149Y-93292172D01*
X108539930Y-92989340D01*
X108005321Y-92883000D01*
X106914679Y-92883000D01*
X106380070Y-92989340D01*
X105926851Y-93292172D01*
X105624019Y-93745391D01*
X105517679Y-94280000D01*
X93216000Y-94280000D01*
X93216000Y-88956802D01*
X95728599Y-91469401D01*
G36*
X71344599Y-112043401D02*
X71591161Y-112208148D01*
X71882000Y-112266000D01*
X75885198Y-112266000D01*
X76964000Y-113344802D01*
X76964000Y-113552187D01*
X76744254Y-113699017D01*
X76454000Y-114133412D01*
X76163746Y-113699017D01*
X75714235Y-113398663D01*
X75184000Y-113293193D01*
X74653765Y-113398663D01*
X74204254Y-113699017D01*
X73903900Y-114148528D01*
X73902399Y-114156072D01*
X73875499Y-114065183D01*
X73533944Y-113643202D01*
X73056903Y-113384050D01*
X72985275Y-113369867D01*
X72771000Y-113492521D01*
X72771000Y-114935000D01*
X72791000Y-114935000D01*
X72791000Y-115189000D01*
X72771000Y-115189000D01*
X72771000Y-116631479D01*
X72985275Y-116754133D01*
X73056903Y-116739950D01*
X73533944Y-116480798D01*
X73875499Y-116058817D01*
X73902399Y-115967928D01*
X73903900Y-115975472D01*
X74204254Y-116424983D01*
X74653765Y-116725337D01*
X75184000Y-116830807D01*
X75714235Y-116725337D01*
X76163746Y-116424983D01*
X76454000Y-115990588D01*
X76744254Y-116424983D01*
X77193765Y-116725337D01*
X77724000Y-116830807D01*
X78254235Y-116725337D01*
X78703746Y-116424983D01*
X78994000Y-115990588D01*
X79284254Y-116424983D01*
X79476057Y-116553141D01*
X78933198Y-117096000D01*
X77470000Y-117096000D01*
X77227414Y-117144254D01*
X77179160Y-117153852D01*
X76932599Y-117318599D01*
X75421083Y-118830115D01*
X75256547Y-118761794D01*
X74606306Y-118761226D01*
X74005345Y-119009538D01*
X73545154Y-119468927D01*
X73405966Y-119804130D01*
X73268462Y-119471345D01*
X72809073Y-119011154D01*
X72208547Y-118761794D01*
X71558306Y-118761226D01*
X71118000Y-118943157D01*
X71118000Y-118618000D01*
X71106095Y-118558148D01*
X71060148Y-118327160D01*
X70895401Y-118080599D01*
X69625401Y-116810599D01*
X69378839Y-116645852D01*
X69088000Y-116588000D01*
X68658947Y-116588000D01*
X68996655Y-116448462D01*
X69456846Y-115989073D01*
X69706206Y-115388547D01*
X69706380Y-115189000D01*
X71258430Y-115189000D01*
X71258430Y-115538250D01*
X71412501Y-116058817D01*
X71754056Y-116480798D01*
X72231097Y-116739950D01*
X72302725Y-116754133D01*
X72517000Y-116631479D01*
X72517000Y-115189000D01*
X71258430Y-115189000D01*
X69706380Y-115189000D01*
X69706774Y-114738306D01*
X69643740Y-114585750D01*
X71258430Y-114585750D01*
X71258430Y-114935000D01*
X72517000Y-114935000D01*
X72517000Y-113492521D01*
X72302725Y-113369867D01*
X72231097Y-113384050D01*
X71754056Y-113643202D01*
X71412501Y-114065183D01*
X71258430Y-114585750D01*
X69643740Y-114585750D01*
X69458462Y-114137345D01*
X68999073Y-113677154D01*
X68678149Y-113543895D01*
X68945958Y-113432965D01*
X69044557Y-113166163D01*
X68072000Y-112193605D01*
X67099443Y-113166163D01*
X67198042Y-113432965D01*
X67480483Y-113537888D01*
X67147345Y-113675538D01*
X66801801Y-114020480D01*
X66459073Y-113677154D01*
X66123870Y-113537966D01*
X66456655Y-113400462D01*
X66884401Y-112973461D01*
X66919837Y-112986557D01*
X67892395Y-112014000D01*
X67878252Y-111999858D01*
X68057858Y-111820252D01*
X68072000Y-111834395D01*
X68086142Y-111820252D01*
X68265748Y-111999858D01*
X68251605Y-112014000D01*
X69224163Y-112986557D01*
X69490965Y-112887958D01*
X69717401Y-112278418D01*
X69693341Y-111628623D01*
X69536511Y-111250000D01*
X70551198Y-111250000D01*
X71344599Y-112043401D01*
X71344599Y-112043401D01*
G37*
X71344599Y-112043401D02*
X71591161Y-112208148D01*
X71882000Y-112266000D01*
X75885198Y-112266000D01*
X76964000Y-113344802D01*
X76964000Y-113552187D01*
X76744254Y-113699017D01*
X76454000Y-114133412D01*
X76163746Y-113699017D01*
X75714235Y-113398663D01*
X75184000Y-113293193D01*
X74653765Y-113398663D01*
X74204254Y-113699017D01*
X73903900Y-114148528D01*
X73902399Y-114156072D01*
X73875499Y-114065183D01*
X73533944Y-113643202D01*
X73056903Y-113384050D01*
X72985275Y-113369867D01*
X72771000Y-113492521D01*
X72771000Y-114935000D01*
X72791000Y-114935000D01*
X72791000Y-115189000D01*
X72771000Y-115189000D01*
X72771000Y-116631479D01*
X72985275Y-116754133D01*
X73056903Y-116739950D01*
X73533944Y-116480798D01*
X73875499Y-116058817D01*
X73902399Y-115967928D01*
X73903900Y-115975472D01*
X74204254Y-116424983D01*
X74653765Y-116725337D01*
X75184000Y-116830807D01*
X75714235Y-116725337D01*
X76163746Y-116424983D01*
X76454000Y-115990588D01*
X76744254Y-116424983D01*
X77193765Y-116725337D01*
X77724000Y-116830807D01*
X78254235Y-116725337D01*
X78703746Y-116424983D01*
X78994000Y-115990588D01*
X79284254Y-116424983D01*
X79476057Y-116553141D01*
X78933198Y-117096000D01*
X77470000Y-117096000D01*
X77227414Y-117144254D01*
X77179160Y-117153852D01*
X76932599Y-117318599D01*
X75421083Y-118830115D01*
X75256547Y-118761794D01*
X74606306Y-118761226D01*
X74005345Y-119009538D01*
X73545154Y-119468927D01*
X73405966Y-119804130D01*
X73268462Y-119471345D01*
X72809073Y-119011154D01*
X72208547Y-118761794D01*
X71558306Y-118761226D01*
X71118000Y-118943157D01*
X71118000Y-118618000D01*
X71106095Y-118558148D01*
X71060148Y-118327160D01*
X70895401Y-118080599D01*
X69625401Y-116810599D01*
X69378839Y-116645852D01*
X69088000Y-116588000D01*
X68658947Y-116588000D01*
X68996655Y-116448462D01*
X69456846Y-115989073D01*
X69706206Y-115388547D01*
X69706380Y-115189000D01*
X71258430Y-115189000D01*
X71258430Y-115538250D01*
X71412501Y-116058817D01*
X71754056Y-116480798D01*
X72231097Y-116739950D01*
X72302725Y-116754133D01*
X72517000Y-116631479D01*
X72517000Y-115189000D01*
X71258430Y-115189000D01*
X69706380Y-115189000D01*
X69706774Y-114738306D01*
X69643740Y-114585750D01*
X71258430Y-114585750D01*
X71258430Y-114935000D01*
X72517000Y-114935000D01*
X72517000Y-113492521D01*
X72302725Y-113369867D01*
X72231097Y-113384050D01*
X71754056Y-113643202D01*
X71412501Y-114065183D01*
X71258430Y-114585750D01*
X69643740Y-114585750D01*
X69458462Y-114137345D01*
X68999073Y-113677154D01*
X68678149Y-113543895D01*
X68945958Y-113432965D01*
X69044557Y-113166163D01*
X68072000Y-112193605D01*
X67099443Y-113166163D01*
X67198042Y-113432965D01*
X67480483Y-113537888D01*
X67147345Y-113675538D01*
X66801801Y-114020480D01*
X66459073Y-113677154D01*
X66123870Y-113537966D01*
X66456655Y-113400462D01*
X66884401Y-112973461D01*
X66919837Y-112986557D01*
X67892395Y-112014000D01*
X67878252Y-111999858D01*
X68057858Y-111820252D01*
X68072000Y-111834395D01*
X68086142Y-111820252D01*
X68265748Y-111999858D01*
X68251605Y-112014000D01*
X69224163Y-112986557D01*
X69490965Y-112887958D01*
X69717401Y-112278418D01*
X69693341Y-111628623D01*
X69536511Y-111250000D01*
X70551198Y-111250000D01*
X71344599Y-112043401D01*
G36*
X72008056Y-133709202D02*
X71666501Y-134131183D01*
X71512430Y-134651750D01*
X71512430Y-135001000D01*
X72771000Y-135001000D01*
X72771000Y-134981000D01*
X73025000Y-134981000D01*
X73025000Y-135001000D01*
X73045000Y-135001000D01*
X73045000Y-135255000D01*
X73025000Y-135255000D01*
X73025000Y-135275000D01*
X72771000Y-135275000D01*
X72771000Y-135255000D01*
X71512430Y-135255000D01*
X71512430Y-135604250D01*
X71666501Y-136124817D01*
X72008056Y-136546798D01*
X72205391Y-136654000D01*
X70164802Y-136654000D01*
X67847401Y-134336599D01*
X67600839Y-134171852D01*
X67310000Y-134114000D01*
X64952560Y-134114000D01*
X65134206Y-133676547D01*
X65134271Y-133602000D01*
X72205391Y-133602000D01*
X72008056Y-133709202D01*
X72008056Y-133709202D01*
G37*
X72008056Y-133709202D02*
X71666501Y-134131183D01*
X71512430Y-134651750D01*
X71512430Y-135001000D01*
X72771000Y-135001000D01*
X72771000Y-134981000D01*
X73025000Y-134981000D01*
X73025000Y-135001000D01*
X73045000Y-135001000D01*
X73045000Y-135255000D01*
X73025000Y-135255000D01*
X73025000Y-135275000D01*
X72771000Y-135275000D01*
X72771000Y-135255000D01*
X71512430Y-135255000D01*
X71512430Y-135604250D01*
X71666501Y-136124817D01*
X72008056Y-136546798D01*
X72205391Y-136654000D01*
X70164802Y-136654000D01*
X67847401Y-134336599D01*
X67600839Y-134171852D01*
X67310000Y-134114000D01*
X64952560Y-134114000D01*
X65134206Y-133676547D01*
X65134271Y-133602000D01*
X72205391Y-133602000D01*
X72008056Y-133709202D01*
G36*
X83542113Y-109631944D02*
X83568000Y-109642693D01*
X83568000Y-109728000D01*
X83625852Y-110018839D01*
X83790599Y-110265401D01*
X85959164Y-112433966D01*
X85741794Y-112957453D01*
X85741226Y-113607694D01*
X85923157Y-114048000D01*
X85617195Y-114048000D01*
X85725767Y-113742966D01*
X85697805Y-113192462D01*
X85540931Y-112813735D01*
X85299930Y-112745675D01*
X84507605Y-113538000D01*
X84521748Y-113552143D01*
X84342143Y-113731748D01*
X84328000Y-113717605D01*
X84313858Y-113731748D01*
X84134253Y-113552143D01*
X84148395Y-113538000D01*
X83356070Y-112745675D01*
X83310000Y-112758685D01*
X83310000Y-112566070D01*
X83535675Y-112566070D01*
X84328000Y-113358395D01*
X85120325Y-112566070D01*
X85052265Y-112325069D01*
X84532966Y-112140233D01*
X83982462Y-112168195D01*
X83603735Y-112325069D01*
X83535675Y-112566070D01*
X83310000Y-112566070D01*
X83310000Y-109399426D01*
X83542113Y-109631944D01*
X83542113Y-109631944D01*
G37*
X83542113Y-109631944D02*
X83568000Y-109642693D01*
X83568000Y-109728000D01*
X83625852Y-110018839D01*
X83790599Y-110265401D01*
X85959164Y-112433966D01*
X85741794Y-112957453D01*
X85741226Y-113607694D01*
X85923157Y-114048000D01*
X85617195Y-114048000D01*
X85725767Y-113742966D01*
X85697805Y-113192462D01*
X85540931Y-112813735D01*
X85299930Y-112745675D01*
X84507605Y-113538000D01*
X84521748Y-113552143D01*
X84342143Y-113731748D01*
X84328000Y-113717605D01*
X84313858Y-113731748D01*
X84134253Y-113552143D01*
X84148395Y-113538000D01*
X83356070Y-112745675D01*
X83310000Y-112758685D01*
X83310000Y-112566070D01*
X83535675Y-112566070D01*
X84328000Y-113358395D01*
X85120325Y-112566070D01*
X85052265Y-112325069D01*
X84532966Y-112140233D01*
X83982462Y-112168195D01*
X83603735Y-112325069D01*
X83535675Y-112566070D01*
X83310000Y-112566070D01*
X83310000Y-109399426D01*
X83542113Y-109631944D01*
G36*
X91696000Y-89214802D02*
X91696000Y-99383504D01*
X91531345Y-99451538D01*
X91071154Y-99910927D01*
X90931966Y-100246130D01*
X90794462Y-99913345D01*
X90335073Y-99453154D01*
X89734547Y-99203794D01*
X89084306Y-99203226D01*
X88483345Y-99451538D01*
X88023154Y-99910927D01*
X87773794Y-100511453D01*
X87773226Y-101161694D01*
X88021538Y-101762655D01*
X88366480Y-102108199D01*
X88023154Y-102450927D01*
X87773794Y-103051453D01*
X87773226Y-103701694D01*
X88021538Y-104302655D01*
X88480927Y-104762846D01*
X89081453Y-105012206D01*
X89731694Y-105012774D01*
X90332655Y-104764462D01*
X90792846Y-104305073D01*
X90932034Y-103969870D01*
X91069538Y-104302655D01*
X91528927Y-104762846D01*
X91696000Y-104832221D01*
X91696000Y-105918000D01*
X91753852Y-106208839D01*
X91918599Y-106455401D01*
X92594430Y-107131232D01*
X92594430Y-107825237D01*
X92699900Y-108355472D01*
X93000254Y-108804983D01*
X93449765Y-109105337D01*
X93980000Y-109210807D01*
X94510235Y-109105337D01*
X94959746Y-108804983D01*
X95250000Y-108370588D01*
X95540254Y-108804983D01*
X95732057Y-108933141D01*
X94808198Y-109857000D01*
X91108829Y-109857000D01*
X91069887Y-109762754D01*
X90645480Y-109337606D01*
X90090681Y-109107233D01*
X89489954Y-109106709D01*
X88934754Y-109336113D01*
X88509606Y-109760520D01*
X88279233Y-110315319D01*
X88278709Y-110916046D01*
X88508113Y-111471246D01*
X88932520Y-111896394D01*
X88974874Y-111913981D01*
X88645801Y-112242480D01*
X88303073Y-111899154D01*
X87702547Y-111649794D01*
X87324266Y-111649464D01*
X85210062Y-109535260D01*
X85501944Y-109243887D01*
X85598628Y-109011046D01*
X85738709Y-109011046D01*
X85968113Y-109566246D01*
X86392520Y-109991394D01*
X86947319Y-110221767D01*
X87548046Y-110222291D01*
X88103246Y-109992887D01*
X88528394Y-109568480D01*
X88758767Y-109013681D01*
X88759291Y-108412954D01*
X88534568Y-107869081D01*
X88906524Y-107869081D01*
X88989868Y-108122977D01*
X89554300Y-108328619D01*
X90154464Y-108302609D01*
X90588132Y-108122977D01*
X90671476Y-107869081D01*
X89789000Y-106986605D01*
X88906524Y-107869081D01*
X88534568Y-107869081D01*
X88529887Y-107857754D01*
X88105480Y-107432606D01*
X87550681Y-107202233D01*
X86949954Y-107201709D01*
X86394754Y-107431113D01*
X85969606Y-107855520D01*
X85739233Y-108410319D01*
X85738709Y-109011046D01*
X85598628Y-109011046D01*
X85713329Y-108734816D01*
X85713810Y-108183602D01*
X85503314Y-107674163D01*
X85113887Y-107284056D01*
X85088000Y-107273307D01*
X85088000Y-106572300D01*
X88267381Y-106572300D01*
X88293391Y-107172464D01*
X88473023Y-107606132D01*
X88726919Y-107689476D01*
X89609395Y-106807000D01*
X89968605Y-106807000D01*
X90851081Y-107689476D01*
X91104977Y-107606132D01*
X91310619Y-107041700D01*
X91284609Y-106441536D01*
X91104977Y-106007868D01*
X90851081Y-105924524D01*
X89968605Y-106807000D01*
X89609395Y-106807000D01*
X88726919Y-105924524D01*
X88473023Y-106007868D01*
X88267381Y-106572300D01*
X85088000Y-106572300D01*
X85088000Y-105744919D01*
X88906524Y-105744919D01*
X89789000Y-106627395D01*
X90671476Y-105744919D01*
X90588132Y-105491023D01*
X90023700Y-105285381D01*
X89423536Y-105311391D01*
X88989868Y-105491023D01*
X88906524Y-105744919D01*
X85088000Y-105744919D01*
X85088000Y-105470802D01*
X87151401Y-103407401D01*
X87316148Y-103160840D01*
X87374000Y-102870000D01*
X87374000Y-93980000D01*
X87316148Y-93689161D01*
X87316148Y-93689160D01*
X87151401Y-93442599D01*
X85627401Y-91918599D01*
X85617830Y-91912204D01*
X85460462Y-91531345D01*
X85001073Y-91071154D01*
X84400547Y-90821794D01*
X83750306Y-90821226D01*
X83583111Y-90890309D01*
X82802000Y-90109198D01*
X82802000Y-89647813D01*
X83021746Y-89500983D01*
X83322100Y-89051472D01*
X83352627Y-88898000D01*
X85598000Y-88898000D01*
X85888839Y-88840148D01*
X86135401Y-88675401D01*
X86293802Y-88517000D01*
X87587837Y-88517000D01*
X87597686Y-88540837D01*
X87987113Y-88930944D01*
X88496184Y-89142329D01*
X89047398Y-89142810D01*
X89556837Y-88932314D01*
X89946944Y-88542887D01*
X90158329Y-88033816D01*
X90158640Y-87677442D01*
X91696000Y-89214802D01*
X91696000Y-89214802D01*
G37*
X91696000Y-89214802D02*
X91696000Y-99383504D01*
X91531345Y-99451538D01*
X91071154Y-99910927D01*
X90931966Y-100246130D01*
X90794462Y-99913345D01*
X90335073Y-99453154D01*
X89734547Y-99203794D01*
X89084306Y-99203226D01*
X88483345Y-99451538D01*
X88023154Y-99910927D01*
X87773794Y-100511453D01*
X87773226Y-101161694D01*
X88021538Y-101762655D01*
X88366480Y-102108199D01*
X88023154Y-102450927D01*
X87773794Y-103051453D01*
X87773226Y-103701694D01*
X88021538Y-104302655D01*
X88480927Y-104762846D01*
X89081453Y-105012206D01*
X89731694Y-105012774D01*
X90332655Y-104764462D01*
X90792846Y-104305073D01*
X90932034Y-103969870D01*
X91069538Y-104302655D01*
X91528927Y-104762846D01*
X91696000Y-104832221D01*
X91696000Y-105918000D01*
X91753852Y-106208839D01*
X91918599Y-106455401D01*
X92594430Y-107131232D01*
X92594430Y-107825237D01*
X92699900Y-108355472D01*
X93000254Y-108804983D01*
X93449765Y-109105337D01*
X93980000Y-109210807D01*
X94510235Y-109105337D01*
X94959746Y-108804983D01*
X95250000Y-108370588D01*
X95540254Y-108804983D01*
X95732057Y-108933141D01*
X94808198Y-109857000D01*
X91108829Y-109857000D01*
X91069887Y-109762754D01*
X90645480Y-109337606D01*
X90090681Y-109107233D01*
X89489954Y-109106709D01*
X88934754Y-109336113D01*
X88509606Y-109760520D01*
X88279233Y-110315319D01*
X88278709Y-110916046D01*
X88508113Y-111471246D01*
X88932520Y-111896394D01*
X88974874Y-111913981D01*
X88645801Y-112242480D01*
X88303073Y-111899154D01*
X87702547Y-111649794D01*
X87324266Y-111649464D01*
X85210062Y-109535260D01*
X85501944Y-109243887D01*
X85598628Y-109011046D01*
X85738709Y-109011046D01*
X85968113Y-109566246D01*
X86392520Y-109991394D01*
X86947319Y-110221767D01*
X87548046Y-110222291D01*
X88103246Y-109992887D01*
X88528394Y-109568480D01*
X88758767Y-109013681D01*
X88759291Y-108412954D01*
X88534568Y-107869081D01*
X88906524Y-107869081D01*
X88989868Y-108122977D01*
X89554300Y-108328619D01*
X90154464Y-108302609D01*
X90588132Y-108122977D01*
X90671476Y-107869081D01*
X89789000Y-106986605D01*
X88906524Y-107869081D01*
X88534568Y-107869081D01*
X88529887Y-107857754D01*
X88105480Y-107432606D01*
X87550681Y-107202233D01*
X86949954Y-107201709D01*
X86394754Y-107431113D01*
X85969606Y-107855520D01*
X85739233Y-108410319D01*
X85738709Y-109011046D01*
X85598628Y-109011046D01*
X85713329Y-108734816D01*
X85713810Y-108183602D01*
X85503314Y-107674163D01*
X85113887Y-107284056D01*
X85088000Y-107273307D01*
X85088000Y-106572300D01*
X88267381Y-106572300D01*
X88293391Y-107172464D01*
X88473023Y-107606132D01*
X88726919Y-107689476D01*
X89609395Y-106807000D01*
X89968605Y-106807000D01*
X90851081Y-107689476D01*
X91104977Y-107606132D01*
X91310619Y-107041700D01*
X91284609Y-106441536D01*
X91104977Y-106007868D01*
X90851081Y-105924524D01*
X89968605Y-106807000D01*
X89609395Y-106807000D01*
X88726919Y-105924524D01*
X88473023Y-106007868D01*
X88267381Y-106572300D01*
X85088000Y-106572300D01*
X85088000Y-105744919D01*
X88906524Y-105744919D01*
X89789000Y-106627395D01*
X90671476Y-105744919D01*
X90588132Y-105491023D01*
X90023700Y-105285381D01*
X89423536Y-105311391D01*
X88989868Y-105491023D01*
X88906524Y-105744919D01*
X85088000Y-105744919D01*
X85088000Y-105470802D01*
X87151401Y-103407401D01*
X87316148Y-103160840D01*
X87374000Y-102870000D01*
X87374000Y-93980000D01*
X87316148Y-93689161D01*
X87316148Y-93689160D01*
X87151401Y-93442599D01*
X85627401Y-91918599D01*
X85617830Y-91912204D01*
X85460462Y-91531345D01*
X85001073Y-91071154D01*
X84400547Y-90821794D01*
X83750306Y-90821226D01*
X83583111Y-90890309D01*
X82802000Y-90109198D01*
X82802000Y-89647813D01*
X83021746Y-89500983D01*
X83322100Y-89051472D01*
X83352627Y-88898000D01*
X85598000Y-88898000D01*
X85888839Y-88840148D01*
X86135401Y-88675401D01*
X86293802Y-88517000D01*
X87587837Y-88517000D01*
X87597686Y-88540837D01*
X87987113Y-88930944D01*
X88496184Y-89142329D01*
X89047398Y-89142810D01*
X89556837Y-88932314D01*
X89946944Y-88542887D01*
X90158329Y-88033816D01*
X90158640Y-87677442D01*
X91696000Y-89214802D01*
G36*
X100174147Y-72483310D02*
X99776953Y-73439860D01*
X99776049Y-74475596D01*
X100171573Y-75432838D01*
X100827311Y-76089721D01*
X100532266Y-76089464D01*
X98835401Y-74392599D01*
X98588839Y-74227852D01*
X98298000Y-74170000D01*
X97466496Y-74170000D01*
X97398462Y-74005345D01*
X96939073Y-73545154D01*
X96338547Y-73295794D01*
X95688306Y-73295226D01*
X95087345Y-73543538D01*
X94627154Y-74002927D01*
X94377794Y-74603453D01*
X94377226Y-75253694D01*
X94625538Y-75854655D01*
X95052539Y-76282401D01*
X95039443Y-76317837D01*
X96012000Y-77290395D01*
X96984557Y-76317837D01*
X96971276Y-76281901D01*
X97396846Y-75857073D01*
X97466221Y-75690000D01*
X97983198Y-75690000D01*
X99167164Y-76873966D01*
X98949794Y-77397453D01*
X98949226Y-78047694D01*
X99197538Y-78648655D01*
X99542480Y-78994199D01*
X99199154Y-79336927D01*
X98949794Y-79937453D01*
X98949226Y-80587694D01*
X99197538Y-81188655D01*
X99656927Y-81648846D01*
X100257453Y-81898206D01*
X100907694Y-81898774D01*
X101508655Y-81650462D01*
X101968846Y-81191073D01*
X102218206Y-80590547D01*
X102218774Y-79940306D01*
X101970462Y-79339345D01*
X101625520Y-78993801D01*
X101968846Y-78651073D01*
X102218206Y-78050547D01*
X102218774Y-77400306D01*
X101970462Y-76799345D01*
X101645877Y-76474194D01*
X101859860Y-76563047D01*
X102895596Y-76563951D01*
X103852838Y-76168427D01*
X104585853Y-75436690D01*
X104983047Y-74480140D01*
X104983951Y-73444404D01*
X104588427Y-72487162D01*
X104235881Y-72134000D01*
X104333198Y-72134000D01*
X107302198Y-75103000D01*
X106914679Y-75103000D01*
X106380070Y-75209340D01*
X105926851Y-75512172D01*
X105624019Y-75965391D01*
X105517679Y-76500000D01*
X105624019Y-77034609D01*
X105926851Y-77487828D01*
X106349150Y-77770000D01*
X105926851Y-78052172D01*
X105624019Y-78505391D01*
X105517679Y-79040000D01*
X105624019Y-79574609D01*
X105926851Y-80027828D01*
X106349150Y-80310000D01*
X105926851Y-80592172D01*
X105624019Y-81045391D01*
X105517679Y-81580000D01*
X105624019Y-82114609D01*
X105926851Y-82567828D01*
X106349150Y-82850000D01*
X105926851Y-83132172D01*
X105624019Y-83585391D01*
X105517679Y-84120000D01*
X105624019Y-84654609D01*
X105926851Y-85107828D01*
X106349150Y-85390000D01*
X105926851Y-85672172D01*
X105774621Y-85900000D01*
X100690802Y-85900000D01*
X98327401Y-83536599D01*
X98080839Y-83371852D01*
X97790000Y-83314000D01*
X90016992Y-83314000D01*
X90170767Y-82881966D01*
X90142805Y-82331462D01*
X89985931Y-81952735D01*
X89744930Y-81884675D01*
X88952605Y-82677000D01*
X88966748Y-82691143D01*
X88787143Y-82870748D01*
X88773000Y-82856605D01*
X88758858Y-82870748D01*
X88579253Y-82691143D01*
X88593395Y-82677000D01*
X87801070Y-81884675D01*
X87560069Y-81952735D01*
X87375233Y-82472034D01*
X87403195Y-83022538D01*
X87523923Y-83314000D01*
X64770000Y-83314000D01*
X64479161Y-83371852D01*
X64232599Y-83536599D01*
X61438599Y-86330599D01*
X61273852Y-86577161D01*
X61216000Y-86868000D01*
X61216000Y-93218000D01*
X61273852Y-93508839D01*
X61438599Y-93755401D01*
X62454599Y-94771401D01*
X62701161Y-94936148D01*
X62790982Y-94954015D01*
X62875538Y-95158655D01*
X62968720Y-95252000D01*
X60743725Y-95252000D01*
X61035981Y-94814609D01*
X61142321Y-94280000D01*
X61035981Y-93745391D01*
X60733149Y-93292172D01*
X60310850Y-93010000D01*
X60733149Y-92727828D01*
X61035981Y-92274609D01*
X61142321Y-91740000D01*
X61035981Y-91205391D01*
X60733149Y-90752172D01*
X60310850Y-90470000D01*
X60733149Y-90187828D01*
X61035981Y-89734609D01*
X61142321Y-89200000D01*
X61035981Y-88665391D01*
X60733149Y-88212172D01*
X60310850Y-87930000D01*
X60733149Y-87647828D01*
X61035981Y-87194609D01*
X61142321Y-86660000D01*
X61035981Y-86125391D01*
X60733149Y-85672172D01*
X60310850Y-85390000D01*
X60733149Y-85107828D01*
X61035981Y-84654609D01*
X61142321Y-84120000D01*
X61035981Y-83585391D01*
X60733149Y-83132172D01*
X60310850Y-82850000D01*
X60733149Y-82567828D01*
X61035981Y-82114609D01*
X61142321Y-81580000D01*
X61035981Y-81045391D01*
X60768448Y-80645000D01*
X62876430Y-80645000D01*
X62876430Y-80994250D01*
X63030501Y-81514817D01*
X63372056Y-81936798D01*
X63849097Y-82195950D01*
X63920725Y-82210133D01*
X64135000Y-82087479D01*
X64135000Y-80645000D01*
X64389000Y-80645000D01*
X64389000Y-82087479D01*
X64603275Y-82210133D01*
X64674903Y-82195950D01*
X65151944Y-81936798D01*
X65493499Y-81514817D01*
X65532000Y-81384732D01*
X65570501Y-81514817D01*
X65912056Y-81936798D01*
X66389097Y-82195950D01*
X66460725Y-82210133D01*
X66675000Y-82087479D01*
X66675000Y-80645000D01*
X66929000Y-80645000D01*
X66929000Y-82087479D01*
X67143275Y-82210133D01*
X67214903Y-82195950D01*
X67691944Y-81936798D01*
X68033499Y-81514817D01*
X68072000Y-81384732D01*
X68110501Y-81514817D01*
X68452056Y-81936798D01*
X68929097Y-82195950D01*
X69000725Y-82210133D01*
X69215000Y-82087479D01*
X69215000Y-80645000D01*
X66929000Y-80645000D01*
X66675000Y-80645000D01*
X64389000Y-80645000D01*
X64135000Y-80645000D01*
X62876430Y-80645000D01*
X60768448Y-80645000D01*
X60733149Y-80592172D01*
X60310850Y-80310000D01*
X60712313Y-80041750D01*
X62876430Y-80041750D01*
X62876430Y-80391000D01*
X64135000Y-80391000D01*
X64135000Y-78948521D01*
X64389000Y-78948521D01*
X64389000Y-80391000D01*
X66675000Y-80391000D01*
X66675000Y-78948521D01*
X66929000Y-78948521D01*
X66929000Y-80391000D01*
X69215000Y-80391000D01*
X69215000Y-78948521D01*
X69000725Y-78825867D01*
X68929097Y-78840050D01*
X68452056Y-79099202D01*
X68110501Y-79521183D01*
X68072000Y-79651268D01*
X68033499Y-79521183D01*
X67691944Y-79099202D01*
X67214903Y-78840050D01*
X67143275Y-78825867D01*
X66929000Y-78948521D01*
X66675000Y-78948521D01*
X66460725Y-78825867D01*
X66389097Y-78840050D01*
X65912056Y-79099202D01*
X65570501Y-79521183D01*
X65532000Y-79651268D01*
X65493499Y-79521183D01*
X65151944Y-79099202D01*
X64674903Y-78840050D01*
X64603275Y-78825867D01*
X64389000Y-78948521D01*
X64135000Y-78948521D01*
X63920725Y-78825867D01*
X63849097Y-78840050D01*
X63372056Y-79099202D01*
X63030501Y-79521183D01*
X62876430Y-80041750D01*
X60712313Y-80041750D01*
X60733149Y-80027828D01*
X61035981Y-79574609D01*
X61142321Y-79040000D01*
X61035981Y-78505391D01*
X61014451Y-78473169D01*
X61250839Y-78426148D01*
X61497401Y-78261401D01*
X61782802Y-77976000D01*
X71821198Y-77976000D01*
X73265198Y-79420000D01*
X73152000Y-79589412D01*
X72861746Y-79155017D01*
X72412235Y-78854663D01*
X71882000Y-78749193D01*
X71351765Y-78854663D01*
X70902254Y-79155017D01*
X70601900Y-79604528D01*
X70600399Y-79612072D01*
X70573499Y-79521183D01*
X70231944Y-79099202D01*
X69754903Y-78840050D01*
X69683275Y-78825867D01*
X69469000Y-78948521D01*
X69469000Y-80391000D01*
X69489000Y-80391000D01*
X69489000Y-80645000D01*
X69469000Y-80645000D01*
X69469000Y-82087479D01*
X69683275Y-82210133D01*
X69754903Y-82195950D01*
X70231944Y-81936798D01*
X70573499Y-81514817D01*
X70600399Y-81423928D01*
X70601900Y-81431472D01*
X70902254Y-81880983D01*
X71351765Y-82181337D01*
X71882000Y-82286807D01*
X72412235Y-82181337D01*
X72861746Y-81880983D01*
X73152000Y-81446588D01*
X73442254Y-81880983D01*
X73891765Y-82181337D01*
X74422000Y-82286807D01*
X74952235Y-82181337D01*
X75401746Y-81880983D01*
X75692000Y-81446588D01*
X75982254Y-81880983D01*
X76431765Y-82181337D01*
X76962000Y-82286807D01*
X77492235Y-82181337D01*
X77941746Y-81880983D01*
X78232000Y-81446588D01*
X78522254Y-81880983D01*
X78971765Y-82181337D01*
X79502000Y-82286807D01*
X80032235Y-82181337D01*
X80481746Y-81880983D01*
X80772000Y-81446588D01*
X81062254Y-81880983D01*
X81511765Y-82181337D01*
X82042000Y-82286807D01*
X82572235Y-82181337D01*
X83021746Y-81880983D01*
X83139287Y-81705070D01*
X87980675Y-81705070D01*
X88773000Y-82497395D01*
X89565325Y-81705070D01*
X89497265Y-81464069D01*
X88977966Y-81279233D01*
X88427462Y-81307195D01*
X88048735Y-81464069D01*
X87980675Y-81705070D01*
X83139287Y-81705070D01*
X83322100Y-81431472D01*
X83427570Y-80901237D01*
X83427570Y-80134763D01*
X83322100Y-79604528D01*
X83021746Y-79155017D01*
X82572235Y-78854663D01*
X82042000Y-78749193D01*
X81511765Y-78854663D01*
X81062254Y-79155017D01*
X80772000Y-79589412D01*
X80481746Y-79155017D01*
X80032235Y-78854663D01*
X79502000Y-78749193D01*
X78971765Y-78854663D01*
X78522254Y-79155017D01*
X78232000Y-79589412D01*
X77941746Y-79155017D01*
X77722000Y-79008187D01*
X77722000Y-77530802D01*
X77867726Y-77385076D01*
X78193927Y-77711846D01*
X78794453Y-77961206D01*
X79444694Y-77961774D01*
X80045655Y-77713462D01*
X80505846Y-77254073D01*
X80755206Y-76653547D01*
X80755774Y-76003306D01*
X80507462Y-75402345D01*
X80162520Y-75056801D01*
X80505846Y-74714073D01*
X80575221Y-74547000D01*
X80584198Y-74547000D01*
X81504599Y-75467401D01*
X81751161Y-75632148D01*
X82042000Y-75690000D01*
X82365504Y-75690000D01*
X82433538Y-75854655D01*
X82778480Y-76200199D01*
X82435154Y-76542927D01*
X82185794Y-77143453D01*
X82185226Y-77793694D01*
X82433538Y-78394655D01*
X82892927Y-78854846D01*
X83493453Y-79104206D01*
X84143694Y-79104774D01*
X84744655Y-78856462D01*
X85204846Y-78397073D01*
X85274221Y-78230000D01*
X85791198Y-78230000D01*
X87600599Y-80039401D01*
X87847161Y-80204148D01*
X88138000Y-80262000D01*
X90678000Y-80262000D01*
X90968839Y-80204148D01*
X91215401Y-80039401D01*
X92218917Y-79035885D01*
X92383453Y-79104206D01*
X93033694Y-79104774D01*
X93634655Y-78856462D01*
X93869363Y-78622163D01*
X95039443Y-78622163D01*
X95138042Y-78888965D01*
X95747582Y-79115401D01*
X96397377Y-79091341D01*
X96885958Y-78888965D01*
X96984557Y-78622163D01*
X96012000Y-77649605D01*
X95039443Y-78622163D01*
X93869363Y-78622163D01*
X94094846Y-78397073D01*
X94344206Y-77796547D01*
X94344722Y-77205582D01*
X94366599Y-77205582D01*
X94390659Y-77855377D01*
X94593035Y-78343958D01*
X94859837Y-78442557D01*
X95832395Y-77470000D01*
X96191605Y-77470000D01*
X97164163Y-78442557D01*
X97430965Y-78343958D01*
X97657401Y-77734418D01*
X97633341Y-77084623D01*
X97430965Y-76596042D01*
X97164163Y-76497443D01*
X96191605Y-77470000D01*
X95832395Y-77470000D01*
X94859837Y-76497443D01*
X94593035Y-76596042D01*
X94366599Y-77205582D01*
X94344722Y-77205582D01*
X94344774Y-77146306D01*
X94096462Y-76545345D01*
X93751520Y-76199801D01*
X94094846Y-75857073D01*
X94344206Y-75256547D01*
X94344774Y-74606306D01*
X94096462Y-74005345D01*
X93637073Y-73545154D01*
X93036547Y-73295794D01*
X92386306Y-73295226D01*
X91785345Y-73543538D01*
X91325154Y-74002927D01*
X91075794Y-74603453D01*
X91075226Y-75253694D01*
X91323538Y-75854655D01*
X91668480Y-76200199D01*
X91325154Y-76542927D01*
X91075794Y-77143453D01*
X91075226Y-77793694D01*
X91144309Y-77960889D01*
X90363198Y-78742000D01*
X89939317Y-78742000D01*
X90284846Y-78397073D01*
X90534206Y-77796547D01*
X90534774Y-77146306D01*
X90286462Y-76545345D01*
X89941520Y-76199801D01*
X90284846Y-75857073D01*
X90534206Y-75256547D01*
X90534774Y-74606306D01*
X90465691Y-74439111D01*
X92770802Y-72134000D01*
X100524067Y-72134000D01*
X100174147Y-72483310D01*
X100174147Y-72483310D01*
G37*
X100174147Y-72483310D02*
X99776953Y-73439860D01*
X99776049Y-74475596D01*
X100171573Y-75432838D01*
X100827311Y-76089721D01*
X100532266Y-76089464D01*
X98835401Y-74392599D01*
X98588839Y-74227852D01*
X98298000Y-74170000D01*
X97466496Y-74170000D01*
X97398462Y-74005345D01*
X96939073Y-73545154D01*
X96338547Y-73295794D01*
X95688306Y-73295226D01*
X95087345Y-73543538D01*
X94627154Y-74002927D01*
X94377794Y-74603453D01*
X94377226Y-75253694D01*
X94625538Y-75854655D01*
X95052539Y-76282401D01*
X95039443Y-76317837D01*
X96012000Y-77290395D01*
X96984557Y-76317837D01*
X96971276Y-76281901D01*
X97396846Y-75857073D01*
X97466221Y-75690000D01*
X97983198Y-75690000D01*
X99167164Y-76873966D01*
X98949794Y-77397453D01*
X98949226Y-78047694D01*
X99197538Y-78648655D01*
X99542480Y-78994199D01*
X99199154Y-79336927D01*
X98949794Y-79937453D01*
X98949226Y-80587694D01*
X99197538Y-81188655D01*
X99656927Y-81648846D01*
X100257453Y-81898206D01*
X100907694Y-81898774D01*
X101508655Y-81650462D01*
X101968846Y-81191073D01*
X102218206Y-80590547D01*
X102218774Y-79940306D01*
X101970462Y-79339345D01*
X101625520Y-78993801D01*
X101968846Y-78651073D01*
X102218206Y-78050547D01*
X102218774Y-77400306D01*
X101970462Y-76799345D01*
X101645877Y-76474194D01*
X101859860Y-76563047D01*
X102895596Y-76563951D01*
X103852838Y-76168427D01*
X104585853Y-75436690D01*
X104983047Y-74480140D01*
X104983951Y-73444404D01*
X104588427Y-72487162D01*
X104235881Y-72134000D01*
X104333198Y-72134000D01*
X107302198Y-75103000D01*
X106914679Y-75103000D01*
X106380070Y-75209340D01*
X105926851Y-75512172D01*
X105624019Y-75965391D01*
X105517679Y-76500000D01*
X105624019Y-77034609D01*
X105926851Y-77487828D01*
X106349150Y-77770000D01*
X105926851Y-78052172D01*
X105624019Y-78505391D01*
X105517679Y-79040000D01*
X105624019Y-79574609D01*
X105926851Y-80027828D01*
X106349150Y-80310000D01*
X105926851Y-80592172D01*
X105624019Y-81045391D01*
X105517679Y-81580000D01*
X105624019Y-82114609D01*
X105926851Y-82567828D01*
X106349150Y-82850000D01*
X105926851Y-83132172D01*
X105624019Y-83585391D01*
X105517679Y-84120000D01*
X105624019Y-84654609D01*
X105926851Y-85107828D01*
X106349150Y-85390000D01*
X105926851Y-85672172D01*
X105774621Y-85900000D01*
X100690802Y-85900000D01*
X98327401Y-83536599D01*
X98080839Y-83371852D01*
X97790000Y-83314000D01*
X90016992Y-83314000D01*
X90170767Y-82881966D01*
X90142805Y-82331462D01*
X89985931Y-81952735D01*
X89744930Y-81884675D01*
X88952605Y-82677000D01*
X88966748Y-82691143D01*
X88787143Y-82870748D01*
X88773000Y-82856605D01*
X88758858Y-82870748D01*
X88579253Y-82691143D01*
X88593395Y-82677000D01*
X87801070Y-81884675D01*
X87560069Y-81952735D01*
X87375233Y-82472034D01*
X87403195Y-83022538D01*
X87523923Y-83314000D01*
X64770000Y-83314000D01*
X64479161Y-83371852D01*
X64232599Y-83536599D01*
X61438599Y-86330599D01*
X61273852Y-86577161D01*
X61216000Y-86868000D01*
X61216000Y-93218000D01*
X61273852Y-93508839D01*
X61438599Y-93755401D01*
X62454599Y-94771401D01*
X62701161Y-94936148D01*
X62790982Y-94954015D01*
X62875538Y-95158655D01*
X62968720Y-95252000D01*
X60743725Y-95252000D01*
X61035981Y-94814609D01*
X61142321Y-94280000D01*
X61035981Y-93745391D01*
X60733149Y-93292172D01*
X60310850Y-93010000D01*
X60733149Y-92727828D01*
X61035981Y-92274609D01*
X61142321Y-91740000D01*
X61035981Y-91205391D01*
X60733149Y-90752172D01*
X60310850Y-90470000D01*
X60733149Y-90187828D01*
X61035981Y-89734609D01*
X61142321Y-89200000D01*
X61035981Y-88665391D01*
X60733149Y-88212172D01*
X60310850Y-87930000D01*
X60733149Y-87647828D01*
X61035981Y-87194609D01*
X61142321Y-86660000D01*
X61035981Y-86125391D01*
X60733149Y-85672172D01*
X60310850Y-85390000D01*
X60733149Y-85107828D01*
X61035981Y-84654609D01*
X61142321Y-84120000D01*
X61035981Y-83585391D01*
X60733149Y-83132172D01*
X60310850Y-82850000D01*
X60733149Y-82567828D01*
X61035981Y-82114609D01*
X61142321Y-81580000D01*
X61035981Y-81045391D01*
X60768448Y-80645000D01*
X62876430Y-80645000D01*
X62876430Y-80994250D01*
X63030501Y-81514817D01*
X63372056Y-81936798D01*
X63849097Y-82195950D01*
X63920725Y-82210133D01*
X64135000Y-82087479D01*
X64135000Y-80645000D01*
X64389000Y-80645000D01*
X64389000Y-82087479D01*
X64603275Y-82210133D01*
X64674903Y-82195950D01*
X65151944Y-81936798D01*
X65493499Y-81514817D01*
X65532000Y-81384732D01*
X65570501Y-81514817D01*
X65912056Y-81936798D01*
X66389097Y-82195950D01*
X66460725Y-82210133D01*
X66675000Y-82087479D01*
X66675000Y-80645000D01*
X66929000Y-80645000D01*
X66929000Y-82087479D01*
X67143275Y-82210133D01*
X67214903Y-82195950D01*
X67691944Y-81936798D01*
X68033499Y-81514817D01*
X68072000Y-81384732D01*
X68110501Y-81514817D01*
X68452056Y-81936798D01*
X68929097Y-82195950D01*
X69000725Y-82210133D01*
X69215000Y-82087479D01*
X69215000Y-80645000D01*
X66929000Y-80645000D01*
X66675000Y-80645000D01*
X64389000Y-80645000D01*
X64135000Y-80645000D01*
X62876430Y-80645000D01*
X60768448Y-80645000D01*
X60733149Y-80592172D01*
X60310850Y-80310000D01*
X60712313Y-80041750D01*
X62876430Y-80041750D01*
X62876430Y-80391000D01*
X64135000Y-80391000D01*
X64135000Y-78948521D01*
X64389000Y-78948521D01*
X64389000Y-80391000D01*
X66675000Y-80391000D01*
X66675000Y-78948521D01*
X66929000Y-78948521D01*
X66929000Y-80391000D01*
X69215000Y-80391000D01*
X69215000Y-78948521D01*
X69000725Y-78825867D01*
X68929097Y-78840050D01*
X68452056Y-79099202D01*
X68110501Y-79521183D01*
X68072000Y-79651268D01*
X68033499Y-79521183D01*
X67691944Y-79099202D01*
X67214903Y-78840050D01*
X67143275Y-78825867D01*
X66929000Y-78948521D01*
X66675000Y-78948521D01*
X66460725Y-78825867D01*
X66389097Y-78840050D01*
X65912056Y-79099202D01*
X65570501Y-79521183D01*
X65532000Y-79651268D01*
X65493499Y-79521183D01*
X65151944Y-79099202D01*
X64674903Y-78840050D01*
X64603275Y-78825867D01*
X64389000Y-78948521D01*
X64135000Y-78948521D01*
X63920725Y-78825867D01*
X63849097Y-78840050D01*
X63372056Y-79099202D01*
X63030501Y-79521183D01*
X62876430Y-80041750D01*
X60712313Y-80041750D01*
X60733149Y-80027828D01*
X61035981Y-79574609D01*
X61142321Y-79040000D01*
X61035981Y-78505391D01*
X61014451Y-78473169D01*
X61250839Y-78426148D01*
X61497401Y-78261401D01*
X61782802Y-77976000D01*
X71821198Y-77976000D01*
X73265198Y-79420000D01*
X73152000Y-79589412D01*
X72861746Y-79155017D01*
X72412235Y-78854663D01*
X71882000Y-78749193D01*
X71351765Y-78854663D01*
X70902254Y-79155017D01*
X70601900Y-79604528D01*
X70600399Y-79612072D01*
X70573499Y-79521183D01*
X70231944Y-79099202D01*
X69754903Y-78840050D01*
X69683275Y-78825867D01*
X69469000Y-78948521D01*
X69469000Y-80391000D01*
X69489000Y-80391000D01*
X69489000Y-80645000D01*
X69469000Y-80645000D01*
X69469000Y-82087479D01*
X69683275Y-82210133D01*
X69754903Y-82195950D01*
X70231944Y-81936798D01*
X70573499Y-81514817D01*
X70600399Y-81423928D01*
X70601900Y-81431472D01*
X70902254Y-81880983D01*
X71351765Y-82181337D01*
X71882000Y-82286807D01*
X72412235Y-82181337D01*
X72861746Y-81880983D01*
X73152000Y-81446588D01*
X73442254Y-81880983D01*
X73891765Y-82181337D01*
X74422000Y-82286807D01*
X74952235Y-82181337D01*
X75401746Y-81880983D01*
X75692000Y-81446588D01*
X75982254Y-81880983D01*
X76431765Y-82181337D01*
X76962000Y-82286807D01*
X77492235Y-82181337D01*
X77941746Y-81880983D01*
X78232000Y-81446588D01*
X78522254Y-81880983D01*
X78971765Y-82181337D01*
X79502000Y-82286807D01*
X80032235Y-82181337D01*
X80481746Y-81880983D01*
X80772000Y-81446588D01*
X81062254Y-81880983D01*
X81511765Y-82181337D01*
X82042000Y-82286807D01*
X82572235Y-82181337D01*
X83021746Y-81880983D01*
X83139287Y-81705070D01*
X87980675Y-81705070D01*
X88773000Y-82497395D01*
X89565325Y-81705070D01*
X89497265Y-81464069D01*
X88977966Y-81279233D01*
X88427462Y-81307195D01*
X88048735Y-81464069D01*
X87980675Y-81705070D01*
X83139287Y-81705070D01*
X83322100Y-81431472D01*
X83427570Y-80901237D01*
X83427570Y-80134763D01*
X83322100Y-79604528D01*
X83021746Y-79155017D01*
X82572235Y-78854663D01*
X82042000Y-78749193D01*
X81511765Y-78854663D01*
X81062254Y-79155017D01*
X80772000Y-79589412D01*
X80481746Y-79155017D01*
X80032235Y-78854663D01*
X79502000Y-78749193D01*
X78971765Y-78854663D01*
X78522254Y-79155017D01*
X78232000Y-79589412D01*
X77941746Y-79155017D01*
X77722000Y-79008187D01*
X77722000Y-77530802D01*
X77867726Y-77385076D01*
X78193927Y-77711846D01*
X78794453Y-77961206D01*
X79444694Y-77961774D01*
X80045655Y-77713462D01*
X80505846Y-77254073D01*
X80755206Y-76653547D01*
X80755774Y-76003306D01*
X80507462Y-75402345D01*
X80162520Y-75056801D01*
X80505846Y-74714073D01*
X80575221Y-74547000D01*
X80584198Y-74547000D01*
X81504599Y-75467401D01*
X81751161Y-75632148D01*
X82042000Y-75690000D01*
X82365504Y-75690000D01*
X82433538Y-75854655D01*
X82778480Y-76200199D01*
X82435154Y-76542927D01*
X82185794Y-77143453D01*
X82185226Y-77793694D01*
X82433538Y-78394655D01*
X82892927Y-78854846D01*
X83493453Y-79104206D01*
X84143694Y-79104774D01*
X84744655Y-78856462D01*
X85204846Y-78397073D01*
X85274221Y-78230000D01*
X85791198Y-78230000D01*
X87600599Y-80039401D01*
X87847161Y-80204148D01*
X88138000Y-80262000D01*
X90678000Y-80262000D01*
X90968839Y-80204148D01*
X91215401Y-80039401D01*
X92218917Y-79035885D01*
X92383453Y-79104206D01*
X93033694Y-79104774D01*
X93634655Y-78856462D01*
X93869363Y-78622163D01*
X95039443Y-78622163D01*
X95138042Y-78888965D01*
X95747582Y-79115401D01*
X96397377Y-79091341D01*
X96885958Y-78888965D01*
X96984557Y-78622163D01*
X96012000Y-77649605D01*
X95039443Y-78622163D01*
X93869363Y-78622163D01*
X94094846Y-78397073D01*
X94344206Y-77796547D01*
X94344722Y-77205582D01*
X94366599Y-77205582D01*
X94390659Y-77855377D01*
X94593035Y-78343958D01*
X94859837Y-78442557D01*
X95832395Y-77470000D01*
X96191605Y-77470000D01*
X97164163Y-78442557D01*
X97430965Y-78343958D01*
X97657401Y-77734418D01*
X97633341Y-77084623D01*
X97430965Y-76596042D01*
X97164163Y-76497443D01*
X96191605Y-77470000D01*
X95832395Y-77470000D01*
X94859837Y-76497443D01*
X94593035Y-76596042D01*
X94366599Y-77205582D01*
X94344722Y-77205582D01*
X94344774Y-77146306D01*
X94096462Y-76545345D01*
X93751520Y-76199801D01*
X94094846Y-75857073D01*
X94344206Y-75256547D01*
X94344774Y-74606306D01*
X94096462Y-74005345D01*
X93637073Y-73545154D01*
X93036547Y-73295794D01*
X92386306Y-73295226D01*
X91785345Y-73543538D01*
X91325154Y-74002927D01*
X91075794Y-74603453D01*
X91075226Y-75253694D01*
X91323538Y-75854655D01*
X91668480Y-76200199D01*
X91325154Y-76542927D01*
X91075794Y-77143453D01*
X91075226Y-77793694D01*
X91144309Y-77960889D01*
X90363198Y-78742000D01*
X89939317Y-78742000D01*
X90284846Y-78397073D01*
X90534206Y-77796547D01*
X90534774Y-77146306D01*
X90286462Y-76545345D01*
X89941520Y-76199801D01*
X90284846Y-75857073D01*
X90534206Y-75256547D01*
X90534774Y-74606306D01*
X90465691Y-74439111D01*
X92770802Y-72134000D01*
X100524067Y-72134000D01*
X100174147Y-72483310D01*
M02*
