M48
INCH,TZ
T1C0.032
T2C0.032
T3C0.039
T4C0.125
%
G90
G05
T1
X24000Y-51300
X24000Y-52500
X24000Y-53700
X25000Y-51300
X25000Y-52500
X25000Y-53700
X25300Y-31700
X25300Y-34700
X25300Y-36100
X25300Y-37100
X25650Y-41950
X25800Y-44100
X25800Y-45300
X25900Y-47400
X25900Y-48400
X25950Y-50300
X26200Y-39700
X26200Y-40700
X26300Y-31700
X26300Y-34700
X26400Y-42950
X26600Y-36100
X26600Y-37100
X26800Y-44100
X26800Y-45300
X26950Y-49550
X26950Y-51050
X27100Y-47400
X27100Y-48400
X27150Y-41950
X27300Y-31700
X27300Y-34700
X27400Y-39700
X27400Y-40700
X28300Y-31700
X28300Y-34700
X28300Y-47400
X28300Y-48400
X28600Y-39700
X28600Y-40700
X28600Y-42300
X28600Y-45300
X28700Y-50200
X28700Y-53200
X29300Y-31700
X29300Y-34700
X29500Y-47400
X29500Y-48400
X29600Y-42300
X29600Y-45300
X29700Y-50200
X29700Y-53200
X29800Y-39700
X29800Y-40700
X30100Y-36400
X30100Y-37400
X30300Y-31700
X30300Y-34700
X30600Y-42300
X30600Y-45300
X30700Y-47400
X30700Y-48400
X30700Y-50200
X30700Y-53200
X31000Y-39700
X31000Y-40700
X31150Y-29050
X31150Y-30050
X31300Y-31700
X31300Y-34700
X31600Y-42300
X31600Y-45300
X31700Y-50200
X31700Y-53200
X31900Y-47400
X31900Y-48400
X32300Y-31700
X32300Y-34700
X33000Y-29500
X33000Y-30500
X33100Y-36400
X33100Y-37400
X33200Y-42700
X33200Y-44700
X33200Y-45900
X33200Y-47100
X33400Y-51500
X33400Y-53500
X34200Y-45900
X34200Y-47100
X34250Y-50100
X34350Y-42800
X34400Y-44600
X34500Y-51900
X34500Y-53100
X34500Y-54300
X34950Y-32550
X34950Y-34550
X35000Y-29500
X35000Y-30500
X35200Y-39700
X35200Y-40700
X35250Y-49350
X35250Y-50850
X35350Y-42050
X35350Y-43550
X35400Y-44600
X35400Y-47300
X35400Y-48300
X35500Y-51900
X35500Y-53100
X35500Y-54300
X36400Y-39700
X36400Y-40700
X36500Y-29500
X36500Y-30500
X36600Y-47300
X36600Y-48300
X37000Y-42300
X37000Y-45300
X37000Y-50200
X37000Y-53200
X37600Y-39700
X37600Y-40700
X37800Y-29500
X37800Y-30500
X37800Y-47300
X37800Y-48300
X38000Y-42300
X38000Y-45300
X38000Y-50200
X38000Y-53200
X38800Y-39700
X38800Y-40700
X39000Y-42300
X39000Y-45300
X39000Y-47300
X39000Y-48300
X39000Y-50200
X39000Y-53200
X39600Y-30600
X39600Y-31600
X40000Y-39700
X40000Y-40700
X40000Y-42300
X40000Y-45300
X40000Y-50200
X40000Y-53200
X40200Y-47300
X40200Y-48300
X41600Y-43300
X41600Y-45300
X41700Y-51500
X41700Y-53500
T2
X23307Y-30118
X23307Y-31118
X23307Y-32118
X23307Y-33118
X23307Y-34118
X23307Y-35118
X23307Y-36118
X23307Y-37118
X23307Y-38718
X23307Y-39718
X23307Y-40718
X23307Y-41718
X23307Y-42718
X23307Y-43718
X23307Y-44718
X23307Y-45718
X42307Y-30118
X42307Y-31118
X42307Y-32118
X42307Y-33118
X42307Y-34118
X42307Y-35118
X42307Y-37118
X42307Y-38118
X42307Y-39118
X42307Y-40118
X42307Y-41118
X42307Y-42118
T3
X24500Y-46800
X24500Y-47800
X29700Y-54400
X30700Y-54400
X38000Y-54400
X39000Y-54400
X42200Y-46600
X42200Y-47600
T4
X23307Y-49118
X29307Y-29118
X40307Y-29118
X42307Y-49618
T0
M30
